<svg data-name="Layer 1" xmlns="http://www.w3.org/2000/svg" viewBox="0 0 373.58 337.89">
  <g data-name="Layer 2">
    <g data-name="Layer 3">
      <rect x="138.07" y="22.4" width="171.52" height="256.57" rx="7.55" fill="#414547"/>
      <path fill="#343738" d="M145.88 37.57h149.6V271.3h-149.6z"/>
      <path fill="#fff" d="M148.58 34.87h149.6V268.6h-149.6z"/>
      <path d="M169.39 33.05v8.4a3 3 0 002.87 3.13h94.32V33.05a17.74 17.74 0 00-3.45-10.65h-90.28a17.73 17.73 0 00-3.46 10.65z" style="isolation:isolate" fill="#343738" opacity=".43000001"/>
      <rect x="138.07" y="22.4" width="171.52" height="256.57" rx="7.55" fill="none" stroke="#202020" stroke-linecap="round" stroke-linejoin="round" stroke-width="3"/>
      <circle cx="276.76" cy="134.67" r="5.79" fill="none" stroke="#202020" stroke-linecap="round" stroke-linejoin="round" stroke-width="3"/>
      <circle cx="276.76" cy="134.67" r="5.79" fill="none" stroke="#202020" stroke-linecap="round" stroke-linejoin="round" stroke-width="3"/>
      <path fill="none" stroke="#202020" stroke-linecap="round" stroke-linejoin="round" stroke-width="3" d="M186.63 134.67h65.15"/>
      <circle cx="276.76" cy="157.22" r="5.79" fill="none" stroke="#202020" stroke-linecap="round" stroke-linejoin="round" stroke-width="3"/>
      <path fill="none" stroke="#202020" stroke-linecap="round" stroke-linejoin="round" stroke-width="3" d="M186.63 157.22h65.15"/>
      <circle cx="276.76" cy="179.9" r="5.79" fill="none" stroke="#202020" stroke-linecap="round" stroke-linejoin="round" stroke-width="3"/>
      <path fill="none" stroke="#202020" stroke-linecap="round" stroke-linejoin="round" stroke-width="3" d="M186.63 179.9h65.15M206.44 239.78h65.15M274.56 133.66l2.2 3.52 9.38-12.7M274.56 156.22l2.2 3.51 9.38-12.7M274.56 178.77l2.2 3.51 9.38-12.69"/>
      <path d="M258.9 19.68l-7.22-.08a12.29 12.29 0 01-11.33-7.45 17.27 17.27 0 00-31.76-.36 12.3 12.3 0 01-11.5 7.2l-7.21-.08a14.08 14.08 0 00-14.22 13.9l-.11 10 97.13 1.1.12-10a14.09 14.09 0 00-13.9-14.23zm-34.51-.3a5.15 5.15 0 115.2-5.1 5.14 5.14 0 01-5.2 5.08z" fill="#e3e4e5"/>
      <path style="isolation:isolate" fill="#fff" opacity=".44999999" d="M175.61 37.58l-.06 5.17 97.13 1.1.07-6.27h-97.14z"/>
      <path d="M207 230.51a28.78 28.78 0 0013.67-19.64c-3.85 1.51-6.28 6.7-3.82 10 1.86 2.5 5.64 2.88 8.5 1.65s5-3.68 6.89-6.14l-4.8 20.5c-.58 2.51-1.22 5.11-2.86 7.1s-4.63 3.11-6.88 1.84c-2.5-1.41-2.87-4.84-2.63-7.71a8.83 8.83 0 011.06-4c2.09-3.33 6.94-3 10.86-2.6 8.36.77 16.76-.36 25.08-1.48 1.29-.17 2.76-.46 3.39-1.6s-.75-2.94-1.76-2.12c-.25 2.76 3 4.61 5.78 4.58s5.48-1.17 8.24-1" style="isolation:isolate" fill="none" stroke="#202020" stroke-linecap="round" stroke-linejoin="round" stroke-width="3" opacity=".41999999"/>
      <path d="M175.78 33.35a14.08 14.08 0 0114.06-14.06h7.21a12.31 12.31 0 0011.42-7.3 17.27 17.27 0 0131.76 0 12.3 12.3 0 0011.42 7.32h7.21a14.08 14.08 0 0114.06 14.06v10h-97.14z" fill="none" stroke="#202020" stroke-linecap="round" stroke-linejoin="round" stroke-width="3"/>
      <circle cx="224.35" cy="14.24" r="5.14" fill="none" stroke="#202020" stroke-linecap="round" stroke-linejoin="round" stroke-width="3"/>
      <circle cx="224.35" cy="14.24" r="5.14" fill="none" stroke="#202020" stroke-linecap="round" stroke-linejoin="round" stroke-width="3"/>
      <path fill="#e3e4e5" d="M171.19 66.02h107.36v34.43H171.19z"/>
      <path d="M298.18 34.87H286.8c-12.54 16.12-13.42 40.23-15.8 68.31-3.21 37.28-31.42 57.44-77.84 48.69-21.94-4.13-35.33 7.86-44.55 22.51v94.22H232c2.24-26.07 25-50.49 66.14-59.53z" style="isolation:isolate" fill="#8a8f93" opacity=".06"/>
      <path d="M176.37 109.72a9.86 9.86 0 003.31-10l-3.05-12.09a9.81 9.81 0 00-7.63-7.22l-.38-1.54a18.22 18.22 0 00-22.09-13.21 5.66 5.66 0 00-.79.27l-2.25 1-5.41 1.36v203.12a7.56 7.56 0 007.55 7.56H219z" style="isolation:isolate" fill="#343738" opacity=".28"/>
      <path d="M215.05 285.73a13.27 13.27 0 01-9.61 16.08L69.58 335.99a13.26 13.26 0 01-16.08-9.62L1.9 121.31a13.26 13.26 0 019.62-16.08l135.86-34.18a13.26 13.26 0 0116.08 9.62z" fill="#e3e4e5"/>
      <path d="M163.46 80.67l34.34 136.48c-46.34 22.58-75.55 61.77-89 109l-39.22 9.84a13.26 13.26 0 01-16.08-9.62l-37-147.09c27.75-21.59 45.83-53.29 49.65-87.8l81.23-20.43a13.26 13.26 0 0116.08 9.62z" style="isolation:isolate" fill="#fff" opacity=".30000001"/>
      <path d="M147.73 70.46l-4.88 2.15c7.73-1.51 14.24 2.87 16.5 11.87l52.14 207.21a13.08 13.08 0 010 6.46 13.27 13.27 0 003.91-13L163.81 80.08a13.27 13.27 0 00-16.08-9.62z" style="isolation:isolate" fill="#8a8f93" opacity=".54000002"/>
      <path d="M165.92 85.32a4.86 4.86 0 015.91 3.52l3 12.09a4.87 4.87 0 01-3.54 5.91" fill="#6d6f70" fill-rule="evenodd"/>
      <path d="M215.05 285.73a13.27 13.27 0 01-9.61 16.08L69.58 335.99a13.26 13.26 0 01-16.08-9.62L1.9 121.31a13.26 13.26 0 019.62-16.08l135.86-34.18a13.26 13.26 0 0116.08 9.62zM165.92 85.32h0a4.86 4.86 0 015.91 3.52h0l3 12.09a4.87 4.87 0 01-3.54 5.91h0" fill="none" stroke="#202020" stroke-linecap="round" stroke-linejoin="round" stroke-width="3"/>
      <path d="M60.93 207.54l36.75-9.24a6.49 6.49 0 017.88 4.7 6.5 6.5 0 01-4.72 7.88l-36.75 9.24a6.49 6.49 0 01-7.88-4.7 6.5 6.5 0 014.72-7.88zM117.05 193.43l41.88-10.54a6.49 6.49 0 017.88 4.71 6.5 6.5 0 01-4.71 7.87l-41.89 10.52a6.49 6.49 0 01-7.87-4.71 6.48 6.48 0 014.71-7.85zM66 227.6l11.84-3a6.49 6.49 0 017.88 4.71A6.49 6.49 0 0181 237.2l-11.84 3a6.49 6.49 0 01-7.87-4.71A6.48 6.48 0 0166 227.6zM97.41 219.69l66.59-16.7a6.5 6.5 0 017.88 4.71 6.49 6.49 0 01-4.72 7.87l-66.57 16.75a6.49 6.49 0 01-7.88-4.71 6.5 6.5 0 014.7-7.92zM71 247.65h.16a6.49 6.49 0 017.84 4.67 6.48 6.48 0 01-4.71 7.87h-.16a6.48 6.48 0 01-7.87-4.7 6.49 6.49 0 014.74-7.84z" fill="#fff"/>
      <rect x="69.35" y="250.65" width="6.64" height="6.56" rx="3.28" transform="rotate(-14.12 72.62994542 253.91872936)" fill="#6d6f70"/>
      <path d="M76.05 267.7h.15a6.48 6.48 0 017.88 4.7 6.5 6.5 0 01-4.71 7.88h-.16a6.49 6.49 0 01-7.87-4.71 6.48 6.48 0 014.71-7.87z" fill="#fff"/>
      <path d="M76.87 270.8h.08a3.28 3.28 0 014 2.38 3.28 3.28 0 01-2.38 4h-.08a3.28 3.28 0 01-4-2.38 3.28 3.28 0 012.38-4z" fill="#6d6f70"/>
      <rect x="76.19" y="287.54" width="13.14" height="12.97" rx="6.48" transform="rotate(-14.12 82.70653264 294.02654868)" fill="#fff"/>
      <path d="M81.92 290.85H82a3.29 3.29 0 014 2.38 3.3 3.3 0 01-2.38 4h-.08a3.28 3.28 0 01-4-2.39 3.28 3.28 0 012.38-3.99z" fill="#6d6f70"/>
      <path fill="none" stroke="#202020" stroke-linecap="round" stroke-linejoin="round" stroke-width="3" d="M86.5 250.44l50.84-12.8M91.54 270.49l63.19-15.9M96.59 290.54l35.94-9.05"/>
      <path d="M99.41 170.41l.74 3.09a.49.49 0 00.59.36.47.47 0 00.36-.57h0l-.74-3.09a14.1 14.1 0 009.75-16.94c-1.31-5.48-6.21-9.95-10.09-12.74a52.12 52.12 0 00-8.13-4.77.51.51 0 00-.59.14 57.66 57.66 0 00-5 8.1c-3.2 6.24-4.3 11.55-3.3 15.77a14.1 14.1 0 0016.41 10.65zM84 159.51a12.25 12.25 0 01-.32-2.89l14.4 8.18 1.12 4.66a13.13 13.13 0 01-15.2-9.95zm1.8-12.11l9.38 5.32 2.59 10.78-14.06-8a25.59 25.59 0 012.07-8.1zm21.84 2.33l-8.94 13.54-2.59-10.78 6-9.09a25.26 25.26 0 015.51 6.33zm-7.49 19.5L99 164.57l9.13-13.85a13.51 13.51 0 011 2.75 13.13 13.13 0 01-9 15.76zm1.23-26.46l-5.56 8.41-3.39-14.12a50.89 50.89 0 018.93 5.71zm-9.9-5.45l3.39 14.09-8.69-4.91a55 55 0 015.28-9.18z" fill="#6d6f70" stroke="#6d6f70" stroke-miterlimit="10" stroke-width="1.33000004"/>
      <path d="M249.59 109.99v2.38a.38.38 0 00.37.37.36.36 0 00.37-.35v-2.4a10.59 10.59 0 0010.08-10.65c0-4.22-2.79-8.34-5.13-11.06a40 40 0 00-5.09-4.9.39.39 0 00-.46 0 43.7 43.7 0 00-5.09 5c-3.4 4-5.12 7.68-5.12 10.94a10.58 10.58 0 0010.07 10.67zm-9.34-10.65a9.92 9.92 0 01.27-2.17l9.07 8.49v3.59a9.83 9.83 0 01-9.34-9.88zm3.43-8.52l5.91 5.52v8.32l-8.85-8.29a19.55 19.55 0 012.94-5.52zm15.53 5.53l-8.88 8.31v-8.29l6-5.57a18.73 18.73 0 012.88 5.58zm-8.88 12.9v-3.56l9.09-8.5a10.05 10.05 0 01.25 2.18 9.83 9.83 0 01-9.34 9.91zm5.53-19.08l-5.53 5.17V84.47a37.94 37.94 0 015.53 5.73zm-6.27-5.71v10.9l-5.46-5.1a40.85 40.85 0 015.46-5.77z" fill="#6d6f70" stroke="#6d6f70" stroke-miterlimit="10"/>
      <circle cx="324.42" cy="283.85" r="47.66" fill="#414547"/>
      <path d="M319.75 304.3l-.78 4a.62169124.62169124 0 101.22.24l.78-4a17.87 17.87 0 0020.2-14.37c1.39-7-1.89-14.76-4.89-20a65.2 65.2 0 00-6.85-9.8.63.63 0 00-.75-.14 71.15 71.15 0 00-10.08 6.66c-7 5.53-11 11.07-12.09 16.48a17.88 17.88 0 0013.24 20.93zm-12-20.72a16.06 16.06 0 011.16-3.51l12.27 17.06-1.18 5.95a16.63 16.63 0 01-12.27-19.5zm8.48-13l8 11.1-2.72 13.79-12-16.64a33 33 0 016.7-8.27zm24 14.25l-17.51 10.86 2.71-13.79 11.73-7.3a31.7 31.7 0 013 10.21zm-19 18.51l1.18-6 17.86-11.14a16.42 16.42 0 01-.3 3.7 16.62 16.62 0 01-18.76 13.37zm15.41-29.85l-10.86 6.76 3.57-18.07a64.1 64.1 0 017.27 11.29zm-8.54-11.5l-3.56 18-7.4-10.27a70.33 70.33 0 0110.96-7.73z" fill="#e3e4e5" stroke="#e3e4e5" stroke-miterlimit="10"/>
      <path d="M324.3 328.51a47.65 47.65 0 01-5.95-91.93 47.65 47.65 0 0011.89 94.55 46.68 46.68 0 009.34-2.14 47.49 47.49 0 01-15.28-.48z" style="isolation:isolate" fill="#343738" opacity=".79000002"/>
      <path d="M365.76 282.87a73.2 73.2 0 01-2.85 29.12 47.67 47.67 0 00-10.39-66.6c-1.28-.93-2.61-1.81-4-2.61 9.2 9.94 15.64 24.02 17.24 40.09z" style="isolation:isolate" fill="#fff" opacity=".44999999"/>
      <circle cx="344.47" cy="263.76" r="5.82" style="isolation:isolate" fill="#fff" opacity=".44999999"/>
      <circle cx="349.17" cy="280.35" r="3.15" style="isolation:isolate" fill="#fff" opacity=".44999999"/>
      <circle cx="305.04" cy="305.37" r="2.82" style="isolation:isolate" fill="#fff" opacity=".44999999"/>
      <circle cx="324.42" cy="283.85" r="47.66" fill="none" stroke="#202020" stroke-linecap="round" stroke-linejoin="round" stroke-width="3"/>
      <circle cx="324.42" cy="283.85" r="37.98" style="isolation:isolate" fill="#fff" opacity=".03"/>
      <rect x="138.07" y="22.4" width="171.52" height="256.57" rx="7.55" fill="#414547"/>
      <path fill="#343738" d="M145.88 37.57h149.6V271.3h-149.6z"/>
      <path fill="#fff" d="M148.58 34.87h149.6V268.6h-149.6z"/>
      <path d="M169.39 33.05v8.4a3 3 0 002.87 3.13h94.32V33.05a17.74 17.74 0 00-3.45-10.65h-90.28a17.73 17.73 0 00-3.46 10.65z" style="isolation:isolate" fill="#343738" opacity=".43000001"/>
      <rect x="138.07" y="22.4" width="171.52" height="256.57" rx="7.55" fill="none" stroke="#202020" stroke-linecap="round" stroke-linejoin="round" stroke-width="3"/>
      <circle cx="276.76" cy="134.67" r="5.79" fill="none" stroke="#202020" stroke-linecap="round" stroke-linejoin="round" stroke-width="3"/>
      <circle cx="276.76" cy="134.67" r="5.79" fill="none" stroke="#202020" stroke-linecap="round" stroke-linejoin="round" stroke-width="3"/>
      <path fill="none" stroke="#202020" stroke-linecap="round" stroke-linejoin="round" stroke-width="3" d="M186.63 134.67h65.15"/>
      <circle cx="276.76" cy="157.22" r="5.79" fill="none" stroke="#202020" stroke-linecap="round" stroke-linejoin="round" stroke-width="3"/>
      <path fill="none" stroke="#202020" stroke-linecap="round" stroke-linejoin="round" stroke-width="3" d="M186.63 157.22h65.15"/>
      <circle cx="276.76" cy="179.9" r="5.79" fill="none" stroke="#202020" stroke-linecap="round" stroke-linejoin="round" stroke-width="3"/>
      <path fill="none" stroke="#202020" stroke-linecap="round" stroke-linejoin="round" stroke-width="3" d="M186.63 179.9h65.15M206.44 239.78h65.15M274.56 133.66l2.2 3.52 9.38-12.7M274.56 156.22l2.2 3.51 9.38-12.7M274.56 178.77l2.2 3.51 9.38-12.69"/>
      <path d="M258.9 19.68l-7.22-.08a12.29 12.29 0 01-11.33-7.45 17.27 17.27 0 00-31.76-.36 12.3 12.3 0 01-11.5 7.2l-7.21-.08a14.08 14.08 0 00-14.22 13.9l-.11 10 97.13 1.1.12-10a14.09 14.09 0 00-13.9-14.23zm-34.51-.3a5.15 5.15 0 115.2-5.1 5.14 5.14 0 01-5.2 5.08z" fill="#e3e4e5"/>
      <path style="isolation:isolate" fill="#fff" opacity=".44999999" d="M175.61 37.58l-.06 5.17 97.13 1.1.07-6.27h-97.14z"/>
      <path d="M207 230.51a28.78 28.78 0 0013.67-19.64c-3.85 1.51-6.28 6.7-3.82 10 1.86 2.5 5.64 2.88 8.5 1.65s5-3.68 6.89-6.14l-4.8 20.5c-.58 2.51-1.22 5.11-2.86 7.1s-4.63 3.11-6.88 1.84c-2.5-1.41-2.87-4.84-2.63-7.71a8.83 8.83 0 011.06-4c2.09-3.33 6.94-3 10.86-2.6 8.36.77 16.76-.36 25.08-1.48 1.29-.17 2.76-.46 3.39-1.6s-.75-2.94-1.76-2.12c-.25 2.76 3 4.61 5.78 4.58s5.48-1.17 8.24-1" style="isolation:isolate" fill="none" stroke="#202020" stroke-linecap="round" stroke-linejoin="round" stroke-width="3" opacity=".41999999"/>
      <path d="M175.78 33.35a14.08 14.08 0 0114.06-14.06h7.21a12.31 12.31 0 0011.42-7.3 17.27 17.27 0 0131.76 0 12.3 12.3 0 0011.42 7.32h7.21a14.08 14.08 0 0114.06 14.06v10h-97.14z" fill="none" stroke="#202020" stroke-linecap="round" stroke-linejoin="round" stroke-width="3"/>
      <circle cx="224.35" cy="14.24" r="5.14" fill="none" stroke="#202020" stroke-linecap="round" stroke-linejoin="round" stroke-width="3"/>
      <circle cx="224.35" cy="14.24" r="5.14" fill="none" stroke="#202020" stroke-linecap="round" stroke-linejoin="round" stroke-width="3"/>
      <path fill="#e3e4e5" d="M171.19 66.02h107.36v34.43H171.19z"/>
      <path d="M298.18 34.87H286.8c-12.54 16.12-13.42 40.23-15.8 68.31-3.21 37.28-31.42 57.44-77.84 48.69-21.94-4.13-35.33 7.86-44.55 22.51v94.22H232c2.24-26.07 25-50.49 66.14-59.53z" style="isolation:isolate" fill="#8a8f93" opacity=".06"/>
      <path d="M176.37 109.72a9.86 9.86 0 003.31-10l-3.05-12.09a9.81 9.81 0 00-7.63-7.22l-.38-1.54a18.22 18.22 0 00-22.09-13.21 5.66 5.66 0 00-.79.27l-2.25 1-5.41 1.36v203.12a7.56 7.56 0 007.55 7.56H219z" style="isolation:isolate" fill="#343738" opacity=".28"/>
      <path d="M215.05 285.73a13.27 13.27 0 01-9.61 16.08L69.58 335.99a13.26 13.26 0 01-16.08-9.62L1.9 121.31a13.26 13.26 0 019.62-16.08l135.86-34.18a13.26 13.26 0 0116.08 9.62z" fill="#e3e4e5"/>
      <path d="M163.46 80.67l34.34 136.48c-46.34 22.58-75.55 61.77-89 109l-39.22 9.84a13.26 13.26 0 01-16.08-9.62l-37-147.09c27.75-21.59 45.83-53.29 49.65-87.8l81.23-20.43a13.26 13.26 0 0116.08 9.62z" style="isolation:isolate" fill="#fff" opacity=".30000001"/>
      <path d="M147.73 70.46l-4.88 2.15c7.73-1.51 14.24 2.87 16.5 11.87l52.14 207.21a13.08 13.08 0 010 6.46 13.27 13.27 0 003.91-13L163.81 80.08a13.27 13.27 0 00-16.08-9.62z" style="isolation:isolate" fill="#8a8f93" opacity=".54000002"/>
      <path d="M165.92 85.32a4.86 4.86 0 015.91 3.52l3 12.09a4.87 4.87 0 01-3.54 5.91" fill="#6d6f70" fill-rule="evenodd"/>
      <path d="M215.05 285.73a13.27 13.27 0 01-9.61 16.08L69.58 335.99a13.26 13.26 0 01-16.08-9.62L1.9 121.31a13.26 13.26 0 019.62-16.08l135.86-34.18a13.26 13.26 0 0116.08 9.62zM165.92 85.32h0a4.86 4.86 0 015.91 3.52h0l3 12.09a4.87 4.87 0 01-3.54 5.91h0" fill="none" stroke="#202020" stroke-linecap="round" stroke-linejoin="round" stroke-width="3"/>
      <path d="M60.93 207.54l36.75-9.24a6.49 6.49 0 017.88 4.7 6.5 6.5 0 01-4.72 7.88l-36.75 9.24a6.49 6.49 0 01-7.88-4.7 6.5 6.5 0 014.72-7.88zM117.05 193.43l41.88-10.54a6.49 6.49 0 017.88 4.71 6.5 6.5 0 01-4.71 7.87l-41.89 10.52a6.49 6.49 0 01-7.87-4.71 6.48 6.48 0 014.71-7.85zM66 227.6l11.84-3a6.49 6.49 0 017.88 4.71A6.49 6.49 0 0181 237.2l-11.84 3a6.49 6.49 0 01-7.87-4.71A6.48 6.48 0 0166 227.6zM97.41 219.69l66.59-16.7a6.5 6.5 0 017.88 4.71 6.49 6.49 0 01-4.72 7.87l-66.57 16.75a6.49 6.49 0 01-7.88-4.71 6.5 6.5 0 014.7-7.92zM71 247.65h.16a6.49 6.49 0 017.84 4.67 6.48 6.48 0 01-4.71 7.87h-.16a6.48 6.48 0 01-7.87-4.7 6.49 6.49 0 014.74-7.84z" fill="#fff"/>
      <rect x="69.35" y="250.65" width="6.64" height="6.56" rx="3.28" transform="rotate(-14.12 72.62994542 253.91872936)" fill="#6d6f70"/>
      <path d="M76.05 267.7h.15a6.48 6.48 0 017.88 4.7 6.5 6.5 0 01-4.71 7.88h-.16a6.49 6.49 0 01-7.87-4.71 6.48 6.48 0 014.71-7.87z" fill="#fff"/>
      <path d="M76.87 270.8h.08a3.28 3.28 0 014 2.38 3.28 3.28 0 01-2.38 4h-.08a3.28 3.28 0 01-4-2.38 3.28 3.28 0 012.38-4z" fill="#6d6f70"/>
      <rect x="76.19" y="287.54" width="13.14" height="12.97" rx="6.48" transform="rotate(-14.12 82.70653264 294.02654868)" fill="#fff"/>
      <path d="M81.92 290.85H82a3.29 3.29 0 014 2.38 3.3 3.3 0 01-2.38 4h-.08a3.28 3.28 0 01-4-2.39 3.28 3.28 0 012.38-3.99z" fill="#6d6f70"/>
      <path fill="none" stroke="#202020" stroke-linecap="round" stroke-linejoin="round" stroke-width="3" d="M86.5 250.44l50.84-12.8M91.54 270.49l63.19-15.9M96.59 290.54l35.94-9.05"/>
      <path d="M99.41 170.41l.74 3.09a.49.49 0 00.59.36.47.47 0 00.36-.57h0l-.74-3.09a14.1 14.1 0 009.75-16.94c-1.31-5.48-6.21-9.95-10.09-12.74a52.12 52.12 0 00-8.13-4.77.51.51 0 00-.59.14 57.66 57.66 0 00-5 8.1c-3.2 6.24-4.3 11.55-3.3 15.77a14.1 14.1 0 0016.41 10.65zM84 159.51a12.25 12.25 0 01-.32-2.89l14.4 8.18 1.12 4.66a13.13 13.13 0 01-15.2-9.95zm1.8-12.11l9.38 5.32 2.59 10.78-14.06-8a25.59 25.59 0 012.07-8.1zm21.84 2.33l-8.94 13.54-2.59-10.78 6-9.09a25.26 25.26 0 015.51 6.33zm-7.49 19.5L99 164.57l9.13-13.85a13.51 13.51 0 011 2.75 13.13 13.13 0 01-9 15.76zm1.23-26.46l-5.56 8.41-3.39-14.12a50.89 50.89 0 018.93 5.71zm-9.9-5.45l3.39 14.09-8.69-4.91a55 55 0 015.28-9.18z" fill="#6d6f70" stroke="#6d6f70" stroke-miterlimit="10" stroke-width="1.33000004"/>
      <path d="M249.59 109.99v2.38a.38.38 0 00.37.37.36.36 0 00.37-.35v-2.4a10.59 10.59 0 0010.08-10.65c0-4.22-2.79-8.34-5.13-11.06a40 40 0 00-5.09-4.9.39.39 0 00-.46 0 43.7 43.7 0 00-5.09 5c-3.4 4-5.12 7.68-5.12 10.94a10.58 10.58 0 0010.07 10.67zm-9.34-10.65a9.92 9.92 0 01.27-2.17l9.07 8.49v3.59a9.83 9.83 0 01-9.34-9.88zm3.43-8.52l5.91 5.52v8.32l-8.85-8.29a19.55 19.55 0 012.94-5.52zm15.53 5.53l-8.88 8.31v-8.29l6-5.57a18.73 18.73 0 012.88 5.58zm-8.88 12.9v-3.56l9.09-8.5a10.05 10.05 0 01.25 2.18 9.83 9.83 0 01-9.34 9.91zm5.53-19.08l-5.53 5.17V84.47a37.94 37.94 0 015.53 5.73zm-6.27-5.71v10.9l-5.46-5.1a40.85 40.85 0 015.46-5.77z" fill="#6d6f70" stroke="#6d6f70" stroke-miterlimit="10"/>
      <circle cx="324.42" cy="283.85" r="47.66" fill="#414547"/>
      <path d="M319.75 304.3l-.78 4a.62169124.62169124 0 101.22.24l.78-4a17.87 17.87 0 0020.2-14.37c1.39-7-1.89-14.76-4.89-20a65.2 65.2 0 00-6.85-9.8.63.63 0 00-.75-.14 71.15 71.15 0 00-10.08 6.66c-7 5.53-11 11.07-12.09 16.48a17.88 17.88 0 0013.24 20.93zm-12-20.72a16.06 16.06 0 011.16-3.51l12.27 17.06-1.18 5.95a16.63 16.63 0 01-12.27-19.5zm8.48-13l8 11.1-2.72 13.79-12-16.64a33 33 0 016.7-8.27zm24 14.25l-17.51 10.86 2.71-13.79 11.73-7.3a31.7 31.7 0 013 10.21zm-19 18.51l1.18-6 17.86-11.14a16.42 16.42 0 01-.3 3.7 16.62 16.62 0 01-18.76 13.37zm15.41-29.85l-10.86 6.76 3.57-18.07a64.1 64.1 0 017.27 11.29zm-8.54-11.5l-3.56 18-7.4-10.27a70.33 70.33 0 0110.96-7.73z" fill="#e3e4e5" stroke="#e3e4e5" stroke-miterlimit="10"/>
      <path d="M324.3 328.51a47.65 47.65 0 01-5.95-91.93 47.65 47.65 0 0011.89 94.55 46.68 46.68 0 009.34-2.14 47.49 47.49 0 01-15.28-.48z" style="isolation:isolate" fill="#343738" opacity=".79000002"/>
      <path d="M365.76 282.87a73.2 73.2 0 01-2.85 29.12 47.67 47.67 0 00-10.39-66.6c-1.28-.93-2.61-1.81-4-2.61 9.2 9.94 15.64 24.02 17.24 40.09z" style="isolation:isolate" fill="#fff" opacity=".44999999"/>
      <circle cx="344.47" cy="263.76" r="5.82" style="isolation:isolate" fill="#fff" opacity=".44999999"/>
      <circle cx="349.17" cy="280.35" r="3.15" style="isolation:isolate" fill="#fff" opacity=".44999999"/>
      <circle cx="305.04" cy="305.37" r="2.82" style="isolation:isolate" fill="#fff" opacity=".44999999"/>
      <circle cx="324.42" cy="283.85" r="47.66" fill="none" stroke="#202020" stroke-linecap="round" stroke-linejoin="round" stroke-width="3"/>
      <circle cx="324.42" cy="283.85" r="37.98" style="isolation:isolate" fill="#fff" opacity=".03"/>
    </g>
  </g>
</svg>