<svg data-name="Layer 1" xmlns="http://www.w3.org/2000/svg" viewBox="0 0 468.78 428.15">
  <g data-name="Layer 2">
    <g data-name="Layer 3">
      <path d="M468.78 382.67c-17.8 15.56-43.19 2-64.29 4-2.55.29-5 .67-7.49 1-12.35 1.8-24.67 3.08-34.87-4.85 9.07-4.08 18.59-5.9 28.2-7.13q3.6-.46 7.22-.85c21.7-3.81 42.55 4.35 64.6 4.54 4.22.62 6.63 1.7 6.63 3.29z" fill="#eaeaea"/>
      <path fill="#2f3335" d="M403.33 166.28l-.7-7.08-6.43-.81-4.05 2.52-2.7 2.29 1.17.77-.09.2-2.12 4.23 3.74 4.03v6.34l6.86 2.25-1.46-8.59 5.78-6.15z"/>
      <path d="M402.63 159.2l-2.69-.34c.21 2.07.33 4.86-.32 6-1.11 1.85-4.63 7.43-4.63 7.43l2.28 8.18 1.74.58-1.46-8.59 5.78-6.15z" style="isolation:isolate" fill="#8a8f93" opacity=".67000002"/>
      <path fill="none" stroke="#202020" stroke-linecap="round" stroke-linejoin="round" stroke-width="2.77999997" d="M403.33 166.28l-.7-7.08-6.43-.81-4.05 2.52-2.7 2.29 1.17.77-.09.2-2.12 4.23 3.74 4.03v6.34l6.86 2.25-1.46-8.59 5.78-6.15z"/>
      <path fill="#2f3335" d="M405.3 205.47l-.76 88.7h-4.84l-4.82-65.32-4.83 18.05.25 47.27h-6.61l-1.01-48.54 2.28-39.91 18.31-5.6 2.03 5.35z"/>
      <path fill="#8a8f93" d="M416.74 197.84l-5.6 25.16h-2.29l2.04-22.88-8.13-12.19.51 12.19-18.31 5.6-2.54-19.58-20.59-13.98 2.29-26.17h2.8v23.64l19.57 8.13h16.78l13.47 20.08z"/>
      <path d="M416.74 197.84l-3.32 16.86-1.9-.63 2.12-13.39a5 5 0 00-1-3.93l-7.78-9.86a1.08 1.08 0 00-1.5-.33 1 1 0 00-.5.77l-.11.6.51 12.19-6.07 1.88c.29-3.12.54-6.84.65-10.57 0-.58-1.05-1.28-1-1.86s1.09-1.19 1.09-1.84a63.15 63.15 0 00-.64-10h6z" style="isolation:isolate" fill="#eaeaea" opacity=".41999999"/>
      <path fill="#6d6f70" d="M405.3 205.47l-.76 88.7h-2.12l-1.45-35.53-1.61-34.22-1.02-2.62 1.78-3.01-2.16-2.32-1.03-14.41 6.34-1.94 2.03 5.35z"/>
      <path d="M372.93 173.65l-7.75-2.6a.93.93 0 01-.63-.92l.62-14.31a1 1 0 01.57-.82.93.93 0 011.22.48 1 1 0 01.08.33l.62 12.32a.9.9 0 00.48.77l5.54 3a1 1 0 11-.75 1.75z" style="isolation:isolate" fill="#eaeaea" opacity=".41999999"/>
      <path fill="none" stroke="#202020" stroke-linecap="round" stroke-linejoin="round" stroke-width="2.77999997" d="M405.3 205.47l-.76 88.7h-4.84l-4.82-65.32-4.83 18.05.25 47.27h-6.61l-1.01-48.54 2.28-39.91 18.31-5.6 2.03 5.35z"/>
      <path fill="none" stroke="#202020" stroke-linecap="round" stroke-linejoin="round" stroke-width="2.77999997" d="M416.74 197.84l-5.6 25.16h-2.29l2.04-22.88-8.13-12.19.51 12.19-18.31 5.6-2.54-19.58-20.59-13.98 2.29-26.17h2.8v23.64l19.57 8.13h16.78l13.47 20.08zM370.11 140.91l-7.81 5.99M394.99 154.47c.45 1.81-.1 3.76 3.77 4.25M409.76 223l.31 4.4 3.01 1.85M415.04 223.28l-6.35 9.13M410.52 234.34l-3.92-3.74"/>
      <path d="M399.77 309.55c2.91 2.51 7-.7 7-.7l-3.27-9.36h-2.46z" fill="#8a8f93"/>
      <path d="M399.77 309.55c2.91 2.51 7-.7 7-.7l-3.27-9.36h-2.46zM401.07 299.49l.1-5.32h1.93l.44 5.32" fill="none" stroke="#202020" stroke-linecap="round" stroke-linejoin="round" stroke-width="2.77999997"/>
      <path d="M374.43 301.44c-1.8-6 1.42-6.77 1.42-6.77l9.34 2.41 1.31-2.41h1.31v6.77z" fill="#8a8f93"/>
      <path d="M374.43 301.44c-1.8-6 1.42-6.77 1.42-6.77l9.34 2.41 1.31-2.41h1.31v6.77zM399.36 207.39c.76 2.41 3.92 5 5.88 4.67M393.99 177.76l-1.71 10.5 1.71 13.95M383.54 190.03l3.46-.73M363.38 154.47h3.54M409.76 214.28l3.32.01" fill="none" stroke="#202020" stroke-linecap="round" stroke-linejoin="round" stroke-width="2.77999997"/>
      <ellipse cx="399.98" cy="167.35" rx="1.66" ry="1.18" transform="rotate(-29.89 399.89477911 167.48225408)" fill="#2f3335"/>
      <path fill="none" stroke="#202020" stroke-linecap="round" stroke-linejoin="round" stroke-width="2.77999997" d="M340.08 168.04l58.68 214.12M356.4 172.26l77.03 207.38M386.39 350.81h39.21M380.04 326.13h37.4M373.1 301.44h35.59M367.26 276.76h28.34M360.27 252.08h28.33M352.84 227.4h26.51M348.21 202.21h22.89"/>
      <path d="M314.56 346c0-13 15.3-40.82 23.34-57.36l.15-.31c.4-.84.8-1.69 1.19-2.55l.16-.36q.66-1.47 1.29-3l.21-.53c.34-.83.67-1.68 1-2.54l.29-.77c.35-1 .7-1.93 1-2.92l.07-.22c.37-1.08.72-2.18 1.07-3.3.06-.22.13-.44.19-.66.28-.92.55-1.86.81-2.8.07-.24.14-.48.2-.73.63-2.32 1.2-4.71 1.73-7.17l.12-.58c.24-1.12.46-2.24.67-3.39a.88.88 0 01.08-.44c.48-2.63.89-5.35 1.25-8.14v-.29c1.14-9.11-.86-19.05-.45-29.93.66-17.27-1.29-28.52-1.29-28.52s4.52-11.7 8.68-17.22c5.91-7.83 6.18-21.18 4.08-30.63l-25.3 6.18s-29.89-39-66.53-19.78L282 260.75z" fill="#8a8f93"/>
      <path d="M13.59 402.34l22.24-40.86c-3.62-11.89-17.59-12.93-17.59-17.06s.52-18.62-4.65-20.69-6.21-3.1-12.41-29c0 0 17.06-22.76 17.32-27.93s-1.81-18.1 1.81-25.6 10.35-30.77 9.31-34.39c0 0 8.28-14.48 9.31-20.69 0 0 20.17-10.86 22.24-22.23s1-66.2 6.21-75.51 31.55-11.85 47.06-20.65 18.1-16.54 32.06-11.37c0 0 36.21-24.31 37.76-30s8.79-15.52 12.92-16 15.52-4.65 22.24-8.27 74.51 64.61 74.51 64.61-3.1 17.58 5.69 20.17 16.55-6.21 21.2 10.86 10.87 5.17 13.45 16 3.66 17.59 3.66 17.59l-33.8 189.94 14.65 38.67-4.66 24.31 6.73 24.82s-30.54 9.83-36.74 9.83-46.55-3.62-46.55-3.62l-5.17 3.62-58.46 7.76s-59.47-11.38-68.26-11.9-61.55-3.1-61.55-3.1l-8.27 3.1z" fill="#d6d7d8"/>
      <path d="M274.24 154.47c.44-1 65.83 13.67 65.84 13.57 1.15-9.11-4.9-20.23-4.9-20.23s-29.89-39-66.53-19.78c0-.03 5.53 26.57 5.59 26.44z" fill="#8a8f93"/>
      <path d="M43.24 353.48s16.21-4.78 27.41-4.67c17.93.19 42.75 10.28 68.35.19s101-.19 101-.19V321.9l-105.21 8-26.33 18.93-44-6.53-19.38 1z" style="isolation:isolate" fill="#b9bdc1" opacity=".67000002"/>
      <path d="M50.05 411.84l-6.2-.31-8.29 3.11-22.23-12.41 22.23-40.86c-.32-1.07 7.42-8 7.42-8L35.83 390l7.15 4.66z" fill="#8a8f93"/>
      <path d="M141.64 384l-16.6 18-24.25 12.48c-8.57-.44-24.59-1.25-37.42-1.88l-.78-.37c15.13-8.54 22.75-17.19 22.23-22.18s5.89-9.08 6.57-13 21.11-3.39 23.31-6.54c3.2-4.61 11-2.16 12.92-7.39 3-7.87 10.78-13.24 10.78-13.24z" style="isolation:isolate" fill="#414547" opacity=".34"/>
      <path d="M36.09 261.6c-4.14 3.11-8.79 18.62-12.42 23.86s-10.86 18-10.86 18-1.77 7.54-4.26 16.23c-1.92-3.34-3.78-10-7.37-25 0 0 17.07-22.74 17.32-27.92 8.28-9.17 17.59-5.17 17.59-5.17z" fill="#8a8f93"/>
      <path d="M57.61 171.23l-6 29.6-22.76 13.1c.72-3.41 1-6 .76-7.08 0 0 8.28-14.48 9.31-20.69.01 0 12.3-6.61 18.69-14.93z" fill="#d6d7d8"/>
      <path d="M154.48 77c-9.79 6.72-25.82 10.34-26.34 11.89S123.56 102 103.09 111l18.33-22.06z" fill="#b9bdc1"/>
      <path d="M57.61 171.23l-6 29.6-22.76 13.1c.72-3.41 1-6 .76-7.08 0 0 8.28-14.48 9.31-20.69.01 0 12.3-6.61 18.69-14.93z" fill="#8a8f93"/>
      <path d="M278.24 80.38c-17.51 4-27.74 23.69-41.05 25.75a174.72 174.72 0 00-22.17 4.8l2.42-9s18 .93 26.89-6.65 11.33-12.19 33.91-14.9z" fill="#b9bdc1"/>
      <path d="M184.26 26.37v25s-.78 23.54-10.81 14.31-27-9.33-27-9.33 36.26-24.3 37.81-29.98z" fill="#d6d7d8"/>
      <path d="M269.84 58.88s-11.6 1.41-16.06 2.58S245.49 65 241.64 66c-3 .82-7.61 4.66-9 10.94-1.71 8.19-2.29 13.9-1.71 19.87.36 3.77.57 8 1 14.12.26 3.93.8 8.87.8 11.07 0 4-4.48 6.69-4.47 6.69l-14.22-7.24-3.62-38.79 10.09-27.41 18.1-12.92 7.11-1.81z" style="isolation:isolate" fill="#6d6f70" opacity=".55000001"/>
      <path d="M245.67 383.91c-6.59 7.76-34.78 12.55-13.32 35l-58.42 7.74s-59.47-11.39-68.27-11.9c-4-.23-16.9-.89-29.89-1.53 11.93-6.89 15.72-13.77 17.59-23.87 3-16.3 33-12.41 35.44-19.4S139 349 139 349l62.07-27.09 39 26.9s12.19 27.34 5.6 35.1z" fill="#ebebeb"/>
      <path d="M70.67 195.5l30.79-122.2c-14.25 4.91-30.19 8.11-34.08 15.12-5.18 9.31-4.14 64.13-6.21 75.51s-22.24 22.24-22.24 22.24c-1 6.2-9.31 20.68-9.31 20.68 1 3.62-5.69 26.89-9.31 34.39s-1.55 20.43-1.81 25.6-17.32 27.93-17.32 27.93c6.2 25.86 7.24 26.89 12.41 29s4.65 16.55 4.65 20.69 14 5.17 17.59 17.06l-22.24 40.82 22.24 12.41 8.27-3.1 32.44 1.6-33.3-59.77 8.38-44.82 13.17-19.91z" style="isolation:isolate" fill="#414547" opacity=".31"/>
      <path d="M51.62 177.31c-7.26 14.48-6.35 27.18-6.35 27.18s2.56 2.29 3.15 9.79-5.18 18.88-5.18 18.88 2.6 23.54 4.19 25.48-5.32 23.45-4.19 27.69 3.74 19.23 8.38 22.33 22.22 2.29 28.43 3.48 20.75 6.75 23 7.58 15.91-1.35 24.88 0 42.55.2 42.55.2l10.56-19z" style="isolation:isolate" fill="#6d6f70" opacity=".79000002"/>
      <path d="M44.44 411.66h2.49l1.28.06h1.09l1.35.07h2l1.08.05 1.27.06 21.6 1.1-8.2-14.71-25.1-45.06 8.38-44.82 13.17-19.91 5.42-85.92-18.55-25v-.41l-.06.2-.07-.09a81.75 81.75 0 01-12.66 8.89c-1 6.2-9.31 20.68-9.31 20.68 1 3.62-5.69 26.89-9.31 34.39s-1.55 20.43-1.81 25.6-17.32 27.93-17.32 27.93c4.31 18 6.13 24 8.58 26.62l.34.34c.1.1.21.19.32.28l.06.05.31.24.08.05.31.2.09.06.32.18h.09l.34.17.1.05.35.16.1.05.37.16h.11l.49.2c5.17 2.07 4.65 16.55 4.65 20.69s14 5.17 17.59 17.06l-22.19 41 22.24 12.42 8.27-3.1h.34z" style="isolation:isolate" fill="#414547" opacity=".23"/>
      <path d="M278.38 51.38C275.53 29.91 264.93 5 260.67 1.92s-6.89 18.17-6.89 18.17l6.89 37.09 9.17 1.7z" fill="#b9bdc1"/>
      <path d="M190.14 88.87c-50.68 6.72-128.46 25.89-134.59 41.91S50.45 279.25 58.72 295s107.06 18.55 136 17.15 18.61-166.38 18.61-166.38l-11.87-56.9z" fill="#ebebeb"/>
      <path d="M233.33 271.09h2.65a7 7 0 01-2.65 0z" style="isolation:isolate" fill="#202020" opacity=".76999998"/>
      <path d="M179.17 110.93c-27.92 1.55-102.35 15.18-106.48 36.9s-2.07 131.49 7.24 137.63S232.68 295 232.68 295l-15.33-178.72z" fill="#6d6f70"/>
      <path d="M165.31 179.75a44.38 44.38 0 00-28-13.4c-20.88-2.09-34.29 11.77-41.64 29.67-9.07 22.12-12.71 54 7.67 71.39a39.69 39.69 0 0027.37 9.16c16.72-.62 33.48-6.23 42.27-21.37 12.82-22.05 10.53-56.68-7.67-75.45z" fill="#ebebeb"/>
      <path d="M155.37 193.28a29.9 29.9 0 00-18.89-9c-14.09-1.41-23.14 7.94-28.09 20-6.12 14.92-8.58 36.46 5.17 48.17a26.81 26.81 0 0018.47 6.18c11.28-.42 22.59-4.21 28.52-14.42 8.65-14.89 7.1-38.21-5.18-50.93zM184.26 26.37v25s-.78 23.54-10.81 14.31-27-9.33-27-9.33 36.26-24.3 37.81-29.98z" fill="#8a8f93"/>
      <path d="M201.84 57.84l-8.18-36.46-4 8.87c-.17.46-5.31-4.31-5.43-3.89-.42 1.55-3.41 4.47-7.52 7.9-.12 2.57-5.79 7.49-7.22 8.52-3.1 2.23-1.11 10.07-3.14 18.19-2.74 3.85-1.65 11.25-1.4 18.78.19 5.56-.89 12.38-1.78 17.72.47 5 4.32 9.63 3.61 12.93-1.42 6.59 1.49 19.24-.79 19.4s-11.24-2-14.34-.7-9.57 5.43-15.59 3.88-11-2.58-17.25 6.73l18.36 6.2 35.17 4.66 24-26.27z" style="isolation:isolate" fill="#414547" opacity=".51999998"/>
      <path d="M197.5 110.93c-5 11.56-10.21 13.47-35.82 17.76s-49.83 1.94-54.87 5c-11.77 7.31-3.72 7.93-18.39 11.31-4.77 1.09-10.34 16.95-6.43 20.15s-1.6 15.71-1.94 18.81.38 28.12-1.56 34.33-.77 33.75 1.94 35.3 4.35 12.31 3.15 17.6 5.2 8.47 9.75 9.59 32.23 2.67 35.46 5 10.66-3.41 9.27-5-16.47-.57-26.57-4.18-20.51-14.94-23.07-24.6c-2.17-8.15-5.08-40.48-4.84-44.22.77-12.59 12.48-33.36 16.52-38.79s27.83-12.18 27.83-12.18l63.78-18z" fill="#8a8f93"/>
      <path d="M159.11 47.1l-7.44 52.29L136.08 133l-17.25-3.77-11.39 48.1 17.08 37-5.69 76 22.83 21.27-6.84 18.4 4.18 19 127.08-93.15-81.83-229.49c-1.07 3.93-14.32 13.19-25.14 20.74z" style="isolation:isolate" fill="#414547" opacity=".2"/>
      <path d="M278.24 139.55a140.45 140.45 0 00-8.4-16.55l-28.6 21.79-14.31 27.6-.39 50.89 18.08-1.91s1-18.8 2-23.23-1-12.52 2.19-15.51 29.43-43.08 29.43-43.08z" style="isolation:isolate" fill="#6d6f70" opacity=".55000001"/>
      <path d="M166.01 316.94c-3.74-14-2.85-23.4-3.6-26.71s-10-21-7.93-29.49 1.27-29.39 5.86-32.24 5.67 1.73-3.24-17.18c-7.72-16.39 7.55-.34-4.65-5.68-4.6-2 10.9-7.34 3.75-9.59-8.32-2.61-29.61-11.12-33.75-12.09s-10.86-5.36-10.34-16.87 3-15.13 0-21.33 6.75-16.55 6.75-16.55l27.67 6.21L210.37 154l19.19 104.61-14.54 53.81z" style="isolation:isolate" fill="#414547" opacity=".51999998"/>
      <path d="M118.83 177.82c-1.55-16.55-2.07-44 0-48.61s55.86-4.66 55.86-7.24-7.83-78.52 9.56-95.61 52.26-27.1 76.42-24.44c8.66 24.37 0 55.26 0 55.26-28.06.66-38 5.32-37.66 37.9s.2 23.41.2 23.41c7 7 46.63 4.51 46.63 4.51l-12.68 53.21-24.48-2.27-1.13 1.06 1.78 63.32-8.46 73.34-54.62.47s-5.73-59.86-5.92-88.28c-.21-31.63-1.8-44.49-1.8-44.49s-30.77 3.12-43.7-1.54z" fill="#ebebeb"/>
      <path d="M304.09 321.26l-13.49-31-49.27 19-10.41 4 17.85-49 2.63-8.07-70.32 52.53-10.56-131-1-1.72s-15.57-.77-17.85-.39a131.73 131.73 0 01-14.14 1.69c-4.4.12-5.69-1.49-7.83-2.07s-4.65.77-7.17 0c-2.29-.71-3.46-29.35-3.66-46.08v.05c-2.07 4.65-1.55 32.06 0 48.61 12.93 4.66 43.7 1.55 43.7 1.55L151.19 285.9l-16.37 44s2.35 11.27 4.18 19.12c8.53 6.7 16.83 7 33.59 7.94 9.21.54 19.17.55 28.62.45 7.73-.06 15.11-.2 21.47-.17a131.51 131.51 0 0121.25 1.76l39.53-14.89h8.7l14.12-17.06z" style="isolation:isolate" fill="#414547" opacity=".25999999"/>
      <path d="M335.18 151.08c-3.7-2.17 2.58-9 0-11.38-3.92-3.57-18.44-14.47-32-19.9-4.6-1.84-20.84 5.06-32.15 7.06-8.62 1.52-10 .69-10.39.93-13.48 2.3-9.28 3.17-21.22 19.54-4.52 6.19.61 28.88-4.62 35.3-2.62 3.21-13.7 12.24-16.23 15.64-7.26 9.74-21.78 3.73-26.34 4.17-11.15 1.07-12.22-9.05-17.63-10.42-11-2.78-11-2.78-25.2-5.59-9.14 14.23-12.24 27.06-6.76 36.85 6.94 12.41 13 20.6 15.55 24.59 3.53 5.43-6.41 0-21-8.25a72.71 72.71 0 00.22 22.38 47.53 47.53 0 004 12.45 40.76 40.76 0 004.14 6.77c4.86 6.45 10.72 5.68 16 8.19 6.22 2.95 17.54 1.51 18.36 1.78l12.58 2.71-18.78 4.37-20.25 24.65-3.53 13.17L139 349s3.69 3.53 11.36 5.59c5.59 1.51 13.92 1.87 24.07 2.4 18.65 1 34.11.16 48.25.24a130.4 130.4 0 0121.25 1.77l39.53-14.89-52.53-30.91 17.84-49 34.16-104.6 8.37 2.35 33.16 5.32 1.93-.56 2.94-16.94s6.98 6.75 5.85 1.31z" style="isolation:isolate" fill="#414547" opacity=".25999999"/>
      <path d="M167.41 245.26c-14-8.56-30.24-22.65-25.77-47.54l7.77-11.29zM171.63 285.55c-19.57-.48-37.64-14.62-39.69-38l5.23-7.92z" fill="#6d6f70"/>
      <path d="M340.77 186.16s19.71-24.57 19.71-44.53c0 0-10.58.6-31.14 8.14 0 0-32-38.82-67.62-18.5-3.1 1.77-.49-.09-3.1 1.77-18.33 13.63-14 53.39-14 53.39s-9.48 17.6-43.38 20.7c-24.78 2.27-48.59-19.66-51.82-20.7-8.86 23.72 4 50.27 18 58.83-4.69.93-12.65 0-30.24-5.64 3.49 39.93 30 48.38 51.83 47.51 10.6-.43 10.76 4.3-.84 8.69-7 2.63-15.57 10.88-15.57 10.88l-34.19 43.14c9.22 9 23.5 8.81 34.17 7 2.11-.36 4.07-3.11 5.82-3.54.81-.2 1.57 1.93 2.28 1.74a52 52 0 006.18-2l6.77-12.13 8.92 10.39s42.44 1 62-7.18c40.71-16.97 81.38-46.12 79.38-127.62-.55-19.67-3.16-30.34-3.16-30.34z" fill="#ebebeb"/>
      <path d="M343.93 223.28c-.11 26.66-5 47.41-13 63.85-5.87-17.54-14.85-32.72-12.54-35.69 2.49-3.21 14.26-9.63 13.9-11.77s11.27-15.94 11.64-16.39zM244.61 213.65c6.06-3.57 17.82-11.77 23.88-11.41s2.85-19.61 2.85-19.61-4.63 9.27-8.91 12.12-15.69 12.48-17.82 18.9zM274.55 247.87c-6.41 19.25-12.13 31.58-38.86 30.31 0 0 20.65 4.34 26.73 1.27s5.36-11.26 7.85-13 5-7.88 4.28-18.58z" style="isolation:isolate" fill="#b9bdc1" opacity=".41999999"/>
      <path d="M309.62 316.33c-13.33 12.72-29.18 21.18-45.05 27.8-6.62 2.76-14.91 4.36-24.21 5.43 3.24-5.64 5.22-12.87 7.81-18.2 4.64-9.56 8.56-9 22.82-14s23.52-23.53 24.6-15c.92 7.38 6.26 11.57 14.03 13.97zM360.47 141.63c0 20-19.69 44.54-19.69 44.54s-2.17-8.41 1.15-13 8.56-8.74 8.09-10.86 10.45-20.68 10.45-20.68z" style="isolation:isolate" fill="#b9bdc1" opacity=".56999999"/>
      <path d="M125.2 251.27c3.64 3.1 6.84 6.19 11.45 7-1.53.2-3.08.32-4.62.38a26.81 26.81 0 01-18.47-6.18c-13.75-11.72-11.3-33.25-5.18-48.18 5-12.08 14-21.42 28.1-20 .91.09 1.81.22 2.69.37-6.58 1.37-11.73 4.27-15.6 9.75-1.86 2.63-4.82 4.62-6.1 7.76-.77 1.87-.09 6-.71 8-1.84 6-4.14 14.9-4 21.29a30.7 30.7 0 002.5 11.6c1.67 3.94 6.44 5.23 9.94 8.21z" style="isolation:isolate" fill="#414547" opacity=".51999998"/>
      <path d="M213.54 27.91c-2.78 2.08-5.9 12.47-8.33 16S197.93 56 197.93 56s-1.19 5.08-2.85 10.89c-1.29-2.25-2.53-6.71-4.94-16.74 0 0 11.44-15.24 11.61-18.71 5.55-6.21 11.79-3.53 11.79-3.53zM185.73 160.78l29.05-9.7-12.25 9.72-16.8-.02z" style="isolation:isolate" fill="#b9bdc1" opacity=".22"/>
      <path d="M92.52 150.6c8.84.6 15.18 17.32 8.94 21.92-3.62 2.68-9.4 6.48-13 4.79-2.63-1.23-9-5.84-9.93-9.25-1.09-3.92 1.47-13.36 3.3-16.1 2.1-3.21 6.1-1.67 10.69-1.36z" fill="#6d6f70"/>
      <path d="M94.93 150.41c8.08.54 10.87 14.48 5.18 18.62s-14 2.34-16-5c-2.18-7.63 3.06-14.13 10.82-13.62z" fill="#ebebeb"/>
      <path style="isolation:isolate" fill="#414547" opacity=".31" d="M278.38 376.93l13.7 3.62 8.79-6.27-7.24 12.99-15.25-10.34z"/>
      <path d="M142.46 366.41s13.28-.91 18.41-4l-6.33 8.13zM208.7 384l-9.54 5.61-16.92-3.65 18.32 9.49L208.7 384z" fill="#d6d7d8"/>
      <path style="isolation:isolate" fill="#b9bdc1" opacity=".40000001" d="M70.16 373.25l21.23 2.04-10.54 2.72-10.69-4.76zM68.25 326.6l16.58 5.39-10.3.99-6.28-6.38z"/>
      <path d="M170.25 309.42s-1.14-9.21-2.42-24.95M244.31 175.02l-11.63-1.08h0l-.52 23.78" fill="none" stroke="#202020" stroke-linecap="round" stroke-linejoin="round" stroke-width="3"/>
      <path d="M125.2 251.27c3.64 3.1 6.84 6.19 11.45 7-1.53.2-3.08.32-4.62.38a26.81 26.81 0 01-18.47-6.18c-13.75-11.72-11.3-33.25-5.18-48.18 5-12.08 14-21.42 28.1-20 .91.09 1.81.22 2.69.37-6.58 1.37-11.73 4.27-15.6 9.75-1.86 2.63-4.82 4.62-6.1 7.76-.77 1.87-.09 6-.71 8-1.84 6-4.14 14.9-4 21.29a30.7 30.7 0 002.5 11.6c1.67 3.94 6.44 5.23 9.94 8.21z" style="isolation:isolate" fill="#414547" opacity=".51999998"/>
      <path d="M332.71 283.9c.44-1 .87-2 1.28-3 .08-.17.15-.35.22-.52.34-.84.67-1.69 1-2.55.1-.26.2-.51.29-.77.36-1 .71-1.93 1-2.92a.26.26 0 01.08-.22c.37-1.08.72-2.18 1.06-3.3.07-.22.13-.44.2-.66.28-.92.55-1.85.81-2.8.06-.24.13-.48.2-.73.63-2.32 1.2-4.71 1.73-7.17l.12-.58c.23-1.12.45-2.24.66-3.38a3.54 3.54 0 01.08-.45q.72-3.94 1.25-8.13v-.29a199.55 199.55 0 001.37-29.93c-.49-19.67-3.11-30.34-3.11-30.34h0a126.86 126.86 0 0010.18-15.39c4.81-8.55 9.52-19.4 9.52-29.15 0 0-8.67.49-25.55 6.18l2.92-16.46s-1-6.73-3.62-17.59-8.79 1-13.44-16-12.42-8.27-21.21-10.86c-5.43-1.6-6.32-8.93-6.21-14.29a14.78 14.78 0 00-4.31-10.8c-2.7-2.68-6.36-6.29-10.6-10.42C275.78 29.91 265.2 5 260.93 1.92a1.29 1.29 0 00-1.43-.14c-9.94-.87-21.52.3-32.91 3.16-3.43-2.3-5.89-3.44-6.92-2.88-6.72 3.62-18.1 7.75-22.23 8.27s-11.38 10.34-12.93 16h0a19.09 19.09 0 00-2.94 3.81c-1.21 1.19-2.72 2.53-4.44 4-5 4-30.38 22.22-30.38 22.22h0c-14-5.17-16.55 2.58-32.06 11.37a78.88 78.88 0 01-13 5.57l-.86.3-.69.23-.93.31-.56.18c-5 1.62-10.06 3.09-14.65 4.63l-.22.07-1.37.47-.2.07-1.52.54h0l-1.37.52-.33.13-1.06.44-.3.12-1.3.56h-.07l-1.12.53-.34.16-.87.44-.31.16-1.06.6h-.07l-.9.57-.28.2c-.22.15-.44.31-.65.48l-.25.19c-.28.22-.55.45-.8.67h0c-.23.22-.45.44-.66.67a2 2 0 00-.19.22c-.16.17-.3.35-.44.53l-.17.23a7.57 7.57 0 00-.49.76h0c-.92 1.65-1.64 4.72-2.22 8.72-.06.45-.13.91-.19 1.39-.08.63-.16 1.27-.23 1.94-.74 6.47-1.2 14.63-1.55 23-4 2.38-6.69 4.83-7.64 7.31-2 5.36-3.3 23.76-3.75 46.45l-.13.12h-.02a1 1 0 00-.07.15l-.09.07h0c-1.47 1.26-3 2.41-4.4 3.44l-.21.15-.79.56-.47.33-.5.34-.6.41h-.06a19 19 0 00-7.16 8.7 130.56 130.56 0 01-5.74 11.92 16.47 16.47 0 00-1.87 6h0c-.14 1.21-.4 2.72-.76 4.42h0c-1 4.63-2.65 10.69-4.39 16.12A95.15 95.15 0 0120.63 241c-3.62 7.5-1.56 20.42-1.81 25.6h0a11.32 11.32 0 01-1.31 3.75c-3.1 6.3-10.84 17.13-14.3 21.86-1 1.44-1.71 2.31-1.71 2.31h0c.17.71.34 1.4.5 2.08a2.19 2.19 0 00.14.56c.14.58.28 1.14.41 1.69a1.37 1.37 0 00.07.29c.15.63.31 1.24.45 1.84l.12.46c.11.46.22.9.33 1.33l.12.48q.19.8.39 1.53l.12.47c.09.36.18.7.27 1a2.69 2.69 0 00.14.54c.11.4.21.79.31 1.16l.15.55c.08.28.16.57.23.84l.16.55c.07.25.13.49.2.72l.19.65.22.76c.07.25.11.34.16.51s.1.34.16.51l.15.49c.08.26.17.52.25.77s.1.31.16.47l.12.35v.09a1.22 1.22 0 00.14.39l.12.34.07.18v.13l.15.39a.82.82 0 00.11.28l.09.22a.2.2 0 00.08.19l.09.22a1 1 0 00.06.45l.09.22.18.37v.1l.11.22c.07.15.14.28.21.41l.12.21.1.2h0l.06.1v.05l.18.3.07.11c.2.3.4.57.59.81l.06.07.21.24h0a8.43 8.43 0 00.69.65h0a5.53 5.53 0 00.74.53h0c.26.16.53.3.8.44h0l.1.05h0l.35.16h0l.1.05h0l1 .4a5.65 5.65 0 012.84 3.37 11.63 11.63 0 01.46 1.29l.15.49c1.44 5.22 1.21 12.74 1.21 15.54 0 1.23 1.25 2.2 3.1 3.25.17.1.34.2.52.29 1.34.74 2.92 1.54 4.55 2.52l.76.46c3.39 2.14 6.82 5.14 8.48 10a.54.54 0 00-.09.39l-21.1 38.76a2.41 2.41 0 001 3.26h0l20.15 11.25h0l.23.13 5.17-1.94 3.11-1.16h3l1.06.05h1.91l1 .05h.48l1 .05h2.31l8.42.42h0l12.38.62h0L99.42 414l6.27.34c6 .35 35.56 5.76 53.76 9.16 8.49 1.59 14.5 2.74 14.5 2.74l58.44-7.76h0l5.17-3.62s40.34 3.62 46.55 3.62c5.07 0 26.38-6.56 34-9a3 3 0 002-3.63l-6-22.06 4.23-22.12a7.78 7.78 0 00-.37-4.27l-13.86-36.59a101.44 101.44 0 0026.82-34.17h0c0-.11.09-.22.14-.32.41-.84.8-1.68 1.19-2.54.34.36.39.22.45.12z" fill="none" stroke="#202020" stroke-linecap="round" stroke-linejoin="round" stroke-width="3"/>
      <path d="M225.81 350.81c5.37-.31 11.17-.79 16.83-1.54a99.8 99.8 0 0017.7-3.62l1.37-.44.55-.19c.8-.29 1.57-.58 2.31-.89a184.72 184.72 0 0023.47-11.61h0c17.09-10.18 32.58-24.18 42.89-45.39h0c.06-.11.1-.22.15-.32.41-.84.8-1.68 1.19-2.54.06-.13.11-.25.17-.37.44-1 .87-2 1.28-3l.21-.52c.34-.84.68-1.69 1-2.55l.29-.77c.36-1 .7-1.93 1-2.92a.26.26 0 01.08-.22c.36-1.08.72-2.18 1.06-3.3.07-.22.13-.44.2-.66.27-.92.54-1.85.8-2.8l.21-.73q.93-3.48 1.73-7.17l.12-.58c.23-1.12.45-2.24.66-3.38a3.54 3.54 0 01.08-.45q.72-3.94 1.25-8.13v-.29a199.58 199.58 0 001.52-29.93c-.5-19.67-3.11-30.34-3.11-30.34h0a125.44 125.44 0 0010.11-15.38c4.81-8.55 9.52-19.4 9.52-29.15 0 0-10.58.6-31.14 8.14 0 0-31-37.77-67.62-18.5-21.24 11.17-17.11 55.16-17.11 55.16s-9.48 17.6-43.38 20.7c-24.78 2.27-48.59-19.66-51.82-20.7-8.86 23.72 4 50.27 18 58.83-4.69.93-12.65 0-30.24-5.64 3.49 39.93 30 48.38 51.83 47.51 10.6-.43 10.76 4.3-.84 8.69-7 2.63-15.57 10.88-15.57 10.88l-34.19 43.14" fill="none" stroke="#202020" stroke-linecap="round" stroke-linejoin="round" stroke-width="3"/>
      <path d="M163.67 195.92c-.52-11.51-1.14-16.55-1.14-16.55s-30.77 3.11-43.7-1.55c-1.55-16.55-2.07-44 0-48.61s55.86-4.66 55.86-7.24-7.08-77.55 10.31-94.64S236.51-.74 260.67 1.92c8.66 24.37 0 55.26 0 55.26-28.06.66-38 5.32-37.66 37.9 0 1.23.2 23.41.2 23.41 7 7 46.63 4.51 46.63 4.51l-1.19 5" fill="none" stroke="#202020" stroke-linecap="round" stroke-linejoin="round" stroke-width="3"/>
      <path d="M168.13 292.92s-37.6-2.07-66-3.86c-11.84-.74-20.16-2.27-22.18-3.6-9.31-6.14-11.38-115.91-7.24-137.63 1.56-8.2 10.25-15.61 25.44-21 17.8-6.27 22.07-8.58 75.87-15.57" fill="none" stroke="#202020" stroke-linecap="round" stroke-linejoin="round" stroke-width="3"/>
      <path d="M118.19 169.45c-10.34 4.94-17.72 14.89-22.51 26.57-9.07 22.12-12.71 54 7.67 71.39a39.69 39.69 0 0027.37 9.16 68.8 68.8 0 0018.4-3M94.93 150.41c8.08.54 10.87 14.48 5.18 18.62s-14 2.34-16-5c-2.18-7.63 3.06-14.13 10.82-13.62z" fill="none" stroke="#202020" stroke-linecap="round" stroke-linejoin="round" stroke-width="3"/>
      <path d="M121.32 188.16c-5.63 3.56-9.76 9.51-12.57 16.34-6 14.72-8.46 36 5.11 47.5M238.99 388.79c2.76-1.63 5.24-3.18 6.68-4.88 2.39-2.81 2.4-8 1.44-13.42M125.93 352.55l13-3.55s-7.75 14-10.22 20.95-32.44 3.1-35.44 19.4" fill="none" stroke="#202020" stroke-linecap="round" stroke-linejoin="round" stroke-width="3"/>
      <path d="M173.29 91.4c-49.43 7.42-112.26 25.06-117.74 39.38-6.14 16-5.1 148.47 3.17 164.21 6.51 12.37 68.89 16.75 109.37 17.38M260.67 57.18l9.17 1.7S236.62 60 232.68 77s0 45 0 45M269.84 123l4.84 2.8M58.72 294.99l-7.1 13.68-1.57 8.38M283.47 344.13l-7.42-5.14M61.23 349.56l-17.99 3.92-7.42 7.89M278.63 51.38l-8.79 7.5M240.24 190.81l-.15-10.67 4.22.55M232.68 173.94l7.41 6.2M169.04 413.06l5.12 13.59" fill="none" stroke="#202020" stroke-linecap="round" stroke-linejoin="round" stroke-width="3"/>
      <path d="M171.63 285.55c-19.57-.48-37.64-14.62-39.69-38l5.23-7.92M167.41 245.26c-14-8.56-30.24-22.65-25.77-47.54l7.77-11.29M335.18 147.81s-29.89-39-66.53-19.78M314.56 346.89c1.82-21.18 2-16.24 10-32.78-13.3 25.49 3-5.92 3-5.92s2.07-7 2.12-7.09c.4-.84 9.13-14.47 9.52-15.33l.16-.36q.66-1.47 1.29-3l.21-.53c.34-.83-.23-1.68.09-2.54.1-.26 1.1-.51 1.2-.77.35-1 .7-1.93 1-2.92l.07-.22c.37-1.08.72-2.18 1.07-3.3.06-.22.13-.44.19-.66.28-.92.55-1.86.81-2.8.07-.24.14-.48.2-.73.63-2.32 1.2-4.71 1.73-7.17l.12-.58c.24-1.12.46-2.24.67-3.39a.88.88 0 01.08-.44c.48-2.63.89-5.35 1.25-8.14v-.29c1.14-9.11-.18-18.14-.45-29-.18-7.16 1.17-13.79.66-18.18a73.94 73.94 0 00-1.95-11.25 82.93 82.93 0 014.52-11.7c.78-1.69 3.39-3.54 4.16-5.52a75.27 75.27 0 002.94-9.17c1.8-7.18 2.59-14.94 1.14-21.46M340.99 186.49l6.57 3.54" fill="none" stroke="#202020" stroke-linecap="round" stroke-linejoin="round" stroke-width="2.77999997"/>
      <path d="M340.04 404.33c0-.73 3.56-10 3.56-10l8.09 7.64 1.6 6.83h-13.25z" fill="#eaeaea"/>
      <path fill="#8a8f93" d="M373.18 402.43l3.32-4.5 5.93 4.5-5.93 2.82-3.32-2.82z"/>
      <path d="M340.04 404.33c0-.73 3.56-10 3.56-10l.84 7.64 2.22 6.83h-6.62z" style="isolation:isolate" fill="#414547" opacity=".25999999"/>
      <path fill="#eaeaea" d="M351.48 418.91l8.75-9.64 4.94 6.43-2.73 5.62-10.96-2.41z"/>
      <path d="M340.04 404.33c0-.73 3.56-10 3.56-10l8.09 7.64 1.6 6.83h-13.25z" fill="none" stroke="#202020" stroke-linecap="round" stroke-linejoin="round" stroke-width="2.77999997"/>
      <path style="isolation:isolate" fill="#414547" opacity=".25999999" d="M351.48 418.91l8.75-9.64-.82 11.39-7.93-1.75z"/>
      <path fill="none" stroke="#202020" stroke-linecap="round" stroke-linejoin="round" stroke-width="2.77999997" d="M373.18 402.43l3.32-4.5 5.93 4.5-5.93 2.82-3.32-2.82zM351.48 418.91l8.75-9.64 4.94 6.43-2.73 5.62-10.96-2.41z"/>
      <path d="M468.78 382.67c-17.8 15.56-43.19 2-64.29 4-2.55.29-5 .67-7.49 1-12.35 1.8-24.67 3.08-34.87-4.85 9.07-4.08 18.59-5.9 28.2-7.13q3.6-.46 7.22-.85c21.7-3.81 42.55 4.35 64.6 4.54 4.22.62 6.63 1.7 6.63 3.29z" fill="#eaeaea"/>
      <path fill="#2f3335" d="M403.33 166.28l-.7-7.08-6.43-.81-4.05 2.52-2.7 2.29 1.17.77-.09.2-2.12 4.23 3.74 4.03v6.34l6.86 2.25-1.46-8.59 5.78-6.15z"/>
      <path d="M402.63 159.2l-2.69-.34c.21 2.07.33 4.86-.32 6-1.11 1.85-4.63 7.43-4.63 7.43l2.28 8.18 1.74.58-1.46-8.59 5.78-6.15z" style="isolation:isolate" fill="#8a8f93" opacity=".67000002"/>
      <path fill="none" stroke="#202020" stroke-linecap="round" stroke-linejoin="round" stroke-width="2.77999997" d="M403.33 166.28l-.7-7.08-6.43-.81-4.05 2.52-2.7 2.29 1.17.77-.09.2-2.12 4.23 3.74 4.03v6.34l6.86 2.25-1.46-8.59 5.78-6.15z"/>
      <path fill="#2f3335" d="M405.3 205.47l-.76 88.7h-4.84l-4.82-65.32-4.83 18.05.25 47.27h-6.61l-1.01-48.54 2.28-39.91 18.31-5.6 2.03 5.35z"/>
      <path fill="#8a8f93" d="M416.74 197.84l-5.6 25.16h-2.29l2.04-22.88-8.13-12.19.51 12.19-18.31 5.6-2.54-19.58-20.59-13.98 2.29-26.17h2.8v23.64l19.57 8.13h16.78l13.47 20.08z"/>
      <path d="M416.74 197.84l-3.32 16.86-1.9-.63 2.12-13.39a5 5 0 00-1-3.93l-7.78-9.86a1.08 1.08 0 00-1.5-.33 1 1 0 00-.5.77l-.11.6.51 12.19-6.07 1.88c.29-3.12.54-6.84.65-10.57 0-.58-1.05-1.28-1-1.86s1.09-1.19 1.09-1.84a63.15 63.15 0 00-.64-10h6z" style="isolation:isolate" fill="#eaeaea" opacity=".41999999"/>
      <path fill="#6d6f70" d="M405.3 205.47l-.76 88.7h-2.12l-1.45-35.53-1.61-34.22-1.02-2.62 1.78-3.01-2.16-2.32-1.03-14.41 6.34-1.94 2.03 5.35z"/>
      <path d="M372.93 173.65l-7.75-2.6a.93.93 0 01-.63-.92l.62-14.31a1 1 0 01.57-.82.93.93 0 011.22.48 1 1 0 01.08.33l.62 12.32a.9.9 0 00.48.77l5.54 3a1 1 0 11-.75 1.75z" style="isolation:isolate" fill="#eaeaea" opacity=".41999999"/>
      <path fill="none" stroke="#202020" stroke-linecap="round" stroke-linejoin="round" stroke-width="2.77999997" d="M405.3 205.47l-.76 88.7h-4.84l-4.82-65.32-4.83 18.05.25 47.27h-6.61l-1.01-48.54 2.28-39.91 18.31-5.6 2.03 5.35z"/>
      <path fill="none" stroke="#202020" stroke-linecap="round" stroke-linejoin="round" stroke-width="2.77999997" d="M416.74 197.84l-5.6 25.16h-2.29l2.04-22.88-8.13-12.19.51 12.19-18.31 5.6-2.54-19.58-20.59-13.98 2.29-26.17h2.8v23.64l19.57 8.13h16.78l13.47 20.08zM370.11 140.91l-7.81 5.99M394.99 154.47c.45 1.81-.1 3.76 3.77 4.25M409.76 223l.31 4.4 3.01 1.85M415.04 223.28l-6.35 9.13M410.52 234.34l-3.92-3.74"/>
      <path d="M399.77 309.55c2.91 2.51 7-.7 7-.7l-3.27-9.36h-2.46z" fill="#8a8f93"/>
      <path d="M399.77 309.55c2.91 2.51 7-.7 7-.7l-3.27-9.36h-2.46zM401.07 299.49l.1-5.32h1.93l.44 5.32" fill="none" stroke="#202020" stroke-linecap="round" stroke-linejoin="round" stroke-width="2.77999997"/>
      <path d="M374.43 301.44c-1.8-6 1.42-6.77 1.42-6.77l9.34 2.41 1.31-2.41h1.31v6.77z" fill="#8a8f93"/>
      <path d="M374.43 301.44c-1.8-6 1.42-6.77 1.42-6.77l9.34 2.41 1.31-2.41h1.31v6.77zM399.36 207.39c.76 2.41 3.92 5 5.88 4.67M393.99 177.76l-1.71 10.5 1.71 13.95M383.54 190.03l3.46-.73M363.38 154.47h3.54M409.76 214.28l3.32.01" fill="none" stroke="#202020" stroke-linecap="round" stroke-linejoin="round" stroke-width="2.77999997"/>
      <ellipse cx="399.98" cy="167.35" rx="1.66" ry="1.18" transform="rotate(-29.89 399.89477911 167.48225408)" fill="#2f3335"/>
      <path fill="none" stroke="#202020" stroke-linecap="round" stroke-linejoin="round" stroke-width="2.77999997" d="M340.08 168.04l58.68 214.12M356.4 172.26l77.03 207.38M386.39 350.81h39.21M380.04 326.13h37.4M373.1 301.44h35.59M367.26 276.76h28.34M360.27 252.08h28.33M352.84 227.4h26.51M348.21 202.21h22.89"/>
      <path d="M314.56 346c0-13 15.3-40.82 23.34-57.36l.15-.31c.4-.84.8-1.69 1.19-2.55l.16-.36q.66-1.47 1.29-3l.21-.53c.34-.83.67-1.68 1-2.54l.29-.77c.35-1 .7-1.93 1-2.92l.07-.22c.37-1.08.72-2.18 1.07-3.3.06-.22.13-.44.19-.66.28-.92.55-1.86.81-2.8.07-.24.14-.48.2-.73.63-2.32 1.2-4.71 1.73-7.17l.12-.58c.24-1.12.46-2.24.67-3.39a.88.88 0 01.08-.44c.48-2.63.89-5.35 1.25-8.14v-.29c1.14-9.11-.86-19.05-.45-29.93.66-17.27-1.29-28.52-1.29-28.52s4.52-11.7 8.68-17.22c5.91-7.83 6.18-21.18 4.08-30.63l-25.3 6.18s-29.89-39-66.53-19.78L282 260.75z" fill="#8a8f93"/>
      <path d="M13.59 402.34l22.24-40.86c-3.62-11.89-17.59-12.93-17.59-17.06s.52-18.62-4.65-20.69-6.21-3.1-12.41-29c0 0 17.06-22.76 17.32-27.93s-1.81-18.1 1.81-25.6 10.35-30.77 9.31-34.39c0 0 8.28-14.48 9.31-20.69 0 0 20.17-10.86 22.24-22.23s1-66.2 6.21-75.51 31.55-11.85 47.06-20.65 18.1-16.54 32.06-11.37c0 0 36.21-24.31 37.76-30s8.79-15.52 12.92-16 15.52-4.65 22.24-8.27 74.51 64.61 74.51 64.61-3.1 17.58 5.69 20.17 16.55-6.21 21.2 10.86 10.87 5.17 13.45 16 3.66 17.59 3.66 17.59l-33.8 189.94 14.65 38.67-4.66 24.31 6.73 24.82s-30.54 9.83-36.74 9.83-46.55-3.62-46.55-3.62l-5.17 3.62-58.46 7.76s-59.47-11.38-68.26-11.9-61.55-3.1-61.55-3.1l-8.27 3.1z" fill="#d6d7d8"/>
      <path d="M274.24 154.47c.44-1 65.83 13.67 65.84 13.57 1.15-9.11-4.9-20.23-4.9-20.23s-29.89-39-66.53-19.78c0-.03 5.53 26.57 5.59 26.44z" fill="#8a8f93"/>
      <path d="M43.24 353.48s16.21-4.78 27.41-4.67c17.93.19 42.75 10.28 68.35.19s101-.19 101-.19V321.9l-105.21 8-26.33 18.93-44-6.53-19.38 1z" style="isolation:isolate" fill="#b9bdc1" opacity=".67000002"/>
      <path d="M50.05 411.84l-6.2-.31-8.29 3.11-22.23-12.41 22.23-40.86c-.32-1.07 7.42-8 7.42-8L35.83 390l7.15 4.66z" fill="#8a8f93"/>
      <path d="M141.64 384l-16.6 18-24.25 12.48c-8.57-.44-24.59-1.25-37.42-1.88l-.78-.37c15.13-8.54 22.75-17.19 22.23-22.18s5.89-9.08 6.57-13 21.11-3.39 23.31-6.54c3.2-4.61 11-2.16 12.92-7.39 3-7.87 10.78-13.24 10.78-13.24z" style="isolation:isolate" fill="#414547" opacity=".34"/>
      <path d="M36.09 261.6c-4.14 3.11-8.79 18.62-12.42 23.86s-10.86 18-10.86 18-1.77 7.54-4.26 16.23c-1.92-3.34-3.78-10-7.37-25 0 0 17.07-22.74 17.32-27.92 8.28-9.17 17.59-5.17 17.59-5.17z" fill="#8a8f93"/>
      <path d="M57.61 171.23l-6 29.6-22.76 13.1c.72-3.41 1-6 .76-7.08 0 0 8.28-14.48 9.31-20.69.01 0 12.3-6.61 18.69-14.93z" fill="#d6d7d8"/>
      <path d="M154.48 77c-9.79 6.72-25.82 10.34-26.34 11.89S123.56 102 103.09 111l18.33-22.06z" fill="#b9bdc1"/>
      <path d="M57.61 171.23l-6 29.6-22.76 13.1c.72-3.41 1-6 .76-7.08 0 0 8.28-14.48 9.31-20.69.01 0 12.3-6.61 18.69-14.93z" fill="#8a8f93"/>
      <path d="M278.24 80.38c-17.51 4-27.74 23.69-41.05 25.75a174.72 174.72 0 00-22.17 4.8l2.42-9s18 .93 26.89-6.65 11.33-12.19 33.91-14.9z" fill="#b9bdc1"/>
      <path d="M184.26 26.37v25s-.78 23.54-10.81 14.31-27-9.33-27-9.33 36.26-24.3 37.81-29.98z" fill="#d6d7d8"/>
      <path d="M269.84 58.88s-11.6 1.41-16.06 2.58S245.49 65 241.64 66c-3 .82-7.61 4.66-9 10.94-1.71 8.19-2.29 13.9-1.71 19.87.36 3.77.57 8 1 14.12.26 3.93.8 8.87.8 11.07 0 4-4.48 6.69-4.47 6.69l-14.22-7.24-3.62-38.79 10.09-27.41 18.1-12.92 7.11-1.81z" style="isolation:isolate" fill="#6d6f70" opacity=".55000001"/>
      <path d="M245.67 383.91c-6.59 7.76-34.78 12.55-13.32 35l-58.42 7.74s-59.47-11.39-68.27-11.9c-4-.23-16.9-.89-29.89-1.53 11.93-6.89 15.72-13.77 17.59-23.87 3-16.3 33-12.41 35.44-19.4S139 349 139 349l62.07-27.09 39 26.9s12.19 27.34 5.6 35.1z" fill="#ebebeb"/>
      <path d="M70.67 195.5l30.79-122.2c-14.25 4.91-30.19 8.11-34.08 15.12-5.18 9.31-4.14 64.13-6.21 75.51s-22.24 22.24-22.24 22.24c-1 6.2-9.31 20.68-9.31 20.68 1 3.62-5.69 26.89-9.31 34.39s-1.55 20.43-1.81 25.6-17.32 27.93-17.32 27.93c6.2 25.86 7.24 26.89 12.41 29s4.65 16.55 4.65 20.69 14 5.17 17.59 17.06l-22.24 40.82 22.24 12.41 8.27-3.1 32.44 1.6-33.3-59.77 8.38-44.82 13.17-19.91z" style="isolation:isolate" fill="#414547" opacity=".31"/>
      <path d="M51.62 177.31c-7.26 14.48-6.35 27.18-6.35 27.18s2.56 2.29 3.15 9.79-5.18 18.88-5.18 18.88 2.6 23.54 4.19 25.48-5.32 23.45-4.19 27.69 3.74 19.23 8.38 22.33 22.22 2.29 28.43 3.48 20.75 6.75 23 7.58 15.91-1.35 24.88 0 42.55.2 42.55.2l10.56-19z" style="isolation:isolate" fill="#6d6f70" opacity=".79000002"/>
      <path d="M44.44 411.66h2.49l1.28.06h1.09l1.35.07h2l1.08.05 1.27.06 21.6 1.1-8.2-14.71-25.1-45.06 8.38-44.82 13.17-19.91 5.42-85.92-18.55-25v-.41l-.06.2-.07-.09a81.75 81.75 0 01-12.66 8.89c-1 6.2-9.31 20.68-9.31 20.68 1 3.62-5.69 26.89-9.31 34.39s-1.55 20.43-1.81 25.6-17.32 27.93-17.32 27.93c4.31 18 6.13 24 8.58 26.62l.34.34c.1.1.21.19.32.28l.06.05.31.24.08.05.31.2.09.06.32.18h.09l.34.17.1.05.35.16.1.05.37.16h.11l.49.2c5.17 2.07 4.65 16.55 4.65 20.69s14 5.17 17.59 17.06l-22.19 41 22.24 12.42 8.27-3.1h.34z" style="isolation:isolate" fill="#414547" opacity=".23"/>
      <path d="M278.38 51.38C275.53 29.91 264.93 5 260.67 1.92s-6.89 18.17-6.89 18.17l6.89 37.09 9.17 1.7z" fill="#b9bdc1"/>
      <path d="M190.14 88.87c-50.68 6.72-128.46 25.89-134.59 41.91S50.45 279.25 58.72 295s107.06 18.55 136 17.15 18.61-166.38 18.61-166.38l-11.87-56.9z" fill="#ebebeb"/>
      <path d="M233.33 271.09h2.65a7 7 0 01-2.65 0z" style="isolation:isolate" fill="#202020" opacity=".76999998"/>
      <path d="M179.17 110.93c-27.92 1.55-102.35 15.18-106.48 36.9s-2.07 131.49 7.24 137.63S232.68 295 232.68 295l-15.33-178.72z" fill="#6d6f70"/>
      <path d="M165.31 179.75a44.38 44.38 0 00-28-13.4c-20.88-2.09-34.29 11.77-41.64 29.67-9.07 22.12-12.71 54 7.67 71.39a39.69 39.69 0 0027.37 9.16c16.72-.62 33.48-6.23 42.27-21.37 12.82-22.05 10.53-56.68-7.67-75.45z" fill="#ebebeb"/>
      <path d="M155.37 193.28a29.9 29.9 0 00-18.89-9c-14.09-1.41-23.14 7.94-28.09 20-6.12 14.92-8.58 36.46 5.17 48.17a26.81 26.81 0 0018.47 6.18c11.28-.42 22.59-4.21 28.52-14.42 8.65-14.89 7.1-38.21-5.18-50.93zM184.26 26.37v25s-.78 23.54-10.81 14.31-27-9.33-27-9.33 36.26-24.3 37.81-29.98z" fill="#8a8f93"/>
      <path d="M201.84 57.84l-8.18-36.46-4 8.87c-.17.46-5.31-4.31-5.43-3.89-.42 1.55-3.41 4.47-7.52 7.9-.12 2.57-5.79 7.49-7.22 8.52-3.1 2.23-1.11 10.07-3.14 18.19-2.74 3.85-1.65 11.25-1.4 18.78.19 5.56-.89 12.38-1.78 17.72.47 5 4.32 9.63 3.61 12.93-1.42 6.59 1.49 19.24-.79 19.4s-11.24-2-14.34-.7-9.57 5.43-15.59 3.88-11-2.58-17.25 6.73l18.36 6.2 35.17 4.66 24-26.27z" style="isolation:isolate" fill="#414547" opacity=".51999998"/>
      <path d="M197.5 110.93c-5 11.56-10.21 13.47-35.82 17.76s-49.83 1.94-54.87 5c-11.77 7.31-3.72 7.93-18.39 11.31-4.77 1.09-10.34 16.95-6.43 20.15s-1.6 15.71-1.94 18.81.38 28.12-1.56 34.33-.77 33.75 1.94 35.3 4.35 12.31 3.15 17.6 5.2 8.47 9.75 9.59 32.23 2.67 35.46 5 10.66-3.41 9.27-5-16.47-.57-26.57-4.18-20.51-14.94-23.07-24.6c-2.17-8.15-5.08-40.48-4.84-44.22.77-12.59 12.48-33.36 16.52-38.79s27.83-12.18 27.83-12.18l63.78-18z" fill="#8a8f93"/>
      <path d="M159.11 47.1l-7.44 52.29L136.08 133l-17.25-3.77-11.39 48.1 17.08 37-5.69 76 22.83 21.27-6.84 18.4 4.18 19 127.08-93.15-81.83-229.49c-1.07 3.93-14.32 13.19-25.14 20.74z" style="isolation:isolate" fill="#414547" opacity=".2"/>
      <path d="M278.24 139.55a140.45 140.45 0 00-8.4-16.55l-28.6 21.79-14.31 27.6-.39 50.89 18.08-1.91s1-18.8 2-23.23-1-12.52 2.19-15.51 29.43-43.08 29.43-43.08z" style="isolation:isolate" fill="#6d6f70" opacity=".55000001"/>
      <path d="M166.01 316.94c-3.74-14-2.85-23.4-3.6-26.71s-10-21-7.93-29.49 1.27-29.39 5.86-32.24 5.67 1.73-3.24-17.18c-7.72-16.39 7.55-.34-4.65-5.68-4.6-2 10.9-7.34 3.75-9.59-8.32-2.61-29.61-11.12-33.75-12.09s-10.86-5.36-10.34-16.87 3-15.13 0-21.33 6.75-16.55 6.75-16.55l27.67 6.21L210.37 154l19.19 104.61-14.54 53.81z" style="isolation:isolate" fill="#414547" opacity=".51999998"/>
      <path d="M118.83 177.82c-1.55-16.55-2.07-44 0-48.61s55.86-4.66 55.86-7.24-7.83-78.52 9.56-95.61 52.26-27.1 76.42-24.44c8.66 24.37 0 55.26 0 55.26-28.06.66-38 5.32-37.66 37.9s.2 23.41.2 23.41c7 7 46.63 4.51 46.63 4.51l-12.68 53.21-24.48-2.27-1.13 1.06 1.78 63.32-8.46 73.34-54.62.47s-5.73-59.86-5.92-88.28c-.21-31.63-1.8-44.49-1.8-44.49s-30.77 3.12-43.7-1.54z" fill="#ebebeb"/>
      <path d="M304.09 321.26l-13.49-31-49.27 19-10.41 4 17.85-49 2.63-8.07-70.32 52.53-10.56-131-1-1.72s-15.57-.77-17.85-.39a131.73 131.73 0 01-14.14 1.69c-4.4.12-5.69-1.49-7.83-2.07s-4.65.77-7.17 0c-2.29-.71-3.46-29.35-3.66-46.08v.05c-2.07 4.65-1.55 32.06 0 48.61 12.93 4.66 43.7 1.55 43.7 1.55L151.19 285.9l-16.37 44s2.35 11.27 4.18 19.12c8.53 6.7 16.83 7 33.59 7.94 9.21.54 19.17.55 28.62.45 7.73-.06 15.11-.2 21.47-.17a131.51 131.51 0 0121.25 1.76l39.53-14.89h8.7l14.12-17.06z" style="isolation:isolate" fill="#414547" opacity=".25999999"/>
      <path d="M335.18 151.08c-3.7-2.17 2.58-9 0-11.38-3.92-3.57-18.44-14.47-32-19.9-4.6-1.84-20.84 5.06-32.15 7.06-8.62 1.52-10 .69-10.39.93-13.48 2.3-9.28 3.17-21.22 19.54-4.52 6.19.61 28.88-4.62 35.3-2.62 3.21-13.7 12.24-16.23 15.64-7.26 9.74-21.78 3.73-26.34 4.17-11.15 1.07-12.22-9.05-17.63-10.42-11-2.78-11-2.78-25.2-5.59-9.14 14.23-12.24 27.06-6.76 36.85 6.94 12.41 13 20.6 15.55 24.59 3.53 5.43-6.41 0-21-8.25a72.71 72.71 0 00.22 22.38 47.53 47.53 0 004 12.45 40.76 40.76 0 004.14 6.77c4.86 6.45 10.72 5.68 16 8.19 6.22 2.95 17.54 1.51 18.36 1.78l12.58 2.71-18.78 4.37-20.25 24.65-3.53 13.17L139 349s3.69 3.53 11.36 5.59c5.59 1.51 13.92 1.87 24.07 2.4 18.65 1 34.11.16 48.25.24a130.4 130.4 0 0121.25 1.77l39.53-14.89-52.53-30.91 17.84-49 34.16-104.6 8.37 2.35 33.16 5.32 1.93-.56 2.94-16.94s6.98 6.75 5.85 1.31z" style="isolation:isolate" fill="#414547" opacity=".25999999"/>
      <path d="M167.41 245.26c-14-8.56-30.24-22.65-25.77-47.54l7.77-11.29zM171.63 285.55c-19.57-.48-37.64-14.62-39.69-38l5.23-7.92z" fill="#6d6f70"/>
      <path d="M340.77 186.16s19.71-24.57 19.71-44.53c0 0-10.58.6-31.14 8.14 0 0-32-38.82-67.62-18.5-3.1 1.77-.49-.09-3.1 1.77-18.33 13.63-14 53.39-14 53.39s-9.48 17.6-43.38 20.7c-24.78 2.27-48.59-19.66-51.82-20.7-8.86 23.72 4 50.27 18 58.83-4.69.93-12.65 0-30.24-5.64 3.49 39.93 30 48.38 51.83 47.51 10.6-.43 10.76 4.3-.84 8.69-7 2.63-15.57 10.88-15.57 10.88l-34.19 43.14c9.22 9 23.5 8.81 34.17 7 2.11-.36 4.07-3.11 5.82-3.54.81-.2 1.57 1.93 2.28 1.74a52 52 0 006.18-2l6.77-12.13 8.92 10.39s42.44 1 62-7.18c40.71-16.97 81.38-46.12 79.38-127.62-.55-19.67-3.16-30.34-3.16-30.34z" fill="#ebebeb"/>
      <path d="M343.93 223.28c-.11 26.66-5 47.41-13 63.85-5.87-17.54-14.85-32.72-12.54-35.69 2.49-3.21 14.26-9.63 13.9-11.77s11.27-15.94 11.64-16.39zM244.61 213.65c6.06-3.57 17.82-11.77 23.88-11.41s2.85-19.61 2.85-19.61-4.63 9.27-8.91 12.12-15.69 12.48-17.82 18.9zM274.55 247.87c-6.41 19.25-12.13 31.58-38.86 30.31 0 0 20.65 4.34 26.73 1.27s5.36-11.26 7.85-13 5-7.88 4.28-18.58z" style="isolation:isolate" fill="#b9bdc1" opacity=".41999999"/>
      <path d="M309.62 316.33c-13.33 12.72-29.18 21.18-45.05 27.8-6.62 2.76-14.91 4.36-24.21 5.43 3.24-5.64 5.22-12.87 7.81-18.2 4.64-9.56 8.56-9 22.82-14s23.52-23.53 24.6-15c.92 7.38 6.26 11.57 14.03 13.97zM360.47 141.63c0 20-19.69 44.54-19.69 44.54s-2.17-8.41 1.15-13 8.56-8.74 8.09-10.86 10.45-20.68 10.45-20.68z" style="isolation:isolate" fill="#b9bdc1" opacity=".56999999"/>
      <path d="M125.2 251.27c3.64 3.1 6.84 6.19 11.45 7-1.53.2-3.08.32-4.62.38a26.81 26.81 0 01-18.47-6.18c-13.75-11.72-11.3-33.25-5.18-48.18 5-12.08 14-21.42 28.1-20 .91.09 1.81.22 2.69.37-6.58 1.37-11.73 4.27-15.6 9.75-1.86 2.63-4.82 4.62-6.1 7.76-.77 1.87-.09 6-.71 8-1.84 6-4.14 14.9-4 21.29a30.7 30.7 0 002.5 11.6c1.67 3.94 6.44 5.23 9.94 8.21z" style="isolation:isolate" fill="#414547" opacity=".51999998"/>
      <path d="M213.54 27.91c-2.78 2.08-5.9 12.47-8.33 16S197.93 56 197.93 56s-1.19 5.08-2.85 10.89c-1.29-2.25-2.53-6.71-4.94-16.74 0 0 11.44-15.24 11.61-18.71 5.55-6.21 11.79-3.53 11.79-3.53zM185.73 160.78l29.05-9.7-12.25 9.72-16.8-.02z" style="isolation:isolate" fill="#b9bdc1" opacity=".22"/>
      <path d="M92.52 150.6c8.84.6 15.18 17.32 8.94 21.92-3.62 2.68-9.4 6.48-13 4.79-2.63-1.23-9-5.84-9.93-9.25-1.09-3.92 1.47-13.36 3.3-16.1 2.1-3.21 6.1-1.67 10.69-1.36z" fill="#6d6f70"/>
      <path d="M94.93 150.41c8.08.54 10.87 14.48 5.18 18.62s-14 2.34-16-5c-2.18-7.63 3.06-14.13 10.82-13.62z" fill="#ebebeb"/>
      <path style="isolation:isolate" fill="#414547" opacity=".31" d="M278.38 376.93l13.7 3.62 8.79-6.27-7.24 12.99-15.25-10.34z"/>
      <path d="M142.46 366.41s13.28-.91 18.41-4l-6.33 8.13zM208.7 384l-9.54 5.61-16.92-3.65 18.32 9.49L208.7 384z" fill="#d6d7d8"/>
      <path style="isolation:isolate" fill="#b9bdc1" opacity=".40000001" d="M70.16 373.25l21.23 2.04-10.54 2.72-10.69-4.76zM68.25 326.6l16.58 5.39-10.3.99-6.28-6.38z"/>
      <path d="M170.25 309.42s-1.14-9.21-2.42-24.95M244.31 175.02l-11.63-1.08h0l-.52 23.78" fill="none" stroke="#202020" stroke-linecap="round" stroke-linejoin="round" stroke-width="3"/>
      <path d="M125.2 251.27c3.64 3.1 6.84 6.19 11.45 7-1.53.2-3.08.32-4.62.38a26.81 26.81 0 01-18.47-6.18c-13.75-11.72-11.3-33.25-5.18-48.18 5-12.08 14-21.42 28.1-20 .91.09 1.81.22 2.69.37-6.58 1.37-11.73 4.27-15.6 9.75-1.86 2.63-4.82 4.62-6.1 7.76-.77 1.87-.09 6-.71 8-1.84 6-4.14 14.9-4 21.29a30.7 30.7 0 002.5 11.6c1.67 3.94 6.44 5.23 9.94 8.21z" style="isolation:isolate" fill="#414547" opacity=".51999998"/>
      <path d="M332.71 283.9c.44-1 .87-2 1.28-3 .08-.17.15-.35.22-.52.34-.84.67-1.69 1-2.55.1-.26.2-.51.29-.77.36-1 .71-1.93 1-2.92a.26.26 0 01.08-.22c.37-1.08.72-2.18 1.06-3.3.07-.22.13-.44.2-.66.28-.92.55-1.85.81-2.8.06-.24.13-.48.2-.73.63-2.32 1.2-4.71 1.73-7.17l.12-.58c.23-1.12.45-2.24.66-3.38a3.54 3.54 0 01.08-.45q.72-3.94 1.25-8.13v-.29a199.55 199.55 0 001.37-29.93c-.49-19.67-3.11-30.34-3.11-30.34h0a126.86 126.86 0 0010.18-15.39c4.81-8.55 9.52-19.4 9.52-29.15 0 0-8.67.49-25.55 6.18l2.92-16.46s-1-6.73-3.62-17.59-8.79 1-13.44-16-12.42-8.27-21.21-10.86c-5.43-1.6-6.32-8.93-6.21-14.29a14.78 14.78 0 00-4.31-10.8c-2.7-2.68-6.36-6.29-10.6-10.42C275.78 29.91 265.2 5 260.93 1.92a1.29 1.29 0 00-1.43-.14c-9.94-.87-21.52.3-32.91 3.16-3.43-2.3-5.89-3.44-6.92-2.88-6.72 3.62-18.1 7.75-22.23 8.27s-11.38 10.34-12.93 16h0a19.09 19.09 0 00-2.94 3.81c-1.21 1.19-2.72 2.53-4.44 4-5 4-30.38 22.22-30.38 22.22h0c-14-5.17-16.55 2.58-32.06 11.37a78.88 78.88 0 01-13 5.57l-.86.3-.69.23-.93.31-.56.18c-5 1.62-10.06 3.09-14.65 4.63l-.22.07-1.37.47-.2.07-1.52.54h0l-1.37.52-.33.13-1.06.44-.3.12-1.3.56h-.07l-1.12.53-.34.16-.87.44-.31.16-1.06.6h-.07l-.9.57-.28.2c-.22.15-.44.31-.65.48l-.25.19c-.28.22-.55.45-.8.67h0c-.23.22-.45.44-.66.67a2 2 0 00-.19.22c-.16.17-.3.35-.44.53l-.17.23a7.57 7.57 0 00-.49.76h0c-.92 1.65-1.64 4.72-2.22 8.72-.06.45-.13.91-.19 1.39-.08.63-.16 1.27-.23 1.94-.74 6.47-1.2 14.63-1.55 23-4 2.38-6.69 4.83-7.64 7.31-2 5.36-3.3 23.76-3.75 46.45l-.13.12h-.02a1 1 0 00-.07.15l-.09.07h0c-1.47 1.26-3 2.41-4.4 3.44l-.21.15-.79.56-.47.33-.5.34-.6.41h-.06a19 19 0 00-7.16 8.7 130.56 130.56 0 01-5.74 11.92 16.47 16.47 0 00-1.87 6h0c-.14 1.21-.4 2.72-.76 4.42h0c-1 4.63-2.65 10.69-4.39 16.12A95.15 95.15 0 0120.63 241c-3.62 7.5-1.56 20.42-1.81 25.6h0a11.32 11.32 0 01-1.31 3.75c-3.1 6.3-10.84 17.13-14.3 21.86-1 1.44-1.71 2.31-1.71 2.31h0c.17.71.34 1.4.5 2.08a2.19 2.19 0 00.14.56c.14.58.28 1.14.41 1.69a1.37 1.37 0 00.07.29c.15.63.31 1.24.45 1.84l.12.46c.11.46.22.9.33 1.33l.12.48q.19.8.39 1.53l.12.47c.09.36.18.7.27 1a2.69 2.69 0 00.14.54c.11.4.21.79.31 1.16l.15.55c.08.28.16.57.23.84l.16.55c.07.25.13.49.2.72l.19.65.22.76c.07.25.11.34.16.51s.1.34.16.51l.15.49c.08.26.17.52.25.77s.1.31.16.47l.12.35v.09a1.22 1.22 0 00.14.39l.12.34.07.18v.13l.15.39a.82.82 0 00.11.28l.09.22a.2.2 0 00.08.19l.09.22a1 1 0 00.06.45l.09.22.18.37v.1l.11.22c.07.15.14.28.21.41l.12.21.1.2h0l.06.1v.05l.18.3.07.11c.2.3.4.57.59.81l.06.07.21.24h0a8.43 8.43 0 00.69.65h0a5.53 5.53 0 00.74.53h0c.26.16.53.3.8.44h0l.1.05h0l.35.16h0l.1.05h0l1 .4a5.65 5.65 0 012.84 3.37 11.63 11.63 0 01.46 1.29l.15.49c1.44 5.22 1.21 12.74 1.21 15.54 0 1.23 1.25 2.2 3.1 3.25.17.1.34.2.52.29 1.34.74 2.92 1.54 4.55 2.52l.76.46c3.39 2.14 6.82 5.14 8.48 10a.54.54 0 00-.09.39l-21.1 38.76a2.41 2.41 0 001 3.26h0l20.15 11.25h0l.23.13 5.17-1.94 3.11-1.16h3l1.06.05h1.91l1 .05h.48l1 .05h2.31l8.42.42h0l12.38.62h0L99.42 414l6.27.34c6 .35 35.56 5.76 53.76 9.16 8.49 1.59 14.5 2.74 14.5 2.74l58.44-7.76h0l5.17-3.62s40.34 3.62 46.55 3.62c5.07 0 26.38-6.56 34-9a3 3 0 002-3.63l-6-22.06 4.23-22.12a7.78 7.78 0 00-.37-4.27l-13.86-36.59a101.44 101.44 0 0026.82-34.17h0c0-.11.09-.22.14-.32.41-.84.8-1.68 1.19-2.54.34.36.39.22.45.12z" fill="none" stroke="#202020" stroke-linecap="round" stroke-linejoin="round" stroke-width="3"/>
      <path d="M225.81 350.81c5.37-.31 11.17-.79 16.83-1.54a99.8 99.8 0 0017.7-3.62l1.37-.44.55-.19c.8-.29 1.57-.58 2.31-.89a184.72 184.72 0 0023.47-11.61h0c17.09-10.18 32.58-24.18 42.89-45.39h0c.06-.11.1-.22.15-.32.41-.84.8-1.68 1.19-2.54.06-.13.11-.25.17-.37.44-1 .87-2 1.28-3l.21-.52c.34-.84.68-1.69 1-2.55l.29-.77c.36-1 .7-1.93 1-2.92a.26.26 0 01.08-.22c.36-1.08.72-2.18 1.06-3.3.07-.22.13-.44.2-.66.27-.92.54-1.85.8-2.8l.21-.73q.93-3.48 1.73-7.17l.12-.58c.23-1.12.45-2.24.66-3.38a3.54 3.54 0 01.08-.45q.72-3.94 1.25-8.13v-.29a199.58 199.58 0 001.52-29.93c-.5-19.67-3.11-30.34-3.11-30.34h0a125.44 125.44 0 0010.11-15.38c4.81-8.55 9.52-19.4 9.52-29.15 0 0-10.58.6-31.14 8.14 0 0-31-37.77-67.62-18.5-21.24 11.17-17.11 55.16-17.11 55.16s-9.48 17.6-43.38 20.7c-24.78 2.27-48.59-19.66-51.82-20.7-8.86 23.72 4 50.27 18 58.83-4.69.93-12.65 0-30.24-5.64 3.49 39.93 30 48.38 51.83 47.51 10.6-.43 10.76 4.3-.84 8.69-7 2.63-15.57 10.88-15.57 10.88l-34.19 43.14" fill="none" stroke="#202020" stroke-linecap="round" stroke-linejoin="round" stroke-width="3"/>
      <path d="M163.67 195.92c-.52-11.51-1.14-16.55-1.14-16.55s-30.77 3.11-43.7-1.55c-1.55-16.55-2.07-44 0-48.61s55.86-4.66 55.86-7.24-7.08-77.55 10.31-94.64S236.51-.74 260.67 1.92c8.66 24.37 0 55.26 0 55.26-28.06.66-38 5.32-37.66 37.9 0 1.23.2 23.41.2 23.41 7 7 46.63 4.51 46.63 4.51l-1.19 5" fill="none" stroke="#202020" stroke-linecap="round" stroke-linejoin="round" stroke-width="3"/>
      <path d="M168.13 292.92s-37.6-2.07-66-3.86c-11.84-.74-20.16-2.27-22.18-3.6-9.31-6.14-11.38-115.91-7.24-137.63 1.56-8.2 10.25-15.61 25.44-21 17.8-6.27 22.07-8.58 75.87-15.57" fill="none" stroke="#202020" stroke-linecap="round" stroke-linejoin="round" stroke-width="3"/>
      <path d="M118.19 169.45c-10.34 4.94-17.72 14.89-22.51 26.57-9.07 22.12-12.71 54 7.67 71.39a39.69 39.69 0 0027.37 9.16 68.8 68.8 0 0018.4-3M94.93 150.41c8.08.54 10.87 14.48 5.18 18.62s-14 2.34-16-5c-2.18-7.63 3.06-14.13 10.82-13.62z" fill="none" stroke="#202020" stroke-linecap="round" stroke-linejoin="round" stroke-width="3"/>
      <path d="M121.32 188.16c-5.63 3.56-9.76 9.51-12.57 16.34-6 14.72-8.46 36 5.11 47.5M238.99 388.79c2.76-1.63 5.24-3.18 6.68-4.88 2.39-2.81 2.4-8 1.44-13.42M125.93 352.55l13-3.55s-7.75 14-10.22 20.95-32.44 3.1-35.44 19.4" fill="none" stroke="#202020" stroke-linecap="round" stroke-linejoin="round" stroke-width="3"/>
      <path d="M173.29 91.4c-49.43 7.42-112.26 25.06-117.74 39.38-6.14 16-5.1 148.47 3.17 164.21 6.51 12.37 68.89 16.75 109.37 17.38M260.67 57.18l9.17 1.7S236.62 60 232.68 77s0 45 0 45M269.84 123l4.84 2.8M58.72 294.99l-7.1 13.68-1.57 8.38M283.47 344.13l-7.42-5.14M61.23 349.56l-17.99 3.92-7.42 7.89M278.63 51.38l-8.79 7.5M240.24 190.81l-.15-10.67 4.22.55M232.68 173.94l7.41 6.2M169.04 413.06l5.12 13.59" fill="none" stroke="#202020" stroke-linecap="round" stroke-linejoin="round" stroke-width="3"/>
      <path d="M171.63 285.55c-19.57-.48-37.64-14.62-39.69-38l5.23-7.92M167.41 245.26c-14-8.56-30.24-22.65-25.77-47.54l7.77-11.29M335.18 147.81s-29.89-39-66.53-19.78M314.56 346.89c1.82-21.18 2-16.24 10-32.78-13.3 25.49 3-5.92 3-5.92s2.07-7 2.12-7.09c.4-.84 9.13-14.47 9.52-15.33l.16-.36q.66-1.47 1.29-3l.21-.53c.34-.83-.23-1.68.09-2.54.1-.26 1.1-.51 1.2-.77.35-1 .7-1.93 1-2.92l.07-.22c.37-1.08.72-2.18 1.07-3.3.06-.22.13-.44.19-.66.28-.92.55-1.86.81-2.8.07-.24.14-.48.2-.73.63-2.32 1.2-4.71 1.73-7.17l.12-.58c.24-1.12.46-2.24.67-3.39a.88.88 0 01.08-.44c.48-2.63.89-5.35 1.25-8.14v-.29c1.14-9.11-.18-18.14-.45-29-.18-7.16 1.17-13.79.66-18.18a73.94 73.94 0 00-1.95-11.25 82.93 82.93 0 014.52-11.7c.78-1.69 3.39-3.54 4.16-5.52a75.27 75.27 0 002.94-9.17c1.8-7.18 2.59-14.94 1.14-21.46M340.99 186.49l6.57 3.54" fill="none" stroke="#202020" stroke-linecap="round" stroke-linejoin="round" stroke-width="2.77999997"/>
      <path d="M340.04 404.33c0-.73 3.56-10 3.56-10l8.09 7.64 1.6 6.83h-13.25z" fill="#eaeaea"/>
      <path fill="#8a8f93" d="M373.18 402.43l3.32-4.5 5.93 4.5-5.93 2.82-3.32-2.82z"/>
      <path d="M340.04 404.33c0-.73 3.56-10 3.56-10l.84 7.64 2.22 6.83h-6.62z" style="isolation:isolate" fill="#414547" opacity=".25999999"/>
      <path fill="#eaeaea" d="M351.48 418.91l8.75-9.64 4.94 6.43-2.73 5.62-10.96-2.41z"/>
      <path d="M340.04 404.33c0-.73 3.56-10 3.56-10l8.09 7.64 1.6 6.83h-13.25z" fill="none" stroke="#202020" stroke-linecap="round" stroke-linejoin="round" stroke-width="2.77999997"/>
      <path style="isolation:isolate" fill="#414547" opacity=".25999999" d="M351.48 418.91l8.75-9.64-.82 11.39-7.93-1.75z"/>
      <path fill="none" stroke="#202020" stroke-linecap="round" stroke-linejoin="round" stroke-width="2.77999997" d="M373.18 402.43l3.32-4.5 5.93 4.5-5.93 2.82-3.32-2.82zM351.48 418.91l8.75-9.64 4.94 6.43-2.73 5.62-10.96-2.41z"/>
    </g>
  </g>
</svg>