<svg data-name="Layer 1" xmlns="http://www.w3.org/2000/svg" viewBox="0 0 444.28 471.99">
  <g data-name="Layer 2">
    <g data-name="Layer 3">
      <circle cx="365.45" cy="279.29" r="10.75" fill="none" stroke="#202020" stroke-linecap="round" stroke-linejoin="round" stroke-width="3"/>
      <circle cx="432.03" cy="211.13" r="10.75" fill="none" stroke="#202020" stroke-linecap="round" stroke-linejoin="round" stroke-width="3"/>
      <path fill="none" stroke="#202020" stroke-linecap="round" stroke-linejoin="round" stroke-width="3" d="M295.8 252.18l58.9 27.11M374.86 273.89l50.26-54.46"/>
      <circle cx="12.25" cy="329.47" r="10.75" fill="none" stroke="#202020" stroke-linecap="round" stroke-linejoin="round" stroke-width="3"/>
      <circle cx="94.1" cy="253.55" r="10.75" fill="none" stroke="#202020" stroke-linecap="round" stroke-linejoin="round" stroke-width="3"/>
      <circle cx="174.5" cy="282" r="10.75" fill="none" stroke="#202020" stroke-linecap="round" stroke-linejoin="round" stroke-width="3"/>
      <circle cx="241.08" cy="213.84" r="10.75" fill="none" stroke="#202020" stroke-linecap="round" stroke-linejoin="round" stroke-width="3"/>
      <path fill="none" stroke="#202020" stroke-linecap="round" stroke-linejoin="round" stroke-width="3" d="M20.32 321.39l65.7-59.76M104.85 254.89l58.9 27.11M183.92 276.6l50.25-54.46"/>
      <path d="M338.89 158.47a3.22 3.22 0 01-2.27-.94l-7.68-7.68a2.58 2.58 0 00-1.82-.75h-16a4.5 4.5 0 01-4.49-4.5V89.11a4.5 4.5 0 014.49-4.49h55.49a4.5 4.5 0 014.5 4.49v55.49a4.52 4.52 0 01-4.5 4.5h-16a2.58 2.58 0 00-1.82.75l-7.68 7.68a3.2 3.2 0 01-2.22.94z" fill="#b9bdc1"/>
      <path d="M109.93 86.48a32.79 32.79 0 00-32.76 32.77c0 8.47 4.63 16.95 6.11 19.31 5.6 9.35 22.63 32.59 23.33 33.55a4 4 0 003.32 1.75 4.09 4.09 0 003.32-1.75c.7-1 17.74-24.2 23.33-33.55 1.4-2.36 6.12-10.84 6.12-19.31a32.78 32.78 0 00-32.77-32.77zm0 47.18a14.42 14.42 0 1114.42-14.42 14.42 14.42 0 01-14.42 14.42z" fill="#8a8f93"/>
      <path d="M124.35 121.55a16.21 16.21 0 11-16.2-16.72h.94a14.42 14.42 0 1015.22 15.49c.03.43.04.83.04 1.23zM123.51 96.91c-10.46-7.68-19.85-9.69-21.08-9.56 45.67-1.94 43.1 28.76 36.74 45.65-.09-13.09-2.33-26.31-15.66-36.09z" style="isolation:isolate" fill="#f2f3f4" opacity=".52999997"/>
      <path d="M109.93 86.48a32.79 32.79 0 00-32.76 32.77c0 8.47 4.63 16.95 6.11 19.31 5.6 9.35 22.63 32.59 23.33 33.55a4 4 0 003.32 1.75 4.09 4.09 0 003.32-1.75c.7-1 17.74-24.2 23.33-33.55 1.4-2.36 6.12-10.84 6.12-19.31a32.78 32.78 0 00-32.77-32.77zm0 47.18a14.42 14.42 0 1114.42-14.42h0a14.42 14.42 0 01-14.42 14.42z" fill="none" stroke="#202020" stroke-linecap="round" stroke-linejoin="round" stroke-width="3"/>
      <path d="M366.63 84.62h-55.49c-1.86 0-3.46 2.14-4.14 3.76h57.65a2.77 2.77 0 012.76 2.76v57.58c1.6-.69 3.71-2.28 3.71-4.12V89.12a4.49 4.49 0 00-4.48-4.5z" style="isolation:isolate" fill="#f2f3f4" opacity=".52999997"/>
      <path d="M228.93 135.27a18.46 18.46 0 00-31.34-.78 45.91 45.91 0 01-3.13 5.22c-3.24 3.91-9.16 4.91-14.4 4.39s-10.3-2.26-15.55-2.65-11.17.92-14.07 5.05c-3.48 4.94-1.3 11.47.48 17.15.81 2.59 1.47 5.53 0 7.85a9.1 9.1 0 01-4.28 3.15c-4 1.74-8.58 2.53-12.29 4.83s-6.41 7-4.3 10.66c.73 1.27 1.92 2.24 2.7 3.48 3 4.71-1.35 10.65-6.29 13.55s-11 4.7-14.24 9.23c-4.61 6.41-1.51 15.12 2.53 21.86s9.11 13.81 8 21.48c-1 6.94-6.84 12.55-8.19 19.43-1.62 8.16 8.38 10.07 9.26 18.33.47 4.35-13.72 13.27-10.11 23.59 1.45 4.16 6.75 10.93 11.11 12.47 2.59-7.54 4.38-10.16 10.37-11 8.91-1.27 5.73 11.49 18 9.85 4.66-.62 3-5.31 6.28-8.48 3.77-3.58 11.65-1.8 13.14 3.16 3.62 12.07 7 1.68 14.45.61 2.48-.36 8.22 3.83 9.18 7.83z" fill="#414547"/>
      <path d="M226.38 150.87l-30.13 184.66c-1-4-6.7-8.19-9.17-7.84-7.43 1.08-10.84 11.46-14.46-.61-1.49-5-9.36-6.74-13.13-3.15-2.32 2.2-2.2 5.13-3.48 6.93.75-5.92-1.11-12.25-5.68-16-2-1.66-4.5-2.83-6-5-2.48-3.55-1.37-8.51.76-12.29s5.19-7 6.69-11.11a16.44 16.44 0 00-2.78-15.91c-5.07-6.08-14.53-8.46-17.14-15.93-1.61-4.58 0-9.74 2.79-13.76s6.46-7.23 9.64-10.9a13.7 13.7 0 002.78-4.34 13.21 13.21 0 00.32-5.83 39.75 39.75 0 00-3.62-12.43 9.37 9.37 0 01-1.35-4.39c.16-2.86 3.11-4.71 5.87-5.46s5.8-1 8.07-2.7c4.83-3.7 3.19-11.53 6.32-16.75 2.41-4 7.24-5.84 11.78-7.08a111.94 111.94 0 0116.84-3.22z" fill="#2b2f30"/>
      <path d="M228.93 135.27l-2.55 15.6-35 16.89a112.87 112.87 0 00-16.89 3.24c-4.54 1.24-9.37 3.05-11.78 7.08-3.13 5.22-1.49 13-6.32 16.75-2.27 1.74-5.31 1.95-8.07 2.7s-5.71 2.6-5.87 5.46a9.37 9.37 0 001.35 4.39 39.75 39.75 0 013.62 12.43 13.21 13.21 0 01-.32 5.83 13.7 13.7 0 01-2.78 4.34c-3.18 3.67-6.91 6.89-9.64 10.9s-4.4 9.18-2.79 13.76c2.61 7.47 12.07 9.85 17.14 15.93a16.43 16.43 0 012.75 15.91c-1.5 4.07-4.55 7.34-6.69 11.11s-3.24 8.74-.76 12.29c1.5 2.14 4 3.31 6 5 4.57 3.78 6.43 10.11 5.68 16a3.8 3.8 0 01-2.81 1.55c-12.23 1.63-9-11.13-18-9.86-6 .86-7.78 3.47-10.36 11-4.37-1.53-9.67-8.3-11.12-12.46-3.6-10.33 10.58-19.25 10.11-23.6-.88-8.26-10.87-10.17-9.26-18.33 1.36-6.88 7.22-12.49 8.19-19.42 1.08-7.67-4-14.74-8-21.48s-7.15-15.46-2.53-21.87c3.26-4.53 9.3-6.32 14.24-9.22s9.23-8.84 6.28-13.56c-.77-1.23-2-2.21-2.7-3.47-2.11-3.68.58-8.36 4.3-10.67s8.25-3.08 12.3-4.82a9.16 9.16 0 004.27-3.16c1.46-2.32.8-5.26 0-7.84-1.78-5.69-3.95-12.21-.48-17.16 2.9-4.13 8.82-5.44 14.07-5s10.31 2.13 15.55 2.65 11.17-.48 14.4-4.38a44.62 44.62 0 003.13-5.23 18.47 18.47 0 0131.34.78z" fill="none"/>
      <path d="M261.06 331.62c2.3-2.65 5.61-4.92 9.08-4.38 5.87.91 9.4 9.3 15.24 8.18 2.9-.55 4.73-3.3 6.59-5.58s4.8-4.45 7.53-3.34c1.86.76 2.83 2.77 4.25 4.19 3.49 3.51 8.78 4.39 11.32.15.54-.9 2.58-3.86 3.63-3.79 5.39.31 7.94 7.85 7.94 7.85 3.37-2.11 4.51-4.14 6-7.12s1.88-6.35 2.27-9.65c.67-5.78 3.48-11.69.27-16.54-2.87-4.35-6.4-10.86-9.48-13.63-4.21-3.8-6.33-12.76-5.54-18.38 1.64-11.56 11.09-12.29 14.36-23.49 2.9-10-3-21.67-12.78-25.22-2.94-1.07-6.26-1.54-8.56-3.68-4.29-4-2.61-11-.28-16.39s5-11.76 1.85-16.7c-2.78-4.39-8.7-5.24-13.86-5.9s-11.14-2.19-13.08-7c-3.14-7.81 7.16-16.93 3-24.24-2-3.53-6.67-4.66-10.71-4.23s-7.88 2-11.91 2.56-8.68-.35-11-3.72c-2-2.89-1.81-7.11-4.52-9.33-2.07-1.69-5-.91-7.69-1-11.83-.37-17.42 8-22 16.2l-.54 3.08a10 10 0 007.3 11.55c2.77.62 5.66 0 8.48.24s5.95 1.9 6.26 4.71c.47 4.14-4.92 6.13-7.41 9.47a7.73 7.73 0 006.86 12.34 17.18 17.18 0 005.65-2c3.21-1.51 6.76-2.84 10.25-2.15s6.62 4.18 5.67 7.6-4.94 4.95-6 8.22c-1.2 3.87 2.48 7.64 6.28 9s8.1 1.53 11.56 3.63c4.81 2.9 6.72 8.75 8.47 14.09 3.66 11.19-10.3 21.83-15 16.84 7.74 14.47 14.81 6.8 14.81 6.8L280.13 282l-11.94 23.05-8.74 10z" fill="#414547"/>
      <path d="M369.29 405.85c-71.65 79.94-194.53 86.66-274.47 15q-3-2.67-5.82-5.44c20.37-41.45 76.64-23.94 94.08-38.93 8.34-7.17 16.28-42.77 13.56-53.05-2.87-10.83 46.84-34.33 62.31-21.52 1.49 46.07 4.76 67.4 17.95 74.57 22.15 14.52 72.72.33 92.39 29.37z" fill="#b9bdc1"/>
      <path d="M138.31 398.85c11.39-1.53 19.69-8.15 25.61-15.73-24.13 3.27-59.31 1.38-74.51 32.31q5.1 4.95 10.54 9.53c7.46-14.32 16.31-23.14 38.36-26.11zM244.48 318.6c-4.86 12.77-14.89 28.58-48.23 20.92 1-6.79 1.24-12.75.36-16.07-1.46-5.5 10.63-14.25 24.9-19.87 14.18 4.16 25.14 9.31 22.97 15.02z" style="isolation:isolate" fill="#414547" opacity=".40000001"/>
      <path d="M323.22 443.62a194.6 194.6 0 01-187.35 5.53 102.61 102.61 0 004.49-30.44 102.12 102.12 0 00-5.12-32.39c19.43-3 38.8-2.08 47.81-9.82 4.39-3.77 8.66-15.41 11.33-27.09 9.5 4.11 24.5 5.77 34.75 5.77 13.35 0 22.47-2.49 33.23-7.43 2.56 15.7 6.87 24.6 14.51 28.75 9.87 6.47 25.37 7.25 41.26 8.67a105 105 0 00-2 20.7 100.39 100.39 0 007.09 37.75z" fill="#414547"/>
      <path d="M369.29 405.85c-71.65 79.94-194.53 86.66-274.47 15q-3-2.67-5.82-5.44c20.37-41.45 76.64-23.94 94.08-38.93 8.34-7.17 16.28-42.77 13.56-53.05-2.87-10.83 46.84-34.33 62.31-21.52 1.49 46.07 4.76 67.4 17.95 74.57 22.15 14.52 72.72.33 92.39 29.37z" fill="none" stroke="#202020" stroke-linecap="round" stroke-linejoin="round" stroke-width="3"/>
      <path d="M284.06 217.19c9.7-11 19.37-.6 14.1 23.81s-12.91 15.86-12.91 15.86" fill="#b9bdc1"/>
      <path d="M284.6 252.91s.85 8.75 4.58 4.51a284.94 284.94 0 00-3.18-42.88c-1.6.66-.24.76-1.91 2.65z" style="isolation:isolate" fill="#414547" opacity=".40000001"/>
      <path d="M289.93 225.65a48.15 48.15 0 00-1-4.73c2.26-1.11 3.45.4 4.57 6.22 1.49 7.74-.77 13.64-5.5 15.23 2.35-3.55 3.15-9.51 1.93-16.72z" style="isolation:isolate" fill="#414547" opacity=".40000001"/>
      <path d="M284.77 226.67c5.57-6.87 7.14-9.61 8.79.47s-1.55 17-7.61 15.23l-.45-5.91z" fill="none" stroke="#202020" stroke-linecap="round" stroke-linejoin="round" stroke-width="3"/>
      <path d="M284.06 217.19c9.7-11 19.37-.6 14.1 23.81s-12.91 15.86-12.91 15.86" fill="none" stroke="#202020" stroke-linecap="round" stroke-linejoin="round" stroke-width="3"/>
      <path d="M230.09 148.89c-7-.09-21.07.73-27.18 2-10.26 2-19 9.4-25.23 17.27C161 189 155.6 218.18 157 244.09a130 130 0 002.63 20.23c3.61 17.07 11.48 33.82 23.36 46.88 16.71 18.37 39.74 26.83 62.56 14.56 18.76-10.09 30.94-28.29 36.76-48.1a119.9 119.9 0 003.79-18.38c3.72-28.74 2.21-68.26-16.34-92.3-9.59-12.38-24.38-17.9-39.67-18.09z" fill="#b9bdc1"/>
      <path d="M202.17 150.85a136.38 136.38 0 0116-1.64c-7.06 2-13.64 6.12-19.08 10.72-20.59 17.41-31.87 45.28-35.86 71.3a134.56 134.56 0 00-1.57 20.64 105.39 105.39 0 009.87 44.87 105.68 105.68 0 01-12.65-32.41 130.21 130.21 0 01-2.62-20.24c-1.35-25.9 4.08-55.05 20.72-76 6.22-7.85 14.93-15.2 25.19-17.24z" style="isolation:isolate" fill="#414547" opacity=".40000001"/>
      <path d="M156.1 222.17C145.6 212 136.73 223 143.83 247s14.06 14.84 14.06 14.84" fill="#8a8f93"/>
      <path d="M158.24 257.83s-.19 8.79-4.22 4.84a285.74 285.74 0 010-43c1.64.54.29.74 2.1 2.5z" style="isolation:isolate" fill="#414547" opacity=".40000001"/>
      <path d="M150.88 231.05c.18-2 .39-3.52.63-4.79-2.34-.94-3.41.66-4.09 6.55-.9 7.82 1.79 13.54 6.63 14.77-2.6-3.36-3.84-9.25-3.17-16.53z" style="isolation:isolate" fill="#414547" opacity=".40000001"/>
      <path d="M156.1 231.68c-6.06-6.43-7.84-9.05-8.72 1.13s2.81 16.83 8.72 14.61z" fill="none" stroke="#202020" stroke-linecap="round" stroke-linejoin="round" stroke-width="3"/>
      <path d="M156.1 222.17C145.6 212 136.73 223 143.83 247s14.06 14.84 14.06 14.84" fill="none" stroke="#202020" stroke-linecap="round" stroke-linejoin="round" stroke-width="3"/>
      <path d="M206 229.3c-6.81-5.32-16.62-11.48-25.93 0 0 0 3 3.82 11.8 3.49S206 229.3 206 229.3z" fill="#fff"/>
      <path d="M214.85 308.62c5.16-1.49 12.61-3.32 19.79 0 0 0-2.48-7.26-6-7s-3.6.9-8 0c-3.41-.69-5.79 7-5.79 7zM211.69 247.85c2.66-17.39 6.53-40.7-11-47.16s-20.56 11.23-15.24 14.36c3.8 2.23 8.24-.68 13.11 1.46a10.48 10.48 0 012.84 1.86 19.14 19.14 0 013.21 3.8c8.79 13.34-5.56 16.46 7.08 25.68z" style="isolation:isolate" fill="#414547" opacity=".40000001"/>
      <circle cx="192.16" cy="228.24" r="4.44" fill="#414547"/>
      <path d="M237.44 262.07c0 3.86-5.32 7-11.88 7s-13.87-3.12-13.87-7c0-2.19 2.29-4.06 5.18-2.54 2.2 1.16 4.6 5.62 7.43 5.62 3 0 6.95-5 9.34-6.17 2.78-1.42 3.8 1.02 3.8 3.09z" fill="#8a8f93"/>
      <path d="M211 261.37c6.65-7.8 6.59 3.73 13.3 3.78 7 0 7.49-11.74 13.14-4.76M206 229.3c-6.81-5.32-16.62-11.48-25.93 0 0 0 3 3.82 11.8 3.49S206 229.3 206 229.3zM176.75 222.8c3.33-7.88 23.94-15 29.26 6.5" fill="none" stroke="#202020" stroke-linecap="round" stroke-linejoin="round" stroke-width="3"/>
      <circle cx="192.16" cy="228.24" r="4.44" fill="none" stroke="#202020" stroke-linecap="round" stroke-linejoin="round" stroke-width="3"/>
      <path d="M286.62 250.1l-1.37 11.56s-9-1.25-9-10.73 10.37-.83 10.37-.83z" style="isolation:isolate" fill="#414547" opacity=".40000001"/>
      <path d="M244.48 287.11c-2.88 11.08-11.69 14.82-19.34 14.82-19.35 0-20.56-14.82-20.56-14.82l14.07-3.11c3.33 3.83 8.32 3.11 10.09 0z" fill="#8a8f93"/>
      <path d="M204.57 287.1l14.08-3.1c3.33 3.82 8.31 3.1 10.09 0l15.74 3.1c-2.88 11.09-11.69 14.83-19.35 14.83-19.34 0-20.56-14.83-20.56-14.83a41.61 41.61 0 0019.73 6c5.91.22 16.58-1.86 20.18-6" fill="none" stroke="#202020" stroke-linecap="round" stroke-linejoin="round" stroke-width="3"/>
      <path d="M229.35 148.89c-7-.09-21.07.73-27.18 2-10.26 2-19 9.4-25.23 17.27-16.65 20.92-22.08 50.07-20.73 76a131.16 131.16 0 002.63 20.23c3.61 17.07 11.48 33.82 23.37 46.88 16.7 18.37 39.73 26.83 62.55 14.56 18.77-10.09 30.94-28.29 36.76-48.1a118.72 118.72 0 003.79-18.38C289 230.54 287.52 191 269 167c-9.57-12.4-24.36-17.92-39.65-18.11zM211 209.53c-3.79-8.89-23.31-16-34.92-8" fill="none" stroke="#202020" stroke-linecap="round" stroke-linejoin="round" stroke-width="3"/>
      <path d="M238.85 229.39c6.42-5.8 15.76-12.65 25.87-1.88 0 0-2.71 4-11.52 4.34s-14.35-2.46-14.35-2.46z" fill="#fff"/>
      <path d="M233 247c-1.83-17.5-4.22-37.2 6.54-42.93 7.23-3.85 11.58 8.09 4.72 14-3.58 3-1.78 2.09-2.94 3.67-9.43 12.89 1.45 18.11-8.32 25.26z" style="isolation:isolate" fill="#414547" opacity=".40000001"/>
      <circle cx="253.35" cy="227.3" r="4.44" fill="#414547"/>
      <path d="M239.16 230c6.14-6.09 15.15-13.36 25.76-3.07 0 0-2.52 4.15-11.31 4.86S239.16 230 239.16 230zM267.45 220.12c-4.23-7.43-25.54-12-28.29 9.92" fill="none" stroke="#202020" stroke-linecap="round" stroke-linejoin="round" stroke-width="3"/>
      <circle cx="253.35" cy="227.3" r="4.44" fill="none" stroke="#202020" stroke-linecap="round" stroke-linejoin="round" stroke-width="3"/>
      <path d="M235.52 208.79c4.21-8.69 24-14.83 35.27-6.31" fill="none" stroke="#202020" stroke-linecap="round" stroke-linejoin="round" stroke-width="3"/>
      <circle cx="190.24" cy="226.5" r="1.3" fill="#fff"/>
      <circle cx="251.79" cy="225.2" r="1.3" fill="#fff"/>
      <path d="M305.47 227.3c-.35-3.11-3.53-10.63-5.82-12.76-4.29-4-8-5.38-5.66-10.74s1-3.08-2.14-8c-2.78-4.39 7.28-6.88 2.12-7.54s-11-8.47-12.89-13.3c-3.14-7.81-2-9.54-6.21-16.84-2-3.53 0-.43-4.08 0s.69 2.13-3.34 2.65-4.33-6.88-6.61-10.25c-2-2.89-5-4.38-7.69-6.59-2.07-1.7-5.78-.56-8.4 0-9.19 1.93-17.2-4.69-21.78 3.51l-.54 3.08a10 10 0 007.3 11.55c2.77.62 5.66 0 8.48.24s5.95 1.9 6.26 4.71c.47 4.14-4.92 6.13-7.41 9.47a7.73 7.73 0 006.86 12.34 17.18 17.18 0 005.65-2c3.21-1.51 6.76-2.84 10.25-2.15s6.62 4.18 5.67 7.6-4.94 4.95-6 8.22c-1.2 3.87 2.3 8.31 6.28 9 18.25 3.27 19.56 11 20 17.72.78 11.3-10.3 21.83-15 16.84 7.74 14.47 23.18 5.58 23.18 5.58s13.74-2.64 11.52-22.34z" fill="#414547"/>
      <path d="M334.88 318.13a64.73 64.73 0 01-4.1 10.87 59.91 59.91 0 00.61-15.88c-.54-5.66-2-11.49-5.85-15.7-2-2.24-4.64-3.9-6.88-5.94a26.78 26.78 0 01-7-28.05c1.69-4.76 4.71-8.92 6.72-13.55s2.9-10.24.3-14.56c-2.45-4.07-7.25-5.93-11.53-8s-8.77-5.25-9.29-10c-.47-4.29 2.52-8.08 4.88-11.69s4.18-8.57 1.59-12-7.66-3.11-11.86-4C281.71 187.49 275 174 279.61 164.1c1.15-2.44 2.84-4.65 3.47-7.26s-.3-5.93-2.86-6.75a6.71 6.71 0 00-4.57.63c-6.9 2.9-14.06 8.53-21 5.69-5.67-2.33-7.72-9.1-9.63-14.92-1.21-3.67-3.14-7.63-5.93-10.11.74-.18 1.53-.36 2.35-.53 2.62-.55 9.13-.32 11.2 1.38 2.71 2.21 2.56 6.43 4.52 9.33 2.28 3.37 6.93 4.24 11 3.71s7.87-2.13 11.91-2.56 8.7.71 10.72 4.24c4.18 7.3-6.12 16.42-3 24.24 1.94 4.82 7.91 6.36 13.07 7s11.08 1.5 13.87 5.9c3.13 4.94.48 11.33-1.85 16.69s-4 12.42.27 16.4c2.3 2.13 5.62 2.61 8.57 3.68 9.74 3.55 15.67 15.25 12.77 25.21-3.27 11.21-12.72 11.94-14.35 23.49-.8 5.62 1.32 14.58 5.54 18.38 3.08 2.8 13.93 10.27 9.2 30.19z" fill="#6d6f70"/>
      <path d="M222.43 150.5a10 10 0 007.3 11.55c2.77.62 5.66 0 8.48.24s5.95 1.9 6.26 4.71c.47 4.14-4.92 6.13-7.41 9.47a7.73 7.73 0 006.86 12.34 17.18 17.18 0 005.65-2c3.21-1.51 6.76-2.84 10.25-2.15s6.62 4.18 5.67 7.6-4.94 5-6 8.22c-1.2 3.87 2.31 8.23 6.28 9 16.38 3.27 19 10.12 20 17.72 1.64 11.66-10.3 21.83-15 16.84 9.85 14.47 19.77 11.08 28.86 1.25s4.71-24.84 4.71-24.84" fill="none" stroke="#202020" stroke-linecap="round" stroke-linejoin="round" stroke-width="3"/>
      <path d="M222.43 150.5c5.56-15.63 9.83-17.71 19-19.65 2.62-.55 9.14-.32 11.21 1.37 2.71 2.22 2.56 6.44 4.52 9.33 2.28 3.37 6.93 4.25 11 3.72s7.87-2.14 11.91-2.56 8.69.7 10.71 4.23c4.18 7.31-6.12 16.43-3 24.24 1.94 4.83 7.92 6.36 13.08 7s11.08 1.51 13.86 5.9c3.13 4.94.49 11.34-1.85 16.7s-4 12.42.28 16.39c2.3 2.14 5.62 2.61 8.56 3.68 9.75 3.55 15.68 15.26 12.78 25.22-3.27 11.2-12.72 11.93-14.36 23.49-.79 5.62 1.33 14.58 5.54 18.38 3.08 2.77 13.94 10.24 9.21 30.17-.77 3.23-4.87 14.66-8.24 16.77 0 0-4.66-13.64-11.57-4.06a6.77 6.77 0 01-11.32-.15c-5-7.66-9.91-3.13-11.78-.85s-3.69 5-6.59 5.58c-5.84 1.12-9.37-7.27-15.24-8.18-3.47-.54-6.78 1.73-9.08 4.38" fill="none" stroke="#202020" stroke-linecap="round" stroke-linejoin="round" stroke-width="3"/>
      <path d="M228.93 135.27a18.46 18.46 0 00-31.34-.78 45.91 45.91 0 01-3.13 5.22c-3.24 3.91-9.16 4.91-14.4 4.39s-10.3-2.26-15.55-2.65-11.17.92-14.07 5.05c-3.48 4.94-1.3 11.47.48 17.15.81 2.59 1.47 5.53 0 7.85a9.1 9.1 0 01-4.28 3.15c-4 1.74-8.58 2.53-12.29 4.83s-6.41 7-4.3 10.66c.73 1.27 1.92 2.24 2.7 3.48 3 4.71-1.35 10.65-6.29 13.55s-11 4.7-14.24 9.23c-4.61 6.41-1.51 15.12 2.53 21.86s9.11 13.81 8 21.48c-1 6.94-6.84 12.55-8.19 19.43-1.62 8.16 8.38 10.07 9.26 18.33.47 4.35-13.72 13.27-10.11 23.59 1.45 4.16 6.75 10.93 11.11 12.47 2.59-7.54 4.38-10.16 10.37-11 8.91-1.27 5.73 11.49 18 9.85 4.66-.62 3-5.31 6.28-8.48 3.77-3.58 11.65-1.8 13.14 3.16 3.62 12.07 7 1.68 14.45.61 2.48-.36 8.22 3.83 9.18 7.83" fill="none" stroke="#202020" stroke-linecap="round" stroke-linejoin="round" stroke-width="3"/>
      <ellipse cx="177.73" cy="244.68" rx="5.08" ry="6.83" transform="rotate(-60.11 177.74350129 244.68445025)" style="isolation:isolate" fill="#f2f3f4" opacity=".52999997"/>
      <ellipse cx="220.62" cy="315.02" rx="3.48" ry="2.59" transform="rotate(-2.52 220.50755132 315.07478)" style="isolation:isolate" fill="#f2f3f4" opacity=".52999997"/>
      <path d="M223.93 252.4a11 11 0 014.94.88v-.43c-.09-1.92-2.26-3.39-4.84-3.27s-4.62 1.76-4.53 3.68a.67.67 0 000 .2 11.34 11.34 0 014.43-1.06z" style="isolation:isolate" fill="#f2f3f4" opacity=".52999997"/>
      <path d="M353 115.8zm-21-9.87a6.35 6.35 0 00-2.74.62 6.88 6.88 0 00-3.55 3.61 6.39 6.39 0 00.17 5c1 2.34 5.33 7.09 12.82 14.13 7.49-7 11.8-11.79 12.82-14.13a6.43 6.43 0 00.17-5 6.9 6.9 0 00-3.56-3.61 6.36 6.36 0 00-4.52-.36c-1.86.54-3.76 2.49-4.75 5a.19.19 0 01-.24.12.18.18 0 01-.12-.12c-1-2.56-2.88-4.51-4.74-5a6.52 6.52 0 00-1.76-.26z" fill="#414547"/>
      <path d="M338.89 158.47a3.22 3.22 0 01-2.27-.94l-7.68-7.68a2.58 2.58 0 00-1.82-.75h-16a4.5 4.5 0 01-4.49-4.5V89.11a4.5 4.5 0 014.49-4.49h55.49a4.5 4.5 0 014.5 4.49v55.49a4.52 4.52 0 01-4.5 4.5h-16a2.58 2.58 0 00-1.82.75l-7.68 7.68a3.2 3.2 0 01-2.22.94z" fill="none" stroke="#202020" stroke-linecap="round" stroke-linejoin="round" stroke-width="3"/>
      <path d="M237.89 75.11a38.45 38.45 0 01-38.07-53.37A38.44 38.44 0 10255 69.7a38.16 38.16 0 01-17.11 5.41z" fill="#fff"/>
      <path d="M254.6 70.69a38.43 38.43 0 01-73-10.89c6.94 15.68 24 26.12 43.24 24.77a45.25 45.25 0 0029.76-13.88z" style="isolation:isolate" fill="#414547" opacity=".20999999"/>
      <circle cx="222.87" cy="3.67" r="2.17" fill="none" stroke="#202020" stroke-linecap="round" stroke-linejoin="round" stroke-width="3"/>
      <circle cx="235.95" cy="26.38" r="4.64" fill="none" stroke="#202020" stroke-linecap="round" stroke-linejoin="round" stroke-width="3"/>
      <path d="M237.89 75.11a38.45 38.45 0 01-38.07-53.37A38.44 38.44 0 10255 69.7a38.16 38.16 0 01-17.11 5.41z" fill="none" stroke="#202020" stroke-linecap="round" stroke-linejoin="round" stroke-width="3"/>
      <circle cx="365.45" cy="279.29" r="10.75" fill="none" stroke="#202020" stroke-linecap="round" stroke-linejoin="round" stroke-width="3"/>
      <circle cx="432.03" cy="211.13" r="10.75" fill="none" stroke="#202020" stroke-linecap="round" stroke-linejoin="round" stroke-width="3"/>
      <path fill="none" stroke="#202020" stroke-linecap="round" stroke-linejoin="round" stroke-width="3" d="M295.8 252.18l58.9 27.11M374.86 273.89l50.26-54.46"/>
      <circle cx="12.25" cy="329.47" r="10.75" fill="none" stroke="#202020" stroke-linecap="round" stroke-linejoin="round" stroke-width="3"/>
      <circle cx="94.1" cy="253.55" r="10.75" fill="none" stroke="#202020" stroke-linecap="round" stroke-linejoin="round" stroke-width="3"/>
      <circle cx="174.5" cy="282" r="10.75" fill="none" stroke="#202020" stroke-linecap="round" stroke-linejoin="round" stroke-width="3"/>
      <circle cx="241.08" cy="213.84" r="10.75" fill="none" stroke="#202020" stroke-linecap="round" stroke-linejoin="round" stroke-width="3"/>
      <path fill="none" stroke="#202020" stroke-linecap="round" stroke-linejoin="round" stroke-width="3" d="M20.32 321.39l65.7-59.76M104.85 254.89l58.9 27.11M183.92 276.6l50.25-54.46"/>
      <path d="M338.89 158.47a3.22 3.22 0 01-2.27-.94l-7.68-7.68a2.58 2.58 0 00-1.82-.75h-16a4.5 4.5 0 01-4.49-4.5V89.11a4.5 4.5 0 014.49-4.49h55.49a4.5 4.5 0 014.5 4.49v55.49a4.52 4.52 0 01-4.5 4.5h-16a2.58 2.58 0 00-1.82.75l-7.68 7.68a3.2 3.2 0 01-2.22.94z" fill="#b9bdc1"/>
      <path d="M109.93 86.48a32.79 32.79 0 00-32.76 32.77c0 8.47 4.63 16.95 6.11 19.31 5.6 9.35 22.63 32.59 23.33 33.55a4 4 0 003.32 1.75 4.09 4.09 0 003.32-1.75c.7-1 17.74-24.2 23.33-33.55 1.4-2.36 6.12-10.84 6.12-19.31a32.78 32.78 0 00-32.77-32.77zm0 47.18a14.42 14.42 0 1114.42-14.42 14.42 14.42 0 01-14.42 14.42z" fill="#8a8f93"/>
      <path d="M124.35 121.55a16.21 16.21 0 11-16.2-16.72h.94a14.42 14.42 0 1015.22 15.49c.03.43.04.83.04 1.23zM123.51 96.91c-10.46-7.68-19.85-9.69-21.08-9.56 45.67-1.94 43.1 28.76 36.74 45.65-.09-13.09-2.33-26.31-15.66-36.09z" style="isolation:isolate" fill="#f2f3f4" opacity=".52999997"/>
      <path d="M109.93 86.48a32.79 32.79 0 00-32.76 32.77c0 8.47 4.63 16.95 6.11 19.31 5.6 9.35 22.63 32.59 23.33 33.55a4 4 0 003.32 1.75 4.09 4.09 0 003.32-1.75c.7-1 17.74-24.2 23.33-33.55 1.4-2.36 6.12-10.84 6.12-19.31a32.78 32.78 0 00-32.77-32.77zm0 47.18a14.42 14.42 0 1114.42-14.42h0a14.42 14.42 0 01-14.42 14.42z" fill="none" stroke="#202020" stroke-linecap="round" stroke-linejoin="round" stroke-width="3"/>
      <path d="M366.63 84.62h-55.49c-1.86 0-3.46 2.14-4.14 3.76h57.65a2.77 2.77 0 012.76 2.76v57.58c1.6-.69 3.71-2.28 3.71-4.12V89.12a4.49 4.49 0 00-4.48-4.5z" style="isolation:isolate" fill="#f2f3f4" opacity=".52999997"/>
      <path d="M228.93 135.27a18.46 18.46 0 00-31.34-.78 45.91 45.91 0 01-3.13 5.22c-3.24 3.91-9.16 4.91-14.4 4.39s-10.3-2.26-15.55-2.65-11.17.92-14.07 5.05c-3.48 4.94-1.3 11.47.48 17.15.81 2.59 1.47 5.53 0 7.85a9.1 9.1 0 01-4.28 3.15c-4 1.74-8.58 2.53-12.29 4.83s-6.41 7-4.3 10.66c.73 1.27 1.92 2.24 2.7 3.48 3 4.71-1.35 10.65-6.29 13.55s-11 4.7-14.24 9.23c-4.61 6.41-1.51 15.12 2.53 21.86s9.11 13.81 8 21.48c-1 6.94-6.84 12.55-8.19 19.43-1.62 8.16 8.38 10.07 9.26 18.33.47 4.35-13.72 13.27-10.11 23.59 1.45 4.16 6.75 10.93 11.11 12.47 2.59-7.54 4.38-10.16 10.37-11 8.91-1.27 5.73 11.49 18 9.85 4.66-.62 3-5.31 6.28-8.48 3.77-3.58 11.65-1.8 13.14 3.16 3.62 12.07 7 1.68 14.45.61 2.48-.36 8.22 3.83 9.18 7.83z" fill="#414547"/>
      <path d="M226.38 150.87l-30.13 184.66c-1-4-6.7-8.19-9.17-7.84-7.43 1.08-10.84 11.46-14.46-.61-1.49-5-9.36-6.74-13.13-3.15-2.32 2.2-2.2 5.13-3.48 6.93.75-5.92-1.11-12.25-5.68-16-2-1.66-4.5-2.83-6-5-2.48-3.55-1.37-8.51.76-12.29s5.19-7 6.69-11.11a16.44 16.44 0 00-2.78-15.91c-5.07-6.08-14.53-8.46-17.14-15.93-1.61-4.58 0-9.74 2.79-13.76s6.46-7.23 9.64-10.9a13.7 13.7 0 002.78-4.34 13.21 13.21 0 00.32-5.83 39.75 39.75 0 00-3.62-12.43 9.37 9.37 0 01-1.35-4.39c.16-2.86 3.11-4.71 5.87-5.46s5.8-1 8.07-2.7c4.83-3.7 3.19-11.53 6.32-16.75 2.41-4 7.24-5.84 11.78-7.08a111.94 111.94 0 0116.84-3.22z" fill="#2b2f30"/>
      <path d="M228.93 135.27l-2.55 15.6-35 16.89a112.87 112.87 0 00-16.89 3.24c-4.54 1.24-9.37 3.05-11.78 7.08-3.13 5.22-1.49 13-6.32 16.75-2.27 1.74-5.31 1.95-8.07 2.7s-5.71 2.6-5.87 5.46a9.37 9.37 0 001.35 4.39 39.75 39.75 0 013.62 12.43 13.21 13.21 0 01-.32 5.83 13.7 13.7 0 01-2.78 4.34c-3.18 3.67-6.91 6.89-9.64 10.9s-4.4 9.18-2.79 13.76c2.61 7.47 12.07 9.85 17.14 15.93a16.43 16.43 0 012.75 15.91c-1.5 4.07-4.55 7.34-6.69 11.11s-3.24 8.74-.76 12.29c1.5 2.14 4 3.31 6 5 4.57 3.78 6.43 10.11 5.68 16a3.8 3.8 0 01-2.81 1.55c-12.23 1.63-9-11.13-18-9.86-6 .86-7.78 3.47-10.36 11-4.37-1.53-9.67-8.3-11.12-12.46-3.6-10.33 10.58-19.25 10.11-23.6-.88-8.26-10.87-10.17-9.26-18.33 1.36-6.88 7.22-12.49 8.19-19.42 1.08-7.67-4-14.74-8-21.48s-7.15-15.46-2.53-21.87c3.26-4.53 9.3-6.32 14.24-9.22s9.23-8.84 6.28-13.56c-.77-1.23-2-2.21-2.7-3.47-2.11-3.68.58-8.36 4.3-10.67s8.25-3.08 12.3-4.82a9.16 9.16 0 004.27-3.16c1.46-2.32.8-5.26 0-7.84-1.78-5.69-3.95-12.21-.48-17.16 2.9-4.13 8.82-5.44 14.07-5s10.31 2.13 15.55 2.65 11.17-.48 14.4-4.38a44.62 44.62 0 003.13-5.23 18.47 18.47 0 0131.34.78z" fill="none"/>
      <path d="M261.06 331.62c2.3-2.65 5.61-4.92 9.08-4.38 5.87.91 9.4 9.3 15.24 8.18 2.9-.55 4.73-3.3 6.59-5.58s4.8-4.45 7.53-3.34c1.86.76 2.83 2.77 4.25 4.19 3.49 3.51 8.78 4.39 11.32.15.54-.9 2.58-3.86 3.63-3.79 5.39.31 7.94 7.85 7.94 7.85 3.37-2.11 4.51-4.14 6-7.12s1.88-6.35 2.27-9.65c.67-5.78 3.48-11.69.27-16.54-2.87-4.35-6.4-10.86-9.48-13.63-4.21-3.8-6.33-12.76-5.54-18.38 1.64-11.56 11.09-12.29 14.36-23.49 2.9-10-3-21.67-12.78-25.22-2.94-1.07-6.26-1.54-8.56-3.68-4.29-4-2.61-11-.28-16.39s5-11.76 1.85-16.7c-2.78-4.39-8.7-5.24-13.86-5.9s-11.14-2.19-13.08-7c-3.14-7.81 7.16-16.93 3-24.24-2-3.53-6.67-4.66-10.71-4.23s-7.88 2-11.91 2.56-8.68-.35-11-3.72c-2-2.89-1.81-7.11-4.52-9.33-2.07-1.69-5-.91-7.69-1-11.83-.37-17.42 8-22 16.2l-.54 3.08a10 10 0 007.3 11.55c2.77.62 5.66 0 8.48.24s5.95 1.9 6.26 4.71c.47 4.14-4.92 6.13-7.41 9.47a7.73 7.73 0 006.86 12.34 17.18 17.18 0 005.65-2c3.21-1.51 6.76-2.84 10.25-2.15s6.62 4.18 5.67 7.6-4.94 4.95-6 8.22c-1.2 3.87 2.48 7.64 6.28 9s8.1 1.53 11.56 3.63c4.81 2.9 6.72 8.75 8.47 14.09 3.66 11.19-10.3 21.83-15 16.84 7.74 14.47 14.81 6.8 14.81 6.8L280.13 282l-11.94 23.05-8.74 10z" fill="#414547"/>
      <path d="M369.29 405.85c-71.65 79.94-194.53 86.66-274.47 15q-3-2.67-5.82-5.44c20.37-41.45 76.64-23.94 94.08-38.93 8.34-7.17 16.28-42.77 13.56-53.05-2.87-10.83 46.84-34.33 62.31-21.52 1.49 46.07 4.76 67.4 17.95 74.57 22.15 14.52 72.72.33 92.39 29.37z" fill="#b9bdc1"/>
      <path d="M138.31 398.85c11.39-1.53 19.69-8.15 25.61-15.73-24.13 3.27-59.31 1.38-74.51 32.31q5.1 4.95 10.54 9.53c7.46-14.32 16.31-23.14 38.36-26.11zM244.48 318.6c-4.86 12.77-14.89 28.58-48.23 20.92 1-6.79 1.24-12.75.36-16.07-1.46-5.5 10.63-14.25 24.9-19.87 14.18 4.16 25.14 9.31 22.97 15.02z" style="isolation:isolate" fill="#414547" opacity=".40000001"/>
      <path d="M323.22 443.62a194.6 194.6 0 01-187.35 5.53 102.61 102.61 0 004.49-30.44 102.12 102.12 0 00-5.12-32.39c19.43-3 38.8-2.08 47.81-9.82 4.39-3.77 8.66-15.41 11.33-27.09 9.5 4.11 24.5 5.77 34.75 5.77 13.35 0 22.47-2.49 33.23-7.43 2.56 15.7 6.87 24.6 14.51 28.75 9.87 6.47 25.37 7.25 41.26 8.67a105 105 0 00-2 20.7 100.39 100.39 0 007.09 37.75z" fill="#414547"/>
      <path d="M369.29 405.85c-71.65 79.94-194.53 86.66-274.47 15q-3-2.67-5.82-5.44c20.37-41.45 76.64-23.94 94.08-38.93 8.34-7.17 16.28-42.77 13.56-53.05-2.87-10.83 46.84-34.33 62.31-21.52 1.49 46.07 4.76 67.4 17.95 74.57 22.15 14.52 72.72.33 92.39 29.37z" fill="none" stroke="#202020" stroke-linecap="round" stroke-linejoin="round" stroke-width="3"/>
      <path d="M284.06 217.19c9.7-11 19.37-.6 14.1 23.81s-12.91 15.86-12.91 15.86" fill="#b9bdc1"/>
      <path d="M284.6 252.91s.85 8.75 4.58 4.51a284.94 284.94 0 00-3.18-42.88c-1.6.66-.24.76-1.91 2.65z" style="isolation:isolate" fill="#414547" opacity=".40000001"/>
      <path d="M289.93 225.65a48.15 48.15 0 00-1-4.73c2.26-1.11 3.45.4 4.57 6.22 1.49 7.74-.77 13.64-5.5 15.23 2.35-3.55 3.15-9.51 1.93-16.72z" style="isolation:isolate" fill="#414547" opacity=".40000001"/>
      <path d="M284.77 226.67c5.57-6.87 7.14-9.61 8.79.47s-1.55 17-7.61 15.23l-.45-5.91z" fill="none" stroke="#202020" stroke-linecap="round" stroke-linejoin="round" stroke-width="3"/>
      <path d="M284.06 217.19c9.7-11 19.37-.6 14.1 23.81s-12.91 15.86-12.91 15.86" fill="none" stroke="#202020" stroke-linecap="round" stroke-linejoin="round" stroke-width="3"/>
      <path d="M230.09 148.89c-7-.09-21.07.73-27.18 2-10.26 2-19 9.4-25.23 17.27C161 189 155.6 218.18 157 244.09a130 130 0 002.63 20.23c3.61 17.07 11.48 33.82 23.36 46.88 16.71 18.37 39.74 26.83 62.56 14.56 18.76-10.09 30.94-28.29 36.76-48.1a119.9 119.9 0 003.79-18.38c3.72-28.74 2.21-68.26-16.34-92.3-9.59-12.38-24.38-17.9-39.67-18.09z" fill="#b9bdc1"/>
      <path d="M202.17 150.85a136.38 136.38 0 0116-1.64c-7.06 2-13.64 6.12-19.08 10.72-20.59 17.41-31.87 45.28-35.86 71.3a134.56 134.56 0 00-1.57 20.64 105.39 105.39 0 009.87 44.87 105.68 105.68 0 01-12.65-32.41 130.21 130.21 0 01-2.62-20.24c-1.35-25.9 4.08-55.05 20.72-76 6.22-7.85 14.93-15.2 25.19-17.24z" style="isolation:isolate" fill="#414547" opacity=".40000001"/>
      <path d="M156.1 222.17C145.6 212 136.73 223 143.83 247s14.06 14.84 14.06 14.84" fill="#8a8f93"/>
      <path d="M158.24 257.83s-.19 8.79-4.22 4.84a285.74 285.74 0 010-43c1.64.54.29.74 2.1 2.5z" style="isolation:isolate" fill="#414547" opacity=".40000001"/>
      <path d="M150.88 231.05c.18-2 .39-3.52.63-4.79-2.34-.94-3.41.66-4.09 6.55-.9 7.82 1.79 13.54 6.63 14.77-2.6-3.36-3.84-9.25-3.17-16.53z" style="isolation:isolate" fill="#414547" opacity=".40000001"/>
      <path d="M156.1 231.68c-6.06-6.43-7.84-9.05-8.72 1.13s2.81 16.83 8.72 14.61z" fill="none" stroke="#202020" stroke-linecap="round" stroke-linejoin="round" stroke-width="3"/>
      <path d="M156.1 222.17C145.6 212 136.73 223 143.83 247s14.06 14.84 14.06 14.84" fill="none" stroke="#202020" stroke-linecap="round" stroke-linejoin="round" stroke-width="3"/>
      <path d="M206 229.3c-6.81-5.32-16.62-11.48-25.93 0 0 0 3 3.82 11.8 3.49S206 229.3 206 229.3z" fill="#fff"/>
      <path d="M214.85 308.62c5.16-1.49 12.61-3.32 19.79 0 0 0-2.48-7.26-6-7s-3.6.9-8 0c-3.41-.69-5.79 7-5.79 7zM211.69 247.85c2.66-17.39 6.53-40.7-11-47.16s-20.56 11.23-15.24 14.36c3.8 2.23 8.24-.68 13.11 1.46a10.48 10.48 0 012.84 1.86 19.14 19.14 0 013.21 3.8c8.79 13.34-5.56 16.46 7.08 25.68z" style="isolation:isolate" fill="#414547" opacity=".40000001"/>
      <circle cx="192.16" cy="228.24" r="4.44" fill="#414547"/>
      <path d="M237.44 262.07c0 3.86-5.32 7-11.88 7s-13.87-3.12-13.87-7c0-2.19 2.29-4.06 5.18-2.54 2.2 1.16 4.6 5.62 7.43 5.62 3 0 6.95-5 9.34-6.17 2.78-1.42 3.8 1.02 3.8 3.09z" fill="#8a8f93"/>
      <path d="M211 261.37c6.65-7.8 6.59 3.73 13.3 3.78 7 0 7.49-11.74 13.14-4.76M206 229.3c-6.81-5.32-16.62-11.48-25.93 0 0 0 3 3.82 11.8 3.49S206 229.3 206 229.3zM176.75 222.8c3.33-7.88 23.94-15 29.26 6.5" fill="none" stroke="#202020" stroke-linecap="round" stroke-linejoin="round" stroke-width="3"/>
      <circle cx="192.16" cy="228.24" r="4.44" fill="none" stroke="#202020" stroke-linecap="round" stroke-linejoin="round" stroke-width="3"/>
      <path d="M286.62 250.1l-1.37 11.56s-9-1.25-9-10.73 10.37-.83 10.37-.83z" style="isolation:isolate" fill="#414547" opacity=".40000001"/>
      <path d="M244.48 287.11c-2.88 11.08-11.69 14.82-19.34 14.82-19.35 0-20.56-14.82-20.56-14.82l14.07-3.11c3.33 3.83 8.32 3.11 10.09 0z" fill="#8a8f93"/>
      <path d="M204.57 287.1l14.08-3.1c3.33 3.82 8.31 3.1 10.09 0l15.74 3.1c-2.88 11.09-11.69 14.83-19.35 14.83-19.34 0-20.56-14.83-20.56-14.83a41.61 41.61 0 0019.73 6c5.91.22 16.58-1.86 20.18-6" fill="none" stroke="#202020" stroke-linecap="round" stroke-linejoin="round" stroke-width="3"/>
      <path d="M229.35 148.89c-7-.09-21.07.73-27.18 2-10.26 2-19 9.4-25.23 17.27-16.65 20.92-22.08 50.07-20.73 76a131.16 131.16 0 002.63 20.23c3.61 17.07 11.48 33.82 23.37 46.88 16.7 18.37 39.73 26.83 62.55 14.56 18.77-10.09 30.94-28.29 36.76-48.1a118.72 118.72 0 003.79-18.38C289 230.54 287.52 191 269 167c-9.57-12.4-24.36-17.92-39.65-18.11zM211 209.53c-3.79-8.89-23.31-16-34.92-8" fill="none" stroke="#202020" stroke-linecap="round" stroke-linejoin="round" stroke-width="3"/>
      <path d="M238.85 229.39c6.42-5.8 15.76-12.65 25.87-1.88 0 0-2.71 4-11.52 4.34s-14.35-2.46-14.35-2.46z" fill="#fff"/>
      <path d="M233 247c-1.83-17.5-4.22-37.2 6.54-42.93 7.23-3.85 11.58 8.09 4.72 14-3.58 3-1.78 2.09-2.94 3.67-9.43 12.89 1.45 18.11-8.32 25.26z" style="isolation:isolate" fill="#414547" opacity=".40000001"/>
      <circle cx="253.35" cy="227.3" r="4.44" fill="#414547"/>
      <path d="M239.16 230c6.14-6.09 15.15-13.36 25.76-3.07 0 0-2.52 4.15-11.31 4.86S239.16 230 239.16 230zM267.45 220.12c-4.23-7.43-25.54-12-28.29 9.92" fill="none" stroke="#202020" stroke-linecap="round" stroke-linejoin="round" stroke-width="3"/>
      <circle cx="253.35" cy="227.3" r="4.44" fill="none" stroke="#202020" stroke-linecap="round" stroke-linejoin="round" stroke-width="3"/>
      <path d="M235.52 208.79c4.21-8.69 24-14.83 35.27-6.31" fill="none" stroke="#202020" stroke-linecap="round" stroke-linejoin="round" stroke-width="3"/>
      <circle cx="190.24" cy="226.5" r="1.3" fill="#fff"/>
      <circle cx="251.79" cy="225.2" r="1.3" fill="#fff"/>
      <path d="M305.47 227.3c-.35-3.11-3.53-10.63-5.82-12.76-4.29-4-8-5.38-5.66-10.74s1-3.08-2.14-8c-2.78-4.39 7.28-6.88 2.12-7.54s-11-8.47-12.89-13.3c-3.14-7.81-2-9.54-6.21-16.84-2-3.53 0-.43-4.08 0s.69 2.13-3.34 2.65-4.33-6.88-6.61-10.25c-2-2.89-5-4.38-7.69-6.59-2.07-1.7-5.78-.56-8.4 0-9.19 1.93-17.2-4.69-21.78 3.51l-.54 3.08a10 10 0 007.3 11.55c2.77.62 5.66 0 8.48.24s5.95 1.9 6.26 4.71c.47 4.14-4.92 6.13-7.41 9.47a7.73 7.73 0 006.86 12.34 17.18 17.18 0 005.65-2c3.21-1.51 6.76-2.84 10.25-2.15s6.62 4.18 5.67 7.6-4.94 4.95-6 8.22c-1.2 3.87 2.3 8.31 6.28 9 18.25 3.27 19.56 11 20 17.72.78 11.3-10.3 21.83-15 16.84 7.74 14.47 23.18 5.58 23.18 5.58s13.74-2.64 11.52-22.34z" fill="#414547"/>
      <path d="M334.88 318.13a64.73 64.73 0 01-4.1 10.87 59.91 59.91 0 00.61-15.88c-.54-5.66-2-11.49-5.85-15.7-2-2.24-4.64-3.9-6.88-5.94a26.78 26.78 0 01-7-28.05c1.69-4.76 4.71-8.92 6.72-13.55s2.9-10.24.3-14.56c-2.45-4.07-7.25-5.93-11.53-8s-8.77-5.25-9.29-10c-.47-4.29 2.52-8.08 4.88-11.69s4.18-8.57 1.59-12-7.66-3.11-11.86-4C281.71 187.49 275 174 279.61 164.1c1.15-2.44 2.84-4.65 3.47-7.26s-.3-5.93-2.86-6.75a6.71 6.71 0 00-4.57.63c-6.9 2.9-14.06 8.53-21 5.69-5.67-2.33-7.72-9.1-9.63-14.92-1.21-3.67-3.14-7.63-5.93-10.11.74-.18 1.53-.36 2.35-.53 2.62-.55 9.13-.32 11.2 1.38 2.71 2.21 2.56 6.43 4.52 9.33 2.28 3.37 6.93 4.24 11 3.71s7.87-2.13 11.91-2.56 8.7.71 10.72 4.24c4.18 7.3-6.12 16.42-3 24.24 1.94 4.82 7.91 6.36 13.07 7s11.08 1.5 13.87 5.9c3.13 4.94.48 11.33-1.85 16.69s-4 12.42.27 16.4c2.3 2.13 5.62 2.61 8.57 3.68 9.74 3.55 15.67 15.25 12.77 25.21-3.27 11.21-12.72 11.94-14.35 23.49-.8 5.62 1.32 14.58 5.54 18.38 3.08 2.8 13.93 10.27 9.2 30.19z" fill="#6d6f70"/>
      <path d="M222.43 150.5a10 10 0 007.3 11.55c2.77.62 5.66 0 8.48.24s5.95 1.9 6.26 4.71c.47 4.14-4.92 6.13-7.41 9.47a7.73 7.73 0 006.86 12.34 17.18 17.18 0 005.65-2c3.21-1.51 6.76-2.84 10.25-2.15s6.62 4.18 5.67 7.6-4.94 5-6 8.22c-1.2 3.87 2.31 8.23 6.28 9 16.38 3.27 19 10.12 20 17.72 1.64 11.66-10.3 21.83-15 16.84 9.85 14.47 19.77 11.08 28.86 1.25s4.71-24.84 4.71-24.84" fill="none" stroke="#202020" stroke-linecap="round" stroke-linejoin="round" stroke-width="3"/>
      <path d="M222.43 150.5c5.56-15.63 9.83-17.71 19-19.65 2.62-.55 9.14-.32 11.21 1.37 2.71 2.22 2.56 6.44 4.52 9.33 2.28 3.37 6.93 4.25 11 3.72s7.87-2.14 11.91-2.56 8.69.7 10.71 4.23c4.18 7.31-6.12 16.43-3 24.24 1.94 4.83 7.92 6.36 13.08 7s11.08 1.51 13.86 5.9c3.13 4.94.49 11.34-1.85 16.7s-4 12.42.28 16.39c2.3 2.14 5.62 2.61 8.56 3.68 9.75 3.55 15.68 15.26 12.78 25.22-3.27 11.2-12.72 11.93-14.36 23.49-.79 5.62 1.33 14.58 5.54 18.38 3.08 2.77 13.94 10.24 9.21 30.17-.77 3.23-4.87 14.66-8.24 16.77 0 0-4.66-13.64-11.57-4.06a6.77 6.77 0 01-11.32-.15c-5-7.66-9.91-3.13-11.78-.85s-3.69 5-6.59 5.58c-5.84 1.12-9.37-7.27-15.24-8.18-3.47-.54-6.78 1.73-9.08 4.38" fill="none" stroke="#202020" stroke-linecap="round" stroke-linejoin="round" stroke-width="3"/>
      <path d="M228.93 135.27a18.46 18.46 0 00-31.34-.78 45.91 45.91 0 01-3.13 5.22c-3.24 3.91-9.16 4.91-14.4 4.39s-10.3-2.26-15.55-2.65-11.17.92-14.07 5.05c-3.48 4.94-1.3 11.47.48 17.15.81 2.59 1.47 5.53 0 7.85a9.1 9.1 0 01-4.28 3.15c-4 1.74-8.58 2.53-12.29 4.83s-6.41 7-4.3 10.66c.73 1.27 1.92 2.24 2.7 3.48 3 4.71-1.35 10.65-6.29 13.55s-11 4.7-14.24 9.23c-4.61 6.41-1.51 15.12 2.53 21.86s9.11 13.81 8 21.48c-1 6.94-6.84 12.55-8.19 19.43-1.62 8.16 8.38 10.07 9.26 18.33.47 4.35-13.72 13.27-10.11 23.59 1.45 4.16 6.75 10.93 11.11 12.47 2.59-7.54 4.38-10.16 10.37-11 8.91-1.27 5.73 11.49 18 9.85 4.66-.62 3-5.31 6.28-8.48 3.77-3.58 11.65-1.8 13.14 3.16 3.62 12.07 7 1.68 14.45.61 2.48-.36 8.22 3.83 9.18 7.83" fill="none" stroke="#202020" stroke-linecap="round" stroke-linejoin="round" stroke-width="3"/>
      <ellipse cx="177.73" cy="244.68" rx="5.08" ry="6.83" transform="rotate(-60.11 177.74350129 244.68445025)" style="isolation:isolate" fill="#f2f3f4" opacity=".52999997"/>
      <ellipse cx="220.62" cy="315.02" rx="3.48" ry="2.59" transform="rotate(-2.52 220.50755132 315.07478)" style="isolation:isolate" fill="#f2f3f4" opacity=".52999997"/>
      <path d="M223.93 252.4a11 11 0 014.94.88v-.43c-.09-1.92-2.26-3.39-4.84-3.27s-4.62 1.76-4.53 3.68a.67.67 0 000 .2 11.34 11.34 0 014.43-1.06z" style="isolation:isolate" fill="#f2f3f4" opacity=".52999997"/>
      <path d="M353 115.8zm-21-9.87a6.35 6.35 0 00-2.74.62 6.88 6.88 0 00-3.55 3.61 6.39 6.39 0 00.17 5c1 2.34 5.33 7.09 12.82 14.13 7.49-7 11.8-11.79 12.82-14.13a6.43 6.43 0 00.17-5 6.9 6.9 0 00-3.56-3.61 6.36 6.36 0 00-4.52-.36c-1.86.54-3.76 2.49-4.75 5a.19.19 0 01-.24.12.18.18 0 01-.12-.12c-1-2.56-2.88-4.51-4.74-5a6.52 6.52 0 00-1.76-.26z" fill="#414547"/>
      <path d="M338.89 158.47a3.22 3.22 0 01-2.27-.94l-7.68-7.68a2.58 2.58 0 00-1.82-.75h-16a4.5 4.5 0 01-4.49-4.5V89.11a4.5 4.5 0 014.49-4.49h55.49a4.5 4.5 0 014.5 4.49v55.49a4.52 4.52 0 01-4.5 4.5h-16a2.58 2.58 0 00-1.82.75l-7.68 7.68a3.2 3.2 0 01-2.22.94z" fill="none" stroke="#202020" stroke-linecap="round" stroke-linejoin="round" stroke-width="3"/>
      <path d="M237.89 75.11a38.45 38.45 0 01-38.07-53.37A38.44 38.44 0 10255 69.7a38.16 38.16 0 01-17.11 5.41z" fill="#fff"/>
      <path d="M254.6 70.69a38.43 38.43 0 01-73-10.89c6.94 15.68 24 26.12 43.24 24.77a45.25 45.25 0 0029.76-13.88z" style="isolation:isolate" fill="#414547" opacity=".20999999"/>
      <circle cx="222.87" cy="3.67" r="2.17" fill="none" stroke="#202020" stroke-linecap="round" stroke-linejoin="round" stroke-width="3"/>
      <circle cx="235.95" cy="26.38" r="4.64" fill="none" stroke="#202020" stroke-linecap="round" stroke-linejoin="round" stroke-width="3"/>
      <path d="M237.89 75.11a38.45 38.45 0 01-38.07-53.37A38.44 38.44 0 10255 69.7a38.16 38.16 0 01-17.11 5.41z" fill="none" stroke="#202020" stroke-linecap="round" stroke-linejoin="round" stroke-width="3"/>
    </g>
  </g>
</svg>