<svg data-name="Layer 1" xmlns="http://www.w3.org/2000/svg" viewBox="0 0 483.58 390.36">
  <g data-name="Layer 2">
    <g data-name="Layer 3">
      <ellipse cx="116.5" cy="109.69" rx="41.16" ry="87.61" fill="none" stroke="#202020" stroke-linecap="round" stroke-linejoin="round" stroke-width="3"/>
      <path fill="#d6d7d8" d="M160.5 93.91l-9.64 5V88.26l9.64-5v10.65z"/>
      <path fill="none" stroke="#202020" stroke-linecap="round" stroke-linejoin="round" stroke-width="3" d="M160.5 93.91l-9.64 5V88.26l9.64-5v10.65z"/>
      <path fill="#d6d7d8" d="M80.96 129.75l-9.64 5v-10.64l9.64-5v10.64z"/>
      <path fill="none" stroke="#202020" stroke-linecap="round" stroke-linejoin="round" stroke-width="3" d="M80.96 129.75l-9.64 5v-10.64l9.64-5v10.64zM64.94 48.76l76.98-45.2"/>
      <path fill="#d6d7d8" d="M112.45 27.4l-9.64 5V21.75l9.64-5V27.4z"/>
      <path fill="none" stroke="#202020" stroke-linecap="round" stroke-linejoin="round" stroke-width="3" d="M112.45 27.4l-9.64 5V21.75l9.64-5V27.4z"/>
      <ellipse cx="143.46" cy="3.08" rx="2.53" ry="3.08" transform="rotate(-5.21 143.46058182 3.11319552)" fill="#202020"/>
      <ellipse cx="64.94" cy="48.76" rx="2.53" ry="3.08" transform="rotate(-5.21 64.84722341 48.76211813)" fill="#202020"/>
      <path d="M218.19 272.56V94.93A28.34 28.34 0 01232 70.62l84-50.31A12.51 12.51 0 01335 31v265.51a28.31 28.31 0 01-14.29 24.6l-83.78 47.81a12.5 12.5 0 01-18.7-10.85v-28.7" fill="#f2f3f4"/>
      <path d="M335 31v265.51a28.32 28.32 0 01-14.28 24.6l-83.78 47.82a12.51 12.51 0 01-17.06-4.73 12.06 12.06 0 01-.94-2.07 12.24 12.24 0 006.52-1.65l89-50.83a17.87 17.87 0 009-15.52V22.59a12.47 12.47 0 00-.66-4.06A12.51 12.51 0 01335 31z" fill="#fff"/>
      <path d="M325 18.52l-.08.25a12.29 12.29 0 00-8.92 1.54l-84 50.32a28.28 28.28 0 00-13.78 24.3v263.14a12.36 12.36 0 004.72 9.78l-28.41-20.1s-4.55-2.32-3.42-10V76c0-10 5-16.08 13.59-21.19l74-47.31a22.28 22.28 0 0120.93-1z" fill="#d6d7d8"/>
      <path d="M218.19 272.56V94.93A28.34 28.34 0 01232 70.62l84-50.31A12.51 12.51 0 01335 31v265.51a28.31 28.31 0 01-14.29 24.6l-83.78 47.81a12.5 12.5 0 01-18.7-10.85v-28.7" fill="none" stroke="#202020" stroke-linecap="round" stroke-linejoin="round" stroke-width="3"/>
      <path d="M232 70.63a28.28 28.28 0 00-13.78 24.3v263.14a12.36 12.36 0 004.72 9.78l-28.41-20.1s-4.55-2.32-3.42-10V76c0-10 5-16.08 13.59-21.19z" fill="#b9bdc1"/>
      <path d="M218.19 202.41v155.66a12.36 12.36 0 004.72 9.78l-28.41-20.1s-4.55-2.32-3.42-10V182.81z" fill="#8a8f93"/>
      <path d="M223.92 368.57l-29.42-20.82s-4.55-2.32-3.43-10" fill="none" stroke="#202020" stroke-linecap="round" stroke-linejoin="round" stroke-width="3"/>
      <path d="M218.19 280.56V94.93A28.34 28.34 0 01232 70.62l84-50.31A12.51 12.51 0 01335 31v265.51a28.31 28.31 0 01-14.29 24.6l-83.78 47.81a12.5 12.5 0 01-18.7-10.85v-28.7" fill="none" stroke="#202020" stroke-linecap="round" stroke-linejoin="round" stroke-width="3"/>
      <ellipse cx="296.45" cy="53.67" rx="1.78" ry="2.16" transform="rotate(-19.95 296.42441765 53.65830488)" fill="#202020"/>
      <path fill="none" stroke="#202020" stroke-linecap="round" stroke-linejoin="round" stroke-width="3" d="M289.4 57.68l-16.19 9.3"/>
      <path d="M1.5 367.2l112-63.06s-10-76.65-42.71-56.62c-23.74 14.48-5.18 55.34-39.43 72.57C11.27 330.2 3.23 341.26 1.5 367.2z" fill="#fff"/>
      <path d="M113.5 304.15l-50.39 28.37c2.83-23.89 12-35 32.26-45.23a44.4 44.4 0 0012.45-9.08 182.65 182.65 0 015.68 25.94z" fill="#f2f3f4"/>
      <path d="M113.5 304.15l-50.39 28.37c2.83-23.89 12-35 32.26-45.23a44.4 44.4 0 0012.45-9.08 182.65 182.65 0 015.68 25.94z" fill="#e3e4e5"/>
      <path d="M1.5 367.2l112-63.06s-10-76.65-42.71-56.62c-23.74 14.48-5.18 55.34-39.43 72.57C11.27 330.2 3.23 341.26 1.5 367.2z" fill="none" stroke="#202020" stroke-linecap="round" stroke-linejoin="round" stroke-width="3"/>
      <path d="M71.82 339.15l112-63s-7-64.65-39.72-44.63c-23.72 14.51-8.17 43.34-42.42 60.58-20.1 10.05-28.13 21.12-29.86 47.05z" fill="#fff"/>
      <path d="M71.82 339.15l112-63s-7-64.65-39.72-44.63c-23.72 14.51-8.17 43.34-42.42 60.58-20.1 10.05-28.13 21.12-29.86 47.05zM223.92 368.57l-29.42-20.82s-4.55-2.32-3.43-10" fill="none" stroke="#202020" stroke-linecap="round" stroke-linejoin="round" stroke-width="3"/>
      <ellipse cx="296.45" cy="53.69" rx="1.78" ry="2.16" transform="rotate(-5.21 296.43523702 53.68237528)" fill="#202020"/>
      <path fill="none" stroke="#202020" stroke-linecap="round" stroke-linejoin="round" stroke-width="3" d="M289.4 57.68l-16.19 9.3"/>
      <path d="M252.52 160.62l.06-13.24a11 11 0 00-5-9.27c-7.3-4.68-16.88.26-16.88 10v25.45z" fill="#b9bdc1"/>
      <path fill="none" d="M191.08 338.56V76.84"/>
      <path d="M191.08 340v-85.53l-.18-175.34a28.33 28.33 0 0113.77-24.3l74.05-46.5a22.2 22.2 0 0120.93-1l24.51 11.2" fill="none" stroke="#202020" stroke-linecap="round" stroke-linejoin="round" stroke-width="3"/>
      <path fill="#d6d7d8" d="M252.15 160.62l-25.81 15.96L242.38 193l10.02-5.75-.25-26.63z"/>
      <path fill="#6d6f70" d="M110.06 134.49v238.79l25.6 15.58V179.67l129.46 74.2L290.68 239 110.06 134.49z"/>
      <path fill="#414547" d="M135.62 388.86L341.8 270.5l.81-29.96L162.14 344.2l.12-149.29-26.6-15.24-.04 209.19z"/>
      <path fill="#d6d7d8" d="M342.61 240.57l-112.36-65.65-93.82-54.81-26.37 14.38L290.68 239l-128.52 75.46-.02 29.74 180.47-103.63z"/>
      <path fill="none" stroke="#202020" stroke-linecap="round" stroke-linejoin="round" stroke-width="3" d="M110.06 134.49v238.79l25.6 15.58V179.67l129.46 74.2L290.68 239 110.06 134.49z"/>
      <path fill="none" stroke="#202020" stroke-linecap="round" stroke-linejoin="round" stroke-width="3" d="M252.4 187.86l90.21 52.71L162.14 344.2l.02-29.74L290.68 239 110.06 134.49l26.37-14.38 93.82 54.81 22.24-13.59"/>
      <path fill="none" stroke="#202020" stroke-linecap="round" stroke-linejoin="round" stroke-width="3" d="M135.62 388.86L341.8 270.5l.81-29.96L162.14 344.2l.12-149.29-26.6-15.24-.04 209.19zM252.4 187.7l.18-40.32a11 11 0 00-5-9.27h0c-7.3-4.68-16.88.26-16.88 10v25.45M190.9 136.19l27.29 15.95M190.9 118.95l27.29 15.95M190.9 101.72l27.29 15.95M190.9 84.48l27.29 15.95"/>
      <path d="M299.77 182l112-63.06S401.78 42.3 369 62.33c-23.72 14.51-5.17 55.34-39.42 72.57-20.05 10.1-28.08 21.17-29.81 47.1z" fill="#fff"/>
      <path d="M411.76 119l-50.39 28.37c2.83-23.89 11.95-35 32.26-45.23A44.27 44.27 0 00406.08 93a183.45 183.45 0 015.68 26z" fill="#f2f3f4"/>
      <path d="M411.76 119l-50.39 28.37c2.83-23.89 11.95-35 32.26-45.23A44.27 44.27 0 00406.08 93a183.45 183.45 0 015.68 26z" fill="#e3e4e5"/>
      <path d="M299.77 182l112-63.06S401.78 42.3 369 62.33c-23.72 14.51-5.17 55.34-39.42 72.57-20.05 10.1-28.08 21.17-29.81 47.1z" fill="none" stroke="#202020" stroke-linecap="round" stroke-linejoin="round" stroke-width="3"/>
      <path d="M370.08 154l112-63.06s-7-64.65-39.72-44.63c-23.73 14.52-8.17 43.34-42.42 60.58C379.85 117 371.82 128 370.08 154z" fill="#fff"/>
      <path d="M370.08 154l112-63.06s-7-64.65-39.72-44.63c-23.73 14.52-8.17 43.34-42.42 60.58C379.85 117 371.82 128 370.08 154z" fill="none" stroke="#202020" stroke-linecap="round" stroke-linejoin="round" stroke-width="3"/>
      <path fill="#414547" fill-rule="evenodd" d="M419.04 196.53l20.71-27.44-34.26 2.79L417 181.6l2.04 14.93z"/>
      <path fill="#6d6f70" fill-rule="evenodd" d="M419.04 196.53l20.71-27.44L417 181.6l2.04 14.93z"/>
      <path fill="none" stroke="#202020" stroke-linecap="round" stroke-linejoin="round" stroke-width="3" d="M419.04 196.53l20.71-27.44-34.26 2.79L417 181.6l2.04 14.93z"/>
      <path fill="#414547" fill-rule="evenodd" d="M430.17 135.22l20.71-27.44-34.26 2.79 11.51 9.72 2.04 14.93z"/>
      <path fill="#6d6f70" fill-rule="evenodd" d="M430.17 135.22l20.71-27.44-22.75 12.51 2.04 14.93z"/>
      <path fill="none" stroke="#202020" stroke-linecap="round" stroke-linejoin="round" stroke-width="3" d="M430.17 135.22l20.71-27.44-34.26 2.79 11.51 9.72 2.04 14.93z"/>
      <path fill="#414547" fill-rule="evenodd" d="M374.92 195.22l20.72-27.43-34.26 2.79 11.51 9.72 2.03 14.92z"/>
      <path fill="#6d6f70" fill-rule="evenodd" d="M374.92 195.22l20.72-27.43-22.75 12.51 2.03 14.92z"/>
      <path fill="none" stroke="#202020" stroke-linecap="round" stroke-linejoin="round" stroke-width="3" d="M374.92 195.22l20.72-27.43-34.26 2.79 11.51 9.72 2.03 14.92z"/>
      <ellipse cx="275.42" cy="104.23" rx="6.13" ry="4.1" transform="rotate(-83.41 275.4150611 104.2260308)" fill="#d6d7d8"/>
      <ellipse cx="275.42" cy="104.23" rx="6.13" ry="4.1" transform="rotate(-83.41 275.4150611 104.2260308)" fill="none" stroke="#202020" stroke-linecap="round" stroke-linejoin="round" stroke-width="3.00000002"/>
      <path fill="#d6d7d8" d="M297.64 117.28l3.42-10.64 5.96 5.65-3.94 10.66-5.44-5.67z"/>
      <path fill="none" stroke="#202020" stroke-linecap="round" stroke-linejoin="round" stroke-width="3" d="M297.19 116.81l3.95-10.17 5.88 6.14-3.94 10.17-5.89-6.14zM289.54 135.22l-11.2 6.43M283.94 131.46v13.96"/>
      <ellipse cx="116.5" cy="109.69" rx="41.16" ry="87.61" fill="none" stroke="#202020" stroke-linecap="round" stroke-linejoin="round" stroke-width="3"/>
      <path fill="#d6d7d8" d="M160.5 93.91l-9.64 5V88.26l9.64-5v10.65z"/>
      <path fill="none" stroke="#202020" stroke-linecap="round" stroke-linejoin="round" stroke-width="3" d="M160.5 93.91l-9.64 5V88.26l9.64-5v10.65z"/>
      <path fill="#d6d7d8" d="M80.96 129.75l-9.64 5v-10.64l9.64-5v10.64z"/>
      <path fill="none" stroke="#202020" stroke-linecap="round" stroke-linejoin="round" stroke-width="3" d="M80.96 129.75l-9.64 5v-10.64l9.64-5v10.64zM64.94 48.76l76.98-45.2"/>
      <path fill="#d6d7d8" d="M112.45 27.4l-9.64 5V21.75l9.64-5V27.4z"/>
      <path fill="none" stroke="#202020" stroke-linecap="round" stroke-linejoin="round" stroke-width="3" d="M112.45 27.4l-9.64 5V21.75l9.64-5V27.4z"/>
      <ellipse cx="143.46" cy="3.08" rx="2.53" ry="3.08" transform="rotate(-5.21 143.46058182 3.11319552)" fill="#202020"/>
      <ellipse cx="64.94" cy="48.76" rx="2.53" ry="3.08" transform="rotate(-5.21 64.84722341 48.76211813)" fill="#202020"/>
      <path d="M218.19 272.56V94.93A28.34 28.34 0 01232 70.62l84-50.31A12.51 12.51 0 01335 31v265.51a28.31 28.31 0 01-14.29 24.6l-83.78 47.81a12.5 12.5 0 01-18.7-10.85v-28.7" fill="#f2f3f4"/>
      <path d="M335 31v265.51a28.32 28.32 0 01-14.28 24.6l-83.78 47.82a12.51 12.51 0 01-17.06-4.73 12.06 12.06 0 01-.94-2.07 12.24 12.24 0 006.52-1.65l89-50.83a17.87 17.87 0 009-15.52V22.59a12.47 12.47 0 00-.66-4.06A12.51 12.51 0 01335 31z" fill="#fff"/>
      <path d="M325 18.52l-.08.25a12.29 12.29 0 00-8.92 1.54l-84 50.32a28.28 28.28 0 00-13.78 24.3v263.14a12.36 12.36 0 004.72 9.78l-28.41-20.1s-4.55-2.32-3.42-10V76c0-10 5-16.08 13.59-21.19l74-47.31a22.28 22.28 0 0120.93-1z" fill="#d6d7d8"/>
      <path d="M218.19 272.56V94.93A28.34 28.34 0 01232 70.62l84-50.31A12.51 12.51 0 01335 31v265.51a28.31 28.31 0 01-14.29 24.6l-83.78 47.81a12.5 12.5 0 01-18.7-10.85v-28.7" fill="none" stroke="#202020" stroke-linecap="round" stroke-linejoin="round" stroke-width="3"/>
      <path d="M232 70.63a28.28 28.28 0 00-13.78 24.3v263.14a12.36 12.36 0 004.72 9.78l-28.41-20.1s-4.55-2.32-3.42-10V76c0-10 5-16.08 13.59-21.19z" fill="#b9bdc1"/>
      <path d="M218.19 202.41v155.66a12.36 12.36 0 004.72 9.78l-28.41-20.1s-4.55-2.32-3.42-10V182.81z" fill="#8a8f93"/>
      <path d="M223.92 368.57l-29.42-20.82s-4.55-2.32-3.43-10" fill="none" stroke="#202020" stroke-linecap="round" stroke-linejoin="round" stroke-width="3"/>
      <path d="M218.19 280.56V94.93A28.34 28.34 0 01232 70.62l84-50.31A12.51 12.51 0 01335 31v265.51a28.31 28.31 0 01-14.29 24.6l-83.78 47.81a12.5 12.5 0 01-18.7-10.85v-28.7" fill="none" stroke="#202020" stroke-linecap="round" stroke-linejoin="round" stroke-width="3"/>
      <ellipse cx="296.45" cy="53.67" rx="1.78" ry="2.16" transform="rotate(-19.95 296.42441765 53.65830488)" fill="#202020"/>
      <path fill="none" stroke="#202020" stroke-linecap="round" stroke-linejoin="round" stroke-width="3" d="M289.4 57.68l-16.19 9.3"/>
      <path d="M1.5 367.2l112-63.06s-10-76.65-42.71-56.62c-23.74 14.48-5.18 55.34-39.43 72.57C11.27 330.2 3.23 341.26 1.5 367.2z" fill="#fff"/>
      <path d="M113.5 304.15l-50.39 28.37c2.83-23.89 12-35 32.26-45.23a44.4 44.4 0 0012.45-9.08 182.65 182.65 0 015.68 25.94z" fill="#f2f3f4"/>
      <path d="M113.5 304.15l-50.39 28.37c2.83-23.89 12-35 32.26-45.23a44.4 44.4 0 0012.45-9.08 182.65 182.65 0 015.68 25.94z" fill="#e3e4e5"/>
      <path d="M1.5 367.2l112-63.06s-10-76.65-42.71-56.62c-23.74 14.48-5.18 55.34-39.43 72.57C11.27 330.2 3.23 341.26 1.5 367.2z" fill="none" stroke="#202020" stroke-linecap="round" stroke-linejoin="round" stroke-width="3"/>
      <path d="M71.82 339.15l112-63s-7-64.65-39.72-44.63c-23.72 14.51-8.17 43.34-42.42 60.58-20.1 10.05-28.13 21.12-29.86 47.05z" fill="#fff"/>
      <path d="M71.82 339.15l112-63s-7-64.65-39.72-44.63c-23.72 14.51-8.17 43.34-42.42 60.58-20.1 10.05-28.13 21.12-29.86 47.05zM223.92 368.57l-29.42-20.82s-4.55-2.32-3.43-10" fill="none" stroke="#202020" stroke-linecap="round" stroke-linejoin="round" stroke-width="3"/>
      <ellipse cx="296.45" cy="53.69" rx="1.78" ry="2.16" transform="rotate(-5.21 296.43523702 53.68237528)" fill="#202020"/>
      <path fill="none" stroke="#202020" stroke-linecap="round" stroke-linejoin="round" stroke-width="3" d="M289.4 57.68l-16.19 9.3"/>
      <path d="M252.52 160.62l.06-13.24a11 11 0 00-5-9.27c-7.3-4.68-16.88.26-16.88 10v25.45z" fill="#b9bdc1"/>
      <path fill="none" d="M191.08 338.56V76.84"/>
      <path d="M191.08 340v-85.53l-.18-175.34a28.33 28.33 0 0113.77-24.3l74.05-46.5a22.2 22.2 0 0120.93-1l24.51 11.2" fill="none" stroke="#202020" stroke-linecap="round" stroke-linejoin="round" stroke-width="3"/>
      <path fill="#d6d7d8" d="M252.15 160.62l-25.81 15.96L242.38 193l10.02-5.75-.25-26.63z"/>
      <path fill="#6d6f70" d="M110.06 134.49v238.79l25.6 15.58V179.67l129.46 74.2L290.68 239 110.06 134.49z"/>
      <path fill="#414547" d="M135.62 388.86L341.8 270.5l.81-29.96L162.14 344.2l.12-149.29-26.6-15.24-.04 209.19z"/>
      <path fill="#d6d7d8" d="M342.61 240.57l-112.36-65.65-93.82-54.81-26.37 14.38L290.68 239l-128.52 75.46-.02 29.74 180.47-103.63z"/>
      <path fill="none" stroke="#202020" stroke-linecap="round" stroke-linejoin="round" stroke-width="3" d="M110.06 134.49v238.79l25.6 15.58V179.67l129.46 74.2L290.68 239 110.06 134.49z"/>
      <path fill="none" stroke="#202020" stroke-linecap="round" stroke-linejoin="round" stroke-width="3" d="M252.4 187.86l90.21 52.71L162.14 344.2l.02-29.74L290.68 239 110.06 134.49l26.37-14.38 93.82 54.81 22.24-13.59"/>
      <path fill="none" stroke="#202020" stroke-linecap="round" stroke-linejoin="round" stroke-width="3" d="M135.62 388.86L341.8 270.5l.81-29.96L162.14 344.2l.12-149.29-26.6-15.24-.04 209.19zM252.4 187.7l.18-40.32a11 11 0 00-5-9.27h0c-7.3-4.68-16.88.26-16.88 10v25.45M190.9 136.19l27.29 15.95M190.9 118.95l27.29 15.95M190.9 101.72l27.29 15.95M190.9 84.48l27.29 15.95"/>
      <path d="M299.77 182l112-63.06S401.78 42.3 369 62.33c-23.72 14.51-5.17 55.34-39.42 72.57-20.05 10.1-28.08 21.17-29.81 47.1z" fill="#fff"/>
      <path d="M411.76 119l-50.39 28.37c2.83-23.89 11.95-35 32.26-45.23A44.27 44.27 0 00406.08 93a183.45 183.45 0 015.68 26z" fill="#f2f3f4"/>
      <path d="M411.76 119l-50.39 28.37c2.83-23.89 11.95-35 32.26-45.23A44.27 44.27 0 00406.08 93a183.45 183.45 0 015.68 26z" fill="#e3e4e5"/>
      <path d="M299.77 182l112-63.06S401.78 42.3 369 62.33c-23.72 14.51-5.17 55.34-39.42 72.57-20.05 10.1-28.08 21.17-29.81 47.1z" fill="none" stroke="#202020" stroke-linecap="round" stroke-linejoin="round" stroke-width="3"/>
      <path d="M370.08 154l112-63.06s-7-64.65-39.72-44.63c-23.73 14.52-8.17 43.34-42.42 60.58C379.85 117 371.82 128 370.08 154z" fill="#fff"/>
      <path d="M370.08 154l112-63.06s-7-64.65-39.72-44.63c-23.73 14.52-8.17 43.34-42.42 60.58C379.85 117 371.82 128 370.08 154z" fill="none" stroke="#202020" stroke-linecap="round" stroke-linejoin="round" stroke-width="3"/>
      <path fill="#414547" fill-rule="evenodd" d="M419.04 196.53l20.71-27.44-34.26 2.79L417 181.6l2.04 14.93z"/>
      <path fill="#6d6f70" fill-rule="evenodd" d="M419.04 196.53l20.71-27.44L417 181.6l2.04 14.93z"/>
      <path fill="none" stroke="#202020" stroke-linecap="round" stroke-linejoin="round" stroke-width="3" d="M419.04 196.53l20.71-27.44-34.26 2.79L417 181.6l2.04 14.93z"/>
      <path fill="#414547" fill-rule="evenodd" d="M430.17 135.22l20.71-27.44-34.26 2.79 11.51 9.72 2.04 14.93z"/>
      <path fill="#6d6f70" fill-rule="evenodd" d="M430.17 135.22l20.71-27.44-22.75 12.51 2.04 14.93z"/>
      <path fill="none" stroke="#202020" stroke-linecap="round" stroke-linejoin="round" stroke-width="3" d="M430.17 135.22l20.71-27.44-34.26 2.79 11.51 9.72 2.04 14.93z"/>
      <path fill="#414547" fill-rule="evenodd" d="M374.92 195.22l20.72-27.43-34.26 2.79 11.51 9.72 2.03 14.92z"/>
      <path fill="#6d6f70" fill-rule="evenodd" d="M374.92 195.22l20.72-27.43-22.75 12.51 2.03 14.92z"/>
      <path fill="none" stroke="#202020" stroke-linecap="round" stroke-linejoin="round" stroke-width="3" d="M374.92 195.22l20.72-27.43-34.26 2.79 11.51 9.72 2.03 14.92z"/>
      <ellipse cx="275.42" cy="104.23" rx="6.13" ry="4.1" transform="rotate(-83.41 275.4150611 104.2260308)" fill="#d6d7d8"/>
      <ellipse cx="275.42" cy="104.23" rx="6.13" ry="4.1" transform="rotate(-83.41 275.4150611 104.2260308)" fill="none" stroke="#202020" stroke-linecap="round" stroke-linejoin="round" stroke-width="3.00000002"/>
      <path fill="#d6d7d8" d="M297.64 117.28l3.42-10.64 5.96 5.65-3.94 10.66-5.44-5.67z"/>
      <path fill="none" stroke="#202020" stroke-linecap="round" stroke-linejoin="round" stroke-width="3" d="M297.19 116.81l3.95-10.17 5.88 6.14-3.94 10.17-5.89-6.14zM289.54 135.22l-11.2 6.43M283.94 131.46v13.96"/>
    </g>
  </g>
</svg>