<svg data-name="Layer 1" xmlns="http://www.w3.org/2000/svg" viewBox="0 0 833.36 547.89">
  <g data-name="Layer 2">
    <g data-name="Layer 3">
      <circle cx="135.89" cy="113.23" r="5.62" fill="none" stroke="#fff" stroke-linecap="round" stroke-miterlimit="10" stroke-width="5"/>
      <path fill="none" stroke="#fff" stroke-linecap="round" stroke-miterlimit="10" stroke-width="5" d="M109.67 145.14l-8.15 19.5M115.35 158.96l-19.5-8.15"/>
      <path d="M370.9 362.25c4.67-.74 9.37-1.47 14.14-2.21 65-10 120.52-17.14 164.71-22.11l12.41-323.51c-40.31 8.74-101.71 21.13-179.22 34z" style="isolation:isolate" fill="#414547" opacity=".55000001"/>
      <path d="M183.2 389.82l-20.09 49.1 1.14-.17a13.57 13.57 0 0010.22-7.75l19.81-42.93z" fill="#202020" stroke="#202020" stroke-linecap="round" stroke-linejoin="round" stroke-width="3"/>
      <path fill="#202020" stroke="#202020" stroke-linecap="round" stroke-linejoin="round" stroke-width="3" d="M189.74 418.43l6.41-.99-4.62-29.97-6.15 2.72 4.36 28.24zM578.65 328.74l34 40.76-1.13.17a13.57 13.57 0 01-12.08-4.26l-31.84-35z"/>
      <path fill="#202020" stroke="#202020" stroke-linecap="round" stroke-linejoin="round" stroke-width="3" d="M581.03 357.99l-6.4.99-4.63-29.96 6.67.74 4.36 28.23z"/>
      <path d="M666.52 327.23S559.64 333.07 385 360c-156 24.1-261 48.83-281.56 53.82a3.5 3.5 0 01-4.2-2.62 1.42 1.42 0 010-.2L50.14 93.32a3.49 3.49 0 012.93-4h.29c20.91-1.41 126.53-9.22 281.17-33.11C507.78 29.43 616.29 2 616.29 2z" fill="#2f3335"/>
      <path d="M552.18 178.27c-3.34-21.63 5.36-41.68 20.25-50a1.4 1.4 0 00-1.11-.34c-21.13 3.26-41.7 27.67-37.75 53.26 3.49 24.81 30.8 42.43 52.06 39.39a1.5 1.5 0 001-.75c-16.72-3.39-31.1-19.9-34.45-41.56z" fill="#b9bdc1"/>
      <path d="M504.58 186.15c-3.09-18.65 1.76-36.56 10.36-49.23a1.8 1.8 0 00-1-.13c-24.61 4-41.18 28-37 53.53 4.16 25.55 27.49 43 52.1 39a1.69 1.69 0 00.85-.41 67.87 67.87 0 01-25.31-42.76z" fill="#8a8f93"/>
      <path d="M455.76 148.22c-.22-1.32-1.15-2.27-2.08-2.11-21.1 3.44-34.82 26.94-30.66 52.49 4.17 25.55 24.65 43.47 45.74 40 .94-.15 1.52-1.34 1.3-2.66z" fill="#6d6f70"/>
      <circle cx="365.22" cy="207.21" r="50.19" transform="rotate(-45 365.2196368 207.2110732)" fill="#414547"/>
      <path d="M259.14 176.15c-.94.14-1.54 1.32-1.35 2.65l12.84 88c.19 1.32 1.11 2.29 2 2.15 21.15-3.09 35.27-26.35 31.53-52-3.7-25.62-23.87-43.88-45.02-40.8z" fill="#6d6f70"/>
      <path d="M198.84 185.47a1.6 1.6 0 00-.88.41c12 9.48 22 25.09 24.73 43.81a67.82 67.82 0 01-11.25 48.41 1.65 1.65 0 00.93.13c24.68-3.6 41.65-27.28 37.91-52.9-3.73-25.62-26.76-43.46-51.44-39.86z" fill="#8a8f93"/>
      <path d="M142.93 194.1a1.48 1.48 0 00-1 .66c16.7 3.44 31 19.93 34.38 41.56 3.35 21.66-5.38 41.73-20.3 50a1.42 1.42 0 001.19.41c21.18-3.51 41.9-28.55 37.74-53.26-3.94-25.56-30.89-42.63-52.01-39.37zM552.18 178.27c-3.34-21.63 5.36-41.68 20.25-50a1.4 1.4 0 00-1.11-.34c-21.13 3.26-41.7 27.67-37.75 53.26 3.49 24.81 30.8 42.43 52.06 39.39a1.5 1.5 0 001-.75c-16.72-3.39-31.1-19.9-34.45-41.56z" fill="#b9bdc1"/>
      <path d="M504.58 186.15c-3.09-18.65 1.76-36.56 10.36-49.23a1.8 1.8 0 00-1-.13c-24.61 4-41.18 28-37 53.53 4.16 25.55 27.49 43 52.1 39a1.69 1.69 0 00.85-.41 67.87 67.87 0 01-25.31-42.76z" fill="#8a8f93"/>
      <path d="M455.76 148.22c-.22-1.32-1.15-2.27-2.08-2.11-21.1 3.44-34.82 26.94-30.66 52.49 4.17 25.55 24.65 43.47 45.74 40 .94-.15 1.52-1.34 1.3-2.66z" fill="#6d6f70"/>
      <circle cx="365.22" cy="207.21" r="50.19" transform="rotate(-45 365.2196368 207.2110732)" fill="#414547"/>
      <path d="M259.14 176.15c-.94.14-1.54 1.32-1.35 2.65l12.84 88c.19 1.32 1.11 2.29 2 2.15 21.15-3.09 35.27-26.35 31.53-52-3.7-25.62-23.87-43.88-45.02-40.8z" fill="#6d6f70"/>
      <path d="M198.84 185.47a1.6 1.6 0 00-.88.41c12 9.48 22 25.09 24.73 43.81a67.82 67.82 0 01-11.25 48.41 1.65 1.65 0 00.93.13c24.68-3.6 41.65-27.28 37.91-52.9-3.73-25.62-26.76-43.46-51.44-39.86z" fill="#8a8f93"/>
      <path d="M142.93 194.1a1.48 1.48 0 00-1 .66c16.7 3.44 31 19.93 34.38 41.56 3.35 21.66-5.38 41.73-20.3 50a1.42 1.42 0 001.19.41c21.18-3.51 41.9-28.55 37.74-53.26-3.94-25.56-30.89-42.63-52.01-39.37z" fill="#b9bdc1"/>
      <path d="M642.88 174.14L625.94 64.45a68.49 68.49 0 01-120.73-38.24c-41 8.13-92.22 17.54-151.73 27C348 93 375.58 128.06 419.59 153.3c37.9 21.7 34.29 125.7-75.66 115.31-101.87-9.61-148.1 55.15-132.38 121.88 46-9.12 104.81-19.84 173.49-30.45 78.23-12 172.47-23.64 220-28.61 31.58-71.81-30.23-67.05-50.86-108.67s43.36-81.22 88.7-48.62z" style="isolation:isolate" fill="#414547" opacity=".55000001"/>
      <path d="M665.94 323.43a3.5 3.5 0 01-3 4h-.28C642.22 328.77 540.46 336 385 360c-156 24.1-261 48.83-281.56 53.82a3.5 3.5 0 01-4.2-2.62 1.42 1.42 0 010-.2L50.14 93.32a3.49 3.49 0 012.93-4h.29c20.91-1.41 126.53-9.22 281.17-33.11C507.78 29.43 616.29 2 616.29 2z" fill="none" stroke="#202020" stroke-linecap="round" stroke-linejoin="round" stroke-width="4"/>
      <path d="M666.52 327.23S559.64 333.07 385 360c-156 24.1-261 48.83-281.56 53.82a3.5 3.5 0 01-4.2-2.62 1.42 1.42 0 010-.2L50.14 93.32a3.49 3.49 0 012.93-4h.29c20.91-1.41 126.53-9.22 281.17-33.11C507.78 29.43 616.29 2 616.29 2z" fill="#fff"/>
      <circle cx="135.89" cy="113.23" r="5.62" fill="none" stroke="#fff" stroke-linecap="round" stroke-miterlimit="10" stroke-width="5"/>
      <path fill="none" stroke="#fff" stroke-linecap="round" stroke-miterlimit="10" stroke-width="5" d="M109.67 145.14l-8.15 19.5M115.35 158.96l-19.5-8.15"/>
      <path d="M218.5 142.75c4.68-23 .78-47-7-69.39C125 84.12 68.1 88.3 53.36 89.29A3.49 3.49 0 0050.11 93v.29l20.31 131.34c65.06 15.94 136.33-24.01 148.08-81.88z" style="isolation:isolate" fill="#606060" opacity=".16"/>
      <path d="M665.94 323.43a3.5 3.5 0 01-3 4h-.28C642.22 328.77 540.46 336 385 360c-156 24.1-261 48.83-281.56 53.82a3.5 3.5 0 01-4.2-2.62 1.42 1.42 0 010-.2L50.14 93.32a3.49 3.49 0 012.93-4h.29c20.91-1.41 126.53-9.22 281.17-33.11C507.78 29.43 616.29 2 616.29 2z" fill="none" stroke="#202020" stroke-linecap="round" stroke-linejoin="round" stroke-width="4"/>
      <path d="M165.14 445.53a76.86 76.86 0 015 17.45 8.51 8.51 0 009.77 7l33.71-5.5a8.52 8.52 0 007-9.81c-.43-2.62-1.59-10.89-.66-18.16l-17.59-107.86a76.86 76.86 0 01-5-17.45 8.51 8.51 0 00-9.75-7.06h-.06l-33.71 5.51a8.51 8.51 0 00-7 9.77c.43 2.62 1.59 10.89.66 18.16z" fill="#6d6f70"/>
      <path d="M219.35 436.22l-46.58 7.61c-5.59-33.79-18.45-113.09-19.4-118.93-2.37-14.24 20.83-7.45 18.63-18.2l-18.09 3a8.51 8.51 0 00-7 9.77c.43 2.62 1.59 10.89.66 18.16l17.64 107.91a76.86 76.86 0 015 17.45 8.51 8.51 0 009.77 7l33.71-5.5c4-.66 6.68-4.9 7-8.75l-36.77 6c-5 .82-8 .62-8.81-4.41a5.48 5.48 0 014.52-6.29l32-5.22a9.36 9.36 0 007.84-9.62z" fill="#414547"/>
      <rect x="139.19" y="333.17" width="89.18" height="108.16" rx="16.13" transform="rotate(-9.28 183.75320357 387.23308767)" fill="#f2f3f4"/>
      <path d="M149 344l23.12-3.78c9.81-1.6 8.88-7.3 8.88-7.3l-34.61 5.65a16.13 16.13 0 00-13.32 18.52L145.29 432a16.14 16.14 0 0018.52 13.32l50.94-8.32c-3.69-3.56-6.22-4.83-16.46-3.16l-33.7 5.51a11.12 11.12 0 01-12.75-9.17l-12-73.46A11.08 11.08 0 01149 344z" fill="#d6d7d8"/>
      <path d="M223.21 349.63a5.41 5.41 0 016.21 4.45l2.24 13.67a5.41 5.41 0 01-4.47 6.21" fill="#d6d7d8" fill-rule="evenodd"/>
      <path d="M147.5 337.62c.93-7.27-.23-15.54-.66-18.16a8.5 8.5 0 017-9.79h0l33.71-5.51a8.51 8.51 0 019.8 7v.06a76.86 76.86 0 005 17.45" fill="none" stroke="#202020" stroke-linecap="round" stroke-linejoin="round" stroke-width="3"/>
      <rect x="139.19" y="333.17" width="89.18" height="108.16" rx="16.13" transform="rotate(-9.28 183.75320357 387.23308767)" fill="none" stroke="#202020" stroke-linecap="round" stroke-linejoin="round" stroke-width="3.00000001"/>
      <path d="M220 436.56c-.93 7.27.23 15.54.66 18.16a8.52 8.52 0 01-7 9.81h0L179.91 470a8.49 8.49 0 01-9.8-7h0a76.86 76.86 0 00-5-17.45M223.21 349.63h0a5.41 5.41 0 016.21 4.45h0l2.24 13.67a5.41 5.41 0 01-4.47 6.21h0M168.74 346.93l16.41-2.68" fill="none" stroke="#202020" stroke-linecap="round" stroke-linejoin="round" stroke-width="3"/>
      <path d="M196.39 423.47a1.83 1.83 0 102.1 1.51 1.83 1.83 0 00-2.1-1.51zM189.85 424.54a1.82 1.82 0 10.12 0zM183.3 425.61a1.83 1.83 0 102.1 1.51 1.83 1.83 0 00-2.1-1.51z" fill="#202020"/>
      <path d="M170 362.93l33.16-5.42a5.74 5.74 0 016.6 4.75 5.74 5.74 0 01-4.74 6.6l-33.16 5.42a5.77 5.77 0 01-6.61-4.75 5.76 5.76 0 014.75-6.6zM192.23 378.49l14-2.29a5.76 5.76 0 016.6 4.75 5.76 5.76 0 01-4.75 6.6l-14 2.29a5.77 5.77 0 01-6.61-4.75 5.76 5.76 0 014.76-6.6z" fill="#b9bdc1"/>
      <path d="M163.06 407.87l33.16-5.42a5.75 5.75 0 016.6 4.75 5.75 5.75 0 01-4.75 6.6l-33.16 5.42a5.76 5.76 0 01-6.6-4.75 5.76 5.76 0 014.75-6.6z" fill="#8a8f93"/>
      <circle cx="358.58" cy="12.69" r="7.46" fill="none" stroke="#fff" stroke-linecap="round" stroke-miterlimit="10" stroke-width="5"/>
      <path fill="none" stroke="#fff" stroke-linecap="round" stroke-miterlimit="10" stroke-width="5" d="M17.44 320.97L2.81 336.22M17.75 335.91L2.5 321.27"/>
      <circle cx="276.56" cy="418.41" r="5.62" fill="none" stroke="#fff" stroke-linecap="round" stroke-miterlimit="10" stroke-width="5"/>
      <path fill="none" stroke="#fff" stroke-linecap="round" stroke-miterlimit="10" stroke-width="5" d="M485.1 465.6l-14.64 15.25M485.4 480.54l-15.24-14.63"/>
      <path fill="#6d6f70" d="M368.26 464.28l-5.31 15.58 6.8 2.31 5.31-15.58"/>
      <path d="M521.15 182.67l4.65 7.13a7.82 7.82 0 01-2.27 10.82 7.82 7.82 0 01-10.82-2.28l-4.65-7.13a7.81 7.81 0 012.27-10.82 7.82 7.82 0 0110.82 2.28z" fill="#b9bdc1"/>
      <path d="M518.47 198.43l-5-7.71a8.46 8.46 0 012.23-11.52 7.79 7.79 0 00-7.58 12l4.66 7.14a7.84 7.84 0 009.16 3.08 8.45 8.45 0 01-3.47-2.99z" fill="#8a8f93"/>
      <path d="M485.91 286.41l-45 132.17c-.67-1.33-1.33-2.67-2-4-2.42-4.59-5.48-9.29-10.29-11.28-8.57-3.54-17.87 3.13-23.9 10.17-6.23 7.26-11.42 15.42-18.1 22.23L334.53 418l31.15-91.45c.09 1.74.22 3.48.42 5.2.48 4 1.82 8.43 5.44 10.14 3.88 1.83 8.49-.4 11.67-3.26 5.74-5.15 9.28-12.27 14-18.37s11.63-11.53 19.32-10.88c7.86 9.76 1 27.3 11 34.95 5.93 4.57 15 2.37 20.48-2.73s8.31-12.37 11.26-19.26a288.38 288.38 0 0119.85-38.27z" fill="#d6d7d8" opacity=".27000001"/>
      <path d="M460.61 224.64a6.49 6.49 0 11-12.39-3.85 3.38 3.38 0 01.11-.34M514.24 200.3a6.49 6.49 0 01-7.24-10.74l.2-.13" fill="#6d6f70"/>
      <path d="M455.21 206.48l8.05 2.75a7.81 7.81 0 014.88 9.92 7.82 7.82 0 01-9.92 4.87l-8.05-2.74a7.82 7.82 0 01-4.89-9.92 7.83 7.83 0 019.93-4.88z" fill="#b9bdc1"/>
      <path d="M462.71 220.31l-8.06-2.74a7.83 7.83 0 01-4.88-9.92 6.88 6.88 0 01.54-1.21 7.8 7.8 0 00-.14 14.82l8.07 2.75a7.84 7.84 0 009.38-3.67 7.78 7.78 0 01-4.91-.03z" fill="#8a8f93"/>
      <path d="M429.28 471.41a12.94 12.94 0 01-16.4 8.07l-82.44-28.08a12.94 12.94 0 01-8.07-16.4l66.5-195.28a12.94 12.94 0 0116.41-8.07l82.44 28.08a12.92 12.92 0 018.07 16.4z" fill="#d6d7d8"/>
      <path d="M338.27 441.85a5.38 5.38 0 01-3.35-6.81l63.45-186.29a7.73 7.73 0 019.82-4.83l24.86 8.46s16 6.3 19.66-4.57l-47.44-16.16a12.94 12.94 0 00-16.41 8.07L322.37 435a12.93 12.93 0 008.06 16.4l82.45 28.08c1-15.42-20.29-19.13-20.29-19.13z" fill="#b9bdc1"/>
      <circle cx="376.94" cy="449.93" r="9.38" fill="#d6d7d8"/>
      <path fill="#f2f3f4" d="M334.54159859 418.01572574l55.90307148-164.1202943 95.47336995 32.52038177-55.90307148 164.12029429z"/>
      <path d="M370.9 443.91c-.24.5-2 .5-2.17 1-2 6 .2 12.16 5 13.79a8 8 0 006-.42c-5.99-2.21-10.37-6.99-8.83-14.37z" fill="#b9bdc1"/>
      <path d="M471.64 328.32l-30.75 90.26-2-4c-2.42-4.59-5.48-9.29-10.29-11.28-8.57-3.54-17.71.48-23.74 7.52-6.23 7.26-5.46 22.73-18.26 24.88L334.53 418l31.15-91.45c.09 1.74.22 3.48.42 5.2.48 4 1.82 8.43 5.44 10.14 3.88 1.83 8.49-.4 11.67-3.26 5.74-5.15 10.11-11.7 14-18.37 5.78-9.88 11-13.55 19.32-10.88 12.64 3.19 1 27.3 11 34.95 5.93 4.57 15 2.37 20.48-2.73s8.31-12.37 11.26-19.26c5.65-13.23 13.27-18 20.5-17.84z" fill="#fff"/>
      <path d="M429.28 471.41a12.94 12.94 0 01-16.4 8.07l-82.44-28.08a12.94 12.94 0 01-8.07-16.4l66.5-195.28a12.94 12.94 0 0116.41-8.07l82.44 28.08a12.92 12.92 0 018.07 16.4z" fill="none" stroke="#202020" stroke-linecap="round" stroke-linejoin="round" stroke-width="3"/>
      <circle cx="376.94" cy="449.93" r="9.38" fill="none" stroke="#202020" stroke-linecap="round" stroke-linejoin="round" stroke-width="3"/>
      <path fill="none" stroke="#202020" stroke-linecap="round" stroke-linejoin="round" stroke-width="2.99999993" d="M334.54159859 418.01572574l55.90307148-164.1202943 95.47336995 32.52038177-55.90307148 164.12029429z"/>
      <path d="M366.22 481c-10.61 31.15 38.95 84.68 98 58.31 56.86-25.37 112-157.51-56.11-159.81s-86-137.93-34.27-96.17M460.11 208.14c36.47-13.83 103.68 55.45 19.73 117.5 0 0 81.39-42.76 45.56-124.73" fill="none" stroke="#202020" stroke-linecap="round" stroke-linejoin="round" stroke-width="3"/>
      <path d="M455.21 206.48l8.05 2.75a7.81 7.81 0 014.88 9.92h0a7.82 7.82 0 01-9.92 4.87l-8.05-2.74a7.82 7.82 0 01-4.89-9.92h0a7.83 7.83 0 019.93-4.88z" fill="none" stroke="#202020" stroke-linecap="round" stroke-linejoin="round" stroke-width="2.99999996"/>
      <path d="M460.61 224.64a6.49 6.49 0 11-12.39-3.85 3.38 3.38 0 01.11-.34" fill="none" stroke="#202020" stroke-linecap="round" stroke-linejoin="round" stroke-width="3"/>
      <path d="M521.15 182.67l4.65 7.13a7.82 7.82 0 01-2.27 10.82h0a7.82 7.82 0 01-10.82-2.28l-4.65-7.13a7.81 7.81 0 012.27-10.82h0a7.82 7.82 0 0110.82 2.28z" fill="none" stroke="#202020" stroke-linecap="round" stroke-linejoin="round" stroke-width="2.99999996"/>
      <path d="M514.24 200.3a6.49 6.49 0 01-7.24-10.74l.2-.13M368.26 464.28l-5.31 15.58 6.8 2.31 5.31-15.58M432.88 256.52l17.79 6.06" fill="none" stroke="#202020" stroke-linecap="round" stroke-linejoin="round" stroke-width="3"/>
      <path d="M398 304.68a1.49 1.49 0 01-1.56-2l3.34-9.8a1.51 1.51 0 112.84 1l-3.34 9.81a1.53 1.53 0 01-1.28.99zM405 312.52a1.49 1.49 0 01-1.64-1.32 1.44 1.44 0 01.08-.68l6.67-19.52a1.51 1.51 0 112.84 1l-6.66 19.57a1.49 1.49 0 01-1.29.95zM421.36 321.42a1.5 1.5 0 01-1.57-2l8.71-25.56a1.48 1.48 0 011.89-.93 1.51 1.51 0 01.94 1.9l-8.71 25.56a1.47 1.47 0 01-1.26 1.03zM414.71 312.49a1.5 1.5 0 01-.63-.08 1.48 1.48 0 01-.93-1.89l4.63-13.59a1.51 1.51 0 112.84 1L416 311.48a1.53 1.53 0 01-1.29 1.01zM432.72 316.51a1.5 1.5 0 01-.63-.08 1.48 1.48 0 01-.93-1.89l3.34-9.8a1.51 1.51 0 012.84 1L434 315.5a1.53 1.53 0 01-1.28 1.01zM439.74 324.35a1.49 1.49 0 01-1.64-1.35 1.44 1.44 0 01.08-.68l6.66-19.57a1.51 1.51 0 012.84 1L441 323.34a1.52 1.52 0 01-1.26 1.01zM450.09 322.42a1.5 1.5 0 01-1.57-2l3.34-9.81a1.51 1.51 0 012.84 1l-3.34 9.8a1.46 1.46 0 01-1.27 1.01z" fill="#6d6f70"/>
      <path d="M514.85 436.25a14.31 14.31 0 01-10.27-17.42l24.09-93.29a14.31 14.31 0 0117.42-10.27l221 57.06a14.31 14.31 0 0110.27 17.42L753.24 483a14.31 14.31 0 01-17.42 10.27z" fill="#d6d7d8"/>
      <path d="M518.27 417.46a5.94 5.94 0 004.27 7.23l210.81 54.38a8.58 8.58 0 0010.44-6.15l7.21-28.14s3.86-18.58 16.17-15.41l-13.85 53.69a14.3 14.3 0 01-17.41 10.28l-221-57a14.3 14.3 0 01-10.27-17.41l24.07-93.31c14.92 8.38 5.42 30.38 5.42 30.38z" fill="#b9bdc1"/>
      <path fill="#414547" d="M538.4861 434.2647l27.895-108.2326 186.0557 47.9525-27.895 108.2326z"/>
      <circle cx="534.17" cy="376.72" r="10.37" fill="#d6d7d8"/>
      <path d="M514.85 436.25a14.31 14.31 0 01-10.27-17.42l24.09-93.29a14.31 14.31 0 0117.42-10.27l221 57.06a14.31 14.31 0 0110.27 17.42L753.24 483a14.31 14.31 0 01-17.42 10.27z" fill="none" stroke="#202020" stroke-linecap="round" stroke-linejoin="round" stroke-width="3"/>
      <circle cx="534.17" cy="376.72" r="10.37" fill="none" stroke="#202020" stroke-linecap="round" stroke-linejoin="round" stroke-width="3"/>
      <path fill="none" stroke="#202020" stroke-linecap="round" stroke-linejoin="round" stroke-width="3" d="M752.2 422.28l-5.2 20.13"/>
      <path d="M723.66 483.26l-137.95-35.61a76.88 76.88 0 00-36.39-56.4l16.52-64 91.39 23.59c-7.23 51.82 23.68 92.69 70.94 114.94z" fill="#2f3335"/>
      <path fill="none" stroke="#202020" stroke-linecap="round" stroke-linejoin="round" stroke-width="3.0050999799660003" d="M538.4861 434.2647l27.895-108.2326 186.0557 47.9525-27.895 108.2326z"/>
      <path d="M646.31 394.52a12.72 12.72 0 109.31 15.4 12.72 12.72 0 00-9.31-15.4zm1.39 14.17l-8.15 2.36a.77.77 0 01-.37 0 .72.72 0 01-.53-.87l2-8.24a.71.71 0 01.5-.52.75.75 0 01.7.17l6.12 5.88a.73.73 0 01.2.7.71.71 0 01-.47.52z" fill="#b9bdc1"/>
      <path d="M183.2 389.82l-20.09 49.1 1.14-.17a13.57 13.57 0 0010.22-7.75l19.81-42.93z" fill="#202020" stroke="#202020" stroke-linecap="round" stroke-linejoin="round" stroke-width="3"/>
      <path fill="#202020" stroke="#202020" stroke-linecap="round" stroke-linejoin="round" stroke-width="3" d="M189.74 418.43l6.41-.99-4.62-29.97-6.15 2.72 4.36 28.24zM578.65 328.74l34 40.76-1.13.17a13.57 13.57 0 01-12.08-4.26l-31.84-35z"/>
      <path fill="#202020" stroke="#202020" stroke-linecap="round" stroke-linejoin="round" stroke-width="3" d="M581.03 357.99l-6.4.99-4.63-29.96 6.67.74 4.36 28.23z"/>
      <path d="M642.88 174.14L625.94 64.45a68.49 68.49 0 01-120.73-38.24c-41 8.13-92.22 17.54-151.73 27C348 93 375.58 128.06 419.59 153.3c37.9 21.7 34.29 125.7-75.66 115.31-101.87-9.61-148.1 55.15-132.38 121.88 46-9.12 104.81-19.84 173.49-30.45 78.23-12 172.47-23.64 220-28.61 31.58-71.81-30.23-67.05-50.86-108.67s43.36-81.22 88.7-48.62z" style="isolation:isolate" fill="#606060" opacity=".16"/>
      <path d="M165.14 445.53a76.86 76.86 0 015 17.45 8.51 8.51 0 009.77 7l33.71-5.5a8.52 8.52 0 007-9.81c-.43-2.62-1.59-10.89-.66-18.16l-17.59-107.86a76.86 76.86 0 01-5-17.45 8.51 8.51 0 00-9.75-7.06h-.06l-33.71 5.51a8.51 8.51 0 00-7 9.77c.43 2.62 1.59 10.89.66 18.16z" fill="#6d6f70"/>
      <path d="M219.35 436.22l-46.58 7.61c-5.59-33.79-18.45-113.09-19.4-118.93-2.37-14.24 20.83-7.45 18.63-18.2l-18.09 3a8.51 8.51 0 00-7 9.77c.43 2.62 1.59 10.89.66 18.16l17.64 107.91a76.86 76.86 0 015 17.45 8.51 8.51 0 009.77 7l33.71-5.5c4-.66 6.68-4.9 7-8.75l-36.77 6c-5 .82-8 .62-8.81-4.41a5.48 5.48 0 014.52-6.29l32-5.22a9.36 9.36 0 007.84-9.62z" fill="#414547"/>
      <rect x="139.19" y="333.17" width="89.18" height="108.16" rx="16.13" transform="rotate(-9.28 183.75320357 387.23308767)" fill="#f2f3f4"/>
      <path d="M149 344l23.12-3.78c9.81-1.6 8.88-7.3 8.88-7.3l-34.61 5.65a16.13 16.13 0 00-13.32 18.52L145.29 432a16.14 16.14 0 0018.52 13.32l50.94-8.32c-3.69-3.56-6.22-4.83-16.46-3.16l-33.7 5.51a11.12 11.12 0 01-12.75-9.17l-12-73.46A11.08 11.08 0 01149 344z" fill="#d6d7d8"/>
      <path d="M223.21 349.63a5.41 5.41 0 016.21 4.45l2.24 13.67a5.41 5.41 0 01-4.47 6.21" fill="#d6d7d8" fill-rule="evenodd"/>
      <path d="M147.5 337.62c.93-7.27-.23-15.54-.66-18.16a8.5 8.5 0 017-9.79h0l33.71-5.51a8.51 8.51 0 019.8 7v.06a76.86 76.86 0 005 17.45" fill="none" stroke="#202020" stroke-linecap="round" stroke-linejoin="round" stroke-width="3"/>
      <rect x="139.19" y="333.17" width="89.18" height="108.16" rx="16.13" transform="rotate(-9.28 183.75320357 387.23308767)" fill="none" stroke="#202020" stroke-linecap="round" stroke-linejoin="round" stroke-width="3.00000001"/>
      <path d="M220 436.56c-.93 7.27.23 15.54.66 18.16a8.52 8.52 0 01-7 9.81h0L179.91 470a8.49 8.49 0 01-9.8-7h0a76.86 76.86 0 00-5-17.45M223.21 349.63h0a5.41 5.41 0 016.21 4.45h0l2.24 13.67a5.41 5.41 0 01-4.47 6.21h0M168.74 346.93l16.41-2.68" fill="none" stroke="#202020" stroke-linecap="round" stroke-linejoin="round" stroke-width="3"/>
      <path d="M196.39 423.47a1.83 1.83 0 102.1 1.51 1.83 1.83 0 00-2.1-1.51zM189.85 424.54a1.82 1.82 0 10.12 0zM183.3 425.61a1.83 1.83 0 102.1 1.51 1.83 1.83 0 00-2.1-1.51z" fill="#202020"/>
      <path d="M170 362.93l33.16-5.42a5.74 5.74 0 016.6 4.75 5.74 5.74 0 01-4.74 6.6l-33.16 5.42a5.77 5.77 0 01-6.61-4.75 5.76 5.76 0 014.75-6.6zM192.23 378.49l14-2.29a5.76 5.76 0 016.6 4.75 5.76 5.76 0 01-4.75 6.6l-14 2.29a5.77 5.77 0 01-6.61-4.75 5.76 5.76 0 014.76-6.6z" fill="#b9bdc1"/>
      <path d="M163.06 407.87l33.16-5.42a5.75 5.75 0 016.6 4.75 5.75 5.75 0 01-4.75 6.6l-33.16 5.42a5.76 5.76 0 01-6.6-4.75 5.76 5.76 0 014.75-6.6z" fill="#8a8f93"/>
      <circle cx="358.58" cy="12.69" r="7.46" fill="none" stroke="#fff" stroke-linecap="round" stroke-miterlimit="10" stroke-width="5"/>
      <path fill="none" stroke="#fff" stroke-linecap="round" stroke-miterlimit="10" stroke-width="5" d="M17.44 320.97L2.81 336.22M17.75 335.91L2.5 321.27"/>
      <circle cx="276.56" cy="418.41" r="5.62" fill="none" stroke="#fff" stroke-linecap="round" stroke-miterlimit="10" stroke-width="5"/>
      <path fill="none" stroke="#fff" stroke-linecap="round" stroke-miterlimit="10" stroke-width="5" d="M485.1 465.6l-14.64 15.25M485.4 480.54l-15.24-14.63"/>
      <path fill="#6d6f70" d="M368.26 464.28l-5.31 15.58 6.8 2.31 5.31-15.58"/>
      <path d="M521.15 182.67l4.65 7.13a7.82 7.82 0 01-2.27 10.82 7.82 7.82 0 01-10.82-2.28l-4.65-7.13a7.81 7.81 0 012.27-10.82 7.82 7.82 0 0110.82 2.28z" fill="#b9bdc1"/>
      <path d="M518.47 198.43l-5-7.71a8.46 8.46 0 012.23-11.52 7.79 7.79 0 00-7.58 12l4.66 7.14a7.84 7.84 0 009.16 3.08 8.45 8.45 0 01-3.47-2.99z" fill="#8a8f93"/>
      <path d="M485.91 286.41l-45 132.17c-.67-1.33-1.33-2.67-2-4-2.42-4.59-5.48-9.29-10.29-11.28-8.57-3.54-17.87 3.13-23.9 10.17-6.23 7.26-11.42 15.42-18.1 22.23L334.53 418l31.15-91.45c.09 1.74.22 3.48.42 5.2.48 4 1.82 8.43 5.44 10.14 3.88 1.83 8.49-.4 11.67-3.26 5.74-5.15 9.28-12.27 14-18.37s11.63-11.53 19.32-10.88c7.86 9.76 1 27.3 11 34.95 5.93 4.57 15 2.37 20.48-2.73s8.31-12.37 11.26-19.26a288.38 288.38 0 0119.85-38.27z" fill="#d6d7d8" opacity=".27000001"/>
      <path d="M460.61 224.64a6.49 6.49 0 11-12.39-3.85 3.38 3.38 0 01.11-.34M514.24 200.3a6.49 6.49 0 01-7.24-10.74l.2-.13" fill="#6d6f70"/>
      <path d="M455.21 206.48l8.05 2.75a7.81 7.81 0 014.88 9.92 7.82 7.82 0 01-9.92 4.87l-8.05-2.74a7.82 7.82 0 01-4.89-9.92 7.83 7.83 0 019.93-4.88z" fill="#b9bdc1"/>
      <path d="M462.71 220.31l-8.06-2.74a7.83 7.83 0 01-4.88-9.92 6.88 6.88 0 01.54-1.21 7.8 7.8 0 00-.14 14.82l8.07 2.75a7.84 7.84 0 009.38-3.67 7.78 7.78 0 01-4.91-.03z" fill="#8a8f93"/>
      <path d="M429.28 471.41a12.94 12.94 0 01-16.4 8.07l-82.44-28.08a12.94 12.94 0 01-8.07-16.4l66.5-195.28a12.94 12.94 0 0116.41-8.07l82.44 28.08a12.92 12.92 0 018.07 16.4z" fill="#d6d7d8"/>
      <path d="M338.27 441.85a5.38 5.38 0 01-3.35-6.81l63.45-186.29a7.73 7.73 0 019.82-4.83l24.86 8.46s16 6.3 19.66-4.57l-47.44-16.16a12.94 12.94 0 00-16.41 8.07L322.37 435a12.93 12.93 0 008.06 16.4l82.45 28.08c1-15.42-20.29-19.13-20.29-19.13z" fill="#b9bdc1"/>
      <circle cx="376.94" cy="449.93" r="9.38" fill="#d6d7d8"/>
      <path fill="#f2f3f4" d="M334.54159859 418.01572574l55.90307148-164.1202943 95.47336995 32.52038177-55.90307148 164.12029429z"/>
      <path d="M370.9 443.91c-.24.5-2 .5-2.17 1-2 6 .2 12.16 5 13.79a8 8 0 006-.42c-5.99-2.21-10.37-6.99-8.83-14.37z" fill="#b9bdc1"/>
      <path d="M471.64 328.32l-30.75 90.26-2-4c-2.42-4.59-5.48-9.29-10.29-11.28-8.57-3.54-17.71.48-23.74 7.52-6.23 7.26-5.46 22.73-18.26 24.88L334.53 418l31.15-91.45c.09 1.74.22 3.48.42 5.2.48 4 1.82 8.43 5.44 10.14 3.88 1.83 8.49-.4 11.67-3.26 5.74-5.15 10.11-11.7 14-18.37 5.78-9.88 11-13.55 19.32-10.88 12.64 3.19 1 27.3 11 34.95 5.93 4.57 15 2.37 20.48-2.73s8.31-12.37 11.26-19.26c5.65-13.23 13.27-18 20.5-17.84z" fill="#fff"/>
      <path d="M429.28 471.41a12.94 12.94 0 01-16.4 8.07l-82.44-28.08a12.94 12.94 0 01-8.07-16.4l66.5-195.28a12.94 12.94 0 0116.41-8.07l82.44 28.08a12.92 12.92 0 018.07 16.4z" fill="none" stroke="#202020" stroke-linecap="round" stroke-linejoin="round" stroke-width="3"/>
      <circle cx="376.94" cy="449.93" r="9.38" fill="none" stroke="#202020" stroke-linecap="round" stroke-linejoin="round" stroke-width="3"/>
      <path fill="none" stroke="#202020" stroke-linecap="round" stroke-linejoin="round" stroke-width="2.99999993" d="M334.54159859 418.01572574l55.90307148-164.1202943 95.47336995 32.52038177-55.90307148 164.12029429z"/>
      <path d="M366.22 481c-10.61 31.15 38.95 84.68 98 58.31 56.86-25.37 112-157.51-56.11-159.81s-86-137.93-34.27-96.17M460.11 208.14c36.47-13.83 103.68 55.45 19.73 117.5 0 0 81.39-42.76 45.56-124.73" fill="none" stroke="#202020" stroke-linecap="round" stroke-linejoin="round" stroke-width="3"/>
      <path d="M455.21 206.48l8.05 2.75a7.81 7.81 0 014.88 9.92h0a7.82 7.82 0 01-9.92 4.87l-8.05-2.74a7.82 7.82 0 01-4.89-9.92h0a7.83 7.83 0 019.93-4.88z" fill="none" stroke="#202020" stroke-linecap="round" stroke-linejoin="round" stroke-width="2.99999996"/>
      <path d="M460.61 224.64a6.49 6.49 0 11-12.39-3.85 3.38 3.38 0 01.11-.34" fill="none" stroke="#202020" stroke-linecap="round" stroke-linejoin="round" stroke-width="3"/>
      <path d="M521.15 182.67l4.65 7.13a7.82 7.82 0 01-2.27 10.82h0a7.82 7.82 0 01-10.82-2.28l-4.65-7.13a7.81 7.81 0 012.27-10.82h0a7.82 7.82 0 0110.82 2.28z" fill="none" stroke="#202020" stroke-linecap="round" stroke-linejoin="round" stroke-width="2.99999996"/>
      <path d="M514.24 200.3a6.49 6.49 0 01-7.24-10.74l.2-.13M368.26 464.28l-5.31 15.58 6.8 2.31 5.31-15.58M432.88 256.52l17.79 6.06" fill="none" stroke="#202020" stroke-linecap="round" stroke-linejoin="round" stroke-width="3"/>
      <path d="M398 304.68a1.49 1.49 0 01-1.56-2l3.34-9.8a1.51 1.51 0 112.84 1l-3.34 9.81a1.53 1.53 0 01-1.28.99zM405 312.52a1.49 1.49 0 01-1.64-1.32 1.44 1.44 0 01.08-.68l6.67-19.52a1.51 1.51 0 112.84 1l-6.66 19.57a1.49 1.49 0 01-1.29.95zM421.36 321.42a1.5 1.5 0 01-1.57-2l8.71-25.56a1.48 1.48 0 011.89-.93 1.51 1.51 0 01.94 1.9l-8.71 25.56a1.47 1.47 0 01-1.26 1.03zM414.71 312.49a1.5 1.5 0 01-.63-.08 1.48 1.48 0 01-.93-1.89l4.63-13.59a1.51 1.51 0 112.84 1L416 311.48a1.53 1.53 0 01-1.29 1.01zM432.72 316.51a1.5 1.5 0 01-.63-.08 1.48 1.48 0 01-.93-1.89l3.34-9.8a1.51 1.51 0 012.84 1L434 315.5a1.53 1.53 0 01-1.28 1.01zM439.74 324.35a1.49 1.49 0 01-1.64-1.35 1.44 1.44 0 01.08-.68l6.66-19.57a1.51 1.51 0 012.84 1L441 323.34a1.52 1.52 0 01-1.26 1.01zM450.09 322.42a1.5 1.5 0 01-1.57-2l3.34-9.81a1.51 1.51 0 012.84 1l-3.34 9.8a1.46 1.46 0 01-1.27 1.01z" fill="#6d6f70"/>
      <path d="M514.85 436.25a14.31 14.31 0 01-10.27-17.42l24.09-93.29a14.31 14.31 0 0117.42-10.27l221 57.06a14.31 14.31 0 0110.27 17.42L753.24 483a14.31 14.31 0 01-17.42 10.27z" fill="#d6d7d8"/>
      <path d="M518.27 417.46a5.94 5.94 0 004.27 7.23l210.81 54.38a8.58 8.58 0 0010.44-6.15l7.21-28.14s3.86-18.58 16.17-15.41l-13.85 53.69a14.3 14.3 0 01-17.41 10.28l-221-57a14.3 14.3 0 01-10.27-17.41l24.07-93.31c14.92 8.38 5.42 30.38 5.42 30.38z" fill="#b9bdc1"/>
      <path fill="#414547" d="M538.4861 434.2647l27.895-108.2326 186.0557 47.9525-27.895 108.2326z"/>
      <circle cx="534.17" cy="376.72" r="10.37" fill="#d6d7d8"/>
      <path d="M514.85 436.25a14.31 14.31 0 01-10.27-17.42l24.09-93.29a14.31 14.31 0 0117.42-10.27l221 57.06a14.31 14.31 0 0110.27 17.42L753.24 483a14.31 14.31 0 01-17.42 10.27z" fill="none" stroke="#202020" stroke-linecap="round" stroke-linejoin="round" stroke-width="3"/>
      <circle cx="534.17" cy="376.72" r="10.37" fill="none" stroke="#202020" stroke-linecap="round" stroke-linejoin="round" stroke-width="3"/>
      <path fill="none" stroke="#202020" stroke-linecap="round" stroke-linejoin="round" stroke-width="3" d="M752.2 422.28l-5.2 20.13"/>
      <path d="M723.66 483.26l-137.95-35.61a76.88 76.88 0 00-36.39-56.4l16.52-64 91.39 23.59c-7.23 51.82 23.68 92.69 70.94 114.94z" fill="#2f3335"/>
      <path fill="none" stroke="#202020" stroke-linecap="round" stroke-linejoin="round" stroke-width="3.0050999799660003" d="M538.4861 434.2647l27.895-108.2326 186.0557 47.9525-27.895 108.2326z"/>
      <path d="M646.31 394.52a12.72 12.72 0 109.31 15.4 12.72 12.72 0 00-9.31-15.4zm1.39 14.17l-8.15 2.36a.77.77 0 01-.37 0 .72.72 0 01-.53-.87l2-8.24a.71.71 0 01.5-.52.75.75 0 01.7.17l6.12 5.88a.73.73 0 01.2.7.71.71 0 01-.47.52zM801.42 254.4c-4.07 10.33-13.08 18.56-20.1 23.74a339.42 339.42 0 01-55.58-11.24 340.81 340.81 0 01-48-17.86c-3.26-7.8-6.29-18.27-4.91-28.26.86-6.25 5.83-23.22 12.16-43.31a554.06 554.06 0 0058.71 20.6 546.74 546.74 0 0067.74 15.15c-4.07 19.48-7.81 35.54-10.02 41.18z" fill="#b9bdc1"/>
      <path d="M743.74 198.07a552.33 552.33 0 01-58.74-20.6c13.26-42 32.47-97.78 32.47-97.78 2.4-9.18 29.91-9.93 61.44-1.68s55.15 22.37 52.75 31.54a4 4 0 01-.26.76c-1.31 7.21-11.42 62.44-19.95 102.91a546.28 546.28 0 01-67.71-15.15z" fill="#f2f3f4"/>
      <path d="M717.5 79.69s-42 121.75-44.63 141.09 11.19 40.5 11.19 40.5 3.54 1.69 10.25 4.25c-7-10.89-11.37-23.12-10.51-37.35 1.37-22.49 21.25-93.16 49.83-155.67-9.07.71-15.06 3.12-16.13 7.18zM771.38 286s22.43-11.67 29.58-29.83c6.81-17.33 28.06-133.41 30-144.09a5.29 5.29 0 00.27-.76c1.28-4.9-4.88-11.22-15.7-17.3-2.45 27.71-8.25 83.88-17.72 121.06-11.31 44.4-18.19 47.49-42.61 68.79 10.35 1.73 16.18 2.13 16.18 2.13z" style="isolation:isolate" fill="#414547" opacity=".25"/>
      <ellipse cx="774.58" cy="94.62" rx="17.17" ry="59.02" transform="rotate(-75.34 774.58335802 94.62017665)" fill="#fff"/>
      <path d="M781.32 278.14a80.41 80.41 0 01-9.48 6.09s-17.09-1.11-44.66-8.31h-.12c-27.57-7.22-43-14.61-43-14.61a83.38 83.38 0 01-6.28-12.31 340.81 340.81 0 0048 17.86 340.09 340.09 0 0055.54 11.28z" fill="#2f3335"/>
      <ellipse cx="774.58" cy="94.62" rx="17.17" ry="59.02" transform="rotate(-75.34 774.58335802 94.62017665)" fill="none" stroke="#202020" stroke-linecap="round" stroke-linejoin="round" stroke-width="3"/>
      <path d="M801.42 254.4c-7.15 18.16-29.58 29.83-29.58 29.83s-17.09-1.11-44.66-8.31h-.12c-27.57-7.22-43-14.61-43-14.61s-13.85-21.16-11.19-40.5S717.5 79.69 717.5 79.69c2.4-9.18 29.91-9.93 61.44-1.68s55.15 22.37 52.75 31.54a4 4 0 01-.26.76c-1.95 10.69-23.2 126.76-30.01 144.09z" fill="none" stroke="#202020" stroke-linecap="round" stroke-linejoin="round" stroke-width="3"/>
      <path d="M831.43 110.31c-1.31 7.21-11.42 62.44-19.95 102.91a546.74 546.74 0 01-67.74-15.15 552.33 552.33 0 01-58.74-20.6c13.26-42 32.47-97.78 32.47-97.78 2.4-9.18 29.91-9.93 61.44-1.68s55.15 22.37 52.75 31.54a4.15 4.15 0 01-.23.76z" fill="none" stroke="#202020" stroke-linecap="round" stroke-linejoin="round" stroke-width="3"/>
      <path d="M811.48 213.22a546.74 546.74 0 01-67.74-15.15 552.33 552.33 0 01-58.74-20.6c13.26-42 32.47-97.78 32.47-97.78 2.4-9.18 29.91-9.93 61.44-1.68s55.15 22.37 52.75 31.54a4 4 0 01-.26.76c-1.28 7.21-11.4 62.44-19.92 102.91z" fill="none" stroke="#202020" stroke-linecap="round" stroke-linejoin="round" stroke-width="3"/>
      <path d="M801.42 254.4c-4.07 10.33-13.08 18.56-20.1 23.74a339.42 339.42 0 01-55.58-11.24 340.81 340.81 0 01-48-17.86c-3.26-7.8-6.29-18.27-4.91-28.26.86-6.25 5.83-23.22 12.16-43.31a554.06 554.06 0 0058.71 20.6 546.74 546.74 0 0067.74 15.15c-4.07 19.48-7.81 35.54-10.02 41.18z" fill="none" stroke="#202020" stroke-linecap="round" stroke-linejoin="round" stroke-width="3"/>
      <path d="M781.32 278.14a80.41 80.41 0 01-9.48 6.09s-17.09-1.11-44.66-8.31h-.12c-27.57-7.22-43-14.61-43-14.61a83.38 83.38 0 01-6.28-12.31 340.81 340.81 0 0048 17.86 340.09 340.09 0 0055.54 11.28zM743.74 198.07a552.33 552.33 0 01-58.74-20.6c13.26-42 32.47-97.78 32.47-97.78 2.4-9.18 29.91-9.93 61.44-1.68s55.15 22.37 52.75 31.54a4 4 0 01-.26.76c-1.31 7.21-11.42 62.44-19.95 102.91a546.28 546.28 0 01-67.71-15.15z" fill="none" stroke="#202020" stroke-linecap="round" stroke-linejoin="round" stroke-width="3"/>
      <path d="M801.42 254.4c-7.15 18.16-29.58 29.83-29.58 29.83s-17.09-1.11-44.66-8.31h-.12c-27.57-7.22-43-14.61-43-14.61s-13.85-21.16-11.19-40.5S717.5 79.69 717.5 79.69c2.4-9.18 29.91-9.93 61.44-1.68s55.15 22.37 52.75 31.54a4 4 0 01-.26.76c-1.95 10.69-23.2 126.76-30.01 144.09z" fill="none" stroke="#202020" stroke-linecap="round" stroke-linejoin="round" stroke-width="3"/>
      <path d="M831.43 110.31c-1.31 7.21-11.42 62.44-19.95 102.91a546.74 546.74 0 01-67.74-15.15 552.33 552.33 0 01-58.74-20.6c13.26-42 32.47-97.78 32.47-97.78 2.4-9.18 29.91-9.93 61.44-1.68s55.15 22.37 52.75 31.54a4.15 4.15 0 01-.23.76z" fill="none" stroke="#202020" stroke-linecap="round" stroke-linejoin="round" stroke-width="3"/>
      <path d="M811.48 213.22a546.74 546.74 0 01-67.74-15.15 552.33 552.33 0 01-58.74-20.6c13.26-42 32.47-97.78 32.47-97.78 2.4-9.18 29.91-9.93 61.44-1.68s55.15 22.37 52.75 31.54a4 4 0 01-.26.76c-1.28 7.21-11.4 62.44-19.92 102.91z" fill="none" stroke="#202020" stroke-linecap="round" stroke-linejoin="round" stroke-width="3"/>
      <path d="M801.42 254.4c-4.07 10.33-13.08 18.56-20.1 23.74a339.42 339.42 0 01-55.58-11.24 340.81 340.81 0 01-48-17.86c-3.26-7.8-6.29-18.27-4.91-28.26.86-6.25 5.83-23.22 12.16-43.31a554.06 554.06 0 0058.71 20.6 546.74 546.74 0 0067.74 15.15c-4.07 19.48-7.81 35.54-10.02 41.18z" fill="none" stroke="#202020" stroke-linecap="round" stroke-linejoin="round" stroke-width="3"/>
      <path d="M781.32 278.14a80.41 80.41 0 01-9.48 6.09s-17.09-1.11-44.66-8.31h-.12c-27.57-7.22-43-14.61-43-14.61a83.38 83.38 0 01-6.28-12.31 340.81 340.81 0 0048 17.86 340.09 340.09 0 0055.54 11.28zM743.74 198.07a552.33 552.33 0 01-58.74-20.6c13.26-42 32.47-97.78 32.47-97.78 2.4-9.18 29.91-9.93 61.44-1.68s55.15 22.37 52.75 31.54a4 4 0 01-.26.76c-1.31 7.21-11.42 62.44-19.95 102.91a546.28 546.28 0 01-67.71-15.15z" fill="none" stroke="#202020" stroke-linecap="round" stroke-linejoin="round" stroke-width="3"/>
      <path d="M801.42 254.4c-7.15 18.16-29.58 29.83-29.58 29.83s-17.09-1.11-44.66-8.31h-.12c-27.57-7.22-43-14.61-43-14.61s-13.85-21.16-11.19-40.5S717.5 79.69 717.5 79.69c2.4-9.18 29.91-9.93 61.44-1.68s55.15 22.37 52.75 31.54a4 4 0 01-.26.76c-1.95 10.69-23.2 126.76-30.01 144.09z" fill="none" stroke="#202020" stroke-linecap="round" stroke-linejoin="round" stroke-width="3"/>
      <path d="M831.43 110.31c-1.31 7.21-11.42 62.44-19.95 102.91a546.74 546.74 0 01-67.74-15.15 552.33 552.33 0 01-58.74-20.6c13.26-42 32.47-97.78 32.47-97.78 2.4-9.18 29.91-9.93 61.44-1.68s55.15 22.37 52.75 31.54a4.15 4.15 0 01-.23.76z" fill="none" stroke="#202020" stroke-linecap="round" stroke-linejoin="round" stroke-width="3"/>
      <path d="M811.48 213.22a546.74 546.74 0 01-67.74-15.15 552.33 552.33 0 01-58.74-20.6c13.26-42 32.47-97.78 32.47-97.78 2.4-9.18 29.91-9.93 61.44-1.68s55.15 22.37 52.75 31.54a4 4 0 01-.26.76c-1.28 7.21-11.4 62.44-19.92 102.91z" fill="none" stroke="#202020" stroke-linecap="round" stroke-linejoin="round" stroke-width="3"/>
      <path d="M801.42 254.4c-4.07 10.33-13.08 18.56-20.1 23.74a339.42 339.42 0 01-55.58-11.24 340.81 340.81 0 01-48-17.86c-3.26-7.8-6.29-18.27-4.91-28.26.86-6.25 5.83-23.22 12.16-43.31a554.06 554.06 0 0058.71 20.6 546.74 546.74 0 0067.74 15.15c-4.07 19.48-7.81 35.54-10.02 41.18z" fill="none" stroke="#202020" stroke-linecap="round" stroke-linejoin="round" stroke-width="3"/>
      <path d="M781.32 278.14a80.41 80.41 0 01-9.48 6.09s-17.09-1.11-44.66-8.31h-.12c-27.57-7.22-43-14.61-43-14.61a83.38 83.38 0 01-6.28-12.31 340.81 340.81 0 0048 17.86 340.09 340.09 0 0055.54 11.28zM743.74 198.07a552.33 552.33 0 01-58.74-20.6c13.26-42 32.47-97.78 32.47-97.78 2.4-9.18 29.91-9.93 61.44-1.68s55.15 22.37 52.75 31.54a4 4 0 01-.26.76c-1.31 7.21-11.42 62.44-19.95 102.91a546.28 546.28 0 01-67.71-15.15z" fill="none" stroke="#202020" stroke-linecap="round" stroke-linejoin="round" stroke-width="3"/>
      <path d="M801.42 254.4c-7.15 18.16-29.58 29.83-29.58 29.83s-17.09-1.11-44.66-8.31h-.12c-27.57-7.22-43-14.61-43-14.61s-13.85-21.16-11.19-40.5S717.5 79.69 717.5 79.69c2.4-9.18 29.91-9.93 61.44-1.68s55.15 22.37 52.75 31.54a4 4 0 01-.26.76c-1.95 10.69-23.2 126.76-30.01 144.09z" fill="none" stroke="#202020" stroke-linecap="round" stroke-linejoin="round" stroke-width="3"/>
      <path d="M831.43 110.31c-1.31 7.21-11.42 62.44-19.95 102.91a546.74 546.74 0 01-67.74-15.15 552.33 552.33 0 01-58.74-20.6c13.26-42 32.47-97.78 32.47-97.78 2.4-9.18 29.91-9.93 61.44-1.68s55.15 22.37 52.75 31.54a4.15 4.15 0 01-.23.76z" fill="none" stroke="#202020" stroke-linecap="round" stroke-linejoin="round" stroke-width="3"/>
      <path d="M811.48 213.22a546.74 546.74 0 01-67.74-15.15 552.33 552.33 0 01-58.74-20.6c13.26-42 32.47-97.78 32.47-97.78 2.4-9.18 29.91-9.93 61.44-1.68s55.15 22.37 52.75 31.54a4 4 0 01-.26.76c-1.28 7.21-11.4 62.44-19.92 102.91z" fill="none" stroke="#202020" stroke-linecap="round" stroke-linejoin="round" stroke-width="3"/>
      <path d="M743.74 198.07a552.33 552.33 0 01-58.74-20.6c13.26-42 32.47-97.78 32.47-97.78 2.4-9.18 29.91-9.93 61.44-1.68s55.15 22.37 52.75 31.54a4 4 0 01-.26.76c-1.31 7.21-11.42 62.44-19.95 102.91a546.28 546.28 0 01-67.71-15.15z" fill="none" stroke="#202020" stroke-linecap="round" stroke-linejoin="round" stroke-width="3"/>
      <ellipse cx="773.73" cy="88.16" rx=".93" ry="3.03" transform="rotate(-75.55 773.70749274 88.16953758)" fill="#d6d7d8"/>
      <ellipse cx="773.67" cy="98.93" rx=".93" ry="3.02" transform="rotate(-75.34 773.67380039 98.93115762)" fill="#414547"/>
      <ellipse cx="760.34" cy="90.92" rx=".93" ry="3.02" transform="rotate(-75.34 760.33516522 90.91740874)" fill="#b9bdc1"/>
      <ellipse cx="788.94" cy="98.4" rx=".93" ry="3.02" transform="rotate(-75.5 786.35592657 98.64633497)" fill="#8a8f93"/>
      <path fill="none" stroke="#fff" stroke-linecap="round" stroke-miterlimit="10" stroke-width="5" d="M785.16 61.37l5.77-23.5M801.57 65.8l7.53-8.86M769.44 59.57l-4.46-11.75"/>
      <path fill="#2f3335" d="M183.83882956 150.79067635L222.44590562 8.88881844l46.8085076 12.73513708-38.60707606 141.90185791z"/>
      <path d="M222.44 8.9l.69.19c-20.77 116-39.3 141.71-39.3 141.71z" style="isolation:isolate" fill="#6d6f70" opacity=".41"/>
      <circle cx="239.7" cy="37.86" r="10.31" fill="#414547"/>
      <circle cx="223.63" cy="63.82" r="5.68" fill="#414547"/>
      <circle cx="240.4" cy="68.38" r="5.68" fill="#414547"/>
      <path d="M269.25 21.64l-.68-.19C227.68 132 230.64 163.54 230.64 163.54zM241.2 62.9a7.69 7.69 0 00-3.9.1c4.7 1.11 7.69 4.92 7.32 8.94a5.48 5.48 0 001.24-2.07c.96-3.03-1.13-6.15-4.66-6.97zM223.92 58.33a9.48 9.48 0 00-3.4-.08c4.76 1.66 7.49 5.65 6.51 9.68a5.64 5.64 0 002-2.62c1.09-3.03-1.21-6.15-5.11-6.98zM241.13 27.91a14.06 14.06 0 00-3.83-.34c7.61 2.53 11.91 9.62 9.72 16.5-.1.31-.22.61-.35.91a10 10 0 002.92-4.42c1.74-5.49-2.04-11.15-8.46-12.65z" fill="#6d6f70"/>
      <circle cx="239.7" cy="37.86" r="10.31" fill="none" stroke="#202020" stroke-linecap="round" stroke-linejoin="round" stroke-width="3"/>
      <circle cx="223.63" cy="63.82" r="5.68" fill="none" stroke="#202020" stroke-linecap="round" stroke-linejoin="round" stroke-width="3"/>
      <circle cx="240.4" cy="68.38" r="5.68" fill="none" stroke="#202020" stroke-linecap="round" stroke-linejoin="round" stroke-width="3"/>
      <path fill="none" stroke="#202020" stroke-linecap="round" stroke-linejoin="round" stroke-width="3.00000006" d="M183.83882956 150.79067635L222.44590562 8.88881844l46.8085076 12.73513708-38.60707606 141.90185791z"/>
      <circle cx="239.7" cy="37.86" r="10.31" fill="none" stroke="#202020" stroke-linecap="round" stroke-linejoin="round" stroke-width="3"/>
      <circle cx="223.63" cy="63.82" r="5.68" fill="none" stroke="#202020" stroke-linecap="round" stroke-linejoin="round" stroke-width="3"/>
      <circle cx="240.4" cy="68.38" r="5.68" fill="none" stroke="#202020" stroke-linecap="round" stroke-linejoin="round" stroke-width="3"/>
      <path fill="none" stroke="#202020" stroke-linecap="round" stroke-linejoin="round" stroke-width="3.00000006" d="M183.83882956 150.79067635L222.44590562 8.88881844l46.8085076 12.73513708-38.60707606 141.90185791z"/>
    </g>
  </g>
</svg>