<svg xmlns="http://www.w3.org/2000/svg" viewBox="0 0 833.36 547.86"><defs><style>.cls-1,.cls-15,.cls-16,.cls-9{fill:none;}.cls-1{stroke:#fff;stroke-miterlimit:10;stroke-width:5px;}.cls-1,.cls-15,.cls-16,.cls-3,.cls-9{stroke-linecap:round;}.cls-19,.cls-2,.cls-8{fill:#414547;}.cls-2{opacity:0.55;}.cls-17,.cls-3{fill:#202020;}.cls-15,.cls-16,.cls-3,.cls-9{stroke:#202020;stroke-linejoin:round;}.cls-15,.cls-16,.cls-3{stroke-width:3px;}.cls-4{fill:#2f3335;}.cls-5{fill:#b9bdc1;}.cls-6{fill:#8a8f93;}.cls-20,.cls-7{fill:#6d6f70;}.cls-9{stroke-width:4px;}.cls-10{fill:#fff;}.cls-11{fill:#606060;opacity:0.16;}.cls-12{fill:#f2f3f4;}.cls-13,.cls-14{fill:#d6d7d8;}.cls-14,.cls-16{fill-rule:evenodd;}.cls-18{opacity:0.27;}.cls-19{opacity:0.25;}.cls-20{opacity:0.41;}</style></defs><title>Intro_Illy_Home</title><g id="Layer_2" data-name="Layer 2"><g id="Layer_3" data-name="Layer 3"><circle class="cls-1" cx="135.89" cy="113.23" r="5.62"/><line class="cls-1" x1="109.67" y1="145.14" x2="101.52" y2="164.64"/><line class="cls-1" x1="115.35" y1="158.96" x2="95.85" y2="150.81"/><path class="cls-2" d="M370.9,362.25c4.67-.74,9.37-1.47,14.14-2.21C450,350,505.56,342.9,549.75,337.93L562.16,14.42c-40.31,8.74-101.71,21.13-179.22,34Z"/><path class="cls-3" d="M183.2,389.82l-20.09,49.1,1.14-.17A13.56,13.56,0,0,0,174.47,431l19.81-42.93Z"/><polygon class="cls-3" points="189.74 418.43 196.15 417.44 191.53 387.47 185.38 390.19 189.74 418.43"/><path class="cls-3" d="M578.65,328.74l34,40.76-1.13.17a13.56,13.56,0,0,1-12.08-4.26l-31.84-35Z"/><polygon class="cls-3" points="581.03 357.99 574.63 358.98 570 329.02 576.67 329.76 581.03 357.99"/><path class="cls-4" d="M666.52,327.23S559.64,333.07,385,360c-156,24.1-261,48.83-281.56,53.82A3.5,3.5,0,0,1,99.2,411L50.14,93.32a3.49,3.49,0,0,1,3.22-4c20.91-1.41,126.53-9.22,281.17-33.11C507.78,29.43,616.29,2,616.29,2Z"/><path class="cls-5" d="M552.18,178.27h0c-3.34-21.63,5.36-41.68,20.25-50a1.41,1.41,0,0,0-1.11-.34c-21.13,3.26-41.7,27.67-37.75,53.26h0c3.49,24.81,30.8,42.43,52.06,39.39h0a1.49,1.49,0,0,0,1-.75C569.91,216.44,555.53,199.93,552.18,178.27Z"/><path class="cls-6" d="M504.58,186.15h0c-3.09-18.65,1.76-36.56,10.36-49.23a1.77,1.77,0,0,0-1-.13c-24.61,4-41.18,28-37,53.53h0c4.16,25.55,27.49,43,52.1,39a1.69,1.69,0,0,0,.85-.41A67.87,67.87,0,0,1,504.58,186.15Z"/><path class="cls-7" d="M455.76,148.22c-.22-1.32-1.15-2.27-2.08-2.11-21.1,3.44-34.82,26.94-30.66,52.49h0c4.17,25.55,24.65,43.47,45.74,40,.94-.15,1.52-1.34,1.3-2.66Z"/><circle class="cls-8" cx="365.21" cy="207.2" r="50.19" transform="translate(32.06 462.78) rotate(-67.06)"/><path class="cls-7" d="M259.14,176.15c-.94.14-1.54,1.32-1.35,2.65l12.84,88c.19,1.32,1.11,2.29,2,2.15,21.15-3.09,35.27-26.35,31.53-52h0C300.46,191.33,280.29,173.07,259.14,176.15Z"/><path class="cls-6" d="M198.84,185.47a1.63,1.63,0,0,0-.88.41c12,9.48,22,25.09,24.73,43.81h0a67.87,67.87,0,0,1-11.25,48.41,1.65,1.65,0,0,0,.93.13c24.68-3.6,41.65-27.28,37.91-52.9h0C246.55,199.71,223.52,181.87,198.84,185.47Z"/><path class="cls-5" d="M142.93,194.1a1.46,1.46,0,0,0-1,.66c16.7,3.44,31,19.93,34.38,41.56h0c3.35,21.66-5.38,41.73-20.3,50a1.42,1.42,0,0,0,1.19.41h0c21.18-3.51,41.9-28.55,37.74-53.26h0C191,207.91,164.05,190.84,142.93,194.1Z"/><path class="cls-5" d="M552.18,178.27h0c-3.34-21.63,5.36-41.68,20.25-50a1.41,1.41,0,0,0-1.11-.34c-21.13,3.26-41.7,27.67-37.75,53.26h0c3.49,24.81,30.8,42.43,52.06,39.39h0a1.49,1.49,0,0,0,1-.75C569.91,216.44,555.53,199.93,552.18,178.27Z"/><path class="cls-6" d="M504.58,186.15h0c-3.09-18.65,1.76-36.56,10.36-49.23a1.77,1.77,0,0,0-1-.13c-24.61,4-41.18,28-37,53.53h0c4.16,25.55,27.49,43,52.1,39a1.69,1.69,0,0,0,.85-.41A67.87,67.87,0,0,1,504.58,186.15Z"/><path class="cls-7" d="M455.76,148.22c-.22-1.32-1.15-2.27-2.08-2.11-21.1,3.44-34.82,26.94-30.66,52.49h0c4.17,25.55,24.65,43.47,45.74,40,.94-.15,1.52-1.34,1.3-2.66Z"/><circle class="cls-8" cx="365.21" cy="207.2" r="50.19" transform="translate(32.06 462.78) rotate(-67.06)"/><path class="cls-7" d="M259.14,176.15c-.94.14-1.54,1.32-1.35,2.65l12.84,88c.19,1.32,1.11,2.29,2,2.15,21.15-3.09,35.27-26.35,31.53-52h0C300.46,191.33,280.29,173.07,259.14,176.15Z"/><path class="cls-6" d="M198.84,185.47a1.63,1.63,0,0,0-.88.41c12,9.48,22,25.09,24.73,43.81h0a67.87,67.87,0,0,1-11.25,48.41,1.65,1.65,0,0,0,.93.13c24.68-3.6,41.65-27.28,37.91-52.9h0C246.55,199.71,223.52,181.87,198.84,185.47Z"/><path class="cls-5" d="M142.93,194.1a1.46,1.46,0,0,0-1,.66c16.7,3.44,31,19.93,34.38,41.56h0c3.35,21.66-5.38,41.73-20.3,50a1.42,1.42,0,0,0,1.19.41h0c21.18-3.51,41.9-28.55,37.74-53.26h0C191,207.91,164.05,190.84,142.93,194.1Z"/><path class="cls-2" d="M642.88,174.14,625.94,64.45A68.49,68.49,0,0,1,505.21,26.21c-41,8.13-92.22,17.54-151.73,27C348,93,375.58,128.06,419.59,153.3,457.49,175,453.88,279,343.93,268.61,242.06,259,195.83,323.76,211.55,390.49c46-9.12,104.81-19.84,173.49-30.45C463.27,348,557.51,336.4,605,331.43c31.58-71.81-30.23-67.05-50.86-108.67S597.54,141.54,642.88,174.14Z"/><path class="cls-9" d="M665.94,323.43a3.5,3.5,0,0,1-3.24,4C642.22,328.77,540.46,336,385,360c-156,24.1-261,48.83-281.56,53.82A3.5,3.5,0,0,1,99.2,411L50.14,93.32a3.49,3.49,0,0,1,3.22-4c20.91-1.41,126.53-9.22,281.17-33.11C507.78,29.43,616.29,2,616.29,2Z"/><path class="cls-10" d="M666.52,327.23S559.64,333.07,385,360c-156,24.1-261,48.83-281.56,53.82A3.5,3.5,0,0,1,99.2,411L50.14,93.32a3.49,3.49,0,0,1,3.22-4c20.91-1.41,126.53-9.22,281.17-33.11C507.78,29.43,616.29,2,616.29,2Z"/><circle class="cls-1" cx="135.89" cy="113.23" r="5.62"/><line class="cls-1" x1="109.67" y1="145.14" x2="101.52" y2="164.64"/><line class="cls-1" x1="115.35" y1="158.96" x2="95.85" y2="150.81"/><path class="cls-11" d="M218.5,142.75c4.68-23,.78-47-7-69.39C125,84.12,68.1,88.3,53.36,89.29a3.49,3.49,0,0,0-3.22,4L70.42,224.63C135.48,240.57,206.75,200.62,218.5,142.75Z"/><path class="cls-9" d="M665.94,323.43a3.5,3.5,0,0,1-3.24,4C642.22,328.77,540.46,336,385,360c-156,24.1-261,48.83-281.56,53.82A3.5,3.5,0,0,1,99.2,411L50.14,93.32a3.49,3.49,0,0,1,3.22-4c20.91-1.41,126.53-9.22,281.17-33.11C507.78,29.43,616.29,2,616.29,2Z"/><path class="cls-7" d="M165.14,445.53a77,77,0,0,1,5,17.45,8.5,8.5,0,0,0,9.81,7l33.71-5.5a8.52,8.52,0,0,0,7-9.81c-.43-2.62-1.59-10.89-.66-18.16L202.37,328.65a76.51,76.51,0,0,1-5-17.45,8.51,8.51,0,0,0-9.81-7.05l-33.71,5.51a8.5,8.5,0,0,0-7,9.8c.43,2.62,1.59,10.89.66,18.16Z"/><path class="cls-8" d="M219.35,436.22l-46.58,7.61c-5.59-33.79-18.45-113.09-19.4-118.93C151,310.66,174.2,317.45,172,306.7l-18.09,3a8.5,8.5,0,0,0-7,9.8c.43,2.62,1.59,10.89.66,18.16l17.64,107.91a76.51,76.51,0,0,1,5,17.45,8.5,8.5,0,0,0,9.81,7l33.71-5.5c4-.66,6.68-4.9,7-8.75l-36.77,6c-5,.82-8,.62-8.81-4.41v0a5.48,5.48,0,0,1,4.52-6.29l32-5.22a9.36,9.36,0,0,0,7.84-9.62Z"/><rect class="cls-12" x="139.19" y="333.16" width="89.18" height="108.16" rx="16.13" transform="translate(-60.04 34.71) rotate(-9.28)"/><path class="cls-13" d="M149,344l23.12-3.78c9.81-1.6,8.88-7.3,8.88-7.3l-34.61,5.65a16.13,16.13,0,0,0-13.32,18.52L145.29,432a16.14,16.14,0,0,0,18.52,13.32L214.75,437c-3.69-3.56-6.22-4.83-16.46-3.16l-33.7,5.51a11.12,11.12,0,0,1-12.75-9.17l-12-73.46A11.07,11.07,0,0,1,149,344Z"/><path class="cls-14" d="M223.21,349.63h0a5.4,5.4,0,0,1,6.21,4.46l2.24,13.67a5.41,5.41,0,0,1-4.47,6.21h0"/><path class="cls-15" d="M147.5,337.62c.93-7.27-.23-15.54-.66-18.16a8.5,8.5,0,0,1,7-9.8l33.71-5.51a8.51,8.51,0,0,1,9.81,7.05,76.51,76.51,0,0,0,5,17.45"/><rect class="cls-15" x="139.19" y="333.16" width="89.18" height="108.16" rx="16.13" transform="translate(-60.04 34.71) rotate(-9.28)"/><path class="cls-15" d="M220,436.56c-.93,7.27.23,15.54.66,18.16a8.52,8.52,0,0,1-7,9.81L179.91,470a8.5,8.5,0,0,1-9.81-7,77,77,0,0,0-5-17.45"/><path class="cls-16" d="M223.21,349.63h0a5.4,5.4,0,0,1,6.21,4.46l2.24,13.67a5.41,5.41,0,0,1-4.47,6.21h0"/><line class="cls-15" x1="168.74" y1="346.93" x2="185.15" y2="344.25"/><path class="cls-17" d="M196.39,423.47a1.83,1.83,0,1,0,2.1,1.51A1.83,1.83,0,0,0,196.39,423.47Z"/><path class="cls-17" d="M189.85,424.54a1.83,1.83,0,0,0,.59,3.61,1.83,1.83,0,1,0-.59-3.61Z"/><path class="cls-17" d="M183.3,425.61a1.83,1.83,0,1,0,2.1,1.51A1.83,1.83,0,0,0,183.3,425.61Z"/><rect class="cls-5" x="164.96" y="360.14" width="45.1" height="11.5" rx="5.75" transform="translate(-56.55 35.03) rotate(-9.28)"/><rect class="cls-5" x="187.32" y="377.27" width="25.67" height="11.5" rx="5.75" transform="translate(-59.15 37.29) rotate(-9.28)"/><rect class="cls-6" x="158.02" y="405.08" width="45.1" height="11.5" rx="5.75" transform="translate(-63.89 34.5) rotate(-9.28)"/><circle class="cls-1" cx="358.58" cy="12.69" r="7.46"/><line class="cls-1" x1="17.44" y1="320.97" x2="2.81" y2="336.22"/><line class="cls-1" x1="17.75" y1="335.91" x2="2.5" y2="321.27"/><circle class="cls-1" cx="276.56" cy="418.41" r="5.62"/><line class="cls-1" x1="485.1" y1="465.6" x2="470.46" y2="480.85"/><line class="cls-1" x1="485.4" y1="480.54" x2="470.16" y2="465.91"/><polyline class="cls-7" points="368.26 464.28 362.95 479.86 369.75 482.17 375.06 466.59"/><rect class="cls-5" x="504.89" y="182.68" width="24.15" height="15.63" rx="7.82" transform="translate(393.82 -346.51) rotate(56.86)"/><path class="cls-6" d="M518.47,198.43l-5-7.71a8.46,8.46,0,0,1,2.23-11.52,7.79,7.79,0,0,0-7.58,12l4.66,7.14a7.85,7.85,0,0,0,9.16,3.08A8.43,8.43,0,0,1,518.47,198.43Z"/><g class="cls-18"><path class="cls-13" d="M485.91,286.41l-45,132.17q-1-2-2-4c-2.42-4.59-5.48-9.29-10.29-11.28-8.57-3.54-17.87,3.13-23.9,10.17-6.23,7.26-11.42,15.42-18.1,22.23L334.53,418l31.15-91.45c.09,1.74.22,3.48.42,5.2.48,4,1.82,8.43,5.44,10.14,3.88,1.83,8.49-.4,11.67-3.26,5.74-5.15,9.28-12.27,14-18.37s11.63-11.53,19.32-10.88c7.86,9.76,1,27.3,11,34.95,5.93,4.57,15,2.37,20.48-2.73s8.31-12.37,11.26-19.26a288.38,288.38,0,0,1,19.85-38.27Z"/></g><path class="cls-7" d="M460.61,224.64a6.49,6.49,0,1,1-12.28-4.19"/><path class="cls-7" d="M514.24,200.3a6.49,6.49,0,1,1-7.09-10.87"/><rect class="cls-5" x="444.65" y="207.42" width="24.15" height="15.63" rx="7.82" transform="translate(93.78 -135.75) rotate(18.81)"/><path class="cls-6" d="M462.71,220.31l-8.06-2.74a7.84,7.84,0,0,1-4.88-9.92h0a7,7,0,0,1,.54-1.21,7.8,7.8,0,0,0-.14,14.82l8.07,2.75a7.84,7.84,0,0,0,9.38-3.67A7.78,7.78,0,0,1,462.71,220.31Z"/><path class="cls-13" d="M429.28,471.41a12.94,12.94,0,0,1-16.4,8.07L330.44,451.4a12.94,12.94,0,0,1-8.07-16.4l66.5-195.28a12.94,12.94,0,0,1,16.41-8.07l82.44,28.08a12.93,12.93,0,0,1,8.07,16.4Z"/><path class="cls-5" d="M338.27,441.85a5.38,5.38,0,0,1-3.35-6.81l63.45-186.29a7.74,7.74,0,0,1,9.83-4.83l24.86,8.46s16,6.3,19.66-4.57l-47.44-16.16a12.94,12.94,0,0,0-16.41,8.07L322.37,435a12.93,12.93,0,0,0,8.06,16.4l82.45,28.08c1-15.42-20.29-19.13-20.29-19.13Z"/><circle class="cls-13" cx="376.94" cy="449.93" r="9.38"/><rect class="cls-12" x="323.53" y="301.78" width="173.38" height="100.86" transform="translate(-55.44 626.97) rotate(-71.19)"/><path class="cls-5" d="M370.9,443.91c-.24.5-2,.5-2.17,1-2,6,.2,12.16,5,13.79a8,8,0,0,0,6-.42C373.74,456.07,369.36,451.29,370.9,443.91Z"/><path class="cls-10" d="M471.64,328.32l-30.75,90.26q-1-2-2-4c-2.42-4.59-5.48-9.29-10.29-11.28-8.57-3.54-17.71.48-23.74,7.52-6.23,7.26-5.46,22.73-18.26,24.88L334.53,418l31.15-91.45c.09,1.74.22,3.48.42,5.2.48,4,1.82,8.43,5.44,10.14,3.88,1.83,8.49-.4,11.67-3.26,5.74-5.15,10.11-11.7,14-18.37,5.78-9.88,11-13.55,19.32-10.88,12.64,3.19,1,27.3,11,34.95,5.93,4.57,15,2.37,20.48-2.73s8.31-12.37,11.26-19.26c5.65-13.23,13.27-18,20.5-17.84Z"/><path class="cls-15" d="M429.28,471.41a12.94,12.94,0,0,1-16.4,8.07L330.44,451.4a12.94,12.94,0,0,1-8.07-16.4l66.5-195.28a12.94,12.94,0,0,1,16.41-8.07l82.44,28.08a12.93,12.93,0,0,1,8.07,16.4Z"/><circle class="cls-15" cx="376.94" cy="449.93" r="9.38"/><rect class="cls-15" x="323.53" y="301.78" width="173.38" height="100.86" transform="translate(-55.44 626.97) rotate(-71.19)"/><path class="cls-15" d="M366.22,481c-10.61,31.15,38.95,84.68,98,58.31,56.86-25.37,112-157.51-56.11-159.81s-86-137.93-34.27-96.17"/><path class="cls-15" d="M460.11,208.14c36.47-13.83,103.68,55.45,19.73,117.5,0,0,81.39-42.76,45.56-124.73"/><rect class="cls-15" x="444.65" y="207.42" width="24.15" height="15.63" rx="7.82" transform="translate(93.78 -135.75) rotate(18.81)"/><path class="cls-15" d="M460.61,224.64a6.49,6.49,0,1,1-12.28-4.19"/><rect class="cls-15" x="504.89" y="182.68" width="24.15" height="15.63" rx="7.82" transform="translate(393.82 -346.51) rotate(56.86)"/><path class="cls-15" d="M514.24,200.3a6.49,6.49,0,1,1-7.09-10.87"/><polyline class="cls-15" points="368.26 464.28 362.95 479.86 369.75 482.17 375.06 466.59"/><line class="cls-15" x1="432.88" y1="256.52" x2="450.67" y2="262.58"/><path class="cls-7" d="M398,304.68a1.53,1.53,0,0,1-.63-.07,1.5,1.5,0,0,1-.93-1.91l3.34-9.8a1.5,1.5,0,1,1,2.84,1l-3.34,9.81A1.53,1.53,0,0,1,398,304.68Z"/><path class="cls-7" d="M405,312.52a1.49,1.49,0,0,1-1.56-2L410.11,291a1.5,1.5,0,1,1,2.84,1l-6.66,19.57A1.51,1.51,0,0,1,405,312.52Z"/><path class="cls-7" d="M421.36,321.42a1.5,1.5,0,0,1-1.57-2l8.71-25.56a1.49,1.49,0,0,1,1.9-.93,1.51,1.51,0,0,1,.94,1.9l-8.71,25.56A1.47,1.47,0,0,1,421.36,321.42Z"/><path class="cls-7" d="M414.71,312.49a1.54,1.54,0,0,1-.63-.08,1.49,1.49,0,0,1-.93-1.9l4.63-13.59a1.5,1.5,0,1,1,2.84,1L416,311.48A1.53,1.53,0,0,1,414.71,312.49Z"/><path class="cls-7" d="M432.72,316.51a1.39,1.39,0,0,1-.63-.08,1.49,1.49,0,0,1-.93-1.9l3.34-9.8a1.5,1.5,0,0,1,2.84,1L434,315.5A1.53,1.53,0,0,1,432.72,316.51Z"/><path class="cls-7" d="M439.74,324.35a1.49,1.49,0,0,1-1.56-2l6.66-19.57a1.5,1.5,0,1,1,2.84,1L441,323.34A1.53,1.53,0,0,1,439.74,324.35Z"/><path class="cls-7" d="M450.09,322.42a1.5,1.5,0,0,1-1.57-2l3.34-9.81a1.5,1.5,0,1,1,2.84,1l-3.34,9.8A1.48,1.48,0,0,1,450.09,322.42Z"/><path class="cls-13" d="M514.85,436.25a14.31,14.31,0,0,1-10.27-17.42l24.09-93.29a14.31,14.31,0,0,1,17.42-10.27l221,57.06a14.31,14.31,0,0,1,10.27,17.42L753.24,483a14.31,14.31,0,0,1-17.42,10.27Z"/><path class="cls-5" d="M518.27,417.46a5.94,5.94,0,0,0,4.27,7.23l210.81,54.38a8.57,8.57,0,0,0,10.44-6.15L751,444.78s3.86-18.58,16.17-15.41l-13.85,53.69a14.3,14.3,0,0,1-17.42,10.28l-221-57a14.3,14.3,0,0,1-10.27-17.41l24.07-93.31C543.63,334,534.13,356,534.13,356Z"/><rect class="cls-8" x="588.96" y="309.37" width="111.58" height="191.81" transform="translate(91.16 928.22) rotate(-75.52)"/><circle class="cls-13" cx="534.17" cy="376.72" r="10.37"/><path class="cls-15" d="M514.85,436.25a14.31,14.31,0,0,1-10.27-17.42l24.09-93.29a14.31,14.31,0,0,1,17.42-10.27l221,57.06a14.31,14.31,0,0,1,10.27,17.42L753.24,483a14.31,14.31,0,0,1-17.42,10.27Z"/><circle class="cls-15" cx="534.17" cy="376.72" r="10.37"/><line class="cls-15" x1="752.2" y1="422.28" x2="747" y2="442.41"/><path class="cls-4" d="M723.66,483.26,585.71,447.65a76.87,76.87,0,0,0-36.39-56.4l16.52-64,91.39,23.59c-7.23,51.82,23.68,92.69,70.94,114.94Z"/><rect class="cls-15" x="588.96" y="309.37" width="111.58" height="191.81" transform="translate(91.16 928.22) rotate(-75.52)"/><path class="cls-5" d="M646.31,394.52a12.72,12.72,0,1,0,9.31,15.4A12.71,12.71,0,0,0,646.31,394.52Zm1.39,14.17-8.15,2.36a.77.77,0,0,1-.37,0,.72.72,0,0,1-.53-.87l2-8.24a.71.71,0,0,1,.5-.52.74.74,0,0,1,.7.17l6.12,5.88a.72.72,0,0,1,.2.7A.71.71,0,0,1,647.7,408.69Z"/><path class="cls-3" d="M183.2,389.82l-20.09,49.1,1.14-.17A13.56,13.56,0,0,0,174.47,431l19.81-42.93Z"/><polygon class="cls-3" points="189.74 418.43 196.15 417.44 191.53 387.47 185.38 390.19 189.74 418.43"/><path class="cls-3" d="M578.65,328.74l34,40.76-1.13.17a13.56,13.56,0,0,1-12.08-4.26l-31.84-35Z"/><polygon class="cls-3" points="581.03 357.99 574.63 358.98 570 329.02 576.67 329.76 581.03 357.99"/><path class="cls-11" d="M642.88,174.14,625.94,64.45A68.49,68.49,0,0,1,505.21,26.21c-41,8.13-92.22,17.54-151.73,27C348,93,375.58,128.06,419.59,153.3,457.49,175,453.88,279,343.93,268.61,242.06,259,195.83,323.76,211.55,390.49c46-9.12,104.81-19.84,173.49-30.45C463.27,348,557.51,336.4,605,331.43c31.58-71.81-30.23-67.05-50.86-108.67S597.54,141.54,642.88,174.14Z"/><path class="cls-7" d="M165.14,445.53a77,77,0,0,1,5,17.45,8.5,8.5,0,0,0,9.81,7l33.71-5.5a8.52,8.52,0,0,0,7-9.81c-.43-2.62-1.59-10.89-.66-18.16L202.37,328.65a76.51,76.51,0,0,1-5-17.45,8.51,8.51,0,0,0-9.81-7.05l-33.71,5.51a8.5,8.5,0,0,0-7,9.8c.43,2.62,1.59,10.89.66,18.16Z"/><path class="cls-8" d="M219.35,436.22l-46.58,7.61c-5.59-33.79-18.45-113.09-19.4-118.93C151,310.66,174.2,317.45,172,306.7l-18.09,3a8.5,8.5,0,0,0-7,9.8c.43,2.62,1.59,10.89.66,18.16l17.64,107.91a76.51,76.51,0,0,1,5,17.45,8.5,8.5,0,0,0,9.81,7l33.71-5.5c4-.66,6.68-4.9,7-8.75l-36.77,6c-5,.82-8,.62-8.81-4.41v0a5.48,5.48,0,0,1,4.52-6.29l32-5.22a9.36,9.36,0,0,0,7.84-9.62Z"/><rect class="cls-12" x="139.19" y="333.16" width="89.18" height="108.16" rx="16.13" transform="translate(-60.04 34.71) rotate(-9.28)"/><path class="cls-13" d="M149,344l23.12-3.78c9.81-1.6,8.88-7.3,8.88-7.3l-34.61,5.65a16.13,16.13,0,0,0-13.32,18.52L145.29,432a16.14,16.14,0,0,0,18.52,13.32L214.75,437c-3.69-3.56-6.22-4.83-16.46-3.16l-33.7,5.51a11.12,11.12,0,0,1-12.75-9.17l-12-73.46A11.07,11.07,0,0,1,149,344Z"/><path class="cls-14" d="M223.21,349.63h0a5.4,5.4,0,0,1,6.21,4.46l2.24,13.67a5.41,5.41,0,0,1-4.47,6.21h0"/><path class="cls-15" d="M147.5,337.62c.93-7.27-.23-15.54-.66-18.16a8.5,8.5,0,0,1,7-9.8l33.71-5.51a8.51,8.51,0,0,1,9.81,7.05,76.51,76.51,0,0,0,5,17.45"/><rect class="cls-15" x="139.19" y="333.16" width="89.18" height="108.16" rx="16.13" transform="translate(-60.04 34.71) rotate(-9.28)"/><path class="cls-15" d="M220,436.56c-.93,7.27.23,15.54.66,18.16a8.52,8.52,0,0,1-7,9.81L179.91,470a8.5,8.5,0,0,1-9.81-7,77,77,0,0,0-5-17.45"/><path class="cls-16" d="M223.21,349.63h0a5.4,5.4,0,0,1,6.21,4.46l2.24,13.67a5.41,5.41,0,0,1-4.47,6.21h0"/><line class="cls-15" x1="168.74" y1="346.93" x2="185.15" y2="344.25"/><path class="cls-17" d="M196.39,423.47a1.83,1.83,0,1,0,2.1,1.51A1.83,1.83,0,0,0,196.39,423.47Z"/><path class="cls-17" d="M189.85,424.54a1.83,1.83,0,0,0,.59,3.61,1.83,1.83,0,1,0-.59-3.61Z"/><path class="cls-17" d="M183.3,425.61a1.83,1.83,0,1,0,2.1,1.51A1.83,1.83,0,0,0,183.3,425.61Z"/><rect class="cls-5" x="164.96" y="360.14" width="45.1" height="11.5" rx="5.75" transform="translate(-56.55 35.03) rotate(-9.28)"/><rect class="cls-5" x="187.32" y="377.27" width="25.67" height="11.5" rx="5.75" transform="translate(-59.15 37.29) rotate(-9.28)"/><rect class="cls-6" x="158.02" y="405.08" width="45.1" height="11.5" rx="5.75" transform="translate(-63.89 34.5) rotate(-9.28)"/><circle class="cls-1" cx="358.58" cy="12.69" r="7.46"/><line class="cls-1" x1="17.44" y1="320.97" x2="2.81" y2="336.22"/><line class="cls-1" x1="17.75" y1="335.91" x2="2.5" y2="321.27"/><circle class="cls-1" cx="276.56" cy="418.41" r="5.62"/><line class="cls-1" x1="485.1" y1="465.6" x2="470.46" y2="480.85"/><line class="cls-1" x1="485.4" y1="480.54" x2="470.16" y2="465.91"/><polyline class="cls-7" points="368.26 464.28 362.95 479.86 369.75 482.17 375.06 466.59"/><rect class="cls-5" x="504.89" y="182.68" width="24.15" height="15.63" rx="7.82" transform="translate(393.82 -346.51) rotate(56.86)"/><path class="cls-6" d="M518.47,198.43l-5-7.71a8.46,8.46,0,0,1,2.23-11.52,7.79,7.79,0,0,0-7.58,12l4.66,7.14a7.85,7.85,0,0,0,9.16,3.08A8.43,8.43,0,0,1,518.47,198.43Z"/><g class="cls-18"><path class="cls-13" d="M485.91,286.41l-45,132.17q-1-2-2-4c-2.42-4.59-5.48-9.29-10.29-11.28-8.57-3.54-17.87,3.13-23.9,10.17-6.23,7.26-11.42,15.42-18.1,22.23L334.53,418l31.15-91.45c.09,1.74.22,3.48.42,5.2.48,4,1.82,8.43,5.44,10.14,3.88,1.83,8.49-.4,11.67-3.26,5.74-5.15,9.28-12.27,14-18.37s11.63-11.53,19.32-10.88c7.86,9.76,1,27.3,11,34.95,5.93,4.57,15,2.37,20.48-2.73s8.31-12.37,11.26-19.26a288.38,288.38,0,0,1,19.85-38.27Z"/></g><path class="cls-7" d="M460.61,224.64a6.49,6.49,0,1,1-12.28-4.19"/><path class="cls-7" d="M514.24,200.3a6.49,6.49,0,1,1-7.09-10.87"/><rect class="cls-5" x="444.65" y="207.42" width="24.15" height="15.63" rx="7.82" transform="translate(93.78 -135.75) rotate(18.81)"/><path class="cls-6" d="M462.71,220.31l-8.06-2.74a7.84,7.84,0,0,1-4.88-9.92h0a7,7,0,0,1,.54-1.21,7.8,7.8,0,0,0-.14,14.82l8.07,2.75a7.84,7.84,0,0,0,9.38-3.67A7.78,7.78,0,0,1,462.71,220.31Z"/><path class="cls-13" d="M429.28,471.41a12.94,12.94,0,0,1-16.4,8.07L330.44,451.4a12.94,12.94,0,0,1-8.07-16.4l66.5-195.28a12.94,12.94,0,0,1,16.41-8.07l82.44,28.08a12.93,12.93,0,0,1,8.07,16.4Z"/><path class="cls-5" d="M338.27,441.85a5.38,5.38,0,0,1-3.35-6.81l63.45-186.29a7.74,7.74,0,0,1,9.83-4.83l24.86,8.46s16,6.3,19.66-4.57l-47.44-16.16a12.94,12.94,0,0,0-16.41,8.07L322.37,435a12.93,12.93,0,0,0,8.06,16.4l82.45,28.08c1-15.42-20.29-19.13-20.29-19.13Z"/><circle class="cls-13" cx="376.94" cy="449.93" r="9.38"/><rect class="cls-12" x="323.53" y="301.78" width="173.38" height="100.86" transform="translate(-55.44 626.97) rotate(-71.19)"/><path class="cls-5" d="M370.9,443.91c-.24.5-2,.5-2.17,1-2,6,.2,12.16,5,13.79a8,8,0,0,0,6-.42C373.74,456.07,369.36,451.29,370.9,443.91Z"/><path class="cls-10" d="M471.64,328.32l-30.75,90.26q-1-2-2-4c-2.42-4.59-5.48-9.29-10.29-11.28-8.57-3.54-17.71.48-23.74,7.52-6.23,7.26-5.46,22.73-18.26,24.88L334.53,418l31.15-91.45c.09,1.74.22,3.48.42,5.2.48,4,1.82,8.43,5.44,10.14,3.88,1.83,8.49-.4,11.67-3.26,5.74-5.15,10.11-11.7,14-18.37,5.78-9.88,11-13.55,19.32-10.88,12.64,3.19,1,27.3,11,34.95,5.93,4.57,15,2.37,20.48-2.73s8.31-12.37,11.26-19.26c5.65-13.23,13.27-18,20.5-17.84Z"/><path class="cls-15" d="M429.28,471.41a12.94,12.94,0,0,1-16.4,8.07L330.44,451.4a12.94,12.94,0,0,1-8.07-16.4l66.5-195.28a12.94,12.94,0,0,1,16.41-8.07l82.44,28.08a12.93,12.93,0,0,1,8.07,16.4Z"/><circle class="cls-15" cx="376.94" cy="449.93" r="9.38"/><rect class="cls-15" x="323.53" y="301.78" width="173.38" height="100.86" transform="translate(-55.44 626.97) rotate(-71.19)"/><path class="cls-15" d="M366.22,481c-10.61,31.15,38.95,84.68,98,58.31,56.86-25.37,112-157.51-56.11-159.81s-86-137.93-34.27-96.17"/><path class="cls-15" d="M460.11,208.14c36.47-13.83,103.68,55.45,19.73,117.5,0,0,81.39-42.76,45.56-124.73"/><rect class="cls-15" x="444.65" y="207.42" width="24.15" height="15.63" rx="7.82" transform="translate(93.78 -135.75) rotate(18.81)"/><path class="cls-15" d="M460.61,224.64a6.49,6.49,0,1,1-12.28-4.19"/><rect class="cls-15" x="504.89" y="182.68" width="24.15" height="15.63" rx="7.82" transform="translate(393.82 -346.51) rotate(56.86)"/><path class="cls-15" d="M514.24,200.3a6.49,6.49,0,1,1-7.09-10.87"/><polyline class="cls-15" points="368.26 464.28 362.95 479.86 369.75 482.17 375.06 466.59"/><line class="cls-15" x1="432.88" y1="256.52" x2="450.67" y2="262.58"/><path class="cls-7" d="M398,304.68a1.53,1.53,0,0,1-.63-.07,1.5,1.5,0,0,1-.93-1.91l3.34-9.8a1.5,1.5,0,1,1,2.84,1l-3.34,9.81A1.53,1.53,0,0,1,398,304.68Z"/><path class="cls-7" d="M405,312.52a1.49,1.49,0,0,1-1.56-2L410.11,291a1.5,1.5,0,1,1,2.84,1l-6.66,19.57A1.51,1.51,0,0,1,405,312.52Z"/><path class="cls-7" d="M421.36,321.42a1.5,1.5,0,0,1-1.57-2l8.71-25.56a1.49,1.49,0,0,1,1.9-.93,1.51,1.51,0,0,1,.94,1.9l-8.71,25.56A1.47,1.47,0,0,1,421.36,321.42Z"/><path class="cls-7" d="M414.71,312.49a1.54,1.54,0,0,1-.63-.08,1.49,1.49,0,0,1-.93-1.9l4.63-13.59a1.5,1.5,0,1,1,2.84,1L416,311.48A1.53,1.53,0,0,1,414.71,312.49Z"/><path class="cls-7" d="M432.72,316.51a1.39,1.39,0,0,1-.63-.08,1.49,1.49,0,0,1-.93-1.9l3.34-9.8a1.5,1.5,0,0,1,2.84,1L434,315.5A1.53,1.53,0,0,1,432.72,316.51Z"/><path class="cls-7" d="M439.74,324.35a1.49,1.49,0,0,1-1.56-2l6.66-19.57a1.5,1.5,0,1,1,2.84,1L441,323.34A1.53,1.53,0,0,1,439.74,324.35Z"/><path class="cls-7" d="M450.09,322.42a1.5,1.5,0,0,1-1.57-2l3.34-9.81a1.5,1.5,0,1,1,2.84,1l-3.34,9.8A1.48,1.48,0,0,1,450.09,322.42Z"/><path class="cls-13" d="M514.85,436.25a14.31,14.31,0,0,1-10.27-17.42l24.09-93.29a14.31,14.31,0,0,1,17.42-10.27l221,57.06a14.31,14.31,0,0,1,10.27,17.42L753.24,483a14.31,14.31,0,0,1-17.42,10.27Z"/><path class="cls-5" d="M518.27,417.46a5.94,5.94,0,0,0,4.27,7.23l210.81,54.38a8.57,8.57,0,0,0,10.44-6.15L751,444.78s3.86-18.58,16.17-15.41l-13.85,53.69a14.3,14.3,0,0,1-17.42,10.28l-221-57a14.3,14.3,0,0,1-10.27-17.41l24.07-93.31C543.63,334,534.13,356,534.13,356Z"/><rect class="cls-8" x="588.96" y="309.37" width="111.58" height="191.81" transform="translate(91.16 928.22) rotate(-75.52)"/><circle class="cls-13" cx="534.17" cy="376.72" r="10.37"/><path class="cls-15" d="M514.85,436.25a14.31,14.31,0,0,1-10.27-17.42l24.09-93.29a14.31,14.31,0,0,1,17.42-10.27l221,57.06a14.31,14.31,0,0,1,10.27,17.42L753.24,483a14.31,14.31,0,0,1-17.42,10.27Z"/><circle class="cls-15" cx="534.17" cy="376.72" r="10.37"/><line class="cls-15" x1="752.2" y1="422.28" x2="747" y2="442.41"/><path class="cls-4" d="M723.66,483.26,585.71,447.65a76.87,76.87,0,0,0-36.39-56.4l16.52-64,91.39,23.59c-7.23,51.82,23.68,92.69,70.94,114.94Z"/><rect class="cls-15" x="588.96" y="309.37" width="111.58" height="191.81" transform="translate(91.16 928.22) rotate(-75.52)"/><path class="cls-5" d="M646.31,394.52a12.72,12.72,0,1,0,9.31,15.4A12.71,12.71,0,0,0,646.31,394.52Zm1.39,14.17-8.15,2.36a.77.77,0,0,1-.37,0,.72.72,0,0,1-.53-.87l2-8.24a.71.71,0,0,1,.5-.52.74.74,0,0,1,.7.17l6.12,5.88a.72.72,0,0,1,.2.7A.71.71,0,0,1,647.7,408.69Z"/><path class="cls-5" d="M801.42,254.4c-4.07,10.33-13.08,18.56-20.1,23.74a339.4,339.4,0,0,1-55.58-11.24,341.32,341.32,0,0,1-48-17.86c-3.26-7.8-6.29-18.27-4.91-28.26.86-6.25,5.83-23.22,12.16-43.31a552.47,552.47,0,0,0,58.71,20.6,545.78,545.78,0,0,0,67.74,15.15C807.37,232.7,803.63,248.76,801.42,254.4Z"/><path class="cls-12" d="M743.74,198.07A552.47,552.47,0,0,1,685,177.47c13.26-42,32.47-97.78,32.47-97.78,2.4-9.18,29.91-9.93,61.44-1.68s55.15,22.37,52.75,31.54a4.26,4.26,0,0,1-.26.76c-1.31,7.21-11.42,62.44-19.95,102.91A545.78,545.78,0,0,1,743.74,198.07Z"/><path class="cls-19" d="M717.5,79.69s-42,121.75-44.63,141.09,11.19,40.5,11.19,40.5,3.54,1.69,10.25,4.25c-7-10.89-11.37-23.12-10.51-37.35,1.37-22.49,21.25-93.16,49.83-155.67C724.56,73.22,718.57,75.63,717.5,79.69Z"/><path class="cls-19" d="M771.38,286s22.43-11.67,29.58-29.83c6.81-17.33,28.06-133.41,30-144.09a5.29,5.29,0,0,0,.27-.76c1.28-4.9-4.88-11.22-15.7-17.3-2.45,27.71-8.25,83.88-17.72,121.06-11.31,44.4-18.19,47.49-42.61,68.79C765.55,285.6,771.38,286,771.38,286Z"/><ellipse class="cls-10" cx="774.54" cy="94.6" rx="17.17" ry="59.02" transform="translate(487.04 820) rotate(-75.34)"/><path class="cls-4" d="M781.32,278.14a80.94,80.94,0,0,1-9.48,6.09s-17.09-1.11-44.66-8.31l-.12,0c-27.57-7.22-43-14.61-43-14.61A82.76,82.76,0,0,1,677.78,249a341.32,341.32,0,0,0,48,17.86A339.4,339.4,0,0,0,781.32,278.14Z"/><ellipse class="cls-15" cx="774.54" cy="94.6" rx="17.17" ry="59.02" transform="translate(487.04 820) rotate(-75.34)"/><path class="cls-15" d="M801.42,254.4c-7.15,18.16-29.58,29.83-29.58,29.83s-17.09-1.11-44.66-8.31l-.12,0c-27.57-7.22-43-14.61-43-14.61s-13.85-21.16-11.19-40.5S717.5,79.69,717.5,79.69c2.4-9.18,29.91-9.93,61.44-1.68s55.15,22.37,52.75,31.54a4.26,4.26,0,0,1-.26.76C829.48,121,808.23,237.07,801.42,254.4Z"/><path class="cls-15" d="M831.43,110.31c-1.31,7.21-11.42,62.44-19.95,102.91a545.78,545.78,0,0,1-67.74-15.15A552.47,552.47,0,0,1,685,177.47c13.26-42,32.47-97.78,32.47-97.78,2.4-9.18,29.91-9.93,61.44-1.68s55.15,22.37,52.75,31.54A4.26,4.26,0,0,1,831.43,110.31Z"/><path class="cls-15" d="M811.48,213.22a545.78,545.78,0,0,1-67.74-15.15A552.47,552.47,0,0,1,685,177.47c13.26-42,32.47-97.78,32.47-97.78,2.4-9.18,29.91-9.93,61.44-1.68s55.15,22.37,52.75,31.54a4.26,4.26,0,0,1-.26.76C830.12,117.52,820,172.75,811.48,213.22Z"/><path class="cls-15" d="M801.42,254.4c-4.07,10.33-13.08,18.56-20.1,23.74a339.4,339.4,0,0,1-55.58-11.24,341.32,341.32,0,0,1-48-17.86c-3.26-7.8-6.29-18.27-4.91-28.26.86-6.25,5.83-23.22,12.16-43.31a552.47,552.47,0,0,0,58.71,20.6,545.78,545.78,0,0,0,67.74,15.15C807.37,232.7,803.63,248.76,801.42,254.4Z"/><path class="cls-15" d="M781.32,278.14a80.94,80.94,0,0,1-9.48,6.09s-17.09-1.11-44.66-8.31l-.12,0c-27.57-7.22-43-14.61-43-14.61A82.76,82.76,0,0,1,677.78,249a341.32,341.32,0,0,0,48,17.86A339.4,339.4,0,0,0,781.32,278.14Z"/><path class="cls-15" d="M743.74,198.07A552.47,552.47,0,0,1,685,177.47c13.26-42,32.47-97.78,32.47-97.78,2.4-9.18,29.91-9.93,61.44-1.68s55.15,22.37,52.75,31.54a4.26,4.26,0,0,1-.26.76c-1.31,7.21-11.42,62.44-19.95,102.91A545.78,545.78,0,0,1,743.74,198.07Z"/><path class="cls-15" d="M801.42,254.4c-7.15,18.16-29.58,29.83-29.58,29.83s-17.09-1.11-44.66-8.31l-.12,0c-27.57-7.22-43-14.61-43-14.61s-13.85-21.16-11.19-40.5S717.5,79.69,717.5,79.69c2.4-9.18,29.91-9.93,61.44-1.68s55.15,22.37,52.75,31.54a4.26,4.26,0,0,1-.26.76C829.48,121,808.23,237.07,801.42,254.4Z"/><path class="cls-15" d="M831.43,110.31c-1.31,7.21-11.42,62.44-19.95,102.91a545.78,545.78,0,0,1-67.74-15.15A552.47,552.47,0,0,1,685,177.47c13.26-42,32.47-97.78,32.47-97.78,2.4-9.18,29.91-9.93,61.44-1.68s55.15,22.37,52.75,31.54A4.26,4.26,0,0,1,831.43,110.31Z"/><path class="cls-15" d="M811.48,213.22a545.78,545.78,0,0,1-67.74-15.15A552.47,552.47,0,0,1,685,177.47c13.26-42,32.47-97.78,32.47-97.78,2.4-9.18,29.91-9.93,61.44-1.68s55.15,22.37,52.75,31.54a4.26,4.26,0,0,1-.26.76C830.12,117.52,820,172.75,811.48,213.22Z"/><path class="cls-15" d="M801.42,254.4c-4.07,10.33-13.08,18.56-20.1,23.74a339.4,339.4,0,0,1-55.58-11.24,341.32,341.32,0,0,1-48-17.86c-3.26-7.8-6.29-18.27-4.91-28.26.86-6.25,5.83-23.22,12.16-43.31a552.47,552.47,0,0,0,58.71,20.6,545.78,545.78,0,0,0,67.74,15.15C807.37,232.7,803.63,248.76,801.42,254.4Z"/><path class="cls-15" d="M781.32,278.14a80.94,80.94,0,0,1-9.48,6.09s-17.09-1.11-44.66-8.31l-.12,0c-27.57-7.22-43-14.61-43-14.61A82.76,82.76,0,0,1,677.78,249a341.32,341.32,0,0,0,48,17.86A339.4,339.4,0,0,0,781.32,278.14Z"/><path class="cls-15" d="M743.74,198.07A552.47,552.47,0,0,1,685,177.47c13.26-42,32.47-97.78,32.47-97.78,2.4-9.18,29.91-9.93,61.44-1.68s55.15,22.37,52.75,31.54a4.26,4.26,0,0,1-.26.76c-1.31,7.21-11.42,62.44-19.95,102.91A545.78,545.78,0,0,1,743.74,198.07Z"/><path class="cls-15" d="M801.42,254.4c-7.15,18.16-29.58,29.83-29.58,29.83s-17.09-1.11-44.66-8.31l-.12,0c-27.57-7.22-43-14.61-43-14.61s-13.85-21.16-11.19-40.5S717.5,79.69,717.5,79.69c2.4-9.18,29.91-9.93,61.44-1.68s55.15,22.37,52.75,31.54a4.26,4.26,0,0,1-.26.76C829.48,121,808.23,237.07,801.42,254.4Z"/><path class="cls-15" d="M831.43,110.31c-1.31,7.21-11.42,62.44-19.95,102.91a545.78,545.78,0,0,1-67.74-15.15A552.47,552.47,0,0,1,685,177.47c13.26-42,32.47-97.78,32.47-97.78,2.4-9.18,29.91-9.93,61.44-1.68s55.15,22.37,52.75,31.54A4.26,4.26,0,0,1,831.43,110.31Z"/><path class="cls-15" d="M811.48,213.22a545.78,545.78,0,0,1-67.74-15.15A552.47,552.47,0,0,1,685,177.47c13.26-42,32.47-97.78,32.47-97.78,2.4-9.18,29.91-9.93,61.44-1.68s55.15,22.37,52.75,31.54a4.26,4.26,0,0,1-.26.76C830.12,117.52,820,172.75,811.48,213.22Z"/><path class="cls-15" d="M801.42,254.4c-4.07,10.33-13.08,18.56-20.1,23.74a339.4,339.4,0,0,1-55.58-11.24,341.32,341.32,0,0,1-48-17.86c-3.26-7.8-6.29-18.27-4.91-28.26.86-6.25,5.83-23.22,12.16-43.31a552.47,552.47,0,0,0,58.71,20.6,545.78,545.78,0,0,0,67.74,15.15C807.37,232.7,803.63,248.76,801.42,254.4Z"/><path class="cls-15" d="M781.32,278.14a80.94,80.94,0,0,1-9.48,6.09s-17.09-1.11-44.66-8.31l-.12,0c-27.57-7.22-43-14.61-43-14.61A82.76,82.76,0,0,1,677.78,249a341.32,341.32,0,0,0,48,17.86A339.4,339.4,0,0,0,781.32,278.14Z"/><path class="cls-15" d="M743.74,198.07A552.47,552.47,0,0,1,685,177.47c13.26-42,32.47-97.78,32.47-97.78,2.4-9.18,29.91-9.93,61.44-1.68s55.15,22.37,52.75,31.54a4.26,4.26,0,0,1-.26.76c-1.31,7.21-11.42,62.44-19.95,102.91A545.78,545.78,0,0,1,743.74,198.07Z"/><path class="cls-15" d="M801.42,254.4c-7.15,18.16-29.58,29.83-29.58,29.83s-17.09-1.11-44.66-8.31l-.12,0c-27.57-7.22-43-14.61-43-14.61s-13.85-21.16-11.19-40.5S717.5,79.69,717.5,79.69c2.4-9.18,29.91-9.93,61.44-1.68s55.15,22.37,52.75,31.54a4.26,4.26,0,0,1-.26.76C829.48,121,808.23,237.07,801.42,254.4Z"/><path class="cls-15" d="M831.43,110.31c-1.31,7.21-11.42,62.44-19.95,102.91a545.78,545.78,0,0,1-67.74-15.15A552.47,552.47,0,0,1,685,177.47c13.26-42,32.47-97.78,32.47-97.78,2.4-9.18,29.91-9.93,61.44-1.68s55.15,22.37,52.75,31.54A4.26,4.26,0,0,1,831.43,110.31Z"/><path class="cls-15" d="M811.48,213.22a545.78,545.78,0,0,1-67.74-15.15A552.47,552.47,0,0,1,685,177.47c13.26-42,32.47-97.78,32.47-97.78,2.4-9.18,29.91-9.93,61.44-1.68s55.15,22.37,52.75,31.54a4.26,4.26,0,0,1-.26.76C830.12,117.52,820,172.75,811.48,213.22Z"/><path class="cls-15" d="M743.74,198.07A552.47,552.47,0,0,1,685,177.47c13.26-42,32.47-97.78,32.47-97.78,2.4-9.18,29.91-9.93,61.44-1.68s55.15,22.37,52.75,31.54a4.26,4.26,0,0,1-.26.76c-1.31,7.21-11.42,62.44-19.95,102.91A545.78,545.78,0,0,1,743.74,198.07Z"/><ellipse class="cls-13" cx="775.85" cy="90.4" rx="0.93" ry="3.02" transform="matrix(0.25, -0.97, 0.97, 0.25, 492.08, 818.13)"/><ellipse class="cls-8" cx="773.63" cy="98.91" rx="0.93" ry="3.02" transform="translate(482.19 822.34) rotate(-75.34)"/><ellipse class="cls-5" cx="760.3" cy="90.9" rx="0.93" ry="3.02" transform="translate(479.98 803.46) rotate(-75.34)"/><ellipse class="cls-6" cx="788.89" cy="98.38" rx="0.93" ry="3.02" transform="translate(494.11 836.71) rotate(-75.34)"/><line class="cls-1" x1="785.16" y1="61.37" x2="790.93" y2="37.87"/><line class="cls-1" x1="801.57" y1="65.8" x2="809.1" y2="56.94"/><line class="cls-1" x1="769.44" y1="59.57" x2="764.98" y2="47.82"/><rect class="cls-4" x="202.29" y="12.69" width="48.51" height="147.06" transform="translate(30.59 -56.46) rotate(15.22)"/><path class="cls-20" d="M222.44,8.9l.69.19c-20.77,116-39.3,141.71-39.3,141.71Z"/><circle class="cls-8" cx="239.7" cy="37.86" r="10.31"/><circle class="cls-8" cx="223.63" cy="63.82" r="5.68"/><circle class="cls-8" cx="240.4" cy="68.38" r="5.68"/><path class="cls-7" d="M269.25,21.64l-.68-.19C227.68,132,230.64,163.54,230.64,163.54Z"/><path class="cls-7" d="M241.2,62.9a7.66,7.66,0,0,0-3.9.1c4.7,1.11,7.69,4.92,7.32,8.94a5.41,5.41,0,0,0,1.24-2.07C246.82,66.84,244.73,63.72,241.2,62.9Z"/><path class="cls-7" d="M223.92,58.33a9.51,9.51,0,0,0-3.4-.08c4.76,1.66,7.49,5.65,6.51,9.68a5.63,5.63,0,0,0,2-2.62C230.12,62.28,227.82,59.16,223.92,58.33Z"/><path class="cls-7" d="M241.13,27.91a13.88,13.88,0,0,0-3.83-.34c7.61,2.53,11.91,9.62,9.72,16.5-.1.31-.22.61-.35.91a10,10,0,0,0,2.92-4.42C251.33,35.07,247.55,29.41,241.13,27.91Z"/><circle class="cls-15" cx="239.7" cy="37.86" r="10.31"/><circle class="cls-15" cx="223.63" cy="63.82" r="5.68"/><circle class="cls-15" cx="240.4" cy="68.38" r="5.68"/><rect class="cls-15" x="202.29" y="12.69" width="48.51" height="147.06" transform="translate(30.59 -56.46) rotate(15.22)"/><circle class="cls-15" cx="239.7" cy="37.86" r="10.31"/><circle class="cls-15" cx="223.63" cy="63.82" r="5.68"/><circle class="cls-15" cx="240.4" cy="68.38" r="5.68"/><rect class="cls-15" x="202.29" y="12.69" width="48.51" height="147.06" transform="translate(30.59 -56.46) rotate(15.22)"/></g></g></svg>