<?xml version="1.0" encoding="utf-8"?>
<!-- Generator: Adobe Illustrator 21.0.0, SVG Export Plug-In . SVG Version: 6.00 Build 0)  -->
<svg version="1.1"
	 id="svg6637" inkscape:version="0.91 r13725" sodipodi:docname="Autism Speaks logo website.svg" xmlns:cc="http://creativecommons.org/ns#" xmlns:dc="http://purl.org/dc/elements/1.1/" xmlns:inkscape="http://www.inkscape.org/namespaces/inkscape" xmlns:rdf="http://www.w3.org/1999/02/22-rdf-syntax-ns#" xmlns:sodipodi="http://sodipodi.sourceforge.net/DTD/sodipodi-0.dtd" xmlns:svg="http://www.w3.org/2000/svg"
	 xmlns="http://www.w3.org/2000/svg" xmlns:xlink="http://www.w3.org/1999/xlink" x="0px" y="0px" viewBox="0 0 356.8 142.1"
	 style="enable-background:new 0 0 356.8 142.1;" xml:space="preserve">
<style type="text/css">
	.st0{fill:#5A8FD2;}
</style>
<image style="overflow:visible;enable-background:new    ;" width="3296" height="1200" id="image6687" xlink:href="4FE46EE6.png"  transform="matrix(1.136105e-03 0 0 3.120502e-03 -381 -151.7989)">
</image>
<sodipodi:namedview  bordercolor="#666666" borderopacity="1" fit-margin-bottom="0" fit-margin-left="0" fit-margin-right="0" fit-margin-top="0" gridtolerance="10" guidetolerance="10" id="namedview6639" inkscape:current-layer="g7155" inkscape:cx="257.77238" inkscape:cy="87.754914" inkscape:pageopacity="0" inkscape:pageshadow="2" inkscape:window-height="705" inkscape:window-maximized="1" inkscape:window-width="1366" inkscape:window-x="-8" inkscape:window-y="-8" inkscape:zoom="1.2339869" objecttolerance="10" pagecolor="#ffffff" showgrid="false">
	</sodipodi:namedview>
<g id="g7155">
	<g id="g7161" transform="matrix(4.3219621,0,0,4.2961608,390.50279,132.06725)">
		<path id="path7163" inkscape:connector-curvature="0" class="st0" d="M-80.7,57.8c0,0-23-4-45.1-4c-22.2,0-47.1,4-47.1,4
			s-3-0.3-3-3c0-2.7-1.2-12.2-1.2-12.2c-0.8-6.5-1.3-10.7-1.3-10.7s-0.2-4.2,3.9-6c4-1.8,5.9,0.1,7.9,1.3c2,1.3,3.9,2.3,5.7,2.3
			c3.5,0.2,7.9-3,10-6.4c2.2-3.4,5.6-8.8,2.2-18.1c-2.8-7.9-11.1-7-14.1-5c-1.3,0.8-5.9,2.8-7.9,1.8c-2-1-5-1.2-4.7-8.2
			c0.3-5.9,1.5-19.3,1.5-19.3l0.3-4.9c0,0,0-3.1,2.4-3.1c3.7,0,29.3,0.2,29.3,0.2s1.8,0.7,4-1.5c2.2-2.2,1.7-4.9,0.3-7
			c-1.3-2.2-5.1-10,0.8-17.6c4.9-6.2,9.9-6.5,12.7-6.5c2.8,0,8.7,1.5,12.2,7.5c3.5,6,3,10.9,1,14.7c-2,3.8-3.8,8-1.2,11.1
			c1.2,1.4,3.5,2.2,6.9,1.8c4.7-0.5,19.8-2.5,19.8-2.5l4.9-0.8c0,0,1.2,7.2,2.3,13.9c1.2,6.7,2.3,12.7,2.3,12.7
			c0.7,2.3,0.5,4.5-1.2,6c-1.7,1.5-3.7,3.5-8.7,1.2c-5.9-2.8-9.9-2.7-14.6,1c-4.7,3.7-5,11.9-3.5,15.9c1.5,4,3.6,8.4,8.9,9.4
			c3.9,0.8,6.7-1,7.9-2.2c1-1,4.2-2.7,7-1c2.9,1.7,3.7,3.2,3.4,6.7c-0.3,3.5-1.2,19.1-1.2,19.1l-0.5,5.2c0,0,0.3,1.8-0.2,2.7
			C-79.2,57.5-80.7,57.8-80.7,57.8"/>
	</g>
	<g id="g7165" transform="matrix(2.0878057,0,0,2.1731238,421.06424,174.90444)">
		<path id="path7167" inkscape:connector-curvature="0" class="st0" d="M-113.2,2.3c-20.7,0-26,14-26,23.1c0,7,2.5,14.5,15.6,23.7
			c12,8.5,13.1,11.9,13.1,15.7c0,6.5-5.2,9.4-11,9.4c-5.5,0-11.8-2.6-16.2-5.7c-1.2,0.7-3.6,6.2-3.5,9c0,1.8,0.7,3,3,4.6
			c3.3,2.4,9.8,4.5,18.3,4.5c14.3,0,28-7.6,28-24.3c0-13.2-7.9-18.2-15.9-24.3c-9.7-7.3-14.3-9.9-14.3-15.6c0-4.7,3.9-7.9,9.3-7.9
			c3.9,0,7,1.2,8.8,2.1c2.6,1.4,4.6,1.6,6.3-1.2c1-1.7,1.9-4.6,2-7.2c-2.4-2.7-9.2-6.1-17.4-6.1H-113.2z"/>
	</g>
	<g id="g7169" transform="matrix(2.0878057,0,0,2.1731238,434.60636,137.33764)">
		<path id="path7171" inkscape:connector-curvature="0" class="st0" d="M-89.3,100.5c0,1.9,0.9,2.3,3,2.3c3.7,0,13-0.4,15.2-1
			c-0.1-2.6-0.4-6.1-0.4-15.2V33.1c1.4-0.3,3-0.3,4.1-0.3c7.1,0,13.7,3.6,13.7,14.4c0,12.5-7.5,15-12.6,15h-1.9
			c0.3,4.7,2.7,9.3,5.5,10.4c1.1,0.5,2.6,0.8,4.2,0.8c7.5-0.1,23.3-6.3,23.3-25.6c0-19.9-13.6-27-33.2-27c-10.1,0-18.4,1-21.4,1.7
			c0.5,5.9,0.5,11.2,0.5,17.4V100.5z"/>
	</g>
	<g id="g7173" transform="matrix(2.0878057,0,0,2.1731238,462.73265,138.0539)">
		<path id="path7175" inkscape:connector-curvature="0" class="st0" d="M-39.7,98.7l1.9,2.6c3,0.6,10.9,1.3,22.2,1.3
			c10,0,14.4-0.2,16.2-0.6C3.9,99.8,6.7,96,8,89.5l-0.3-0.3C1.2,89.8-7.2,89.8-12,89.8c-4.2,0-7-0.2-9.9-0.8V66.6h16.4
			c4.5,0.1,6.2-0.9,8.6-12.8h-25V34h10.7C-5.7,34-2,34,0,33.2c1.5-1.8,3.6-4.9,4.4-12h-28.4c-5.9,0.1-12.3,0.9-16.2,1.8
			c0.4,5.7,0.4,10.1,0.4,16.2V98.7z"/>
	</g>
	<g id="g7177" transform="matrix(2.0878057,0,0,2.1731238,496.9923,151.80956)">
		<path id="path7179" inkscape:connector-curvature="0" class="st0" d="M20.7,62.7c4.6-12.9,6.8-19.5,9.6-27.4
			c1.2,3.2,3.9,11,9.1,27.4H20.7z M42.8,75.2c2.1,6.1,3.4,10.3,5.6,16.8c1.2,3.6,2.2,4.2,4.3,4.2c3.2,0,12.9-0.6,15.7-1.5l0.3-1.2
			c-2.6-5.9-5.2-13.2-10.4-27c-4-10.9-12.6-35.1-18.4-49.5c-0.7-1.8-1.9-2.4-2.9-2.4c-1.4,0-9.6,0.5-15.1,1.7l0.8,2.3
			c-4.8,12-23.8,59.3-30.1,75l0.2,1c3,0.9,9.9,1.7,13.1,1.7c2.2,0,3.2-0.6,3.7-1.9c1.5-3.9,4.8-12.9,7-19.1
			C16.7,75.2,42.8,75.2,42.8,75.2z"/>
	</g>
	<g id="g7181" transform="matrix(2.0878057,0,0,2.1731238,521.70529,137.45738)">
		<path id="path7183" inkscape:connector-curvature="0" class="st0" d="M64.2,100.2c0,2.2,0.9,2.6,3,2.6c3.2,0,13-0.4,15.2-1
			c-0.1-2.6-0.4-6.8-0.4-15.8V61.1c1.6,3.6,16.5,28.1,21.9,35.6c3.9,5.4,6.5,6.4,11,6.4c6.4,0,12.6-1,13.8-1.8l0.4-0.9
			c-7.4-8.8-23.1-32.6-28.6-41.9c8.1-10,19.2-24,23.7-30.5c2.5-3.7,2.4-5.7-2.6-6.5c-3.9-0.7-8.6-0.8-11-0.8
			C102.8,31.3,91.1,47,82,58.5V28.2c0-5.7-0.4-7.1-2.8-7.1c-2.9,0-12.9,0.7-15.4,1c0.3,2.5,0.4,7.7,0.4,16.4V100.2z"/>
	</g>
	<g id="g7185" transform="matrix(2.0878057,0,0,2.1731238,563.00893,174.90444)">
		<path id="path7187" inkscape:connector-curvature="0" class="st0" d="M137.1,2.3c-20.7,0-26,14-26,23.1c0,7,2.5,14.5,15.6,23.7
			c12,8.5,13.1,11.9,13.1,15.7c0,6.5-5.2,9.4-11,9.4c-5.5,0-11.8-2.6-16.3-5.7c-1.2,0.7-3.6,6.2-3.6,9c0,1.8,0.7,3,3.1,4.6
			c3.2,2.4,9.8,4.5,18.3,4.5c14.3,0,28-7.6,28-24.3c0-13.2-8-18.2-15.9-24.3c-9.7-7.3-14.2-9.9-14.2-15.6c0-4.7,3.9-7.9,9.3-7.9
			c3.9,0,7,1.2,8.8,2.1c2.6,1.4,4.6,1.6,6.3-1.2c1-1.7,1.9-4.6,2-7.2c-2.4-2.7-9.2-6.1-17.4-6.1H137.1z"/>
	</g>
	<g id="g7189" transform="matrix(2.0878057,0,0,2.1731238,578.7865,174.96354)">
		<path id="path7191" inkscape:connector-curvature="0" class="st0" d="M164.9,2.2c6.3,0,11.3,5.1,11.3,11.4c0,6.4-5,11.5-11.4,11.5
			c-6.3,0-11.4-5.1-11.4-11.5C153.4,7.3,158.5,2.2,164.9,2.2L164.9,2.2z M164.8,4.5c-4.8,0-8.7,4.1-8.7,9.2c0,5.1,3.9,9.2,8.7,9.2
			c4.8,0,8.7-4,8.7-9.2C173.6,8.6,169.7,4.5,164.8,4.5C164.8,4.5,164.8,4.5,164.8,4.5z M162.8,20.3h-2.7V7.6c1-0.1,2.1-0.4,4.1-0.4
			c2.2,0,3.5,0.4,4.4,1c0.7,0.6,1.1,1.4,1.1,2.8c0,1.5-1.1,2.6-2.4,3V14c1.1,0.2,1.8,1.2,2,3.1c0.2,2,0.5,2.7,0.7,3.2h-2.8
			c-0.3-0.5-0.5-1.6-0.8-3.3c-0.2-1.4-1-1.9-2.4-1.9h-1.2V20.3z M162.8,13h1.3c1.6,0,2.8-0.5,2.8-1.8c0-1.1-0.8-1.9-2.6-1.9
			c-0.7,0-1.1,0-1.5,0.1V13z"/>
	</g>
	<g id="g7193" transform="matrix(2.0878057,0,0,2.1731238,416.99823,195.01499)">
		<path id="path7195" inkscape:connector-curvature="0" class="st0" d="M-120.4-50.2c4.5-12.9,6.8-19.5,9.6-27.4
			c1.2,3.2,3.9,11,9.1,27.4H-120.4z M-98.2-37.7c2.1,6.1,3.4,10.3,5.6,16.7c1.2,3.6,2.2,4.2,4.3,4.2c3.2,0,12.9-0.6,15.7-1.5
			l0.3-1.2c-2.6-5.9-5.2-13.2-10.4-27c-4-10.9-12.7-35.1-18.4-49.5c-0.8-1.8-1.9-2.4-2.9-2.4c-1.4,0-9.6,0.5-15,1.7l0.8,2.3
			c-4.8,12-23.8,59.3-30.1,75l0.2,1c3.1,0.9,9.8,1.7,13.1,1.7c2.2,0,3.2-0.6,3.7-1.9c1.5-3.9,4.8-12.9,7-19.1
			C-124.4-37.7-98.2-37.7-98.2-37.7z"/>
	</g>
	<g id="g7197" transform="matrix(2.0878057,0,0,2.1731238,449.36778,213.84404)">
		<path id="path7199" inkscape:connector-curvature="0" class="st0" d="M-63.3-99.5c0-6.3-0.4-7.7-2.8-7.7c-2.9,0-12.9,0.6-15.4,1
			c0.2,2.7,0.4,8,0.4,16.6v26c0,27,11.2,39.2,33.4,39.2c16.7,0,34.5-5.9,34.5-42.4v-17c0-10.7,0.1-18.3,0.4-23.5
			c-2.5,0-9.8,0.1-13.5,0.5c-1.8,0.2-2.8,0.7-2.8,3.3v36.8c0,22.3-6.8,29.1-17.2,29.1c-8.3,0-17-5.5-17-28.3V-99.5z"/>
	</g>
	<g id="g7201" transform="matrix(2.0878057,0,0,2.1731238,485.5983,180.54134)">
		<path id="path7203" inkscape:connector-curvature="0" class="st0" d="M0.6-12.4c0,1.9,0.9,2.3,3,2.3c5.9,0,11.3-0.4,15.2-1
			c-0.1-2.6-0.4-6.8-0.4-15.7v-51.8h18.2c2.9-0.6,6.9-4.4,7.5-12.8H-1.3c-11.9,0-15.4-0.1-17.6-0.7c-1.4,1.6-3.1,4.4-4.5,9
			c-1,3.3,0.1,4.4,2.2,4.4H0.6V-12.4z"/>
	</g>
	<g id="g7205" transform="matrix(2.0878057,0,0,2.1731238,507.81047,180.66195)">
		<path id="path7207" inkscape:connector-curvature="0" class="st0" d="M39.7-12.7c0,2.2,0.9,2.6,3,2.6c3.2,0,13-0.4,15.2-1
			c-0.1-2.6-0.4-6.8-0.4-15.8v-57.7c0-5.9-0.4-7.2-2.8-7.2c-2.9,0-12.9,0.7-15.4,1c0.2,2.5,0.4,7.7,0.4,16.4V-12.7z"/>
	</g>
	<g id="g7209" transform="matrix(2.0878057,0,0,2.1731238,531.77659,218.10813)">
		<path id="path7211" inkscape:connector-curvature="0" class="st0" d="M82-110.6c-20.7,0-26,14-26,23.1c0,7,2.6,14.5,15.6,23.7
			c12,8.5,13.1,11.9,13.1,15.7c0,6.5-5.2,9.4-11,9.4c-5.5,0-11.8-2.6-16.2-5.7c-1.2,0.7-3.6,6.2-3.6,9c0,1.8,0.8,3,3.1,4.6
			c3.2,2.4,9.8,4.5,18.3,4.5c14.3,0,28-7.6,28-24.3c0-13.2-8-18.2-15.9-24.3c-9.7-7.3-14.2-9.9-14.2-15.6c0-4.7,3.9-7.9,9.3-7.9
			c3.9,0,7,1.2,8.8,2.1c2.5,1.4,4.6,1.6,6.3-1.2c1-1.7,1.9-4.6,2-7.2c-2.4-2.7-9.2-6.1-17.4-6.1H82z"/>
	</g>
	<g id="g7213" transform="matrix(2.0878057,0,0,2.1731238,543.37416,179.99479)">
		<path id="path7215" inkscape:connector-curvature="0" class="st0" d="M102.4-11c2,1.1,9.6,1.1,13.7,1.1c1.4,0,2-0.5,2.3-1.9
			c2-15.7,4.9-44.3,5.9-58.4c5,16.6,15.3,50.4,17.9,59.5c3,0,6.5-0.5,9.1-1c3.1-0.6,4.2-1.7,5-4.5c7.8-24.4,14.4-43.8,17.4-54.3
			l2.7,28.9c1.3,14.5,2.1,22,2.7,28.4c0.3,2.8,2,3.4,3.7,3.4c2.7,0,12.1-0.5,14.3-1.1c-1-6.2-2.4-15.7-4.2-29.3l-6.1-47.1
			c-0.4-3.4-1.2-4.2-2.6-4.2c-3.3,0-13.4,0.8-15.5,2v1.7c-5.2,13.2-13.5,34.6-18.8,49.3l-15.7-46.7c-1.9-5.6-2.6-6.4-4.7-6.3
			c-6.9,0-12.1,1.2-15.6,2l0.2,2.1C109.3-57.8,104.6-24.6,102.4-11"/>
	</g>
</g>
</svg>
