<svg xmlns="http://www.w3.org/2000/svg" viewBox="0 0 736.47 532.61"><defs><style>.cls-1{fill:#313c55;}</style></defs><title>Asset 3</title><g id="Layer_2" data-name="Layer 2"><g id="Layer_1-2" data-name="Layer 1"><path class="cls-1" d="M729.75,173.46H594.19V6.9a6.9,6.9,0,0,0-6.9-6.9H6.9A6.9,6.9,0,0,0,0,6.9V180.18c0,.13,0,.25,0,.37a6.34,6.34,0,0,0,.07.75c0,.22.09.42.14.63s.12.43.2.65.17.41.26.61.21.39.32.58.24.36.37.54.28.36.43.52.31.32.47.47l.51.42c.2.14.41.27.63.4s.2.14.31.2l165.64,84.93a6.91,6.91,0,0,0,2.39.67v75.64H47.06a6.32,6.32,0,0,0-6.32,6.3l-.64,172.4a6.32,6.32,0,0,0,6.32,6.35H533.18a6.33,6.33,0,0,0,6.32-6.3l.31-84.61,192.42-81.89a6.82,6.82,0,0,0,2.81-2.25,6.62,6.62,0,0,0,1.43-4.1V180.18A6.72,6.72,0,0,0,729.75,173.46ZM13.8,13.8H580.39V173.28H13.8ZM526.88,520H52.76l.6-159.77H527.47ZM723,346.73H185.23V187.08H587.29a6.86,6.86,0,0,0,1.51-.18H723Z"/><path class="cls-1" d="M106.64,92.74c4-2.25,7.41-5.8,7.41-12.16v-.16a13,13,0,0,0-3.86-9.59c-3.23-3.22-8.3-5-14.74-5H69.27v56.38H96.09c12.73,0,21.1-5.16,21.1-15.47v-.16C117.19,99,113.16,95.24,106.64,92.74Zm-25.29-16H93.59c5.24,0,8.14,2.1,8.14,5.8v.16c0,4.19-3.46,6-8.94,6H81.35Zm23.52,28.52c0,4.18-3.3,6.12-8.78,6.12H81.35V98.94H95.69c6.36,0,9.18,2.34,9.18,6.12Z"/><path class="cls-1" d="M154.82,65.44l-24.16,56.78H143.3l5.16-12.65H172.3l5.15,12.65h13L166.26,65.44Zm-1.93,33.18,7.49-18.28,7.49,18.28Z"/><polygon class="cls-1" points="220.47 88.47 207.02 65.84 192.53 65.84 214.19 99.99 214.19 122.22 226.59 122.22 226.59 99.75 248.26 65.84 234.16 65.84 220.47 88.47"/><path class="cls-1" d="M295.87,65.44l-24.16,56.78h12.65l5.15-12.65h23.84l5.16,12.65h13L307.31,65.44Zm-1.93,33.18,7.49-18.28,7.49,18.28Z"/><path class="cls-1" d="M395.27,84.61v-.16c0-5.32-1.69-9.75-4.83-12.89-3.7-3.7-9.26-5.72-16.43-5.72H348.24v56.38h12.4v-18h9.75l12.08,18H397l-13.78-20.14C390.36,99.43,395.27,93.71,395.27,84.61Zm-12.56.64c0,4.75-3.46,8-9.5,8H360.64V77H373c6,0,9.74,2.73,9.74,8Z"/><polygon class="cls-1" points="426.86 99.34 453.44 99.34 453.44 88.31 426.86 88.31 426.86 76.88 457.06 76.88 457.06 65.84 414.54 65.84 414.54 122.22 457.47 122.22 457.47 111.18 426.86 111.18 426.86 99.34"/><path class="cls-1" d="M495.9,65.44l-24.16,56.78h12.64l5.16-12.65h23.84l5.15,12.65h13L507.34,65.44ZM494,98.62l7.49-18.28L509,98.62Z"/><polygon class="cls-1" points="274.78 263.43 251.9 263.43 251.9 241.12 239.5 241.12 239.5 297.49 251.9 297.49 251.9 274.86 274.78 274.86 274.78 297.49 287.18 297.49 287.18 241.12 274.78 241.12 274.78 263.43"/><path class="cls-1" d="M336.33,240.15c-17.4,0-30,13.13-30,29.16v.16c0,16,12.48,29,29.87,29s30-13.13,30-29.15v-.16C366.2,253.12,353.72,240.15,336.33,240.15Zm16.91,29.32c0,9.66-6.93,17.56-16.91,17.56s-17.08-8.06-17.08-17.72v-.16c0-9.67,6.93-17.56,16.91-17.56s17.08,8,17.08,17.72Z"/><path class="cls-1" d="M421.15,273.41c0,8.94-4.59,13.53-12.16,13.53s-12.16-4.75-12.16-13.93V241.12h-12.4v32.21c0,16.59,9.26,25.05,24.4,25.05s24.72-8.38,24.72-25.45V241.12h-12.4Z"/><path class="cls-1" d="M477.14,263.75C467.4,261.25,465,260,465,256.34v-.16c0-2.74,2.5-4.91,7.25-4.91s9.66,2.09,14.66,5.55l6.44-9.34a32.63,32.63,0,0,0-20.94-7.17c-11.52,0-19.73,6.77-19.73,17v.16c0,11.19,7.33,14.33,18.68,17.23,9.43,2.42,11.36,4,11.36,7.17V282c0,3.3-3.06,5.32-8.14,5.32-6.44,0-11.75-2.66-16.83-6.85l-7.33,8.78a35.9,35.9,0,0,0,23.92,9c12.16,0,20.7-6.28,20.7-17.48v-.16C495,270.84,488.58,266.73,477.14,263.75Z"/><rect class="cls-1" x="514.45" y="241.12" width="12.4" height="56.37"/><polygon class="cls-1" points="586.86 275.83 560.44 241.12 549.01 241.12 549.01 297.49 561.25 297.49 561.25 261.66 588.55 297.49 599.1 297.49 599.1 241.12 586.86 241.12 586.86 275.83"/><path class="cls-1" d="M647.84,298.46a36.55,36.55,0,0,0,24.08-8.94V265H647.44v10.71h12.48v8.05a19.73,19.73,0,0,1-11.67,3.39c-10,0-17.08-7.57-17.08-17.88v-.16c0-9.59,7.17-17.56,16.19-17.56,6.52,0,10.39,2.09,14.74,5.72l7.81-9.43c-5.88-5-12-7.73-22.15-7.73-17.07,0-29.55,13.13-29.55,29.16v.16C618.21,286.14,630.29,298.46,647.84,298.46Z"/><polygon class="cls-1" points="109.17 449.15 136.07 449.15 136.07 437.88 109.17 437.88 109.17 425.88 139.69 425.88 139.69 414.61 96.77 414.61 96.77 470.98 109.17 470.98 109.17 449.15"/><path class="cls-1" d="M185.05,472c17.4,0,30-13.13,30-29.16v-.16c0-16-12.48-29-29.88-29s-30,13.12-30,29.15V443C155.17,459,167.66,472,185.05,472Zm-16.91-29.32c0-9.66,6.93-17.56,16.91-17.56s17.08,8.06,17.08,17.72V443c0,9.67-6.93,17.56-16.92,17.56s-17.07-8.05-17.07-17.72Z"/><path class="cls-1" d="M246.6,452.94h9.75l12.08,18h14.49l-13.77-20.13c7.17-2.66,12.08-8.38,12.08-17.48v-.16c0-5.32-1.69-9.75-4.83-12.89-3.7-3.7-9.26-5.71-16.43-5.71H234.2V471h12.4Zm0-27.14h12.32c6,0,9.75,2.74,9.75,8.05V434c0,4.76-3.46,8-9.5,8H246.6Z"/><path class="cls-1" d="M331.19,458.33H355L360.18,471h13L349,414.2H337.55L313.39,471H326Zm11.92-29.23,7.49,18.28h-15Z"/><polygon class="cls-1" points="430.43 459.7 402.32 459.7 402.32 414.61 389.92 414.61 389.92 470.98 430.43 470.98 430.43 459.7"/><polygon class="cls-1" points="488.35 459.7 460.24 459.7 460.24 414.61 447.84 414.61 447.84 470.98 488.35 470.98 488.35 459.7"/></g></g></svg>