<svg xmlns="http://www.w3.org/2000/svg" viewBox="0 0 1733.11 716.86"><defs><style>.cls-1,.cls-2{fill:#ff0080;}.cls-1{fill-rule:evenodd;}</style></defs><title>Asset 1</title><g id="Layer_2" data-name="Layer 2"><g id="Layer_1-2" data-name="Layer 1"><path class="cls-1" d="M1527.89,88.87S1478-61.46,1285.61,28.92c0,0-85.44,31.37-118.31,186.12-.17.73-.3,1.48-.46,2.23l.91-.11-1.1,1c.06-.27.11-.57.19-.86-19.19,2.41-37.27,4.61-52.94,6.38-90.25,10.31-302.51-42-293.92,3.17,0,0,16.67,105.59,93.36,91.93,71.81-12.77,63.3-41.27,242.9-50.9,0-.05,0-.11,0-.13l.08.1a.09.09,0,0,0-.08,0c-31.72,153.79-68.24,357.7-27,361.4,0,0,59.22,17,61.31,0,0,0-35.2-199.11-.37-362.55l1.1-.41c1.39-.05,2.76-.1,4.16-.13,0,0,390.73,6.33,332.47-177.29M1373.68,189.66s-86.41,12.07-168.68,22.72c-.08.22-.14.43-.22.65l-.45-.54a5.5,5.5,0,0,0,.67-.11c25.41-74.11,70.3-133.42,146.75-150.8,0,0,89-26.73,134.31,30.67,0,0,33.35,76.05-112.38,97.41"/><path class="cls-2" d="M0,369H37V469.67q13.52-19.2,32.9-27.74A99.4,99.4,0,0,1,108.11,433a100.83,100.83,0,0,1,36.47,6.77,92.42,92.42,0,0,1,31.29,19.91,100.35,100.35,0,0,1,22.06,32q8.32,18.84,8.34,43,0,23.47-7.8,42.51a99.77,99.77,0,0,1-21.18,32.52,90.93,90.93,0,0,1-31.63,20.82,104.52,104.52,0,0,1-39,7.3q-24.87,0-43.39-10.87T35.56,598.8v33.41H0Zm169.3,166.1a67.81,67.81,0,0,0-19.22-47.84,66.62,66.62,0,0,0-21.14-14.41,65.87,65.87,0,0,0-26.51-5.32,67.64,67.64,0,0,0-27.21,5.32,64.45,64.45,0,0,0-21.15,14.59A65.11,65.11,0,0,0,40.36,509a71.3,71.3,0,0,0-4.8,26.14,72.74,72.74,0,0,0,4.8,26.33,67.71,67.71,0,0,0,13.33,21.68,63.34,63.34,0,0,0,20.64,14.76,64,64,0,0,0,27,5.52q16.38,0,29.17-5.87a64.07,64.07,0,0,0,21.36-15.46,66.73,66.73,0,0,0,13-21.9,71.48,71.48,0,0,0,4.46-24.71Z"/><path class="cls-2" d="M239.72,438.73h34.86v28.45q8.16-17.07,22.94-25.41t34.67-8.72v37h-2.5q-53,0-53,57.64V632.21h-37Z"/><path class="cls-2" d="M364.9,369h37v39.12h-37Zm0,69.71h37V632.21h-37Z"/><path class="cls-2" d="M642.32,609.82q0,25.6-6,42.5a92.25,92.25,0,0,1-16.71,29.33Q606,697.31,584.71,707.09a110.46,110.46,0,0,1-46.59,9.77q-20.64,0-36.81-5.5A100.88,100.88,0,0,1,473,696.76a83.29,83.29,0,0,1-19.72-20.61,87.93,87.93,0,0,1-11.22-23.66h42.7q6.39,13.15,21.33,22.4a54.2,54.2,0,0,0,17.95,8.19,69.84,69.84,0,0,0,15.49,2.14,67.52,67.52,0,0,0,45-17.44,63.85,63.85,0,0,0,15.1-21q5.69-12.45,5.69-28.8V598.07q-8.54,16.38-26,28.09t-43.74,11.75a100.52,100.52,0,0,1-40-7.83A96.52,96.52,0,0,1,464,608.56a98.32,98.32,0,0,1-20.79-32.18,106.06,106.06,0,0,1-7.46-40.19c0-15.16,2.52-29,7.65-41.62A97.79,97.79,0,0,1,464.49,462a96.7,96.7,0,0,1,31.83-21.36A101.19,101.19,0,0,1,535.63,433q24.55,0,43,11.21t26.67,27.21V438.72h37ZM472.68,535.3a74.12,74.12,0,0,0,4.61,26,63.87,63.87,0,0,0,13.34,21.76,65,65,0,0,0,21.17,14.79,72.44,72.44,0,0,0,54.61.37,63.56,63.56,0,0,0,20.79-14.46,66.5,66.5,0,0,0,13.53-21A73.48,73.48,0,0,0,606,536.37a81.19,81.19,0,0,0-3.73-23.72,64.59,64.59,0,0,0-11.91-22.27,60.12,60.12,0,0,0-20.64-16.58q-12.43-6.24-30.21-6.26a67.36,67.36,0,0,0-47.12,18.73A63.63,63.63,0,0,0,478,507.47,69.31,69.31,0,0,0,472.68,535Z"/><path class="cls-2" d="M685,369h37v96.42a50.89,50.89,0,0,1,11-14.63,64,64,0,0,1,15.08-10.19,68.73,68.73,0,0,1,17.74-5.8,102.64,102.64,0,0,1,19-1.77q22.7,0,37.59,7.11a62.29,62.29,0,0,1,24.13,19.91,76.23,76.23,0,0,1,12.93,29.36,171.39,171.39,0,0,1,3.76,37.16V632.21h-37V528.15a110.54,110.54,0,0,0-2.49-24.26,51.17,51.17,0,0,0-8.54-19.24A42.24,42.24,0,0,0,799,472q-9.78-4.47-24.36-4.45-14.94,0-24.9,5a45.93,45.93,0,0,0-16,12.86A52.57,52.57,0,0,0,724.83,503,71.32,71.32,0,0,0,722,522.78V632.21H685Z"/><polygon class="cls-2" points="921.53 467.54 886.67 467.54 886.67 438.72 921.53 438.72 921.53 369.01 958.53 369.01 958.53 438.72 995.86 438.72 995.86 467.54 958.53 467.54 958.53 632.23 921.53 632.23 921.53 467.54"/><path class="cls-2" d="M1233.44,369h37v39.12h-37Zm0,69.71h37V632.21h-37Z"/><path class="cls-2" d="M1315.24,438.73h34.86V468.6q7.08-14.93,23.24-25.41t42.05-10.14q23.05.36,38.13,8A65.41,65.41,0,0,1,1477.46,461a75.54,75.54,0,0,1,12.42,27.59,133.65,133.65,0,0,1,3.54,30.22V632.21h-37V527.07a101.52,101.52,0,0,0-2.65-24.07,52,52,0,0,0-8.72-18.89,39.13,39.13,0,0,0-15.84-12.29q-9.78-4.26-24-4.26-27.37.31-40.17,15.85t-12.83,40.82v108h-37Z"/><polygon class="cls-2" points="1531.84 369.02 1568.85 369.02 1568.85 515.22 1644.6 438.74 1689.41 438.74 1603.33 523.75 1691.88 632.21 1648.87 632.21 1568.85 532.63 1568.85 632.21 1531.84 632.21 1531.84 369.02"/><path class="cls-2" d="M1718.33,468.48a14.82,14.82,0,1,1,14.78-14.82,14.82,14.82,0,0,1-14.78,14.82m0-26.68a11.86,11.86,0,1,0,11.7,11.86,11.74,11.74,0,0,0-11.7-11.86m4.11,20.48a7.26,7.26,0,0,1-.51-3.14c-.11-2.71-.65-3.65-3.57-3.65h-3.44v6.79H1712v-17h7.3c3,0,5.82,1.12,5.82,4.61A3.87,3.87,0,0,1,1722,454v.08c2.31.67,2.71,2,2.82,4.24,0,1.13,0,2.9.53,3.92ZM1722,449.4c-.51-1.21-2.1-1.32-3.22-1.32h-3.87v4.7h3.71c1.87,0,3.56-.51,3.56-2.71a1.74,1.74,0,0,0-.18-.67"/></g></g></svg>