<svg xmlns="http://www.w3.org/2000/svg" viewBox="0 0 433.52 106.44"><defs><style>.cls-1{fill:#127e89;}.cls-2{fill:#137e89;}.cls-3{fill:#117e89;}.cls-4{fill:#1c808a;}.cls-5{fill:#1a7f8a;}.cls-6{fill:#157f89;}.cls-7{fill:#147f89;}.cls-8{fill:#197f8a;}.cls-9{fill:#177f89;}.cls-10{fill:#167f89;}.cls-11{fill:#187f89;}.cls-12{fill:#f15c2a;}.cls-13{fill:#197f89;}.cls-14{fill:#1e808a;}.cls-15{fill:#f15e2c;}.cls-16{fill:#f1602e;}</style></defs><title>Asset 1</title><g id="Layer_2" data-name="Layer 2"><g id="Layer_1-2" data-name="Layer 1"><path class="cls-1" d="M85.78,41.76,62.28,65.25,41.52,44.49,65,21Z"/><path class="cls-2" d="M38.82,41.73,20.57,23.5,44.07,0,62.32,18.24Z"/><path class="cls-3" d="M34.21,93.59Q28.3,99.5,22.34,105.42a1.62,1.62,0,0,1-1,.43c-7,0-14.07,0-21.29,0v-1.19q0-9,0-18a2,2,0,0,1,.35-1.3c4.26-4.33,8.56-8.62,12.79-12.85Z"/><path class="cls-2" d="M88.14,105.87c-3.66,0-7.13,0-10.6,0a1.61,1.61,0,0,1-1-.47Q64.33,93.22,52.17,81a1.48,1.48,0,0,1-.16-.22l10.5-10.5a8,8,0,0,0,.66.87Q75.25,83.28,87.35,95.35a2.47,2.47,0,0,1,.8,2C88.11,100.13,88.14,102.92,88.14,105.87Z"/><path class="cls-1" d="M88,91.13l-23-23L88,45Z"/><path class="cls-4" d="M166.59,43.43h7V70.75c-2.06,0-4.05,0-6,0-.36,0-.78-.46-1-.82-3-4.58-6-9.17-8.95-13.76-.14-.22-.31-.43-.69-.93V70.68H150V43.38c1.63,0,3.3.13,4.94,0a3.18,3.18,0,0,1,3.43,1.82c2.55,4.19,5.29,8.27,8.18,12.37Z"/><path class="cls-5" d="M305.25,70.69h-7V43.39c2.32,0,4.62,0,6.92,0,.28,0,.61.45.81.75,2.68,4.12,5.34,8.26,8,12.38.23.37.48.72.88,1.32V43.49h6.95V70.75c-2,0-4,0-6,0-.32,0-.72-.43-.93-.76q-4.41-6.72-8.76-13.46l-.88-1.3Z"/><path class="cls-5" d="M102.67,78.46c2.29,0,4.49,0,6.69,0a1.65,1.65,0,0,1,1,.78c2.69,4.11,5.34,8.24,8,12.37.23.36.48.71.89,1.31V78.55h6.94v27.28c-2,0-4,0-6,0-.32,0-.71-.43-.93-.76q-4.4-6.72-8.76-13.46c-.21-.33-.44-.66-.84-1.27v15.44h-7Z"/><path class="cls-5" d="M386.32,105.79V78.46h1.43c3.83.07,7.7-.13,11.5.27,6.95.73,11.16,5.62,11.31,12.61.11,4.63-1.11,8.7-4.92,11.66a13,13,0,0,1-7.67,2.75C394.14,105.9,390.3,105.79,386.32,105.79Zm7.79-6.17c.94,0,1.77,0,2.6,0a5.44,5.44,0,0,0,5.43-4.38,15.41,15.41,0,0,0,.16-5.33c-.68-4.1-4.07-6.11-8.19-5.1Z"/><path class="cls-6" d="M221.81,105.78V78.47c.66,0,1.28,0,1.91,0,4.11.07,8.22.1,12.33.27a9.22,9.22,0,0,1,3.07.89,5.89,5.89,0,0,1,3.72,5.3,6.17,6.17,0,0,1-2.92,6.14,5.36,5.36,0,0,0-.49.34s0,.07-.07.16l.72.33a6.14,6.14,0,0,1,3.8,5.51c.14,2.81-.66,5.29-3.24,6.58a16,16,0,0,1-6,1.71C230.4,106,226.16,105.78,221.81,105.78Zm7.47-5.27a41.19,41.19,0,0,0,4.31,0,3.1,3.1,0,0,0-.09-6.17c-1.37-.12-2.77,0-4.22,0Zm0-11a36.61,36.61,0,0,0,4.08,0,2.64,2.64,0,0,0,2.44-2.77,2.53,2.53,0,0,0-2.26-2.78,30.2,30.2,0,0,0-4.26,0Z"/><path class="cls-7" d="M301.26,78.5h7.59v9.91H317V78.56h7.67v27.2H317.1V95.25h-8.17v10.5h-7.67Z"/><path class="cls-6" d="M193.5,78.52h7.59v9.91h8.21V78.54H217v27.2h-7.59V95.27h-8.23v10.49H193.5Z"/><path class="cls-8" d="M226,43.15c5,.25,10,.21,14.87.82a7.48,7.48,0,0,1,6.72,6.7c.62,3.88-.61,7.09-4.06,9.25l-.38.29a1,1,0,0,0-.08.2c2,3.05,4,6.15,6.11,9.38-2.61.48-5.1,1-7.6,1.36-.25,0-.66-.35-.85-.63-1.41-2.23-2.85-4.44-4.15-6.73-.69-1.22-1.49-1.79-3-1.28v8.18H226Zm7.57,6v7.62a34.59,34.59,0,0,0,4.18-.42,3.41,3.41,0,0,0,2.48-3.77,3.19,3.19,0,0,0-2.76-3.15C236.25,49.23,235,49.24,233.59,49.15Z"/><path class="cls-6" d="M292.49,95.35c2.1,3.2,4.1,6.28,6.21,9.51-1.71.32-3.3.64-4.89.92-3.09.55-3.09.55-4.77-2.12-1-1.62-2-3.26-3-4.89s-.93-1.49-2.86-1.21v8.18h-7.55V78.6s.11-.11.17-.11c4.52.07,9.06-.16,13.54.29A8.6,8.6,0,0,1,296.58,91,9.07,9.07,0,0,1,292.49,95.35Zm-9.4-11.15v7.46a32.17,32.17,0,0,0,3.41,0,3.44,3.44,0,0,0,3.22-3.55,3.2,3.2,0,0,0-3-3.64C285.55,84.26,284.36,84.28,283.09,84.2Z"/><path class="cls-9" d="M272,91.59c-.21,6.24-2.15,10.91-7.51,13.52A12.94,12.94,0,0,1,246,95.36a16.56,16.56,0,0,1,1.8-11.25,12.6,12.6,0,0,1,13-6.06c5.59.89,9.09,4.22,10.6,9.62A31.08,31.08,0,0,1,272,91.59Zm-7.93.51a10.32,10.32,0,0,0-1.2-5.38c-1.87-3.3-6.16-3.49-8-.19A11.12,11.12,0,0,0,255.07,98a4.41,4.41,0,0,0,7.72,0A10.4,10.4,0,0,0,264.11,92.1Z"/><path class="cls-10" d="M328.26,92.64c.09-5.46,1.67-9.8,6-12.68,6.6-4.34,18-2.1,19.94,9.15.74,4.38.17,8.58-2.58,12.2-3.44,4.52-8.18,5.89-13.56,4.65s-8.4-5.07-9.51-10.41A27.21,27.21,0,0,1,328.26,92.64Zm18.68-.49a45.56,45.56,0,0,0-1.47-5.24,4.2,4.2,0,0,0-4-2.7,4.31,4.31,0,0,0-4.15,2.55,11.83,11.83,0,0,0,0,10.83,4.31,4.31,0,0,0,4.4,2.52,4.2,4.2,0,0,0,3.86-2.78A47.59,47.59,0,0,0,346.94,92.15Z"/><path class="cls-10" d="M356.47,92.22c.2-4.69,1.57-8.81,5.4-11.71a13,13,0,0,1,20.68,8.38c.75,4.73.18,9.23-3,13-3.43,4.06-8,5.22-13,4.1s-8-4.46-9.34-9.3A39.26,39.26,0,0,1,356.47,92.22Zm18.77,0a45.11,45.11,0,0,0-1.27-5,4.35,4.35,0,0,0-4.19-3,4.45,4.45,0,0,0-4.39,3,12.07,12.07,0,0,0,.14,10.21,4.41,4.41,0,0,0,4.39,2.74,4.22,4.22,0,0,0,4-2.88A42.85,42.85,0,0,0,375.24,92.24Z"/><path class="cls-11" d="M186.45,86.3a37.2,37.2,0,0,0-4.84-1.57c-5.32-1-8.34,1.32-8.69,6.72a14.2,14.2,0,0,0,.71,5.17,6.15,6.15,0,0,0,8,3.4,1.11,1.11,0,0,0,.57-.77c.06-1.26,0-2.53,0-3.91h-4.16l-.8-5.3H189a4.76,4.76,0,0,1,.11.77c0,4,0,7.91,0,11.87a1.55,1.55,0,0,1-.52,1.16c-4.86,2.56-10,3.44-15.26,1.6-4.63-1.61-7-5.24-7.84-9.91-.77-4.48-.26-8.79,2.52-12.57a12.22,12.22,0,0,1,8.74-4.89,18.71,18.71,0,0,1,9.85,1.35c.69.3,1,.62.77,1.44C187,82.65,186.74,84.47,186.45,86.3Z"/><path class="cls-12" d="M59.53,68.05l-10,10L28.75,57.28l10-10Z"/><path class="cls-2" d="M26.07,60,46.83,80.76l-10,10L16.07,70Z"/><path class="cls-8" d="M202.68,43.43h18.5v5.85H210.35v4.66h5.79c2.45,0,2.44,0,2.76,2.39.15,1.1.34,2.2.53,3.44h-9.1v5h11.15v5.9h-18.8Z"/><path class="cls-11" d="M149.65,84.41H138.81V89H147c.31,1.94.6,3.81.92,5.83H138.8v5.08h11.12v5.86H131.15V78.55h18.5Z"/><path class="cls-8" d="M142.52,53.92c.31,2,.59,3.87.89,5.87h-9v5H145.5V70.7H126.8V43.47h18.36v5.85H134.41v4.6Z"/><path class="cls-6" d="M36.18,44.55,26.1,54.62,7.77,36.29,17.85,26.22Z"/><path class="cls-11" d="M412.2,104.25c.33-1.92.63-3.69.95-5.45a3.19,3.19,0,0,1,.17-.54c2.64.65,5.2,1.39,7.81,1.88a11.64,11.64,0,0,0,3.67-.13,1.63,1.63,0,0,0,1.57-1.69,2.91,2.91,0,0,0-1.17-1.87,14.75,14.75,0,0,0-3-1.17c-1.54-.56-3.11-1-4.6-1.7a6.82,6.82,0,0,1-4.52-6.22,8,8,0,0,1,4-7.78,11.48,11.48,0,0,1,6.2-1.5,22.81,22.81,0,0,1,8.91,1.8c-.35,2-.68,4-1,6a37.2,37.2,0,0,0-4.25-1.29,28.36,28.36,0,0,0-5-.38,1.75,1.75,0,0,0-1.8,1.62,1.81,1.81,0,0,0,1.38,2c1.56.59,3.16,1.09,4.74,1.65A28.66,28.66,0,0,1,429,90.6a7.85,7.85,0,0,1,1.7,13.1,11.71,11.71,0,0,1-8,2.56A30,30,0,0,1,412.2,104.25Z"/><path class="cls-1" d="M72,105.87H70.86c-6.08,0-12.15,0-18.22,0a2.9,2.9,0,0,1-1.85-.77c-3.88-3.8-7.71-7.65-11.45-11.38L49.78,83.26Z"/><path class="cls-7" d="M4.92,38.79,23.35,57.24,12.92,67.59a10.86,10.86,0,0,0-1-1.37C8.17,62.47,4.42,58.76.73,55a2.63,2.63,0,0,1-.68-1.64C0,50.44,0,47.53,0,44.61a2.08,2.08,0,0,1,.44-1.27C1.91,41.8,3.42,40.31,4.92,38.79Z"/><path class="cls-11" d="M371,51.13a30.36,30.36,0,0,0-4.37-1.47c-3.85-.7-6.63,1.14-7.39,5a13,13,0,0,0,0,4.86c.83,4.23,4.34,6.13,8.79,4.91,1.14-.31,2.22-.8,3.43-1.25.28,1.91.58,3.79.8,5.68a1,1,0,0,1-.5.79c-5.08,2.49-12.42,2.27-16.68-1.7-3.05-2.85-4.1-6.52-4.13-10.52,0-5,1.44-9.45,5.87-12.3s9.44-2.8,14.33-.84a1.42,1.42,0,0,1,.64,1.16C371.55,47.36,371.24,49.29,371,51.13Z"/><path class="cls-11" d="M121.86,63.16c.26,1.76.55,3.49.75,5.23a1.43,1.43,0,0,1-.41,1.18c-5,2.59-13.54,2.57-17.89-2.9a14.76,14.76,0,0,1-3-10c.17-5.08,1.93-9.44,6.59-12,4.41-2.44,9-2.27,13.63-.41a.89.89,0,0,1,.67,1.16c-.34,2-.56,3.91-.81,5.74a29.9,29.9,0,0,0-4.33-1.47c-4.09-.75-7.07,1.48-7.59,5.61a12.63,12.63,0,0,0,.06,3.93c.82,4.4,4.28,6.42,8.79,5.22C119.54,64.11,120.67,63.6,121.86,63.16Z"/><path class="cls-11" d="M341.78,70.7h-8.07c0-1.44-.12-2.87,0-4.28a15.37,15.37,0,0,0-2.52-10.07c-2.43-3.88-4.47-8-6.77-12.18,2.63-.35,5.14-.71,7.65-1,.29,0,.75.37.92.68,1.37,2.61,2.68,5.26,4,7.89.31.6.64,1.19,1.06,2,.58-1.18,1.07-2.21,1.57-3.23,1-2.11,2.08-4.23,3.19-6.31a1.6,1.6,0,0,1,1.11-.78c2.39-.07,4.79,0,7.41,0-.25.5-.43.86-.63,1.22-2.84,5.13-5.69,10.26-8.51,15.4a3.69,3.69,0,0,0-.43,1.69C341.75,64.65,341.78,67.6,341.78,70.7Z"/><path class="cls-13" d="M198.89,43.47c.31,2.2.61,4.35.93,6.61h-7.77v20.6H184V50.17h-7.23v-6.7Z"/><path class="cls-14" d="M161.6,105.83h-7l-.63-.06V78.57h7.65Z"/><path class="cls-15" d="M280.31,60.34c0,5.76-4.11,9.24-9.5,8.06-3-.66-5.14-3.15-5.5-6.75a12.36,12.36,0,0,1,.29-4.15A7.08,7.08,0,0,1,273.55,52c3.84.38,6.44,3.19,6.75,7.31C280.33,59.62,280.31,60,280.31,60.34Zm-3.73-.08a17.5,17.5,0,0,0-.95-3.22,3.16,3.16,0,0,0-5.64-.16,6.8,6.8,0,0,0,0,6.76,3.16,3.16,0,0,0,5.64,0A17.57,17.57,0,0,0,276.58,60.26Z"/><path class="cls-16" d="M260.69,52.27h3.24c.18,1.08.34,2.09.51,3.23H261V68.2h-4V55.63l-2.28-.11V52.27h2.23c0-1,0-1.87,0-2.76a5.09,5.09,0,0,1,6.77-4.78,1,1,0,0,1,.52.67c.18.81.26,1.64.36,2.3-1.14.31-2.6.28-3.17,1S260.92,50.91,260.69,52.27Z"/><path class="cls-9" d="M.1,59.35,10.66,69.9.1,80.43Z"/><path class="cls-1" d="M46.44,105.83H27.17l9.67-9.61Z"/><path class="cls-15" d="M282.57,52.3h3.36c.16.92.31,1.81.48,2.75a16.19,16.19,0,0,1,2.22-2.1,17.44,17.44,0,0,1,2.9-1.23c.25,1.55.45,2.8.59,3.73-1.65.89-3.16,1.64-4.58,2.52a2.39,2.39,0,0,0-1,2.28c.08,2.63,0,5.26,0,8h-4Z"/></g></g></svg>