<svg xmlns="http://www.w3.org/2000/svg" viewBox="0 0 1071.88 1050"><title>CUNY</title><g id="Layer_2" data-name="Layer 2"><g id="Layer_1-2" data-name="Layer 1"><polygon points="411.7 532.19 411.7 809.73 163.71 531.71 36.29 531.71 36.29 532.19 36.29 1050 178.68 1050 178.68 772.46 422.73 1050 554.09 1050 554.09 532.19 411.7 532.19"/><path d="M1071.8,314.74V207.33h0V26.08l-139.29,0H929.4V314.74a96,96,0,0,1-6,34.62c-5.08,13.3-13.43,24.86-25.18,34.91-21.86,18.73-53.68,29.94-85.16,30l0,0h-.19l0,0c-31.48-.08-63.3-11.29-85.16-30-11.75-10-20.1-21.61-25.18-34.91a96,96,0,0,1-6-34.62V26.06h-3.11l-139.29,0V207.32h0v142h0c0,114.48,123.62,205.46,252.22,207.28,1.33,0,2.66.05,4,.05l1.53,0h2.13l1.53,0c1.34,0,2.67,0,4-.05,128.6-1.82,252.22-90.18,252.22-207.28h0Z"/><path d="M399,349.36c-23,38.34-64,64.05-110.91,64.7-.61,0-1.21,0-1.82,0-73,0-132.27-60.77-132.28-135.75s59.23-135.75,132.28-135.75c.61,0,1.21,0,1.82,0C335,143.28,376,169,399,207.33H554.15c0-116.81-123-205-251.26-207.26l-1,0c-1.33,0-2.66,0-4,0L296.4,0h-2.13l-1.53,0c-1.33,0-2.66,0-4,.05H278.32A278.26,278.26,0,0,0,0,278.32H0v.05H0a276.94,276.94,0,0,0,38.84,141.8c48.49,81.7,137.58,136.47,239.48,136.47h10.44c1.32,0,2.65.05,4,.05l1.53,0h2.13l1.53,0c1.34,0,2.67,0,4-.05l1,0c128.25-2.25,251.26-90.45,251.26-207.26Z"/><polygon points="929.48 532.19 812.98 769.76 696.49 532.19 554.09 532.19 741.79 914.95 741.79 1050 884.18 1050 884.18 914.95 1071.88 532.19 929.48 532.19"/></g></g></svg>