<svg xmlns="http://www.w3.org/2000/svg" viewBox="0 0 46.79 44.15"><defs><style>.cls-1{fill:#00a94f;}</style></defs><title>GSUSA</title><g id="Layer_2" data-name="Layer 2"><g id="Layer_1-2" data-name="Layer 1"><path class="cls-1" d="M40.22,10.39a12.26,12.26,0,0,1,0,2.87A3.68,3.68,0,0,0,40.57,15a6.42,6.42,0,0,0,1.66,2,.76.76,0,0,1-.17,1.2c-.42.32-1,.51-1.07.74a.71.71,0,0,0,.11.7c.1.11.16.12.2.18.18.22,0,.55-.35.76a5.22,5.22,0,0,1-1.18.55c-.17.06-.15.08,0,.11,1.05.21.89,1,.62,1.17s-.3.05-.47.16a.89.89,0,0,0-.22,1.06,1.88,1.88,0,0,1,0,1.3,1.34,1.34,0,0,1-1.3.79c-1.07.09-1.91,0-3,0a4.42,4.42,0,0,0-2.16.37c-.85.4-1.88,1.36-3.42,3.42-.83,1.1-7.42,9.73-9.81,13a16.77,16.77,0,0,0,3.42,1.61c3.31-1.14,11-5.86,11-11.9a5.19,5.19,0,0,0,3.34,1.15c6.3,0,9.1-5,9.11-11.77,0-6.12-2.2-10.29-6.57-11.24M28.54,24.31a4.73,4.73,0,0,1,2.3-.38c1.12,0,1.92.09,3,0a1.35,1.35,0,0,0,1.31-.79,1.92,1.92,0,0,0,.07-1.29.89.89,0,0,1,.22-1.07c.16-.1.26-.06.47-.16s.43-1-.62-1.16c-.18,0-.2-.05,0-.11a5.22,5.22,0,0,0,1.18-.55c.31-.21.53-.55.35-.76-.05-.06-.11-.07-.2-.18a.73.73,0,0,1-.12-.7c.11-.24.66-.42,1.08-.74a.77.77,0,0,0,.17-1.21,7.88,7.88,0,0,1-1.67-2c-.58-.93-.26-2.73-.36-3.92C35.53,7.32,35.18-.11,22.92,0,16.24.06,11.14,2.93,11.46,9.5a5.67,5.67,0,0,0,.22,1.5,4.66,4.66,0,0,0-2.58-.81C3,9.91,0,14.42,0,21.63,0,28.3,2.72,33.25,8.83,33.39c0,0,11.77-15.24,11.74-15.26,3.9-5.29,5.95-7,6.27-11,.44,1.35,2.3,2.58,4.33,2.54a3.33,3.33,0,0,0,.41,1.73,6.07,6.07,0,0,0,1.67,2,.77.77,0,0,1-.17,1.21c-.42.32-1,.5-1.08.74a.71.71,0,0,0,.12.69c.09.11.16.13.2.19.18.21,0,.54-.35.76a5.71,5.71,0,0,1-1.18.54c-.17.06-.15.08,0,.12,1.05.2.89,1,.62,1.16s-.31.06-.47.16-.37.59-.22,1.06a2,2,0,0,1-.07,1.3,1.37,1.37,0,0,1-1.31.79c-1.07.09-1.87,0-3,0a6.74,6.74,0,0,0-2.41.38c-.85.37-1.66,1.05-3.21,3.11-.62.83-4.68,6.07-7.55,10a13.25,13.25,0,0,0,2.91,4s0,0,0,0c.44-.56,8.3-10.91,9-11.9,1.54-2.06,2.5-3,3.35-3.41"/></g></g></svg>