<svg xmlns="http://www.w3.org/2000/svg" viewBox="0 0 1980.35 359.19"><defs><style>.cls-1{fill:#d51b03;}</style></defs><title>J&amp;amp;J</title><g id="Layer_2" data-name="Layer 2"><g id="Layer_1-2" data-name="Layer 1"><path class="cls-1" d="M1199.82,156.81c-8.94,7.66-18.17,15-26.76,23.06-11.11,10.39-10.78,10.61-9.6,25.75,3.21,40.85.34,81-16.59,118.9-4.89,11-11.82,21.12-18.65,31.08a34.39,34.39,0,0,1-18.88,13.31c-12.32,3.66-21.87-1-26.35-13-4.26-11.49-4.55-23.49-3.49-35.51,2.76-31.23,15.24-59,30.82-85.65.83-1.43,1.72-2.83,2.55-4.19-7.56-8.49-15-16.95-22.62-25.29-.77-.85-2.28-1.18-3.51-1.44-14.79-3.12-29.14-.15-43.38,3.52-1,.27-2.11,2.2-2.37,3.52-1.11,5.7-1.79,11.48-2.9,17.18a12.25,12.25,0,0,1-2.48,5.89c-1.51,1.61-4,3.34-5.95,3.14-1.39-.15-3.28-3.21-3.53-5.15-.81-6.43-1-12.94-1.41-19.92-3.1.5-6.11,1.12-9.15,1.44-16.46,1.79-32.66.6-48-5.9a36.18,36.18,0,0,1-12.17-8.42c-9.68-10.42-5.77-26.13,7.9-29.91,19.73-5.45,38.25-2.07,54.57,10.89,1.16.93,2.32,1.86,3.49,2.76.1.08.32,0,.84,0a48.5,48.5,0,0,0-9.23-23.29c-4.38-6.18-4.29-6.71,2.53-10.24,2.95-1.53,6-2.95,9-4.22,4.42-1.84,8.2-.84,9.59,3.94a276.26,276.26,0,0,1,6.79,26.93c1.2,6.48,1,13.23,1.36,19.31l36.78-4.07c-3.29-8.54-7.72-17.71-10.4-27.36C1052,103.92,1082.36,39.18,1138,15.76c5.72-2.41,12.07-3.49,18.24-4.65,4.36-.82,6.67,1.46,5.93,6.09-1.79,11.17-3.66,22.32-5.44,33.49-3.92,24.53-3.48,49.15-1.27,73.77,1.41,15.73,3.2,31.42,4.93,48.29,1.88-1.69,3.16-2.77,4.36-3.93,16.12-15.52,32.8-30.38,52.36-41.45,6.42-3.63,13.65-5.92,20.7-8.25,2-.65,4.6.76,6.93,1.23-.91,2.06-1.4,4.49-2.82,6.11a60.48,60.48,0,0,0-14.51,29.12c-2.26,12.16-2.26,24.19,2.54,35.84,6,14.43,17.64,22,31.39,20.48,12.72-1.43,23.14-11.85,25.35-26.54,1-6.31.16-12.89.16-19.45-5.6-.65-11.3-.74-16.69-2.06-11.09-2.72-20-8.28-22.53-20.59-3.19-15.47,9.39-27.12,24.65-22.6,11.74,3.48,18.64,12.27,23.78,22.76,1,2.06,1.88,4.19,2.88,6.43,11.55-2.07,22.44-5.47,32.32-11.53a7.56,7.56,0,0,0,2.89-5.44c.47-16-.12-32,1-48,1.57-21.5,6.77-42.1,21.19-59.12,5.19-6.14,11.61-10.5,20-11,9.69-.57,16.72,3.75,20.54,12.68s3.51,18.24,2.66,27.56c-2.63,29-14.56,54-33.09,76.14a13.68,13.68,0,0,0-3,7.94c-.25,15.66-.09,31.33,0,47a10.54,10.54,0,0,0,1.39,5.59c1.42-2.32,2.89-4.6,4.25-6.94,9.25-16,18.27-32.1,27.85-47.87a52.57,52.57,0,0,1,11.85-13.95c11.62-9.13,24.53-3.88,27.28,10.6A51.33,51.33,0,0,1,1437,143c.08,18.83,0,37.67,0,56.5a11.16,11.16,0,0,0,1.35,5.73c1.13-1.46,2.39-2.83,3.37-4.38,14.41-22.78,28.86-45.53,43.13-68.4,5.09-8.15,11.48-13.67,21.66-13.62,6.85,0,11.72,3.12,13.78,9.42a51.24,51.24,0,0,1,2.48,14.64c.32,14.16.11,28.33.11,42.49v5.78l1.25.46c1-1.52,2.08-3,3-4.56,10.7-18.4,21.23-36.9,32.14-55.18,4.42-7.41,10.58-12.86,20-13,7.72-.12,12.92,3,15.06,10.44a58.28,58.28,0,0,1,2,15.24c.22,19,.08,38,.11,57a11.38,11.38,0,0,0,1.54,6.12c2-2.49,4.25-4.84,6-7.49,17.09-25.42,33.75-51.08,45.29-79.66.71-1.76,2.72-3,4.13-4.47,1.36,1.5,3.14,2.8,4,4.55,6.61,13.39,13,26.87,19.22,39.7,12.53-8.9,24.42-18,37-26.12s26.56-13.86,41.83-15.08c2.76-.21,5.63.87,8.44,1.36-1.3,2.57-2.19,5.49-4,7.66-15.11,18.21-18.2,38.82-11.6,60.93a38.56,38.56,0,0,0,9.34,15c12.1,12.43,32.26,10.26,42.22-3.95,6.06-8.64,8.76-23.41,6.38-35-5.41-.36-10.88-.43-16.26-1.13-12.44-1.61-21.41-10-23.32-21.31-2.6-15.42,9.71-26.33,24.89-22,8.63,2.45,14.75,8.18,19.52,15.46,2.17,3.31,3.92,6.89,6.49,11.46,7.81-5.43,15.53-10.73,23.19-16.14,3.54-2.49,6.86-5.29,10.43-7.71a29.74,29.74,0,0,1,6.65-3.38c15.78-5.61,26.7,1.69,27.06,18.42.34,15.83.11,31.66.16,47.5,0,1.74.18,3.49.28,5.24l1.27.39c1-1.75,2-3.5,3-5.27,9.8-17.57,19.4-35.25,29.5-52.64a39,39,0,0,1,10.21-11.44c12-8.85,26.19-2.8,28.6,11.82a65.22,65.22,0,0,1,.82,10.44c.08,19.17,0,38.33.13,57.5,0,2.22,1.25,4.44,1.93,6.66,2.3-1.09,5.07-1.7,6.81-3.38,4.3-4.16,8.13-8.8,12.14-13.27,2.5-2.78,5.29-5,9-2.35s2.15,5.91.28,8.81c-6.3,9.77-12.36,19.74-19.21,29.12a23,23,0,0,1-20.37,9.72c-13.31-.63-21.28-9-21.49-23.25-.29-19.16-.09-38.32-.17-57.49a64.37,64.37,0,0,0-.77-7l-1.73-.52c-1.72,2.45-3.74,4.74-5.12,7.36-11.2,21.35-22.26,42.77-33.4,64.15-1.69,3.23-3,7-5.56,9.35-3.44,3.06-7.7,5.93-12.07,7-7.12,1.79-11.89-1.92-13.38-9.15a47.88,47.88,0,0,1-.8-9.42c-.06-22,0-44,0-66a23.58,23.58,0,0,0-.22-5c-.82-3.73-3.06-5.66-6.9-3.91a59.71,59.71,0,0,0-7.7,4.53c-5.42,3.55-10.87,7.07-16.09,10.9a6.1,6.1,0,0,0-2.18,4.52c.93,16.16.16,31.94-7.88,46.6-18.53,33.73-66.61,37.32-86.65,5.78-13.87-21.82-14.44-45.14-2.94-68.51.72-1.47,1.59-2.86,3.12-5.56-3.65,1.52-6.51,2.1-8.63,3.68q-17.37,12.93-34.35,26.39c-1,.78-1.11,3.59-.61,5.12,3.53,10.92,5.86,21.9,3,33.35-2.4,9.78-7.46,17.88-16.26,23-8.08,4.7-16.71,6.43-24.84.31s-9.31-15-7.23-24.34,7.38-17.07,13.44-24.21c2.47-2.91,2.67-5.18.84-8.3-2.86-4.87-5.44-9.9-8.52-15.56l-3.18,4.86c-11.62,17.84-23.1,35.79-35,53.47A68.22,68.22,0,0,1,1595,232.41c-5.7,5.09-12.61,6.93-19.94,3.77-7.07-3-9.14-9.45-9.21-16.41-.23-20.5-.13-41-.23-61.5,0-2.88-.41-5.77-.63-8.66l-1.65-.53c-1.82,2.57-3.95,5-5.41,7.73-11.69,22-23.21,44.15-34.89,66.19a46,46,0,0,1-6.26,9.52,14.85,14.85,0,0,1-16.91,4.12c-5.93-2.17-6.94-7.71-7-13.22-.13-21.5-.08-43-.17-64.5,0-2.56-.49-5.13-.75-7.7l-1.61-.74a65.49,65.49,0,0,0-5.36,6.35c-14.66,22.63-29.16,45.35-43.87,67.94a40,40,0,0,1-7.77,9c-9.55,7.89-22.45,3.55-25.42-8.44a41.92,41.92,0,0,1-1-9.88c-.09-19.5,0-39-.08-58.5,0-2.43-.37-4.86-.58-7.29l-1.39-.62c-1.67,2.06-3.7,3.92-4.94,6.21-11.78,21.6-23.41,43.29-35.13,64.93a100,100,0,0,1-6.53,11.17c-4.06,5.64-9.79,7.44-15.78,5.56-5.36-1.69-8.22-6.13-8.24-13.39-.06-21.5,0-43,0-64.5v-5.69c-6.38,2.45-12.44,4.93-18.61,7.07-4.18,1.46-10.26,1.17-12.33,4s-.19,8.61-.33,13.08c-.74,23.34-9,42.77-30.48,54.15-31.72,16.84-66.91-1.67-73.56-38.05-2.23-12.21-1.39-24.18,1.57-36.12l.15-1.13ZM1149.6,23.22c-7.92.34-13.28,3.58-18.23,7.63-11.86,9.7-20,22.16-26.42,35.88-13.58,29.27-15.54,59.93-10.46,91.34,3.56,22,12.64,41.49,27.41,59,3.2-4.33,6.45-8.33,9.2-12.63a10.24,10.24,0,0,0,1.63-6.32c-1.2-9.23-2.74-18.43-4.31-27.61a230.32,230.32,0,0,1-.64-76.55c3.62-22.19,11.24-43,19.7-63.68C1148.32,28.25,1148.77,26.05,1149.6,23.22Zm-13.21,197.25c-3.6,5-6.76,9.16-9.68,13.48-18.32,27.15-30.23,56.54-30.27,89.78a40.16,40.16,0,0,0,3.62,16.28c3.42,7.43,11.12,9.2,18.16,4.95,2.64-1.59,5.55-3.69,6.88-6.3,4.32-8.52,9-17.07,11.68-26.17C1145.55,282.3,1141.51,251.94,1136.39,220.47ZM1363.87,114a102.71,102.71,0,0,0,17.92-46c1.49-11,1.07-22.22,1-33.34a8.75,8.75,0,0,0-4.06-6.47c-3.32-1.62-5.52,1.46-6.84,4.19a53.91,53.91,0,0,0-3.93,10.19C1362,66,1363.72,90,1363.87,114Zm-346.43,87.61,1.06-2.1c-4.74-4.5-9.25-9.28-14.27-13.43s-11-6.62-17.53-5.73a11.93,11.93,0,0,0-7.56,4.4c-2.24,3.31-1,7.45,2.14,9.82s6.78,4.74,10.46,5.26C1000.22,201,1008.86,201,1017.44,201.56ZM1660.73,196c-1.22,1.75-2.2,2.73-2.67,3.92-2.08,5.32-4.56,10.58-5.79,16.1a6,6,0,0,0,5.16,7.32c3.7.42,4.9-2.74,5.72-5.72C1665.16,210.42,1663.24,203.61,1660.73,196ZM1802.21,152l.68-1.53c-2.67-6.26-6.39-11.67-13.2-13.92-1.61-.54-4.43-.22-5.43.87-1.19,1.28-1.89,4.23-1.21,5.73,1.08,2.37,3.13,5.09,5.41,5.93C1792.81,150.66,1797.6,151.06,1802.21,152Zm-518.88-.31c-2.4-7.79-6.94-13.42-12.22-14.88-1.94-.54-5.25-.35-6.23.87a7.69,7.69,0,0,0-.69,6.69,9.5,9.5,0,0,0,5.38,4.59C1273.77,150.25,1278.24,150.7,1283.33,151.65Z" transform="translate(-10.72 -10.94)"/><path class="cls-1" d="M146.82,156.82c-8.82,7.54-17.9,14.8-26.41,22.68-11.4,10.56-11.1,10.75-9.93,26.14,3.12,40.85,0,80.84-16.43,119C89.16,336,83.29,346.8,75,356.09c-5.19,5.78-11.12,10.58-18.71,12.83-12.3,3.64-21.86-1-26.32-13.07-4.32-11.66-4.56-23.83-3.44-36,2.88-31,15.37-58.63,30.8-85.15.84-1.43,1.72-2.84,2.65-4.38-6.77-7.35-13.68-14.53-20.24-22C-10.12,151.46,3.88,53.88,84.87,15.84c5.72-2.69,12.38-3.57,18.71-4.73,4.13-.76,6.32,1.56,5.63,5.91-1.81,11.34-3.72,22.65-5.51,34-3.83,24.19-3.41,48.49-1.27,72.77,1.31,14.93,3.06,29.82,4.63,44.72.12,1.11.34,2.2.51,3.3l2.06,1.67c.82-1.64,1.27-3.66,2.51-4.86,16-15.58,32.72-30.48,52.36-41.41,6.7-3.72,14.37-5.78,21.72-8.2,1.53-.5,3.65.79,5.5,1.26-.67,1.79-.89,4-2.07,5.32-7.62,8.69-13.13,18.38-15.24,29.85-2.27,12.34-2.28,24.53,2.67,36.31,6,14.28,18,21.88,31.63,20.13,12.72-1.64,23-12.23,25.06-26.86.88-6.3.15-12.82.15-18.78-7-1.12-13.66-1.53-19.95-3.37-9.77-2.85-17.11-8.74-19.3-19.47-3.18-15.54,9.22-27.12,24.52-22.79,8.25,2.33,14.39,7.63,19,14.57,3,4.53,5.37,9.5,8.19,14.59,11.18-2,22.22-5.43,32.2-11.65,1.49-.93,2.55-3.67,2.6-5.61.43-15.65,0-31.35,1-47,1.27-19.81,5.83-39,17.89-55.27a46.28,46.28,0,0,1,14.75-13c12.8-6.87,26.38-1.09,29.91,13a79.34,79.34,0,0,1,1.69,25.18c-2.29,28.85-14.49,53.62-32.83,75.68a13.74,13.74,0,0,0-3,7.92c-.26,15.66-.1,31.33-.06,47a11.21,11.21,0,0,0,1.33,5.68c1.43-2.29,2.92-4.54,4.28-6.87,9.27-16,18.34-32.05,27.86-47.86a54.14,54.14,0,0,1,10.65-13.08c12-10.37,25.72-5.35,28.57,10.13a54.06,54.06,0,0,1,.77,9.43c.07,18.66,0,37.33,0,56a11.85,11.85,0,0,0,1.27,5.76,48.59,48.59,0,0,0,3.45-4.31c14.31-22.65,28.65-45.28,42.82-68,5.14-8.25,11.48-14.12,21.92-14.07,6.83,0,11.77,3.07,13.83,9.36a52.41,52.41,0,0,1,2.52,15.12c.3,16,.11,32,1.1,48.47,1.1-1.62,2.31-3.17,3.29-4.85,10.63-18.25,21.12-36.59,31.91-54.74,4.51-7.6,10.69-13.2,20.31-13.33C534,118.72,539,121.7,541.16,129a53.54,53.54,0,0,1,2.08,14.7c.22,19.33.08,38.67.11,58,0,1.9.25,3.81.49,7.32,3-3.72,5.29-6.1,7.1-8.78,17.09-25.41,33.8-51,45.32-79.64.71-1.79,2.66-3.08,4-4.6,1.46,1.6,3.39,3,4.31,4.85,6.54,13.25,12.87,26.6,19.15,39.69,10.77-7.94,21-15.93,31.65-23.2,12.89-8.77,26.92-15.22,42.45-17.85a62.08,62.08,0,0,1,9.45-.62c4-.05,4.58,2.07,2.82,5.17a27.27,27.27,0,0,1-3,4c-15.23,18.1-18.51,38.77-11.85,60.88,5.33,17.72,20.61,26.44,36.46,22.13,8.63-2.34,14.37-8.12,18.15-16,4.57-9.49,4.5-19.58,3.76-29.89-5.73-.4-11.18-.5-16.56-1.19-12.23-1.58-21.24-9.76-23.31-20.76-3-15.68,9.34-26.92,24.74-22.61,8.28,2.31,14.3,7.69,19,14.57,2.43,3.54,4.34,7.43,6.89,11.85,4.27-2.57,8.75-4.94,12.85-7.83,6.12-4.32,12-9,18-13.54s12.34-7.1,19.88-6.86c8.69.27,14.09,4.38,15.85,13a61.56,61.56,0,0,1,1.09,11.9c.13,14.17,0,28.33.07,42.5,0,1.77.18,3.53.27,5.3l1.24.4c.92-1.59,1.84-3.16,2.74-4.76,9.88-17.71,19.56-35.54,29.79-53.06a38.72,38.72,0,0,1,10.59-11.73c11.94-8.52,25.85-2.41,28.21,12a66.39,66.39,0,0,1,.82,10.44c.07,19.33,0,38.67.12,58,0,2.07,1.23,4.14,1.89,6.21,2.19-1,4.87-1.41,6.47-3,4.52-4.41,8.61-9.27,12.85-14,2.43-2.69,5.2-4.56,8.68-2.11,3.7,2.6,2.27,5.87.38,8.79-6.31,9.77-12.39,19.72-19.23,29.11a23,23,0,0,1-20.33,9.81c-13.25-.56-21.34-9-21.57-23.18-.3-19.16-.08-38.33-.17-57.49a67.37,67.37,0,0,0-.76-7.06l-1.7-.55c-1.72,2.44-3.75,4.72-5.12,7.34C856.07,178,845,199.42,833.85,220.79c-1.68,3.24-3,7-5.54,9.37-3.27,3-7.36,5.88-11.57,7-7.61,2-12.47-1.71-14-9.5a45.15,45.15,0,0,1-.68-8.93c-.06-22.33.06-44.67-.16-67,0-2.7-1-6.73-2.82-7.7s-5.73.35-8.06,1.76c-7.1,4.3-13.94,9-20.72,13.84-1,.68-1.47,2.7-1.38,4,1.08,16.15.31,31.93-7.77,46.59-12.31,22.34-38.92,33.07-62.92,24.72-19.89-6.92-29.3-22.67-33.06-42.25-3.36-17.44-1-34.14,8.32-50.26-2.77,1.19-5.92,1.89-8.27,3.64q-17,12.66-33.46,25.92c-1.06.85-1.15,3.9-.61,5.56,3.58,10.93,5.72,21.95,2.84,33.36-2.42,9.57-7.45,17.53-16.09,22.57-8.07,4.71-16.55,6.32-24.88.45-7-4.9-9.78-14.61-7.38-24.34,2.33-9.46,7.67-17.29,13.77-24.6,2.13-2.55,2.52-4.54.82-7.44-2.93-5-5.51-10.23-8.66-16.17-1.33,2-2.27,3.4-3.19,4.81-11.71,18-23.26,36.08-35.22,53.9a65.89,65.89,0,0,1-11.36,12.53c-5.61,4.93-12.38,6.6-19.54,3.57s-9.26-9.36-9.35-16.33c-.24-20.66-.16-41.32-.26-62,0-2.74-.37-5.47-.56-8.21l-1.59-.57c-1.74,2.39-3.81,4.61-5.18,7.2-11.56,21.72-23,43.52-34.47,65.28-1.47,2.79-2.58,6-4.72,8.16-2.81,2.86-6.15,5.9-9.84,7.07-9.13,2.91-15.38-1.79-16.23-11.33-.24-2.65-.23-5.33-.24-8,0-19.5,0-39,0-58.5,0-2.58-.45-5.16-.7-7.75l-1.55-.78c-1.81,2.08-3.9,4-5.39,6.27-14.67,22.62-29.19,45.33-43.87,67.93a43,43,0,0,1-7,8.45c-9.71,8.8-23.36,4.51-26.32-8.22a42.83,42.83,0,0,1-.93-9.4c-.08-19.5,0-39-.06-58.49,0-2.44-.37-4.87-.56-7.3l-1.47-.64c-1.74,2.18-3.84,4.17-5.16,6.59-11.86,21.75-23.57,43.58-35.36,65.37a92.11,92.11,0,0,1-6,10.32c-4.07,5.63-9.74,7.45-15.76,5.58-5.36-1.68-8.22-6.08-8.25-13.38-.07-21.49,0-43,0-64.49v-5.3l-31.27,10.57c0,3.8,0,8.24,0,12.67-.18,16.56-4.66,31.68-16.27,43.85-14.61,15.33-32.76,20.38-53,14.61-20.66-5.91-30.41-22-34.75-41.89-2.63-12.12-1.43-24.17,1.42-36.12.06-.37.13-.74.19-1.11ZM96.65,23.48c-6.93.19-11.65,1.25-16.82,6.42C72.36,37.38,64.55,45,59.1,53.94,36.63,90.75,34.48,130.52,44.58,171.49c4.19,17,12.73,31.83,24.31,45.53,3.49-4.65,6.83-8.79,9.75-13.2a8.65,8.65,0,0,0,1.13-5.52c-1.28-9.23-2.78-18.43-4.34-27.61a231.45,231.45,0,0,1-.66-76.56C78.39,71.94,86,51.1,94.45,30.44,95.3,28.38,95.81,26.17,96.65,23.48ZM83.44,221.08c-1.08,1.15-1.91,1.87-2.56,2.73-11.62,15.5-21.47,32-28.15,50.27-6.82,18.61-10.89,37.7-8.72,57.64.73,6.73,3.59,12.84,10.73,14.85s13.2-1.36,16.74-7.15C76,332,80.24,324.09,82.83,315.83,92.64,284.61,88.8,253.12,83.44,221.08Zm226.9-107.31,1.89.79c3.8-8.57,8-17,11.3-25.73,6.56-17.43,8.27-35.58,6.41-54.06-.3-2.89-.51-6.92-4.38-6.7-2.37.14-5.53,2.37-6.7,4.54A51.07,51.07,0,0,0,314,46.13C309.32,68.47,310.61,91.17,310.34,113.77Zm297.39,82.28a18.88,18.88,0,0,0-2.08,3c-2.23,5.61-4.91,11.12-6.32,16.94a5.94,5.94,0,0,0,5,7.38c3.71.46,4.93-2.67,5.78-5.64C612.23,210.49,610.19,203.69,607.73,196.05ZM750.65,152c-3.4-7.65-6.93-13.08-13.56-15.27-1.83-.61-5.06-.16-6.19,1.1s-1.47,4.69-.59,6.31a12.13,12.13,0,0,0,6.06,5.46C740.49,150.94,745,151.11,750.65,152Zm-521.14-.46.84-1.36c-2.62-5.68-5.74-11.08-12.12-13.34-1.85-.66-5.22-.46-6.22.74a7.71,7.71,0,0,0-.8,6.68,9.39,9.39,0,0,0,5.32,4.64C220.7,150.23,225.17,150.69,229.51,151.52Z" transform="translate(-10.72 -10.94)"/></g></g></svg>