<svg viewBox="0 0 65 44.15" 
xmlns="http://www.w3.org/2000/svg">
  <g fill="#D51B03" fill-rule="nonzero">
    <path d="M38.4161535 4.71260979c-.2888239.24747098-.5870167.48460374-.8645331.74499748-.3589298.33566885-.3482686.34277637-.3101464.83190308.1037052 1.3197375.0109844 2.61686017-.5359717 3.84129225-.1579808.3553761-.3818678.6823221-.602524 1.004099-.1476571.2093753-.3631384.361285-.6099546.430005-.3980212.1182433-.7065522-.0323069-.8512872-.4199899-.1376275-.3712065-.1469965-.7588894-.1127511-1.14721857.089167-1.00894498.4923574-1.90610802.9956991-2.76708733.0268147-.04619889.0555679-.09142857.0823826-.13536597-.2442402-.27428572-.4846037-.54760223-.7307824-.8170419-.0248763-.02746088-.0736598-.03812216-.1133973-.04652196-.4778193-.10079758-.9414235-.00484604-1.401474.11372034-.0323069.00872287-.0681676.07107522-.0765674.11372035-.0358606.18414942-.0578293.37088339-.09369.55503281-.0093997.06940116-.0370476.13506504-.0801212.19028773-.0487834.05201414-.1292276.1079051-.1922261.10144372-.0449066-.00484604-.1059667-.1037052-.1140434-.16638062-.0261686-.20773347-.0323069-.41805149-.0455528-.64355376-.1001514.01615346-.1973952.03618375-.2956083.04652196-.5317718.05782938-1.0551438.01938415-1.5507319-.1906108-.1484011-.06261629-.2822592-.15522809-.3931752-.27202423-.3127309-.33663807-.1864109-.84417971.2552247-.96629985.6374154-.17607269 1.2357395-.06687532 1.7629883.35182231.0374761.03004543.0749521.06009086.1127512.08916709.0032307.00258455.0103382 0 .0271378 0-.0317878-.27259579-.1346159-.53206132-.2981928-.75242807-.1415043-.19965674-.1385967-.2167794.0817365-.33082282.0953054-.04942958.1938415-.0953054.2907622-.13633518.1427966-.05944473.2649167-.02713781.3098233.12728925a8.9251072 8.9251072 0 01.219364.87002524c.0387683.20934881.0323069.42742049.0439374.62384654l1.1882483-.13148915c-.1062897-.27590106-.2494093-.57215548-.3359919-.88391721-.5369409-1.9367996.443897-4.02834932 2.2414538-4.78497729.1847956-.07785966.3899445-.11275113.5892782-.15022715.1408581-.02649168.2154871.0471681.19158.19674911-.0578294.36086825-.1182433.72109036-.1757496 1.08195861-.1266431.79248864-.1124281 1.58788491-.0410298 2.38328117.0455527.50818778.1033821 1.01508329.1592731 1.56010096.060737-.05459869.1020898-.08949016.1408581-.12696618.5207875-.50140333 1.0596669-.9814841 1.6915901-1.33912166.2074104-.1172741.4409894-.19125694.6687532-.26653205.0646138-.02099949.1486118.02455326.2238869.03973751-.0293993.06655224-.0452297.14505805-.0911055.19739525-.2392554.26488787-.4013797.59025375-.4687733.94077739-.0730137.39285209-.0730137.78150429.0820595 1.15787986.1938415.46618879.569894.71075214 1.0141141.66164563.410944-.04619889.747582-.38283695.8189803-.85742554.0323069-.20385664.0051691-.41643615.0051691-.62836951-.1809187-.0209995-.3650681-.02390712-.5392024-.06655225-.3582837-.08787481-.6461383-.26750126-.7278748-.66519939-.1030591-.49978799.3033619-.87616356.7963655-.7301363.3792832.11242807.6022009.39640586.7682584.7353054.0323069.06655225.060737.13536598.0930439.20773347.3731449-.06687532.7249672-.17671883 1.0441596-.37249874.0546606-.04267241.0886053-.10656837.0933669-.17574962.0151843-.51691065-.0038768-1.0338213.032307-1.55073195.0507218-.69459869.2187178-1.36012115.6845835-1.90998486.1676729-.19836446.3750833-.33922261.6461383-.35537607.313054-.01841494.5401716.12115093.6635841.40965169.1234124.28850076.1133972.58927814.0859364.8903786-.0849672.93690055-.4703887 1.74457344-1.0690359 2.45984856-.058687.07306692-.0926282.16289794-.0969207.25651691-.0080768.5059263-.0029076 1.01217567 0 1.51842504-.0020902.06320047.0134594.12573453.0449066.18059565.0458758-.07495204.093367-.14861181.1373044-.22420999.2988389-.51691065.5902473-1.03705199.8997476-1.54653206.1002764-.17145813.2298524-.32399691.3828369-.45068147.3754064-.29496214.7924887-.12535083.8813327.34245331a1.65831699 1.65831699 0 01.0300454.30659263c.0025846.60833922 0 1.21700151 0 1.82534073-.0022922.06449758.01277.12842811.0436144.18511863.0365068-.0471681.0772135-.09142857.1088743-.14150429.4655426-.73595154.9323776-1.47093387 1.3933972-2.20979303.1644422-.26330137.3708834-.44163554.6997678-.4400202.2213024 0 .3786371.10079758.4451893.30433115a1.6554044 1.6554044 0 01.0801212.47297325c.0103382.45746592.0035537.91525492.0035537 1.37272084v.18673398l.0403837.01486118c.0323069-.04910651.0671984-.09692075.0969207-.14731954.345684-.59444725.6858759-1.19212519 1.0383443-1.78269561.1427966-.23939424.3418072-.41546693.6461383-.4199899.2494094-.00387683.4174054.09692075.4865422.3372842a1.88284892 1.88284892 0 01.0646138.4923574c.0071075.61383139.0025846 1.22766279.0035538 1.84149419-.002387.06927855.0148605.13782047.0497526.19771832.0646138-.08044422.1373044-.15636547.1938415-.24197879.5521252-.8212418 1.0903584-1.65023726 1.4631802-2.57356891.0229379-.05686017.0878748-.09692075.1334276-.14441191.0439374.04846037.1014437.09045936.1292276.14699646.2135488.43258961.4199899.86808683.620939 1.28258456.4048056-.28753155.7889348-.58152448 1.1953558-.84385664.406421-.26233216.8580717-.44777385 1.3513983-.48718829.0891671-.00678445.181888.02810702.2726704.04393741-.041999.08302877-.0707521.17736496-.1292277.24747097-.4881575.58830894-.5879858 1.25415447-.3747602 1.96846037.0617156.18271362.1650096.34860346.3017466.48460374.3909137.40157496 1.0422211.33146895 1.363998-.12761232.1957799-.27913175.2830086-.75630489.2061181-1.13074205-.1747804-.01163049-.3514992-.01389197-.5253104-.03650681-.4018981-.05201414-.6916911-.32306916-.7533973-.68846037-.083998-.49817265.3137001-.8506411.8041191-.71075215.2788087.07915194.476527.26427057.630631.49946492.070106.10693589.1266431.22259465.2096719.37023725.252317-.17542655.5017264-.34665321.7491974-.52143362.1143664-.08044422.2216254-.17090358.3369611-.24908632a.96080739.96080739 0 01.214841-.10919737c.5098031-.1812418.8625946.05459868.8742251.59509338.0109844.51141848.0035538 1.02283695.0051691 1.5345785 0 .05621403.0058153.11275113.009046.16928824l.0410298.01259969c.0323069-.0565371.0646138-.1130742.0969207-.17025744.3166078-.56763251.6267542-1.13881878.953054-1.70063604.0844107-.14381083.1965286-.2694355.3298536-.36959112.387683-.2859162.8461181-.09045936.9239778.38186774a2.1070542 2.1070542 0 01.0264917.3372842c.0025845.61932358 0 1.23832408.0041999 1.85764766 0 .07172135.0403836.1434427.0623523.21516406.0743059-.03521454.1637961-.05492176.2200101-.10919738.1389198-.13439677.2626552-.28430086.392206-.42871277.0807673-.08981323.1709036-.16153458.2907622-.07592125.1198587.08561332.0694599.19093387.009046.28462392-.2035336.31563857-.3993135.63773852-.6206159.94077739-.1493937.21251026-.3989182.33157648-.6580919.31402322-.430005-.02035336-.6874911-.29076224-.6942756-.75113579-.009369-.6190005-.0029076-1.23800101-.0054922-1.85732458a2.07957772 2.07957772 0 00-.0248763-.22614841l-.0558909-.0167996c-.0555679.07915194-.1208279.15313478-.1654115.2377789-.3618374.68975265-.7191519 1.38176678-1.0790509 2.07248864-.0545987.10435134-.0969208.22614841-.1796265.30206966-.1111358.09885917-.2487632.19158001-.3899445.22614841-.2300252.05782938-.3841292-.06202927-.4322665-.29560828a1.54685613 1.54685613 0 01-.0258455-.30433114c-.0019384-.71075215 0-1.42150429 0-2.13225644a.76179006.76179006 0 00-.0071076-.16153458c-.0264916-.12050479-.0988591-.18285714-.2229177-.12632004a1.9290469 1.9290469 0 00-.2487632.14635033c-.1751035.11468955-.3511762.2284099-.5198183.35214538-.0433383.03631802-.0689888.08950178-.0704291.14602726.0300455.52207976.0051691 1.03188289-.2545785 1.50550227-.5986471 1.08971227-2.1519636 1.2056941-2.7993942.18673398-.4480969-.7049369-.4665119-1.45833418-.0949823-2.2133468.0232609-.04749116.051368-.09239778.1007975-.17962645-.1179202.04910651-.210318.06784452-.2788086.11888945-.3741141.27848561-.7440283.56267878-1.1097426.85257951-.0323069.02519939-.0358607.11598182-.0197072.1654114.1140434.35279152.1893185.70752146.0969207 1.07743564-.0775366.31596164-.2410096.57764766-.5253104.74305906-.2610399.15184251-.5398486.20773347-.8025038.01001515-.2626552-.19771833-.3007774-.48460374-.233579-.78635033.0671984-.30174659.238425-.55147905.4342049-.78215043.0797981-.09401312.0862595-.16734982.0271378-.2681474-.0923977-.15733468-.1757496-.31983847-.2752549-.50269561l-.102736.15701161c-.3754063.57635538-.7462897 1.15626452-1.130742 1.72745078a2.20398032 2.20398032 0 01-.3605452.40803635c-.1841494.1644422-.4073902.22388693-.6441999.12179707-.2284099-.09692075-.2952852-.30530035-.2975467-.53015648-.0074306-.66229178-.0041999-1.32458355-.0074306-1.98687532 0-.09304392-.0132458-.1864109-.0203533-.27977789l-.0533064-.01712267c-.0587986.08302878-.1276124.16153458-.1747805.24973246-.3776678.71075215-.7498435 1.42635033-1.1271882 2.13839475a1.48612282 1.48612282 0 01-.2022413.30756184c-.1342958.15761692-.3545642.21128372-.54631.13310449-.19158-.070106-.22421-.24908632-.2261484-.42709742-.0041999-.69459869-.0025845-1.38919738-.0054922-2.08379606 0-.08270571-.0158304-.16573448-.0242302-.24876326l-.0520141-.02390711a2.11577748 2.11577748 0 00-.1731651.20514891c-.4736193.7311055-.9420696 1.46511863-1.4173044 2.19493185a1.29227538 1.29227538 0 01-.2510247.29076225c-.308531.25490156-.7252902.11468955-.8212418-.27267037a1.35430819 1.35430819 0 01-.0323069-.31919233c-.0029076-.62998486 0-1.25996971-.0025846-1.88995457 0-.0785058-.0119535-.15701161-.018738-.23551741l-.0449066-.02003029c-.0539525.06655224-.1195356.12664311-.1595961.20062594-.3805755.69782938-.7563049 1.39856639-1.134942 2.09768804a3.23069075 3.23069075 0 01-.2109641.36086825c-.1311661.182211-.3162848.24036345-.5098032.17962645-.173165-.05459869-.2655628-.19804139-.266209-.4325896-.0019384-.69459869 0-1.38919738 0-2.08379606v-.18382635c-.2061181.07915194-.401898.15927309-.6012317.22840989-.1350429.0471681-.3314689.03779909-.3983442.12922766-.0668754.09142857-.0061384.27816255-.0106613.42257446-.0239071.75404341-.2907623 1.38176678-.9847148 1.74941949-1.0247754.54404846-2.1616557-.05395255-2.3764967-1.22927815-.0720444-.39446744-.0449066-.78118122.0507218-1.16692579l.0048461-.03650682-.0271378.01550732zM36.7937002.39672892c-.2558708.01098436-.4290359.11565876-.5889551.24650177-.38316.31337708-.6461383.71592125-.8535487 1.15917214-.4387279.94562342-.5020495 1.93615345-.3379304 2.95091368.1150126.71075214.4083594 1.34041393.8855326 1.90610802.1033821-.13988894.2083796-.2691166.2972236-.40803634.0393543-.06049414.0578475-.1321978.0526603-.20417971-.0387683-.29819283-.088521-.59541646-.1392428-.89199394-.1448024-.81743951-.151791-1.65334807-.0206764-2.4730944.116951-.71689046.3631297-1.38919737.6364462-2.05730439.0271378-.06558304.0416759-.13665825.0684907-.22808682zm-.4267744 6.37253913c-.1163049.16153457-.2183948.29593134-.3127309.43549722-.5918627.87713276-.9766381 1.82663301-.9779304 2.90051493.00175.181571.0415927.360753.116951.5259565.1104897.2400404.359253.2972237.5866936.1599193.0852903-.051368.1793034-.1192125.2222716-.2035336.1395659-.2752549.2907623-.551479.3773448-.84547197.2833316-.97534579.1528117-1.95618375-.0125997-2.97288238zm7.3491772-3.43971732c.3109302-.44093844.50965-.95104501.5789399-1.48611812.0481373-.35537607.0345684-.71785967.0323069-1.07711257-.0093968-.08608823-.057735-.16311971-.1311661-.20902574-.1072589-.0523372-.1783341.0471681-.2209793.13536597a1.74166656 1.74166656 0 00-.1269661.32920747c-.1925493.75695104-.1369814 1.53231702-.1321353 2.30768299zM32.5240182 6.15995962l.0342453-.06784453c-.1531348-.14538112-.298839-.29980817-.4610197-.43388187-.1621807-.1340737-.3553761-.21387179-.5663402-.18511863-.0964746.01475139-.1837608.06555286-.2442403.14215043-.0723675.10693589-.0323069.24068652.0691368.31725391.1014437.07656739.2190409.15313478.3379303.16993438.2739627.03779909.5530944.03779909.8302878.05589096v.00161535zm20.7827158-.1812418c-.0394145.0565371-.0710752.08819788-.0862595.12664311-.0671984.17187279-.1473195.34180717-.187057.52014134-.0125171.05382185-.0014688.11042743.0303686.15559211.0318374.04516469.0814371.07459472.1363351.08089451.1195355.01356891.1583038-.08852094.1847955-.18479555.0649369-.2326098.0029076-.45261989-.0781827-.69847552zm4.5707824-1.42150429l.0219687-.04942958c-.0862595-.20224129-.2064412-.37702171-.4264513-.44971227-.0520141-.01744573-.1431196-.00710752-.1754265.02810702-.0384453.04135285-.0610601.13665825-.0390914.18511862.0348915.07656739.1011206.16444221.1747804.19158001.1405351.05104493.2952852.0639677.4442201.0943362zM41.114104 4.54719838c-.0775366-.25167087-.22421-.4335588-.3947905-.4807269-.0626754-.01744574-.1696113-.01130742-.2012721.02810702-.0402108.06480397-.0484292.1444862-.0222918.21613326.0366944.06995586.0989495.12306934.1738112.14828874.1356891.04167593.280101.05621404.4445432.08690561v.00129227zM4.39697123 4.71293286c-.284947.24359415-.57829379.47814235-.85322565.73272085-.36829884.34116103-.35860676.34729934-.32080767.84450278.10079758 1.3197375 0 2.61169106-.53080262 3.84452301-.15798082.3670065-.34762242.7159212-.61544675 1.0160525-.16767289.1867339-.3592529.3418071-.60446239.4144977-.39737506.1175972-.70622918-.0323069-.85031802-.4222514-.13956588-.3766986-.14731954-.7698738-.1111358-1.16304897.09304392-1.00151439.4965573-1.89415447.99505301-2.75093387.02713781-.04619889.0555679-.09175164.08561333-.14150429-.21871782-.23745583-.44195861-.46941949-.65389198-.71075215C-.67327612 4.53976779-.2209793 1.38725896 2.3955578.15830389c.18479556-.0869056.39995962-.1153357.60446239-.15281171.13342756-.02455326.20417971.05039878.18188794.19093387-.05847552.36636042-.12018173.73175164-.17801111 1.09843513-.12373549.78150429-.11016658 1.56656234-.04102978 2.35097426.04232206.48234225.09885916.96339222.14958102 1.44476527.00387683.03586067.01098435.07107521.01647653.10661282l.06655224.05395255c.02649167-.05298334.04102978-.11824331.08109036-.15701161.51691065-.50334175 1.05708228-.98471479 1.69159011-1.33782938.21645633-.12018173.46425037-.18673397.70170621-.26491671.04942958-.01615346.11792024.02552246.17768803.04070671-.02164563.05782938-.02875315.12922767-.06687531.17187279-.2461787.2807471-.42418981.59380112-.4923574.96436144-.0733367.39866734-.07365977.79248864.08625947 1.17306411.19384149.46134275.58152448.70687531 1.02186774.65033821.41094397-.05298334.74305906-.39511358.80961131-.86776376.02843008-.20353356.00484603-.41417465.00484603-.60672387-.22614841-.03618375-.44131246-.04942958-.64452296-.10887431-.31563857-.09207471-.55277133-.28236244-.62352348-.62901565-.10273599-.50204947.29786977-.87616355.79216558-.73627461.26653205.07527512.46489651.24650177.61383139.47071177.09692075.14635032.17348814.3069157.26459364.4713579.36119132-.06461383.71785967-.17542656 1.04028269-.37637557.0481373-.03004543.08238263-.11856638.08399798-.1812418.01389197-.50560323 0-1.01282181.03230692-1.51842504.04102978-.64.18834931-1.25996971.57797072-1.78560323.12692827-.17251082.28943732-.31573914.476527-.4199899.41352854-.22194851.85225644-.03521454.96629984.4199899.0614853.26651296.0799179.54114915.0545987.81348814-.0739828.93205452-.4681272 1.73229682-1.06063604 2.44498738-.05844258.07295754-.0923613.16250296-.09692075.25587077-.0083998.5059263-.00323069 1.01217567-.00193841 1.51842504-.00212289.0638879.01270183.12719949.04296819.18350328.04619889-.07398284.0943362-.1466734.1382736-.22194851.29948511-.51691065.59250881-1.03543665.90007071-1.54620898.0919081-.15796867.2080064-.30055692.3440686-.42257446.387683-.33502272.8309339-.172842.9230086.32726905a1.74651328 1.74651328 0 01.0248763.30465422c.0022615.60284705 0 1.20601716 0 1.80918728-.0022263.06449599.0118875.12850819.0410298.18608783a1.56981143 1.56981143 0 00.1114589-.1392428c.4623119-.73175164.9255931-1.46285715 1.3833821-2.19687027.1660575-.26653206.3708834-.45617365.7081676-.45455831.2206562 0 .3802524.09918224.4468046.30239274.0509312.15795689.0783623.32254367.0814135.48848056.009692.51691065.0035537 1.0338213.0355376 1.56591621.0355376-.05233721.0746289-.10241293.1062897-.15668855.3434225-.58960121.6823221-1.18211004 1.0309137-1.76848056.1457042-.24553256.3453609-.42645129.6561535-.43065119.2452094-.00452297.406744.09175164.476527.32759213a1.72971008 1.72971008 0 01.0671983.47491166c.0071076.62449268.0025846 1.24930843.0035538 1.87380111 0 .06138314.0080767.12308935.0158304.23648662.0969207-.12018172.1709036-.19707218.2293791-.28365472.5521252-.82091873 1.0919737-1.6476527 1.4641494-2.57292276.0229379-.05782938.0859364-.0995053.1292277-.14861182.0471681.05169107.1095204.09692075.1392428.15668854.2112872.42806664.41579.85936396.6186774 1.28226149.3479455-.25651691.6784453-.51464917 1.0225139-.74952045.4164361-.28333165.8697022-.49171125 1.3714286-.57667844a2.00561284 2.00561284 0 01.3053003-.02003029c.1292277-.00161534.1479657.06687532.0911055.16702676a.8810096.8810096 0 01-.0969207.12922766c-.4920343.58475517-.598001 1.25253912-.382837 1.96684503.1721959.57247854.6658456.85419485 1.1779102.71495204.2788087-.07559818.4642504-.26233215.5863705-.51691065.1476426-.30659263.1453811-.63256941.121474-.96565371-.1851186-.01292277-.3611913-.01615346-.5350025-.03844523-.3951136-.05104493-.6861989-.3153155-.7530742-.67069157-.0969208-.50657244.3017466-.86970217.7992731-.73045936.2675012.07462897.4619889.24844018.6138314.47071176.0785058.11436648.140212.24004038.2225946.38283695.1379505-.08302878.2826855-.15959617.4151439-.25296315.1977183-.13956588.387683-.29076224.5815245-.43743564s.3986673-.2293791.6422615-.22162544c.280747.00872287.4552044.14150429.5120646.4199899a1.98881769 1.98881769 0 01.0352145.3844523c.0041999.45778899 0 .91525492.0022615 1.37304392 0 .05718324.0058152.11404341.0087229.17122665l.0400605.01292277c.0297224-.051368.0594448-.10208986.088521-.15378092.3191923-.57215548.6319232-1.14818779.962423-1.71420495.0867784-.14849712.2032473-.27750368.3421302-.37896012.3857446-.27525492.8351338-.07785967.9113781.38768299a2.14484652 2.14484652 0 01.0264917.3372842c.0022615.62449268 0 1.24930843.0038768 1.87380111 0 .06687531.0397375.13375063.0610601.20062594.0707521-.03230691.1573347-.04555275.2090257-.09692074.1460273-.1424735.2781626-.29948511.4151439-.45229682.0785058-.08690561.167996-.14731954.280424-.06816759.1195356.08399798.0733367.18964159.0122767.28397778-.2038567.31563857-.4002827.63709238-.621262.94045432-.1484718.21320161-.3975152.33337454-.6567996.31693084-.4280667-.01809187-.6894296-.29076224-.6968602-.7488743-.0096921-.61900051-.0025845-1.23832408-.0054922-1.85732459a2.17652 2.17652 0 00-.0245532-.22808682l-.0549218-.0177688c-.0555679.07882887-.1211509.15248864-.1654114.23713276-.3621605.68975265-.7197981 1.38176678-1.0800202 2.07216557-.0542756.10467441-.0969207.22614841-.1789803.3027158-.1056436.09692075-.2377789.18996466-.373791.22614841-.2458556.06461383-.4028672-.05524483-.4522968-.3069157a1.45865689 1.45865689 0 01-.0219687-.28850076c-.0019384-.72141342.0019384-1.44314992-.0051691-2.16456335 0-.08722867-.032307-.21742554-.0911055-.24876325-.0587986-.03133771-.1851187.01130742-.2603938.05686017-.2293791.13891974-.4503584.29076224-.6693993.44712772-.0323069.0219687-.0474911.08722867-.0445835.12922766.0348915.52175669.0100151 1.03155982-.2510248 1.5051792-.3976981.7217365-1.2573851 1.0683897-2.0327511.79862696-.6425845-.22356386-.9465926-.73239778-1.0680666-1.36496719-.1085513-.56343261-.0323069-1.1029581.2687935-1.62374558-.0894901.03844522-.1912569.06106007-.2671782.11759717-.366145.27267037-.7264748.55180212-1.0809894.83739525-.0342453.02746088-.0371529.12599697-.0197072.17962645.1156588.35311459.1847956.7091368.0917516 1.07775871-.0781827.30917719-.2406865.56634023-.5198182.72916709-.2607168.15216557-.5346795.20417971-.8037961.01453811-.2261484-.15830389-.3159616-.47200404-.238425-.78635033.0752751-.30562342.247794-.55858657.4448662-.79475012.0688137-.08238264.0814134-.1466734.0264917-.24036346-.0946593-.16153457-.1780111-.33049974-.2797779-.52240282-.0429682.06461383-.0733367.10984351-.1030591.15539626-.378314.58152448-.7514588 1.16563352-1.1378495 1.74134276a2.12870521 2.12870521 0 01-.3670066.40480565c-.1812418.1592731-.3999596.21322565-.6312771.11533569-.2313176-.09788995-.2991621-.30239273-.3020697-.52757193-.0077537-.66746088-.0051691-1.33492176-.0083998-2.00302878 0-.08852094-.0119536-.17671882-.0180919-.26523977l-.051368-.01841495c-.056214.07721353-.1230893.14893489-.1673498.2326098-.3734679.70170621-.7430591 1.40599697-1.1136194 2.10899545-.0474911.0901363-.0833518.1938415-.1524886.26362444-.0907825.09239778-.1986876.1906108-.3179001.22840989-.2949621.09401313-.4968803-.05782938-.5243412-.36603735-.0077537-.08561333-.0074306-.17219586-.0077537-.25845533V4.78206966c0-.08335184-.0145381-.16670368-.0226148-.25037859l-.0500757-.0251994c-.0584756.06719839-.125997.12922766-.1741343.20256436-.4739425.73078244-.9430389 1.46447249-1.4173044 2.19460879a1.38919907 1.38919907 0 01-.2261484.27299343c-.3137002.28430086-.7546896.14570419-.850318-.26556284a1.38370971 1.38370971 0 01-.0300455-.30368501c-.0025845-.62998486 0-1.25996971-.0019384-1.8896315 0-.07882887-.0119535-.15733468-.0180919-.23584049l-.0474911-.02067642c-.0562141.07042908-.1240586.13471984-.1667037.21290257-.38316.70267542-.761474 1.40793539-1.14237254 2.11190308a2.97578854 2.97578854 0 01-.1938415.33340737c-.13148914.18188794-.31466935.24068652-.50915699.18027259-.17316507-.05427562-.26556284-.19642605-.26653205-.43226653-.00226149-.69427562 0-1.38919737 0-2.08347299v-.17122666l-1.01023726.3414841v.40932862c-.00581524.53500253-.15055022 1.02348309-.52563351 1.41665826-.47200404.49526502-1.05837456.65841494-1.71226654.47200404-.66746087-.19093388-.9824533-.71075215-1.12266532-1.3533367-.08496719-.39155982-.04619889-.78085815.04587582-1.1669258.00193842-.01195356.0041999-.02390712.00613832-.03586067l-.0303685.01679959zM2.77613327.40512872c-.22388693.00613832-.37637557.04038365-.54340233.2074104-.24133266.24165573-.49364967.48783443-.66972236.77665826-.7259364 1.18921756-.79539626 2.4740636-.46909641 3.79767794.13536597.54921756.41126703 1.02832912.78538112 1.47093387.11275113-.15022716.22065623-.28397779.31499242-.42645129.03173118-.05370432.04458221-.11648105.03650682-.17833417-.04135285-.29819284-.08981323-.59541646-.14021202-.89199395-.14437014-.8175716-.15157623-1.65347841-.02132256-2.47341746.11695104-.71689046.36280666-1.39016659.6358001-2.05762746.02746088-.06655225.04393741-.13795053.07107522-.22485614zm-.42677436 6.38384655c-.03489147.03715295-.06170621.06041393-.0827057.08819787-.37540636.5007572-.69362948 1.03382131-.90943968 1.62406866-.22033317.6012317-.35182231 1.21797072-.28171631 1.8621706.02358405.2174256.11598183.4148208.34665321.4797577.23067138.0649369.42645129-.0439374.54081777-.2309944.14602726-.2397173.28300858-.495265.36668349-.76212017.31693084-1.00862191.19287229-2.02596669.01970722-3.06108026zm7.33043917-3.46685513l.06106007.02552246c.12276628-.27687026.25845533-.54921756.36506815-.83125694.2119334-.56310954.2671782-1.14948006.2070873-1.74651186-.009692-.09336699-.0164765-.22356386-.1415043-.21645633-.0765674.00452296-.17865721.07656739-.2164563.1466734a1.64991415 1.64991415 0 00-.15701161.43678949c-.15119636.7217365-.10952044 1.45510349-.11824331 2.18523978zm9.60775362 2.65821303a.60995738.60995738 0 00-.0671983.09692074c-.0720445.1812418-.158627.3592529-.2041798.54727915-.0138025.05335641-.0039989.11007164.0269138.15569868.0309126.04562704.07995.07576117.1346208.08272636.1198587.01486118.1592731-.08625946.186734-.182211.0684907-.23390207.0025846-.4535891-.0768905-.70041393zm4.6173044-1.42311964c-.1098435-.24714791-.2238869-.42257446-.4380817-.4933266-.0591217-.01970722-.163473-.00516911-.1999799.0355376-.0365068.04070672-.0474911.15151944-.019061.20385664.0429407.07963582.112114.14196028.1957799.17639576.1331045.04329127.2788087.04878344.4613427.0775366zM7.06843009 4.54235235l.02713781-.04393741c-.08464412-.18350328-.1854417-.35796062-.39155982-.43097425-.0597678-.02132257-.1686421-.01486118-.20094902.02390711-.04120208.06418565-.05072601.14371048-.02584553.2158102.03561295.07042076.09726523.12419267.17187279.14990409.13471984.0429682.27913175.05782938.41934377.08464412v.00064614z"/>
  </g>
</svg>