<svg xmlns="http://www.w3.org/2000/svg" viewBox="0 0 350.64 117.84"><defs><style>.cls-1{fill:#f79824;}.cls-2{fill:#9b9b9e;}.cls-3{fill:#949496;}.cls-4{fill:#959497;}.cls-5{fill:#939396;}.cls-6{fill:#939395;}.cls-7{fill:#929295;}.cls-8{fill:#959598;}.cls-9{fill:#949497;}.cls-10{fill:#969699;}.cls-11{fill:#949396;}.cls-12{fill:#929296;}</style></defs><title>Kellogg Foundation</title><g id="Layer_2" data-name="Layer 2"><g id="Layer_1-2" data-name="Layer 1"><path class="cls-1" d="M118.08.24c0,.44,0,.88,0,1.31V116.77c0,.43,0,.87,0,1.31H.24V.24ZM61.25,48a4.69,4.69,0,0,1,.7.45c1.37,1.35,2.73,2.7,4.08,4.07q3.06,3.12,6.11,6.26a1.4,1.4,0,0,0,1.16.46c1.28,0,2.56,0,3.84,0a6.75,6.75,0,0,0,.84-.14c-4.5-4.56-9-8.82-13.35-13.33L77.55,34.54c-1.83,0-3.47,0-5.1,0a1.47,1.47,0,0,0-.85.33c-1.37,1.16-2.71,2.36-4,3.55l-5.35,4.8c-.28.24-.6.43-1.05.75V15H57.43v88.42h3.82V78.58l.22-.12c.28.33.54.69.84,1l9.83,9.65c.18.18.43.41.66.41,1.69,0,3.4,0,5.31,0L64.56,76.42c2.17-1.86,4.35-3.66,6.45-5.54s4.31-3.59,6.26-5.67c-1.67-.12-3.29-.13-4.92-.1a1.41,1.41,0,0,0-.7.39l-7.9,7-2.5,2.18ZM37.06,40.81c.48,1.55.88,2.83,1.27,4.12,1.39,4.54,2.79,9.08,4.15,13.63a.79.79,0,0,0,.93.68c.79,0,1.6,0,2.39,0s.88-.21,1.07-.83c1.22-4.1,2.51-8.17,3.77-12.26q1.63-5.34,3.25-10.69a4.2,4.2,0,0,0,.1-.9H50c-1.73,6-3.46,12-5.27,18.2-2-6.25-3.73-12.29-5.62-18.18h-4l-5.5,17.93c-1.07-3-1.93-6-2.8-9s-1.76-6-2.64-8.93H20C22.5,42.89,25,51.05,27.51,59.19h3.92C33.28,53.13,35.13,47.09,37.06,40.81ZM85.5,68.63H98.34V65.16H81.67c-.2,2.3-.11,23.48.1,24.38.59,0,1.18,0,1.78,0a5.58,5.58,0,0,0,1.9-.13c0-3.48,0-6.91,0-10.35a.49.49,0,0,1,0-.12l.07-.09.16-.15H97.18c0-1.16,0-2.25,0-3.4H85.5Z" transform="translate(-0.24 -0.24)"/><path class="cls-2" d="M350.88,93.12l-.63-.07c-.13-.68-.26-1.36-.39-2.07-.6.66-.18,1.94-1.5,2.17L347.57,91c-.09.42-.16.65-.2.88a6.64,6.64,0,0,1-.15,1c0,.11-.31.14-.54.24a7.68,7.68,0,0,1,.2-3.55c1.08-.12,1.08-.12,1.43.83.09.26.19.51.32.82.68-.39.48-1.24,1-1.71h.86l.39.7Z" transform="translate(-0.24 -0.24)"/><path class="cls-3" d="M135.06,20.17h3.47a.61.61,0,0,1,.65.57c.64,3.05,1.3,6.09,1.95,9.13.43,2,.89,3.92,1.28,5.89.26,1.32.43,2.65.63,4a.86.86,0,0,0,.32.58c.13-.53.28-1.06.38-1.6.42-2.16.78-4.35,1.25-6.5.75-3.47,1.58-6.91,2.37-10.37.39-1.67.38-1.68,2.14-1.68h2.16a2.55,2.55,0,0,1,.26.1c.83,3.26,1.55,6.64,2.29,10s1.43,6.78,2.12,10.05c.67-3.28,1.36-6.66,2.07-10s1.44-6.69,2.17-10.07h3.81c-2,8.32-4,16.59-6,24.86-1.32,0-2.52,0-3.71,0-.54,0-.73-.2-.86-.74-1-4.38-2.06-8.74-3-13.12-.36-1.62-.53-3.28-.8-4.91a2.1,2.1,0,0,0-.25-.52c-.61,2.89-1.22,5.77-1.84,8.66q-1,4.63-2,9.25a5.76,5.76,0,0,0-.19.68c-.05.58-.38.71-.9.71-1.15,0-2.31,0-3.63,0-1.05-4.12-2.12-8.25-3.14-12.41S136.08,24.43,135.06,20.17Z" transform="translate(-0.24 -0.24)"/><path class="cls-4" d="M336.9,89.57h3.57v24.55a5,5,0,0,1-1.82.12c-.64,0-1.28,0-1.91,0-.9-1.12-8.75-16.49-10.08-19.81,0,.81,0,1.38,0,1.94.07,1.87.18,3.74.21,5.61,0,2.63,0,5.27,0,7.91,0,1.39.13,2.77.21,4.19a4.82,4.82,0,0,1-1.91.16c-.6,0-1.19,0-1.85,0V89.58h4.15a2.55,2.55,0,0,1,.3.39q1.17,2.2,2.33,4.42c1.59,3,3.21,6,4.75,9.07.81,1.61,1.5,3.3,2.24,5C337.05,102.16,337,95.91,336.9,89.57Z" transform="translate(-0.24 -0.24)"/><path class="cls-5" d="M206.86,95.06c0,2.48-.12,5,.07,7.43.3,3.87,0,7.73.21,11.67h-3.56V89.59h4.11c.13.24.3.54.46.85,2.11,4,4.25,7.91,6.29,11.9,1.07,2.1,2,4.3,3,6.55,0-.38,0-.7,0-1-.07-2.23-.07-4.46-.26-6.68-.31-3.63-.07-7.26-.19-10.88v-.64a4.64,4.64,0,0,1,1.77-.14c.56,0,1.11,0,1.75,0v24.72c-1.13,0-2.28.05-3.42,0-.29,0-.64-.43-.81-.74-.63-1.15-1.2-2.33-1.79-3.5l-6.42-12.63c-.39-.77-.77-1.54-1.15-2.31l-.09-.41-.14.06Z" transform="translate(-0.24 -0.24)"/><path class="cls-5" d="M175.28,102A18.05,18.05,0,0,1,174,108.4a9.25,9.25,0,0,1-7.54,6.1,10.29,10.29,0,0,1-7.59-1.55,10.56,10.56,0,0,1-4.1-6.09,15.29,15.29,0,0,1-.65-4.68c0-3.08.36-6.16,2.19-8.84a9.2,9.2,0,0,1,5.82-4,11,11,0,0,1,7.51.93,8.69,8.69,0,0,1,3.53,3.45A12.91,12.91,0,0,1,175,99.19C175,100.13,175.18,101.08,175.28,102Zm-4.26.09c-.13-1.46-.19-2.93-.4-4.39a7.81,7.81,0,0,0-1.49-3.83c-1.61-2-3.83-2.29-6.16-1.83a4.87,4.87,0,0,0-3.71,3.2,12,12,0,0,0-.85,3.92c0,1.44,0,2.88,0,4.32a12.65,12.65,0,0,0,.75,4.18,6.26,6.26,0,0,0,2.14,3.22,6.33,6.33,0,0,0,5.36.76c1.89-.42,2.87-1.83,3.54-3.55A18.19,18.19,0,0,0,171,102.11Z" transform="translate(-0.24 -0.24)"/><path class="cls-5" d="M297.76,101.77a16.74,16.74,0,0,1,1.78-7.69,9.08,9.08,0,0,1,6.93-4.84,12,12,0,0,1,4.81.25,8.7,8.7,0,0,1,5.5,4.07,14.65,14.65,0,0,1,2,6.75,24.09,24.09,0,0,1,0,3.29,13.18,13.18,0,0,1-2.46,7.3,9.17,9.17,0,0,1-6.08,3.61,12.16,12.16,0,0,1-4.81-.27,8.77,8.77,0,0,1-5.16-3.59,12,12,0,0,1-2.17-5.93C298,103.74,297.86,102.75,297.76,101.77Zm16.85.11c0-.53.06-1.41,0-2.28a16.15,16.15,0,0,0-.46-2.68c-.46-1.7-1.09-3.34-2.74-4.28a6.7,6.7,0,0,0-3.44-.75,5.27,5.27,0,0,0-5.14,3.66,15.42,15.42,0,0,0-.86,4.88c0,1.34.13,2.69.18,4a10.6,10.6,0,0,0,1.22,4.54c1.52,2.95,4.72,3.39,7.3,2.54,2-.68,3-2.41,3.48-4.36A16,16,0,0,0,314.61,101.88Z" transform="translate(-0.24 -0.24)"/><path class="cls-5" d="M209.26,67.18a13.77,13.77,0,0,1,.77-5.63c1.23-3.6,3.59-6.15,7.44-6.75a11,11,0,0,1,7,.88,9.44,9.44,0,0,1,3.8,3.69A14.47,14.47,0,0,1,230,64.52a19.52,19.52,0,0,1,.17,4.64c-.26,3.14-1.1,6.08-3.46,8.37a9.36,9.36,0,0,1-5.72,2.59,11.27,11.27,0,0,1-4.82-.52A9,9,0,0,1,211,75.21a14.06,14.06,0,0,1-1.73-6.95C209.27,67.9,209.26,67.54,209.26,67.18Zm10-9.82a5.27,5.27,0,0,0-5,3.42,10.09,10.09,0,0,0-.84,3.43,25.11,25.11,0,0,0,.45,8.29c.7,2.51,2,4.45,4.88,4.86a5.44,5.44,0,0,0,6.36-3.53c.85-2.09.82-4.33.94-6.53,0-.5-.18-1-.17-1.52a13.22,13.22,0,0,0-.56-3.87C224.52,59,222.69,57.39,219.28,57.36Z" transform="translate(-0.24 -0.24)"/><path class="cls-6" d="M226.82,114.27V89.59c.33,0,.64-.07.94-.07,2.16,0,4.32-.06,6.47,0a10.82,10.82,0,0,1,5.53,1.56,10.37,10.37,0,0,1,4.3,6.08,18.52,18.52,0,0,1,.44,7,11.89,11.89,0,0,1-2.11,6A9.11,9.11,0,0,1,236,114C233,114.42,229.94,114.1,226.82,114.27Zm3.63-2.88c1.68-.16,3.25.07,4.85-.22a5.38,5.38,0,0,0,4.48-3.88A18.13,18.13,0,0,0,239.93,97a5.87,5.87,0,0,0-4.6-4.5,25.07,25.07,0,0,0-4.88.08Z" transform="translate(-0.24 -0.24)"/><path class="cls-3" d="M267.13,69.38c-.19-.95-.37-1.82-.55-2.7a59.92,59.92,0,0,1,8.85-.12V78.12a11.64,11.64,0,0,1-4.74,1.76,16.87,16.87,0,0,1-3.55.24,10.2,10.2,0,0,1-7.07-2.94,11.3,11.3,0,0,1-3-6,21.28,21.28,0,0,1-.18-6c.33-3.61,1.73-6.75,4.87-8.84a10.81,10.81,0,0,1,8-1.54,11.87,11.87,0,0,1,5.27,2.3l-1.66,2.08a31.51,31.51,0,0,0-3.61-1.44,6.68,6.68,0,0,0-5.79.87,5.15,5.15,0,0,0-1.59,1.89,12.14,12.14,0,0,0-1.41,5.34c0,1.15-.05,2.32,0,3.47a13.58,13.58,0,0,0,.78,3.94,5.47,5.47,0,0,0,3.66,3.48,8.44,8.44,0,0,0,5.8-.08,1.05,1.05,0,0,0,.79-1.16c-.05-1.76,0-3.52,0-5.28,0-.87-.06-.91-1-.92Z" transform="translate(-0.24 -0.24)"/><path class="cls-5" d="M252.13,57.28l-1.67,2.07a25,25,0,0,0-2.31-1.16c-2.59-.95-5.11-1-7.4.83a7,7,0,0,0-1.92,3.22,12.51,12.51,0,0,0-.75,4.3,22.6,22.6,0,0,0,.64,6.12A5.77,5.77,0,0,0,243.24,77a8,8,0,0,0,5.83-.63v-7H244.4c-.21-1-.4-1.9-.61-2.88h8.76a95.65,95.65,0,0,1,.12,11.64A11.94,11.94,0,0,1,249,79.64a15.35,15.35,0,0,1-4.48.51,10.27,10.27,0,0,1-10.05-8.21,17.57,17.57,0,0,1,.48-10.3A10,10,0,0,1,242.53,55C245.72,54.22,249.93,55.11,252.13,57.28Z" transform="translate(-0.24 -0.24)"/><path class="cls-5" d="M261.26,107.32h-8.84l-2.24,6.87h-3.79l8.38-24.63h4.57c2.76,8.19,5.51,16.37,8.3,24.68H264c-.46,0-.57-.29-.68-.67C262.62,111.5,262,109.44,261.26,107.32Zm-.86-3c-1.16-3.78-2.29-7.48-3.5-11.45l-3.53,11.45Z" transform="translate(-0.24 -0.24)"/><path class="cls-7" d="M180,89.57h3.58c0,.35,0,.73,0,1.11V106a12.51,12.51,0,0,0,.4,3,2.8,2.8,0,0,0,1.82,2,7.27,7.27,0,0,0,5.33,0,3.42,3.42,0,0,0,2.28-3.07,36.33,36.33,0,0,0,.22-4c0-4.4,0-8.79,0-13.19V89.59h3.56c0,.21.06.44.06.66,0,5.76-.09,11.52,0,17.27a6.58,6.58,0,0,1-4.46,6.38,10.74,10.74,0,0,1-5.71.64,17.85,17.85,0,0,1-2.9-.54,6,6,0,0,1-4-4.19,4.2,4.2,0,0,1-.18-1C180,102.41,180,96.05,180,89.57Z" transform="translate(-0.24 -0.24)"/><path class="cls-5" d="M173.22,76.75v2.88h-14.3V55.16c.87-.22,10.84-.31,13.72-.11a7.43,7.43,0,0,1-.49,3h-9.6v7.26h8v3h-7.91a51.54,51.54,0,0,0-.13,8.4Z" transform="translate(-0.24 -0.24)"/><path class="cls-8" d="M151.28,89.59l-.39,2.78-3,0h-6.18v7.42h7.53v2.79a10.42,10.42,0,0,1-2.44.09c-.84,0-1.68,0-2.52,0h-2.6v11.46h-3.79V89.7A124.14,124.14,0,0,1,151.28,89.59Z" transform="translate(-0.24 -0.24)"/><path class="cls-3" d="M274.15,92.41h-6.49V89.59H284.8c-.12.93-.24,1.84-.37,2.83h-5.37a2.54,2.54,0,0,0-.83,0,1,1,0,0,0-.51.53,3.35,3.35,0,0,0,0,1V114.2c-1.16.08-2.3,0-3.55,0Z" transform="translate(-0.24 -0.24)"/><path class="cls-9" d="M177.15,79.65V56.51c0-.2,0-.4,0-.6,0-.82.09-.9.88-.92s1.83,0,2.71,0l.13.12a.19.19,0,0,1,0,.1,2,2,0,0,1,0,.35q0,10.5,0,21s0,.07.07.21h9.43a5.36,5.36,0,0,1-.46,2.9Z" transform="translate(-0.24 -0.24)"/><path class="cls-9" d="M194.71,79.65V55.2A5,5,0,0,1,197,55c1.7-.06,1.5.07,1.5,1.49V76.77c1.61.06,3.2,0,4.78,0H208c.29,1-.33,1.91-.44,2.85Z" transform="translate(-0.24 -0.24)"/><path class="cls-9" d="M182.86,31.74,192.56,45a4.36,4.36,0,0,1-.73.12c-1,0-2,0-3,0a1.64,1.64,0,0,1-1.58-.85c-.54-.79-1.09-1.56-1.63-2.35q-3.15-4.54-6.28-9.1c-.23-.33-.42-.67-.66-1.05.91-1.18,1.77-2.31,2.64-3.43q2.34-3,4.7-6a5.19,5.19,0,0,0,.67-.83,2.39,2.39,0,0,1,2.77-1.31c.83.07,1.66,0,2.73,0-1.49,2.24-3.19,4-4.68,5.94S184.42,29.87,182.86,31.74Z" transform="translate(-0.24 -0.24)"/><path class="cls-5" d="M141.83,66.46c.43-.61.83-1.24,1.28-1.83,1.58-2,3.17-4.08,4.76-6.11.73-.94,1.49-1.86,2.22-2.8a1.74,1.74,0,0,1,1.64-.74c1.07.05,2.15,0,3.47,0-3,4-6.24,7.62-9.32,11.52,3.06,4.34,6.35,8.58,9.58,13.14-1.06.08-1.91,0-2.77,0-2,0-2,0-3.08-1.57-1.81-2.61-3.59-5.22-5.38-7.84-.81-1.18-1.6-2.36-2.4-3.54Z" transform="translate(-0.24 -0.24)"/><path class="cls-10" d="M141.83,66.46v.28c-.47.21-.23.63-.23.94,0,3.55,0,7.11,0,10.66v1.25a7.3,7.3,0,0,1-1.91.1c-.59,0-1.18,0-1.84,0,0-.41-.05-.72-.05-1V55.91c0-.83.09-.9.87-.92s1.84,0,2.86,0c0,.37.06.71.06,1.06,0,3.15,0,6.31,0,9.46C141.6,65.82,141.37,66.24,141.83,66.46Z" transform="translate(-0.24 -0.24)"/><path class="cls-11" d="M289.25,114.24V89.59H293v24.53a5.38,5.38,0,0,1-1.84.12C290.53,114.26,289.94,114.24,289.25,114.24Z" transform="translate(-0.24 -0.24)"/><path class="cls-12" d="M178.51,20.19V45h-3.38c-.24-.82-.34-22.35-.1-24.85h3.48Z" transform="translate(-0.24 -0.24)"/><path class="cls-8" d="M194.89,42.86a2.35,2.35,0,0,1,2.54-2.28A2.29,2.29,0,0,1,199.65,43a2.25,2.25,0,0,1-2.45,2.33A2.34,2.34,0,0,1,194.89,42.86Z" transform="translate(-0.24 -0.24)"/><path class="cls-4" d="M165.29,45.36A2.27,2.27,0,0,1,163,42.89a2.33,2.33,0,0,1,2.36-2.31A2.48,2.48,0,0,1,167.75,43,2.38,2.38,0,0,1,165.29,45.36Z" transform="translate(-0.24 -0.24)"/><path class="cls-5" d="M346.31,89.92l-1,.2v2.14c0,.37,0,.8-.49.78s-.41-.4-.41-.74c0-.71,0-1.43,0-2.14l-1-.29a5,5,0,0,1,2.62-.35,1.88,1.88,0,0,1,.45.12Z" transform="translate(-0.24 -0.24)"/></g></g></svg>