<svg xmlns="http://www.w3.org/2000/svg" viewBox="0 0 108 37.97"><defs><style>.cls-1{fill:#0067b1;}.cls-2{fill:#00853f;}</style></defs><title>MacFound</title><g id="Layer_2" data-name="Layer 2"><g id="Layer_1-2" data-name="Layer 1"><path class="cls-1" d="M18.55,16.19h-.18a1,1,0,0,1-.84-.27,2.63,2.63,0,0,1-.24-1.39V4.5c0-.18,0-.43,0-.69a1.55,1.55,0,0,1,.18-.93c.08-.12.32-.16.57-.16h.39c.23,0,.67,0,.68-.5a.36.36,0,0,0-.16-.32.53.53,0,0,0-.3-.07l-.34,0H15.65a.67.67,0,0,0-.74.37l-4.8,11L5.88,2.62c-.13-.34-.19-.77-.73-.76H2.39l-.34,0a.57.57,0,0,0-.31.07.34.34,0,0,0-.15.32c0,.45.45.5.68.5a2.35,2.35,0,0,1,1,.12c.14.09.2.23.2.59,0,.14,0,.31,0,.52L2.7,14.51c-.1,1.19-.08,1.66-1.36,1.68-.2,0-.7,0-.73.43A.36.36,0,0,0,.77,17,.64.64,0,0,0,1.1,17c.7,0,1.42-.1,2.12-.1s1.42.1,2.15.1a1.26,1.26,0,0,0,.37,0A.35.35,0,0,0,6,16.62c0-.44-.51-.42-.75-.43h-.1c-1.29,0-1.47-.67-1.49-1.71,0-.26,0-.54,0-.83L4.37,4,9,15.94c.05.14.11.51.46.53s.4-.36.47-.5L15.18,3.71V14.62c0,.45,0,1.06-.31,1.27a1.93,1.93,0,0,1-1,.3h-.18c-.23,0-.66,0-.67.43s.39.4.56.4c.94,0,1.89-.1,2.84-.1.75,0,1.51.1,2.28.1.18,0,.56,0,.57-.4s-.44-.43-.67-.43"/><path class="cls-1" d="M30.44,15.22c-.21,0-.3.19-.46.32a.87.87,0,0,1-.61.27c-.33,0-.5-.24-.61-.61a4.33,4.33,0,0,1-.11-1.09V8.4c0-.16,0-.32,0-.47a1.59,1.59,0,0,0-.52-1.35,3.33,3.33,0,0,0-2.24-.65A6.74,6.74,0,0,0,21.56,7.6a2.75,2.75,0,0,0-1,1.78.39.39,0,0,0,.13.32.44.44,0,0,0,.29.08A3.32,3.32,0,0,0,22,9.46a1.61,1.61,0,0,0,.72-.91,2.69,2.69,0,0,1,2.63-1.94c1.4,0,1.39.84,1.41,2v1c0,.91,0,.79-.81,1.23l-1.84.86c-1.3.64-3.57,1.63-3.58,3.43a2.16,2.16,0,0,0,2.35,2,4.83,4.83,0,0,0,2.67-.93c.34-.23.62-.46.83-.63l.26-.2.07,0h0l0,0c.23.24.45,1.62,1.59,1.63a3.18,3.18,0,0,0,1.75-.71c.18-.16.61-.46.63-.83a.31.31,0,0,0-.29-.3m-6.09-2.76,2.17-1.1a1,1,0,0,1,.21-.08h0s0,0,0,.05a.94.94,0,0,1,0,.25c0,.11,0,.2,0,.25v1.43A2,2,0,0,1,26.22,15a3,3,0,0,1-2.13.91c-.85,0-1.53-.43-1.53-1.29C22.55,13.52,23.43,12.93,24.35,12.46Z"/><path class="cls-1" d="M41,14.76c-.23,0-.37.27-.44.32a3.76,3.76,0,0,1-2.66,1,4.63,4.63,0,0,1-4.34-4.79,5.07,5.07,0,0,1,1.68-3.78,4,4,0,0,1,2.33-.94,2.33,2.33,0,0,1,1.9,1.26c.45.63.7,1.32,1.22,1.36s.41-.49.42-.82,0-.45,0-.51,0-.3,0-.49a.73.73,0,0,0-.26-.65,5.8,5.8,0,0,0-3-.81c-3.25,0-6.3,2.56-6.3,5.85a5.53,5.53,0,0,0,9,4.23c.17-.16.73-.58.76-.94a.31.31,0,0,0-.28-.31"/><path class="cls-1" d="M56.14,16.19c-1.06,0-1.47-1.29-1.85-2.24L49.48,2c-.06-.12-.11-.49-.44-.52s-.44.43-.51.59L43.93,14a7.92,7.92,0,0,1-.88,1.85,1.44,1.44,0,0,1-1.11.34c-.19,0-.74,0-.78.45s.33.4.55.4l.42,0c.68,0,1.35-.1,2-.1s1.32.1,2,.1a1.5,1.5,0,0,0,.41,0,.37.37,0,0,0,.27-.36c0-.42-.44-.43-.64-.43h-.09a3.39,3.39,0,0,1-1-.12c-.31-.12-.51-.29-.52-.62a4.11,4.11,0,0,1,.33-1.27l.71-1.78c.41-.9.12-.85,1.07-.88h3.23c.58,0,.8,0,.91.12a3.9,3.9,0,0,1,.47,1l.76,1.81a3.8,3.8,0,0,1,.32,1.12c0,.3-.16.43-.45.52a3.78,3.78,0,0,1-1,.08c-.22,0-.78,0-.8.47s.36.36.49.36c.89,0,1.8-.1,2.65-.1,1,0,2.09.1,3.14.1.12,0,.45,0,.47-.36s-.58-.46-.8-.47M48.37,5.33a4.55,4.55,0,0,1,.28.65l1.62,4c0,.15.16.45.16.49s0,0-.07.05a.9.9,0,0,1-.25,0h-3l-.4,0a1.14,1.14,0,0,1-.28,0l-.06,0a1.4,1.4,0,0,1,.06-.24L48.07,6c0-.06.08-.23.15-.39a1.2,1.2,0,0,1,.11-.2Z"/><path class="cls-1" d="M64.38,6.07a2.83,2.83,0,0,0-2,1c-.24.24-.43.48-.58.66l-.18.21,0,0a.47.47,0,0,1,0-.18V6.34a.61.61,0,0,0,0-.26.31.31,0,0,0-.28-.15c-.28,0-.41.25-.51.34A5.26,5.26,0,0,1,58.8,7.48c-.19.07-.61.11-.63.52,0,.24.25.3.4.3h.31c.18,0,.53,0,.61.15a2.59,2.59,0,0,1,.2,1.26v4.67c0,.26,0,.5,0,.72,0,.66-.06,1-1,1.12a2.6,2.6,0,0,0-.46,0,.41.41,0,0,0-.32.4c0,.29.28.36.45.36.75,0,1.51-.1,2.26-.1s1.47.1,2.25.1a.4.4,0,0,0,.27-.09.36.36,0,0,0,.12-.29c0-.46-.57-.39-.77-.42-.91-.11-1-.46-1-1.12,0-.22,0-.46,0-.72v-4a3.11,3.11,0,0,1,.53-2.1c.28-.36.68-.82,1.12-.81s.61.87,1.53.91a1.05,1.05,0,0,0,1.11-1.07,1.35,1.35,0,0,0-1.47-1.26"/><path class="cls-1" d="M72.84,15.24c-.22,0-.36.24-.67.44a1.82,1.82,0,0,1-1,.39A1.08,1.08,0,0,1,70,15.2a5.79,5.79,0,0,1-.18-1.7V7.38c0-.44.07-.4.33-.43l.44,0h1.75a.41.41,0,0,0,.33-.11.55.55,0,0,0,.1-.4.89.89,0,0,0,0-.28.34.34,0,0,0-.3-.17H70.1c-.28,0-.24,0-.27-.36V4c0-.13,0-.4-.3-.4a.41.41,0,0,0-.34.28A5.47,5.47,0,0,1,67,6.21c-.11.09-.33.2-.33.45S67,7,67.16,7h.58c.23,0,.18-.06.22.32V13.4c0,.22,0,.46,0,.71a3.68,3.68,0,0,0,.56,2.32,2.31,2.31,0,0,0,1.8.78,3.38,3.38,0,0,0,2.29-.94,1.21,1.21,0,0,0,.52-.75.29.29,0,0,0-.28-.28"/><path class="cls-1" d="M85.85,16.22c-.92-.11-1-.46-1-1.12,0-.22,0-.46,0-.72v-4a5.37,5.37,0,0,0-.71-3.25,3.5,3.5,0,0,0-2.83-1.19,4.52,4.52,0,0,0-3.56,1.53.59.59,0,0,1-.21.14s0,0-.07-.14V.4a.5.5,0,0,0,0-.26A.29.29,0,0,0,77.17,0a1,1,0,0,0-.57.29A6,6,0,0,1,74.51,1c-.15,0-.42.1-.43.38s.31.35.49.35h.24c.76,0,.81.43.83,1.08,0,.23,0,.49,0,.73V14.38c0,.26,0,.5,0,.72,0,.66-.07,1-1,1.12a2.57,2.57,0,0,0-.45,0,.39.39,0,0,0-.32.4c0,.29.27.36.45.36.74,0,1.5-.1,2.26-.1s1.46.1,2.24.1a.38.38,0,0,0,.27-.09.34.34,0,0,0,.13-.29c0-.46-.57-.39-.78-.42-.91-.11-.95-.46-1-1.12,0-.22,0-.46,0-.72V10a2.43,2.43,0,0,1,.68-2.11,3.16,3.16,0,0,1,2.28-1,2.48,2.48,0,0,1,2.16,1A4.53,4.53,0,0,1,83,10.26v4.12c0,.26,0,.5,0,.72,0,.66-.07,1-1,1.12a2.57,2.57,0,0,0-.45,0,.39.39,0,0,0-.32.4c0,.29.28.36.45.36.75,0,1.51-.1,2.26-.1s1.47.1,2.24.1a.43.43,0,0,0,.28-.09.36.36,0,0,0,.12-.29c0-.46-.57-.39-.77-.42"/><path class="cls-1" d="M98.56,15.38l-.32,0h-.18c-.62,0-.64-.27-.66-.82,0-.19,0-.41,0-.65V7c0-.09,0-.2,0-.31a.39.39,0,0,0-.08-.27A.38.38,0,0,0,97,6.24H94.11a.41.41,0,0,0-.2.06.32.32,0,0,0-.09.23c.05.46.59.41.79.42.88,0,.92.38,1,1,0,.24,0,.5,0,.77v4.55c0,.19,0,.36,0,.53A1.55,1.55,0,0,1,95.16,15a3.13,3.13,0,0,1-2.46,1,2.63,2.63,0,0,1-2.28-1A5.51,5.51,0,0,1,90,12.35V7.21c0-.11,0-.24,0-.37a.78.78,0,0,0-.08-.4.47.47,0,0,0-.42-.2H86.68a.26.26,0,0,0-.18.06.24.24,0,0,0-.08.21c0,.47.56.44.76.44.9,0,.94.38,1,1,0,.23,0,.49,0,.76v4a4.69,4.69,0,0,0,.74,3,3.51,3.51,0,0,0,2.9,1.43,4.39,4.39,0,0,0,2.57-.86,12.32,12.32,0,0,1,1.08-.81s0,0,.06.09a1.55,1.55,0,0,1,0,.33c0,.19,0,.37,0,.44V17a.42.42,0,0,0,0,.18.21.21,0,0,0,.19.12h0a.69.69,0,0,0,.31-.16,6.94,6.94,0,0,1,2.37-1c.11-.06.54-.06.58-.42s-.29-.31-.42-.31"/><path class="cls-1" d="M106.53,6.07a2.87,2.87,0,0,0-2,1,8.71,8.71,0,0,0-.57.66l-.18.21,0,0a.74.74,0,0,1,0-.18c0-.07,0-.14,0-.19V6.34a.61.61,0,0,0,0-.26.32.32,0,0,0-.28-.15c-.28,0-.41.25-.51.34A5.26,5.26,0,0,1,101,7.48c-.19.07-.61.11-.63.52,0,.24.24.3.4.3H101c.18,0,.52,0,.6.15a2.47,2.47,0,0,1,.21,1.26v4.67c0,.26,0,.5,0,.72,0,.66-.06,1-1,1.12a2.57,2.57,0,0,0-.45,0,.4.4,0,0,0-.32.41c0,.28.28.35.45.35.75,0,1.51-.1,2.26-.1s1.47.1,2.24.1a.41.41,0,0,0,.28-.09.36.36,0,0,0,.12-.29c0-.46-.57-.39-.77-.42-.92-.11-1-.46-1-1.12,0-.22,0-.46,0-.72v-4a3.11,3.11,0,0,1,.53-2.1c.28-.36.68-.82,1.12-.81s.61.87,1.52.91A1.05,1.05,0,0,0,108,7.33a1.35,1.35,0,0,0-1.47-1.26"/><path class="cls-2" d="M10.63,26.21c.34,0,.36-.39.36-.63s0-.35,0-.41V23.5c0-.1,0-.21,0-.32a.84.84,0,0,0-.08-.41.43.43,0,0,0-.41-.21c-2.63,0-5.23.09-7.84.09-.72,0-1.41-.09-2.15-.09-.22,0-.5.1-.5.42s.49.45.71.45c1.39,0,1.33.22,1.37,1.36V35.54c0,1.1,0,1.31-1.37,1.35H.62c-.19,0-.59,0-.6.4a.41.41,0,0,0,.17.35.67.67,0,0,0,.34.07c.87,0,1.74-.09,2.6-.09s1.69.09,2.56.09A.69.69,0,0,0,6,37.64a.41.41,0,0,0,.17-.35c0-.39-.43-.4-.62-.4H5.49c-1.39-.06-1.34-.25-1.38-1.42,0-.14,0-.28,0-.44V30.6c0-.4,0-.55.17-.61a2,2,0,0,1,.85-.09,12.87,12.87,0,0,1,2.74.21c.4.08.61.75.72,1.43,0,.15.08.48.41.51a.3.3,0,0,0,.25-.12.62.62,0,0,0,.11-.43c0-.76-.07-1.48-.11-2.24s.09-1.37.11-2A.35.35,0,0,0,9,26.87c-.33,0-.38.35-.41.5-.11.7-.26,1.52-.7,1.54a15.7,15.7,0,0,1-2.06.1h-.7c-.95-.05-1,.1-1-1V24.62c0-.07,0-.15,0-.23,0-.34,0-.74.24-.81a7.25,7.25,0,0,1,1.89-.15c2,0,3.3,0,3.92,2.2.05.16.11.55.47.58"/><path class="cls-2" d="M15.7,26.63a5.31,5.31,0,0,0-4,1.63,5.72,5.72,0,0,0-1.51,3.91,5.5,5.5,0,1,0,11,0A5.72,5.72,0,0,0,19.47,28a5.38,5.38,0,0,0-3.77-1.41m0,.68c2.42,0,3.64,2.65,3.64,5h0c0,2.22-1.31,4.88-3.55,4.88A3.27,3.27,0,0,1,13,35.52a6.71,6.71,0,0,1-1-3.47C12.06,29.65,13.38,27.31,15.68,27.31Z"/><path class="cls-2" d="M33.18,36.08l-.3,0h-.17c-.6,0-.61-.26-.64-.81,0-.2,0-.42,0-.65v-7c0-.09,0-.2,0-.31a.49.49,0,0,0-.07-.28.39.39,0,0,0-.31-.12H28.91a.32.32,0,0,0-.19.06.28.28,0,0,0-.09.23c0,.46.57.41.76.42.84,0,.88.37.91,1,0,.23,0,.5,0,.77V34c0,.18,0,.36,0,.53a1.59,1.59,0,0,1-.37,1.16,3,3,0,0,1-2.36,1,2.52,2.52,0,0,1-2.19-1A5.65,5.65,0,0,1,25,33.05V27.91c0-.11,0-.24,0-.37a.78.78,0,0,0-.09-.4.41.41,0,0,0-.4-.2H21.78a.23.23,0,0,0-.18.06.26.26,0,0,0-.08.2c0,.47.55.45.74.45.86,0,.9.38.93,1,0,.23,0,.49,0,.76v4a4.83,4.83,0,0,0,.71,3,3.32,3.32,0,0,0,2.79,1.42,4.18,4.18,0,0,0,2.47-.85,8.92,8.92,0,0,1,1-.81s0,0,0,.08a1.09,1.09,0,0,1,0,.34,3.43,3.43,0,0,1,0,.44v.57a.74.74,0,0,0,0,.19.19.19,0,0,0,.19.11h0c.16,0,.28-.15.31-.15a6.61,6.61,0,0,1,2.26-1c.11,0,.53-.06.56-.42s-.28-.3-.41-.3"/><path class="cls-2" d="M46.63,37c-.15,0-.32,0-.42-.05-.88-.1-.92-.45-.94-1.11,0-.22,0-.47,0-.73V30.93a4.64,4.64,0,0,0-.71-3,3.29,3.29,0,0,0-2.79-1.33,4.16,4.16,0,0,0-2.57,1c-.48.38-.87.75-1.06.89V27c0-.14,0-.41-.32-.41s-.39.25-.49.34a5.12,5.12,0,0,1-1.85,1.21c-.18.07-.59.11-.61.52,0,.24.24.3.39.3h.3c.17,0,.5,0,.57.15a2.48,2.48,0,0,1,.2,1.26,1.2,1.2,0,0,1,0,.19v4.47c0,.26,0,.51,0,.73,0,.66-.07,1-.94,1.11A4.24,4.24,0,0,0,35,37a.4.4,0,0,0-.31.4.39.39,0,0,0,.44.35c.72,0,1.45-.09,2.17-.09s1.41.09,2.15.09a.43.43,0,0,0,.27-.08.38.38,0,0,0,.12-.29A.4.4,0,0,0,39.5,37c-.15,0-.32,0-.42-.05-.88-.1-.92-.45-.94-1.12,0-.21,0-.46,0-.72v-4a2.54,2.54,0,0,1,.7-2.12A3,3,0,0,1,41,28a2.38,2.38,0,0,1,2,1,4.49,4.49,0,0,1,.4,2.3v3.78c0,.26,0,.51,0,.73,0,.66-.06,1-.94,1.11a3.8,3.8,0,0,0-.43.05.38.38,0,0,0-.31.4c0,.28.26.35.43.35.72,0,1.45-.09,2.17-.09s1.41.09,2.15.09a.41.41,0,0,0,.27-.08.38.38,0,0,0,.12-.29.39.39,0,0,0-.32-.38"/><path class="cls-2" d="M59.19,35.56c-.23,0-.33.25-.52.45a.92.92,0,0,1-.56.38c-.08,0-.13,0-.18-.2a2.22,2.22,0,0,1,0-.53V21.1a.61.61,0,0,0,0-.26.28.28,0,0,0-.28-.14A1,1,0,0,0,57,21a5.89,5.89,0,0,1-2,.71c-.14,0-.4.1-.41.37s.3.36.47.36h.24c.71,0,.77.43.79,1.08,0,.23,0,.49,0,.73V26.5c0,.07,0,.22,0,.38a1,1,0,0,1,0,.31c0,.08,0,.08,0,.08a1.33,1.33,0,0,1-.39-.14,8.05,8.05,0,0,0-2.49-.5h-.2a5.56,5.56,0,0,0-3.8,1.76,5.38,5.38,0,0,0-1.63,3.91c0,2.91,2.07,5.61,5.05,5.61A4.4,4.4,0,0,0,55,37.09a10.8,10.8,0,0,1,1.13-.78s0,0,0,0a1.83,1.83,0,0,1,.09.61c0,.07,0,.24,0,.4s.1.36.32.38a1.22,1.22,0,0,0,.54-.24l1.83-.72c.25-.07.46-.16.46-.51l0-.31s0-.07,0-.13a.26.26,0,0,0-.24-.27m-5.92,1.09c-2.45,0-3.84-2.37-3.84-4.72a4.41,4.41,0,0,1,3.88-4.65h.23a3.12,3.12,0,0,1,2,.74,2.44,2.44,0,0,1,.51,1.83v4.62c0,.15,0,.29,0,.41a1,1,0,0,1-.21.71A3.47,3.47,0,0,1,53.27,36.65Z"/><path class="cls-2" d="M70.14,35.91c-.21,0-.29.2-.45.33a.85.85,0,0,1-.57.27c-.32,0-.48-.24-.59-.61a4.33,4.33,0,0,1-.1-1.09V28.62a1.62,1.62,0,0,0-.5-1.35,3.15,3.15,0,0,0-2.15-.64,6.32,6.32,0,0,0-4.17,1.67,2.74,2.74,0,0,0-1,1.77.41.41,0,0,0,.12.33.5.5,0,0,0,.29.07,2.75,2.75,0,0,0,1-.32,1.52,1.52,0,0,0,.69-.91c.53-1.2,1.18-1.93,2.52-1.93s1.33.84,1.35,2v1c0,.92,0,.8-.78,1.23l-1.76.86c-1.25.65-3.43,1.64-3.45,3.44a2.11,2.11,0,0,0,2.26,2A4.58,4.58,0,0,0,65.47,37c.33-.23.6-.46.8-.63a2.49,2.49,0,0,1,.24-.2l.07,0h0l0,0c.22.24.43,1.62,1.53,1.64a3.06,3.06,0,0,0,1.69-.71c.17-.16.58-.47.6-.83a.31.31,0,0,0-.28-.31m-3.51-3.64c0,.11,0,.21,0,.26V34a2,2,0,0,1-.54,1.7,2.91,2.91,0,0,1-2,.92,1.31,1.31,0,0,1-1.47-1.29c0-1.07.84-1.66,1.73-2.14l2.08-1.1c.07,0,.19-.09.2-.08l0,.06A.86.86,0,0,1,66.63,32.27Z"/><path class="cls-2" d="M76.77,35.94c-.21,0-.35.23-.64.44a1.77,1.77,0,0,1-1,.39,1.06,1.06,0,0,1-1.06-.88,5.4,5.4,0,0,1-.17-1.69V28.07c0-.44.06-.39.31-.42h1.7l.41,0a.4.4,0,0,0,.32-.11,1.06,1.06,0,0,0,.06-.68.28.28,0,0,0-.29-.17H74.14c-.26,0-.23,0-.25-.36V24.67c0-.13,0-.4-.3-.4s-.28.19-.33.28a5.42,5.42,0,0,1-2.13,2.36c-.11.09-.32.2-.33.45s.33.32.52.32l.3,0h.25c.22,0,.17-.07.21.32v6.83a3.83,3.83,0,0,0,.53,2.31,2.2,2.2,0,0,0,1.73.78A3.21,3.21,0,0,0,76.55,37a1.15,1.15,0,0,0,.49-.74.28.28,0,0,0-.27-.28"/><path class="cls-2" d="M80.43,24.79a1.3,1.3,0,0,0,0-2.57,1.23,1.23,0,0,0-1.15,1.31,1.16,1.16,0,0,0,1.1,1.26"/><path class="cls-2" d="M82.69,37c-.15,0-.31,0-.42-.05-.88-.1-.92-.45-.94-1.12,0-.21,0-.46,0-.72V27c0-.14,0-.41-.32-.41s-.39.25-.49.34a5,5,0,0,1-1.85,1.21c-.17.07-.59.11-.6.52,0,.24.23.3.38.3h.3a.88.88,0,0,1,.58.15,2.57,2.57,0,0,1,.2,1.25v4.67c0,.26,0,.51,0,.72,0,.67-.06,1-.94,1.12a4.08,4.08,0,0,0-.43.05.38.38,0,0,0-.31.4c0,.28.27.35.43.35.72,0,1.45-.09,2.18-.09s1.4.09,2.15.09a.45.45,0,0,0,.27-.08.38.38,0,0,0,.11-.29.39.39,0,0,0-.32-.38"/><path class="cls-2" d="M89.07,26.63a5.32,5.32,0,0,0-4,1.63,5.75,5.75,0,0,0-1.5,3.91,5.5,5.5,0,1,0,11,0A5.76,5.76,0,0,0,92.84,28a5.36,5.36,0,0,0-3.77-1.41m3.63,5.71h0c0,2.23-1.32,4.88-3.56,4.88a3.24,3.24,0,0,1-2.73-1.7,6.72,6.72,0,0,1-1-3.47c0-2.4,1.33-4.74,3.62-4.74S92.7,30,92.7,32.34Z"/><path class="cls-2" d="M107.2,37c-.15,0-.32,0-.42-.05-.88-.1-.92-.45-.94-1.12,0-.21,0-.46,0-.72V30.93a4.64,4.64,0,0,0-.71-3,3.3,3.3,0,0,0-2.79-1.33,4.18,4.18,0,0,0-2.58,1c-.47.38-.86.75-1,.89V27c0-.14,0-.41-.32-.41s-.39.25-.5.34a5,5,0,0,1-1.84,1.21c-.18.07-.6.11-.61.52,0,.24.24.3.39.3h.29a.87.87,0,0,1,.58.15,2.57,2.57,0,0,1,.2,1.25v.2h0v4.47c0,.26,0,.51,0,.72,0,.67-.06,1-.93,1.12a4,4,0,0,0-.44.05.4.4,0,0,0-.31.4c0,.28.27.35.44.35.71,0,1.45-.09,2.17-.09s1.41.09,2.15.09a.45.45,0,0,0,.27-.08.38.38,0,0,0,.12-.29.4.4,0,0,0-.32-.38c-.16,0-.32,0-.43-.05-.87-.1-.91-.45-.94-1.12,0-.21,0-.46,0-.72v-4a2.54,2.54,0,0,1,.7-2.12,3,3,0,0,1,2.18-1,2.38,2.38,0,0,1,2.05,1,4.49,4.49,0,0,1,.4,2.3v3.78c0,.26,0,.51,0,.72,0,.67-.07,1-.94,1.12a3.8,3.8,0,0,0-.43.05.38.38,0,0,0-.31.4c0,.28.26.35.43.35.72,0,1.45-.09,2.17-.09s1.41.09,2.15.09a.43.43,0,0,0,.27-.08.38.38,0,0,0,.12-.29.4.4,0,0,0-.32-.38"/></g></g></svg>