<svg xmlns="http://www.w3.org/2000/svg" viewBox="0 0 469 311.5"><defs><style>.cls-1{fill:#4e83c3;}.cls-2{fill:#4e84c3;}.cls-3{fill:#fdbdbd;}.cls-4{fill:#d2e0ef;}.cls-5{fill:#fc3c3d;}.cls-6{fill:#5085c3;}.cls-7{fill:#4f84c3;}.cls-8{fill:#5084c3;}.cls-9{fill:#5085c4;}.cls-10{fill:#5185c4;}.cls-11{fill:#5286c4;}.cls-12{fill:#4d83c2;}.cls-13{fill:#fc3d3e;}.cls-14{fill:#fc3e3f;}</style></defs><title>MFP</title><g id="Layer_2" data-name="Layer 2"><g id="Layer_1-2" data-name="Layer 1"><path class="cls-1" d="M0,122.5a5.45,5.45,0,0,1,3.69-1.42c2.33-.21,4.72-.3,6.9.74,1.16,2.14.76,4.47,1,6.75,1.07-.16,1.43-.89,1.9-1.56A28.62,28.62,0,0,1,16,123.74a11.57,11.57,0,0,1,10.09-3.67,9.84,9.84,0,0,1,6,2.71A18.3,18.3,0,0,1,36.19,129h1.16c.68-1,1.37-2.11,2.08-3.17a13.89,13.89,0,0,1,8.83-5.67,11.75,11.75,0,0,1,5.85.14A18.6,18.6,0,0,1,59,122.13a10.58,10.58,0,0,1,4.53,6.28c.49,1.52.72,3.1,1.08,4.64.68,3,.38,5.91.4,8.85q.08,21.12,0,42.24a25.2,25.2,0,0,1-.32,2.94,4.53,4.53,0,0,1-3.15.94c-2.5-.05-5,0-7.64,0a4.11,4.11,0,0,1-1.84-3.6c-.06-.83,0-1.66,0-2.5q0-21,0-42a11.46,11.46,0,0,0-.54-4.06c-.65-1.66-1.8-3.16-3.81-3.34-1.07-.1-2.1-1.16-3.23-.2-3,.45-4.25,2.66-4.87,5.26a38.39,38.39,0,0,0-1.08,9.16c.1,12.74,0,25.49,0,38.47l-1.82,2.47c-2.7,1.18-5.18.72-7.55.83-2.76-.74-2.61-3.16-3.09-5.18a6.17,6.17,0,0,1,0-1.49q0-20.13,0-40.25a21.87,21.87,0,0,0-1-5.91c-.52-1.86-1.76-2.74-3.7-3.3-1.62-.48-3,.41-4.4.11l-1.8,1.33A16.12,16.12,0,0,0,13.55,137a20.59,20.59,0,0,0-1.09,5.9c.25,8.7-.81,17.38-.45,26.08,0,.17,0,.34,0,.5.16,1.86.38,3.72.46,5.58s.09,3.84,0,5.75-.34,3.89-.55,6.15l-1.2.83.14.38-7.79.51c-1.89-.26-2-2.14-3.06-3.14Z"/><path class="cls-2" d="M469,127.5c-1.14.41.08,1.81-.95,2.26-.35,2.05-.66,4.11-1.06,6.15s-1,4.17-1.36,6.28c-.29,1.9-.74,3.75-1.11,5.63-.69,3.52-1.32,7.06-2.11,10.55s-1.32,7-2.28,10.47c-.54,1.95-.75,4.09-1.19,6.11s-.9,4.21-1.29,6.3c-.52,2.82-1.19,5.62-1.73,8.44s-1,5.78-1.84,8.62a59,59,0,0,0-1.09,6.13c-.47,2.42-.9,4.86-1.55,7.23a8.33,8.33,0,0,1-1.51,2.27,36.59,36.59,0,0,0-5.07.46,6.28,6.28,0,0,1-4.94-.74c-.24-.4-.59-1-.91-1.56.34-1.82.68-3.54,1-5.26a109.64,109.64,0,0,1,2.62-11.62,15.42,15.42,0,0,0,.9-4.7c0-.8-.21-1.66.46-2.35a.57.57,0,0,0,0-.48c-.85-1.8-.22-3.74-.53-5.58s-1.09-3.5-1.29-5.3c-.3-2.71-1.36-5.23-1.72-7.94a71.7,71.7,0,0,0-1.58-7.2c-.49-2.09-1-4.16-1.39-6.29-.28-1.72-.63-3.44-1.06-5.14-.53-2.07-1-4.16-1.43-6.26-.34-1.8-.75-3.58-1.15-5.36-.26-1.16-.58-2.31-.83-3.47-.56-2.65-.89-5.37-1.7-7.93a4,4,0,0,1,.32-3,4.78,4.78,0,0,1,2.89-.7c2.17.07,4.34,0,6.57,0a6.17,6.17,0,0,1,2.52,4.39c.56,3,1.22,6.09,1.76,9.12s1.08,6.17,1.72,9.21c.81,3.88,1.15,7.87,2.36,11.69a29,29,0,0,1,.58,4.31,8.11,8.11,0,0,0,.76,1.64c.31-1.11.5-1.84.71-2.56.53-1.86.4-3.81.93-5.69.35-1.28.24-2.7.52-4.07.61-3,.73-6,1.5-9,.31-1.22.26-2.55.48-3.83.5-2.92.89-5.85,1.54-8.75a43.76,43.76,0,0,0,.52-4.81c.51-.43,1.13-1,1.9-1.65,2.47,0,5.13,0,7.78,0A12.87,12.87,0,0,1,469,124Z"/><path class="cls-3" d="M265,0a3.85,3.85,0,0,0,0,.48h-7.52a3.85,3.85,0,0,0,0-.48Z"/><path class="cls-4" d="M432,311c0,.16,0,.32,0,.48h-5.5c0-.16,0-.32,0-.48Z"/><path class="cls-5" d="M257.49.48H265c1.33,0,2.67,0,4,.05s2.72.31,4.09.47a18.36,18.36,0,0,1,3.86.41,22.59,22.59,0,0,0,4.32.5,101.87,101.87,0,0,1,10.49,1.7c3,.62,6,1.41,9,2.22,4.37,1.18,8.65,2.6,12.91,4.08a96,96,0,0,1,11.22,4.58c2,1,4.09,1.75,6,2.79a159.45,159.45,0,0,1,17.65,10.63c3.5,2.48,6.83,5.18,10.29,7.71,7.92,5.79,14.57,13,21.3,20a121,121,0,0,1,8.07,9.77c3.51,4.54,6.85,9.18,9.89,14,2.37,3.79,4.66,7.63,7,11.55l-.94,1a13.52,13.52,0,0,0-2.7,0c-1.91.4-3.7-.65-5.71-.14s-4,.1-6,.1c-1.62-1.13-2.55-2.85-3.62-4.49-2-3.1-4-6.19-6.2-9.18s-4.51-5.94-6.86-8.84c-1.39-1.73-2.89-3.37-4.43-5-2.61-2.69-5.29-5.31-7.94-8A138.94,138.94,0,0,0,349,46.13c-3.53-2.85-7.16-5.58-10.92-8.09a149.35,149.35,0,0,0-19-10.54,129.61,129.61,0,0,0-14.79-5.87c-4.29-1.4-8.71-2.43-13.08-3.58-2.17-.57-4.48-.57-6.66-1.1-3-.72-6.09-.55-9-1.44a2.75,2.75,0,0,0-.5,0c-2.2-.16-4.39-.4-6.59-.48s-4.5,0-6.74,0l-8.75,0a17.87,17.87,0,0,0-4.6.44c-1.4.36-2.87,0-4.36.45a34.18,34.18,0,0,1-4.32.55q-7,1.14-13.82,2.9a122.84,122.84,0,0,0-16,5.29,150,150,0,0,0-16.48,8.14c-4.76,2.67-9.29,5.66-13.77,8.75-2.53,1.74-4.94,3.66-7.37,5.54-3,2.32-5.7,4.95-8.57,7.41a87.79,87.79,0,0,0-8.35,8.12c-3.31,3.69-6.56,7.46-9.64,11.38-3.3,4.2-6.25,8.62-9.3,13-.69,1-1.22,2.06-1.84,3.08a3.68,3.68,0,0,1-3.65,2c-1.7-.15-3.39-.48-5.09-.46-2.11,0-4.22.3-6.34.45-.57,0-1.14,0-1.69,0-.74-1.54.26-2.69.86-3.67,2.65-4.38,5.46-8.68,8.3-13a107.25,107.25,0,0,1,6.67-9.21c2.48-3,4.83-6.11,7.24-9.17.11-.13.23-.24.35-.36,4.08-4.24,8-8.67,12.28-12.67a148.87,148.87,0,0,1,13.51-11.25c5.27-3.83,10.63-7.46,16.24-10.78,4.13-2.45,8.3-4.8,12.62-6.84a162.59,162.59,0,0,1,23.52-8.95A92.4,92.4,0,0,1,231,3.44c3.09-.48,6.16-1.07,9.27-1.5,3.72-.52,7.44-.78,11.18-1C253.42.75,255.45.57,257.49.48Z"/><path class="cls-6" d="M387.48,188.45l-2.12,2.13c-3.31-.39-6.48.45-9.44-.51a4.2,4.2,0,0,1-.92-3.27q0-21.24,0-42.48a28,28,0,0,0-.94-5.67A4.63,4.63,0,0,0,371,135c-.29-.13-.56-.31-.87-.48a8.69,8.69,0,0,0-4.9.9,3.36,3.36,0,0,0-1.78,1.83c-.41,1.19-1.07,2.31-1.36,3.52a23.23,23.23,0,0,0-.58,4.55c-.2,7.94-.34,15.88-.5,23.82a16.09,16.09,0,0,0,.05,4c.86,3.61.29,7.23.38,10.84a40.42,40.42,0,0,1-.64,5.52l-1.49,1h-8.43L349,189.35v-3.46c0-13.25.05-26.49,0-39.73a36.45,36.45,0,0,0-1-7.39,6,6,0,0,0-3.92-4.26c-1.11.24-2.43-.22-3.87.4s-2.31,1.18-2.67,2.73c-.24,1.05-1,2-1.31,3a19.11,19.11,0,0,0-.71,3.78c-.85,7.44-.29,14.89-.4,22.33s0,15,0,22.55l-1.83,1.16h-8.76l-1.6-.86a6.71,6.71,0,0,1-.7-1.86c-.09-1.45-.41-2.93.19-4.36.12-.29.29-.72.17-.92-.9-1.48-.44-3.07-.44-4.6q-.06-20.49,0-41c0-4,.2-8,.31-12.07l1.35-1.29h9.19c.29.3.68.73,1.1,1.18.24,2.24.47,4.49.74,7.1,2.35-4.29,5.11-7.8,10.27-9.33h5.09c.89.49,1.72,1,2.58,1.4,2.23,1.1,3.27,3.33,4.8,5.08.75.85,1.24,1.91,2.46,2.08,1.41-1.65,2.71-3.28,4.13-4.82a11.72,11.72,0,0,1,6.15-3.54A15.5,15.5,0,0,1,382,125a12.2,12.2,0,0,1,5.05,8.44c.75,6,.28,11.89.39,17.83s0,12,0,18Z"/><path class="cls-6" d="M432,311h-5.52c-6.44-.18-11.36-3.1-15-8.28a5.1,5.1,0,0,1,2.4-2.95,31.54,31.54,0,0,0,4.11-3c1.47-1.1,2.49-1.1,4.14,0a10.26,10.26,0,0,1,1.39.94,9.41,9.41,0,0,0,7,2.74h1a7.83,7.83,0,0,0,4.56-3.75,16.39,16.39,0,0,0,1.49-4.23c.71-3.74.49-7.54.5-11.32,0-.4,0-.79-.08-1.55a33.36,33.36,0,0,0-2.45,3.67,8.25,8.25,0,0,1-5.44,4.09c-5.35,1.57-9.39.63-13.26-4a12.1,12.1,0,0,1-1.52-2.95,47.61,47.61,0,0,1-2.79-8.05c-.49-1.91-.82-3.87-1.38-5.77a27,27,0,0,1-.49-4.07c-.4-3.33-.47-6.71-.54-10.07,0-1.36.34-2.72.42-4.08a33.15,33.15,0,0,1,.09-4.24c.46-2.29.53-4.63,1-6.91.62-3.1,1-6.26,2.54-9.13a39.15,39.15,0,0,1,2.39-4.64,10.93,10.93,0,0,1,6.07-4,11.6,11.6,0,0,1,9.67,1.4,17,17,0,0,1,4.26,4,25.26,25.26,0,0,1,1.7,2.6l.71-.6c.45-2.17-.49-4.3.8-6.25,2.17-.86,4.55-.65,6.91-.66a3.69,3.69,0,0,1,1.2.11c.67.23,1.56.4,1.88.9a8.48,8.48,0,0,1,.8,2.7,5.7,5.7,0,0,1,0,1.24c0,21.66.07,43.31-.05,65a23.27,23.27,0,0,1-2.53,11.36,18.3,18.3,0,0,1-7.37,7.62A16.91,16.91,0,0,1,432,311Zm.9-34.52c.58-.64,1.24-1.29,1.82-2a7.85,7.85,0,0,0,1.2-1.8c.31-.72.21-1.65.61-2.27.67-1,.09-2.22.53-3.07.6-1.15.28-2.26.44-3.37s.33-2.38.49-3.58-.16-2.22.43-3.37a3.21,3.21,0,0,0,0-2.66,5.86,5.86,0,0,1-.41-3.11c-.06-4.08.18-8.17-1-12.16-.76-2.56-.84-5.36-2.87-7.55l-2-1h-2.25a7.63,7.63,0,0,0-4,4.49,34.63,34.63,0,0,0-1.53,6c-.19,1.21-.26,2.4-.39,3.6s-.44,2.55-.46,3.83c-.07,3.74,0,7.49,0,11.24,0,.5-.2,1.15,0,1.46.64.84.33,1.75.46,2.62s.37,1.88.47,2.83c.4,3.89,1.71,7.32,4.83,9.9Z"/><path class="cls-7" d="M146,221.94c.76-1.45,2.09-1.69,3.34-1.89a16.28,16.28,0,0,1,3.49,0,26.73,26.73,0,0,1,3.33.49c.28.06.5.42.7.61.26,2.3.52,4.55.81,7.12.59-.86,1.09-1.46,1.47-2.13a13.5,13.5,0,0,1,8.3-6.83,15.12,15.12,0,0,1,6,.17c3.57.73,5.78,3,7.3,6.06a33.88,33.88,0,0,1,3.3,9.87c.36,2.27,1.09,4.48,1.42,6.76A55.46,55.46,0,0,1,186,249c.09,3.08,0,6.16,0,9.25a11.59,11.59,0,0,1-.44,3.59c-.37,1.13,0,2.35-.45,3.61s-.3,2.51-.54,3.8a39.4,39.4,0,0,1-3.48,10.57c-1,2-1.92,4.06-3.69,5.59a9.44,9.44,0,0,1-6.54,2.61,29.6,29.6,0,0,1-3.4-.29c-3.5-.51-5.69-2.79-7.44-5.62-.21-.33-.41-.67-.62-1a5.91,5.91,0,0,0-.78-.07,2.62,2.62,0,0,0-.53.16v27.59l-2.38,1.8c-3-.3-6,.45-9-.65a4.55,4.55,0,0,1-.73-3.16Q146,264.38,146,221.94Zm20.55,54.56a6.59,6.59,0,0,0,3.95-4.91c.34-1.3.74-2.59,1-3.91s.37-2.88.51-4.33c0-.5-.2-1.15,0-1.47.82-1.07.21-2.28.5-3.36a12.37,12.37,0,0,0,.48-3.58c-.06-2,.36-4.1-.13-6s-.31-3.81-.76-5.71c-.49-2.08-.69-4.28-1.16-6.38s-.87-4.13-2.78-5.43c-.53-.36-1.1-.64-1.59-.93h-2.53c-2.44.88-3.38,2.72-4.07,4.76a36.59,36.59,0,0,0-1.48,8.49c0,.58.2,1.29,0,1.73-.65,1.09-.34,2.24-.47,3.36a23,23,0,0,0-.06,7.68c.34,1.73.26,3.54.46,5.33.31,2.73.6,5.45,1.1,8.16.54,2.89,1.7,5.31,4.45,6.48Z"/><path class="cls-6" d="M341,285.82c-.36.36-.78.76-1.19,1.15h-10.1L328,284.83c0-15.39,0-30.63,0-45.87a15.61,15.61,0,0,0-.39-5.2L325,231.52h-4.55c-2.17.74-3,2.53-3.5,4.67a35.61,35.61,0,0,0-1,8.42c0,13.66,0,27.32,0,41.21l-1.06,1c-2,.26-3.71.57-5.4.67a8.87,8.87,0,0,1-5.12-.75l-.79-1.34a51.36,51.36,0,0,1-.6-5.29q-.06-27.1,0-54.22a39.48,39.48,0,0,1,.61-4.84c2.84-1.63,6.19-.76,9.32-1.05l1.64.85c1.09,1.81.85,3.71.88,6a16.86,16.86,0,0,0,2-2.18,11.24,11.24,0,0,1,6.15-4.87,12.53,12.53,0,0,1,10.48.77,13.3,13.3,0,0,1,6.9,12.21Z"/><path class="cls-7" d="M171.58,187.22c-3.36,1.68-6.59,1.21-9.91,1.29l-2-2.41c-1.13-8.34-.56-16.3-.65-24.24s0-16,0-24a24.18,24.18,0,0,0-.5-3.27,18.85,18.85,0,0,0-2.25-1.63,20.46,20.46,0,0,0-2.7-.95,6.24,6.24,0,0,1-1.3.45,4.36,4.36,0,0,0-3.93,3.36,23.25,23.25,0,0,0-1.31,7c0,14.33,0,28.66,0,43.18l-1.06,1.83c-6.93.38-9.4.28-11.19-.44a4.76,4.76,0,0,1-.75-3.23q0-30.36,0-60.79l1-1.73c2.4-.86,4.78-.69,7.14-.68a5.15,5.15,0,0,1,3.64,1.6l.72,4.82c1.44-.51,1.81-1.9,2.49-2.84a9,9,0,0,1,2.43-2.24,12.91,12.91,0,0,1,9.41-2.29,12,12,0,0,1,9.19,6.61,16,16,0,0,1,2,7.32q0,25.25,0,50.49A17.92,17.92,0,0,1,171.58,187.22Z"/><path class="cls-6" d="M367.67,220.94c3.37-1.37,6.94-1.17,10.65-.32,1,1.74,1.15,3.82,1.29,6.32a13.05,13.05,0,0,0,1.38-1.41,12.48,12.48,0,0,1,13.9-6.09c4.43.7,8.25,4.75,9.64,9.13a11.59,11.59,0,0,1,.47,3.59,43.58,43.58,0,0,0,0,5.24c.92,7.1.3,14.22.42,21.33s.06,14.33,0,21.49c0,1.86-.31,3.71-.48,5.55l-1.2,1.29c-3.44-.3-6.84.41-9.83-.4-1.13-1.26-.95-2.44-.95-3.57q0-20.74,0-41.48a43.1,43.1,0,0,0-1.06-7.16c-.24-1.36-1.28-2.4-3.1-2.93h-4.1l-2.59,1.92c-.15,1.64-1.42,2.75-1.22,4.29-.68.58-.36,1.38-.46,2.1-1,7.59-.32,15.21-.44,22.82s0,15.33,0,23.17L378.72,287h-10c-1.51-1.07-1.76-2.71-1.76-4.47q0-26.87,0-53.73A54.07,54.07,0,0,1,367.67,220.94Z"/><path class="cls-8" d="M97.61,187.91l-.9-1.42-.82-5.13c-1.53,1.53-2.88,3-4.31,4.28a11.25,11.25,0,0,1-8,3.35,18.12,18.12,0,0,1-4.85-.44,11.1,11.1,0,0,1-7.2-6.29,26.79,26.79,0,0,1-2.25-6.73c0-.14-.25-.26-.26-.4a40.34,40.34,0,0,1-.44-6.82c.5-5.32,1.58-10.54,4.43-15.2a10.84,10.84,0,0,1,5.75-4.59A37.54,37.54,0,0,1,86,146.91c2.13-.33,4.23-.29,6.34-.44A4.32,4.32,0,0,0,96,144.73v-9.9a7.47,7.47,0,0,0-4.79-4,6.55,6.55,0,0,0-6,1.35A6.32,6.32,0,0,0,83,135a29.1,29.1,0,0,1-1.51,2.89,16.59,16.59,0,0,1-10.35-2.42c-.3-1.94.52-3.65,1.09-5.31a14.7,14.7,0,0,1,2.54-4.56,13.73,13.73,0,0,1,8.69-4.71c3.63-.62,7.23-.38,10.84-.36a15.12,15.12,0,0,1,7.72,2.2,12.25,12.25,0,0,1,5.5,7.33,9.63,9.63,0,0,1,.48,2.58c0,3.37.72,6.69.55,10.08s0,6.83,0,10.24v20.74c0,3.42,0,6.83,0,10.25a7,7,0,0,1-1.08,3.93Zm-1.11-23.6c1-5-.22-9.2-6.1-8.27a26,26,0,0,0-2.91,1,7.21,7.21,0,0,0-4,3c-1.67,2.36-2.11,5.13-2.45,7.87s.62,5.25,1.52,7.71a5.57,5.57,0,0,0,3.37,2.95h2.2C91.45,176.67,95.38,170,96.5,164.31Z"/><path class="cls-7" d="M240,244.23v-9.85a15.71,15.71,0,0,1-1-1.67c-.73-1.63-2-2.25-3.68-2.79a6.32,6.32,0,0,0-4.64.19,8.69,8.69,0,0,0-3.74,3.42c-.8,1.21-1.71,2.35-2.51,3.44a15.21,15.21,0,0,1-9.33-2.42c-.46-2,.4-3.44.89-4.94a14.17,14.17,0,0,1,3.78-6A16.42,16.42,0,0,1,226,220a26.05,26.05,0,0,1,10.91-.9A23.4,23.4,0,0,1,244,221a13.87,13.87,0,0,1,7.51,8.37,9.89,9.89,0,0,1,.51,2.82c1,15.34.34,30.71.48,46.07,0,2.61-.34,5.22-.55,8.17l-.9.6h-9.39l-1-1.44-.76-5.14c-1.55,1.54-2.93,3-4.44,4.39A11.93,11.93,0,0,1,227.6,288a13,13,0,0,1-13.66-9.94,22.66,22.66,0,0,1-.46-3.35c-.12-1.78-.42-3.55-.43-5.33a39.44,39.44,0,0,1,.45-4.58c.16-1.45-.15-2.88.41-4.37a21.82,21.82,0,0,0,.56-3.3,12.76,12.76,0,0,1,5.59-8.15c2.82-2,6.07-2.61,9.43-3.08,2.2-.3,4.39-.34,6.59-.46a20.51,20.51,0,0,0,3.27-.63C239.56,244.79,239.72,244.51,240,244.23Zm-7.83,33.26a1.86,1.86,0,0,1,.28-.22,6.54,6.54,0,0,0,.66-.28c1.87-1.1,3.74-2.15,4.87-4.18a18.49,18.49,0,0,0,2.1-5.77,47.74,47.74,0,0,0,.36-8.35,3.37,3.37,0,0,0-1.15-3,5.28,5.28,0,0,0-2.51-.64,15.54,15.54,0,0,0-6.1,1.12,8.26,8.26,0,0,0-4.12,3.76c-1.14,1.92-.89,4.32-1.52,6.47-.15.51.46,1.22.41,1.81-.17,2.32.6,4.45,1.21,6.82l2.88,2.47Z"/><path class="cls-1" d="M302.9,148.92l1.1-1.25c0-2.4,0-4.89,0-7.38a6.32,6.32,0,0,0-3.93-6.47,2.71,2.71,0,0,1-.41-.32h-5.24c-3.11,1.68-3.11,1.68-5,6.33a6,6,0,0,1-5.24.24,20.64,20.64,0,0,1-4-1.54c-1.53-.95-2-1.9-1.47-3.53a17.89,17.89,0,0,1,7.76-10.16,20.38,20.38,0,0,1,4.84-1.82c3.22-1,6.56-.62,9.82-.43a17.17,17.17,0,0,1,6.39,1.71,13.58,13.58,0,0,1,7.43,8.76,23,23,0,0,1,1,6.4c0,16.57,0,33.14,0,49.85l-1.87,1.19c-2.89-.2-5.95.46-9.17-.67-.38-1.72-.79-3.58-1.29-5.89l-.32-.36a1.51,1.51,0,0,0-.38.21c-1.37,1.52-2.69,3.09-4.1,4.57a11,11,0,0,1-6.86,3.07c-2.15.26-4.41.36-6.4-.93-1.24.2-1.94-.85-2.69-1.43a16.49,16.49,0,0,1-5.94-9.93c-.89-3.93-.41-7.89-.42-11.83a19.69,19.69,0,0,1,1-4.91,17,17,0,0,1,1.52-4.45c1.87-3.1,4.15-5.85,7.79-7.1a40.49,40.49,0,0,1,5.76-1.46C296,148.74,299.34,149.31,302.9,148.92Zm.2,9.83c-1.32-.35-2.43-1-3.67-.73a20.46,20.46,0,0,0-6,2.23,7.1,7.1,0,0,0-3.52,4.34c-.63,2.38-.4,4.81-.93,7.16,0,.08,0,.2,0,.25.8,1.11.34,2.38.5,3.57.3,2.16.62,4.32,3.24,5a1.54,1.54,0,0,1,.52.39h2.34c.6-.31,1-.56,1.46-.74a9,9,0,0,0,5.44-6.31c.1-.38.29-.73.4-1.11a33.36,33.36,0,0,1,1.12-3.85,5.87,5.87,0,0,0,0-4.15,4.67,4.67,0,0,1,0-1.24v-3.11C303.68,159.84,303.42,159.35,303.1,158.75Z"/><path class="cls-9" d="M271.54,284.6l-1.49,2.23c-1.73.26-3.27.84-4.92.67s-3.29.34-4.9-.58c-.37-.7-.76-1.48-1.22-2.35V221.85a4.24,4.24,0,0,1,3.87-1.83c1.41,0,2.84-.09,4.25,0a24.51,24.51,0,0,1,3.1.68l1.44,5.59a18.19,18.19,0,0,1,2-2.6c2.7-2.43,5.47-4.68,9.44-4.75a12.4,12.4,0,0,1,9.55,3.92,14.34,14.34,0,0,1,3.33,6.77,24.1,24.1,0,0,1,.56,6.07q-.06,23.63,0,47.23a7.3,7.3,0,0,1-1.11,4H285.28L284,285.76q0-21.31,0-42.53c0-3.17.34-6.38-1.13-9.36-1-1.92-2.86-2.39-5.09-2.74a2.78,2.78,0,0,1-1,.34A3.86,3.86,0,0,0,273,234.4a28.41,28.41,0,0,0-1.62,8.73c0,6.85-.27,13.71-.4,20.57,0,2.33-.37,4.74.07,7,.62,3.14.18,6.24.39,9.35a4.18,4.18,0,0,1,0,1A8.11,8.11,0,0,0,271.54,284.6Z"/><path class="cls-1" d="M215.52,167.09l.91,2.8a11.08,11.08,0,0,0-.41,1.76,17.59,17.59,0,0,1-5.23,11.82,18.91,18.91,0,0,1-2.74,2.49c-2.55,1.66-5.26,3-8.41,3-2.34,1.12-4.56.05-6.79-.4a16.49,16.49,0,0,1-8.07-4.5c-2.73-2.56-3.95-5.77-4.78-9.24-.69-2.88-1.11-5.81-1.57-8.73s-.77-5.59-1-8.42c-.16-1.77-.4-3.55-.4-5.34a18.75,18.75,0,0,1,.43-4.59c.37-1.39-.3-3,.56-4.32a35.74,35.74,0,0,1,2.5-10.65,19.67,19.67,0,0,1,6.5-9.45,15.29,15.29,0,0,1,7.19-3,22.05,22.05,0,0,1,4.35-.38,20.47,20.47,0,0,1,4.77.65,17.87,17.87,0,0,1,5.38,2.44,17.49,17.49,0,0,1,4.7,5,44.39,44.39,0,0,1,3.45,8.54,15.48,15.48,0,0,1,.64,3.53c.22,2.27.42,4.55.5,6.83s0,4.67,0,7.26L216.06,156H195.9c-1.61,0-3.27-.2-5,.85-.53.93-1.61,2-.45,3.47.12.16,0,.49,0,.73-.31,2.81.5,5.54.57,8.33a10.84,10.84,0,0,0,2.53,6.81,5.69,5.69,0,0,0,4.85,2.24,5.28,5.28,0,0,0,4.12-2.52c1.35-2.1,1.91-4.5,2.95-6.71l1-2.17c1.55-.19,3.09-.76,4.39-.42C212.36,167,213.8,166.84,215.52,167.09Zm-19.11-36.57a9,9,0,0,0-4.74,5.14A23.81,23.81,0,0,0,190,145a9.64,9.64,0,0,0,.94.74c.47.3,1,.53,1.47.79h10.95l2.78-2.27c-.23-1.33-.53-2.58-.64-3.86a12.2,12.2,0,0,0-4.48-8.52,13,13,0,0,0-2.47-1.32Z"/><path class="cls-6" d="M257,137.05,255,135h-2.8L251,133.82v-9.16l1.35-1.1h3l1.71-2c0-3.2,0-6.6,0-10a17.09,17.09,0,0,1,2-8A9.62,9.62,0,0,1,268,98h5.68l2.18,1.47c.16.78.28,1.4.41,2,.07.31.33.67.24.9-1,2.22-.18,4.56-.55,7l-.68.66c-1.59-.3-2.91.51-4.37,1.31l-1.38,2.61c0,1.37,0,3,0,4.52s-.35,3,.82,4.6l2.48.44,2.77.54a26.57,26.57,0,0,1,.07,10c-1.9,1.47-4.42.92-6.09,2.59V188.1l-1.67,2.42c-3.43-.27-6.81.51-10.15-.62a4.66,4.66,0,0,1-.73-3.18C257,170.32,257,153.92,257,137.05Z"/><path class="cls-10" d="M191,197.37l1.11-1.87c1.76,0,3.58-.07,5.38,0s3.63-.5,5.4.7c.77.92.59,2.18.59,3.39q0,34.59,0,69.17c0,2.19.49,4.22,2.24,5.64a6.92,6.92,0,0,0,3,1.43,4.54,4.54,0,0,1,3.8,3.2c0,1.51.06,3.26,0,5a6.83,6.83,0,0,1-.51,2.56,3.59,3.59,0,0,1-3.45,1.82,21,21,0,0,1-4.79-.56c-1.37-.3-2.66-1-4-1.34-4.07-1.06-6.27-4-7.63-7.67a18.28,18.28,0,0,1-1.06-6.39C191,247.5,191,222.52,191,197.37Z"/><path class="cls-6" d="M429.81,179c2-.08,3.74.16,5,1.48a15.42,15.42,0,0,1-.35,10.29c-.91.8-2,.7-3,.74a22.25,22.25,0,0,1-8.15-1c-4.7-1.63-7.41-5.05-8.75-9.74a17.54,17.54,0,0,1-.48-4.83q0-36.61,0-73.21a25.31,25.31,0,0,1,.38-3.06c3.9-.79,7.56-1.09,11.3.07a20.23,20.23,0,0,1,.8,4.55q0,34.23,0,68.46a6.6,6.6,0,0,0,1.54,4.69A22.12,22.12,0,0,0,429.81,179Z"/><path class="cls-11" d="M348.44,220.63a23.8,23.8,0,0,1,11-.08c.39.68.75,1.29,1.08,1.85q0,30.47,0,60.79a24.34,24.34,0,0,1-.33,2.91c-3.19,2.1-6.55,1.16-9.7,1.43-2-1.29-2.45-3.15-2.45-5.3q0-29.35,0-58.72A21.76,21.76,0,0,1,348.44,220.63Z"/><path class="cls-12" d="M394.58,124.56l1.79-1h8.34l2.3,1.65v61.71a4,4,0,0,1-.78,3.11c-3.83.67-7.73,1.09-11.65-.36Z"/><path class="cls-12" d="M115,122.63l1.14-1.09c.28,0,.44-.05.6-.05h9.52l.7.71v64.65L125.84,188h-9.71L115,186.35Z"/><path class="cls-13" d="M130,109.16c-3.12,6.14-6.91,7-9.66,6.19-4.08-1.17-7.44-3.3-6.8-10.31A9.41,9.41,0,0,1,118,99.79a7.11,7.11,0,0,1,5.19-.68C127.45,100.46,130.45,102.28,130,109.16Z"/><path class="cls-14" d="M398.19,99.08c2.95-.25,5.7-.19,7.94,1.84a7,7,0,0,1,2.32,4.36c.63,5.3-1.65,8.62-6.23,10.1-3.39,1.1-8.05-1.67-9.48-5.44C391.46,106.55,391.84,101.59,398.19,99.08Z"/><path class="cls-7" d="M362,202.92v4.47a8.55,8.55,0,0,1-5.65,5.58h-3.89a13.75,13.75,0,0,1-3.77-2.46,11.08,11.08,0,0,1-2.58-4.81,4.58,4.58,0,0,1,.41-2.54,8.34,8.34,0,0,1,6-5.72,7.42,7.42,0,0,1,5.23.62,7.16,7.16,0,0,1,3.79,3.93C361.63,202.29,361.81,202.56,362,202.92Z"/></g></g></svg>