<svg xmlns="http://www.w3.org/2000/svg" viewBox="0 0 532.39 523.16"><defs><style>.cls-1{fill:#193c6a;}.cls-2{fill:#c8202d;}</style></defs><title>MTC</title><g id="Layer_2" data-name="Layer 2"><g id="Layer_1-2" data-name="Layer 1"><path class="cls-1" d="M262.36,267.5c9.68-20.37,19.3-40.31,28.61-60.39,1.7-3.68,3.74-4.79,7.7-4.75q33.88.3,67.78,0c4.28,0,6.21,1,7.38,5.39q15.66,58.47,31.85,116.8c1.5,5.37.69,6.68-5,6.59-21-.34-42-.27-63,0-4.33.05-5.71-1.18-6.33-5.46-2.79-19.38-6-38.7-9.07-58-.21-1.3-.5-2.6-1-5.21-2.34,4.46-4,7.73-5.75,11-9.42,17.63-18.93,35.2-28.21,52.9-1.77,3.37-3.64,5-7.75,4.86-11.78-.33-23.59-.29-35.38,0-3.8.08-5.62-1.3-7.25-4.57-10.35-20.71-20.91-41.3-31.79-62.7-3.6,14.42-5.16,28.55-7.67,42.5Q195.57,317,194,327.63c-.3,2-.72,3.39-3.16,3.38-24,0-47.92,0-72.44,0,5.7-21.28,11.21-41.91,16.75-62.53,5.5-20.45,11.12-40.87,16.44-61.37.92-3.54,2.28-4.75,6-4.72q34.49.27,69,0c3.83,0,5.57,1.33,7.13,4.67C243,227.1,252.62,247.05,262.36,267.5Z"/><path class="cls-1" d="M17.18,261.94C17.61,402.43,136.75,514.78,276.63,505c87.62-6.12,153.58-48.59,198.07-124.24,2.77-4.71,4.69-5.33,9.31-2.67,9.49,5.45,9.64,5.19,4.07,14.78-54,93-159,144.19-268.14,127C111.52,502.77,24.68,418,4.52,310.21-23.1,162.49,78.79,22.06,227.93,2.25c106.51-14.15,212,39.39,263.35,133.58,2.13,3.91,2.23,5.81-2.29,8-10.37,5-10.23,5.26-15.93-4.5C422.07,51.81,322.51,4.29,224,20.41,122.77,37,43.33,112.45,22.59,211.92c-1.67,8-2.86,16.16-3.73,24.3C18,244.75,17.71,253.36,17.18,261.94Z"/><path class="cls-2" d="M492.09,232.37c11.58,0,23.16.24,34.73-.12,4.68-.15,5.86,1.42,5.51,5.76a97.36,97.36,0,0,0,0,13.77c.23,3.62-.83,5-4.63,4.73-5.77-.41-11.59-.1-17.35-.53-3.82-.27-4.7,1.1-4.65,4.71.2,13.57-.05,27.15.16,40.72.07,3.86-.9,5.36-5,5.14a167.54,167.54,0,0,0-17.36,0c-3.88.19-5.19-1-5.12-5,.24-13.37-.13-26.76.21-40.12.12-4.69-1.41-5.81-5.75-5.45-5.56.46-11.17.21-16.75.5-3,.15-4.32-.73-4.18-4a152.57,152.57,0,0,0,0-15.57c-.23-3.82,1.28-4.69,4.82-4.63C468.53,232.48,480.31,232.37,492.09,232.37Z"/></g></g></svg>