<svg xmlns="http://www.w3.org/2000/svg" viewBox="0 0 2395.48 2396.39"><defs><style>.cls-1{fill:#fdfefe;}.cls-2{fill:#fff;}.cls-3{fill:#4056a6;}.cls-4{fill:#445aa8;}.cls-5{fill:#dc3231;}.cls-6{fill:#fdfdfe;}.cls-7{fill:#6f7bba;}</style></defs><title>NAL</title><g id="Layer_2" data-name="Layer 2"><g id="Layer_1-2" data-name="Layer 1"><path class="cls-1" d="M1494.15,1121.78c0-.32,0-.65,0-1,0,.69,0,1.38,0,2.07-.32,13.09-7.18,23.33-18.13,30.58-8.76,5.79-18.66,8.54-28.84,10.64-18.38,3.77-34-1.65-45.71-15.69-7.39-8.84-14.17-18.76-18.77-29.26-18.08-41.29-32.38-84-37.59-128.9a111.58,111.58,0,0,1-.8-13.6,112.44,112.44,0,0,0,.8,12.52c5.21,44.9,19.51,87.61,37.59,128.89,4.6,10.51,11.38,20.43,18.77,29.26,11.75,14,27.33,19.47,45.71,15.69,10.18-2.09,20.08-4.84,28.84-10.64C1487,1145.12,1493.83,1134.87,1494.15,1121.78Z"/><path class="cls-1" d="M1421.56,850.7c-36.85.9-71.69,10.77-103.27,30.26-25.67,15.84-41.65,38.86-47.81,68.44-.13.63-.26,1.27-.38,1.9l-.36,1.91a.08.08,0,0,1,0,0c-.2,1.14-.39,2.28-.56,3.42,0,.14-.05.29-.07.43-.1.64-.19,1.28-.28,1.93q-.52,3.86-.86,7.72c-.11,1.29-.21,2.58-.29,3.87s-.13,2.39-.18,3.59c0,.09,0,.18,0,.28,0,1.29-.08,2.58-.1,3.87,0,.53,0,1.06,0,1.59a156.41,156.41,0,0,1,2.36-27.69c.23-1.32.49-2.63.76-3.94,6.16-29.58,22.14-52.6,47.81-68.44,31.58-19.49,66.42-29.37,103.27-30.26,35.5-.87,63.72,14.16,83.54,44.13,13.4,20.25,21.06,42.81,27.81,67.36l-.28.09c-6.68-24.16-14.31-46.39-27.53-66.37C1485.28,864.87,1457.06,849.84,1421.56,850.7Z"/><path class="cls-1" d="M1573.72,1117.18c0-1.63-.06-3.26-.14-4.89,0-.58,0-1.16-.09-1.73s-.06-1-.1-1.56c-.09-1.21-.19-2.42-.31-3.63,0-.35-.06-.7-.1-1a175.39,175.39,0,0,0-4.88-26c-.46-1.79-.95-3.57-1.45-5.36q-1.45-5.07-3.1-10.12c-.15-.49-1-.75-2.35-1.67l-70.91,21.65c-.08-.33-.15-.66-.23-1l71.14-21.72c1.34.92,2.2,1.18,2.35,1.66.62,1.89,1.21,3.79,1.79,5.69.27.88.53,1.75.79,2.63l.12.44c.29,1,.58,2,.85,3,.18.64.36,1.28.53,1.93.31,1.14.61,2.29.9,3.43s.57,2.3.84,3.45.52,2.3.77,3.45.49,2.3.71,3.46.44,2.3.64,3.47.39,2.31.57,3.47.34,2.32.49,3.48.29,2.33.41,3.49.23,2.33.33,3.5c0,.59.09,1.17.13,1.76.08,1.17.14,2.34.19,3.51C1573.68,1113.64,1573.72,1115.41,1573.72,1117.18Z"/><path class="cls-1" d="M1090.19,1187.92c0,.24-.09.52-.16.88q47,57.93,95.72,118l.7-.22C1153.7,1266.16,1121.71,1226.76,1090.19,1187.92Zm31.53-74.82c.11,1.8.16,3.57.18,5.34,0-2.11-.05-4.26-.18-6.42-1.93-32.34-11-63-28.61-90.41C1076,995,1051,981.9,1019.41,980.76a165.44,165.44,0,0,0-53.22,7.09c-40.82,12.09-81.5,24.67-122.22,37.09a30.37,30.37,0,0,0-4.16,2.1c.09.31.19.62.29.93a26.24,26.24,0,0,1,3.87-2c40.72-12.42,81.4-25,122.22-37.08a165.72,165.72,0,0,1,53.22-7.1c31.55,1.14,56.59,14.28,73.7,40.85C1110.75,1050.12,1119.79,1080.77,1121.72,1113.1Zm-139.1,118.4,38.24,125.61.3-.09c-12.93-42.48-25.47-83.68-38.24-125.61Z"/><path class="cls-1" d="M2056,1326.22l-.56.39c33.2,40.9,65,80.06,97.6,120.26l.7-.22C2121.05,1406.38,2089.22,1367.17,2056,1326.22Zm32.06-85a97.47,97.47,0,0,1,1.23,15,97.14,97.14,0,0,0-1.23-16.09c-4.24-26.49-11.5-52-25.47-75.13-14.58-24.15-35.72-38.88-64-43.06a134.74,134.74,0,0,0-57.33,4.19c-42.5,12.24-84.75,25.34-127.1,38.12-2.12.64-4.15,1.58-7.1,2.72l.3,1c2.79-1.09,4.75-2,6.8-2.61,42.35-12.78,84.6-25.88,127.1-38.11a134.58,134.58,0,0,1,57.33-4.19c28.28,4.17,49.42,18.91,64,43C2076.54,1189.24,2083.8,1214.76,2088,1241.26Zm-138.17,130.37,38.3,125.61.3-.09-38.3-125.61Z"/><path class="cls-1" d="M1763.67,1180.68l-215.83,66-.3-1,216.13-66.09c6.54,21.31,12.84,41.81,19.53,63.59l-.31.09C1776.32,1221.86,1770.11,1201.66,1763.67,1180.68Z"/><path class="cls-1" d="M1784.24,1328.87l-119.87,36.5c-7.92-25.94-15.63-51.22-23.61-77.37l.3-.09c7.88,25.8,15.49,50.76,23.31,76.37l119.87-36.49,19.51,63.51-.3.09C1796.89,1370,1790.68,1349.84,1784.24,1328.87Z"/><path class="cls-1" d="M1871.76,1532.74l-.31.1-19.22-62.46-142.48,43.45-25.85-84.61.3-.09c8.58,28.08,16.9,55.32,25.55,83.61l142.48-43.44C1858.71,1490.36,1865,1510.86,1871.76,1532.74Z"/><path class="cls-1" d="M1690.41,765.16,1590,795.87V797l100.4-30.71c65.09,108.3,130.15,216.54,196.08,326.26l.55-.17Zm-8.53,307.9c2.07,26.54,4.13,52.9,6.25,80.08l.08,0c-2.12-27.19-4.18-53.56-6.25-80.08ZM1590,798.27c0,2-.06,3.85-.06,5.69C1590,802.12,1590,800.24,1590,798.27Z"/><path class="cls-1" d="M1036.11,1405.67c0-.11,0-.21,0-.32v.27c0,.58,0,1.15,0,1.7,0,.27,0,.53,0,.79,0-.53,0-1.07,0-1.62,0-.24,0-.48,0-.73,0,0,0,0,0,0Z"/><path class="cls-1" d="M1128.18,1678.2c2.07,26.42,4.14,52.82,6.27,80.06l-.08,0c-2.13-27.24-4.2-53.63-6.27-80.06Z"/><path class="cls-1" d="M1179.28,1593l-56.62,17.19c-3.52-45-7-88.91-10.43-133.28C1117.81,1481.79,1172.87,1577.22,1179.28,1593Z"/><path class="cls-1" d="M1333.3,1697.53l-.55.17c-66-109.74-131-218-196.13-326.33l-100.47,30.83v-1.08l100.47-30.83Z"/><path class="cls-1" d="M923.26,1437.61l-215.81,66-.3-1,216.11-66.1,19.51,63.4-.3.1Z"/><path class="cls-1" d="M943.85,1585.78,824,1622.31l-23.66-77.23.3-.1c7.84,25.58,15.48,50.53,23.36,76.25l119.84-36.54,19.48,63.56-.3.09C956.45,1626.89,950.24,1606.63,943.85,1585.78Z"/><path class="cls-1" d="M1031.22,1789.88l-.3.09c-6.51-21.5-12.25-42.12-19.41-62.62-24.66,7.56-48.12,15-71.7,21.93-23.4,6.92-46.51,15-70.64,21l-25.63-84.2.3-.09c8.42,27.65,16.69,54.83,25.33,83.21,24.13-6.1,47.24-14.12,70.64-21,23.58-7,47-14.37,71.7-21.94C1018.78,1747.07,1024.59,1768,1031.22,1789.88Z"/><path class="cls-1" d="M783.36,1865.65l-.31.09c-6.6-21.54-12.82-41.77-19.2-62.6l-130.24,39.68c-29.92-97-58.91-193.18-88.73-289.51l-73.22,22.4-.3-1,73.52-22.5c29.82,96.33,58.81,192.54,88.73,289.52l130.24-39.68C770.33,1823.2,776.64,1843.75,783.36,1865.65Z"/><path class="cls-1" d="M801.42,1039l-215.84,66-.3-1,216.14-66.08c6.6,21.5,12.9,42,19.51,63.61l-.3.09C814.13,1080.45,807.92,1060.2,801.42,1039Z"/><path class="cls-1" d="M821.93,1187.2l-119.86,36.52-23.59-77.41.3-.09c7.77,25.49,15.37,50.44,23.29,76.41l119.86-36.52,19.53,63.56-.31.09Z"/><path class="cls-1" d="M909.47,1391.26l-.31.09L890,1328.72l-142.51,43.44c-8.77-28.78-17.17-56.32-25.8-84.63l.3-.09c8.53,28,16.83,55.2,25.5,83.64L890,1327.64Z"/><path class="cls-1" d="M1300.21,1271.7l-.3.09L1192.18,919.54,1118.86,942l-.3-1,73.62-22.58C1228.17,1036.14,1264,1153.28,1300.21,1271.7Z"/><path class="cls-1" d="M2394.4,1237.45c-4,72.15-10,121-10.68,126.67a182.73,182.73,0,0,1-49.85,32.2c-24.25,10.66-49.54,17.83-76,19.46-40.47,2.5-72.92-12.11-95.16-46.94a175.38,175.38,0,0,1-19.63-43.56,42.55,42.55,0,0,1-1.06-5.87l72.18-22c1.45,3.78,2.35,7,3.85,9.85,4,7.66,7.42,15.75,12.48,22.64,10.86,14.78,26.09,20.28,44,16.92a99.46,99.46,0,0,0,23.79-7.2c7.39-3.48,14.76-8,20.48-13.79,7.84-7.87,11-16.79,10.86-26.4a54.79,54.79,0,0,0-3.24-18.24c-5.24-15.44-15.25-24.22-31.38-27-14.11-2.41-27.92-.54-41.73,1.51-25.08,3.72-50.11,7.12-75.5,3-28.1-4.55-50-18.37-62.82-44.08a179,179,0,0,1-14.36-39.22,124.58,124.58,0,0,1-3.3-27c.15-31.1,14-57.52,41.85-78.61a138.72,138.72,0,0,1,18.49-11.83,219.71,219.71,0,0,1,83.62-24.84c42.63-4,75.42,11.48,97.51,48.55,8.58,14.4,14.57,29.89,19.26,45.92.63,2.12,1,4.31,1.52,6.78l-72.33,22.07c-1.4-3.73-2.4-6.87-3.74-9.86-3.12-7-5.85-14.2-9.71-20.76-12.42-21.12-28.56-28.07-52.2-22.73a107.66,107.66,0,0,0-18,5.81c-17,7.18-29,20-28.75,38.45-.09,6.62,1.43,14,4.91,22.07,5.84,13.6,15.92,21.5,30.44,22.27a183.42,183.42,0,0,0,34.83-1.26c24.12-3.37,48.19-6.68,72.6-4.53,32,2.81,57.16,16.59,72.67,45.71A60,60,0,0,0,2394.4,1237.45Z"/><path class="cls-1" d="M2318.8,1324.73c7.55-7.58,10.76-16.13,10.86-25.32.15,9.61-3,18.53-10.86,26.4-5.72,5.74-13.09,10.31-20.48,13.79a99.46,99.46,0,0,1-23.79,7.2c-17.93,3.36-33.16-2.14-44-16.92-5.06-6.89-8.51-15-12.48-22.64-1.5-2.88-2.4-6.07-3.85-9.85l-72.18,22c0-.34-.1-.69-.16-1l72.34-22.07c1.45,3.78,2.35,7,3.85,9.86,4,7.65,7.42,15.75,12.48,22.63,10.86,14.79,26.09,20.29,44,16.92a98.56,98.56,0,0,0,23.79-7.2C2305.71,1335,2313.08,1330.47,2318.8,1324.73Z"/><path class="cls-1" d="M2157.67,1057.93a138.72,138.72,0,0,0-18.49,11.83c-27.85,21.09-41.7,47.51-41.85,78.61-.17-31.57,13.68-58.36,41.85-79.7a140.76,140.76,0,0,1,18.49-11.83,219.71,219.71,0,0,1,83.62-24.84c42.63-4,75.42,11.48,97.51,48.56,8.58,14.4,14.57,29.89,19.26,45.91.71,2.41,1.1,4.9,1.74,7.8l-.22.07c-.52-2.47-.89-4.66-1.52-6.78-4.69-16-10.68-31.52-19.26-45.92-22.09-37.07-54.88-52.59-97.51-48.55A219.71,219.71,0,0,0,2157.67,1057.93Z"/><path class="cls-1" d="M2394.49,1236.69l0,0c0,.27,0,.54,0,.81a60,60,0,0,1-4.13-5.87c-15.51-29.12-40.7-42.9-72.67-45.71-24.41-2.15-48.48,1.16-72.6,4.53a183.42,183.42,0,0,1-34.83,1.26c-14.52-.77-24.6-8.67-30.44-22.27-3.48-8.09-5-15.45-4.91-22.07a55.06,55.06,0,0,0,4.91,21c5.84,13.59,15.92,21.5,30.44,22.26a183.42,183.42,0,0,0,34.83-1.25c24.12-3.38,48.14-6.11,72.6-4.54,43.42,2.79,61.35,22.55,76.86,51.67l0,.08C2394.76,1237,2394.67,1237,2394.49,1236.69Z"/><path class="cls-1" d="M1504.8,1504.29a148.45,148.45,0,0,1,1,33.78c-1,13.31-6.94,24.89-16.8,34.17a69.61,69.61,0,0,1-8.46,7c-18.52,12.58-40.13,16.76-61.84,23.39-23.07-75.45-45.88-150-69.27-226.51,18.74-4.75,35.9-10.16,53.46-13.29,22.61-4,42,3.17,57,21,8.69,10.31,15,22,19.85,34.45C1490.6,1446.21,1500.12,1474.63,1504.8,1504.29Z"/><path class="cls-1" d="M1586.14,1526.74a212.32,212.32,0,0,0-3.09-32.3c-6-35.58-16.87-69.82-29.64-103.45-7.94-20.93-18.21-40.73-32.39-58.26-17.42-21.54-39.32-35.79-67-40a157,157,0,0,0-67.32,4.21c-42.22,12-84.15,25-126.19,37.7-1.1.34-2,1.33-3.31,2.32l-.27-.88c1.47-1.06,2.41-2.17,3.58-2.52,42-12.67,84-25.69,126.19-37.7a157,157,0,0,1,67.32-4.22c27.64,4.27,49.54,18.52,67,40.05,14.18,17.54,24.45,37.34,32.39,58.26,12.77,33.63,23.68,67.88,29.64,103.46A209.12,209.12,0,0,1,1586.14,1526.74Z"/><path class="cls-1" d="M87.42,1647.31c.89,2.23,1.53,3.8,1.88,4.68-.12-.26-.26-.59-.44-1C88.34,1649.8,87.85,1648.56,87.42,1647.31Z"/><path class="cls-1" d="M85.41,1638.57c-2.11-24.84-3.87-49.7-5.83-75.6l-.08,0c2,26.28,3.77,51.49,5.91,76.67a31.23,31.23,0,0,0,.73,4.43c.47,1.19.89,2.27,1.28,3.22A35.48,35.48,0,0,1,85.41,1638.57Zm-21.5-277.21.75.43.07.07.08.08c0-.1,0-.2,0-.3Z"/><path class="cls-1" d="M88,1256.25,3.76,1281.83c.09,14.23,1.29,32,3.84,53.91C24.42,1480.37,72.71,1610,86.14,1644.09a31.23,31.23,0,0,1-.73-4.43c-2.14-25.18-3.92-50.39-5.91-76.67l.08,0c0-.35,0-.71-.08-1.06l86-26.3c13.6,23.72,26.81,46.75,40.5,70.65,25.74-7.86,51.21-15.61,78.07-23.8C218.55,1473.44,153.52,1365.21,88,1256.25ZM64.66,1361.79l-.75-.43.89.28c0,.1,0,.2,0,.3l-.08-.08Zm10.45,133c-.73-2.53-1.73-4.61-1.89-6.75-2.33-30.18-4.63-60.38-6.73-90.58-.17-2.43-.31-4.86-.44-7.29l-.18-3.52c-.06-1.17-.12-2.35-.17-3.52-.11-2.35-.2-4.69-.3-7-.07-1.82-.15-3.64-.22-5.46-.12-2.88-.23-5.75-.37-8.63l.27.29.07.07c.27.29.55.57.83.86.45.46.9.92,1.31,1.4.14.16.27.32.4.49a7.79,7.79,0,0,1,.7,1q29.91,52.49,59.66,105.05c1,1.71,1.77,3.53,3.15,6.31Z"/><path class="cls-1" d="M363.49,1505.41c5,15.8,9.66,31.68,14.7,48.24l-.3.09c-4.93-16.2-9.53-31.77-14.4-47.25q-25.29-80.41-50.75-160.78l-3.33-7.69c4,1,5.63,3.63,6.76,6.64l-3.43,0c.11.36.23.73.35,1.09Q338.3,1425.57,363.49,1505.41Z"/><path class="cls-1" d="M437,1391.37l0,1.07-2.22.64L305,1190.78l-108.11,33.13-.3-1L305,1189.7Q370.23,1291.28,434.85,1392Z"/><path class="cls-1" d="M511.72,1432.82c.58,26,1,51.92,1.58,79.45h0c-.53-27.13-1-52.76-1.56-78.38-.58-26-1-51.93-2-77.88-.11-2.65-.2-5.29-.29-7.94-.06-1.59-.11-3.19-.15-4.78q-.11-3.57-.2-7.14c0-1.7-.08-3.39-.11-5.09,0-1.54-.05-3.09-.07-4.63,0,1.84.06,3.67.11,5.5q.06,3.09.15,6.18l.09,3.21c0,1.77.11,3.54.17,5.31.09,2.77.19,5.53.3,8.3C510.71,1380.88,511.14,1406.86,511.72,1432.82Z"/><path class="cls-1" d="M648,1471.13l-.31.09c-36.18-118.09-71.67-235-107.8-352.26L431.13,1152.3l0-1.08,108.77-33.34C576.1,1235.48,611.69,1352.71,648,1471.13Z"/><path class="cls-2" d="M2394.46,1236.45c-15.51-29.12-33.44-48.88-76.86-51.67-24.46-1.57-48.48,1.16-72.6,4.54a183.42,183.42,0,0,1-34.83,1.25c-14.52-.76-24.6-8.67-30.44-22.26a55.06,55.06,0,0,1-4.91-21c-.09,6.62,1.43,14,4.91,22.07,5.84,13.6,15.92,21.5,30.44,22.27a183.42,183.42,0,0,0,34.83-1.26c24.12-3.37,48.19-6.68,72.6-4.53,32,2.81,57.16,16.59,72.67,45.71a60,60,0,0,0,4.13,5.87l.06.08,0-.84a.86.86,0,0,0,0-.16Zm-36.4-110c-4.69-16-10.68-31.51-19.26-45.91-22.09-37.08-54.88-52.59-97.51-48.56a219.71,219.71,0,0,0-83.62,24.84,140.76,140.76,0,0,0-18.49,11.83c-28.17,21.34-42,48.13-41.85,79.7.15-31.1,14-57.52,41.85-78.61a138.72,138.72,0,0,1,18.49-11.83,219.71,219.71,0,0,1,83.62-24.84c42.63-4,75.42,11.48,97.51,48.55,8.58,14.4,14.57,29.89,19.26,45.92.63,2.12,1,4.31,1.52,6.78l.22-.07C2359.16,1131.37,2358.77,1128.88,2358.06,1126.47Zm-39.26,198.26c-5.72,5.74-13.09,10.31-20.48,13.78a98.56,98.56,0,0,1-23.79,7.2c-17.93,3.37-33.16-2.13-44-16.92-5.06-6.88-8.51-15-12.48-22.63-1.5-2.89-2.4-6.08-3.85-9.86l-72.34,22.07c.06.35.12.7.16,1l72.18-22c1.45,3.78,2.35,7,3.85,9.85,4,7.66,7.42,15.75,12.48,22.64,10.86,14.78,26.09,20.28,44,16.92a99.46,99.46,0,0,0,23.79-7.2c7.39-3.48,14.76-8,20.48-13.79,7.84-7.87,11-16.79,10.86-26.4C2329.56,1308.6,2326.35,1317.15,2318.8,1324.73ZM2153,1446.87c-26.54,8.14-52,16-78.71,24.17l-87.23-111.84-37.21,11.35.3,1,36.91-11.26,87.23,111.84,79.41-24.39Zm-97-120.65-.56.39c33.2,40.9,65,80.06,97.6,120.26l.7-.22C2121.05,1406.38,2089.22,1367.17,2056,1326.22Zm31.26-50.29a83.22,83.22,0,0,1-23.25,43.36c-2.32,2.3-5.33,3.91-8.57,6.23l.56.7c3-2.12,5.83-3.67,8-5.84a83.25,83.25,0,0,0,23.25-43.37,100.89,100.89,0,0,0,2-20.75A100.56,100.56,0,0,1,2087.24,1275.93Zm.8-35.76c-4.24-26.49-11.5-52-25.47-75.13-14.58-24.15-35.72-38.88-64-43.06a134.74,134.74,0,0,0-57.33,4.19c-42.5,12.24-84.75,25.34-127.1,38.12-2.12.64-4.15,1.58-7.1,2.72l.3,1c2.79-1.09,4.75-2,6.8-2.61,42.35-12.78,84.6-25.88,127.1-38.11a134.58,134.58,0,0,1,57.33-4.19c28.28,4.17,49.42,18.91,64,43,14,23.12,21.23,48.64,25.47,75.14a97.47,97.47,0,0,1,1.23,15A97.14,97.14,0,0,0,2088,1240.17Zm-99.87,257.07-73.27,22.49c-36-117.59-71.67-234.41-107.56-351.75l-.3.11c36,117.68,71.81,234.82,107.86,352.72l73.57-22.57Zm-38-125.7-.3.09,38.3,125.61.3-.09Zm-186.5-191.94-216.13,66.09.3,1,215.83-66c6.44,21,12.65,41.18,19.22,62.6l.31-.09C1776.51,1221.41,1770.21,1200.91,1763.67,1179.6Zm19.22,63.68-142.13,43.64.3,1,142.14-43.63Zm1.35,84.51-119.87,36.49c-7.82-25.61-15.43-50.57-23.31-76.37l-.3.09c8,26.15,15.69,51.43,23.61,77.37l119.87-36.5c6.44,21,12.65,41.17,19.21,62.52l.3-.09Zm19.21,63.6-119.55,36.74.3,1,119.55-36.75Zm48.78,77.91-142.48,43.44c-8.65-28.29-17-55.53-25.55-83.61l-.3.09,25.85,84.61,142.48-43.45,19.22,62.46.31-.1C1865,1510.86,1858.71,1490.36,1852.23,1469.3Zm19.22,63.54c-71.68,22.36-143.33,43.86-215.86,66.21l-107.75-352.37-.3.09,108,353.36c72.63-22.38,144.39-43.9,216.17-66.3C1871.66,1533.5,1871.56,1533.17,1871.45,1532.84ZM1589.94,804c0-1.84,0-3.72.06-5.69C1590,800.24,1589.94,802.12,1589.94,804ZM1682,1073l-.08,0c2.07,26.54,4.13,52.9,6.25,80.08l.08,0C1686.09,1125.92,1684,1099.55,1682,1073Zm6.17,80.11-78.34,24c-.49-3.42-1.12-6.18-1.26-9-1.66-33.57-3.15-67.15-4.86-100.72q-3.93-77.26-8.08-154.52c-1.81-34.22-3.74-68.44-5.54-102.67-.08-1.59-.12-3.19-.12-4.81,0,2,0,4,.12,5.9,1.8,34.22,3.73,68.44,5.54,102.67q4.1,77.25,8.08,154.52c1.71,33.57,3.2,67.15,4.86,100.72.14,2.78.77,5.55,1.26,9l78.42-24.08C1688.18,1153.84,1688.16,1153.49,1688.13,1153.14Zm2.28-388L1590,795.87V797l100.4-30.71c65.09,108.3,130.15,216.54,196.08,326.26l.55-.17Zm196.08,327.35-78,23.92L1768,1045.75,1681.88,1072c0,.35.06.71.08,1.06l86-26.19c13.87,24.19,27.21,47.45,40.52,70.68l78.57-24.09Zm-303.75,467.3c-5.72,25.5-19.26,45.75-39.81,61.55-19,14.61-40.56,24.15-63.23,31.25-36.18,11.34-72.47,22.34-108.73,33.46-1.85.56-3.8.81-6.55,1.39l-107.18-350.55c-.08.07-.18.13-.27.2l107.45,351.43c2.75-.57,4.7-.82,6.55-1.39,36.26-11.11,72.55-22.12,108.73-33.45,22.67-7.1,44.23-16.64,63.23-31.25,20.55-15.8,34.09-36,39.81-61.55a145.45,145.45,0,0,0,3.41-32.57A144.84,144.84,0,0,1,1582.74,1559.81Zm.31-66.45c-6-35.58-16.87-69.83-29.64-103.46-7.94-20.92-18.21-40.72-32.39-58.26-17.42-21.53-39.32-35.78-67-40.05a157,157,0,0,0-67.32,4.22c-42.22,12-84.15,25-126.19,37.7-1.17.35-2.11,1.46-3.58,2.52l.27.88c1.32-1,2.21-2,3.31-2.32,42-12.66,84-25.68,126.19-37.7a157,157,0,0,1,67.32-4.21c27.64,4.26,49.54,18.51,67,40,14.18,17.53,24.45,37.33,32.39,58.26,12.77,33.63,23.68,67.87,29.64,103.45a212.32,212.32,0,0,1,3.09,32.3A209.12,209.12,0,0,0,1583.05,1493.36Zm-78.25,10.93c-4.68-29.66-14.2-58.08-25-86-4.82-12.43-11.16-24.14-19.85-34.45-15-17.86-34.43-25.06-57-21-17.56,3.13-34.72,8.54-53.46,13.29,23.39,76.47,46.2,151.06,69.27,226.51,21.71-6.63,43.32-10.81,61.84-23.39a69.61,69.61,0,0,0,8.46-7c9.86-9.28,15.83-20.86,16.8-34.17A148.45,148.45,0,0,0,1504.8,1504.29Zm67.21-367c-4.51,26.06-18.39,46.11-39.84,61-24.76,17.22-52.67,26.71-82,32.45a131.21,131.21,0,0,1-46.71.92c-25.37-4.17-45.87-17.15-62.58-36.4s-28.39-41.09-37.4-64.51c-15.45-40.12-28.63-81-34.24-123.8a209.84,209.84,0,0,1-1.87-26.71,208.91,208.91,0,0,0,1.87,27.79c5.61,42.83,18.79,83.68,34.24,123.81,9,23.42,20.82,45.4,37.4,64.5s37.21,32.23,62.58,36.41a131.44,131.44,0,0,0,46.71-.93c29.34-5.74,57.25-15.23,82-32.45,21.45-14.92,35.33-35,39.84-61a117.79,117.79,0,0,0,1.71-20.88A117.18,117.18,0,0,1,1572,1137.31Zm1.6-25.43c0-1.17-.11-2.34-.19-3.51,0-.59-.09-1.17-.13-1.76-.1-1.17-.21-2.33-.33-3.5s-.26-2.33-.41-3.49-.32-2.32-.49-3.48-.37-2.32-.57-3.47-.41-2.32-.64-3.47-.46-2.31-.71-3.46-.51-2.3-.77-3.45-.55-2.3-.84-3.45-.59-2.29-.9-3.43c-.17-.65-.35-1.29-.53-1.93-.27-1-.55-2-.85-3l-.12-.44c-.26-.88-.52-1.75-.79-2.63-.58-1.9-1.17-3.8-1.79-5.69-.15-.48-1-.74-2.35-1.66l-71.14,21.72c.08.35.15.68.23,1l70.91-21.65c1.34.92,2.2,1.18,2.35,1.67q1.64,5.06,3.1,10.12c.5,1.79,1,3.57,1.45,5.36a175.39,175.39,0,0,1,4.88,26c0,.35.07.7.1,1,.12,1.21.22,2.42.31,3.63,0,.52.07,1,.1,1.56s.07,1.15.09,1.73c.08,1.63.12,3.26.14,4.89C1573.72,1115.41,1573.68,1113.64,1573.61,1111.88Zm-41-150.68c-24.72,7.55-48.38,14.8-72.77,22.26-1.93-5.23-3.29-10-5.38-14.36-5-10.48-9.38-21.43-15.77-31-10.62-16-26-22.2-45.12-17.58-1.29.31-2.63.43-3.92.77-30,7.89-45.55,23.77-45.36,55.37.17-30.88,15.74-46.48,45.36-54.29,1.29-.34,2.63-.46,3.92-.77,19.13-4.62,34.5,1.64,45.12,17.58,6.39,9.59,10.77,20.55,15.77,31,2.09,4.39,3.45,9.13,5.38,14.36l73.05-22.35C1532.82,961.86,1532.73,961.53,1532.63,961.2Zm-27.53-67.45c-19.82-30-48-45-83.54-44.13-36.85.89-71.69,10.77-103.27,30.26-25.67,15.84-41.65,38.86-47.81,68.44-.27,1.31-.53,2.62-.76,3.94a156.41,156.41,0,0,0-2.36,27.69c0-.53,0-1.06,0-1.59,0-1.29,0-2.58.1-3.87,0-.1,0-.19,0-.28,0-1.2.11-2.4.18-3.59s.18-2.58.29-3.87q.33-3.87.86-7.72c.09-.65.18-1.29.28-1.93,0-.14,0-.29.07-.43.17-1.14.36-2.28.56-3.42a.08.08,0,0,0,0,0l.36-1.91c.12-.63.25-1.27.38-1.9,6.16-29.58,22.14-52.6,47.81-68.44,31.58-19.49,66.42-29.36,103.27-30.26,35.5-.86,63.72,14.17,83.54,44.13,13.22,20,20.85,42.21,27.53,66.37l.28-.09C1526.16,936.56,1518.5,914,1505.1,893.75Zm-13.49,195.36a49.86,49.86,0,0,0-1.32-6.32l-.23.07a69.42,69.42,0,0,1,1.55,7.33c.91,10,2.5,19.91,2.56,29.85C1494.23,1109.75,1492.56,1099.42,1491.61,1089.11Zm2.54,32.67c-.32,13.09-7.18,23.34-18.13,30.58-8.76,5.8-18.66,8.55-28.84,10.64-18.38,3.78-34-1.65-45.71-15.69-7.39-8.83-14.17-18.75-18.77-29.26-18.08-41.28-32.38-84-37.59-128.89a112.44,112.44,0,0,1-.8-12.52,111.58,111.58,0,0,0,.8,13.6c5.21,44.9,19.51,87.61,37.59,128.9,4.6,10.5,11.38,20.42,18.77,29.26,11.75,14,27.33,19.46,45.71,15.69,10.18-2.1,20.08-4.85,28.84-10.64,11-7.25,17.81-17.49,18.13-30.58,0-.69,0-1.38,0-2.07C1494.17,1121.13,1494.16,1121.46,1494.15,1121.78Zm-458,283.89v0s0,0,0,0c0,.25,0,.49,0,.73v.83c0-.55,0-1.12,0-1.7A.07.07,0,0,1,1036.11,1405.67Zm92.07,272.53-.08,0c2.07,26.43,4.14,52.82,6.27,80.06l.08,0C1132.32,1731,1130.25,1704.62,1128.18,1678.2Zm6.19,80.09-78.44,24.07c-.47-3.81-1.06-6.93-1.22-10.08q-3.46-69.29-6.84-138.59-2.89-57.32-6-114.63-2.82-52.83-5.71-105.66c-.06-1.18-.09-2.37-.09-3.6,0,1.63,0,3.16.09,4.69q2.8,52.83,5.71,105.65,3,57.31,6,114.64,3.5,69.29,6.84,138.59c.16,3.14.75,6.27,1.22,10.08l78.52-24.1C1134.42,1759,1134.39,1758.64,1134.37,1758.29Zm-22.14-281.38c3.47,44.37,6.91,88.28,10.43,133.28l56.62-17.19C1172.87,1577.22,1117.81,1481.79,1112.23,1476.91Zm24.39-106.62-100.47,30.83v1.08l100.47-30.83c65.12,108.36,130.17,216.59,196.13,326.33l.55-.17Zm196.13,327.41-78,23.85-40.57-70.66-86.06,26.26c0,.35.05.7.08,1l86-26.22,40.57,70.65,78.57-24C1333.12,1698.31,1332.94,1698,1332.75,1697.7ZM1192.18,918.45,1118.56,941l.3,1,73.32-22.49,107.73,352.25.3-.09C1264,1153.28,1228.17,1036.14,1192.18,918.45Zm107.73,353.34-73.3,22.57C1190.76,1177.11,1155,1060.3,1118.86,942l-.3.09c36.27,118.61,72.1,235.75,108,353.32l73.6-22.66ZM1107,1330.89l-87.2-111.83-37.18,11.35.3,1,36.88-11.27L1107,1332l79.45-24.36-.7-.86Zm-16.81-143c0,.24-.09.52-.16.88q47,57.93,95.72,118l.7-.22C1153.7,1266.16,1121.71,1226.76,1090.19,1187.92Zm3.65-5.88a48.53,48.53,0,0,0-3.38,3.64c-.18.2-.14.61-.43,2,0,.06.1.13.16.19.12-.73.14-1,.27-1.15,1.09-1.24,2.17-2.51,3.38-3.64,19-17.71,28.24-39.66,28.06-64.68C1121.81,1143,1112.53,1164.58,1093.84,1182ZM966.19,988.94a165.72,165.72,0,0,1,53.22-7.1c31.55,1.14,56.59,14.28,73.7,40.85,17.64,27.43,26.68,58.08,28.61,90.41.11,1.8.16,3.57.18,5.34,0-2.11-.05-4.26-.18-6.42-1.93-32.34-11-63-28.61-90.41C1076,995,1051,981.9,1019.41,980.76a165.44,165.44,0,0,0-53.22,7.09c-40.82,12.09-81.5,24.67-122.22,37.09a30.37,30.37,0,0,0-4.16,2.1c.09.31.19.62.29.93a26.24,26.24,0,0,1,3.87-2C884.69,1013.6,925.37,1001,966.19,988.94ZM840.1,1028l-.29.15c35.91,117.43,71.73,234.6,107.81,352.58l73.54-22.59-.3-1-73.24,22.5C911.64,1262,875.91,1145.08,840.1,1028Zm180.76,329.14.3-.09c-12.93-42.48-25.47-83.68-38.24-125.61l-.3.09ZM1030.92,1790l-215.76,66L707.45,1503.63l-.3.09c36.12,118.15,71.87,235.11,108,353.34l216.06-66.1Zm-19.41-63.71c-24.66,7.57-48.12,15-71.7,21.94-23.4,6.92-46.51,14.94-70.64,21-8.64-28.38-16.91-55.56-25.33-83.21l-.3.09,25.63,84.2c24.13-6.09,47.24-14.12,70.64-21,23.58-7,47-14.37,71.7-21.93,7.16,20.5,12.9,41.12,19.41,62.62l.3-.09C1024.59,1768,1018.78,1747.07,1011.51,1726.26ZM963,1648.34,843.54,1685l.3,1,119.49-36.7Zm-19.18-63.65L824,1621.23c-7.88-25.72-15.52-50.67-23.36-76.25l-.3.1L824,1622.31l119.84-36.53c6.39,20.85,12.6,41.11,19.18,62.56l.3-.09ZM942.47,1500c-47.14,15.25-94.49,28.69-142.12,44l.3,1c47.63-15.27,95-28.71,142.12-44Zm-19.21-63.5-216.11,66.1.3,1,215.81-66L942.47,1500l.3-.1Zm-14.1-45.18-215.86,66c-36-117.76-71.73-234.64-107.72-352.35l-.3.09c36.09,118,71.92,235.25,108,353.34l216.17-66.09ZM890,1327.64l-142.51,43.44c-8.67-28.44-17-55.68-25.5-83.64l-.3.09c8.63,28.31,17,55.85,25.8,84.63L890,1328.72l19.2,62.63.31-.09Zm-48.81-77.88-119.5,36.69.3,1,119.51-36.68Zm-19.22-63.65-119.86,36.52c-7.92-26-15.52-50.92-23.29-76.41l-.3.09,23.59,77.41,119.86-36.52,19.22,62.56.31-.09Zm-1.3-84.47-142.15,43.59.3,1,142.15-43.59Zm-19.21-63.7L585.28,1104l.3,1,215.84-66c6.5,21.17,12.71,41.42,19.21,62.61l.3-.09C814.32,1080,808,1059.44,801.42,1037.94Zm-37.57,764.12-130.24,39.68c-29.92-97-58.91-193.19-88.73-289.52l-73.52,22.5.3,1,73.22-22.4c29.82,96.33,58.81,192.54,88.73,289.51l130.24-39.68c6.38,20.83,12.6,41.06,19.2,62.6l.31-.09C776.64,1843.75,770.33,1823.2,763.85,1802.06Zm19.2,63.68-203.67,62.31c-35.93-117.52-71.65-234.38-107.72-352.34l-.3.09c36.17,118.31,72,235.49,108,353.33l204-62.39ZM513.28,1512.28c-24.12,7.42-48.74,15-74.27,22.88-2.07-3-4.16-5.87-6.07-8.85Q377.8,1440,322.69,1353.76c-2-3.08-4.08-6.07-6.13-9.1h-.39c-1.13-3-2.75-5.67-6.76-6.64l3.33,7.69q25.39,80.38,50.75,160.78c4.87,15.48,9.47,31,14.4,47.25l.3-.09c-5-16.56-9.73-32.44-14.7-48.24q-25.12-79.87-50.4-159.7l3.47,0c2.05,3,4.16,6,6.13,9.11q55.14,86.26,110.25,172.55c1.91,3,4,5.84,6.07,8.85l74.29-22.9C513.29,1513,513.29,1512.63,513.28,1512.28Zm-135.39,41.46-73.16,22.43c-36.09-117.16-71.62-234.12-107.82-352.26l-.3.09c36.3,118.48,71.93,235.76,108.12,353.25l73.46-22.52Zm53.24-401.44h0c2,80.44,4,159.75,5.94,239.06h0C435.1,1312.05,433.13,1232.73,431.13,1152.3ZM437,1391.37l-2.19.62Q370.08,1291.07,305,1189.7l-108.41,33.22.3,1L305,1190.78l129.83,202.3,2.22-.64Zm74.68,41.45c-.58-26-1-51.94-2-77.88-.11-2.77-.21-5.53-.3-8.3-.06-1.77-.12-3.54-.17-5.31l-.09-3.21q-.09-3.09-.15-6.18c-.05-1.83-.08-3.66-.11-5.5,0,1.54,0,3.09.07,4.63,0,1.7.07,3.39.11,5.09q.09,3.57.2,7.14c0,1.59.09,3.19.15,4.78.09,2.65.18,5.29.29,7.94,1,26,1.45,51.92,2,77.88.57,25.62,1,51.25,1.56,78.38h0C512.76,1484.74,512.3,1458.78,511.72,1432.82Zm28.15-314.94L431.1,1151.22l0,1.08L539.87,1119c36.13,117.28,71.62,234.17,107.8,352.26l.31-.09C611.69,1352.71,576.1,1235.48,539.87,1117.88Zm107.8,353.34-73.26,22.48c-21.86-72.29-44.95-143.27-65.26-215.34q-.27,8.7-.36,17.39c0-.7,0-1.4,0-2.1,0-1.71.05-3.43.09-5.14,0-.56,0-1.12,0-1.67.05-2.46.12-4.93.19-7.39,20.31,72.06,43.4,143,65.26,215.34L648,1472.22C647.88,1471.89,647.78,1471.55,647.67,1471.22ZM87.42,1647.31c.43,1.25.92,2.49,1.44,3.68.18.41.32.74.44,1C89,1651.11,88.31,1649.54,87.42,1647.31Zm-2-8.74c-2.11-24.84-3.87-49.7-5.83-75.6l-.08,0c2,26.28,3.77,51.49,5.91,76.67a31.23,31.23,0,0,0,.73,4.43c.47,1.19.89,2.27,1.28,3.22A35.48,35.48,0,0,1,85.41,1638.57ZM64.8,1361.64l-.89-.28.75.43.07.07.08.08C64.81,1361.84,64.8,1361.74,64.8,1361.64Z"/><path class="cls-3" d="M2394.46,1236.45c-15.51-29.12-33.44-48.88-76.86-51.67-24.46-1.57-48.48,1.16-72.6,4.54a183.42,183.42,0,0,1-34.83,1.25c-14.52-.76-24.6-8.67-30.44-22.26a55.06,55.06,0,0,1-4.91-21c-.09,6.62,1.43,14,4.91,22.07,5.84,13.6,15.92,21.5,30.44,22.27a183.42,183.42,0,0,0,34.83-1.26c24.12-3.37,48.19-6.68,72.6-4.53,32,2.81,57.16,16.59,72.67,45.71a60,60,0,0,0,4.13,5.87l.06.08,0-.84a.86.86,0,0,0,0-.16Zm-36.4-110c-4.69-16-10.68-31.51-19.26-45.91-22.09-37.08-54.88-52.59-97.51-48.56a219.71,219.71,0,0,0-83.62,24.84,140.76,140.76,0,0,0-18.49,11.83c-28.17,21.34-42,48.13-41.85,79.7.15-31.1,14-57.52,41.85-78.61a138.72,138.72,0,0,1,18.49-11.83,219.71,219.71,0,0,1,83.62-24.84c42.63-4,75.42,11.48,97.51,48.55,8.58,14.4,14.57,29.89,19.26,45.92.63,2.12,1,4.31,1.52,6.78l.22-.07C2359.16,1131.37,2358.77,1128.88,2358.06,1126.47Zm-39.26,198.26c-5.72,5.74-13.09,10.31-20.48,13.78a98.56,98.56,0,0,1-23.79,7.2c-17.93,3.37-33.16-2.13-44-16.92-5.06-6.88-8.51-15-12.48-22.63-1.5-2.89-2.4-6.08-3.85-9.86l-72.34,22.07c.06.35.12.7.16,1l72.18-22c1.45,3.78,2.35,7,3.85,9.85,4,7.66,7.42,15.75,12.48,22.64,10.86,14.78,26.09,20.28,44,16.92a99.46,99.46,0,0,0,23.79-7.2c7.39-3.48,14.76-8,20.48-13.79,7.84-7.87,11-16.79,10.86-26.4C2329.56,1308.6,2326.35,1317.15,2318.8,1324.73ZM2056,1326.22l-.56.39c33.2,40.9,65,80.06,97.6,120.26l.7-.22C2121.05,1406.38,2089.22,1367.17,2056,1326.22Zm32.06-86c-4.24-26.49-11.5-52-25.47-75.13-14.58-24.15-35.72-38.88-64-43.06a134.74,134.74,0,0,0-57.33,4.19c-42.5,12.24-84.75,25.34-127.1,38.12-2.12.64-4.15,1.58-7.1,2.72l.3,1c2.79-1.09,4.75-2,6.8-2.61,42.35-12.78,84.6-25.88,127.1-38.11a134.58,134.58,0,0,1,57.33-4.19c28.28,4.17,49.42,18.91,64,43,14,23.12,21.23,48.64,25.47,75.14a97.47,97.47,0,0,1,1.23,15A97.14,97.14,0,0,0,2088,1240.17Zm-137.87,131.37-.3.09,38.3,125.61.3-.09ZM1690.41,765.16,1590,795.87V797l100.4-30.71c65.09,108.3,130.15,216.54,196.08,326.26l.55-.17Zm161.82,704.14-142.48,43.44c-8.65-28.29-17-55.53-25.55-83.61l-.3.09,25.85,84.61,142.48-43.45,19.22,62.46.31-.1C1865,1510.86,1858.71,1490.36,1852.23,1469.3Zm-68-141.51-119.87,36.49c-7.82-25.61-15.43-50.57-23.31-76.37l-.3.09c8,26.15,15.69,51.43,23.61,77.37l119.87-36.5c6.44,21,12.65,41.17,19.21,62.52l.3-.09Zm-20.57-148.19-216.13,66.09.3,1,215.83-66c6.44,21,12.65,41.18,19.22,62.6l.31-.09C1776.51,1221.41,1770.21,1200.91,1763.67,1179.6ZM1682,1073l-.08,0c2.07,26.54,4.13,52.9,6.25,80.08l.08,0C1686.09,1125.92,1684,1099.55,1682,1073Zm-92-269.07c0-1.84,0-3.72.06-5.69C1590,800.24,1589.94,802.12,1589.94,804Zm-6.89,689.4c-6-35.58-16.87-69.83-29.64-103.46-7.94-20.92-18.21-40.72-32.39-58.26-17.42-21.53-39.32-35.78-67-40.05a157,157,0,0,0-67.32,4.22c-42.22,12-84.15,25-126.19,37.7-1.17.35-2.11,1.46-3.58,2.52l.27.88c1.32-1,2.21-2,3.31-2.32,42-12.66,84-25.68,126.19-37.7a157,157,0,0,1,67.32-4.21c27.64,4.26,49.54,18.51,67,40,14.18,17.53,24.45,37.33,32.39,58.26,12.77,33.63,23.68,67.87,29.64,103.45a212.32,212.32,0,0,1,3.09,32.3A209.12,209.12,0,0,0,1583.05,1493.36Zm-9.44-381.48c0-1.17-.11-2.34-.19-3.51,0-.59-.09-1.17-.13-1.76-.1-1.17-.21-2.33-.33-3.5s-.26-2.33-.41-3.49-.32-2.32-.49-3.48-.37-2.32-.57-3.47-.41-2.32-.64-3.47-.46-2.31-.71-3.46-.51-2.3-.77-3.45-.55-2.3-.84-3.45-.59-2.29-.9-3.43c-.17-.65-.35-1.29-.53-1.93-.27-1-.55-2-.85-3l-.12-.44c-.26-.88-.52-1.75-.79-2.63-.58-1.9-1.17-3.8-1.79-5.69-.15-.48-1-.74-2.35-1.66l-71.14,21.72c.08.35.15.68.23,1l70.91-21.65c1.34.92,2.2,1.18,2.35,1.67q1.64,5.06,3.1,10.12c.5,1.79,1,3.57,1.45,5.36a175.39,175.39,0,0,1,4.88,26c0,.35.07.7.1,1,.12,1.21.22,2.42.31,3.63,0,.52.07,1,.1,1.56s.07,1.15.09,1.73c.08,1.63.12,3.26.14,4.89C1573.72,1115.41,1573.68,1113.64,1573.61,1111.88ZM1505.1,893.75c-19.82-30-48-45-83.54-44.13-36.85.89-71.69,10.77-103.27,30.26-25.67,15.84-41.65,38.86-47.81,68.44-.27,1.31-.53,2.62-.76,3.94a156.41,156.41,0,0,0-2.36,27.69c0-.53,0-1.06,0-1.59,0-1.29,0-2.58.1-3.87,0-.1,0-.19,0-.28,0-1.2.11-2.4.18-3.59s.18-2.58.29-3.87q.33-3.87.86-7.72c.09-.65.18-1.29.28-1.93,0-.14,0-.29.07-.43.17-1.14.36-2.28.56-3.42a.08.08,0,0,0,0,0l.36-1.91c.12-.63.25-1.27.38-1.9,6.16-29.58,22.14-52.6,47.81-68.44,31.58-19.49,66.42-29.36,103.27-30.26,35.5-.86,63.72,14.17,83.54,44.13,13.22,20,20.85,42.21,27.53,66.37l.28-.09C1526.16,936.56,1518.5,914,1505.1,893.75Zm-10.95,228c-.32,13.09-7.18,23.34-18.13,30.58-8.76,5.8-18.66,8.55-28.84,10.64-18.38,3.78-34-1.65-45.71-15.69-7.39-8.83-14.17-18.75-18.77-29.26-18.08-41.28-32.38-84-37.59-128.89a112.44,112.44,0,0,1-.8-12.52,111.58,111.58,0,0,0,.8,13.6c5.21,44.9,19.51,87.61,37.59,128.9,4.6,10.5,11.38,20.42,18.77,29.26,11.75,14,27.33,19.46,45.71,15.69,10.18-2.1,20.08-4.85,28.84-10.64,11-7.25,17.81-17.49,18.13-30.58,0-.69,0-1.38,0-2.07C1494.17,1121.13,1494.16,1121.46,1494.15,1121.78Zm-357.53,248.51-100.47,30.83v1.08l100.47-30.83c65.12,108.36,130.17,216.59,196.13,326.33l.55-.17Zm55.56-451.84L1118.56,941l.3,1,73.32-22.49,107.73,352.25.3-.09C1264,1153.28,1228.17,1036.14,1192.18,918.45Zm-102,269.47c0,.24-.09.52-.16.88q47,57.93,95.72,118l.7-.22C1153.7,1266.16,1121.71,1226.76,1090.19,1187.92Zm38,490.28-.08,0c2.07,26.43,4.14,52.82,6.27,80.06l.08,0C1132.32,1731,1130.25,1704.62,1128.18,1678.2ZM1121.72,1112c-1.93-32.34-11-63-28.61-90.41C1076,995,1051,981.9,1019.41,980.76a165.44,165.44,0,0,0-53.22,7.09c-40.82,12.09-81.5,24.67-122.22,37.09a30.37,30.37,0,0,0-4.16,2.1c.09.31.19.62.29.93a26.24,26.24,0,0,1,3.87-2c40.72-12.42,81.4-25,122.22-37.08a165.72,165.72,0,0,1,53.22-7.1c31.55,1.14,56.59,14.28,73.7,40.85,17.64,27.43,26.68,58.08,28.61,90.41.11,1.8.16,3.57.18,5.34C1121.91,1116.33,1121.85,1114.18,1121.72,1112Zm-85.61,293.65v0s0,0,0,0c0,.25,0,.49,0,.73v.83c0-.55,0-1.12,0-1.7A.07.07,0,0,1,1036.11,1405.67Zm-24.6,320.59c-24.66,7.57-48.12,15-71.7,21.94-23.4,6.92-46.51,14.94-70.64,21-8.64-28.38-16.91-55.56-25.33-83.21l-.3.09,25.63,84.2c24.13-6.09,47.24-14.12,70.64-21,23.58-7,47-14.37,71.7-21.93,7.16,20.5,12.9,41.12,19.41,62.62l.3-.09C1024.59,1768,1018.78,1747.07,1011.51,1726.26Zm-28.59-494.85-.3.09,38.24,125.61.3-.09C1008.23,1314.54,995.69,1273.34,982.92,1231.41Zm-39.07,353.28L824,1621.23c-7.88-25.72-15.52-50.67-23.36-76.25l-.3.1L824,1622.31l119.84-36.53c6.39,20.85,12.6,41.11,19.18,62.56l.3-.09Zm-20.59-148.16-216.11,66.1.3,1,215.81-66L942.47,1500l.3-.1ZM890,1327.64l-142.51,43.44c-8.67-28.44-17-55.68-25.5-83.64l-.3.09c8.63,28.31,17,55.85,25.8,84.63L890,1328.72l19.2,62.63.31-.09Zm-68-141.53-119.86,36.52c-7.92-26-15.52-50.92-23.29-76.41l-.3.09,23.59,77.41,119.86-36.52,19.22,62.56.31-.09Zm-20.51-148.17L585.28,1104l.3,1,215.84-66c6.5,21.17,12.71,41.42,19.21,62.61l.3-.09C814.32,1080,808,1059.44,801.42,1037.94Zm-37.57,764.12-130.24,39.68c-29.92-97-58.91-193.19-88.73-289.52l-73.52,22.5.3,1,73.22-22.4c29.82,96.33,58.81,192.54,88.73,289.51l130.24-39.68c6.38,20.83,12.6,41.06,19.2,62.6l.31-.09C776.64,1843.75,770.33,1823.2,763.85,1802.06Zm-224-684.18L431.1,1151.22l0,1.08L539.87,1119c36.13,117.28,71.62,234.17,107.8,352.26l.31-.09C611.69,1352.71,576.1,1235.48,539.87,1117.88Zm-28.15,314.94c-.58-26-1-51.94-2-77.88-.11-2.77-.21-5.53-.3-8.3-.06-1.77-.12-3.54-.17-5.31l-.09-3.21q-.09-3.09-.15-6.18c-.05-1.83-.08-3.66-.11-5.5,0,1.54,0,3.09.07,4.63,0,1.7.07,3.39.11,5.09q.09,3.57.2,7.14c0,1.59.09,3.19.15,4.78.09,2.65.18,5.29.29,7.94,1,26,1.45,51.92,2,77.88.57,25.62,1,51.25,1.56,78.38h0C512.76,1484.74,512.3,1458.78,511.72,1432.82ZM437,1391.37l-2.19.62Q370.08,1291.07,305,1189.7l-108.41,33.22.3,1L305,1190.78l129.83,202.3,2.22-.64Zm-73.55,114q-25.12-79.87-50.4-159.7h-.35q25.39,80.38,50.75,160.78c4.87,15.48,9.47,31,14.4,47.25l.3-.09C373.15,1537.09,368.46,1521.21,363.49,1505.41ZM87.42,1647.31c.43,1.25.92,2.49,1.44,3.68.18.41.32.74.44,1C89,1651.11,88.31,1649.54,87.42,1647.31Zm-2-8.74c-2.11-24.84-3.87-49.7-5.83-75.6l-.08,0c2,26.28,3.77,51.49,5.91,76.67a31.23,31.23,0,0,0,.73,4.43c.47,1.19.89,2.27,1.28,3.22A35.48,35.48,0,0,1,85.41,1638.57Z"/><path class="cls-3" d="M1802.85,164.52C1391.08-77.62,870-51.62,483.42,236.89q-291,217.2-414.15,559.46C13.13,953.16-8.29,1115,2.85,1282.1l.91-.27L88,1256.25c65.48,109,130.51,217.19,196,326.21l.55.92-78.62,24-40.5-70.65L79.58,1563c2,25.9,3.72,50.76,5.83,75.6a35.48,35.48,0,0,0,2,8.74c.89,2.23,1.53,3.8,1.88,4.68-.12-.26-.26-.59-.44-1-.52-1.19-1-2.43-1.44-3.68-.39-1-.81-2-1.28-3.22a47,47,0,0,0,2.72,8c8.87,20.45,17.49,41,27.11,61.15q120.25,251.16,338.24,424.55c179.1,141.79,382.94,224.53,609.62,251.08a1144.38,1144.38,0,0,0,164.54,7.08A1224.56,1224.56,0,0,0,1409,2377.7a1178.52,1178.52,0,0,0,321.2-105.9q207.29-103.2,361.68-275.87a1179.27,1179.27,0,0,0,178.72-264c54.6-109.94,91-225.67,110.48-346.8,1.06-6.63,1.75-13.32,2.61-20a183,183,0,0,1-49.85,32.21c-24.25,10.66-49.54,17.83-76,19.46-40.47,2.49-72.92-12.12-95.16-46.94a175.62,175.62,0,0,1-19.63-43.57,58.27,58.27,0,0,1-1.22-6.9l.16,0c0-.34-.1-.69-.16-1l72.34-22.07c1.45,3.78,2.35,7,3.85,9.86,4,7.65,7.42,15.75,12.48,22.63,10.86,14.79,26.09,20.29,44,16.92a98.56,98.56,0,0,0,23.79-7.2c7.39-3.47,14.76-8,20.48-13.78,7.55-7.58,10.76-16.13,10.86-25.32a56,56,0,0,0-3.24-17.16c-5.24-15.44-15.25-24.22-31.38-27-14.11-2.41-27.92-.54-41.73,1.51-25.08,3.72-50.11,7.12-75.5,3-28.1-4.55-50-18.36-62.82-44.08a178.78,178.78,0,0,1-14.36-39.22,123.1,123.1,0,0,1-3.3-28.11c-.17-31.57,13.68-58.36,41.85-79.7a140.76,140.76,0,0,1,18.49-11.83,219.71,219.71,0,0,1,83.62-24.84c42.63-4,75.42,11.48,97.51,48.56,8.58,14.4,14.57,29.89,19.26,45.91.71,2.41,1.1,4.9,1.74,7.8l-.22.07c.07.33.14.67.22,1l-72.55,22.15c-1.4-3.74-2.4-6.88-3.74-9.87-3.12-7-5.85-14.2-9.71-20.76-12.42-21.11-28.56-28.07-52.2-22.72a107.62,107.62,0,0,0-18,5.8c-16.66,7-28.53,19.54-28.75,37.37a55.06,55.06,0,0,0,4.91,21c5.84,13.59,15.92,21.5,30.44,22.26a183.42,183.42,0,0,0,34.83-1.25c24.12-3.38,48.14-6.11,72.6-4.54,43.42,2.79,61.35,22.55,76.86,51.67l0,.08C2410.16,870.72,2239.5,421.3,1802.85,164.52ZM1589.94,804c0-1.84,0-3.72.06-5.69,0-.43,0-.87,0-1.31v-1.09l100.4-30.71L1887,1092.34l-.55.17.55.92-78.57,24.09c-13.31-23.23-26.65-46.49-40.52-70.68L1682,1073c2.07,26.52,4.13,52.89,6.25,80.08l-.08,0c0,.35,0,.7.08,1l-78.42,24.08c-.49-3.42-1.12-6.19-1.26-9-1.66-33.57-3.15-67.15-4.86-100.72q-3.93-77.26-8.08-154.52c-1.81-34.23-3.74-68.45-5.54-102.67-.1-1.95-.12-3.9-.12-5.9C1589.94,805,1589.94,804.47,1589.94,804ZM1267.36,980a156.41,156.41,0,0,1,2.36-27.69c.23-1.32.49-2.63.76-3.94,6.16-29.58,22.14-52.6,47.81-68.44,31.58-19.49,66.42-29.37,103.27-30.26,35.5-.87,63.72,14.16,83.54,44.13,13.4,20.25,21.06,42.81,27.81,67.36l-.28.09c.1.33.19.66.28,1l-73.05,22.35c-1.93-5.23-3.29-10-5.38-14.36-5-10.47-9.38-21.43-15.77-31-10.62-15.94-26-22.2-45.12-17.58-1.29.31-2.63.43-3.92.77-29.62,7.81-45.19,23.41-45.36,54.29a112.44,112.44,0,0,0,.8,12.52c5.21,44.9,19.51,87.61,37.59,128.89,4.6,10.51,11.38,20.43,18.77,29.26,11.75,14,27.33,19.47,45.71,15.69,10.18-2.09,20.08-4.84,28.84-10.64,11-7.24,17.81-17.49,18.13-30.58,0-.32,0-.65,0-1V1120c-.06-9.94-1.65-19.9-2.56-29.85a69.42,69.42,0,0,0-1.55-7.33l.23-.07c-.08-.33-.15-.66-.23-1l71.14-21.72c1.34.92,2.2,1.18,2.35,1.66.62,1.89,1.21,3.79,1.79,5.69.27.88.53,1.75.79,2.63l.12.44c.3,1,.58,2,.85,3,.18.64.36,1.28.53,1.93.31,1.14.61,2.29.9,3.43s.57,2.3.84,3.45.52,2.3.77,3.45.49,2.3.71,3.46.44,2.3.64,3.47.39,2.31.57,3.47.34,2.32.49,3.48.29,2.33.41,3.49.23,2.33.33,3.5c0,.59.09,1.17.13,1.76.08,1.17.14,2.34.19,3.51.07,1.76.11,3.53.11,5.3v.33a117.79,117.79,0,0,1-1.71,20.88c-4.51,26.06-18.39,46.11-39.84,61-24.76,17.22-52.67,26.71-82,32.45a131.44,131.44,0,0,1-46.71.93c-25.37-4.18-45.87-17.16-62.58-36.41s-28.39-41.08-37.4-64.5c-15.45-40.13-28.63-81-34.24-123.81a208.91,208.91,0,0,1-1.87-27.79Zm32.85,291.75-.3.09.3,1-73.6,22.66c-35.95-117.57-71.78-234.71-108-353.32l.3-.09-.3-1,73.62-22.58C1228.17,1036.14,1264,1153.28,1300.21,1271.7Zm-113.76,35.91L1107,1332l-87.2-111.83-36.88,11.27c12.77,41.93,25.31,83.13,38.24,125.61l-.3.09.3,1-73.54,22.59c-36.08-118-71.9-235.15-107.81-352.58l.29-.15c-.1-.31-.2-.62-.29-.93a30.37,30.37,0,0,1,4.16-2.1c40.72-12.42,81.4-25,122.22-37.09a165.44,165.44,0,0,1,53.22-7.09c31.55,1.14,56.59,14.27,73.7,40.85,17.64,27.43,26.68,58.07,28.61,90.41.13,2.16.19,4.31.18,6.42.18,25-9.1,47-28.06,64.68-1.21,1.13-2.29,2.4-3.38,3.64-.13.16-.15.42-.27,1.15h0c31.52,38.84,63.51,78.24,96.26,118.61l-.7.22Zm-277,84.74L693.3,1458.44c-36.1-118.09-71.93-235.3-108-353.34l.3-.09-.3-1,216.14-66.08c6.6,21.5,12.9,42,19.51,63.61l-.3.09.3,1-142.15,43.59c7.77,25.49,15.37,50.44,23.29,76.41l119.86-36.52,19.53,63.56-.31.09.31,1L722,1287.44c8.53,28,16.83,55.2,25.5,83.64L890,1327.64l19.51,63.62-.31.09ZM782.59,608.93q54.31,118.43,108.12,235.73l2.13-.57c-9.66-86.33-19.31-172.65-29.07-259.93l91.28-27.94c40.75,77.89,81.12,155.08,121.5,232.27l2-.61c-14.09-85.2-28.18-170.4-42.4-256.42l76.91-23.55c16.67,124.37,33.21,247.75,49.88,372.16L1068.46,909,938.17,661.13l-2.26.61c10.17,92.54,20.34,185.07,30.59,278.4l-94,28.74c-55.6-112.12-110.86-223.56-166.79-336.37Zm-103,32.36c6.29,20.33,12.62,40.82,19.39,62.7-47.41,15.29-94.9,28.71-142.47,44.1,8,25.94,15.61,50.91,23.62,77L700,788.67c6.51,21.36,12.85,42.17,19.4,63.69L599.83,889c8.23,28.43,16.83,56.14,25.83,84.58l142.39-43.46c6.54,21.51,12.79,42,19.4,63.77L571.22,1060q-54-176.71-107.48-351.57C470.61,703.91,660.91,644.78,679.58,641.29ZM167.42,797c20.66-6.36,41.43-12.37,62-19.11,6.08-2,9.56-.55,13.79,3.8Q321.89,862.6,401,943.17c4.07,4.16,8.21,8.26,12.32,12.38l.93-.93c-22-70.34-44.07-140.68-66.51-212.33,23.47-8.23,46.73-14.32,70.41-22,36.07,118,71.82,234.91,107.78,352.54-3.17,1.35-5.44,2.56-7.86,3.32-20.32,6.35-40.73,12.44-61,19-6.17,2-10.15.94-14.8-3.82q-80.64-82.53-161.73-164.65c-2.76-2.81-5.27-5.88-9-8.15,5.4,24.05,14.49,46.6,21.53,69.78q10.88,35.8,21.89,71.57c7.21,23.48,14.46,46.94,22.06,71.63l-69.7,21.34c-36.12-118.14-71.86-235.06-107.79-352.6C162.74,798.93,165,797.73,167.42,797ZM439,1536.25c-2.07-3-4.16-5.87-6.07-8.85q-55.14-86.28-110.25-172.55c-2-3.09-4.08-6.07-6.13-9.11l-3.47,0q25.21,79.86,50.4,159.7c5,15.8,9.66,31.68,14.7,48.24l-.3.09.3,1-73.46,22.52c-36.19-117.49-71.82-234.77-108.12-353.25l.3-.09-.3-1L305,1189.7Q370.23,1291.28,434.85,1392l2.19-.62c-2-79.31-3.94-158.62-5.94-239.06h0l0-1.08,108.77-33.34c36.23,117.6,71.82,234.83,108.11,353.25l-.31.09c.11.33.21.67.31,1l-73.57,22.57c-21.86-72.3-44.95-143.28-65.26-215.34-.07,2.46-.14,4.93-.19,7.39,0,.55,0,1.11,0,1.67,0,1.71-.07,3.43-.09,5.14,0,.7,0,1.4,0,2.1,0,1.93,0,3.86-.05,5.79q0,6.09,0,12.16c0,3.53,0,7,.1,10.58,0,.72,0,1.44,0,2.16,0,1.84.06,3.67.11,5.5q.06,3.09.15,6.18l.09,3.21c0,1.77.11,3.54.17,5.31.09,2.77.19,5.53.3,8.3,1,25.94,1.45,51.92,2,77.88s1,51.92,1.58,79.45h0c0,.35,0,.71,0,1.07Zm344.35,330.49-204,62.39c-36-117.84-71.85-235-108-353.33l.3-.09-.3-1,73.52-22.5c29.82,96.33,58.81,192.54,88.73,289.52l130.24-39.68c6.48,21.14,12.79,41.69,19.51,63.59l-.31.09ZM1031.22,1791l-216.06,66.1c-36.14-118.23-71.89-235.19-108-353.34l.3-.09-.3-1,216.11-66.1,19.51,63.4-.3.1.3,1c-47.14,15.26-94.49,28.7-142.12,44,7.84,25.58,15.48,50.53,23.36,76.25l119.84-36.54,19.48,63.56-.3.09.3,1L843.84,1686c8.42,27.65,16.69,54.83,25.33,83.21,24.13-6.1,47.24-14.12,70.64-21,23.58-7,47-14.37,71.7-21.94,7.27,20.81,13.08,41.76,19.71,63.62l-.3.09Zm302.08-92.35-78.57,24L1214.16,1652l-86,26.22c2.07,26.42,4.14,52.82,6.27,80.06l-.08,0c0,.35.05.71.08,1.06l-78.52,24.1c-.47-3.81-1.06-6.94-1.22-10.08q-3.46-69.3-6.84-138.59-2.89-57.33-6-114.64-2.82-52.83-5.71-105.65c-.08-1.53-.1-3.06-.09-4.69v-.52c0-.38,0-.77,0-1.17s0-1.07,0-1.62c0-.24,0-.48,0-.73,0,0,0,0,0,0v0a.07.07,0,0,0,0-.05v-.27c0-.34,0-.69,0-1s0-.58,0-.88,0-.8,0-1.22v-1.08l100.47-30.83,196.68,327.24-.55.17C1332.94,1698,1333.12,1698.31,1333.3,1698.61Zm249.44-137.71c-5.72,25.5-19.26,45.75-39.81,61.55-19,14.61-40.56,24.15-63.23,31.25-36.18,11.33-72.47,22.34-108.73,33.45-1.85.57-3.8.82-6.55,1.39L1257,1337.11c.09-.07.19-.13.27-.2l-.27-.88c1.47-1.06,2.41-2.17,3.58-2.52,42-12.67,84-25.69,126.19-37.7a157,157,0,0,1,67.32-4.22c27.64,4.27,49.54,18.52,67,40.05,14.18,17.54,24.45,37.34,32.39,58.26,12.77,33.63,23.68,67.88,29.64,103.46a209.12,209.12,0,0,1,3.09,33.38c0,.53,0,1.06,0,1.59A145.45,145.45,0,0,1,1582.74,1560.9Zm289-27.07c-71.78,22.4-143.54,43.92-216.17,66.3l-108-353.36.3-.09-.3-1,216.13-66.09c6.54,21.31,12.84,41.81,19.53,63.59l-.31.09.31,1-142.14,43.63c7.88,25.8,15.49,50.76,23.31,76.37l119.87-36.49,19.51,63.51-.3.09.3,1-119.55,36.75c8.58,28.08,16.9,55.32,25.55,83.61l142.48-43.44c6.48,21.06,12.79,41.56,19.53,63.44l-.31.1C1871.56,1533.17,1871.66,1533.5,1871.76,1533.83Zm282-87.18-.7.22.7.86-79.41,24.39-87.23-111.84-36.91,11.26,38.3,125.61-.3.09.3,1-73.57,22.57c-36.05-117.9-71.87-235-107.86-352.72l.3-.11-.3-1c3-1.14,5-2.08,7.1-2.72,42.35-12.78,84.6-25.88,127.1-38.12a134.74,134.74,0,0,1,57.33-4.19c28.28,4.18,49.42,18.91,64,43.06,14,23.11,21.23,48.64,25.47,75.13a97.14,97.14,0,0,1,1.23,16.09,100.89,100.89,0,0,1-2,20.75,83.25,83.25,0,0,1-23.25,43.37c-2.18,2.17-5,3.72-8,5.84C2089.22,1367.17,2121.05,1406.38,2153.72,1446.65Zm-49.59-419.37c-4.42,1.39-6.8-.73-9.47-3.47q-22.34-22.86-44.81-45.61Q1990,917.27,1930.09,856.35a22.17,22.17,0,0,0-8.61-5.82c11.33,35.23,22.86,70.4,33.91,105.71s21.52,70.49,32.45,106.39l-69.49,21.28L1810.51,731.24c2.74-1.12,5-2.3,7.47-3,20.67-6.34,41.45-12.33,62-19.07,6.06-2,9.76-.71,14,3.61Q1974.16,795,2054.61,877c3.23,3.32,6.07,7,9.09,10.55l2.2-1.45c-11.3-35.08-22.81-70.09-33.83-105.26-11.12-35.51-21.76-71.18-33-107.94l69.94-21.5c36,117.78,71.84,235,108,353.29C2151.7,1012.54,2127.88,1019.79,2104.13,1027.28Z"/><path class="cls-3" d="M1036.09,1408.11c0-.26,0-.52,0-.79v-.83C1036.1,1407,1036.09,1407.58,1036.09,1408.11Z"/><path class="cls-3" d="M131.2,1477.46l-56.09,17.29c-.73-2.53-1.73-4.61-1.89-6.75-2.33-30.18-4.63-60.38-6.73-90.58-.17-2.43-.31-4.86-.44-7.29l-.18-3.52c-.06-1.17-.12-2.35-.17-3.52-.11-2.35-.2-4.69-.3-7-.07-1.82-.15-3.64-.22-5.46-.12-2.88-.23-5.75-.37-8.63l.27.29.07.07c.27.29.55.57.83.86.45.46.9.92,1.31,1.4.14.16.27.32.4.49a7.79,7.79,0,0,1,.7,1q29.91,52.49,59.66,105.05C129,1472.86,129.82,1474.68,131.2,1477.46Z"/><path class="cls-4" d="M64.81,1361.94l-.08-.08-.06-.07.13-.15C64.8,1361.74,64.81,1361.84,64.81,1361.94Z"/><path class="cls-4" d="M64.8,1361.64l-.13.15h0l-.75-.43Z"/><path class="cls-2" d="M508.74,1301.54q0,6.09,0,12.16c0,3.53,0,7,.1,10.58,0,.72,0,1.44,0,2.16,0,1.54,0,3.09.07,4.63,0,1.7.07,3.39.11,5.09q.09,3.57.2,7.14c0,1.59.09,3.19.15,4.78.09,2.65.18,5.29.29,7.94,1,26,1.45,51.92,2,77.88.57,25.62,1,51.25,1.56,78.38-24.12,7.42-48.74,15-74.27,22.88-2.07-3-4.16-5.87-6.07-8.85Q377.8,1440,322.69,1353.76c-2-3.08-4.08-6.07-6.13-9.1h-.39c-1.13-3-2.75-5.67-6.76-6.64l3.33,7.69q25.39,80.38,50.75,160.78c4.87,15.48,9.47,31,14.4,47.25l-73.16,22.43c-36.09-117.16-71.62-234.12-107.82-352.26L305,1190.78l129.83,202.3,2.22-.64,0-1.07h0c-2-79.31-3.94-158.63-5.94-239.06L539.87,1119c36.13,117.28,71.62,234.17,107.8,352.26l-73.26,22.48c-21.86-72.29-44.95-143.27-65.26-215.34q-.27,8.7-.36,17.39C508.77,1297.68,508.75,1299.61,508.74,1301.54Z"/><path class="cls-1" d="M377.89,1553.74l.3,1-73.46,22.52c-36.19-117.49-71.82-234.77-108.12-353.25l.3-.09c36.2,118.14,71.73,235.1,107.82,352.26Z"/><path class="cls-1" d="M437,1391.37c-2-79.31-3.94-158.62-5.94-239.06h0c2,80.43,4,159.75,5.94,239.06Z"/><path class="cls-1" d="M513.28,1512.28c0,.35,0,.71,0,1.07L439,1536.25c-2.07-3-4.16-5.87-6.07-8.85q-55.14-86.28-110.25-172.55c-2-3.09-4.08-6.07-6.13-9.11-.13-.37-.25-.73-.39-1.08h.39c2.05,3,4.16,6,6.13,9.1q55.14,86.27,110.25,172.55c1.91,3,4,5.84,6.07,8.85C464.54,1527.29,489.16,1519.7,513.28,1512.28Z"/><path class="cls-1" d="M648,1472.22l-73.57,22.57c-21.86-72.3-44.95-143.28-65.26-215.34-.07,2.46-.14,4.93-.19,7.39,0,.55,0,1.11,0,1.67,0,1.71-.07,3.43-.09,5.14,0,.7,0,1.4,0,2.1q.09-8.68.36-17.39c20.31,72.07,43.4,143.05,65.26,215.34l73.26-22.48C647.78,1471.55,647.88,1471.89,648,1472.22Z"/><path class="cls-5" d="M938.17,661.13l-2.26.61c10.17,92.54,20.34,185.07,30.59,278.4l-94,28.74c-55.6-112.12-110.86-223.56-166.79-336.37l76.86-23.58q54.31,118.43,108.12,235.73l2.13-.57c-9.66-86.33-19.31-172.65-29.07-259.93l91.28-27.94c40.75,77.89,81.12,155.08,121.5,232.27l2-.61c-14.09-85.2-28.18-170.4-42.4-256.42l76.91-23.55c16.67,124.37,33.21,247.75,49.88,372.16L1068.46,909Z"/><path class="cls-5" d="M525.9,1072.83c-3.17,1.35-5.44,2.56-7.86,3.32-20.32,6.35-40.73,12.44-61,19-6.17,2-10.15.94-14.8-3.82q-80.64-82.53-161.73-164.65c-2.76-2.81-5.27-5.88-9-8.15,5.4,24.05,14.49,46.6,21.53,69.78q10.88,35.8,21.89,71.57c7.21,23.48,14.46,46.94,22.06,71.63l-69.7,21.34c-36.12-118.14-71.86-235.06-107.79-352.6,3.19-1.35,5.46-2.55,7.87-3.3,20.66-6.36,41.43-12.37,62-19.11,6.08-2,9.56-.55,13.79,3.8Q321.89,862.6,401,943.17c4.07,4.16,8.21,8.26,12.32,12.38l.93-.93c-22-70.34-44.07-140.68-66.51-212.33,23.47-8.23,46.73-14.32,70.41-22C454.19,838.26,489.94,955.2,525.9,1072.83Z"/><path class="cls-2" d="M2177.07,1004.73c-25.37,7.81-49.19,15.06-72.94,22.55-4.42,1.39-6.8-.73-9.47-3.47q-22.34-22.86-44.81-45.61Q1990,917.27,1930.09,856.35a22.17,22.17,0,0,0-8.61-5.82c11.33,35.23,22.86,70.4,33.91,105.71s21.52,70.49,32.45,106.39l-69.49,21.28L1810.51,731.24c2.74-1.12,5-2.3,7.47-3,20.67-6.34,41.45-12.33,62-19.07,6.06-2,9.76-.71,14,3.61Q1974.16,795,2054.61,877c3.23,3.32,6.07,7,9.09,10.55l2.2-1.45c-11.3-35.08-22.81-70.09-33.83-105.26-11.12-35.51-21.76-71.18-33-107.94l69.94-21.5C2105.06,769.22,2140.89,886.41,2177.07,1004.73Z"/><path class="cls-1" d="M1582.74,1559.81c-5.72,25.5-19.26,45.75-39.81,61.55-19,14.61-40.56,24.15-63.23,31.25-36.18,11.34-72.47,22.34-108.73,33.46-1.85.56-3.8.81-6.55,1.39l-107.18-350.55c-.08.07-.18.13-.27.2l107.45,351.43c2.75-.57,4.7-.82,6.55-1.39,36.26-11.11,72.55-22.12,108.73-33.45,22.67-7.1,44.23-16.64,63.23-31.25,20.55-15.8,34.09-36,39.81-61.55a145.45,145.45,0,0,0,3.41-32.57A144.84,144.84,0,0,1,1582.74,1559.81Z"/><path class="cls-2" d="M1586.14,1526.74a212.32,212.32,0,0,0-3.09-32.3c-6-35.58-16.87-69.82-29.64-103.45-7.94-20.93-18.21-40.73-32.39-58.26-17.42-21.54-39.32-35.79-67-40a157,157,0,0,0-67.32,4.21c-42.22,12-84.15,25-126.19,37.7-1.1.34-2,1.33-3.31,2.32l107.18,350.55c2.75-.58,4.7-.83,6.55-1.39,36.26-11.12,72.55-22.12,108.73-33.46,22.67-7.1,44.23-16.64,63.23-31.25,20.55-15.8,34.09-36,39.81-61.55a144.84,144.84,0,0,0,3.41-31.48C1586.15,1527.8,1586.14,1527.27,1586.14,1526.74Zm-80.36,11.33c-1,13.31-6.94,24.89-16.8,34.17a69.61,69.61,0,0,1-8.46,7c-18.52,12.58-40.13,16.76-61.84,23.39-23.07-75.45-45.88-150-69.27-226.51,18.74-4.75,35.9-10.16,53.46-13.29,22.61-4,42,3.17,57,21,8.69,10.31,15,22,19.85,34.45,10.84,27.93,20.36,56.35,25,86A148.45,148.45,0,0,1,1505.78,1538.07Z"/><path class="cls-1" d="M1185.75,1306.75,1107,1330.89l-87.2-111.83-37.18,11.35.3,1,36.88-11.27L1107,1332l79.45-24.36Zm-95.29-120c1.09-1.24,2.17-2.51,3.38-3.64,19-17.71,28.24-39.66,28.06-64.68-.09,24.57-9.37,46.14-28.06,63.6a48.53,48.53,0,0,0-3.38,3.64c-.18.2-.14.61-.43,2,0,.06.1.13.16.19C1090.31,1187.18,1090.33,1186.92,1090.46,1186.76ZM947.62,1379.61C911.64,1262,875.91,1145.08,840.1,1028l-.29.15c35.91,117.43,71.73,234.6,107.81,352.58l73.54-22.59-.3-1Z"/><path class="cls-2" d="M1107,1330.89l78.75-24.14q-48.84-60.2-95.72-118c.07-.36.12-.64.16-.88h0c-.06-.06-.11-.13-.16-.19.29-1.43.25-1.84.43-2a48.53,48.53,0,0,1,3.38-3.64c18.69-17.46,28-39,28.06-63.6,0-1.77-.07-3.54-.18-5.34-1.93-32.33-11-63-28.61-90.41C1076,996.12,1051,983,1019.41,981.84a165.72,165.72,0,0,0-53.22,7.1C925.37,1001,884.69,1013.6,844,1026a26.24,26.24,0,0,0-3.87,2c35.81,117.11,71.54,234,107.52,351.64l73.24-22.5L982.62,1231.5l.3-.09-.3-1,37.18-11.35Zm-143.9-163-30.5-99.56c18.95-5.49,37.16-11.92,55.89-15.88,19.36-4.11,34.57,4.34,43.66,22,6.28,12.22,10.32,25.18,10.34,39.15,0,14.54-6.29,25.55-18.45,33.25a43.85,43.85,0,0,1-9.78,4.89C997.55,1157.17,980.76,1162.33,963.1,1167.86Z"/><path class="cls-1" d="M2153,1446.87c-26.54,8.14-52,16-78.71,24.17l-87.23-111.84-37.21,11.35.3,1,36.91-11.26,87.23,111.84,79.41-24.39Zm-89-126.49a83.25,83.25,0,0,0,23.25-43.37,100.89,100.89,0,0,0,2-20.75,100.56,100.56,0,0,1-2,19.67,83.22,83.22,0,0,1-23.25,43.36c-2.32,2.3-5.33,3.91-8.57,6.23l.56.7C2059,1324.1,2061.81,1322.55,2064,1320.38ZM1914.9,1519.73c-36-117.59-71.67-234.41-107.56-351.75l-.3.11c36,117.68,71.81,234.82,107.86,352.72l73.57-22.57-.3-1Z"/><path class="cls-2" d="M2074.31,1471c26.73-8.22,52.17-16,78.71-24.17-32.61-40.2-64.4-79.36-97.6-120.26l.56-.39-.56-.7c3.24-2.32,6.25-3.93,8.57-6.23a83.22,83.22,0,0,0,23.25-43.36,100.56,100.56,0,0,0,2-19.67,97.47,97.47,0,0,0-1.23-15c-4.24-26.5-11.5-52-25.47-75.14-14.58-24.14-35.72-38.88-64-43a134.58,134.58,0,0,0-57.33,4.19c-42.5,12.23-84.75,25.33-127.1,38.11-2.05.62-4,1.52-6.8,2.61,35.89,117.34,71.61,234.16,107.56,351.75l73.27-22.49-38.3-125.61.3-.09-.3-1,37.21-11.35ZM1930.4,1308.12l-30.5-99.72c19.1-5.52,37.33-11.9,56.07-15.89,17.08-3.63,31.64,2.67,41.06,18a84.58,84.58,0,0,1,12.77,42.46c.41,14.88-6.07,26.26-18.63,34.16a33.46,33.46,0,0,1-7,3.72C1966.54,1296.59,1948.9,1302.19,1930.4,1308.12Z"/><path class="cls-1" d="M1886.49,1092.51l-78,23.92L1768,1045.75,1681.88,1072c0,.35.06.71.08,1.06l86-26.19c13.87,24.19,27.21,47.45,40.52,70.68l78.57-24.09Zm-276.7,84.67c-.49-3.42-1.12-6.18-1.26-9-1.66-33.57-3.15-67.15-4.86-100.72q-3.93-77.26-8.08-154.52c-1.81-34.22-3.74-68.44-5.54-102.67-.08-1.59-.12-3.19-.12-4.81,0,2,0,4,.12,5.9,1.8,34.22,3.73,68.44,5.54,102.67q4.1,77.25,8.08,154.52c1.71,33.57,3.2,67.15,4.86,100.72.14,2.78.77,5.55,1.26,9l78.42-24.08c0-.35,0-.7-.08-1Z"/><path class="cls-2" d="M1690.41,766.25,1590,797c0,.44,0,.88,0,1.31,0,2,0,3.85-.06,5.69,0,.51,0,1,0,1.53,0,1.62,0,3.22.12,4.81,1.8,34.23,3.73,68.45,5.54,102.67q4.1,77.26,8.08,154.52c1.71,33.57,3.2,67.15,4.86,100.72.14,2.79.77,5.55,1.26,9l78.34-24c-2.12-27.18-4.18-53.54-6.25-80.08l.08,0c0-.35,0-.71-.08-1.06l86.07-26.22,40.52,70.68,78-23.92C1820.56,982.79,1755.5,874.55,1690.41,766.25Zm-14,238.79c-3.54-45.15-7-89-10.46-133.32,5.59,4.64,54.66,89.1,67.47,116Z"/><path class="cls-1" d="M1332.75,1697.7l-78,23.85-40.57-70.66-86.06,26.26c0,.35.05.7.08,1l86-26.22,40.57,70.65,78.57-24C1333.12,1698.31,1332.94,1698,1332.75,1697.7Zm-276.82,84.66c-.47-3.81-1.06-6.93-1.22-10.08q-3.46-69.29-6.84-138.59-2.89-57.32-6-114.63-2.82-52.83-5.71-105.66c-.06-1.18-.09-2.37-.09-3.6,0,1.63,0,3.16.09,4.69q2.8,52.83,5.71,105.65,3,57.31,6,114.64,3.5,69.29,6.84,138.59c.16,3.14.75,6.27,1.22,10.08l78.52-24.1c0-.35-.06-.71-.08-1.06Z"/><path class="cls-2" d="M1136.62,1371.37l-100.47,30.83c0,.42,0,.82,0,1.22s0,.59,0,.88,0,.71,0,1v.27c0,.58,0,1.15,0,1.7,0,.27,0,.53,0,.79s0,.79,0,1.17v.52c0,1.23,0,2.42.09,3.6q2.8,52.83,5.71,105.66,3,57.32,6,114.63,3.5,69.3,6.84,138.59c.16,3.15.75,6.27,1.22,10.08l78.44-24.07c-2.13-27.24-4.2-53.63-6.27-80.06l.08,0c0-.35,0-.7-.08-1l86.06-26.26,40.57,70.66,78-23.85C1266.79,1588,1201.74,1479.73,1136.62,1371.37Zm-14,238.82c-3.52-45-7-88.91-10.43-133.28,5.58,4.88,60.64,100.31,67,116.09Z"/><path class="cls-5" d="M787.45,993.9,571.22,1060q-54-176.71-107.48-351.57c6.87-4.55,197.17-63.68,215.84-67.17,6.29,20.33,12.62,40.82,19.39,62.7-47.41,15.29-94.9,28.71-142.47,44.1,8,25.94,15.61,50.91,23.62,77L700,788.67c6.51,21.36,12.85,42.17,19.4,63.69L599.83,889c8.23,28.43,16.83,56.14,25.83,84.58l142.39-43.46C774.59,951.64,780.84,972.18,787.45,993.9Z"/><path class="cls-2" d="M1573.72,1117.18v.33a117.18,117.18,0,0,1-1.71,19.8c-4.51,26.06-18.39,46.11-39.84,61-24.76,17.22-52.67,26.71-82,32.45a131.21,131.21,0,0,1-46.71.92c-25.37-4.17-45.87-17.15-62.58-36.4s-28.39-41.09-37.4-64.51c-15.45-40.12-28.63-81-34.24-123.8a209.84,209.84,0,0,1-1.87-26.71V980c0-.53,0-1.06,0-1.59,0-1.29,0-2.58.1-3.87,0-.1,0-.19,0-.28,0-1.2.11-2.4.18-3.59s.18-2.58.29-3.87q.33-3.87.86-7.72c.09-.65.18-1.29.28-1.93,0-.14,0-.29.07-.43.17-1.14.36-2.28.56-3.42a.08.08,0,0,0,0,0l.36-1.91c.12-.63.25-1.27.38-1.9,6.16-29.58,22.14-52.6,47.81-68.44,31.58-19.49,66.42-29.36,103.27-30.26,35.5-.86,63.72,14.17,83.54,44.13,13.22,20,20.85,42.21,27.53,66.37-24.72,7.55-48.38,14.8-72.77,22.26-1.93-5.23-3.29-10-5.38-14.36-5-10.48-9.38-21.43-15.77-31-10.62-16-26-22.2-45.12-17.58-1.29.31-2.63.43-3.92.77-30,7.89-45.55,23.77-45.36,55.37a111.58,111.58,0,0,0,.8,13.6c5.21,44.9,19.51,87.61,37.59,128.9,4.6,10.5,11.38,20.42,18.77,29.26,11.75,14,27.33,19.46,45.71,15.69,10.18-2.1,20.08-4.85,28.84-10.64,11-7.25,17.81-17.49,18.13-30.58,0-.69,0-1.38,0-2.07V1120c.06-10.29-1.61-20.62-2.56-30.93a49.86,49.86,0,0,0-1.32-6.32l70.91-21.65c1.34.92,2.2,1.18,2.35,1.67q1.64,5.06,3.1,10.12c.5,1.79,1,3.57,1.45,5.36a175.39,175.39,0,0,1,4.88,26c0,.35.07.7.1,1,.12,1.21.22,2.42.31,3.63,0,.52.07,1,.1,1.56s.07,1.15.09,1.73C1573.66,1113.92,1573.7,1115.55,1573.72,1117.18Z"/><path class="cls-1" d="M1490.29,1082.79a49.86,49.86,0,0,1,1.32,6.32c1,10.31,2.62,20.64,2.56,30.93-.06-9.94-1.65-19.9-2.56-29.85a69.42,69.42,0,0,0-1.55-7.33Z"/><path class="cls-1" d="M1344.31,976.64c-.19-31.6,15.39-47.48,45.36-55.37,1.29-.34,2.63-.46,3.92-.77,19.13-4.62,34.5,1.63,45.12,17.58,6.39,9.59,10.77,20.54,15.77,31,2.09,4.39,3.45,9.13,5.38,14.36,24.39-7.46,48.05-14.71,72.77-22.26.1.33.19.66.28,1l-73.05,22.35c-1.93-5.23-3.29-10-5.38-14.36-5-10.47-9.38-21.43-15.77-31-10.62-15.94-26-22.2-45.12-17.58-1.29.31-2.63.43-3.92.77C1360.05,930.16,1344.48,945.76,1344.31,976.64Z"/><path class="cls-1" d="M1573.72,1117.51a117.79,117.79,0,0,1-1.71,20.88c-4.51,26.06-18.39,46.11-39.84,61-24.76,17.22-52.67,26.71-82,32.45a131.44,131.44,0,0,1-46.71.93c-25.37-4.18-45.87-17.16-62.58-36.41s-28.39-41.08-37.4-64.5c-15.45-40.13-28.63-81-34.24-123.81a208.91,208.91,0,0,1-1.87-27.79,209.84,209.84,0,0,0,1.87,26.71c5.61,42.83,18.79,83.68,34.24,123.8,9,23.42,20.82,45.4,37.4,64.51s37.21,32.23,62.58,36.4a131.21,131.21,0,0,0,46.71-.92c29.34-5.74,57.25-15.23,82-32.45,21.45-14.92,35.33-35,39.84-61A117.18,117.18,0,0,0,1573.72,1117.51Z"/><path class="cls-2" d="M1030.92,1790l-215.76,66L707.45,1503.63l215.81-66L942.47,1500c-47.14,15.25-94.49,28.69-142.12,44l.3,1-.3.1L824,1622.31l119.84-36.53c6.39,20.85,12.6,41.11,19.18,62.56L843.54,1685l.3,1-.3.09,25.63,84.2c24.13-6.09,47.24-14.12,70.64-21,23.58-7,47-14.37,71.7-21.93C1018.67,1747.85,1024.41,1768.47,1030.92,1790Z"/><path class="cls-1" d="M800.65,1545l-.3-1c47.63-15.27,95-28.71,142.12-44l.3,1C895.63,1516.27,848.28,1529.71,800.65,1545Z"/><path class="cls-1" d="M843.54,1685,963,1648.34l.3,1L843.84,1686Z"/><path class="cls-1" d="M1031.22,1791l-216.06,66.1c-36.14-118.23-71.89-235.19-108-353.34l.3-.09L815.16,1856l215.76-66Z"/><path class="cls-2" d="M1871.45,1532.84c-71.68,22.36-143.33,43.86-215.86,66.21l-107.75-352.37,215.83-66c6.44,21,12.65,41.18,19.22,62.6l-142.13,43.64.3,1-.3.09c8,26.15,15.69,51.43,23.61,77.37l119.87-36.5c6.44,21,12.65,41.17,19.21,62.52l-119.55,36.74.3,1-.3.09,25.85,84.61,142.48-43.45Z"/><path class="cls-1" d="M1641.06,1287.91l-.3-1,142.13-43.64.31,1Z"/><path class="cls-2" d="M1683.9,1428.13l119.55-36.74.3,1-119.55,36.75Z"/><path class="cls-1" d="M1871.76,1533.83c-71.78,22.4-143.54,43.92-216.17,66.3l-108-353.36.3-.09,107.75,352.37c72.53-22.35,144.18-43.85,215.86-66.21C1871.56,1533.17,1871.66,1533.5,1871.76,1533.83Z"/><path class="cls-2" d="M909.16,1391.35l-215.86,66c-36-117.76-71.73-234.64-107.72-352.35l215.84-66c6.5,21.17,12.71,41.42,19.21,62.61l-142.15,43.59.3,1-.3.09,23.59,77.41,119.86-36.52,19.22,62.56-119.5,36.69.3,1-.3.09c8.63,28.31,17,55.85,25.8,84.63L890,1328.72Z"/><path class="cls-1" d="M678.78,1146.22l-.3-1,142.15-43.59.3,1Z"/><path class="cls-1" d="M721.65,1286.45l119.5-36.69.31,1L722,1287.44Z"/><path class="cls-1" d="M909.47,1392.35,693.3,1458.44c-36.1-118.09-71.93-235.3-108-353.34l.3-.09c36,117.71,71.72,234.59,107.72,352.35l215.86-66Z"/><path class="cls-2" d="M783.05,1865.74l-203.67,62.31c-35.93-117.52-71.65-234.38-107.72-352.34l73.22-22.4c29.82,96.33,58.81,192.54,88.73,289.51l130.24-39.68C770.23,1824,776.45,1844.2,783.05,1865.74Z"/><path class="cls-6" d="M783.36,1866.74l-204,62.39c-36-117.84-71.85-235-108-353.33l.3-.09c36.07,118,71.79,234.82,107.72,352.34l203.67-62.31Z"/><path class="cls-2" d="M1299.91,1271.79l-73.3,22.57C1190.76,1177.11,1155,1060.3,1118.86,942l73.32-22.49Z"/><path class="cls-6" d="M1300.21,1272.78l-73.6,22.66c-35.95-117.57-71.78-234.71-108-353.32l.3-.09c36.17,118.27,71.9,235.08,107.75,352.33l73.3-22.57Z"/><path class="cls-7" d="M316.56,1345.74l-3.47,0h-.35l-3.33-7.69c4,1,5.63,3.63,6.76,6.64C316.31,1345,316.43,1345.37,316.56,1345.74Z"/><path class="cls-3" d="M1505.78,1538.07c-1,13.31-6.94,24.89-16.8,34.17a69.61,69.61,0,0,1-8.46,7c-18.52,12.58-40.13,16.76-61.84,23.39-23.07-75.45-45.88-150-69.27-226.51,18.74-4.75,35.9-10.16,53.46-13.29,22.61-4,42,3.17,57,21,8.69,10.31,15,22,19.85,34.45,10.84,27.93,20.36,56.35,25,86A148.45,148.45,0,0,1,1505.78,1538.07Z"/><path class="cls-3" d="M1042.49,1113.61c0,14.54-6.29,25.55-18.45,33.25a43.85,43.85,0,0,1-9.78,4.89c-16.71,5.42-33.5,10.58-51.16,16.11l-30.5-99.56c18.95-5.49,37.16-11.92,55.89-15.88,19.36-4.11,34.57,4.34,43.66,22C1038.43,1086.68,1042.47,1099.64,1042.49,1113.61Z"/><path class="cls-3" d="M2009.8,1252.94c.41,14.88-6.07,26.26-18.63,34.16a33.46,33.46,0,0,1-7,3.72c-17.59,5.77-35.23,11.37-53.73,17.3l-30.5-99.72c19.1-5.52,37.33-11.9,56.07-15.89,17.08-3.63,31.64,2.67,41.06,18A84.58,84.58,0,0,1,2009.8,1252.94Z"/><path class="cls-3" d="M1733.45,987.69l-57,17.35c-3.54-45.15-7-89-10.46-133.32C1671.57,876.36,1720.64,960.82,1733.45,987.69Z"/><path class="cls-4" d="M1179.28,1593l-56.62,17.19c-3.52-45-7-88.91-10.43-133.28C1117.81,1481.79,1172.87,1577.22,1179.28,1593Z"/></g></g></svg>