<svg xmlns="http://www.w3.org/2000/svg" viewBox="0 0 334.39 113.88"><defs><style>.cls-1{fill:#5c0f8b;}.cls-2{fill:#fff;}</style></defs><title>NYU</title><g id="Layer_2" data-name="Layer 2"><g id="Layer_1-2" data-name="Layer 1"><polygon class="cls-1" points="143.41 24.09 156.54 24.09 186.83 63.92 186.83 24.09 200.88 24.09 200.88 88.78 188.78 88.78 157.45 47.66 157.45 88.78 143.41 88.78 143.41 24.09"/><polygon class="cls-1" points="232.84 63.27 207.99 24.09 224.63 24.09 240.06 50.06 255.77 24.09 271.93 24.09 247.08 63 247.08 88.78 232.84 88.78 232.84 63.27"/><path class="cls-1" d="M278,61.06v-37h14.24V60.69c0,10.54,5.25,16,13.94,16s14-5.27,14-15.52v-37h14.22V60.6c0,19.58-11,29.2-28.37,29.2s-28-9.71-28-28.74"/><rect class="cls-2" x="12.4" y="7.91" width="85.09" height="98.42"/><path class="cls-1" d="M113.88,113.88H0V0H113.88ZM53,100.58a1.22,1.22,0,0,0,2.25,0l4-31.56H49.56ZM62.61,62H46.17v4.79H62.61Zm-4.75-2.33c20.84.75,22.32-18.24,22.4-25.34,0-.42-.2-.46-.3-.16-.62,1.47-3.32,6.77-10.84,10A19.6,19.6,0,0,0,57.68,59.4a.19.19,0,0,0,.18.23m-2.28-1.38c3.3-15.81,16.16-16.2,17.31-19.19,1.8-4.69-1.49-13-2.33-14-.07-.11-.19,0-.24.05a28,28,0,0,1-6.64,9.16c-2.92,2.34-14.09,10.63-8.37,24,.06.17.23.13.27,0m-2.28.64c-7-14.92,7-24.54,9.25-26.63.33-.29.25-.56.25-.9,0-4.69-2.69-12.28-3.57-13.37-.12-.16-.22-.1-.28.08-1.19,4.62-7.55,11.52-8.82,13-10.77,12.82-8.31,20.62,2.94,28,.14.09.32,0,.23-.18m-3.12.51c-11.67-7-10.5-16.91-5.66-24.22a1.13,1.13,0,0,0,.1-.7,27.89,27.89,0,0,0-2.89-7.34c-.21-.3-.38-.28-.39-.06-.08,2-2.33,7-5.8,12.71-3.68,6.11-3.69,19.37,14.59,19.88.17,0,.23-.17,0-.27"/></g></g></svg>