<svg xmlns="http://www.w3.org/2000/svg" viewBox="0 0 614.36 158.32"><defs><style>.cls-1{fill:#068165;}.cls-2{fill:#fff;}</style></defs><title>Rockefeller</title><g id="Layer_2" data-name="Layer 2"><g id="Layer_1-2" data-name="Layer 1"><circle class="cls-1" cx="77.7" cy="79.16" r="77.7"/><path d="M381.66,73.53H380c-1.6,6.1-4.5,7.9-9.2,7.9h-9.9V63h5.3c3.8,0,6.1,1.2,6.7,6.2h1.7v-15h-1.7c-.6,5-2.9,6.2-6.7,6.2h-5.3V42.83h10.2c4.8,0,6.9,2.6,8.1,7.9h1.7l-.3-10.3h-31.7v1.7c4.3.3,4.8.4,4.8,2.7v34.4c0,2.3-.5,2.4-4.8,2.7v1.7H381ZM198.56,65a27.13,27.13,0,0,1,5.4,6.9l3.2,5.3a40.25,40.25,0,0,0,4.5,6.6h10.6v-1.7c-2.2-.3-4.2-.6-6.3-3.7l-5-7.6a18.08,18.08,0,0,0-6.6-6.2c8.6-1.5,11.9-7.1,11.9-12.4,0-6.8-5.3-11.8-14.6-11.8h-18.8v1.7c4.3.3,4.8.4,4.8,2.7v34.4c0,2.3-.5,2.4-4.8,2.7v1.7h16.7v-1.7c-4.3-.3-4.8-.4-4.8-2.7V65Zm-3.7-22.2h5.2c6.8,0,8.8,5.1,8.8,10,0,5.5-2.1,9.6-10.1,9.6H195V42.83Zm92.4,41.6a25.36,25.36,0,0,0,13.2-3.7l.8-8.9h-1.7c-1.2,5-4.1,10-12.3,10-7.9,0-14.1-7-14.1-19.7s6.2-19.7,14.1-19.7c7.4,0,10.9,4.6,12.1,10h1.7l-.6-8.9a25.36,25.36,0,0,0-13.2-3.7c-12.2,0-21.7,9.3-21.7,22.3s9.5,22.3,21.7,22.3m-104.4,10.4v1.7c4.3.3,4.8.4,4.8,2.7v34.4c0,2.3-.5,2.4-4.8,2.7V138h16.7v-1.7c-4.3-.3-4.8-.4-4.8-2.7v-15.1h5.3c3.8,0,6.1,1.2,6.7,6.2h1.7v-15h-1.7c-.6,5-2.9,6.2-6.7,6.2h-5.3V97.13H205c4.8,0,6.9,2.6,8.1,7.9h1.7l-.2-10.2Zm60.2-.7c-11.9,0-21.6,9.3-21.6,22.3s9.7,22.3,21.6,22.3,21.6-9.3,21.6-22.3-9.7-22.3-21.6-22.3m0,42c-8.4,0-14-7.2-14-19.7s5.6-19.7,14-19.7,14,7.2,14,19.7-5.5,19.7-14,19.7m-56.8-124.2h1.8v18.3c0,1.1-.2,1.2-2.4,1.4v.9h8.4v-.9c-2.1-.2-2.4-.2-2.4-1.4V11.93h1.8c2.4,0,3.3,1.3,3.9,4h.9l-.2-5.2h-16.4l-.2,5.2h.9c.6-2.7,1.5-4,3.9-4m134.6,70.2c-4.3-.3-4.8-.4-4.8-2.7V63.53a6.25,6.25,0,0,1,5.4,3l6.3,8.6a66,66,0,0,0,6.9,8.7h11.2v-1.7c-3.4-.4-5.2-2.1-7.3-4.8l-7.4-9.8a42.44,42.44,0,0,0-7.1-7.6l11.6-14.3c1.9-2.4,3.5-2.9,7.4-3.3v-1.7h-15.4v1.7c5.2.3,5.5,2.2,3.7,4.3l-9.1,11.5a7.63,7.63,0,0,1-6.3,3.1V44.93c0-2.3.5-2.4,4.8-2.7v-1.7h-16.7v1.7c4.3.3,4.8.4,4.8,2.7v34.4c0,2.3-.5,2.4-4.8,2.7v1.7h16.7v-1.6Zm-94.6-49.4a7.62,7.62,0,0,0,5.7-2.5l-.4-.9a7.25,7.25,0,0,1-3.9,1.1c-3,0-5.5-2.1-5.5-6.4v-.6H232a6.15,6.15,0,0,0,.2-1.9c0-3.7-2.9-4.9-5.6-4.9a7.78,7.78,0,0,0-7.8,8.2c0,4.2,2.6,7.9,7.5,7.9m.2-14.9c1.4,0,2.5.7,2.5,2.7a5,5,0,0,1-.2,1.6h-6.4c.5-2.7,1.9-4.3,4.1-4.3m-18.8,13.8c-2.1-.2-2.4-.2-2.4-1.4v-9.4a6.14,6.14,0,0,1,4.2-1.9c1.5,0,2.2,1,2.2,2.5v8.7c0,1.1-.2,1.2-1.9,1.4v.8h7.7v-.8c-2.1-.2-2.4-.2-2.4-1.4v-9c0-3.4-1.9-4.7-4-4.7a7.63,7.63,0,0,0-5.8,3.3h-.2l.2-10.1h-.4l-5.4.7v.8c2.1.2,2.4.2,2.4,1.5v17.5c0,1.1-.3,1.2-2.4,1.4v.8h8.2v-.7Zm12.9,30.5c0,13,9.7,22.3,21.6,22.3s21.6-9.3,21.6-22.3-9.7-22.3-21.6-22.3-21.6,9.3-21.6,22.3m21.5-19.7c8.4,0,14,7.2,14,19.7s-5.6,19.7-14,19.7-14-7.2-14-19.7,5.6-19.7,14-19.7m57.3,54.1c5.3.3,5.8.4,5.8,2.7v21.6c0,8.7-3.8,14.1-11.9,14.1-7.6,0-11.5-4.9-11.5-14.1V99.23c0-2.3.5-2.4,4.8-2.7v-1.7h-16.7v1.7c4.3.3,4.8.4,4.8,2.7v22.2c0,10.7,5.3,17.3,16.8,17.3,10.1,0,16.6-6.2,16.6-17.3V99.23c0-2.3.5-2.4,5.5-2.7v-1.7h-14.2v1.7Zm246-2.4c-11.8,0-21.6,9.3-21.6,22.3s9.7,22.3,21.6,22.3,21.6-9.3,21.6-22.3-9.8-22.3-21.6-22.3m0,42c-8.4,0-14-7.2-14-19.7s5.6-19.7,14-19.7,14,7.2,14,19.7-5.6,19.7-14,19.7m-45.2-39.6c4.3.3,4.8.4,4.8,2.7v34.4c0,2.3-.5,2.4-4.8,2.7V138h16.7v-1.7c-4.3-.3-4.8-.4-4.8-2.7V99.23c0-2.3.5-2.4,4.8-2.7v-1.7h-16.7Zm56.3-15h-9.9V63h5.3c3.8,0,6.1,1.2,6.7,6.2h1.7v-15h-1.7c-.6,5-2.9,6.2-6.7,6.2h-5.3V42.83h10.2c4.8,0,6.9,2.6,8.1,7.9h1.7l-.3-10.3h-31.7v1.7c4.3.3,4.8.4,4.8,2.7v34.4c0,2.3-.5,2.4-4.8,2.7v1.7h32.1l.6-10.3h-1.7c-1.4,6.3-4.3,8.2-9.1,8.2m43.6,15c5.4.3,5.9.4,5.9,2.7v27.1l-20-31.5h-13.2v1.7c5,.3,5.5.4,5.5,2.7v34.4c0,2.3-.5,2.4-5.5,2.7V138h14.3v-1.7c-5.4-.3-5.9-.4-5.9-2.7v-33l23.8,37.7h3.8V99.13c0-2.3.5-2.4,5.5-2.7v-1.7H600v1.8Zm-69.8-23h-1.7c-1.6,6.1-4.5,7.9-9.2,7.9h-9.2V44.93c0-2.3.5-2.4,4.8-2.7v-1.7h-16.7v1.7c4.3.3,4.8.4,4.8,2.7v34.4c0,2.3-.5,2.4-4.8,2.7v1.7h31.5Zm77.9,4.9-5-7.6a18.08,18.08,0,0,0-6.6-6.2c8.6-1.5,11.9-7.1,11.9-12.4,0-6.8-5.3-11.8-14.6-11.8h-18.8v1.7c4.3.3,4.8.4,4.8,2.7v34.4c0,2.3-.5,2.4-4.8,2.7v1.7h16.7v-1.7c-4.3-.3-4.8-.4-4.8-2.7V65h3.7a27.13,27.13,0,0,1,5.4,6.9l3.2,5.3a40.25,40.25,0,0,0,4.5,6.6h10.6v-1.7a7.54,7.54,0,0,1-6.2-3.7m-17.4-16H587V42.83h5.2c6.8,0,8.8,5.1,8.8,10-.1,5.5-2.2,9.6-10.2,9.6m-108.7,19.1h-9.2V44.93c0-2.3.5-2.4,4.8-2.7v-1.7H461v1.7c4.3.3,4.8.4,4.8,2.7v34.4c0,2.3-.5,2.4-4.8,2.7v1.7h31.5l.6-10.3h-1.7c-1.7,6.2-4.6,8.1-9.3,8.1m-73.8-38.7c4.8,0,6.9,2.6,8.1,7.9h1.7l-.3-10.3h-31.7v1.7c4.3.3,4.8.4,4.8,2.7v34.4c0,2.3-.5,2.4-4.8,2.7v1.7h16.7v-1.7c-4.3-.3-4.8-.4-4.8-2.7v-15h5.3c3.8,0,6.1,1.2,6.7,6.2h1.7v-15H410c-.6,5-2.9,6.2-6.7,6.2H398V42.83Zm-18.7,52H370v1.7c4.3.3,4.8.4,4.8,2.7v34.4c0,2.3-.5,2.4-4.8,2.7V138h19.6c11.8,0,21.6-8.7,21.6-21.7s-9.7-21.5-21.6-21.5m0,41h-7.7V97.13h7.7c8.3,0,14,6.8,14,19.3s-5.5,19.4-14,19.4m61-2.6-14.4-38.7H432L419.16,133c-.9,2.5-1.7,2.9-5.1,3.5v1.7h13.4v-1.7c-5-.6-6-1.3-4.8-5l2.4-7.1H440l3,8.3c1,2.9.1,3.3-4.2,3.8v1.7h16.9v-1.7c-3.6-.5-4.3-1.3-5.1-3.3m-24.8-11.6,6.2-18.9h.1l6.8,18.9Zm32.1-26.8-.3,10.3h1.7c1.2-5.3,3.1-7.9,7.9-7.9h3.5v36.6c0,2.3-.5,2.4-4.8,2.7v1.7h16.7v-1.7c-4.3-.3-4.8-.4-4.8-2.7V97.23h3.5c4.8,0,6.6,2.6,7.9,7.9h1.7l-.3-10.3Zm-12.5-13.3h-9.8V63h5.3c3.8,0,6.1,1.2,6.7,6.2h1.7v-15h-1.7c-.6,5-2.9,6.2-6.7,6.2h-5.3V42.83h10.2c4.8,0,6.9,2.6,8.1,7.9h1.7l-.3-10.3h-31.7v1.7c4.3.3,4.8.4,4.8,2.7v34.4c0,2.3-.5,2.4-4.8,2.7v1.7h32.1l.6-10.3h-1.7c-1.5,6.3-4.4,8.2-9.2,8.2m-97.8,15c5.4.3,5.9.4,5.9,2.7v27.1l-20-31.5h-13.2v1.7c5,.3,5.5.4,5.5,2.7v34.4c0,2.3-.5,2.4-5.5,2.7V138h14.3v-1.7c-5.4-.3-5.9-.4-5.9-2.7v-33l23.8,37.7h3.8V99.13c0-2.3.5-2.4,5.5-2.7v-1.7h-14.2Z"/><path class="cls-2" d="M153.76,99A82.09,82.09,0,0,0,155,63.1a79.94,79.94,0,0,0-13.7-31.3,73.83,73.83,0,0,0-7.3-8.6c.5,1.7,1.1,3.4,1.6,5.1-1-.4-2-.8-3-1.1l-1.8-.6a1.85,1.85,0,0,0-.7-.2c-.2-.3-.3-.7-.5-1-1-2-2-4-3.2-6,2.4,1,4.7,2,7,3.2-1.4-1.4-2.8-2.7-4.2-4a8,8,0,0,0-2.3-1.8,24.69,24.69,0,0,0-2.9-1,13.43,13.43,0,0,0-2.9-3.4c-.7-.4-1.4-.9-2.1-1.3a25.28,25.28,0,0,1,1.8,3.7c-1.9-.6-3.7-1.1-5.6-1.6-.9-.2-1.8-.4-2.6-.6-.5-.1-1-.1-1.3-.6s-.5-.9-.7-1.3a44.34,44.34,0,0,0-2.9-4.6c-.3-.4-.6-1.1-1-1.3s-.7-.3-1.1-.4a25.24,25.24,0,0,1,2.1,7.1c-3.2-.6-6.4-1.1-9.6-1.4a19.53,19.53,0,0,0-2.3-.2c-.6-.1-.5-.3-.6-.8s-.3-1-.4-1.4c-.5-1.5-.9-3-1.5-4.4,3.6.6,7.1,1.3,10.7,2.1a12.47,12.47,0,0,0-2.7-1c-1.3-.4-2.7-.7-4-1s-2.6-.5-3.9-.7c-.6-.1-.7-1.1-.9-1.7-.2-.4-.3-.4-.8-.4,0,.6.1,1.3.1,1.9q-3.9-.45-7.8-.6a13.28,13.28,0,0,0-3.9-.4h-1.9c-.5,0-.8.2-.8-.4,0-.4-.1-.8-.1-1.1L77,1.2v.3h-2.9c-1.1,0-2.2.1-3.3.1-.6,0-2.3-.3-2.5.4,2.9-.1,5.8-.2,8.7-.2-.1,1.8-.2,3.6-.3,5.5a4.87,4.87,0,0,1-.1,1.2v.8h-.8c-1,0-2.1.1-3.1.1-3.8.2-7.6.5-11.4,1,.2-2.5.3-4.9.6-7.4-.5,1.9-.9,3.8-1.4,5.7,0,.2-.1.3-.1.5s-.1.5-.1.7c-.1.5,0,.7-.5.8l-4.2.6c-2.1.3-4.6.4-6.5,1.2,3.7-.4,7.3-.8,11-1-.4,2-.7,4.1-1,6.1-.2,1.1-.3,2.2-.5,3.3,0,.3-.1.5-.1.8-.1.5.1.7-.5.8a11.08,11.08,0,0,1-1.9.2c-4.8.6-9.6,1.4-14.4,2.3.3-2.8.7-5.6,1.1-8.3-.4,2.4-.8,4.9-1.2,7.3,0,.3-.1.5-.1.8-.1.6-.3.4-.8.5a12.86,12.86,0,0,0-1.9.4c-1.3.3-2.6.5-3.8.8,2.1,0,4.3-.4,6.4-.6-.7,4.1-1.3,8.3-1.8,12.5-.1.5-.1,1-.2,1.5s.1,1.1-.5,1.1c-1,.1-2.1.3-3.1.4-2.2.3-4.4.7-6.7,1,.4.3,1.3.1,1.8,0,.9,0,1.8-.1,2.8-.1,1.8-.1,3.6-.2,5.4-.2-.7,5.4-1.3,10.8-1.7,16.3a1.7,1.7,0,0,1-.1.7c-.4,0-.7.1-1.1.1-.6.1-1.2.1-1.8.2-1.4.1-2.7.3-4.1.4l-8.4.9c.3-3.9.7-7.9,1-11.8a46.42,46.42,0,0,0-1.1,6.5l-.6,5.1c-.1.5-.3.4-.8.4s-1,.1-1.5.2l-3.1.3c1.8,0,3.6-.1,5.4-.1a179.85,179.85,0,0,0-.4,37.4h-1.2c.3.1.5.1.8.2.6.2.5.5.5,1.1.2,1.5.3,3,.5,4.5.3,2.4.3,5.2,1.4,7.3-.5-4.2-.9-8.4-1.3-12.6l7.8.6c1.3.1,2.6.2,3.9.4.7.1,1.3.1,2,.2.4,0,.8.1,1.2.1.6.1.4.3.4.8.4,5.4,1,10.9,1.7,16.3-4.6-.3-9.3-.7-13.9-1.2,1.7.9,3.7.9,5.5,1.2,2.6.4,5.2.8,7.8,1.1.3,0,.5.1.8.1.1.4.1.8.2,1.1.1.6.2,1.3.3,1.9.2,1.3.4,2.5.6,3.8.5,2.7.9,5.4,1.5,8.1-.7-.1-1.3-.1-2-.2a5.3,5.3,0,0,0,1,.6c.2.1.5.1.7.2.4.1.4,0,.5.4s.1.7.2,1.1c.5,2.7,1.1,5.4,1.7,8.2v-.1c.1,0,.3.6.4.5s-.2-1.4-.2-1.6c-.2-.9-.3-1.8-.5-2.7-.3-1.9-.7-3.8-1-5.6,4.6.7,9.2,1.3,13.9,1.9.5.1,1,.1,1.4.2.2,0,.5.1.7.1.5.1.4.3.4.8.2,1.3.3,2.5.5,3.8.3,2.3.6,4.7,1,7-4.5-.4-9-1-13.4-1.8,3.6,1.3,7.5,1.7,11.3,2.2l1.9.3c.7.1.5.9.6,1.5.1.4.2.9.3,1.3l.9,3.3c.6-.6.3-1.4.2-2.3-.1-1.2-.2-2.5-.3-3.7,3.5.4,6.9.7,10.4.9a23.48,23.48,0,0,0,2.6.1,7.57,7.57,0,0,1,1.5.1h.8a2.2,2.2,0,0,0,.1.8c.2,2.1.3,4.2.5,6.2-2,0-4.1,0-6.1-.1a13.55,13.55,0,0,0-3.5.1c1.7.2,3.5.3,5.2.4.8,0,1.6.1,2.5.1.5,0,1.9-.2,2.1.2.1.2.3.5.4.4,0-.5-.1-.5.4-.5h1.5c1.8,0,3.6,0,5.3-.1a49.07,49.07,0,0,0,7.7-.9c1.6-.3,3.2-.7,4.7-1.1a7,7,0,0,0,2.3-1.1c-2,1.2-4.6,1.5-6.9,1.8.6-1.5,1.1-3.1,1.6-4.6.2-.7.5-1.5.7-2.2l2.7-.3c3.3-.4,6.7-.9,10-1.6a41,41,0,0,1-1.4,5l2.1-.9c.5-.2.7-.6,1-1.1.5-.9,1-1.7,1.5-2.6a4.67,4.67,0,0,0,.5-1c.3-.5.7-.5,1.3-.6,1-.3,2-.5,2.9-.8,2-.6,3.9-1.2,5.8-1.9-.1.4-.3.8-.4,1.1a93.3,93.3,0,0,0,9.3-7.3c-1.4.6-2.8,1.1-4.2,1.6,1.2-1.9,2.3-3.8,3.4-5.8.3-.5.3-.9.9-1.1l1.8-.6c1.1-.4,2.2-.8,3.3-1.3-.3,1-.5,1.9-.8,2.9a80.9,80.9,0,0,0,11.8-16.2,69,69,0,0,0,4.1-8.7c.6-1.6,1.2-3.2,1.7-4.8A33.65,33.65,0,0,1,153.76,99Zm-74.3,35.6c.1-2.1.3-4.2.4-6.3.1-1,.1-2.1.2-3.1,0-.5.1-1,.1-1.6v-.8c0-.6.3-.4.8-.4,4.2.2,8.4.3,12.6.4-.1,2.1-.1,4.1-.2,6.2,0,1-.1,2-.1,3a7.57,7.57,0,0,1-.1,1.5c-.5.1-1,.1-1.5.2-4,.4-8.1.7-12.2.9m13.6,3.1c-.1,1.9-.2,3.9-.2,5.8,0,1-.1,2-.1,3.1,0,.8,0,.8-.8.9-.5.1-1,.1-1.5.2-4,.4-7.9.7-11.9.8.2-2.1.3-4.1.5-6.2a30.28,30.28,0,0,0,.2-3.1c0-.5.1-1,.1-1.5H81c3.9.1,8,.1,12.1,0m-.4-112.6c.1,3.7.3,7.3.4,11-4.1.1-8.2.2-12.2.4-.8,0-.8.1-.8-.8,0-.5-.1-1.1-.1-1.6-.1-1.1-.1-2.1-.2-3.2-.1-2.3-.3-4.5-.5-6.8,4.5.3,8.9.6,13.4,1M79,20.6c-.2-3.3-.6-6.7-.8-10,3.8,0,7.6.2,11.4.5.9.1,1.7.1,2.6.2,0,1,.1,2.1.1,3.1.1,2.1.2,4.2.3,6.2-4.6-.1-9.1-.1-13.6,0m25.2,51.9c-.1-2.5-.2-5.1-.3-7.6l4.5.6,2.2.3v4.8c0,.5.2.7-.4.8-.4.1-.8.1-1.1.2a46.33,46.33,0,0,1-4.9.9M93.86,95c-4.3.6-8.6,1.1-12.8,1.6.1-4.3.1-8.6.1-13l11.2,1.2c.4,0,.8.1,1.1.1s.5.1.4.4v3.9a56.1,56.1,0,0,1,0,5.8m0,9.9c0,2,0,3.9-.1,5.9V115c0,.6-.6.5-1.2.5-4,.5-8.1.9-12.1,1.2.2-4.2.3-8.4.4-12.7,4.3.4,8.6.7,13,.9M81.16,75.5c0-4.3-.1-8.6-.2-12.9,3,.2,6,.5,8.9.8.6.1,1.3.1,1.9.2.4,0,.8.1,1.1.1.5.1.7-.1.8.5,0,1.6,0,3.2.1,4.7s0,2.9.1,4.3c0,.5.2.8-.4.8-.4,0-.7.1-1.1.1l-2.3.3c-2.9.5-5.9.8-8.9,1.1m29.3-21.9c-1.3,0-2.6.1-3.9.1a12.75,12.75,0,0,0-1.9.1h-1.1c-.6,0-.4-.2-.5-.8l-.9-8.7,7.8,1.2c.4-.1.5.1.4.4v3.4c0,1.5.1,2.9.1,4.3m-16.9.6c-4.2.2-8.5.5-12.7.8-.1-4.3-.3-8.5-.5-12.8,4,.3,7.9.6,11.8,1,.4,0,.7.1,1.1.1v1.6c0,1,.1,2.1.1,3.1.1,2,.1,4.1.2,6.2m32.6-.5a12.1,12.1,0,0,1-1.9-.1c-.4.1-.5,0-.4-.4-.1-.4-.1-.7-.2-1.1-.2-1.4-.4-2.7-.6-4.1.6.1,1.2.3,1.8.4a3.55,3.55,0,0,0,1,.2c.5.1.4.3.4.8-.1,1.5-.1,2.9-.1,4.3m-5.4-16.4c-.7-2.8-1.4-5.5-2.3-8.2,1.1.2,2.2.5,3.4.8a8.33,8.33,0,0,1,1.5.4c.5.1,1.4.1,1.5.7.3,2.3.6,4.7.8,7-1.7-.3-3.3-.5-4.9-.7M110,36.4c-1.5-.1-3-.1-4.4-.2-.8,0-1.5-.1-2.3-.1h-1.1c-.6,0-1.1.2-1.2-.4-.5-3.3-1.1-6.6-1.7-9.9,3.2.4,6.4.9,9.6,1.4.5.1.7-.1.8.5a4.1,4.1,0,0,0,.1,1.1,22.6,22.6,0,0,1,.1,2.6c0,1.7.1,3.4.1,5m-35,.4c-5.2.3-10.4.8-15.6,1.3.1-2.5.2-4.9.4-7.4.1-1.2.1-2.3.2-3.5,0-.6.1-1.3.1-1.9v-.8c0-.6.3-.4.8-.4,4.9-.1,9.8-.2,14.7,0-.2,4.2-.4,8.5-.6,12.7m-.2,5c-.1,2.5-.2,4.9-.3,7.4,0,1.2-.1,2.3-.1,3.5a13.4,13.4,0,0,1-.1,2v.8h-1l-14.6,1.2c.1-2.6.2-5.2.2-7.8,0-1.3.1-2.6.1-3.9,0-.7.1-1.3.1-2v-.8c0-.5-.2-.8.4-.8,5.2.1,10.3.2,15.3.4m-.6,20.3c-.1,2.5-.1,4.9-.2,7.4,0,1.2,0,2.4-.1,3.5v2.8c0,.6-.2.4-.7.5-4.9.4-9.9.8-14.8,1.1,0-5.4.1-10.8.2-16.1,5.2.2,10.4.5,15.6.8M55.06,77.6c-5.9.4-11.8.6-17.7.9,0-4.3.2-8.7.4-13,0-1.1.1-2.1.2-3.2,0-.5.1-1.1.1-1.6h1.6c2.2,0,4.4.1,6.6.1,2,0,4.1.1,6.1.2,1,0,2,.1,3,.1,0,1.2-.1,2.3-.1,3.5-.1,4.3-.2,8.7-.2,13m0,3.7c0,4.3.1,8.7.2,13,0,1.1.1,2.1.1,3.2,0,.8.1.8-.7.8a12.1,12.1,0,0,0-1.9.1c-2.2.1-4.4.1-6.6.1h-8.3c0-.5-.1-1.1-.1-1.6-.1-1.2-.1-2.4-.2-3.6-.2-4.4-.2-8.8-.2-13.3,5.9.5,11.8.9,17.7,1.3m3.3.3,11.1.9a22.75,22.75,0,0,0,2.6.2c.4,0,.7.1,1.1.1.8.1.7.1.7.8V96.8c.1.4,0,.5-.4.4-1.1.1-2.1.2-3.2.2-4,.3-7.9.5-11.9.7.1-5.4,0-11,0-16.5m15.8,21.9c.1,3.6.2,7.2.3,10.9,0,.9.1,1.8.1,2.7-.9.1-1.8.1-2.7.2l-5.9.3c-1.8.1-3.7.1-5.5.1h-1.2a9.15,9.15,0,0,0-.1-1.6c0-.9-.1-1.8-.1-2.7-.1-3.8-.3-7.5-.4-11.3,5.2.5,10.3,1,15.5,1.4m.6,18.6.6,12.6c-4.8.1-9.7.1-14.5,0h-.8v-.8c0-.6-.1-1.3-.1-1.9-.1-1.3-.1-2.6-.2-3.9-.1-2.4-.2-4.9-.4-7.3,5.2.5,10.3.9,15.4,1.3m26.4.6c3-.1,6-.1,9-.3-.1,1.5-.1,3.1-.2,4.6,0,.7-.1,1.5-.1,2.2a4.1,4.1,0,0,1-.1,1.1c0,.7,0,.7-.8.9q-4.8.9-9.6,1.5c.7-3.3,1.3-6.6,1.8-10m19.6-1.2c1.7-.2,3.5-.4,5.2-.7-.1,2.2-.3,4.4-.6,6.7-2.2.6-4.4,1.2-6.7,1.7.8-2.5,1.5-5.1,2.1-7.7m-18.4-7.4c.3-2.7.6-5.4.8-8.1a2.2,2.2,0,0,1,.1-.8h7.3v6.6c0,.5.2.7-.4.8q-4.05.9-7.8,1.5M104,93.4c.1-2.5.2-4.9.2-7.4.6.1,6.3.6,6.3.8v5.4c.1.3-5.9,1.1-6.5,1.2m33.5-58.9c.6,2.1,1.2,4.1,1.7,6.2a25,25,0,0,1-2.6-.7l-1.5-.3c-.1-.5-.3-1-.4-1.5a55.18,55.18,0,0,0-1.8-5.3c1.5.6,3.1,1.1,4.6,1.6m-15.6-16.9q1,3.45,1.8,6.9l-3.9-.9c-.6-.1-1.2-.3-1.9-.4-.4-.1-.8-.1-1.1-.2-.5-.1-.5-.3-.7-.8q-1.5-3.75-3.3-7.5c3.1.9,6.1,1.8,9.1,2.9m-13.8-3.9c.4,2.7.8,5.5,1,8.3-3.4-.4-6.7-.8-10.1-1-.5,0-.7.1-.9-.4s-.2-.8-.3-1.1c-.2-.9-.4-1.8-.6-2.6-.4-1.7-.9-3.4-1.3-5.1a83.66,83.66,0,0,1,12.2,1.9M77.36,1.8c3.1,0,6.1.1,9.2.4l2.4.3c.5.1,1,.1,1.5.2s1.1-.1,1.2.6c.1,2.1.2,4.1.3,6.2-3.5-.2-7-.3-10.4-.3h-2.7c-.5,0-.8.2-.8-.4s-.1-1-.1-1.6l-.6-5.4m-16.3,9.4c5.1-.4,10.2-.5,15.3-.6-.1,2.1-.3,4.1-.4,6.2-.1,1-.1,2.1-.2,3.1,0,.8,0,.8-.8.8-.6,0-1.2.1-1.8.1-4.3.2-8.6.6-12.9,1.1.2-3.6.5-7.2.8-10.7M41.36,25.5c5.5-.6,11-1,16.4-1.2-.3,2.4-.5,4.8-.8,7.2-.1,1.3-.2,2.5-.3,3.8-.1.6-.1,1.3-.2,1.9,0,.4-.1.8-.1,1.2-.4,0-.7.1-1.1.1-5.2.6-10.5,1.2-15.7,1.9.6-4.9,1.2-9.9,1.8-14.9m-1.8,16.2c5.6-.2,11.1-.3,16.7-.3-.2,2.7-.3,5.5-.5,8.2-.1,1.4-.1,2.8-.2,4.2,0,.7-.1,1.3-.1,2V57c-.3,0-.7.1-1,.1l-16.3,1.5c.3-5.6.8-11.3,1.4-16.9m-2.8,19c-.4,5.6-.7,11.1-.8,16.7v.7c0,.6-.2.4-.7.4-.7,0-1.5.1-2.2.1-1.4.1-2.7.1-4.1.1l-8.5.3c.1-5.2.5-10.4.9-15.6.1-.6.1-1.3.2-1.9s-.1-.8.5-.8h14.7M21.16,98.2c-.5-6.3-.9-12.6-.8-18.9,2.8.1,5.6.2,8.5.4,1.4.1,2.7.1,4.1.2.6,0,1.2.1,1.8.1a4.1,4.1,0,0,1,1.1.1v1.2c0,5.8.1,11.5.5,17.3-5.1-.1-10.1-.2-15.2-.4m16.8,2c5.6.5,11.2,1.1,16.9,1.6.3,0,.5.1.8.1v1.2c0,.6.1,1.3.1,1.9.1,1.4.1,2.8.2,4.3.2,2.8.3,5.6.5,8.5-5.7,0-11.4-.2-17.1-.5-.6-5.8-1.1-11.5-1.4-17.1m3.7,33.2c-.8-5-1.5-9.9-2.1-14.9,5.2.7,10.4,1.3,15.6,1.9.3,0,.5.1.8.1.5.1.8-.1.8.5s.1,1.3.2,1.9c.1,1.3.2,2.6.3,3.8.2,2.6.5,5.3.8,7.9-5.5-.2-11-.6-16.4-1.2m19.5,14.5c-.3-3.8-.6-7.6-.9-11.5,4.3.4,8.5.8,12.8,1,.5,0,1,.1,1.4.1s1.1-.2,1.1.4c.1,1.2.2,2.3.3,3.5.2,2.3.4,4.7.6,7-5.1.1-10.2-.1-15.3-.5m30.9,8.2a113.2,113.2,0,0,1-14.3.7c.1-1.7.3-3.4.4-5,0-.4.1-.8.1-1.2.1-.8,0-.8.8-.8h2.6c3.6,0,7.2-.2,10.8-.4-.1,2.3-.2,4.5-.4,6.7m3.8-9.2c.5-1.6.9-3.2,1.3-4.8.2-.9.5-1.8.7-2.7.1-.4.2-.8.3-1.1.2-.8.2-.8.9-.8q5.1-.3,10.2-.9c-.1,1.6-.3,3.2-.5,4.9l-.3,2.4c-.1.5,0,.6-.5.7l-1.5.3c-3.5.8-7,1.4-10.6,2m26.7-6.7c-3,1.1-6.1,2-9.2,2.9,1.1-2.4,2.1-4.8,3.1-7.3.2-.6,1.1-.5,1.7-.6a17.42,17.42,0,0,0,2.2-.5l3.9-.9c-.5,2.1-1.1,4.3-1.7,6.4m14.9-16.9c-1.4.6-2.8,1.1-4.2,1.6.6-1.5,1.1-3,1.6-4.6.1-.4.2-.7.3-1.1.2-.6.7-.5,1.2-.6a21.72,21.72,0,0,0,2.4-.7,42.65,42.65,0,0,1-1.3,5.4m-14.3-13.5c.2-1.1.4-2.3.5-3.4.1-.5,0-1.5.6-1.6h.7c.5,0,.7-.2.7.3.1,1.1.2,2.2.2,3.3v.7c-.3.1-.7.2-1,.3a8.47,8.47,0,0,0-1.7.4"/></g></g></svg>