<svg xmlns="http://www.w3.org/2000/svg" viewBox="0 0 187.2 288"><defs><style>.cls-1{fill:#0277be;}.cls-2{fill:#3f484f;}.cls-3{fill:#fcfdfd;}.cls-4{fill:#287ac0;}</style></defs><title>SFMTA</title><g id="Layer_2" data-name="Layer 2"><g id="Layer_1-2" data-name="Layer 1"><path class="cls-1" d="M0,187V0H187c0,.44,0,.88,0,1.32V185.59c0,.48,0,1,0,1.44l-1.68,0H1.8C1.2,187,.6,187,0,187Zm119.76-61.2a7.07,7.07,0,0,0,.23-1.27q0-21.45,0-42.89l.06-.2-.06.2-.28-.32a2.63,2.63,0,0,1,2.54-2.11A2.71,2.71,0,0,1,125,80.91a6.28,6.28,0,0,1,.22,1.89q0,32,0,64v1.57h8.69V74c0-.88,0-1.76,0-2.64l.29-.35v77l.4,0c0-.38.06-.76.06-1.14q0-36.64,0-73.31a14.51,14.51,0,0,0-.46-2.56l0-.74-.41.49a11.6,11.6,0,0,0-10.58-9c-5.53-.24-9.83,2.74-11.82,8.07l-.51-.61a19.62,19.62,0,0,0-.61,3.35q-.06,21.14,0,42.26a3.15,3.15,0,0,0,.46,1.1c-1.41,8.55-7.35,14.2-15.78,15a17.23,17.23,0,0,1-18.58-16.89q0-20,0-40.08a14.14,14.14,0,0,0-.37-3.43A11.68,11.68,0,0,0,63.3,61.76,11.85,11.85,0,0,0,53.05,73.54q0,36.72,0,73.43v1.36h8.79V83.5c0-.6,0-1.21,0-1.8a2.73,2.73,0,0,1,2.7-2.54c1.81,0,2.9,1.19,2.9,3.31,0,13.12,0,26.23,0,39.35a29.88,29.88,0,0,0,.44,5,25.89,25.89,0,0,0,33.7,20.29c9.45-3.21,15.2-9.94,17.44-19.66l.52.62ZM96.24,60.48a23.31,23.31,0,0,0-.46,3.28q0,20.28,0,40.55v1.11h.48V60.48l.28.6c0,1.6-.15,3.2-.15,4.79q0,19.08,0,38.15a13.88,13.88,0,0,1-.07,1.44,2.6,2.6,0,0,1-1.94,2.33c-1.94.63-3.66-.8-3.66-3q0-20,0-39.95a25.28,25.28,0,0,0-.3-4.17,26,26,0,0,0-51.73,3.59q0,41.46,0,82.91v1.18h8.78V73.38a17.23,17.23,0,0,1,34.45-.23q0,20,0,40.08c0,6.26,4.42,11.43,10.17,12a11.64,11.64,0,0,0,12.86-9.32l.55.69c.14-1.43.35-2.6.35-3.77,0-13.14,0-26.28,0-39.42,0-1.27.25-2.53.33-3.8A6.93,6.93,0,0,0,106,68.3a2.82,2.82,0,0,1,.1-.58A17.07,17.07,0,0,1,124.8,56.24c9,1.34,14.84,8.44,14.84,17.53v74.56h8.76v-.88q0-41.38,0-82.78a25.32,25.32,0,0,0-8.87-19.57,26,26,0,0,0-35.19.83,28.6,28.6,0,0,0-6.84,11A4.51,4.51,0,0,0,96.24,60.48Zm-57.9,2.09h-.12v85.35h.12Zm100.79,8.88H139v76.46h.11ZM47.82,147.92h.12V72.17h-.12Zm4.92-75.75h-.12v75.75h.12Zm71.88,75.74h.11V81.53h-.11Zm-62.4,0h.12V82h-.12Zm19.2-33.13h.12V71.92h-.12Zm9.72-52.7H91V105h.12Zm-14.4,9.84h-.12v42.63h.12ZM67,124.39h.12V82H67Z"/><path class="cls-2" d="M0,187c.6,0,1.2,0,1.8,0H185.28l1.68,0c0,.32.06.63.06.95v98.86c0,.31,0,.62-.05,1H1.43c-.47,0-.95,0-1.43-.06Zm80.54,45.38h.35c.09.21.2.41.27.63q3,9.25,6,18.5a1.1,1.1,0,0,0,1.26.93c1.8-.07,3.6,0,5.4,0a1,1,0,0,0,1.08-.81q3-9.39,6-18.75a3.94,3.94,0,0,1,.51-.79,2.84,2.84,0,0,1,.32.88c0,6.16,0,12.31,0,18.47,0,.3,0,.6.07.93h7.51v-29h-12c-2,6.24-4,12.45-6.09,18.85-2-6.2-4-12-5.83-17.93a1.18,1.18,0,0,0-1.4-1c-2.16.06-4.32,0-6.48,0H73.21V252.3h7.33Zm85.65,20c-.17-.47-.28-.79-.41-1.12q-1.89-5-3.8-9.92c-2.17-5.69-4.33-11.39-6.53-17.07-.16-.4-.6-1-.93-1-2.94-.08-5.88-.05-8.84-.05l-11.1,29.15c2.44,0,4.7,0,7,0a1.13,1.13,0,0,0,1.26-.93c.51-1.46,1.11-2.89,1.64-4.34a1.25,1.25,0,0,1,1.38-1c2.91.06,5.83.05,8.75,0,.74,0,1.14.16,1.38.92.47,1.52,1,3,1.62,4.48.12.31.47.75.73.76C160.88,252.4,163.46,252.37,166.19,252.37ZM41,223.76a25.21,25.21,0,0,0-12.51-.86,9.87,9.87,0,0,0-5.41,2.84,8.33,8.33,0,0,0,3.06,13.48c2,.82,4.11,1.52,6.16,2.31,1.73.67,2.23,1.28,2.18,2.54a2.65,2.65,0,0,1-2.53,2.6,25,25,0,0,1-5.67-.11,31.92,31.92,0,0,1-4.5-1.24c-.19,1.92-.41,3.78-.53,5.64,0,.27.4.75.7.84a23,23,0,0,0,3.37.83c4.11.62,8.22.82,12.13-.93a8.33,8.33,0,0,0,5.14-8.2c0-3.67-1.53-6.38-5-7.81-1-.4-1.95-.71-2.93-1-1.4-.47-2.83-.86-4.2-1.41A2.26,2.26,0,0,1,29,231a2.08,2.08,0,0,1,1.53-2.07,10.34,10.34,0,0,1,3.61-.61c2.14.18,4.25.71,6.42,1.1Zm6.35-.48v29h7.86V240.53H66.13v-5.68H55.26v-6.08H66.6v-5.49Zm88.62,0H114v5.75h7.08v23.22H129V229h7Z"/><path class="cls-3" d="M0,287.76c.48,0,1,.06,1.43.06H187c0-.37.05-.68.05-1V188c0-.32,0-.63-.06-.95,0-.48,0-1,0-1.44V1.32c0-.44,0-.88,0-1.32.08,0,.22.08.23.12,0,.32,0,.64,0,1V288H1.08A5.21,5.21,0,0,1,0,287.76Z"/><path class="cls-3" d="M97.48,56.89a28.6,28.6,0,0,1,6.84-11,26,26,0,0,1,35.19-.83,25.32,25.32,0,0,1,8.87,19.57q.06,41.39,0,82.78v.88h-8.76V73.77c0-9.09-5.84-16.19-14.84-17.53a17.07,17.07,0,0,0-18.74,11.48,2.82,2.82,0,0,0-.1.58l0,0-.57,1.92.06.08.08,0a15.93,15.93,0,0,0-.44,2.62q0,21.12,0,42.25l-.2.77a11.64,11.64,0,0,1-12.86,9.32c-5.75-.59-10.16-5.76-10.17-12q0-20,0-40.08a17.23,17.23,0,0,0-34.45.23v74.93H38.65v-1.18q0-41.46,0-82.91a26,26,0,0,1,51.73-3.59,25.28,25.28,0,0,1,.3,4.17q0,20,0,40c0,2.24,1.72,3.67,3.66,3a2.6,2.6,0,0,0,1.94-2.33,13.88,13.88,0,0,0,.07-1.44q0-19.06,0-38.15c0-1.59.1-3.19.15-4.79Z"/><path class="cls-3" d="M111.31,69.82c2-5.33,6.29-8.31,11.82-8.07a11.6,11.6,0,0,1,10.58,9l.16.59c0,.88,0,1.76,0,2.64v74.31h-8.69v-1.57q0-32,0-64a6.28,6.28,0,0,0-.22-1.89,2.71,2.71,0,0,0-2.73-1.74,2.63,2.63,0,0,0-2.54,2.11l-.17.57c0,.52,0,1,0,1.56q0,20.9,0,41.78l-.4,2.26c-2.24,9.72-8,16.45-17.44,19.66a25.89,25.89,0,0,1-33.7-20.29,29.88,29.88,0,0,1-.44-5c0-13.12,0-26.23,0-39.35,0-2.12-1.09-3.35-2.9-3.31a2.73,2.73,0,0,0-2.7,2.54c0,.59,0,1.2,0,1.8v64.83H53.06V147q0-36.72,0-73.43A11.85,11.85,0,0,1,63.3,61.76a11.68,11.68,0,0,1,12.59,8.78A14.14,14.14,0,0,1,76.26,74q0,20,0,40.08a17.23,17.23,0,0,0,18.58,16.89c8.43-.82,14.37-6.47,15.78-15,.06-1,.17-1.91.17-2.86,0-13,0-25.9,0-38.86A43.4,43.4,0,0,1,111.31,69.82Z"/><path class="cls-4" d="M134.15,71a14.51,14.51,0,0,1,.46,2.56q0,36.66,0,73.31c0,.38,0,.76-.06,1.14l-.4,0V71Z"/><path class="cls-4" d="M111.31,69.82a43.4,43.4,0,0,0-.47,4.38c0,13,0,25.91,0,38.86,0,1-.11,1.91-.17,2.86a3.15,3.15,0,0,1-.46-1.1q0-21.13,0-42.26a19.62,19.62,0,0,1,.61-3.35Z"/><path class="cls-4" d="M104.91,115.93l.2-.77.23.08s0-.08,0-.12c0-.36,0-.72,0-1.08q0-19.91,0-39.82c0-1.31.12-2.62.19-3.93l-.08,0-.06-.08.57-1.92,0,0a6.93,6.93,0,0,1,.21,1.33c-.08,1.27-.32,2.53-.33,3.8,0,13.14,0,26.28,0,39.42,0,1.17-.21,2.34-.35,3.77Z"/><ellipse class="cls-4" cx="38.28" cy="105.24" rx="0.08" ry="60.35"/><ellipse class="cls-4" cx="139.08" cy="109.68" rx="0.08" ry="54.06"/><ellipse class="cls-4" cx="47.88" cy="110.04" rx="0.08" ry="53.56"/><ellipse class="cls-4" cx="52.68" cy="110.05" rx="0.08" ry="53.56"/><ellipse class="cls-4" cx="124.68" cy="114.72" rx="0.08" ry="46.93"/><ellipse class="cls-4" cx="62.28" cy="114.96" rx="0.08" ry="46.61"/><path class="cls-4" d="M96.24,60.48v44.93h-.48v-1.11q0-20.27,0-40.55a23.31,23.31,0,0,1,.46-3.28Z"/><path class="cls-4" d="M119.55,81.85l.17-.57.28.32h0q0,21.45,0,42.89a7.07,7.07,0,0,1-.23,1.27h0q0-21.15,0-42.28A13.11,13.11,0,0,0,119.55,81.85Z"/><ellipse class="cls-4" cx="81.48" cy="93.36" rx="0.09" ry="30.31"/><ellipse class="cls-4" cx="91.08" cy="83.52" rx="0.09" ry="30.32"/><ellipse class="cls-4" cx="76.68" cy="93.24" rx="0.09" ry="30.14"/><ellipse class="cls-4" cx="67.08" cy="103.19" rx="0.08" ry="29.97"/><path class="cls-4" d="M97.48,56.89l-1,4.19-.28-.6h0A4.51,4.51,0,0,1,97.48,56.89Z"/><path class="cls-4" d="M119.07,127.45l.4-2.26.29.58h0c-.05.69-.1,1.38-.17,2.31Z"/><path class="cls-4" d="M133.87,71.38l-.16-.59.41-.49,0,.74h0Z"/><path class="cls-4" d="M120,81.6l.06-.2-.06.2Z"/><path class="cls-3" d="M80.54,232.34v20H73.21V223.23h4.38c2.16,0,4.32,0,6.48,0a1.18,1.18,0,0,1,1.4,1c1.87,5.88,3.8,11.73,5.83,17.93,2.07-6.4,4.07-12.61,6.09-18.85h12v29h-7.51c0-.33-.07-.63-.07-.93,0-6.16,0-12.31,0-18.47a2.84,2.84,0,0,0-.32-.88,3.94,3.94,0,0,0-.51.79q-3,9.38-6,18.75a1,1,0,0,1-1.08.81c-1.8,0-3.6-.06-5.4,0a1.1,1.1,0,0,1-1.26-.93q-3-9.25-6-18.5c-.07-.22-.18-.42-.27-.63Z"/><path class="cls-3" d="M166.19,252.37c-2.73,0-5.31,0-7.89,0-.26,0-.61-.45-.73-.76-.58-1.48-1.15-3-1.62-4.48-.24-.76-.64-.93-1.38-.92-2.92,0-5.84,0-8.75,0a1.25,1.25,0,0,0-1.38,1c-.53,1.45-1.13,2.88-1.64,4.34a1.13,1.13,0,0,1-1.26.93c-2.26-.06-4.52,0-7,0l11.1-29.15c3,0,5.9,0,8.84.05.33,0,.77.58.93,1,2.2,5.68,4.36,11.38,6.53,17.07q1.91,5,3.8,9.92C165.91,251.58,166,251.9,166.19,252.37Zm-15.72-22.23-.37,0-3.51,10.56h7.16C152.64,237.15,151.55,233.65,150.47,230.14Z"/><path class="cls-3" d="M41,223.76l-.47,5.64c-2.17-.39-4.28-.92-6.42-1.1a10.34,10.34,0,0,0-3.61.61A2.08,2.08,0,0,0,29,231a2.26,2.26,0,0,0,1.48,2.26c1.37.55,2.8.94,4.2,1.41,1,.33,2,.64,2.93,1,3.48,1.43,5,4.14,5,7.81a8.33,8.33,0,0,1-5.14,8.2c-3.91,1.75-8,1.55-12.13.93A23,23,0,0,1,22,251.8c-.3-.09-.72-.57-.7-.84.12-1.86.34-3.72.53-5.64a31.92,31.92,0,0,0,4.5,1.24,25,25,0,0,0,5.67.11,2.65,2.65,0,0,0,2.53-2.6c.05-1.26-.45-1.87-2.18-2.54-2-.79-4.13-1.49-6.16-2.31a8.33,8.33,0,0,1-3.06-13.48,9.87,9.87,0,0,1,5.41-2.84A25.21,25.21,0,0,1,41,223.76Z"/><path class="cls-3" d="M47.35,223.28H66.6v5.49H55.26v6.08H66.13v5.68H55.21v11.76H47.35Z"/><path class="cls-3" d="M136,223.31V229h-7v23.32h-7.92V229.06H114v-5.75Z"/><path class="cls-1" d="M105.56,70.29c-.07,1.31-.19,2.62-.19,3.93q0,19.92,0,39.82c0,.36,0,.72,0,1.08,0,0,0,.08,0,.12l-.23-.08q0-21.12,0-42.25A15.93,15.93,0,0,1,105.56,70.29Z"/><path class="cls-1" d="M106,68.34l-.57,1.92Z"/><path class="cls-1" d="M119.76,125.77l-.29-.58q0-20.89,0-41.78c0-.52,0-1,0-1.56a13.11,13.11,0,0,1,.2,1.64Q119.77,104.63,119.76,125.77Z"/><path class="cls-2" d="M150.47,230.14c1.08,3.51,2.17,7,3.28,10.59h-7.16l3.51-10.56Z"/></g></g></svg>