<svg xmlns="http://www.w3.org/2000/svg" viewBox="0 0 474.23 199.72"><defs><style>.cls-1{fill:#789fce;}.cls-2{fill:#fff;}.cls-3{fill:#fbae42;}.cls-4{fill:#f04e31;}.cls-5{fill:#0056a0;}</style></defs><title>UnitedWay</title><g id="Layer_2" data-name="Layer 2"><g id="Layer_1-2" data-name="Layer 1"><rect class="cls-1" x="281.32" width="192.91" height="199.72"/><path class="cls-2" d="M457.46,98.56a79.68,79.68,0,1,1-79.68-79.68A79.69,79.69,0,0,1,457.46,98.56Z"/><path class="cls-3" d="M336.43,114.11c.83-.38,2.69-1.21,3.53-1.63s.83-.89.54-1.68a38.66,38.66,0,0,1-1.88-12.08,39.16,39.16,0,1,1,75.07,15.62,1,1,0,0,0,.39,1.28c.62.27,3,1.34,3.7,1.61s1.14.12,1.49-.62a45.18,45.18,0,1,0-86.66-17.89A44.53,44.53,0,0,0,335,113.34C335.27,114.05,335.63,114.48,336.43,114.11Z"/><path class="cls-3" d="M325,119.42c1-.46,4.17-1.92,5-2.34a1,1,0,0,0,.55-1.47,49.39,49.39,0,0,1-2.91-16.87,50.18,50.18,0,1,1,96.2,20,.94.94,0,0,0,.43,1.39c.81.33,4.41,2,5.08,2.24s1.16.18,1.5-.65a56.58,56.58,0,0,0,4.77-22.94,57.81,57.81,0,1,0-112,20C323.68,119.12,324,119.87,325,119.42Z"/><path class="cls-3" d="M309.35,126.61c1.11-.54,7.94-3.69,9.12-4.21s.68-1.47.5-2a62.68,62.68,0,1,1,116.44,3,1.28,1.28,0,0,0,.7,1.88c1.12.49,7.72,3.4,8.63,3.77s1.56.35,2.17-1a75.08,75.08,0,1,0-139.19-2.3C307.92,126.21,308.23,127.13,309.35,126.61Z"/><path class="cls-4" d="M377.81,82.41a8.06,8.06,0,1,0-8-8A8.06,8.06,0,0,0,377.81,82.41Z"/><path class="cls-4" d="M380.76,124.57a2.85,2.85,0,0,0,2.84-2.85V104.07c.07-2.23,1.65-5.11,3.21-6.78l16.62-16.61a2.84,2.84,0,0,0,0-4.05l-3-3a2.84,2.84,0,0,0-4,0l-15,15a4.33,4.33,0,0,1-3.56,1.58,4.22,4.22,0,0,1-3.53-1.58l-15-15a2.85,2.85,0,0,0-4,0l-3,3a2.88,2.88,0,0,0,0,4.05l16.62,16.61c1.57,1.67,3.14,4.55,3.2,6.78v17.65a2.86,2.86,0,0,0,2.85,2.85Z"/><path class="cls-5" d="M433.18,130.8c-2.82,1-8.06,6.22-10.46,8.33l-.63.12c.83-.95,4.45-5.53,5.4-7.11,2.87-4.74-2.53-9.23-8.49-5.81-2.24,1.29-6,5.26-7.83,6.67l-.59.14a79.06,79.06,0,0,0,5.09-6.61c2.59-3.86-2.87-7.49-7.55-4.67-3.32,2-6,4.73-8.83,6.89l-.48.12c.77-.74,2.62-2.93,3.33-3.71,2.77-3.09-1.2-6.68-5.38-4.52-4,2.06-9.8,7.81-16.1,11.86,2.93,1.59,8.1,1.81,16.27,5.31s10.82,11.65,5.49,18.09c-4.95,6-12.46,3.93-18.95,1.93-7.52-2.34-10.17-4.79-19.23-7.94-5.91-2-8.33-2-8.22-3.73.11-1.92,5.2-.76,10,1,13.27,4.8,30.9,15.74,35.22,4,3.41-9.29-11.87-13.3-17.71-14.42-8.16-1.56-13.78-7.54-20.85-11.35-10.65-5.75-18.87-5.9-25-4.79-6.55,1.18-15.9,6.53-21.56,9.92-3.91,2.31-3.64,5.85.21,11.34a75,75,0,0,0,125.25-3.64C444.52,133.44,439.91,128.4,433.18,130.8Z"/><rect class="cls-5" width="281.32" height="199.72"/><path class="cls-2" d="M460.66,187.32V180.2l-.18,0-2.69,7.09h-1.07L454,180.23h-.13v7.1H452.2v-9.06h2.52l2.56,6.72,2.55-6.72h2.5v9.06Zm-13.22-7.52v7.52h-1.65V179.8H443v-1.54h7.19v1.54Z"/><path class="cls-2" d="M217.93,182.51c0,2.15,7.71,4.49,11.75,4.49s9.68-1.51,12.59-8.67c3.07-7.54,15.77-51,15.77-51h1.42c2.86-.51,3.88-2.23,3.88-6.59,0-1.55-.2-1.69-1.48-1.69h-10.4c-1,0-1.11.19-1.43,1.18l-8.67,33.55-8.93-33.54c-.28-1-.41-1.15-1.41-1.19H220.55c-1.27,0-1.5.14-1.5,1.69,0,4.38,1.06,6.11,3.94,6.59h1.46s8.33,29.19,12.73,41.43c0,0-.65,2.35-.65,2.38-1.4,4.54-3.84,6.67-7.67,6.67-.91,0-6.05-.78-6.05-.78-2.9-.24-3.67,1-4,2A19.49,19.49,0,0,0,217.93,182.51Z"/><path class="cls-2" d="M182.4,102.71H170c-1.09,0-1.12.1-1.3,1.19l-7,43.46-8.46-43.24c-.19-1.16-.38-1.41-1.72-1.41h-5.68c-2.1,0-2.18.32-2.44,1.48l-8.83,43.17-6.62-43.46c-.15-1.09-.2-1.19-1.28-1.19H113.88c-1.33,0-1.54.13-1.54,1.74,0,4.79,1.14,6.54,4.54,6.92l1.28.06,9.73,53.46c.32,1.23.48,1.49,1.64,1.49H138c1.34,0,1.38-.08,1.62-1.49l8.37-41.56L155,164.91c.24,1.39.27,1.47,1.64,1.47h8.59c1.14,0,1.31-.26,1.62-1.49l11-53.5,1.23,0c3.41-.38,4.53-2.15,4.53-6.92C183.66,102.94,183.45,102.78,182.4,102.71Z"/><path class="cls-2" d="M214.79,158a30.45,30.45,0,0,1-1-8.48V132.69c0-10.59-4.6-15.3-15.06-15.3-7.27,0-15,3.14-15,5.12a18.24,18.24,0,0,0,.79,3.18c.21.64.71,2.09,3.8,1.85,1.26-.09,6.6-1.12,8.85-1.12,5.92,0,6.5,3.45,6.5,7.53v3.34c-7.39,0-23.3.07-23.3,16.1,0,9,5,14.62,13.08,14.62,6.12,0,9.17-3.35,11-5.37l.69-.78.23,1.21c.38,2,.74,3.31,2.26,3.31h10.72c1.36,0,1.51-.1,1.51-1.67C219.92,159.93,218.76,158.24,214.79,158Zm-11.06-2.23c-1.17,1.27-3.62,3.89-7,3.89s-6.19-3-6.19-6.94c0-8.75,10.37-8.25,13.21-8.05Z"/><path class="cls-2" d="M139.45,79.19h-1.13V41.28c0-.93,0-1-.92-1h-15c-1.3,0-1.47.1-1.47,1.64,0,5.17,1.37,6.75,5.8,6.75h1.08V79.18h-1.14c-4.44,0-5.79,1.6-5.79,6.76,0,1.54.21,1.66,1.49,1.66h21.42c1.25,0,1.49-.12,1.49-1.66C145.28,80.85,143.83,79.19,139.45,79.19Z"/><path class="cls-2" d="M133,22.26a6.53,6.53,0,0,0-6.37,6.8A6.64,6.64,0,0,0,133,35.91c3.47,0,6.27-3.09,6.27-6.85A6.55,6.55,0,0,0,133,22.26Z"/><path class="cls-2" d="M62,34.27h.3c4.52,0,6-1.69,6-7,0-1.57-.2-1.71-1.54-1.71H46.15c-1.18,0-1.36.19-1.47.9l0,.81c0,5.25,1.43,6.93,5.89,7h.3V65.38c0,5.93,0,14-9.55,14-8.84,0-9.55-6.37-9.55-14V34.27H32c4.45,0,5.9-1.72,5.9-7,0,0-.07-1-.07-1-.11-.55-.32-.72-1.46-.72H15.77c-1.32,0-1.53.14-1.53,1.71,0,5.33,1.37,7,6,7h.27V65.38c0,16.74,6.22,23.89,20.76,23.89S62,82.12,62,65.38Z"/><path class="cls-2" d="M109.87,79.19V53.62c0-10.38-3.42-15-11.06-15-6.81,0-10.6,4-13.54,7-.21-1.08-.45-2-.45-2-.47-2.08-.84-3.36-2.18-3.36H71c-1.29,0-1.46.1-1.46,1.64,0,4.9,1.21,6.65,5.34,6.73.58,2.05.94,3.74.94,8.61v22c-4.35,0-5.7,1.63-5.7,6.76,0,1.54.22,1.66,1.5,1.66H85.45c.84,0,.89-.13.89-1V52.28c1.25-1.3,4.12-4.15,7.81-4.15,5.22,0,5.22,5.95,5.22,8.51V86.58c0,.9,0,1,.9,1h13.77c1.24,0,1.47-.12,1.47-1.66C115.52,80.91,114.11,79.24,109.87,79.19Z"/><path class="cls-2" d="M165.22,89.27c6.13,0,11.09-1.61,11.09-2.91,0-.23-.36-2-.59-2.93-.84-3.56-1.16-4.88-7.66-4.07a2.33,2.33,0,0,1-2.05-.59c-1.28-1.27-1.28-4.06-1.28-6.3V48.64h5.83c4.47,0,5.82-1.58,5.82-6.75,0-1.54-.2-1.64-1.49-1.64H164.73V26.92c0-1.26-.11-1.32-.59-1.33s-2.6.28-3.68.43c-3,.51-6.22,2.83-6.22,8.19v6h-6c-1.29,0-1.47.1-1.47,1.64,0,5.17,1.35,6.75,5.78,6.75h1.68V70.82C154.24,79.88,154.24,89.27,165.22,89.27Z"/><path class="cls-2" d="M216.16,64.78c0-17.37-5.78-26.21-17.17-26.21S180.16,49,180.16,64.41c0,20.52,10.49,24.86,19.28,24.86,7.09,0,15.34-3.31,15.34-5.42a19.79,19.79,0,0,0-.84-3.36c-.33-1-.93-2.12-3.93-2-2.29.12-6,1.19-9.43,1.19-6.55,0-9.9-4.1-9.92-12.84h23.81C215.86,66.87,216.16,66.53,216.16,64.78ZM191,58.52l.07-.83c.29-3.21,1-10.73,7.67-10.73,6.55,0,6.59,7.67,6.59,11.56Z"/><path class="cls-2" d="M258.5,79.19c-.58-1.85-.94-3.79-.94-8.46V23.52c0-.91-.08-1-.94-1H242.79c-1.29,0-1.51.12-1.51,1.65,0,5,1.33,6.64,5.48,6.73H247V41.76l-.85-.58a12.83,12.83,0,0,0-8.34-2.61c-10.77,0-16.49,9.46-16.49,27.3,0,15.08,5.2,23.4,14.68,23.4,7.48,0,12.43-5.49,12.43-5.49l.6,2c.45,1.6.5,1.78,1.81,1.78H263c1.28,0,1.5-.12,1.5-1.66C264.51,80.87,263.16,79.19,258.5,79.19Zm-19,1c-6.38,0-7.65-5.84-7.65-16,0-10.75,1.33-16.55,8.18-16.55a11.8,11.8,0,0,1,7,2.05V76.61A9,9,0,0,1,239.51,80.2Z"/></g></g></svg>