<svg xmlns="http://www.w3.org/2000/svg" viewBox="0 0 225.82 84.75">
  <g id="Layer_2" data-name="Layer 2">
    <g id="Layer_1-2" data-name="Layer 1">
      <path d="M108.33 0a18 18 0 1018 18 18 18 0 00-18-18zm5.42 19.86h-3.57v3.53h-3.73v-3.53h-3.54V16.2h3.54v-3.59h3.73v3.59h3.57zM60.79 0a18 18 0 1018 18 18 18 0 00-18-18zm5.62 22.77a4.39 4.39 0 01-1 1.36 5.45 5.45 0 01-1.43.94 6.56 6.56 0 01-1.42.46v2.24h-2.88v-2.13a7.56 7.56 0 01-2.68-.83 7.89 7.89 0 01-2.12-1.59l-.21-.22 2.53-2.81.28.3a6.18 6.18 0 001.58 1.17 4.16 4.16 0 002.77.45 1.67 1.67 0 00.53-.2.87.87 0 00.34-.32.95.95 0 00-.35-1.28 7.7 7.7 0 00-2.09-.74l-.57-.19a6.88 6.88 0 01-3.07-1.67 4 4 0 01-1.12-2.91 4.11 4.11 0 011.23-3.09 5.38 5.38 0 013-1.4v-2h2.91v2a5.9 5.9 0 012.17.75 10.49 10.49 0 011.49 1.1l.26.26-2.47 2.68-.29-.25a3.88 3.88 0 00-.46-.37 5.81 5.81 0 00-.61-.38 4.35 4.35 0 00-.74-.28 2.88 2.88 0 00-1.47 0 2.3 2.3 0 00-.61.2 1 1 0 00-.38.32.6.6 0 00-.13.4.76.76 0 00.47.73 9.87 9.87 0 002 .68 12.57 12.57 0 011.71.55 6.74 6.74 0 011.59.92A4.52 4.52 0 0166.32 19a4.3 4.3 0 01.45 2 4.1 4.1 0 01-.36 1.77zM153.87 19.84h4l-2-3.48-2 3.48z" class="cls-1"/>
      <path d="M155.87 0a18 18 0 1018 18 18 18 0 00-18-18zm-8.54 23.62l8.54-14.83 8.54 14.83z" class="cls-1"/>
      <path d="M0 57.13h7.92a15.19 15.19 0 014.47.63 9.58 9.58 0 013.55 1.92A8.66 8.66 0 0118.27 63a12.43 12.43 0 01.83 4.74 11.15 11.15 0 01-.85 4.54 9 9 0 01-2.34 3.24 9.85 9.85 0 01-3.55 1.94 14.86 14.86 0 01-4.47.65H0zm7.63 16.75a6.65 6.65 0 004.84-1.65 6 6 0 001.7-4.54 8.35 8.35 0 00-.39-2.63 5.36 5.36 0 00-1.2-2 5.34 5.34 0 00-2-1.28 8.27 8.27 0 00-2.93-.46H4.74v12.56zM21.33 70.7a8.21 8.21 0 01.58-3.06 7.92 7.92 0 011.62-2.5A7.44 7.44 0 0126 63.46a8.21 8.21 0 013.22-.61 8.08 8.08 0 013.2.61 7.6 7.6 0 012.49 1.68 7.72 7.72 0 011.61 2.5 8.39 8.39 0 010 6.13A7.57 7.57 0 0132.45 78a7.91 7.91 0 01-3.2.63A8 8 0 0126 78a7.48 7.48 0 01-2.5-1.7 7.76 7.76 0 01-1.62-2.49 8.26 8.26 0 01-.55-3.11zm7.92 4a3.25 3.25 0 002.62-1.22 3.8 3.8 0 00.68-1.27 5.18 5.18 0 00.22-1.47 5.11 5.11 0 00-.22-1.46 3.53 3.53 0 00-.68-1.28 3.31 3.31 0 00-1.11-.88 3.35 3.35 0 00-1.51-.33 3.4 3.4 0 00-1.52.33 3.07 3.07 0 00-1.12.88 4.08 4.08 0 00-.68 1.25 4.79 4.79 0 00-.23 1.46 4.86 4.86 0 00.23 1.47 4.43 4.43 0 00.68 1.27 3.1 3.1 0 001.12.89 3.4 3.4 0 001.52.32zM40 57.13h4.53v21H40zM48.35 57.13h4.52v21h-4.52zM65.13 76.7a5.05 5.05 0 01-1.9 1.36 6.78 6.78 0 01-2.56.47 6.94 6.94 0 01-1.67-.22 5.12 5.12 0 01-1.61-.74 4.07 4.07 0 01-1.22-1.4A4.45 4.45 0 0155.7 74a4.77 4.77 0 011.95-4 6.49 6.49 0 012.15-1 10 10 0 012.69-.35h1.58a5.47 5.47 0 011.06.1v-.32a1.85 1.85 0 00-.24-1 2.2 2.2 0 00-.63-.66 2.62 2.62 0 00-.89-.37 4.62 4.62 0 00-1.07-.11 7.13 7.13 0 00-2.5.37 8.75 8.75 0 00-1.68.85l-1.85-2.71a12.21 12.21 0 011.06-.69 8.25 8.25 0 011.42-.63 11.76 11.76 0 011.84-.48 14.74 14.74 0 012.34-.17 6.28 6.28 0 015 1.81 7 7 0 011.6 4.85v8.58h-4.28zm0-5.12l-.6-.08h-1a5 5 0 00-2.67.53 1.73 1.73 0 00-.78 1.51c0 1.21.73 1.82 2.2 1.82a3.49 3.49 0 001-.17 2.94 2.94 0 00.91-.49 2.61 2.61 0 00.65-.78 2.41 2.41 0 00.25-1.1zM73.29 63.35h4.34l.16 1.86a6.42 6.42 0 011.55-1.45 4.4 4.4 0 012.56-.69 7.36 7.36 0 011 .06 4.16 4.16 0 01.84.22l-.73 4a5.59 5.59 0 00-1.63-.22 3.56 3.56 0 00-2.59 1 3.62 3.62 0 00-1 2.72v7.29h-4.5zM87 73.53a5.77 5.77 0 001.9 1.1 6.62 6.62 0 002.28.44 4.64 4.64 0 001.66-.25 1 1 0 00.66-1 .92.92 0 00-.14-.52 1.17 1.17 0 00-.52-.44 6.36 6.36 0 00-1-.43c-.45-.14-1-.31-1.71-.5a11.51 11.51 0 01-1.68-.58 5.91 5.91 0 01-1.48-.9 4 4 0 01-1-1.28 3.69 3.69 0 01-.4-1.76 3.76 3.76 0 01.47-1.87 4.62 4.62 0 011.31-1.45 6.06 6.06 0 012-.94 8.81 8.81 0 012.46-.33 11.61 11.61 0 013.3.42 9.79 9.79 0 012.61 1.24l-1.92 3a9.78 9.78 0 00-1.8-.83 5.48 5.48 0 00-2.09-.38 2.86 2.86 0 00-1.5.3.9.9 0 00-.47.8c0 .49.32.84 1 1.07s1.53.49 2.64.79A6.87 6.87 0 0196.84 71a4.11 4.11 0 011 2.92 3.85 3.85 0 01-.55 2.1 4.46 4.46 0 01-1.47 1.46 7 7 0 01-2.11.87 10.16 10.16 0 01-2.4.28 13 13 0 01-3.74-.53 6.7 6.7 0 01-2.86-1.64z" class="cls-2"/>
      <path d="M106.23 70.44h-4v-4h4v-4.2h4.16v4.16h4v4h-4v4.1h-4.16z" class="cls-1"/>
      <path d="M138.51 74.22a9.48 9.48 0 01-1.6 1.71 10.45 10.45 0 01-2.09 1.4 12 12 0 01-2.48 1 11.08 11.08 0 01-2.78.34 11.26 11.26 0 01-4.37-.82 10.14 10.14 0 01-3.41-2.27 10.3 10.3 0 01-2.21-3.46 12.45 12.45 0 010-8.73 10.28 10.28 0 015.64-5.88 11.08 11.08 0 014.41-.86 11.41 11.41 0 015.11 1.07 9.61 9.61 0 013.63 3.08l-3.24 3.11a7.91 7.91 0 00-2.23-2.13 5.77 5.77 0 00-3.08-.8 6.1 6.1 0 00-2.54.52 5.49 5.49 0 00-1.92 1.43 6.62 6.62 0 00-1.21 2.07 8.07 8.07 0 000 5.14 6.18 6.18 0 001.21 2.07 5.49 5.49 0 001.88 1.38 5.86 5.86 0 002.49.51 7.15 7.15 0 002-.24 5.84 5.84 0 001.48-.63 5.63 5.63 0 001.14-.91c.34-.34.66-.69 1-1zM140.81 57.13h4.49v7.64a4.63 4.63 0 011.92-1.31 6.77 6.77 0 012.41-.45 5.54 5.54 0 014.07 1.5 6 6 0 011.53 4.49v9.11h-4.5v-8.44a2.86 2.86 0 00-.66-2 2.24 2.24 0 00-1.76-.73 2.9 2.9 0 00-1.28.27 3 3 0 00-.95.71 2.81 2.81 0 00-.56 1 3.88 3.88 0 00-.19 1.24v7.92h-4.52zM167.35 76.7a4.9 4.9 0 01-1.9 1.36 6.75 6.75 0 01-2.56.47 7.08 7.08 0 01-1.65-.22 5.07 5.07 0 01-1.6-.74 4.07 4.07 0 01-1.22-1.4 4.45 4.45 0 01-.49-2.2 4.86 4.86 0 01.52-2.29 4.72 4.72 0 011.43-1.68 6.4 6.4 0 012.12-1 9.93 9.93 0 012.68-.35h1.59a5.34 5.34 0 011 .1v-.32a2 2 0 00-.23-1 2.2 2.2 0 00-.63-.66 2.59 2.59 0 00-.9-.37 4.54 4.54 0 00-1.06-.11 7.13 7.13 0 00-2.5.37 8.75 8.75 0 00-1.68.85l-1.86-2.76a12.45 12.45 0 011.07-.69 8.25 8.25 0 011.42-.63 11.63 11.63 0 011.83-.46 14.74 14.74 0 012.34-.17 6.3 6.3 0 015 1.81 7 7 0 011.6 4.85v8.58h-4.24zm0-5.12l-.59-.08h-1a5 5 0 00-2.67.53 1.74 1.74 0 00-.79 1.51c0 1.21.74 1.82 2.2 1.82a3.51 3.51 0 001.06-.17 3.06 3.06 0 00.91-.49 2.58 2.58 0 00.64-.78 2.29 2.29 0 00.25-1.1zM175.58 63.35h4.34l.13 1.61a5.13 5.13 0 011.9-1.42 6 6 0 012.46-.53 5.45 5.45 0 014 1.5 6.14 6.14 0 011.53 4.49v9.11h-4.52V69.6a2.94 2.94 0 00-.61-1.94 2.11 2.11 0 00-1.72-.73 3.05 3.05 0 00-1.32.27 2.92 2.92 0 00-.94.71 2.81 2.81 0 00-.56 1 3.88 3.88 0 00-.19 1.24v7.92h-4.5zM196 80a7.63 7.63 0 001.87.83 7.53 7.53 0 002.19.3 3.45 3.45 0 002.42-.81 3.23 3.23 0 00.88-2.45v-1a5.55 5.55 0 01-3.77 1.13 7.38 7.38 0 01-2.82-.51 5.78 5.78 0 01-2.08-1.49 6.36 6.36 0 01-1.31-2.23 8.47 8.47 0 01-.45-2.82 8.26 8.26 0 01.61-3.25 7.18 7.18 0 011.73-2.52 7.65 7.65 0 012.67-1.62 10.23 10.23 0 013.47-.56 18.51 18.51 0 013.47.31 19.32 19.32 0 013 .79v13.52c0 2.42-.67 4.22-2 5.38a8.07 8.07 0 01-5.5 1.75 14.19 14.19 0 01-3.46-.38 8.86 8.86 0 01-2.7-1.19zm7.39-12.88a6 6 0 00-.88-.23 6.17 6.17 0 00-1.16-.08 4.06 4.06 0 00-1.7.33 3.5 3.5 0 00-1.21.88 3.3 3.3 0 00-.72 1.28 5.09 5.09 0 00-.24 1.56 3.89 3.89 0 00.77 2.54 2.73 2.73 0 002.25.95 3.08 3.08 0 002.13-.68 2.69 2.69 0 00.76-2.12zM225.5 76.48l-.75.52a7 7 0 01-1.3.71 12.53 12.53 0 01-1.9.61 10.64 10.64 0 01-2.52.27 9.35 9.35 0 01-3.39-.58 7.37 7.37 0 01-2.56-1.62 6.72 6.72 0 01-1.6-2.5 9 9 0 01-.55-3.22 8.6 8.6 0 01.52-3 7.28 7.28 0 011.49-2.49 7.11 7.11 0 012.39-1.72 7.62 7.62 0 013.2-.64 7.36 7.36 0 013.14.63 6.54 6.54 0 012.33 1.77 7.72 7.72 0 011.4 2.67 11.91 11.91 0 01.47 3.41v.75h-10.54a2.79 2.79 0 001 2.09 4.11 4.11 0 002.81.9 6.68 6.68 0 002.86-.52 9.42 9.42 0 001.6-.89zm-3.95-7.31a2.73 2.73 0 00-.19-1 2.89 2.89 0 00-1.51-1.57 3.13 3.13 0 00-1.35-.27 3.3 3.3 0 00-1.38.27 3 3 0 00-1 .67 2.78 2.78 0 00-.6.9 2.36 2.36 0 00-.2 1z" class="cls-2"/>
    </g>
  </g>
</svg>
