<?xml version="1.0" encoding="utf-8"?>
<svg version="1.1" id="Layer_1" xmlns="http://www.w3.org/2000/svg" xmlns:xlink="http://www.w3.org/1999/xlink" x="0px" y="0px"
	 viewBox="0 0 146.4 118.3" style="enable-background:new 0 0 146.4 118.3;" xml:space="preserve">
<title>Interview Icon@2x</title>
<g id="Layer_2_1_">
	<g id="Layer_3">
		<path style="fill:none;stroke:#FADD0D;stroke-width:4;stroke-linecap:round;stroke-miterlimit:10;" d="M139,2H54.8
			c-3,0-5.4,2.4-5.4,5.3c0,0,0,0,0,0v51.3c0,3,2.4,5.4,5.3,5.4c0,0,0,0,0,0h24.2c1.4,0,2.8,0.6,3.8,1.6l11.7,11.6
			c1.3,1.3,3.5,1.3,4.8,0L111,65.5c1-1,2.4-1.5,3.8-1.6H139c3,0,5.4-2.4,5.4-5.4l0,0V7.4C144.4,4.4,142,2,139,2L139,2z"/>
		<circle style="fill:#FADD0D;stroke:#FADD0D;stroke-miterlimit:10;" cx="72.7" cy="33.2" r="5.5"/>
		<circle style="fill:#FADD0D;stroke:#FADD0D;stroke-miterlimit:10;" cx="121.7" cy="33.2" r="5.5"/>
		<circle style="fill:#FADD0D;stroke:#FADD0D;stroke-miterlimit:10;" cx="97.2" cy="33.2" r="5.5"/>
		<path style="fill:none;stroke:#FADD0D;stroke-width:4;stroke-linecap:round;stroke-miterlimit:10;" d="M49.5,40.1H7.4
			c-3,0-5.4,2.4-5.4,5.4l0,0v51.3c0,3,2.4,5.4,5.4,5.4l0,0h24.2c1.4,0,2.8,0.6,3.8,1.6L47,115.3c1.3,1.3,3.5,1.3,4.8,0c0,0,0,0,0,0
			l11.7-11.7c1-1,2.4-1.6,3.8-1.6h24.3c3,0,5.4-2.4,5.4-5.4l0,0V78.5"/>
	</g>
</g>
</svg>
