<svg viewBox="0 0 12.01 10.01" fill="none" xmlns="http://www.w3.org/2000/svg">
  <g clip-path="url(#clip0)">
    <path fill-rule="evenodd" clip-rule="evenodd" d="M3.41715 4.006h7.58365c.265 0 .5192.10525.7066.2926.1873.18735.2926.44145.2926.7064s-.1053.51905-.2926.7064c-.1874.18735-.4416.2926-.7066.2926H3.41715l2.29809 2.28771c.18813.18812.29382.44326.29382.70928-.00001.26603-.10571.52117-.29385.70928s-.44332.29383-.70939.29383-.52125-.1057-.7094-.29381l-3.996669-3.996c-.186096-.18718-.29055031-.44038-.29055028-.7043 2e-8-.26392.10445428-.51712.29055028-.70429L4.29642.309694c.18682-.188115.44073-.2943238.70588-.2952605.26514-.0009368.5198.1034745.70794.2902655.18815.186791.29438.44066.29531.705761.00094.2651-.10349.51971-.29031.70783L3.41715 4.006z" fill="#212121"/>
  </g>
  <defs>
    <clipPath id="clip0">
      <path transform="rotate(-180 12 10)" fill="#fff" d="M12 10h12v10H12z"/>
    </clipPath>
  </defs>
</svg>