<svg xmlns="http://www.w3.org/2000/svg" viewBox="0 0 77.31 77.31">
  <g data-name="Layer 2">
    <g data-name="Layer 3">
      <path fill="#f9dc0d" d="M26.1 28.56a3.94 3.94 0 01-4.22-4 4 4 0 014.31-4 4 4 0 014.27 4c-.02 2.24-1.69 4-4.36 4zm3.83 26.12h-7.65v-23h7.65zm27.54 0h-7.63V42.39c0-3.09-1.12-5.2-3.88-5.2A4.18 4.18 0 0042 40a6 6 0 00-.25 1.88v12.8h-7.6c.1-20.83 0-23 0-23h7.64V35a7.58 7.58 0 016.94-3.87c5 0 8.79 3.29 8.79 10.34z"/>
      <path fill="none" stroke="#fff" stroke-linecap="round" stroke-miterlimit="10" stroke-width="2" d="M1 1h75.31v75.31H1z"/>
    </g>
  </g>
</svg>
