<?xml version="1.0" encoding="UTF-8"?>
<svg width="32px" height="48px" viewBox="0 0 32 48" version="1.1" xmlns="http://www.w3.org/2000/svg" xmlns:xlink="http://www.w3.org/1999/xlink">
    <g id="map-pin" stroke="none" stroke-width="1" fill="none" fill-rule="evenodd">
        <g fill="#FFFFFF" fill-rule="nonzero" id="Shape">
            <path d="M16,47.759 L15.177,46.568 C14.558,45.671 0,24.499 0,16 C0,7.178 7.178,0 16,0 C24.822,0 32,7.178 32,16 C32,24.499 17.442,45.671 16.823,46.568 L16,47.759 Z M16,2 C8.28,2 2,8.28 2,16 C2,22.787 12.885,39.555 16,44.214 C19.115,39.555 30,22.787 30,16 C30,8.28 23.72,2 16,2 Z"></path>
            <path d="M16,23 C12.141,23 9,19.86 9,16 C9,12.14 12.141,9 16,9 C19.859,9 23,12.14 23,16 C23,19.86 19.859,23 16,23 Z M16,11 C13.243,11 11,13.243 11,16 C11,18.757 13.243,21 16,21 C18.757,21 21,18.757 21,16 C21,13.243 18.757,11 16,11 Z"></path>
        </g>
    </g>
</svg>