<svg width="32" height="46" fill="none" xmlns="http://www.w3.org/2000/svg">
  <g clip-path="url(#clip0)" fill="#FADD0D">
    <path fill-rule="evenodd" clip-rule="evenodd" d="M28.1788 4.73171h-7.6517l-.0644-.13335C19.713 2.96288 18.4266 1.63292 16.817.82917 15.2074.0254177 13.3713-.203804 11.6135.179543 9.85571.56289 8.28182 1.53576 7.15302 2.93671 6.02421 4.33766 5.40837 6.08246 5.40767 7.88159V24.1138c0 2.0916.83087 4.0974 2.30982 5.5764C9.19643 31.1691 11.2023 32 13.2939 32c2.0915 0 4.0974-.8309 5.5763-2.3098 1.479-1.479 2.3099-3.4848 2.3099-5.5764v-6.3181h6.9895c1.0143 0 1.9872-.4023 2.7052-1.1187.7181-.7164 1.1228-1.6883 1.1252-2.7026V8.55755c0-1.01388-.4024-1.9863-1.1189-2.70366-.7165-.71735-1.6885-1.12096-2.7023-1.12218zM18.9315 24.1138c0 .7403-.1459 1.4734-.4292 2.1574-.2833.684-.6986 1.3055-1.2221 1.829-.5235.5235-1.1449.9387-1.8289 1.2221-.684.2833-1.4171.4291-2.1574.4291-.7404 0-1.4735-.1458-2.1574-.4291-.684-.2834-1.30552-.6986-1.82901-1.2221-.5235-.5235-.93877-1.145-1.22208-1.829-.28332-.684-.42914-1.4171-.42914-2.1574V7.88159c.00181-1.1677.36588-2.30607 1.04198-3.25812.67611-.95204 1.63095-1.67087 2.73285-2.05734 1.1019-.38647 2.2965-.42154 3.4192-.10037 1.1226.32116 2.118.98273 2.8488 1.89348l.2989.37247h-.653c-1.0139.00122-1.9858.40483-2.7023 1.12218-.7165.71736-1.1189 1.68978-1.1189 2.70366V19.3821c.0047.2003.0627.3957.168.5662.1054.1704.2543.3096.4314.4033.1771.0937.376.1385.5762.1297.2001-.0087.3943-.0707.5626-.1795l3.6787-2.3958-.0092 6.2078zm10.8199-10.1164c-.0012.4187-.1684.8199-.4649 1.1156-.2965.2956-.6982.4616-1.1169.4616h-9.3761c-.2189.0002-.433.0641-.6162.184l-2.4095 1.5726V8.59433c0-.41873.166-.82038.4617-1.1169.2956-.29652.6968-.46372 1.1155-.46493h10.8338c.4179.00243.8179.17016 1.1126.46654.2946.29639.46.69735.46 1.11529v5.40307z"/>
    <path d="M28.1788 4.73171h-7.6517l-.0644-.13335C19.713 2.96288 18.4266 1.63292 16.817.82917 15.2074.0254177 13.3713-.203804 11.6135.179543 9.85571.56289 8.28182 1.53576 7.15302 2.93671 6.02421 4.33766 5.40837 6.08246 5.40767 7.88159V24.1138c0 2.0916.83087 4.0974 2.30982 5.5764C9.19643 31.1691 11.2023 32 13.2939 32c2.0915 0 4.0974-.8309 5.5763-2.3098 1.479-1.479 2.3099-3.4848 2.3099-5.5764v-6.3181h6.9895c1.0143 0 1.9872-.4023 2.7052-1.1187.7181-.7164 1.1228-1.6883 1.1252-2.7026V8.55755c0-1.01388-.4024-1.9863-1.1189-2.70366-.7165-.71735-1.6885-1.12096-2.7023-1.12218zM18.9315 24.1138c0 .7403-.1459 1.4734-.4292 2.1574-.2833.684-.6986 1.3055-1.2221 1.829-.5235.5235-1.1449.9387-1.8289 1.2221-.684.2833-1.4171.4291-2.1574.4291-.7404 0-1.4735-.1458-2.1574-.4291-.684-.2834-1.30552-.6986-1.82901-1.2221-.5235-.5235-.93877-1.145-1.22208-1.829-.28332-.684-.42914-1.4171-.42914-2.1574V7.88159c.00181-1.1677.36588-2.30607 1.04198-3.25812.67611-.95204 1.63095-1.67087 2.73285-2.05734 1.1019-.38647 2.2965-.42154 3.4192-.10037 1.1226.32116 2.118.98273 2.8488 1.89348l.2989.37247h-.653c-1.0139.00122-1.9858.40483-2.7023 1.12218-.7165.71736-1.1189 1.68978-1.1189 2.70366V19.3821c.0047.2003.0627.3957.168.5662.1054.1704.2543.3096.4314.4033.1771.0937.376.1385.5762.1297.2001-.0087.3943-.0707.5626-.1795l3.6787-2.3958-.0092 6.2078zm10.8199-10.1164c-.0012.4187-.1684.8199-.4649 1.1156-.2965.2956-.6982.4616-1.1169.4616h-9.3761c-.2189.0002-.433.0641-.6162.184l-2.4095 1.5726V8.59433c0-.41873.166-.82038.4617-1.1169.2956-.29652.6968-.46372 1.1155-.46493h10.8338c.4179.00243.8179.17016 1.1126.46654.2946.29639.46.69735.46 1.11529v5.40307z"/>
    <path d="M26.5877 11.266c0 .2219-.0658.4388-.1891.6233-.1232.1845-.2985.3284-.5035.4133-.205.0849-.4306.1071-.6483.0638-.2176-.0433-.4175-.1501-.5744-.307-.157-.157-.2638-.3569-.3071-.5745-.0433-.2177-.0211-.4433.0638-.6483.085-.205.2288-.3802.4133-.5035.1845-.1233.4014-.1891.6233-.1891.2976 0 .583.1182.7934.3286.2104.2104.3286.4958.3286.7934zM21.1801 11.266c.0009.2232-.0646.4416-.188.6276-.1234.186-.2993.3311-.5054.4169-.206.0859-.4329.1086-.6519.0652-.219-.0433-.4201-.1507-.578-.3085-.1578-.1578-.2652-.359-.3085-.578-.0433-.2189-.0206-.4458.0652-.6519.0858-.206.231-.3819.4169-.5054.186-.1234.4044-.1888.6277-.1879.2972.0012.5818.1198.792.3299.2101.2102.3287.4949.33.7921zM14.4159 37.4077v5.8721h5.6422c.2975 0 .5829.1182.7933.3286.2104.2104.3287.4958.3287.7934 0 .2975-.1183.5829-.3287.7933-.2104.2105-.4958.3287-.7933.3287H6.52967c-.29757 0-.58295-.1182-.79337-.3287-.21042-.2104-.32863-.4958-.32863-.7933 0-.2976.11821-.583.32863-.7934.21042-.2104.4958-.3286.79337-.3286h5.64223v-5.8721h-.2162C5.97787 37.4077 0 32.0552 0 25.4519c0-.2975.11821-.5829.328626-.7933.210416-.2105.495801-.3287.793374-.3287.29757 0 .58296.1182.79337.3287.21042.2104.32863.4958.32863.7933 0 5.3433 4.90185 9.7853 11.0361 9.7853 1.1937.0497 2.3891-.0476 3.5591-.2897 1.3838-.3283 2.6788-.9562 3.7937-1.8393 1.1044-.8696 2.0079-1.9676 2.6486-3.2189.3256-.6352.58-1.3045.7587-1.9956.1799-.7102.2801-1.4381.2989-2.1705v-.2483c0-.2976.1182-.5829.3287-.7934.2104-.2104.4958-.3286.7933-.3286.2976 0 .583.1182.7934.3286.2104.2105.3286.4958.3286.7934 0 1.5701-.3092 3.1247-.91 4.5753-.6009 1.4505-1.4815 2.7685-2.5917 3.8787-1.1102 1.1102-2.4282 1.9909-3.8787 2.5917-1.4506.6008-3.0053.9101-4.5753.9101l-.2115-.023z"/>
  </g>
  <defs>
    <clipPath id="clip0">
      <path fill="#fff" d="M0 0h32v45.5238H0z"/>
    </clipPath>
  </defs>
</svg>