<?xml version="1.0" encoding="UTF-8"?>
<svg width="25px" height="25px" viewBox="0 0 25 25" version="1.1" xmlns="http://www.w3.org/2000/svg" xmlns:xlink="http://www.w3.org/1999/xlink">
    <!-- Generator: Sketch 63.1 (92452) - https://sketch.com -->
    <title>toolsicon</title>
    <desc>Created with Sketch.</desc>
    <g id="Page-1" stroke="none" stroke-width="1" fill="none" fill-rule="evenodd">
        <g id="toolsicon" fill="#FFFFFF" fill-rule="nonzero">
            <path d="M4.41151186,0.118356259 C4.29381366,0.12021352 4.18145654,0.167795476 4.09822122,0.251031269 L0.251969056,4.0973378 C0.0751022355,4.27429342 0.0751022355,4.56110099 0.251969056,4.7380566 L7.94093012,12.4287665 L2.42555547,17.9442045 C2.42249207,17.9471824 2.41947093,17.9502036 2.41649297,17.953267 C2.40913499,17.961168 2.40206173,17.9693294 2.39528671,17.9777357 C2.3668353,18.0119039 2.34356726,18.0500733 2.32623046,18.091017 C2.32242296,18.0996647 2.31888686,18.1084294 2.31562733,18.1172982 C2.31302763,18.1244859 2.31061019,18.1317382 2.30837733,18.1390482 L0.713585653,22.9251361 C0.659997581,23.0878481 0.702742762,23.2668708 0.824060671,23.3878207 C0.945378579,23.5087705 1.12453035,23.5509715 1.28707882,23.4968892 L6.09267869,21.8950016 C6.1059148,21.8901729 6.11891851,21.8847294 6.13164744,21.8786891 C6.13285577,21.878694 6.13406412,21.878694 6.13527244,21.8786891 C6.16195807,21.8669721 6.18745115,21.8527082 6.21139745,21.8360954 C6.21200162,21.8360966 6.21260578,21.8360966 6.21320995,21.8360954 C6.22482373,21.8278678 6.23604346,21.8190977 6.24683183,21.8098141 C6.24743599,21.8098153 6.24804016,21.8098153 6.24864433,21.8098141 C6.26038388,21.79982 6.27160577,21.7892333 6.28226621,21.7780954 L11.785252,16.2750731 L19.4759891,23.9640611 C19.6529478,24.1409461 19.9397764,24.1409461 20.1167351,23.9640611 L23.9629872,20.1178452 C24.1399145,19.9408792 24.1399145,19.6540018 23.9629872,19.4770358 L16.2722501,11.7863259 L21.3645961,6.69401612 C21.3743901,6.68566129 21.3838237,6.67689292 21.3928711,6.66773487 L22.9965078,5.06584725 C23.7010175,4.36132845 23.699341,3.20740024 22.9946953,2.50279081 L21.7132033,1.22135322 C21.3609349,0.869093814 20.8963911,0.692103176 20.4317114,0.692103176 C19.9670226,0.692103176 19.5024425,0.869093814 19.1502103,1.22135322 L17.5483499,2.82324083 C17.537198,2.83327913 17.5265516,2.84386509 17.5164499,2.85495959 L12.4294145,7.94201309 L4.7386772,0.253115644 C4.65198576,0.166376543 4.53384145,0.118356259 4.41122186,0.120350009 L4.41151186,0.118356259 Z M4.41876186,1.21220009 L11.7891307,8.58073813 L9.86511651,10.5047977 L9.54474805,10.1844383 L8.26324702,11.4658758 L8.58362454,11.7863259 L8.58181204,11.7863259 L3.77620338,6.97894114 L5.05947205,5.69741292 L4.41871655,5.05669412 L3.13545739,6.33813172 L2.49471141,5.69741292 L4.41871655,3.7751659 L3.77620338,3.13444711 L1.85396542,5.05669412 L1.21321944,4.4158847 L4.41871655,1.21038759 L4.41876186,1.21220009 Z M20.4321373,1.58920012 C20.662352,1.58920012 20.8925486,1.67982512 21.0728833,1.85998764 L22.3543752,3.14151586 C22.7150265,3.50220338 22.7149178,4.06244718 22.3543752,4.42304408 L21.0728833,5.70448167 L18.5098903,3.14151586 L19.7913913,1.85998764 C19.9716626,1.6797345 20.2019135,1.58920012 20.4321373,1.58920012 L20.4321373,1.58920012 Z M17.8691443,3.78223465 L18.8302678,4.74340348 L4.34796561,19.225642 L3.3868421,18.2645639 L8.87921613,12.7704228 C8.88712491,12.7637399 8.89480234,12.7567879 8.90223488,12.7495791 L12.7502542,8.90155066 L17.8691534,3.78259715 L17.8691443,3.78223465 Z M19.4710138,5.38412227 L20.4321373,6.34529109 L15.3362479,11.4411352 C15.3283082,11.4484114 15.3206304,11.4559683 15.3132291,11.4637915 L11.4652098,15.3118199 L5.94982649,20.8271672 L4.98870298,19.866089 L19.4710047,5.38375977 L19.4710138,5.38412227 Z M6.34100933,5.69922542 L4.41876186,7.62147244 L5.05951736,8.26219124 L6.98175505,6.33994422 L6.34100933,5.69922542 L6.34100933,5.69922542 Z M6.98175505,7.62147244 L5.70026335,8.90291003 L6.34100933,9.54371946 L7.62250103,8.26219124 L6.98175505,7.62147244 Z M8.903993,8.26219124 L6.98175505,10.1844383 L7.62250103,10.8251571 L9.54474805,8.90291003 L8.903993,8.26219124 Z M15.6336066,12.4252322 L23.002199,19.7956733 L19.7967019,23.0011705 L19.1559469,22.360361 L20.4392151,21.0789234 L19.7967019,20.438114 L18.5152009,21.7196422 L17.8744549,21.0789234 L19.7967019,19.1566764 L19.1559469,18.515867 L17.2337089,20.438114 L16.5929629,19.7973952 L17.8744549,18.515867 L17.2337089,17.8751482 L15.952217,19.1566764 L15.311471,18.515867 L17.2337089,16.59362 L16.5929629,15.9529012 L14.6707159,17.8751482 L14.0299699,17.2344294 L15.311471,15.9529012 L14.6707159,15.3121824 L13.389224,16.59362 L12.748478,15.9529012 L14.6707159,14.0306542 L14.3485803,13.7102948 L14.3485803,13.7102948 L15.6336066,12.4270447 L15.6336066,12.4252322 Z M2.94433832,19.1035702 L5.11084737,21.2700516 L1.86108855,22.3551048 L2.94433832,19.1035702 L2.94433832,19.1035702 Z" id="Shape"></path>
        </g>
    </g>
</svg>