<svg xmlns="http://www.w3.org/2000/svg" viewBox="0 0 77.31 77.31">
  <g data-name="Layer 2">
    <g data-name="Layer 3">
      <path fill="#f9dc0d" d="M59 30.23v1.23c0 12.54-9.54 27-27 27a26.8 26.8 0 01-14.56-4.25 21.55 21.55 0 002.29.11 19 19 0 0011.77-4 9.51 9.51 0 01-8.87-6.58 11.81 11.81 0 001.8.15A10.23 10.23 0 0027 43.5a9.49 9.49 0 01-7.6-9.31v-.12a9.49 9.49 0 004.28 1.21 9.5 9.5 0 01-2.93-12.68 27 27 0 0019.55 9.92 10.52 10.52 0 01-.23-2.17 9.49 9.49 0 0116.41-6.49 18.91 18.91 0 006-2.29 9.49 9.49 0 01-4.17 5.22 19.08 19.08 0 005.46-1.46 20.5 20.5 0 01-4.77 4.9z"/>
      <path fill="none" stroke="#fff" stroke-linecap="round" stroke-miterlimit="10" stroke-width="2" d="M1 1h75.31v75.31H1z"/>
    </g>
  </g>
</svg>
