<?xml version="1.0" encoding="UTF-8"?>
<svg width="203px" height="248px" viewBox="0 0 203 248" version="1.1" xmlns="http://www.w3.org/2000/svg" xmlns:xlink="http://www.w3.org/1999/xlink">
    <!-- Generator: Sketch 63.1 (92452) - https://sketch.com -->
    <title>4 - Advisory Capacity</title>
    <desc>Created with Sketch.</desc>
    <g id="Page-1" stroke="none" stroke-width="1" fill="none" fill-rule="evenodd">
        <g id="4---Advisory-Capacity" transform="translate(1.000000, 1.000000)">
            <rect id="Rectangle" fill="#E3E4E5" fill-rule="nonzero" transform="translate(20.417855, 103.230666) rotate(-21.330000) translate(-20.417855, -103.230666) " x="6.20590537" y="97.8008164" width="28.4238985" height="10.8596994"></rect>
            <polygon id="Path" fill="#2F3335" fill-rule="nonzero" opacity="0.22" points="5.79819969 104.839294 32.9765982 96.3115948 35.6371981 103.111494 9.16369951 113.451794"></polygon>
            <rect id="Rectangle" stroke="#202020" stroke-width="1.58999991" stroke-linecap="round" stroke-linejoin="round" transform="translate(20.417855, 103.230666) rotate(-21.330000) translate(-20.417855, -103.230666) " x="6.20590537" y="97.8008164" width="28.4238985" height="10.8596994"></rect>
            <polygon id="Path" fill="#2F3335" fill-rule="nonzero" opacity="0.22" points="21.5709988 96.9475948 31.6833983 92.999095 35.6371981 103.111494 23.0284988 108.035194"></polygon>
            <polygon id="Path" fill="#2F3335" fill-rule="nonzero" opacity="0.22" points="7.78569958 109.937894 34.5506981 100.334295 35.6371981 103.111494 9.16369951 113.451794"></polygon>
            <rect id="Rectangle" fill="#E3E4E5" fill-rule="nonzero" transform="translate(6.621224, 108.616619) rotate(-21.330000) translate(-6.621224, -108.616619) " x="3.15237408" y="100.001469" width="6.93769963" height="17.2302991"></rect>
            <rect id="Rectangle" fill="#E3E4E5" fill-rule="nonzero" transform="translate(46.974192, 92.863889) rotate(-21.330000) translate(-46.974192, -92.863889) " x="27.7404926" y="82.9316892" width="38.4673979" height="19.8643989"></rect>
            <polygon id="Path" fill="#2F3335" fill-rule="nonzero" opacity="0.22" points="68.5077963 95.1084949 32.6797982 109.100494 26.1554986 92.400195 62.7201966 80.2949957"></polygon>
            <rect id="Rectangle" stroke="#202020" stroke-width="1.58999991" stroke-linecap="round" stroke-linejoin="round" transform="translate(46.974192, 92.863889) rotate(-21.330000) translate(-46.974192, -92.863889) " x="27.7404926" y="82.9316892" width="38.4673979" height="19.8643989"></rect>
            <polygon id="Path" fill="#2F3335" fill-rule="nonzero" opacity="0.22" points="66.5838964 95.8610948 56.142897 99.9367946 51.0760972 80.5917956 59.3546968 77.3587958"></polygon>
            <rect id="Rectangle" stroke="#202020" stroke-width="1.58999991" stroke-linecap="round" stroke-linejoin="round" transform="translate(6.621224, 108.616619) rotate(-21.330000) translate(-6.621224, -108.616619) " x="3.15237408" y="100.001469" width="6.93769963" height="17.2302991"></rect>
            <polygon id="Path" fill="#2F3335" fill-rule="nonzero" opacity="0.22" points="12.9955993 115.375694 6.53489965 117.898494 0.980499947 103.678594 7.88639957 102.289994"></polygon>
            <polygon id="Path" fill="#2F3335" fill-rule="nonzero" opacity="0.22" points="12.9955993 115.375694 6.53489965 117.898494 4.84419974 113.568394 11.4426994 111.390094"></polygon>
            <polygon id="Path" fill="#2F3335" fill-rule="nonzero" opacity="0.22" points="68.5077963 95.1084949 32.6797982 109.100494 30.1251984 102.565594 67.0502964 91.3772951"></polygon>
            <polygon id="Path" fill="#E3E4E5" fill-rule="nonzero" points="141.891592 69.7002962 64.0504965 99.4915946 55.029897 76.4047959 132.462893 45.5481975"></polygon>
            <polygon id="Path" fill="#2F3335" fill-rule="nonzero" opacity="0.22" points="141.891592 69.7002962 64.0822965 99.5816946 56.026297 78.9540957 134.015793 49.5284973"></polygon>
            <polygon id="Path" fill="#2F3335" fill-rule="nonzero" opacity="0.22" points="141.891592 69.7002962 126.378493 74.888996 121.990093 50.2492973 132.462893 45.5481975"></polygon>
            <polygon id="Path" stroke="#202020" stroke-width="1.58999991" stroke-linecap="round" stroke-linejoin="round" points="141.891592 69.7002962 64.0504965 99.4915946 55.029897 76.4047959 132.462893 45.5481975"></polygon>
            <polygon id="Path" fill="#2F3335" fill-rule="nonzero" opacity="0.22" points="141.891592 69.7002962 64.1617965 99.7777946 59.6461968 88.2184952 138.616193 62.8897966"></polygon>
            <path d="M181.02149,40.5025978 C184.55659,49.5496973 181.89599,59.0525968 176.19319,61.2679967 C170.490391,63.4833966 163.006791,57.9660969 159.471691,48.9189974 C155.936592,39.8718978 157.696191,30.7399983 163.398991,28.5033985 C169.101791,26.2667986 177.48639,31.4501983 181.02149,40.5025978 Z" id="Path" fill="#E3E4E5" fill-rule="nonzero"></path>
            <path d="M180.36429,44.0429976 C181.263105,45.80702 182.011299,47.643817 182.60089,49.5337973 C182.688202,46.4536555 182.147205,43.3880056 181.01089,40.5237978 C177.47579,31.4713983 169.085891,26.2985986 163.388391,28.5245985 C162.611416,28.8305045 161.893937,29.2699602 161.268391,29.8230984 C166.859891,28.5563985 175.398191,34.3227981 180.36429,44.0429976 Z" id="Path" fill="#FFFFFF" fill-rule="nonzero"></path>
            <path d="M167.649591,28.0899985 C172.689891,28.8478984 178.29729,33.5224982 181.02149,40.4972978 C183.98419,48.0868974 182.61149,55.989197 178.70009,59.6514968" id="Path" stroke="#202020" stroke-width="1.58999991" stroke-linecap="round" stroke-linejoin="round"></path>
            <polygon id="Path" fill="#E3E4E5" fill-rule="nonzero" points="181.44549 59.4712968 135.425593 74.353696 124.549993 46.5127975 168.476391 26.2614986"></polygon>
            <polygon id="Path" stroke="#202020" stroke-width="1.58999991" stroke-linecap="round" stroke-linejoin="round" points="181.44549 59.4712968 135.425593 74.353696 124.549993 46.5127975 168.476391 26.2614986"></polygon>
            <polygon id="Path" fill="#2F3335" fill-rule="nonzero" opacity="0.22" points="181.44549 59.4712968 135.425593 74.353696 125.625893 49.2634973 170.596391 31.6939983"></polygon>
            <polygon id="Path" fill="#2F3335" fill-rule="nonzero" opacity="0.22" points="181.44549 59.4712968 135.425593 74.353696 130.591993 61.9728967 176.93519 47.9225974"></polygon>
            <path d="M98.3838947,68.6879948 L98.3838947,68.6879948 C103.60293,68.6879948 107.833794,72.9188604 107.833794,78.1378958 L107.833794,98.0499947 L88.9286937,98.0499947 L88.9286937,78.1431958 C88.9272881,75.6350899 89.9230062,73.2293053 91.6965052,71.4558063 C93.4700042,69.6823073 95.8757888,68.6865892 98.3838947,68.6879948 Z" id="Path" fill="#414547" fill-rule="nonzero"></path>
            <path d="M103.879994,70.4581962 C104.742474,72.2996838 105.191122,74.3077412 105.194394,76.3411959 L105.194394,98.0499947 L107.844394,98.0499947 L107.844394,78.1431958 C107.843876,75.0910584 106.366804,72.22775 103.879994,70.4581962 L103.879994,70.4581962 Z" id="Path" fill="#E3E4E5" fill-rule="nonzero" opacity="0.33"></path>
            <circle id="Oval" fill="#E3E4E5" fill-rule="nonzero" cx="98.3838947" cy="78.7367957" r="3.32309982"></circle>
            <path d="M98.3838947,68.6879948 L98.3838947,68.6879948 C103.60293,68.6879948 107.833794,72.9188604 107.833794,78.1378958 L107.833794,98.0499947 L88.9286937,98.0499947 L88.9286937,78.1431958 C88.9272881,75.6350899 89.9230062,73.2293053 91.6965052,71.4558063 C93.4700042,69.6823073 95.8757888,68.6865892 98.3838947,68.6879948 Z" id="Path" stroke="#202020" stroke-width="1.58999991" stroke-linecap="round" stroke-linejoin="round"></path>
            <path d="M100.752995,80.3320957 C100.997022,79.9040382 101.126623,79.4203182 101.129295,78.9275957 C101.12491,77.9362507 100.614276,77.0158783 99.775485,76.487472 C98.9366937,75.9590657 97.886055,75.8958966 96.9899948,76.3199959 C98.9627504,76.7338229 100.466294,78.3368964 100.752995,80.3320957 Z" id="Path" fill="#FFFFFF" fill-rule="nonzero"></path>
            <circle id="Oval" stroke="#202020" stroke-width="1.58999991" stroke-linecap="round" stroke-linejoin="round" cx="98.3838947" cy="78.7367957" r="3.32309982"></circle>
            <polygon id="Path" fill="#414547" fill-rule="nonzero" points="147.716292 220.824488 152.099392 220.824488 108.538694 101.802395 100.816595 101.802395"></polygon>
            <polygon id="Path" stroke="#202020" stroke-width="1.58999991" stroke-linecap="round" stroke-linejoin="round" points="147.716292 220.824488 152.099392 220.824488 108.538694 101.802395 100.816595 101.802395"></polygon>
            <line x1="149.952892" y1="221.423388" x2="154.251192" y2="232.510987" id="Path" stroke="#202020" stroke-width="1.58999991" stroke-linecap="round" stroke-linejoin="round"></line>
            <line x1="156.683892" y1="232.940287" x2="151.813192" y2="232.940287" id="Path" stroke="#202020" stroke-width="1.58999991" stroke-linecap="round" stroke-linejoin="round"></line>
            <polygon id="Path" fill="#414547" fill-rule="nonzero" points="49.5973973 220.824488 45.2089976 220.824488 88.7749952 101.802395 96.4917948 101.802395"></polygon>
            <polygon id="Path" stroke="#202020" stroke-width="1.58999991" stroke-linecap="round" stroke-linejoin="round" points="49.5973973 220.824488 45.2089976 220.824488 88.7749952 101.802395 96.4917948 101.802395"></polygon>
            <line x1="47.3554974" y1="221.423388" x2="43.0571977" y2="232.510987" id="Path" stroke="#202020" stroke-width="1.58999991" stroke-linecap="round" stroke-linejoin="round"></line>
            <line x1="40.6244978" y1="232.940287" x2="45.4951975" y2="232.940287" id="Path" stroke="#202020" stroke-width="1.58999991" stroke-linecap="round" stroke-linejoin="round"></line>
            <polygon id="Path" fill="#414547" fill-rule="nonzero" points="100.578095 234.376587 96.1896948 234.376587 94.5254949 101.802395 102.242294 101.802395"></polygon>
            <polygon id="Path" stroke="#202020" stroke-width="1.58999991" stroke-linecap="round" stroke-linejoin="round" points="100.578095 234.376587 96.1896948 234.376587 94.5254949 101.802395 102.242294 101.802395"></polygon>
            <line x1="95.9458948" y1="245.988887" x2="100.816595" y2="245.988887" id="Path" stroke="#202020" stroke-width="1.58999991" stroke-linecap="round" stroke-linejoin="round"></line>
            <line x1="98.3838947" y1="234.376587" x2="98.3838947" y2="245.988887" id="Path" stroke="#202020" stroke-width="1.58999991" stroke-linecap="round" stroke-linejoin="round"></line>
            <rect id="Rectangle" fill="#414547" fill-rule="nonzero" x="84.7310954" y="95.4847948" width="27.3108985" height="6.31759966" rx="3.15879983"></rect>
            <rect id="Rectangle" stroke="#202020" stroke-width="1.58999991" stroke-linecap="round" stroke-linejoin="round" x="84.7310954" y="95.4847948" width="27.3108985" height="6.31759966" rx="3.15879983"></rect>
            <path d="M96.2744948,76.7863959 C95.7868948,76.7863959 95.0713949,78.2226958 94.9865949,78.7049958 C94.6551177,80.1255075 95.5339628,81.5468202 96.9528948,81.8849956 C97.3291947,81.9538956 100.101095,81.4927956 100.493295,80.0829957 C99.4709629,80.4416067 98.3363931,80.2550554 97.4827095,79.587981 C96.6290259,78.9209066 96.1736978,77.8651006 96.2744948,76.7863959 Z" id="Path" fill="#2F3335" fill-rule="nonzero" opacity="0.22"></path>
            <circle id="Oval" stroke="#B9BDC1" stroke-width="1.58999991" stroke-linecap="round" stroke-linejoin="round" cx="187.23839" cy="15.3805992" r="2.69769985"></circle>
            <line x1="165.730991" y1="0.264999986" x2="160.436291" y2="5.78229969" id="Path" stroke="#B9BDC1" stroke-width="1.58999991" stroke-linecap="round" stroke-linejoin="round"></line>
            <line x1="165.842291" y1="5.67099969" x2="160.330291" y2="0.37629998" id="Path" stroke="#B9BDC1" stroke-width="1.58999991" stroke-linecap="round" stroke-linejoin="round"></line>
            <circle id="Oval" stroke="#B9BDC1" stroke-width="1.58999991" stroke-linecap="round" stroke-linejoin="round" cx="96.9369948" cy="26.3462986" r="2.16769988"></circle>
            <line x1="85.4306954" y1="37.333198" x2="81.4079956" y2="44.4139976" id="Path" stroke="#B9BDC1" stroke-width="1.58999991" stroke-linecap="round" stroke-linejoin="round"></line>
            <line x1="86.9570953" y1="42.8822977" x2="79.8762957" y2="38.8648979" id="Path" stroke="#B9BDC1" stroke-width="1.58999991" stroke-linecap="round" stroke-linejoin="round"></line>
            <line x1="200.339989" y1="94.0696949" x2="192.29989" y2="96.8998948" id="Path" stroke="#B9BDC1" stroke-width="1.58999991" stroke-linecap="round" stroke-linejoin="round"></line>
            <line x1="197.732389" y1="99.5021946" x2="194.902189" y2="91.4620951" id="Path" stroke="#B9BDC1" stroke-width="1.58999991" stroke-linecap="round" stroke-linejoin="round"></line>
            <circle id="Oval" stroke="#B9BDC1" stroke-width="1.58999991" stroke-linecap="round" stroke-linejoin="round" cx="134.641193" cy="96.3115948" r="2.69769985"></circle>
            <path d="M31.5455964,75.8482959 C31.5393428,49.6381109 46.888838,25.8552682 70.7750488,15.0653297 C94.6612595,4.27539114 122.653271,8.47990054 142.315592,25.8109986" id="Path" stroke="#202020" stroke-width="1.58999991" stroke-linecap="round" stroke-linejoin="round"></path>
            <path d="M65.8259964,134.132393 C58.4051059,129.998897 51.8397139,124.489363 46.4809975,117.898494" id="Path" stroke="#202020" stroke-width="1.58999991" stroke-linecap="round" stroke-linejoin="round"></path>
            <path d="M164.893593,75.8482959 C164.899878,100.765231 151.010987,123.606057 128.885393,135.065193" id="Path" stroke="#202020" stroke-width="1.58999991" stroke-linecap="round" stroke-linejoin="round"></path>
        </g>
    </g>
</svg>