<svg width="158" height="310" xmlns="http://www.w3.org/2000/svg">
  <g fill="none" fill-rule="evenodd">
    <path d="M155.39 182.91c-.95-2.51-7.17-11.78-14.43-21.91-1.06-12.69-2.75-27.46-5.19-32.25-2.76-5.42-3.85-11.87-4.28-16.09-.425038-4.072876-1.092893-8.116739-2-12.11-3.12-14.22-9.49-44.78-9.77-58.67-.39-18.45-7.76-43-19.17-40.16C89.14 4.56 90 16 91.1 41c1.1 25 3 68.57 3 68.57l-.63-.41c-2.3191783-5.904159-5.1534446-11.5927692-8.47-17-9.1-13.83-18.59-7.39-23.62-3.45-3.24 2.55-7.37 6.92-6.64 15.61-.53-.76-1-1.44-1.49-2-10.15-13.09-19.11-5.93-23.81-1.62-3.8683313 3.296766-5.9119104 8.254958-5.49 13.32-6-5-12.2-1.25-15.85 1.26-4.55 3.16-11.13 10-1.87 29.61 5.93 39.62 7.88 79.73 16.9 88.75 2.25 2.25 6.64 7.11 8.85 9 9.34 7.78 16.56 15 16.56 28.22v21.73l15.39 2.29 17.65-2L108 282.5l11.56-1.68 10.64.39 9.28 1.27-2.22-36.1c-.321969-5.860972.704331-11.717727 3-17.12 5.88-13.89 17.03-41.26 15.13-46.35z" fill="#6D6F70" fill-rule="nonzero"/>
    <path d="M48.49 120.62c-27.14 15.28-20.2 76 15.39 72s51.4-30.89 51.4-30.89l-40.62-45-26.17 3.89z" fill="#2F3335" fill-rule="nonzero" opacity=".53"/>
    <path d="M100.58 1.72c11.42-2.83 18.78 21.71 19.16 40.16.29 13.89 6.66 44.45 9.78 58.67.895765 3.992108 1.563513 8.031978 2 12.1.42 4.23 1.51 10.68 4.27 16.1 4.55 8.94 6.54 52.74 6.54 52.74l-47.81-38.64-6.26-37 8.25 3.72S92.24 66 91.11 41c-1.13-25-1.93-36.44 9.47-39.28z" fill="#6D6F70" fill-rule="nonzero"/>
    <path d="M51.74 225.25c-23-10.92-33.1-71.11-40.6-112-1.06651875.575599-2.09829664 1.213365-3.09 1.91-4.55 3.16-11.13 10-1.87 29.61 5.93 39.62 7.88 79.73 16.9 88.75 2.25 2.25 4.35 5 6.53 6.85 10.81 9.3 18.88 17.08 18.88 30.32v19.73l8.32 3.58 13.72.61c1.68-28.14 5.94-57.61-18.79-69.36z" fill="#2F3335" fill-rule="nonzero" opacity=".36"/>
    <path d="M137.21 246.38c-.321969-5.860972.704331-11.717727 3-17.12 5.92-13.89 17.07-41.29 15.17-46.35-.95-2.51-7.17-11.78-14.43-21.91-1.06-12.69-2.75-27.46-5.19-32.25-2.76-5.42-3.85-11.87-4.28-16.09-.425038-4.072876-1.092893-8.116739-2-12.11-3.12-14.22-9.49-44.78-9.77-58.67-.39-18.45-7.76-43-19.17-40.16a14.72999743 14.72999743 0 00-1.84.58c11.15 13.09 26.57 135.8 25.71 147.07-1 12.59-1.71 59.93 2.72 85.72l10.62 21.8-.54-10.51z" fill="#8A8F93" fill-rule="nonzero" opacity=".78"/>
    <path d="M34.79 173.53c10.2-3 .65-41.71-6.5-54.14s-15.69-7.34-20.24-4.19c-4.55 3.15-11.13 10-1.87 29.6 9.26 19.6 14.95 32.71 28.61 28.73z" fill="#6D6F70" fill-rule="nonzero"/>
    <path d="M17 154.64s2.45-2.45 8.19-4.09c5.74-1.64 8.2-1.1 8.2-1.1s4.54 18-1.09 19.29c-13.91 3.31-15.3-14.1-15.3-14.1z" fill="#8A8F93" fill-rule="nonzero"/>
    <path d="M28.29 119.39c-5.26-9.12-11.25-8.8-15.87-6.74.56 4.65 2.29 10.37 5.8 17.47 7.58 15.34 13.31 27.41 21 32.89.3-13.17-5.91-34.88-10.93-43.62z" fill="#2F3335" fill-rule="nonzero" opacity=".36"/>
    <path d="M17 154.64s2.45-2.45 8.19-4.09c5.74-1.64 8.2-1.1 8.2-1.1s4.54 18-1.09 19.29c-13.91 3.31-15.3-14.1-15.3-14.1z" stroke="#202020" stroke-width="3" stroke-linecap="round" stroke-linejoin="round"/>
    <path d="M34.79 173.53c10.2-3 .65-41.71-6.5-54.14s-15.69-7.34-20.24-4.19c-4.55 3.15-11.13 10-1.87 29.6 9.26 19.6 14.95 32.71 28.61 28.73z" stroke="#202020" stroke-width="3" stroke-linecap="round" stroke-linejoin="round"/>
    <path d="M75.23 176.23c14.79-8-11.89-60.93-22-74s-19.1-5.92-23.81-1.6c-4.71 4.32-10.69 12.87 2.54 34.15 13.92 22.43 24.61 51.5 43.27 41.45z" fill="#6D6F70" fill-rule="nonzero"/>
    <path d="M75.23 176.23c14.79-8-11.89-60.93-22-74s-19.1-5.92-23.81-1.6c-4.71 4.32-10.69 12.87 2.54 34.15 13.92 22.43 24.61 51.5 43.27 41.45z" stroke="#202020" stroke-width="3" stroke-linecap="round" stroke-linejoin="round"/>
    <path d="M78.08 173.32c7.58-13.65-15.58-59.11-24.88-71.1-3.59-4.62-7-6.71-10.18-7.3-.23 5.8 1.33 13.51 6 23.92C58.56 140 65.2 165 78.08 173.32z" fill="#2F3335" fill-rule="nonzero" opacity=".36"/>
    <path d="M53.1 159.26s5.19-4.62 9.29-6c2.6591958-.854628 5.4067648-1.404813 8.19-1.64 0 0 7.72 16.06 1.92 19.17-13.94 7.49-19.4-11.53-19.4-11.53z" fill="#8A8F93" fill-rule="nonzero"/>
    <path d="M53.1 159.26s5.19-4.62 9.29-6c2.6591958-.854628 5.4067648-1.404813 8.19-1.64 0 0 7.72 16.06 1.92 19.17-13.94 7.49-19.4-11.53-19.4-11.53zM100.58 1.72c11.42-2.83 18.78 21.71 19.16 40.16.29 13.89 6.66 44.45 9.78 58.67.895765 3.992108 1.563513 8.031978 2 12.1.42 4.23 1.51 10.68 4.27 16.1 4.55 8.94 6.54 52.74 6.54 52.74l-47.81-38.64 1.83-10.15-2.3-23.15S92.24 66 91.11 41s-1.93-36.44 9.47-39.28z" stroke="#202020" stroke-width="3" stroke-linecap="round" stroke-linejoin="round"/>
    <path d="M96.15 161.45C111 156.15 94 105.94 85 92.11c-9-13.83-18.59-7.39-23.62-3.45-5.03 3.94-12.15 12.27-.12 34.25 12.03 21.98 19.43 44.09 34.89 38.54z" fill="#6D6F70" fill-rule="nonzero"/>
    <path d="M85 92.11c-1.368029-2.1693241-3.076582-4.1041084-5.06-5.73A34.90999565 34.90999565 0 0182 90.62c5.6 13.4 11.5 34.15 7.51 54.18 1.78.16 4.2 9 6.24 8.31 14.81-5.3-1.75-47.17-10.75-61z" fill="#2F3335" fill-rule="nonzero" opacity=".36"/>
    <path d="M96.15 161.45C112.94 155.23 94 105.94 85 92.11c-9-13.83-18.59-7.39-23.62-3.45-5.03 3.94-12.15 12.27-.12 34.25 12.03 21.98 19.5 44.26 34.89 38.54z" stroke="#202020" stroke-width="3" stroke-linecap="round" stroke-linejoin="round"/>
    <path d="M80.43 141.64s2.46-2.46 8.2-4.1c5.74-1.64 8.2-1.09 8.2-1.09s4.53 18-1.09 19.28C81.8 159 80.43 141.64 80.43 141.64z" fill="#8A8F93" fill-rule="nonzero"/>
    <path d="M80.43 141.64s2.46-2.46 8.2-4.1c5.74-1.64 8.2-1.09 8.2-1.09s4.53 18-1.09 19.28C81.8 159 80.43 141.64 80.43 141.64zM6.18 144.8c5.93 39.63 6.15 62.61 10.85 77.58 2.27 7.25 6.84 12.85 12.58 18 9.82 8.88 18.88 17.08 18.88 30.32v19.73M109.89 48.76c4.28-.82 10.32 0 10.32 0" stroke="#202020" stroke-width="3" stroke-linecap="round" stroke-linejoin="round"/>
    <path d="M139.43 282.47l-2.2-35.8c-.340639-6.050102.720248-12.097159 3.1-17.67 5.94-14 16.94-41.06 15.06-46.09-2-5.34-27.87-41.16-36.82-51-2.563567-2.815108-6.192552-4.422749-10-4.43H70.83c-2.3270229.004006-4.4837362 1.220497-5.6908789 3.209934-1.2071428 1.989436-1.2901847 4.464183-.2191211 6.530066 9.2 17.84 23.91 17.87 34.24 18.25l9.3 24.91S80.83 201.7 84 222.17" fill="#6D6F70" fill-rule="nonzero"/>
    <path d="M155.39 182.91c-1.7-4.52-20.51-30.91-31.67-44.87-1.65537 3.663174-1.381773 7.909546.73 11.33 5.28 8.82 22.59 37.63 7.84 60-14.75 22.37-9.48 45.7-8.94 71.4l16.08 1.68-2.2-35.81c-.340639-6.050102.720248-12.097159 3.1-17.67 5.94-13.97 16.94-41.03 15.06-46.06z" fill="#8A8F93" fill-rule="nonzero" opacity=".78"/>
    <path d="M139.43 281.47l-2.22-35.08c-.328895-5.864625.697648-11.726189 3-17.13 5.91-13.89 17.07-41.29 15.17-46.35-2-5.34-27.87-41.16-36.82-51-2.563567-2.815108-6.192552-4.422749-10-4.43H70.83c-2.3270229.004006-4.4837362 1.220497-5.6908789 3.209934-1.2071428 1.989436-1.2901847 4.464183-.2191211 6.530066 9.2 17.84 23.91 17.87 34.24 18.25l9.3 24.91S80.83 201.7 84 222.17M109.89 136.51l5.16-7.39" stroke="#202020" stroke-width="3" stroke-linecap="round" stroke-linejoin="round"/>
    <path d="M65.23 130.53c7.35 7.42 15.2 8.1 23.4 7l.87-10.09H75.27c-2.91 0-7.64-.07-10 3.08l-.04.01z" fill="#8A8F93" fill-rule="nonzero"/>
    <path d="M65.23 130.53c7.35 7.42 15.2 8.1 23.4 7l.87-10.09H75.27c-2.91 0-7.64-.07-10 3.08l-.04.01zM35.89 286.47s26.86 17.62 57.11 1.66c29.28-15.47 57.09-1.66 57.09-1.66M122.9 67.31c32.71 2.19 25.26-25.81 16-18.92-9.26 6.89-16 18.92-16 18.92s-12.74 4.92-29.65 0" stroke="#202020" stroke-width="3" stroke-linecap="round" stroke-linejoin="round"/>
    <path d="M150.06 76.63c-.66-9.28-27.16-9.32-27.16-9.32 8.84 24.19 27.85 19.07 27.16 9.32zM62 305.53c19.12 6.49 28.31-.28 36.14-5 7.83-4.72 14.25-7.53 27.86-4.97" stroke="#202020" stroke-width="3" stroke-linecap="round" stroke-linejoin="round"/>
    <path d="M155.39 182.91c-.95-2.51-7.17-11.78-14.43-21.91-1.06-12.69-2.75-27.46-5.19-32.25-2.76-5.42-3.85-11.87-4.28-16.09-.425038-4.072876-1.092893-8.116739-2-12.11-3.12-14.22-9.49-44.78-9.77-58.67-.39-18.45-7.76-43-19.17-40.16C89.14 4.56 90 16 91.1 41c1.1 25 3 68.57 3 68.57l-.63-.41c-2.3191783-5.904159-5.1534446-11.5927692-8.47-17-9.1-13.83-18.59-7.39-23.62-3.45-3.24 2.55-7.37 6.92-6.64 15.61-.53-.76-1-1.44-1.49-2-10.15-13.09-19.11-5.93-23.81-1.62-3.8683313 3.296766-5.9119104 8.254958-5.49 13.32-6-5-12.2-1.25-15.85 1.26-4.55 3.16-11.13 10-1.87 29.61 5.93 39.62 7.88 79.73 16.9 88.75 2.25 2.25 6.64 7.11 8.85 9 9.34 7.78 16.56 15 16.56 28.22v21.73l15.39 2.29 17.65-2L108 282.5l11.56-1.68 10.64.39 9.28 1.27-2.22-36.1c-.321969-5.860972.704331-11.717727 3-17.12 5.88-13.89 17.03-41.26 15.13-46.35z" fill="#6D6F70" fill-rule="nonzero"/>
    <path d="M48.49 120.62c-27.14 15.28-20.2 76 15.39 72s51.4-30.89 51.4-30.89l-40.62-45-26.17 3.89z" fill="#2F3335" fill-rule="nonzero" opacity=".53"/>
    <path d="M100.58 1.72c11.42-2.83 18.78 21.71 19.16 40.16.29 13.89 6.66 44.45 9.78 58.67.895765 3.992108 1.563513 8.031978 2 12.1.42 4.23 1.51 10.68 4.27 16.1 4.55 8.94 6.54 52.74 6.54 52.74l-47.81-38.64-6.26-37 8.25 3.72S92.24 66 91.11 41c-1.13-25-1.93-36.44 9.47-39.28z" fill="#6D6F70" fill-rule="nonzero"/>
    <path d="M51.74 225.25c-23-10.92-33.1-71.11-40.6-112-1.06651875.575599-2.09829664 1.213365-3.09 1.91-4.55 3.16-11.13 10-1.87 29.61 5.93 39.62 7.88 79.73 16.9 88.75 2.25 2.25 4.35 5 6.53 6.85 10.81 9.3 18.88 17.08 18.88 30.32v19.73l8.32 3.58 13.72.61c1.68-28.14 5.94-57.61-18.79-69.36z" fill="#2F3335" fill-rule="nonzero" opacity=".36"/>
    <path d="M137.21 246.38c-.321969-5.860972.704331-11.717727 3-17.12 5.92-13.89 17.07-41.29 15.17-46.35-.95-2.51-7.17-11.78-14.43-21.91-1.06-12.69-2.75-27.46-5.19-32.25-2.76-5.42-3.85-11.87-4.28-16.09-.425038-4.072876-1.092893-8.116739-2-12.11-3.12-14.22-9.49-44.78-9.77-58.67-.39-18.45-7.76-43-19.17-40.16a14.72999743 14.72999743 0 00-1.84.58c11.15 13.09 26.57 135.8 25.71 147.07-1 12.59-1.71 59.93 2.72 85.72l10.62 21.8-.54-10.51z" fill="#8A8F93" fill-rule="nonzero" opacity=".78"/>
    <path d="M34.79 173.53c10.2-3 .65-41.71-6.5-54.14s-15.69-7.34-20.24-4.19c-4.55 3.15-11.13 10-1.87 29.6 9.26 19.6 14.95 32.71 28.61 28.73z" fill="#6D6F70" fill-rule="nonzero"/>
    <path d="M17 154.64s2.45-2.45 8.19-4.09c5.74-1.64 8.2-1.1 8.2-1.1s4.54 18-1.09 19.29c-13.91 3.31-15.3-14.1-15.3-14.1z" fill="#8A8F93" fill-rule="nonzero"/>
    <path d="M28.29 119.39c-5.26-9.12-11.25-8.8-15.87-6.74.56 4.65 2.29 10.37 5.8 17.47 7.58 15.34 13.31 27.41 21 32.89.3-13.17-5.91-34.88-10.93-43.62z" fill="#2F3335" fill-rule="nonzero" opacity=".36"/>
    <path d="M17 154.64s2.45-2.45 8.19-4.09c5.74-1.64 8.2-1.1 8.2-1.1s4.54 18-1.09 19.29c-13.91 3.31-15.3-14.1-15.3-14.1z" stroke="#202020" stroke-width="3" stroke-linecap="round" stroke-linejoin="round"/>
    <path d="M34.79 173.53c10.2-3 .65-41.71-6.5-54.14s-15.69-7.34-20.24-4.19c-4.55 3.15-11.13 10-1.87 29.6 9.26 19.6 14.95 32.71 28.61 28.73z" stroke="#202020" stroke-width="3" stroke-linecap="round" stroke-linejoin="round"/>
    <path d="M75.23 176.23c14.79-8-11.89-60.93-22-74s-19.1-5.92-23.81-1.6c-4.71 4.32-10.69 12.87 2.54 34.15 13.92 22.43 24.61 51.5 43.27 41.45z" fill="#6D6F70" fill-rule="nonzero"/>
    <path d="M75.23 176.23c14.79-8-11.89-60.93-22-74s-19.1-5.92-23.81-1.6c-4.71 4.32-10.69 12.87 2.54 34.15 13.92 22.43 24.61 51.5 43.27 41.45z" stroke="#202020" stroke-width="3" stroke-linecap="round" stroke-linejoin="round"/>
    <path d="M78.08 173.32c7.58-13.65-15.58-59.11-24.88-71.1-3.59-4.62-7-6.71-10.18-7.3-.23 5.8 1.33 13.51 6 23.92C58.56 140 65.2 165 78.08 173.32z" fill="#2F3335" fill-rule="nonzero" opacity=".36"/>
    <path d="M53.1 159.26s5.19-4.62 9.29-6c2.6591958-.854628 5.4067648-1.404813 8.19-1.64 0 0 7.72 16.06 1.92 19.17-13.94 7.49-19.4-11.53-19.4-11.53z" fill="#8A8F93" fill-rule="nonzero"/>
    <path d="M53.1 159.26s5.19-4.62 9.29-6c2.6591958-.854628 5.4067648-1.404813 8.19-1.64 0 0 7.72 16.06 1.92 19.17-13.94 7.49-19.4-11.53-19.4-11.53zM100.58 1.72c11.42-2.83 18.78 21.71 19.16 40.16.29 13.89 6.66 44.45 9.78 58.67.895765 3.992108 1.563513 8.031978 2 12.1.42 4.23 1.51 10.68 4.27 16.1 4.55 8.94 6.54 52.74 6.54 52.74l-47.81-38.64 1.83-10.15-2.3-23.15S92.24 66 91.11 41s-1.93-36.44 9.47-39.28z" stroke="#202020" stroke-width="3" stroke-linecap="round" stroke-linejoin="round"/>
    <path d="M96.15 161.45C111 156.15 94 105.94 85 92.11c-9-13.83-18.59-7.39-23.62-3.45-5.03 3.94-12.15 12.27-.12 34.25 12.03 21.98 19.43 44.09 34.89 38.54z" fill="#6D6F70" fill-rule="nonzero"/>
    <path d="M85 92.11c-1.368029-2.1693241-3.076582-4.1041084-5.06-5.73A34.90999565 34.90999565 0 0182 90.62c5.6 13.4 11.5 34.15 7.51 54.18 1.78.16 4.2 9 6.24 8.31 14.81-5.3-1.75-47.17-10.75-61z" fill="#2F3335" fill-rule="nonzero" opacity=".36"/>
    <path d="M96.15 161.45C112.94 155.23 94 105.94 85 92.11c-9-13.83-18.59-7.39-23.62-3.45-5.03 3.94-12.15 12.27-.12 34.25 12.03 21.98 19.5 44.26 34.89 38.54z" stroke="#202020" stroke-width="3" stroke-linecap="round" stroke-linejoin="round"/>
    <path d="M80.43 141.64s2.46-2.46 8.2-4.1c5.74-1.64 8.2-1.09 8.2-1.09s4.53 18-1.09 19.28C81.8 159 80.43 141.64 80.43 141.64z" fill="#8A8F93" fill-rule="nonzero"/>
    <path d="M80.43 141.64s2.46-2.46 8.2-4.1c5.74-1.64 8.2-1.09 8.2-1.09s4.53 18-1.09 19.28C81.8 159 80.43 141.64 80.43 141.64zM6.18 144.8c5.93 39.63 6.15 62.61 10.85 77.58 2.27 7.25 6.84 12.85 12.58 18 9.82 8.88 18.88 17.08 18.88 30.32v19.73M109.89 48.76c4.28-.82 10.32 0 10.32 0" stroke="#202020" stroke-width="3" stroke-linecap="round" stroke-linejoin="round"/>
    <path d="M139.43 282.47l-2.2-35.8c-.340639-6.050102.720248-12.097159 3.1-17.67 5.94-14 16.94-41.06 15.06-46.09-2-5.34-27.87-41.16-36.82-51-2.563567-2.815108-6.192552-4.422749-10-4.43H70.83c-2.3270229.004006-4.4837362 1.220497-5.6908789 3.209934-1.2071428 1.989436-1.2901847 4.464183-.2191211 6.530066 9.2 17.84 23.91 17.87 34.24 18.25l9.3 24.91S80.83 201.7 84 222.17" fill="#6D6F70" fill-rule="nonzero"/>
    <path d="M155.39 182.91c-1.7-4.52-20.51-30.91-31.67-44.87-1.65537 3.663174-1.381773 7.909546.73 11.33 5.28 8.82 22.59 37.63 7.84 60-14.75 22.37-9.48 45.7-8.94 71.4l16.08 1.68-2.2-35.81c-.340639-6.050102.720248-12.097159 3.1-17.67 5.94-13.97 16.94-41.03 15.06-46.06z" fill="#8A8F93" fill-rule="nonzero" opacity=".78"/>
    <path d="M139.43 281.47l-2.22-35.08c-.328895-5.864625.697648-11.726189 3-17.13 5.91-13.89 17.07-41.29 15.17-46.35-2-5.34-27.87-41.16-36.82-51-2.563567-2.815108-6.192552-4.422749-10-4.43H70.83c-2.3270229.004006-4.4837362 1.220497-5.6908789 3.209934-1.2071428 1.989436-1.2901847 4.464183-.2191211 6.530066 9.2 17.84 23.91 17.87 34.24 18.25l9.3 24.91S80.83 201.7 84 222.17M109.89 136.51l5.16-7.39" stroke="#202020" stroke-width="3" stroke-linecap="round" stroke-linejoin="round"/>
    <path d="M65.23 130.53c7.35 7.42 15.2 8.1 23.4 7l.87-10.09H75.27c-2.91 0-7.64-.07-10 3.08l-.04.01z" fill="#8A8F93" fill-rule="nonzero"/>
    <path d="M65.23 130.53c7.35 7.42 15.2 8.1 23.4 7l.87-10.09H75.27c-2.91 0-7.64-.07-10 3.08l-.04.01zM35.89 286.47s26.86 17.62 57.11 1.66c29.28-15.47 57.09-1.66 57.09-1.66M122.9 67.31c32.71 2.19 25.26-25.81 16-18.92-9.26 6.89-16 18.92-16 18.92s-12.74 4.92-29.65 0" stroke="#202020" stroke-width="3" stroke-linecap="round" stroke-linejoin="round"/>
    <path d="M150.06 76.63c-.66-9.28-27.16-9.32-27.16-9.32 8.84 24.19 27.85 19.07 27.16 9.32zM62 305.53c19.12 6.49 28.31-.28 36.14-5 7.83-4.72 14.25-7.53 27.86-4.97" stroke="#202020" stroke-width="3" stroke-linecap="round" stroke-linejoin="round"/>
  </g>
</svg>