<?xml version="1.0" encoding="UTF-8"?>
<svg width="227px" height="279px" viewBox="0 0 227 279" version="1.1" xmlns="http://www.w3.org/2000/svg" xmlns:xlink="http://www.w3.org/1999/xlink">
    <!-- Generator: Sketch 63.1 (92452) - https://sketch.com -->
    <title>digital-strategy</title>
    <desc>Created with Sketch.</desc>
    <g id="Page-1" stroke="none" stroke-width="1" fill="none" fill-rule="evenodd">
        <g id="digital-strategy" transform="translate(1.000000, 1.000000)">
            <rect id="Rectangle" fill="#E3E4E5" fill-rule="nonzero" transform="translate(22.931105, 115.937412) rotate(-21.330000) translate(-22.931105, -115.937412) " x="6.96979527" y="109.839198" width="31.922619" height="12.1964286"></rect>
            <polygon id="Path" fill="#2F3335" fill-rule="nonzero" opacity="0.22" points="6.51190476 117.744048 37.0357143 108.166667 40.0238095 115.803571 10.2916667 127.416667"></polygon>
            <rect id="Rectangle" stroke="#202020" stroke-width="1.78571429" stroke-linecap="round" stroke-linejoin="round" transform="translate(22.931105, 115.937412) rotate(-21.330000) translate(-22.931105, -115.937412) " x="6.96979527" y="109.839198" width="31.922619" height="12.1964286"></rect>
            <polygon id="Path" fill="#2F3335" fill-rule="nonzero" opacity="0.22" points="24.2261905 108.880952 35.5833333 104.446429 40.0238095 115.803571 25.8630952 121.333333"></polygon>
            <polygon id="Path" fill="#2F3335" fill-rule="nonzero" opacity="0.22" points="8.74404762 123.470238 38.8035714 112.684524 40.0238095 115.803571 10.2916667 127.416667"></polygon>
            <rect id="Rectangle" fill="#E3E4E5" fill-rule="nonzero" transform="translate(7.436236, 121.986326) rotate(-21.330000) translate(-7.436236, -121.986326) " x="3.54040235" y="112.310731" width="7.79166667" height="19.3511905"></rect>
            <rect id="Rectangle" fill="#E3E4E5" fill-rule="nonzero" transform="translate(52.756283, 104.294580) rotate(-21.330000) translate(-52.756283, -104.294580) " x="31.1550922" y="93.1398177" width="43.202381" height="22.3095238"></rect>
            <polygon id="Path" fill="#2F3335" fill-rule="nonzero" opacity="0.22" points="76.9404762 106.815476 36.702381 122.529762 29.375 103.77381 70.4404762 90.1785714"></polygon>
            <rect id="Rectangle" stroke="#202020" stroke-width="1.78571429" stroke-linecap="round" stroke-linejoin="round" transform="translate(52.756283, 104.294580) rotate(-21.330000) translate(-52.756283, -104.294580) " x="31.1550922" y="93.1398177" width="43.202381" height="22.3095238"></rect>
            <polygon id="Path" fill="#2F3335" fill-rule="nonzero" opacity="0.22" points="74.7797619 107.660714 63.0535714 112.238095 57.3630952 90.5119048 66.6607143 86.8809524"></polygon>
            <rect id="Rectangle" stroke="#202020" stroke-width="1.78571429" stroke-linecap="round" stroke-linejoin="round" transform="translate(7.436236, 121.986326) rotate(-21.330000) translate(-7.436236, -121.986326) " x="3.54040235" y="112.310731" width="7.79166667" height="19.3511905"></rect>
            <polygon id="Path" fill="#2F3335" fill-rule="nonzero" opacity="0.22" points="14.5952381 129.577381 7.33928571 132.410714 1.10119048 116.440476 8.85714286 114.880952"></polygon>
            <polygon id="Path" fill="#2F3335" fill-rule="nonzero" opacity="0.22" points="14.5952381 129.577381 7.33928571 132.410714 5.44047619 127.547619 12.8511905 125.10119"></polygon>
            <polygon id="Path" fill="#2F3335" fill-rule="nonzero" opacity="0.22" points="76.9404762 106.815476 36.702381 122.529762 33.8333333 115.190476 75.3035714 102.625"></polygon>
            <polygon id="Path" fill="#E3E4E5" fill-rule="nonzero" points="159.357143 78.2797619 71.9345238 111.738095 61.8035714 85.8095238 148.767857 51.1547619"></polygon>
            <polygon id="Path" fill="#2F3335" fill-rule="nonzero" opacity="0.22" points="159.357143 78.2797619 71.9702381 111.839286 62.922619 88.672619 150.511905 55.625"></polygon>
            <polygon id="Path" fill="#2F3335" fill-rule="nonzero" opacity="0.22" points="159.357143 78.2797619 141.934524 84.1071429 137.005952 56.4345238 148.767857 51.1547619"></polygon>
            <polygon id="Path" stroke="#202020" stroke-width="1.78571429" stroke-linecap="round" stroke-linejoin="round" points="159.357143 78.2797619 71.9345238 111.738095 61.8035714 85.8095238 148.767857 51.1547619"></polygon>
            <polygon id="Path" fill="#2F3335" fill-rule="nonzero" opacity="0.22" points="159.357143 78.2797619 72.0595238 112.059524 66.9880952 99.077381 155.678571 70.6309524"></polygon>
            <path d="M203.303571,45.4880952 C207.27381,55.6488095 204.285714,66.3214286 197.880952,68.8095238 C191.47619,71.297619 183.071429,65.1011905 179.10119,54.9404762 C175.130952,44.7797619 177.107143,34.5238095 183.511905,32.0119048 C189.916667,29.5 199.333333,35.3214286 203.303571,45.4880952 Z" id="Path" fill="#E3E4E5" fill-rule="nonzero"></path>
            <path d="M202.565476,49.4642857 C203.574927,51.445443 204.415216,53.5083328 205.077381,55.6309524 C205.17544,52.1716734 204.567851,48.7286702 203.291667,45.5119048 C199.321429,35.3452381 189.89881,29.5357143 183.5,32.0357143 C182.627386,32.3792746 181.821592,32.8728232 181.119048,33.4940476 C187.39881,32.0714286 196.988095,38.547619 202.565476,49.4642857 Z" id="Path" fill="#FFFFFF" fill-rule="nonzero"></path>
            <path d="M188.285714,31.547619 C193.946429,32.3988095 200.244048,37.6488095 203.303571,45.4821429 C206.630952,54.0059524 205.089286,62.8809524 200.696429,66.9940476" id="Path" stroke="#202020" stroke-width="1.78571429" stroke-linecap="round" stroke-linejoin="round"></path>
            <polygon id="Path" fill="#E3E4E5" fill-rule="nonzero" points="203.779762 66.7916667 152.095238 83.5059524 139.880952 52.2380952 189.214286 29.4940476"></polygon>
            <polygon id="Path" stroke="#202020" stroke-width="1.78571429" stroke-linecap="round" stroke-linejoin="round" points="203.779762 66.7916667 152.095238 83.5059524 139.880952 52.2380952 189.214286 29.4940476"></polygon>
            <polygon id="Path" fill="#2F3335" fill-rule="nonzero" opacity="0.22" points="203.779762 66.7916667 152.095238 83.5059524 141.089286 55.327381 191.595238 35.5952381"></polygon>
            <polygon id="Path" fill="#2F3335" fill-rule="nonzero" opacity="0.22" points="203.779762 66.7916667 152.095238 83.5059524 146.666667 69.6011905 198.714286 53.8214286"></polygon>
            <path d="M110.494048,77.1428555 L110.494048,77.1428555 C116.355498,77.1428555 121.107143,81.8945017 121.107143,87.7559524 L121.107143,110.119048 L99.8749983,110.119048 L99.8749983,87.7619048 C99.8734197,84.9450741 100.991702,82.2431595 102.983502,80.2513591 C104.975302,78.2595587 107.677217,77.1412769 110.494048,77.1428555 Z" id="Path" fill="#414547" fill-rule="nonzero"></path>
            <path d="M116.666667,79.1309524 C117.63531,81.1991102 118.139182,83.454341 118.142857,85.7380952 L118.142857,110.119048 L121.119048,110.119048 L121.119048,87.7619048 C121.118466,84.3340773 119.45958,81.118322 116.666667,79.1309524 L116.666667,79.1309524 Z" id="Path" fill="#E3E4E5" fill-rule="nonzero" opacity="0.33"></path>
            <circle id="Oval" fill="#E3E4E5" fill-rule="nonzero" cx="110.494048" cy="88.4285714" r="3.73214286"></circle>
            <path d="M110.494048,77.1428555 L110.494048,77.1428555 C116.355498,77.1428555 121.107143,81.8945017 121.107143,87.7559524 L121.107143,110.119048 L99.8749983,110.119048 L99.8749983,87.7619048 C99.8734197,84.9450741 100.991702,82.2431595 102.983502,80.2513591 C104.975302,78.2595587 107.677217,77.1412769 110.494048,77.1428555 Z" id="Path" stroke="#202020" stroke-width="1.78571429" stroke-linecap="round" stroke-linejoin="round"></path>
            <path d="M113.154762,90.2202381 C113.428827,89.7394907 113.57438,89.1962293 113.577381,88.6428571 C113.572457,87.5294867 112.998969,86.4958249 112.05693,85.9023766 C111.114891,85.3089284 109.934928,85.2379837 108.928571,85.7142857 C111.144155,86.179051 112.832771,87.9794481 113.154762,90.2202381 Z" id="Path" fill="#FFFFFF" fill-rule="nonzero"></path>
            <circle id="Oval" stroke="#202020" stroke-width="1.78571429" stroke-linecap="round" stroke-linejoin="round" cx="110.494048" cy="88.4285714" r="3.73214286"></circle>
            <polygon id="Path" fill="#414547" fill-rule="nonzero" points="165.89881 248.005952 170.821429 248.005952 121.89881 114.333333 113.22619 114.333333"></polygon>
            <polygon id="Path" stroke="#202020" stroke-width="1.78571429" stroke-linecap="round" stroke-linejoin="round" points="165.89881 248.005952 170.821429 248.005952 121.89881 114.333333 113.22619 114.333333"></polygon>
            <line x1="168.410714" y1="248.678571" x2="173.238095" y2="261.130952" id="Path" stroke="#202020" stroke-width="1.78571429" stroke-linecap="round" stroke-linejoin="round"></line>
            <line x1="175.970238" y1="261.613095" x2="170.5" y2="261.613095" id="Path" stroke="#202020" stroke-width="1.78571429" stroke-linecap="round" stroke-linejoin="round"></line>
            <polygon id="Path" fill="#414547" fill-rule="nonzero" points="55.702381 248.005952 50.7738095 248.005952 99.702381 114.333333 108.369048 114.333333"></polygon>
            <polygon id="Path" stroke="#202020" stroke-width="1.78571429" stroke-linecap="round" stroke-linejoin="round" points="55.702381 248.005952 50.7738095 248.005952 99.702381 114.333333 108.369048 114.333333"></polygon>
            <line x1="53.1845238" y1="248.678571" x2="48.3571429" y2="261.130952" id="Path" stroke="#202020" stroke-width="1.78571429" stroke-linecap="round" stroke-linejoin="round"></line>
            <line x1="45.625" y1="261.613095" x2="51.0952381" y2="261.613095" id="Path" stroke="#202020" stroke-width="1.78571429" stroke-linecap="round" stroke-linejoin="round"></line>
            <polygon id="Path" fill="#414547" fill-rule="nonzero" points="112.958333 263.22619 108.029762 263.22619 106.160714 114.333333 114.827381 114.333333"></polygon>
            <polygon id="Path" stroke="#202020" stroke-width="1.78571429" stroke-linecap="round" stroke-linejoin="round" points="112.958333 263.22619 108.029762 263.22619 106.160714 114.333333 114.827381 114.333333"></polygon>
            <line x1="107.755952" y1="276.267857" x2="113.22619" y2="276.267857" id="Path" stroke="#202020" stroke-width="1.78571429" stroke-linecap="round" stroke-linejoin="round"></line>
            <line x1="110.494048" y1="263.22619" x2="110.494048" y2="276.267857" id="Path" stroke="#202020" stroke-width="1.78571429" stroke-linecap="round" stroke-linejoin="round"></line>
            <rect id="Rectangle" fill="#414547" fill-rule="nonzero" x="95.1607143" y="107.238095" width="30.672619" height="7.0952381" rx="3.54761905"></rect>
            <rect id="Rectangle" stroke="#202020" stroke-width="1.78571429" stroke-linecap="round" stroke-linejoin="round" x="95.1607143" y="107.238095" width="30.672619" height="7.0952381" rx="3.54761905"></rect>
            <path d="M108.125,86.2380952 C107.577381,86.2380952 106.77381,87.8511905 106.678571,88.3928571 C106.306293,89.9882208 107.293315,91.584484 108.886905,91.9642857 C109.309524,92.0416667 112.422619,91.5238095 112.863095,89.9404762 C111.714924,90.343229 110.440699,90.1337149 109.481935,89.3845298 C108.523171,88.6353447 108.011796,87.4495786 108.125,86.2380952 Z" id="Path" fill="#2F3335" fill-rule="nonzero" opacity="0.22"></path>
            <circle id="Oval" stroke="#FFFFFF" stroke-width="1.78571429" stroke-linecap="round" stroke-linejoin="round" cx="210.285714" cy="17.2738095" r="3.0297619"></circle>
            <line x1="186.130952" y1="0.297619048" x2="180.184524" y2="6.49404762" id="Path" stroke="#FFFFFF" stroke-width="1.78571429" stroke-linecap="round" stroke-linejoin="round"></line>
            <line x1="186.255952" y1="6.36904762" x2="180.065476" y2="0.422619048" id="Path" stroke="#FFFFFF" stroke-width="1.78571429" stroke-linecap="round" stroke-linejoin="round"></line>
            <circle id="Oval" stroke="#FFFFFF" stroke-width="1.78571429" stroke-linecap="round" stroke-linejoin="round" cx="108.869048" cy="29.5892857" r="2.43452381"></circle>
            <line x1="95.9464286" y1="41.9285714" x2="91.4285714" y2="49.8809524" id="Path" stroke="#FFFFFF" stroke-width="1.78571429" stroke-linecap="round" stroke-linejoin="round"></line>
            <line x1="97.6607143" y1="48.1607143" x2="89.7083333" y2="43.6488095" id="Path" stroke="#FFFFFF" stroke-width="1.78571429" stroke-linecap="round" stroke-linejoin="round"></line>
            <line x1="225" y1="105.64881" x2="215.970238" y2="108.827381" id="Path" stroke="#FFFFFF" stroke-width="1.78571429" stroke-linecap="round" stroke-linejoin="round"></line>
            <line x1="222.071429" y1="111.75" x2="218.892857" y2="102.720238" id="Path" stroke="#FFFFFF" stroke-width="1.78571429" stroke-linecap="round" stroke-linejoin="round"></line>
            <circle id="Oval" stroke="#FFFFFF" stroke-width="1.78571429" stroke-linecap="round" stroke-linejoin="round" cx="151.214286" cy="108.166667" r="3.0297619"></circle>
            <path d="M35.4285693,85.1845238 C35.421546,55.748106 52.6604229,29.037814 79.4868066,16.9197333 C106.31319,4.80165248 137.750761,9.52369834 159.833333,28.9880952" id="Path" stroke="#202020" stroke-width="1.78571429" stroke-linecap="round" stroke-linejoin="round"></path>
            <path d="M73.9285714,150.642857 C65.5942375,146.000566 58.2207061,139.81286 52.202381,132.410714" id="Path" stroke="#202020" stroke-width="1.78571429" stroke-linecap="round" stroke-linejoin="round"></path>
            <path d="M185.190479,85.1845238 C185.197536,113.168505 169.599051,138.820827 144.75,151.690476" id="Path" stroke="#202020" stroke-width="1.78571429" stroke-linecap="round" stroke-linejoin="round"></path>
        </g>
    </g>
</svg>