<?xml version="1.0" encoding="UTF-8"?>
<svg width="242px" height="273px" viewBox="0 0 242 273" version="1.1" xmlns="http://www.w3.org/2000/svg" xmlns:xlink="http://www.w3.org/1999/xlink">
    <!-- Generator: Sketch 63.1 (92452) - https://sketch.com -->
    <title>4 - Growth + Capacity</title>
    <desc>Created with Sketch.</desc>
    <g id="Page-1" stroke="none" stroke-width="1" fill="none" fill-rule="evenodd">
        <g id="4---Growth-+-Capacity" transform="translate(1.000000, 1.000000)">
            <line x1="117.454996" y1="106.710496" x2="132.677995" y2="104.266496" id="Path" stroke="#202020" stroke-width="1.94999993" stroke-linecap="round" stroke-linejoin="round"></line>
            <path d="M213.960492,43.0819984 C213.960492,55.132998 148.713495,55.158998 148.706992,43.0819984 C148.700495,31.0049989 163.305994,21.2939992 181.349993,21.2809863 C199.393993,21.2679992 213.953992,31.0374989 213.960492,43.0819984 Z" id="Path" fill="#D6D7D8" fill-rule="nonzero"></path>
            <ellipse id="Oval" fill="#D6D7D8" fill-rule="nonzero" cx="181.323993" cy="21.3654992" rx="6.50649976" ry="6.54549976"></ellipse>
            <g id="Group" opacity="0.29" transform="translate(148.199995, 14.299999)" fill="#414547" fill-rule="nonzero">
                <path d="M65.7604976,28.7819989 C65.7604976,40.8329985 0.513499981,40.8589985 0.506997813,28.7819989 C0.500499982,16.7049994 15.1059994,6.99399974 33.1499988,6.98098678 C51.1939981,6.96799974 65.7539976,16.7374994 65.7604976,28.7819989 Z" id="Path"></path>
                <ellipse id="Oval" cx="33.1239988" cy="7.06549974" rx="6.50649976" ry="6.54549976"></ellipse>
            </g>
            <path d="M191.931993,22.4574992 C191.665493,22.9969992 191.379493,23.5299991 191.067493,24.0434991 C190.332993,25.2524991 189.403493,26.441999 188.090493,26.948999 C186.263993,27.657499 184.242493,26.877499 182.292493,26.682499 C179.373993,26.383499 176.500994,27.416999 173.757994,28.443999 C170.897994,29.5099989 167.862494,30.6084989 164.872494,30.0104989 C162.694994,29.5749989 160.803494,28.294499 158.781994,27.345499 C152.574494,31.3169989 148.706995,36.9134986 148.706995,43.1144984 C148.706995,55.158998 213.966992,55.132998 213.960492,43.1144984 C213.960492,33.5204988 204.749992,25.3954991 191.931993,22.4574992 Z" id="Path" fill="#414547" fill-rule="nonzero" opacity="0.45"></path>
            <path d="M187.810993,21.7099992 C187.810993,21.5994992 187.810993,21.4824992 187.810993,21.3654995 C187.810993,17.7756485 184.900844,14.8654995 181.310993,14.8654995 C177.721143,14.8654995 174.810994,17.7756485 174.810994,21.3654995 C174.810994,21.4824992 174.810994,21.5994992 174.810994,21.7099992 C159.899994,23.7314991 148.674495,32.5454988 148.680992,43.1079984 C148.680992,55.152498 213.940992,55.126498 213.934518,43.1079984 C213.953992,32.4999988 202.721993,23.7184991 187.810993,21.7099992 Z" id="Path" stroke="#202020" stroke-width="1.94999993" stroke-linecap="round" stroke-linejoin="round"></path>
            <path d="M208.077992,110.564996 L205.841992,110.564996 C205.841992,110.564996 207.518992,103.453996 206.023992,82.133997 C204.528992,60.8139978 221.994492,42.8414984 222.020492,35.7499987 L222.020492,35.7499987 C220.502545,35.5305877 218.966683,36.0083052 217.840992,37.0499986 C216.702798,38.0931787 215.211878,38.6667879 213.667992,38.6554986 C211.787543,38.6811577 210.005039,37.8188109 208.857992,36.3284987 C207.676597,34.6752646 205.866134,33.5819332 203.852993,33.3059988 L203.202993,33.2279988 C201.197498,32.992318 199.185856,33.6156438 197.664993,34.9439987 C196.217387,36.1825099 194.370016,36.8544909 192.464993,36.8354986 C190.189768,36.8499719 188.024553,35.8577801 186.549993,34.1249987 C185.433638,32.7539976 183.767825,31.9472679 181.999993,31.9214988 L181.934993,31.9214988 C180.132822,31.9286708 178.429122,32.7447291 177.293993,34.1444987 C175.808967,35.8795206 173.630068,36.8653833 171.346494,36.8354986 C169.400381,36.8512446 167.517542,36.1448903 166.061994,34.8529987 C164.508111,33.4686818 162.43374,32.8198488 160.367994,33.0719988 L160.140494,33.0719988 C158.063936,33.3454673 156.204037,34.495481 155.031494,36.2309987 C153.895005,37.780154 152.077543,38.681615 150.156494,38.6489986 C148.568725,38.6656056 147.037774,38.0588262 145.892495,36.9589986 C144.762004,35.8525548 143.181799,35.3338246 141.615495,35.5549987 L140.269995,35.7434987 C140.269995,42.8479984 157.787494,60.8009978 156.305494,82.127497 C154.823494,103.453996 156.513494,110.564996 156.513494,110.564996 L154.283994,110.564996 C157.059543,117.654026 158.581536,125.171618 158.781994,132.781995 C159.847994,175.194494 152.080494,202.234493 141.881995,214.577992 L181.245993,214.577992 L181.291493,214.577992 L220.655492,214.577992 C210.430992,202.227993 202.637493,175.207494 203.670993,132.794995 C203.841157,125.185653 205.33234,117.663759 208.077992,110.564996 L208.077992,110.564996 Z" id="Path" fill="#D6D7D8" fill-rule="nonzero"></path>
            <path d="M234.370491,261.33249 C236.391991,259.20699 240.870491,252.349491 239.206491,245.114991 C236.534991,233.414991 221.714992,232.901491 222.449492,214.564992 L139.944995,214.597492 C140.692495,232.933991 125.872495,233.492991 123.213995,245.147491 C121.569496,252.381991 126.041495,259.23949 128.069495,261.35849 C128.069495,261.35849 123.980995,263.95849 123.610495,270.71199 L181.219993,270.71199 L238.835991,270.71199 C238.458991,263.94549 234.370491,261.33249 234.370491,261.33249 Z" id="Path" fill="#D6D7D8" fill-rule="nonzero"></path>
            <path d="M238.835991,270.67949 C238.458991,263.94549 234.370491,261.33249 234.370491,261.33249 C236.391991,259.20699 240.870491,252.349491 239.206491,245.114991 C236.534991,233.414991 221.714992,232.901491 222.449492,214.564992 L220.583992,214.564992 C210.359492,202.214993 202.565993,175.194494 203.599493,132.775495 C203.686587,129.172735 204.071398,125.583342 204.749992,122.043996 C205.081492,120.314996 217.879992,123.233495 217.678492,117.409496 C217.405492,109.414496 213.687492,110.974496 208.064992,110.564996 L205.828992,110.564996 C205.828992,110.564996 207.505992,103.453996 206.010992,82.133997 C204.515992,60.8139978 221.994492,42.8414984 222.020492,35.7499987 C220.502545,35.5305877 218.966683,36.0083052 217.840992,37.0499986 C216.702798,38.0931787 215.211878,38.6667879 213.667992,38.6554986 C211.787543,38.6811577 210.005039,37.8188109 208.857992,36.3284987 C207.676597,34.6752646 205.866134,33.5819332 203.852993,33.3059988 L203.202993,33.2279988 C201.197498,32.992318 199.185856,33.6156438 197.664993,34.9439987 C196.217387,36.1825099 194.370016,36.8544909 192.464993,36.8354986 C190.189768,36.8499719 188.024553,35.8577801 186.549993,34.1249987 C185.433638,32.7539976 183.767825,31.9472679 181.999993,31.9214988 L181.934993,31.9214988 C180.132822,31.9286708 178.429122,32.7447291 177.293993,34.1444987 C175.808967,35.8795206 173.630068,36.8653833 171.346494,36.8354986 C170.844996,36.8366832 170.344485,36.7909844 169.851494,36.6989987 C176.318994,60.9504978 171.151494,69.3939975 171.151494,69.3939975 C171.151494,69.3939975 179.224493,88.8939967 172.165494,96.3624965 C172.165494,96.3624965 177.443493,103.154996 174.303994,109.485996 C174.303994,109.485996 183.436493,116.096496 176.747994,123.252995 C176.747994,123.252995 182.344493,169.688994 171.216494,214.590992 C171.216494,214.590992 175.902994,231.048992 168.174494,237.789491 C160.445994,244.529991 157.657494,252.011491 165.931994,261.35849 L157.111494,270.71849 L181.245993,270.71849 L238.835991,270.67949 Z" id="Path" fill="#414547" fill-rule="nonzero" opacity="0.34"></path>
            <path d="M234.370491,261.33249 C236.391991,259.20699 240.870491,252.349491 239.206491,245.114991 C236.534991,233.414991 221.714992,232.901491 222.449492,214.564992 L220.583992,214.564992 C210.359492,202.214993 202.565993,175.194494 203.599493,132.781995 C203.68623,129.17706 204.071042,125.585479 204.749992,122.043996 C205.081492,120.314996 217.879992,123.233495 217.678492,117.409496 C217.405492,109.414496 213.687492,110.974496 208.064992,110.564996 L205.828992,110.564996 C205.828992,110.564996 207.505992,103.453996 206.010992,82.133997 C204.515992,60.8139978 221.994492,42.8414984 222.020492,35.7499987 C220.502545,35.5305877 218.966683,36.0083052 217.840992,37.0499986 C216.702798,38.0931787 215.211878,38.6667879 213.667992,38.6554986 C211.787543,38.6811577 210.005039,37.8188109 208.857992,36.3284987 C207.882468,34.979066 206.48499,33.9932833 204.886492,33.5269988 L204.359993,33.7934988 C208.747492,38.6359986 208.532992,46.9689983 203.904993,51.5774981 C202.572493,52.8774981 200.927993,53.962998 199.913993,55.555498 C197.313993,59.6439978 199.621493,65.9554976 196.195993,69.3419975 C202.240993,76.9469972 201.207493,89.2579967 193.985993,95.7384965 C195.747493,97.6039964 197.547993,99.5214963 198.600993,101.874496 C199.653993,104.227496 199.861993,107.119996 198.464493,109.284496 C202.461324,111.160724 204.373448,115.77066 202.877993,119.924996 C202.669096,120.555342 202.272121,121.10657 201.740493,121.504496 C201.101786,121.836497 200.385811,121.991364 199.666993,121.952996 L187.193493,122.349496 C191.489993,133.054995 193.127993,138.709995 193.322993,150.253994 C193.413993,155.811494 195.669493,183.891493 196.988993,193.803993 C197.638993,198.561993 198.288993,207.856992 198.288993,207.856992 L202.838993,214.590992 C201.297959,222.987213 204.811249,231.508592 211.821992,236.378991 C223.424492,244.828991 222.111492,261.35199 211.821992,261.35199 C211.821992,261.35199 218.698992,266.77949 220.414992,270.70549 L238.816491,270.70549 C238.907491,266.61049 234.370491,261.33249 234.370491,261.33249 Z" id="Path" fill="#414547" fill-rule="nonzero" opacity="0.34"></path>
            <path d="M157.384494,122.381996 C157.768838,123.87037 158.072613,125.378394 158.294494,126.899495 C180.121493,128.849495 194.577493,128.199495 204.028493,126.808495 C204.191846,125.208833 204.437,123.618585 204.762992,122.043996 L181.135493,122.362496 L157.384494,122.381996 Z" id="Path" fill="#414547" fill-rule="nonzero" opacity="0.34"></path>
            <path d="M162.649494,46.4684983 C162.459333,46.2402549 162.240914,46.0371249 161.999494,45.8639983 C162.194494,58.1684979 163.019994,70.6744974 161.752494,82.842497 C159.412494,105.189496 165.138994,126.736995 165.879994,148.908495 C166.612982,170.533489 163.017424,192.08695 155.304494,212.302992 C150.637494,224.483992 143.552495,233.232991 135.602995,243.294991 C134.146995,245.134491 132.749495,247.116991 132.255495,249.404991 C131.628933,252.465948 132.675956,255.629295 135.004995,257.711991 C134.016995,256.223491 134.257495,254.247491 134.731995,252.511991 C136.233495,247.064991 139.723995,243.320991 143.396495,239.264991 C151.163994,230.684992 158.307494,220.466992 162.363494,209.546992 C166.646994,198.002993 167.894994,185.581493 168.733494,173.367994 C169.383494,164.079494 169.786494,154.758494 169.493994,145.417995 C169.214494,136.252995 167.264494,127.328495 166.711994,118.260996 C166.009994,106.885996 167.023994,95.5109965 166.867994,84.0904969 C166.718494,73.0404973 165.463994,61.9904977 164.163994,50.9859981 C163.955994,49.3999982 163.669994,47.6384983 162.649494,46.4684983 Z" id="Path" fill="#FFFFFF" fill-rule="nonzero"></path>
            <rect id="Rectangle" fill="#D6D7D8" fill-rule="nonzero" x="152.424994" y="207.863492" width="13.4614995" height="6.73399975"></rect>
            <g id="Group" opacity="0.34" transform="translate(174.199994, 109.199996)" fill="#414547" fill-rule="nonzero">
                <path d="M30.5499989,12.8439995 C30.7384989,11.8819996 34.8009987,12.3629995 38.3499986,11.9664996 C38.8569986,11.8689996 39.3444986,11.7714996 39.8124985,11.6609996 C41.5971994,11.2888632 43.0230478,9.94836481 43.5044984,8.1899997 C43.4199984,5.72649979 43.0039984,4.17949985 42.3084984,3.19149988 C41.5544614,2.42950638 40.5738242,1.93234612 39.5134986,1.77449993 C38.8634986,1.66399994 38.2134986,1.56649994 37.5179986,1.47549995 C36.4259987,1.47549995 35.2104987,1.47549995 33.8909988,1.36499995 L31.6549988,1.36499995 C31.6549988,1.36499995 31.6874988,1.21549996 31.7459988,0.896999967 C24.7844991,0.376999986 16.1459994,0.246999991 6.96149974,0.246999991 C4.63449983,0.246999991 2.33999991,0.246999991 0.0909999967,0.27949999 C0.0909999967,0.27949999 8.46949969,6.35699977 3.28249988,13.1624995 L6.96799974,13.1624995 C16.1329994,13.1559995 24.1084991,13.2339995 30.5499989,12.8439995 Z" id="Path"></path>
            </g>
            <path d="M154.959994,96.8499964 C155.371207,97.5649647 155.70669,98.3208914 155.960994,99.1054964 C180.056493,100.067496 196.013993,99.7554963 206.446492,99.0469964 C206.633093,98.2276819 206.905427,97.4302877 207.258992,96.6679965 L181.174493,96.8304964 L154.959994,96.8499964 Z" id="Path" fill="#414547" fill-rule="nonzero" opacity="0.34"></path>
            <line x1="144.468995" y1="228.448992" x2="184.203493" y2="228.429492" id="Path" stroke="#202020" stroke-width="1.94999993" stroke-linecap="round" stroke-linejoin="round"></line>
            <line x1="128.069495" y1="261.37799" x2="234.370491" y2="261.33249" id="Path" stroke="#202020" stroke-width="1.94999993" stroke-linecap="round" stroke-linejoin="round"></line>
            <path d="M234.370491,261.33249 C236.391991,259.20699 240.870491,252.349491 239.206491,245.114991 C236.534991,233.414991 221.714992,232.901491 222.449492,214.564992 L139.944995,214.597492 C140.692495,232.933991 125.872495,233.492991 123.213995,245.147491 C121.569496,252.381991 126.041495,259.23949 128.069495,261.35849 C128.069495,261.35849 123.980995,263.95849 123.610495,270.71199 L238.835991,270.65999 C238.458991,263.94549 234.370491,261.33249 234.370491,261.33249 Z" id="Path" stroke="#202020" stroke-width="1.94999993" stroke-linecap="round" stroke-linejoin="round"></path>
            <line x1="144.631495" y1="207.869992" x2="218.022992" y2="207.837492" id="Path" stroke="#202020" stroke-width="1.94999993" stroke-linecap="round" stroke-linejoin="round"></line>
            <path d="M208.077992,110.564996 L205.841992,110.564996 C205.841992,110.564996 207.518992,103.453996 206.023992,82.133997 C204.528992,60.8139978 221.994492,42.8414984 222.020492,35.7499987 L222.020492,35.7499987 C220.502545,35.5305877 218.966683,36.0083052 217.840992,37.0499986 C216.702798,38.0931787 215.211878,38.6667879 213.667992,38.6554986 C211.787543,38.6811577 210.005039,37.8188109 208.857992,36.3284987 C207.676597,34.6752646 205.866134,33.5819332 203.852993,33.3059988 L203.202993,33.2279988 C201.197498,32.992318 199.185856,33.6156438 197.664993,34.9439987 C196.217387,36.1825099 194.370016,36.8544909 192.464993,36.8354986 C190.189768,36.8499719 188.024553,35.8577801 186.549993,34.1249987 C185.433638,32.7539976 183.767825,31.9472679 181.999993,31.9214988 L181.934993,31.9214988 C180.132822,31.9286708 178.429122,32.7447291 177.293993,34.1444987 C175.808967,35.8795206 173.630068,36.8653833 171.346494,36.8354986 C169.400381,36.8512446 167.517542,36.1448903 166.061994,34.8529987 C164.508111,33.4686818 162.43374,32.8198488 160.367994,33.0719988 L160.140494,33.0719988 C158.063936,33.3454673 156.204037,34.495481 155.031494,36.2309987 C153.895005,37.780154 152.077543,38.681615 150.156494,38.6489986 C148.568725,38.6656056 147.037774,38.0588262 145.892495,36.9589986 C144.762004,35.8525548 143.181799,35.3338246 141.615495,35.5549987 L140.269995,35.7434987 C140.269995,42.8479984 157.787494,60.8009978 156.305494,82.127497 C154.823494,103.453996 156.513494,110.564996 156.513494,110.564996 L154.283994,110.564996 C157.059543,117.654026 158.581536,125.171618 158.781994,132.781995 C159.847994,175.194494 152.080494,202.234493 141.881995,214.577992 L181.245993,214.577992 L181.291493,214.577992 L220.655492,214.577992 C210.430992,202.227993 202.637493,175.207494 203.670993,132.794995 C203.841157,125.185653 205.33234,117.663759 208.077992,110.564996 L208.077992,110.564996 Z" id="Path" stroke="#202020" stroke-width="1.94999993" stroke-linecap="round" stroke-linejoin="round"></path>
            <line x1="153.939494" y1="96.3689965" x2="165.834494" y2="96.3689965" id="Path" stroke="#202020" stroke-width="1.94999993" stroke-linecap="round" stroke-linejoin="round"></line>
            <line x1="171.905494" y1="96.3624965" x2="208.649992" y2="96.3494965" id="Path" stroke="#202020" stroke-width="1.94999993" stroke-linecap="round" stroke-linejoin="round"></line>
            <line x1="152.990494" y1="69.3679975" x2="189.708993" y2="69.3484975" id="Path" stroke="#202020" stroke-width="1.94999993" stroke-linecap="round" stroke-linejoin="round"></line>
            <line x1="196.033493" y1="69.3484975" x2="209.527492" y2="69.3419975" id="Path" stroke="#202020" stroke-width="1.94999993" stroke-linecap="round" stroke-linejoin="round"></line>
            <path d="M181.135493,122.362496 C195.396493,122.362496 206.771492,122.557496 213.999492,120.860996 C219.348992,119.599996 219.121492,111.877996 213.700492,110.974496 C206.114992,109.674496 194.161493,109.446996 181.128993,109.453496 L181.167993,109.453496 C168.167994,109.453496 156.188494,109.719996 148.596495,111.000496 C143.181995,111.916996 142.960995,119.638996 148.310495,120.886996 C155.538494,122.576996 166.913494,122.368996 181.174493,122.362496" id="Path" fill="#D6D7D8" fill-rule="nonzero"></path>
            <path d="M181.135493,122.362496 C195.396493,122.362496 206.771492,122.557496 213.999492,120.860996 C219.348992,119.599996 219.121492,111.877996 213.700492,110.974496 C206.114992,109.674496 194.161493,109.446996 181.128993,109.453496 L181.167993,109.453496 C168.167994,109.453496 156.188494,109.719996 148.596495,111.000496 C143.181995,111.916996 142.960995,119.638996 148.310495,120.886996 C155.538494,122.576996 166.913494,122.368996 181.174493,122.362496" id="Path" fill="#D6D7D8" fill-rule="nonzero"></path>
            <path d="M200.245493,121.946496 C200.964387,121.985824 201.680613,121.830904 202.318993,121.497996 C202.850621,121.10007 203.247596,120.548842 203.456493,119.918496 C205.035992,115.966496 202.949493,110.928996 199.042993,109.277996 L206.426992,110.577996 L208.649992,110.577996 C214.278992,110.987496 217.990492,109.427496 218.269992,117.422496 C218.471492,123.272495 205.666492,120.327996 205.334992,122.056996" id="Path" fill="#414547" fill-rule="nonzero" opacity="0.34"></path>
            <g id="Group" opacity="0.34" transform="translate(174.199994, 109.199996)" fill="#414547" fill-rule="nonzero">
                <path d="M30.5499989,12.8439995 C30.7384989,11.8819996 34.8009987,12.3629995 38.3499986,11.9664996 C38.8569986,11.8689996 39.3444986,11.7714996 39.8124985,11.6609996 C41.5971994,11.2888632 43.0230478,9.94836481 43.5044984,8.1899997 C43.4199984,5.72649979 43.0039984,4.17949985 42.3084984,3.19149988 C41.5544614,2.42950638 40.5738242,1.93234612 39.5134986,1.77449993 C38.8634986,1.66399994 38.2134986,1.56649994 37.5179986,1.47549995 C36.4259987,1.47549995 35.2104987,1.47549995 33.8909988,1.36499995 L31.6549988,1.36499995 C31.6549988,1.36499995 31.6874988,1.21549996 31.7459988,0.896999967 C24.7844991,0.376999986 16.1459994,0.246999991 6.96149974,0.246999991 C4.63449983,0.246999991 2.33999991,0.246999991 0.0909999967,0.27949999 C0.0909999967,0.27949999 8.46949969,6.35699977 3.28249988,13.1624995 L6.96799974,13.1624995 C16.1329994,13.1559995 24.1084991,13.2339995 30.5499989,12.8439995 Z" id="Path"></path>
            </g>
            <path d="M174.277994,109.459996 C179.952493,109.459996 192.263493,109.498996 197.255493,109.654996 C202.759036,109.742227 208.251601,110.176422 213.700492,110.954996 C219.095492,111.858496 219.361992,119.573996 214.038492,120.828496 C208.714992,122.082996 201.122993,122.310496 191.782493,122.342996 C188.447993,122.342996 184.892493,122.342996 181.135493,122.342996 L165.847494,122.342996 C158.651994,122.251996 152.704494,121.926996 148.297495,120.893496 C142.941495,119.638996 143.188495,111.916996 148.609495,111.006996 C154.225651,110.197136 159.887901,109.747716 165.561494,109.661496" id="Path" stroke="#202020" stroke-width="1.94999993" stroke-linecap="round" stroke-linejoin="round"></path>
            <path d="M154.946994,70.0569974 C155.359652,70.7735085 155.695193,71.531745 155.947994,72.3189973 C180.043493,73.2809973 196.000993,72.9689973 206.433492,72.2604973 C206.623014,71.4399163 206.895239,70.6406631 207.245992,69.8749974 L181.167993,70.0439974 L154.946994,70.0569974 Z" id="Path" fill="#414547" fill-rule="nonzero" opacity="0.34"></path>
            <ellipse id="Oval" fill="#FFFFFF" fill-rule="nonzero" cx="160.159994" cy="114.633996" rx="9.39249966" ry="1.36499995"></ellipse>
            <ellipse id="Oval" fill="#FFFFFF" fill-rule="nonzero" cx="159.152494" cy="211.197992" rx="9.39249966" ry="1"></ellipse>
            <ellipse id="Oval" fill="#FFFFFF" fill-rule="nonzero" cx="138.085995" cy="265.57699" rx="9.39249966" ry="1"></ellipse>
            <path d="M181.570993,17.1859994 C178.645993,16.2239994 175.629994,21.4174992 177.735993,21.2809992 C179.841993,21.1444992 183.689993,17.8814993 181.570993,17.1859994 Z" id="Path" fill="#FFFFFF" fill-rule="nonzero"></path>
            <path d="M57.2974979,79.1829971 L50.3879982,70.2389974 C56.2852336,63.2523323 63.9919183,58.0238403 72.6634973,55.126498 C91.3899966,49.0879982 116.135496,58.6884978 124.884495,73.8724973 C138.729495,97.8899964 131.767995,128.686995 122.147996,152.840994 L104.168996,160.127494 L57.2974979,79.1829971 Z" id="Path" fill="#2F3335" fill-rule="nonzero"></path>
            <path d="M122.687495,79.6704971 C128.537495,89.8429967 131.728995,108.328996 122.147996,152.840994 C137.708995,104.266496 131.657495,85.6179969 124.884495,73.8724973 C117.038996,60.2614978 96.3559965,51.1224981 78.6629971,53.722498 C96.9344964,55.9389979 114.835496,66.0464976 122.687495,79.6704971 Z" id="Path" fill="#D6D7D8" fill-rule="nonzero" opacity="0.38"></path>
            <path d="M57.2974979,79.1829971 L50.3879982,70.2389974 C56.2852336,63.2523323 63.9919183,58.0238403 72.6634973,55.126498 C91.3899966,49.0879982 116.135496,58.6884978 124.884495,73.8724973 C138.729495,97.8899964 131.767995,128.686995 122.147996,152.840994 L104.168996,160.127494" id="Path" stroke="#202020" stroke-width="1.94999993" stroke-linecap="round" stroke-linejoin="round"></path>
            <path d="M112.677496,229.215992 L112.495496,226.056992 L112.495496,226.056992 C122.713495,208.506992 108.965996,194.765993 98.7154964,184.892493 L98.7154964,184.892493 L98.9884964,181.759493 L101.165996,181.759493 C103.401362,181.79763 105.265865,180.059534 105.384496,177.826993 C105.412549,176.738543 104.999693,175.684922 104.239641,174.905287 C103.479588,174.125651 102.436808,173.686132 101.347996,173.686494 L98.6764964,173.686494 L98.6764964,170.527494 L98.6764964,170.527494 C98.7544964,170.390994 107.964996,153.932994 111.825996,143.279495 C118.000996,126.262495 125.605995,81.392997 96.0634965,71.3699974 C96.0634965,71.3699974 96.0634965,71.3699974 96.0634965,71.3699974 C95.9139965,71.0969974 83.2064969,47.3979983 72.5984973,47.3654983 L72.8584973,70.2909974 C72.8584973,70.2909974 72.8584973,70.2909974 72.8584973,70.2909974 L17.1664994,106.560996 C17.1664994,106.560996 17.1664994,106.560996 17.1664994,106.560996 C17.2379994,106.957496 19.0514993,119.755996 31.5834988,129.310995 L33.5334988,130.610995 L35.3404987,131.598995 L45.4999983,125.820495 L45.2074983,122.570496 L50.9599981,120.340996 L50.9599981,120.340996 L57.2519979,123.720995 L37.7519986,170.449494 L37.7519986,170.449494 L37.7519986,171.378994 L37.5309986,173.549994 L37.5309986,173.549994 L35.3339987,173.549994 C33.1000259,173.518453 31.2375382,175.251999 31.1089989,177.482493 C31.0809746,178.571541 31.4936331,179.625812 32.2534901,180.40647 C33.013347,181.187128 34.0560916,181.628102 35.1454987,181.629493 L37.3294986,181.629493 L37.3294986,181.700993 L37.6024986,184.853493 L37.6024986,184.853493 C27.358499,194.726993 13.6109995,208.435492 23.8289991,226.017992 L23.8289991,226.017992 L23.6469991,229.176992 C23.3544991,229.176992 17.2899994,229.969992 17.2899994,236.170991 L17.2899994,242.462991 L119.027996,242.462991 L119.027996,236.170991 C119.027996,229.969992 112.963496,229.209492 112.670996,229.176992 L112.677496,229.215992 Z" id="Path" fill="#414547" fill-rule="nonzero"></path>
            <path d="M119.047496,236.222991 L119.047496,242.514991 L72.7999973,242.514991 L73.1379973,241.864991 L73.1379973,241.864991 L68.7504975,229.241992 C68.7504975,229.241992 68.7504975,229.241992 68.7504975,229.241992 C69.0559975,229.033992 74.1259973,225.712492 77.6489972,216.287492 C79.9629971,210.099492 80.1319971,203.469493 80.0539971,196.865493 C79.9052811,193.019537 79.5232452,189.186154 78.9099971,185.386493 L82.159997,180.777993 L82.159997,180.777993 C83.6125476,180.24479 84.5534822,178.833388 84.4869969,177.287493 C84.5757352,175.777528 83.6110554,174.405958 82.159997,173.978994 L82.159997,170.403994 C82.159997,170.371494 103.772496,138.703495 104.006496,116.778996 C104.253496,93.9769966 99.0079964,80.0214971 89.7064967,76.7779972 L89.7064967,76.7779972 C89.6544967,76.5244972 90.5189967,66.5599976 84.1814969,61.1779978 C81.4306902,58.9257421 80.086142,55.3798985 80.651997,51.8699981 C80.736497,51.3954981 80.833997,51.1419981 80.937997,51.2199981 C89.2449967,58.8704978 96.0439965,71.2854974 96.0699965,71.3309974 L96.0699965,71.3309974 C125.618995,81.347497 118.013996,126.216995 111.838996,143.240495 C107.977996,153.893994 98.7674964,170.351994 98.6894964,170.488494 L98.6894964,170.488494 L98.6894964,173.647494 L101.172496,173.647494 C103.40906,173.609213 105.275494,175.346432 105.397496,177.579993 C105.425549,178.668444 105.012693,179.722065 104.252641,180.5017 C103.492588,181.281335 102.449808,181.720855 101.360996,181.720493 L99.0014964,181.720493 L98.7284964,184.853493 C98.7284964,184.853493 98.7284964,184.853493 98.7284964,184.853493 C108.978996,194.726993 122.719995,208.428992 112.508496,226.017992 L112.508496,226.017992 L112.690496,229.176992 C112.690496,229.176992 112.690496,229.176992 112.690496,229.176992 C112.982996,229.267992 119.047496,230.028492 119.047496,236.222991 Z" id="Path" fill="#D6D7D8" fill-rule="nonzero" opacity="0.38"></path>
            <line x1="112.690496" y1="229.228992" x2="95.7774965" y2="229.228992" id="Path" stroke="#202020" stroke-width="1.94999993" stroke-linecap="round" stroke-linejoin="round"></line>
            <polyline id="Path" stroke="#202020" stroke-width="1.94999993" stroke-linecap="round" stroke-linejoin="round" points="67.0149975 92.7029966 59.8974978 92.7029966 59.8974978 96.2064965"></polyline>
            <path d="M47.7944982,178.054493 C47.9309982,174.745994 52.1169981,173.569494 52.1169981,173.569494 L32.4999988,173.647494 L31.1349989,177.501993 L32.4999988,180.628493 L35.1714987,181.648993 L49.6014982,181.739993 C49.6014982,181.739993 47.6449983,181.512493 47.7944982,178.054493 Z" id="Path" fill="#2F3335" fill-rule="nonzero"></path>
            <line x1="35.7889987" y1="169.844994" x2="44.3559984" y2="169.844994" id="Path" stroke="#202020" stroke-width="1.94999993" stroke-linecap="round" stroke-linejoin="round"></line>
            <line x1="93.5804966" y1="169.844994" x2="102.140996" y2="169.844994" id="Path" stroke="#202020" stroke-width="1.94999993" stroke-linecap="round" stroke-linejoin="round"></line>
            <line x1="102.140996" y1="74.1584973" x2="110.103496" y2="60.0404978" id="Path" stroke="#202020" stroke-width="1.94999993" stroke-linecap="round" stroke-linejoin="round"></line>
            <line x1="107.574996" y1="78.5719971" x2="119.586996" y2="67.0994975" id="Path" stroke="#202020" stroke-width="1.94999993" stroke-linecap="round" stroke-linejoin="round"></line>
            <line x1="114.542996" y1="133.990995" x2="129.115995" y2="131.631495" id="Path" stroke="#202020" stroke-width="1.94999993" stroke-linecap="round" stroke-linejoin="round"></line>
            <line x1="56.6474979" y1="64.0379977" x2="64.2199976" y2="74.1584973" id="Path" stroke="#202020" stroke-width="1.94999993" stroke-linecap="round" stroke-linejoin="round"></line>
            <line x1="64.2199976" y1="58.8314978" x2="69.9464974" y2="71.9094974" id="Path" stroke="#202020" stroke-width="1.94999993" stroke-linecap="round" stroke-linejoin="round"></line>
            <line x1="98.9884964" y1="55.379998" x2="96.0634965" y2="71.3049974" id="Path" stroke="#202020" stroke-width="1.94999993" stroke-linecap="round" stroke-linejoin="round"></line>
            <rect id="Rectangle" fill="#2F3335" fill-rule="nonzero" x="37.5959986" y="182.311993" width="60.9114978" height="2.6584999"></rect>
            <line x1="114.542996" y1="90.3044967" x2="129.687995" y2="84.8444969" id="Path" stroke="#202020" stroke-width="1.94999993" stroke-linecap="round" stroke-linejoin="round"></line>
            <line x1="89.6934967" y1="53.553498" x2="89.6934967" y2="61.1714978" id="Path" stroke="#202020" stroke-width="1.94999993" stroke-linecap="round" stroke-linejoin="round"></line>
            <path d="M54.710498,181.681493 L32.4999988,180.628493 C33.2361204,181.283282 34.1863002,181.646246 35.1714987,181.648993 L37.3554986,181.648993 L37.3554986,181.720493 L37.6284986,184.872993 C37.6284986,184.872993 37.6284986,184.872993 37.6284986,184.872993 C32.3309988,189.981993 26.097499,196.117993 22.7239992,203.280993 C29.5879989,192.003493 52.1169981,192.549493 54.710498,181.681493 Z" id="Path" fill="#2F3335" fill-rule="nonzero"></path>
            <path d="M80.2164971,119.313996 C71.1164974,129.284995 57.2974979,124.325495 57.2974979,124.325495 L49.5754982,142.778995 C69.6604974,140.893995 80.2164971,119.313996 80.2164971,119.313996 Z" id="Path" fill="#2F3335" fill-rule="nonzero"></path>
            <path d="M57.2974979,123.720995 C57.2974979,123.720995 71.1359974,128.680495 80.2164971,118.715996" id="Path" stroke="#202020" stroke-width="1.94999993" stroke-linecap="round" stroke-linejoin="round"></path>
            <path d="M81.548997,71.3049974 C80.9530583,65.5227529 77.6711599,60.3579165 72.6894973,57.3624979 L72.8324973,70.2389974 L81.548997,71.3049974 Z" id="Path" fill="#2F3335" fill-rule="nonzero"></path>
            <line x1="37.5959986" y1="184.885993" x2="45.6299983" y2="184.885993" id="Path" stroke="#202020" stroke-width="1.94999993" stroke-linecap="round" stroke-linejoin="round"></line>
            <line x1="98.5074964" y1="184.885993" x2="90.4734967" y2="184.885993" id="Path" stroke="#202020" stroke-width="1.94999993" stroke-linecap="round" stroke-linejoin="round"></line>
            <line x1="72.8324973" y1="70.2389974" x2="80.2164971" y2="71.3049974" id="Path" stroke="#202020" stroke-width="1.94999993" stroke-linecap="round" stroke-linejoin="round"></line>
            <path d="M109.037496,92.1114966 C111.325496,86.3459968 102.576496,78.6954971 102.413996,83.076497 C102.251496,87.4574968 107.379996,96.2909965 109.037496,92.1114966 Z" id="Path" fill="#D6D7D8" fill-rule="nonzero"></path>
            <line x1="37.2709986" y1="181.681493" x2="98.9884964" y2="181.739993" id="Path" stroke="#202020" stroke-width="1.94999993" stroke-linecap="round" stroke-linejoin="round"></line>
            <line x1="35.3339987" y1="173.569494" x2="98.6959964" y2="173.647494" id="Path" stroke="#202020" stroke-width="1.94999993" stroke-linecap="round" stroke-linejoin="round"></line>
            <line x1="23.6404991" y1="229.215992" x2="41.3074985" y2="229.215992" id="Path" stroke="#202020" stroke-width="1.94999993" stroke-linecap="round" stroke-linejoin="round"></line>
            <path d="M112.677496,229.215992 L112.495496,226.056992 L112.495496,226.056992 C122.713495,208.506992 108.965996,194.765993 98.7154964,184.892493 L98.7154964,184.892493 L98.9884964,181.759493 L101.165996,181.759493 C103.401362,181.79763 105.265865,180.059534 105.384496,177.826993 C105.412549,176.738543 104.999693,175.684922 104.239641,174.905287 C103.479588,174.125651 102.436808,173.686132 101.347996,173.686494 L98.6764964,173.686494 L98.6764964,170.527494 L98.6764964,170.527494 C98.7544964,170.390994 107.964996,153.932994 111.825996,143.279495 C118.000996,126.262495 125.605995,81.392997 96.0634965,71.3699974 C96.0634965,71.3699974 96.0634965,71.3699974 96.0634965,71.3699974 C95.9139965,71.0969974 83.2064969,47.3979983 72.5984973,47.3654983 L72.8584973,70.2909974 C72.8584973,70.2909974 72.8584973,70.2909974 72.8584973,70.2909974 L17.1664994,106.560996 C17.1664994,106.560996 17.1664994,106.560996 17.1664994,106.560996 C17.2379994,106.957496 19.2659993,123.642995 35.3664987,131.618495 L45.4999983,125.820495 L45.2074983,122.570496 L50.9599981,120.340996 L50.9599981,120.340996 L57.2519979,123.720995 L37.7519986,170.449494 L37.7519986,170.449494 L37.7519986,171.378994 L37.5309986,173.549994 L37.5309986,173.549994 L35.3339987,173.549994 C33.1000259,173.518453 31.2375382,175.251999 31.1089989,177.482493 C31.0809746,178.571541 31.4936331,179.625812 32.2534901,180.40647 C33.013347,181.187128 34.0560916,181.628102 35.1454987,181.629493 L37.3294986,181.629493 L37.3294986,181.700993 L37.6024986,184.853493 L37.6024986,184.853493 C27.358499,194.726993 13.6109995,208.435492 23.8289991,226.017992 L23.8289991,226.017992 L23.6469991,229.176992 C23.3544991,229.176992 17.2899994,229.969992 17.2899994,236.170991 L17.2899994,242.462991 L119.027996,242.462991 L119.027996,236.170991 C119.027996,229.969992 112.963496,229.209492 112.670996,229.176992 L112.677496,229.215992 Z" id="Path" stroke="#202020" stroke-width="1.94999993" stroke-linecap="round" stroke-linejoin="round"></path>
            <line x1="48.7304982" y1="229.215992" x2="72.8324973" y2="229.215992" id="Path" stroke="#202020" stroke-width="1.94999993" stroke-linecap="round" stroke-linejoin="round"></line>
            <path d="M102.927496,213.479492 C105.436496,210.547992 101.828996,204.281993 100.847496,206.829992 C99.8659963,209.377992 101.107496,215.611492 102.927496,213.479492 Z" id="Path" fill="#D6D7D8" fill-rule="nonzero"></path>
            <path d="M111.253996,122.914995 C116.037996,110.226996 110.038496,88.8029967 108.049496,99.0599964 C107.451496,102.160496 108.621496,106.495996 108.640996,110.662496 C108.692996,120.249996 108.829496,129.349995 111.253996,122.914995 Z" id="Path" fill="#D6D7D8" fill-rule="nonzero"></path>
            <ellipse id="Oval" fill="#D6D7D8" fill-rule="nonzero" cx="97.7469964" cy="177.079494" rx="4.16649985" ry="1"></ellipse>
            <ellipse id="Oval" fill="#D6D7D8" fill-rule="nonzero" cx="105.910996" cy="235.078991" rx="9.43799965" ry="2.14499992"></ellipse>
            <path d="M100.652496,200.251993 C102.933996,194.486493 94.1849965,186.842493 94.0224966,191.216993 C93.8599966,195.591493 98.9949964,204.437993 100.652496,200.251993 Z" id="Path" fill="#D6D7D8" fill-rule="nonzero"></path>
            <path d="M21.8269992,118.605496 C26.792999,109.849996 31.8499988,103.167996 33.7999988,108.777496 C35.7499987,114.386996 28.9444989,114.120496 28.9444989,114.120496" id="Path" stroke="#202020" stroke-width="1.94999993" stroke-linecap="round" stroke-linejoin="round"></path>
            <circle id="Oval" stroke="#FFFFFF" stroke-width="1.94999993" stroke-linecap="round" stroke-linejoin="round" cx="232.673991" cy="18.8629993" r="3.30849988"></circle>
            <line x1="206.303492" y1="0.324999988" x2="199.809993" y2="7.09149974" id="Path" stroke="#FFFFFF" stroke-width="1.94999993" stroke-linecap="round" stroke-linejoin="round"></line>
            <line x1="206.439992" y1="6.95499974" x2="199.673493" y2="0.461499983" id="Path" stroke="#FFFFFF" stroke-width="1.94999993" stroke-linecap="round" stroke-linejoin="round"></line>
            <circle id="Oval" stroke="#FFFFFF" stroke-width="1.94999993" stroke-linecap="round" stroke-linejoin="round" cx="117.675996" cy="3.94549986" r="2.6584999"></circle>
            <line x1="105.780996" y1="19.4154993" x2="102.231996" y2="28.7494989" id="Path" stroke="#FFFFFF" stroke-width="1.94999993" stroke-linecap="round" stroke-linejoin="round"></line>
            <line x1="108.673496" y1="25.8569991" x2="99.3394964" y2="22.3014992" id="Path" stroke="#FFFFFF" stroke-width="1.94999993" stroke-linecap="round" stroke-linejoin="round"></line>
            <line x1="7.65049972" y1="144.104995" x2="0.324999988" y2="145.723495" id="Path" stroke="#FFFFFF" stroke-width="1.94999993" stroke-linecap="round" stroke-linejoin="round"></line>
            <line x1="4.79699982" y1="148.576995" x2="3.17849988" y2="141.251495" id="Path" stroke="#FFFFFF" stroke-width="1.94999993" stroke-linecap="round" stroke-linejoin="round"></line>
        </g>
    </g>
</svg>