<svg width="300" height="385" xmlns="http://www.w3.org/2000/svg">
  <g transform="translate(1 1)" fill="none" fill-rule="evenodd">
    <path fill="#FFF" fill-rule="nonzero" d="M290.99 128.26l-25.57-7.71-22.28 7.71-21.95-7.71-21.28 7.71-18.96-6.32-18.47 6.32-18.77-5.54-20.12 5.54V.5h167.4z"/>
    <path stroke="#202020" stroke-width="3" stroke-linecap="round" stroke-linejoin="round" d="M290.99 128.26l-25.57-7.71-22.28 7.71-21.95-7.71-21.28 7.71-18.96-6.32-18.47 6.32-18.77-5.54-20.12 5.54V.5h167.4z"/>
    <path stroke="#202020" stroke-width="3" stroke-linecap="round" stroke-linejoin="round" d="M146.3 21.93h28.36v28.36H146.3z"/>
    <path stroke="#414547" stroke-width="3" opacity=".51" stroke-linecap="round" stroke-linejoin="round" d="M178.95 16.95l-16.56 23.74-5.59-8.88"/>
    <path d="M65.58 62.08L61 65.56l-2.42 26 16.36-12.9c-1.4-8.6-8.34-9.26-9.36-16.58zM31.22 32c-6.36 7.27-5.84 14.49-4.29 21.47 1.579054 7.5779789-1.8273047 15.3226246-8.48 19.28-2.64 1.61-5 3.59-5.95 5.9-3.31 7.83 6.19 14.58 11.67 14.13C29.65 92.33 54 83.44 54 83.44l7-46.22C58.58 23.59 41.12 20.71 31.22 32z" fill="#2F3335" fill-rule="nonzero"/>
    <path d="M74.94 78.66l-3.2 2.53c-1.17-3.27-4.08-6.56-6.16-8.8-2.08-2.24-2.25-6.78-2.28-8.58l2.28-1.73c1.02 7.32 7.96 7.98 9.36 16.58z" fill="#6D6F70" fill-rule="nonzero"/>
    <path d="M102.45 372.46c-1.22-12.31-11.59-11.28-11.59-11.28l-14.86.54-1.21-5.93h-5.25v16.67h32.91z" fill="#8A8F93" fill-rule="nonzero"/>
    <path d="M91.08 361.2l-13.55-.11c1.25 4.44 8.47 5.93 14.63 5.35 2.3079495-.088458 4.585365-.558132 6.74-1.39-1.4776245-2.86212-4.6505599-4.424243-7.82-3.85zM40.58 378.84c-7.17 6.18-17.31-1.71-17.31-1.71l8-23h6.06l3.25 24.71z" fill="#D6D7D8" fill-rule="nonzero"/>
    <path d="M25.32 371.26l-2.05 5.87s10.14 7.89 17.31 1.71l-.8-6.14c-5.08 2.3-10.73.44-14.46-1.44z" fill="#8A8F93" fill-rule="nonzero"/>
    <path d="M40.58 378.84c-7.17 6.18-17.31-1.71-17.31-1.71l8-23h6.06l3.25 24.71zM115.7 21.75l19.21 14.73" stroke="#202020" stroke-width="3" stroke-linecap="round" stroke-linejoin="round"/>
    <path fill="#D6D7D8" fill-rule="nonzero" d="M100.48 93.81L130.66 95l-1.82-71.41h-6.89l-2 58.16-22.23-1.25z"/>
    <path d="M74.94 78.66l-3.2 2.53c-1.17-3.27-4.08-6.56-6.16-8.8-2.08-2.24-2.25-6.78-2.28-8.58l2.28-1.73c1.02 7.32 7.96 7.98 9.36 16.58z" fill="#6D6F70" fill-rule="nonzero"/>
    <path d="M74.94 78.66c-1.4-8.6-8.34-9.26-9.36-16.58L61 65.56l-2.42 26 16.36-12.9z" stroke="#202020" stroke-width="3" stroke-linecap="round" stroke-linejoin="round"/>
    <path d="M28.26 92a26.61001032 26.61001032 0 01-4.09.84c-5.48.45-15-6.31-11.68-14.13 1-2.31 3.31-4.3 6-5.9 6.6598989-3.9509989 10.0686222-11.7010208 8.48-19.28-1.54-7 6.68 15.35-3.26 22.46C16 81.45 17.16 90.56 28.26 92z" fill="#6D6F70" fill-rule="nonzero"/>
    <path d="M31.22 32c-6.36 7.27-5.84 14.49-4.29 21.47 1.579054 7.5779789-1.8273047 15.3226246-8.48 19.28-2.64 1.61-5 3.59-5.95 5.9-3.31 7.83 6.19 14.58 11.67 14.13C29.65 92.33 54 83.44 54 83.44l7-46.22C58.58 23.59 41.12 20.71 31.22 32z" stroke="#202020" stroke-width="3" stroke-linecap="round" stroke-linejoin="round"/>
    <path fill="#8A8F93" fill-rule="nonzero" d="M.5 128.07l13.76 61.91h5.65l-5.89-61.39 20.88-24.9-1.25 41.01 24.93 1.98 20.11.78-3.75-21.53 7.25-5.52 2.12-27.59L130.66 95l-1.82-71.41h-6.89l-2 58.16-45.01-3.08H33.65z"/>
    <path d="M36.8 53.93L46 42.68 51 31l10 6.2 6.64 2.62-2.89 4.9.25.49 5.21 10.41L61 65.56v12.71c.00144 4.0027217-3.079169 7.3316966-7.07 7.64-2.3532663.1869743-4.6612925-.721553-6.2556674-2.4624696C46.0799578 81.7066138 45.377355 79.3277997 45.77 77l1.94-11.43L36.8 53.93z" fill="#D6D7D8" fill-rule="nonzero"/>
    <path d="M35.22 33l6.62-.83c-.51 5.09-.83 11.94.79 14.67C45.35 51.42 54 65.14 54 65.14l-5.6 20.14-4.29 1.4 3.59-21.12-14.2-15.14L35.22 33z" fill="#8A8F93" fill-rule="nonzero" opacity=".67"/>
    <path d="M32.42 61.2c3.43-9 15.67-13.1 17.57-27.93l-5.43-3.44L34.52 31l-4.87 15 2.77 15.2z" fill="#2F3335" fill-rule="nonzero"/>
    <path d="M51 31l10 6.2 5.64 2.62-1.89 4.9.25.49 5.21 10.41L61 65.56v12.71c.00144 4.0027217-3.079169 7.3316966-7.07 7.64h0c-2.3532663.1869743-4.6612925-.721553-6.2556674-2.4624696C46.0799578 81.7066138 45.377355 79.3277997 45.77 77l1.94-11.43L36.8 53.93" stroke="#202020" stroke-width="3" stroke-linecap="round" stroke-linejoin="round"/>
    <ellipse fill="#D6D7D8" fill-rule="nonzero" transform="rotate(-60 44.812007 50.442376)" cx="44.812007" cy="50.4423763" rx="2.91" ry="4.05"/>
    <path d="M33.5 63.08C33.5 50.42 49.14 45.85 51 31" stroke="#202020" stroke-width="3" stroke-linecap="round" stroke-linejoin="round"/>
    <path fill="#D6D7D8" fill-rule="nonzero" d="M100.48 93.81L130.66 95l-1.82-71.41h-6.89l-2 58.16-22.23-1.25z"/>
    <path d="M130.66 95l-.16-6.23-39.33-1.47s-10-1.36-13.31 4.29c-3.12 5.3 2.44 20 4.15 29l.19-.14 2.11-27.59L130.66 95z" fill="#2F3335" fill-rule="nonzero" opacity=".43"/>
    <path fill="#D6D7D8" fill-rule="nonzero" d="M10.22 171.78l-4.52 7.69 2.26 8.65 6.3 1.86z"/>
    <path fill="#D6D7D8" fill-rule="nonzero" d="M17.06 103.39L.5 128.07l13.76 61.91h5.65l-5.89-61.39 13.52-13.86z"/>
    <path stroke="#202020" stroke-width="3" stroke-linecap="round" stroke-linejoin="round" d="M45.48 78.67H33.65L.5 128.07l13.76 61.91h5.65l-5.89-61.39 20.88-24.9-1.25 41.01 24.93 1.98 20.11.78-3.75-21.53 7.25-5.52 2.12-27.59L130.66 95l-1.82-71.41h-6.89l-2 58.16-45.01-3.08H60.99M40.58 378.84c-7.17 6.18-17.31-1.71-17.31-1.71l8-23h6.06l3.25 24.71zM102.45 372.46c0-11.37-16.45-11.1-16.45-11.1l-10 .36-1.21-5.93h-5.25v16.67h32.91zM99.92 93.55l-1.86-12.51M125.3 36.48h3.36M17.06 103.39l8.96 9.71"/>
    <path d="M78.69 147.46l-20.11 5.86-24.93-8.62c-4.31 62.63-2.85 117-2.85 117l1.13 92.84h4.73l16.84-70.65-3.5-27.05c1.85-24 5.5-48.78 7.37-74.15l17.58 77.7-5.82 23.5.42 71.9h3.22l16-99-10.08-109.33z" stroke="#202020" stroke-width="3" stroke-linecap="round" stroke-linejoin="round"/>
    <path d="M78.69 147.46l-20.11-.78-24.93-2c-4.31 62.63-2.85 117-2.85 117l1.13 92.84h4.73l16.84-70.63-3.5-27.05c1.85-24 4.48-35.16 6.35-60.53l18.6 64.08-5.82 23.5.42 71.9h6.22l20-99-17.08-109.33z" fill="#202020" fill-rule="nonzero"/>
    <path stroke="#202020" stroke-width="3" stroke-linecap="round" stroke-linejoin="round" d="M10.22 171.78l-4.52 7.69 2.26 8.65 6.3 1.86M78.31 368.57l1.99 3.89"/>
    <path fill="#2F3335" fill-rule="nonzero" opacity=".43" d="M44.81 145.59l7.37-23.8-11.27-43.12h-7.26L.5 128.07l9.72 43.71-4.52 7.69 2.26 8.65 6.3 1.86h5.65l-5.89-61.39 13.52-13.86-1-1.07 8.36-9.97-1.25 41.01z"/>
    <path d="M40.58 378.84c-7.17 6.18-17.31-1.71-17.31-1.71l8-23h6.06l3.25 24.71zM146.3 69.5h28.36v28.36H146.3z" stroke="#202020" stroke-width="3" stroke-linecap="round" stroke-linejoin="round"/>
    <path stroke="#414547" stroke-width="3" opacity=".51" stroke-linecap="round" stroke-linejoin="round" d="M178.95 64.53l-16.56 23.74-5.59-8.89"/>
    <path stroke="#202020" stroke-width="3" stroke-linecap="round" stroke-linejoin="round" d="M188.08 36.48h65.37M188.08 83.68h65.37"/>
    <path fill="#FFF" fill-rule="nonzero" d="M290.99 128.26l-25.57-7.71-22.28 7.71-21.95-7.71-21.28 7.71-18.96-6.32-18.47 6.32-18.77-5.54-20.12 5.54V.5h167.4z"/>
    <path stroke="#202020" stroke-width="3" stroke-linecap="round" stroke-linejoin="round" d="M290.99 128.26l-25.57-7.71-22.28 7.71-21.95-7.71-21.28 7.71-18.96-6.32-18.47 6.32-18.77-5.54-20.12 5.54V.5h167.4z"/>
    <path stroke="#202020" stroke-width="3" stroke-linecap="round" stroke-linejoin="round" d="M146.3 21.93h28.36v28.36H146.3z"/>
    <path stroke="#414547" stroke-width="3" opacity=".51" stroke-linecap="round" stroke-linejoin="round" d="M178.95 16.95l-16.56 23.74-5.59-8.88"/>
    <path d="M65.58 62.08L61 65.56l-2.42 26 16.36-12.9c-1.4-8.6-8.34-9.26-9.36-16.58zM31.22 32c-6.36 7.27-5.84 14.49-4.29 21.47 1.579054 7.5779789-1.8273047 15.3226246-8.48 19.28-2.64 1.61-5 3.59-5.95 5.9-3.31 7.83 6.19 14.58 11.67 14.13C29.65 92.33 54 83.44 54 83.44l7-46.22C58.58 23.59 41.12 20.71 31.22 32z" fill="#2F3335" fill-rule="nonzero"/>
    <path d="M74.94 78.66l-3.2 2.53c-1.17-3.27-4.08-6.56-6.16-8.8-2.08-2.24-2.25-6.78-2.28-8.58l2.28-1.73c1.02 7.32 7.96 7.98 9.36 16.58z" fill="#6D6F70" fill-rule="nonzero"/>
    <path d="M102.45 372.46c-1.22-12.31-11.59-11.28-11.59-11.28l-14.86.54-1.21-5.93h-5.25v16.67h32.91z" fill="#8A8F93" fill-rule="nonzero"/>
    <path d="M91.08 361.2l-13.55-.11c1.25 4.44 8.47 5.93 14.63 5.35 2.3079495-.088458 4.585365-.558132 6.74-1.39-1.4776245-2.86212-4.6505599-4.424243-7.82-3.85zM40.58 378.84c-7.17 6.18-17.31-1.71-17.31-1.71l8-23h6.06l3.25 24.71z" fill="#D6D7D8" fill-rule="nonzero"/>
    <path d="M25.32 371.26l-2.05 5.87s10.14 7.89 17.31 1.71l-.8-6.14c-5.08 2.3-10.73.44-14.46-1.44z" fill="#8A8F93" fill-rule="nonzero"/>
    <path d="M40.58 378.84c-7.17 6.18-17.31-1.71-17.31-1.71l8-23h6.06l3.25 24.71zM115.7 21.75l19.21 14.73" stroke="#202020" stroke-width="3" stroke-linecap="round" stroke-linejoin="round"/>
    <path fill="#D6D7D8" fill-rule="nonzero" d="M100.48 93.81L130.66 95l-1.82-71.41h-6.89l-2 58.16-22.23-1.25z"/>
    <path d="M74.94 78.66l-3.2 2.53c-1.17-3.27-4.08-6.56-6.16-8.8-2.08-2.24-2.25-6.78-2.28-8.58l2.28-1.73c1.02 7.32 7.96 7.98 9.36 16.58z" fill="#6D6F70" fill-rule="nonzero"/>
    <path d="M74.94 78.66c-1.4-8.6-8.34-9.26-9.36-16.58L61 65.56l-2.42 26 16.36-12.9z" stroke="#202020" stroke-width="3" stroke-linecap="round" stroke-linejoin="round"/>
    <path d="M28.26 92a26.61001032 26.61001032 0 01-4.09.84c-5.48.45-15-6.31-11.68-14.13 1-2.31 3.31-4.3 6-5.9 6.6598989-3.9509989 10.0686222-11.7010208 8.48-19.28-1.54-7 6.68 15.35-3.26 22.46C16 81.45 17.16 90.56 28.26 92z" fill="#6D6F70" fill-rule="nonzero"/>
    <path d="M31.22 32c-6.36 7.27-5.84 14.49-4.29 21.47 1.579054 7.5779789-1.8273047 15.3226246-8.48 19.28-2.64 1.61-5 3.59-5.95 5.9-3.31 7.83 6.19 14.58 11.67 14.13C29.65 92.33 54 83.44 54 83.44l7-46.22C58.58 23.59 41.12 20.71 31.22 32z" stroke="#202020" stroke-width="3" stroke-linecap="round" stroke-linejoin="round"/>
    <path fill="#8A8F93" fill-rule="nonzero" d="M.5 128.07l13.76 61.91h5.65l-5.89-61.39 20.88-24.9-1.25 41.01 24.93 1.98 20.11.78-3.75-21.53 7.25-5.52 2.12-27.59L130.66 95l-1.82-71.41h-6.89l-2 58.16-45.01-3.08H33.65z"/>
    <path d="M36.8 53.93L46 42.68 51 31l10 6.2 6.64 2.62-2.89 4.9.25.49 5.21 10.41L61 65.56v12.71c.00144 4.0027217-3.079169 7.3316966-7.07 7.64-2.3532663.1869743-4.6612925-.721553-6.2556674-2.4624696C46.0799578 81.7066138 45.377355 79.3277997 45.77 77l1.94-11.43L36.8 53.93z" fill="#D6D7D8" fill-rule="nonzero"/>
    <path d="M35.22 33l6.62-.83c-.51 5.09-.83 11.94.79 14.67C45.35 51.42 54 65.14 54 65.14l-5.6 20.14-4.29 1.4 3.59-21.12-14.2-15.14L35.22 33z" fill="#8A8F93" fill-rule="nonzero" opacity=".67"/>
    <path d="M32.42 61.2c3.43-9 15.67-13.1 17.57-27.93l-5.43-3.44L34.52 31l-4.87 15 2.77 15.2z" fill="#2F3335" fill-rule="nonzero"/>
    <path d="M51 31l10 6.2 5.64 2.62-1.89 4.9.25.49 5.21 10.41L61 65.56v12.71c.00144 4.0027217-3.079169 7.3316966-7.07 7.64h0c-2.3532663.1869743-4.6612925-.721553-6.2556674-2.4624696C46.0799578 81.7066138 45.377355 79.3277997 45.77 77l1.94-11.43L36.8 53.93" stroke="#202020" stroke-width="3" stroke-linecap="round" stroke-linejoin="round"/>
    <ellipse fill="#D6D7D8" fill-rule="nonzero" transform="rotate(-60 44.812007 50.442376)" cx="44.812007" cy="50.4423763" rx="2.91" ry="4.05"/>
    <path d="M33.5 63.08C33.5 50.42 49.14 45.85 51 31" stroke="#202020" stroke-width="3" stroke-linecap="round" stroke-linejoin="round"/>
    <path fill="#D6D7D8" fill-rule="nonzero" d="M100.48 93.81L130.66 95l-1.82-71.41h-6.89l-2 58.16-22.23-1.25z"/>
    <path d="M130.66 95l-.16-6.23-39.33-1.47s-10-1.36-13.31 4.29c-3.12 5.3 2.44 20 4.15 29l.19-.14 2.11-27.59L130.66 95z" fill="#2F3335" fill-rule="nonzero" opacity=".43"/>
    <path fill="#D6D7D8" fill-rule="nonzero" d="M10.22 171.78l-4.52 7.69 2.26 8.65 6.3 1.86z"/>
    <path fill="#D6D7D8" fill-rule="nonzero" d="M17.06 103.39L.5 128.07l13.76 61.91h5.65l-5.89-61.39 13.52-13.86z"/>
    <path stroke="#202020" stroke-width="3" stroke-linecap="round" stroke-linejoin="round" d="M45.48 78.67H33.65L.5 128.07l13.76 61.91h5.65l-5.89-61.39 20.88-24.9-1.25 41.01 24.93 1.98 20.11.78-3.75-21.53 7.25-5.52 2.12-27.59L130.66 95l-1.82-71.41h-6.89l-2 58.16-45.01-3.08H60.99M40.58 378.84c-7.17 6.18-17.31-1.71-17.31-1.71l8-23h6.06l3.25 24.71zM102.45 372.46c0-11.37-16.45-11.1-16.45-11.1l-10 .36-1.21-5.93h-5.25v16.67h32.91zM99.92 93.55l-1.86-12.51M125.3 36.48h3.36M17.06 103.39l8.96 9.71"/>
    <path d="M78.69 147.46l-20.11 5.86-24.93-8.62c-4.31 62.63-2.85 117-2.85 117l1.13 92.84h4.73l16.84-70.65-3.5-27.05c1.85-24 5.5-48.78 7.37-74.15l17.58 77.7-5.82 23.5.42 71.9h3.22l16-99-10.08-109.33z" stroke="#202020" stroke-width="3" stroke-linecap="round" stroke-linejoin="round"/>
    <path d="M78.69 147.46l-20.11-.78-24.93-2c-4.31 62.63-2.85 117-2.85 117l1.13 92.84h4.73l16.84-70.63-3.5-27.05c1.85-24 4.48-35.16 6.35-60.53l18.6 64.08-5.82 23.5.42 71.9h6.22l20-99-17.08-109.33z" fill="#202020" fill-rule="nonzero"/>
    <path stroke="#202020" stroke-width="3" stroke-linecap="round" stroke-linejoin="round" d="M10.22 171.78l-4.52 7.69 2.26 8.65 6.3 1.86M78.31 368.57l1.99 3.89"/>
    <path fill="#2F3335" fill-rule="nonzero" opacity=".43" d="M44.81 145.59l7.37-23.8-11.27-43.12h-7.26L.5 128.07l9.72 43.71-4.52 7.69 2.26 8.65 6.3 1.86h5.65l-5.89-61.39 13.52-13.86-1-1.07 8.36-9.97-1.25 41.01z"/>
    <path d="M40.58 378.84c-7.17 6.18-17.31-1.71-17.31-1.71l8-23h6.06l3.25 24.71zM146.3 69.5h28.36v28.36H146.3z" stroke="#202020" stroke-width="3" stroke-linecap="round" stroke-linejoin="round"/>
    <path stroke="#414547" stroke-width="3" opacity=".51" stroke-linecap="round" stroke-linejoin="round" d="M178.95 64.53l-16.56 23.74-5.59-8.89"/>
    <path stroke="#202020" stroke-width="3" stroke-linecap="round" stroke-linejoin="round" d="M188.08 36.48h65.37M188.08 83.68h65.37"/>
  </g>
</svg>