<?xml version="1.0" encoding="UTF-8"?>
<svg width="182px" height="221px" viewBox="0 0 182 221" version="1.1" xmlns="http://www.w3.org/2000/svg" xmlns:xlink="http://www.w3.org/1999/xlink">
    <!-- Generator: Sketch 63.1 (92452) - https://sketch.com -->
    <title>3 - Testing Iteration</title>
    <desc>Created with Sketch.</desc>
    <g id="Page-1" stroke="none" stroke-width="1" fill="none" fill-rule="evenodd">
        <g id="3---Testing-Iteration" transform="translate(1.000000, 1.000000)">
            <path d="M179.886203,198.002103 L179.886203,73.1387012 L147.180402,73.1387012 C146.570697,73.9548706 146.0258,74.8175043 145.550702,75.7187013 C138.081602,89.9087015 149.678702,110.978702 137.888102,121.879202 C132.298102,127.039202 122.730602,127.989502 119.626002,134.946902 C114.732602,145.911902 131.524102,157.900303 126.669402,168.886803 C124.601102,173.569503 119.380902,175.792603 115.162602,178.695103 C108.884602,182.995103 104.502902,190.623303 104.098702,198.006403 L179.886203,198.002103 Z" id="Path" fill="#F2F3F4" fill-rule="nonzero"></path>
            <path d="M49.2694008,51.2345009 L46.8700008,53.0577009 L45.6015008,66.6887011 L54.1800009,59.929101 C53.4447009,55.4184009 49.8026008,55.0787009 49.2694008,51.2345009 Z" id="Path" fill="#2F3335" fill-rule="nonzero"></path>
            <path d="M31.2567005,35.4707006 C27.9199005,39.2805007 28.1951005,43.0645007 29.0035005,46.7238008 C29.8352997,50.6975969 28.0483592,54.7605533 24.5573004,56.8331009 C23.1727004,57.693101 21.9515004,58.712201 21.4398004,59.929101 C19.7198003,64.0313011 24.6863004,67.5702011 27.5587005,67.3380011 C30.4311005,67.1058011 43.2021007,62.431701 43.2021007,62.431701 L46.8700008,38.2012006 C45.6015008,31.0589005 36.4468006,29.5410005 31.2567005,35.4707006 Z" id="Path" fill="#2F3335" fill-rule="nonzero"></path>
            <path d="M54.1800009,59.924801 L52.4987009,61.253501 C51.8881009,59.533501 50.3487008,57.813501 49.2694008,56.6396009 C48.1901008,55.4657009 48.0912008,53.0835009 48.0740008,52.1418009 L49.2694008,51.2345009 C49.8069008,55.0787009 53.4447009,55.4184009 54.1800009,59.924801 Z" id="Path" fill="#6D6F70" fill-rule="nonzero"></path>
            <path d="M68.5979011,213.955104 C67.9615011,207.505103 62.522001,208.042603 62.522001,208.042603 L54.7175009,208.326403 L54.0811009,205.213203 L51.3463009,205.213203 L51.3463009,213.955104 L68.5979011,213.955104 Z" id="Path" fill="#8A8F93" fill-rule="nonzero"></path>
            <path d="M62.638101,208.051203 L55.5345009,207.995303 C56.1881009,210.321603 59.972101,211.104204 63.2057011,210.798904 C64.5344011,210.674204 65.7857011,210.523704 66.7360011,210.067903 C65.9627615,208.567033 64.299047,207.748269 62.638101,208.051203 L62.638101,208.051203 Z" id="Path" fill="#D6D7D8" fill-rule="nonzero"></path>
            <path d="M36.1630006,217.300504 C32.4048005,220.538404 27.0900005,216.401804 27.0900005,216.401804 L31.3040005,204.331703 L34.4774006,204.331703 L36.1630006,217.300504 Z" id="Path" fill="#D6D7D8" fill-rule="nonzero"></path>
            <path d="M28.1650005,213.318704 L27.0900005,216.401804 C27.0900005,216.401804 32.4048005,220.538404 36.1630006,217.300504 L35.7330006,214.079804 C33.0799006,215.292404 30.1000005,214.316304 28.1650005,213.318704 Z" id="Path" fill="#8A8F93" fill-rule="nonzero"></path>
            <path d="M36.1630006,217.300504 C32.4048005,220.538404 27.0900005,216.401804 27.0900005,216.401804 L31.3040005,204.331703 L34.4774006,204.331703 L36.1630006,217.300504 Z" id="Path" stroke="#202020" stroke-width="1.29000002" stroke-linecap="round" stroke-linejoin="round"></path>
            <polygon id="Path" fill="#D6D7D8" fill-rule="nonzero" points="67.5659011 67.8712011 81.7129014 68.4947011 96.3028016 39.1687007 92.6865015 39.1687007 77.7698013 61.545901 66.1168011 60.888001"></polygon>
            <path d="M54.1800009,59.924801 L52.4987009,61.253501 C51.8881009,59.533501 50.3487008,57.813501 49.2694008,56.6396009 C48.1901008,55.4657009 48.0912008,53.0835009 48.0740008,52.1418009 L49.2694008,51.2345009 C49.8069008,55.0787009 53.4447009,55.4184009 54.1800009,59.924801 Z" id="Path" fill="#6D6F70" fill-rule="nonzero"></path>
            <path d="M54.1800009,59.929101 C53.4490009,55.4184009 49.8069008,55.0701009 49.2737008,51.2345009 L46.8700008,53.0577009 L45.6015008,66.6887011 L54.1800009,59.929101 Z" id="Path" stroke="#202020" stroke-width="1.29000002" stroke-linecap="round" stroke-linejoin="round"></path>
            <path d="M29.7044005,66.8951011 C29.0004386,67.0959161 28.281448,67.2397142 27.5544005,67.3251011 C24.6820004,67.5616011 19.6983003,64.0184011 21.4312004,59.916201 C21.9472004,58.707901 23.1512004,57.663001 24.5530004,56.8245009 C28.0440592,54.7519533 29.8309997,50.6889969 28.9992005,46.7152008 C28.1908005,43.0559007 32.4994005,54.7648009 27.2792005,58.488601 C23.2501004,61.386801 23.8865004,66.1641011 29.7044005,66.8951011 Z" id="Path" fill="#6D6F70" fill-rule="nonzero"></path>
            <path d="M31.2567005,35.4707006 C27.9199005,39.2805007 28.1951005,43.0645007 29.0035005,46.7238008 C29.8352997,50.6975969 28.0483592,54.7605533 24.5573004,56.8331009 C23.1727004,57.693101 21.9515004,58.712201 21.4398004,59.929101 C19.7198003,64.0313011 24.6863004,67.5702011 27.5587005,67.3380011 C30.4311005,67.1058011 43.2021007,62.431701 43.2021007,62.431701 L46.8700008,38.2012006 C45.6015008,31.0589005 36.4468006,29.5410005 31.2567005,35.4707006 Z" id="Path" stroke="#202020" stroke-width="1.29000002" stroke-linecap="round" stroke-linejoin="round"></path>
            <path d="M34.1764006,46.9603008 L38.9881006,41.0607007 L41.6412007,34.9504006 L46.8700008,38.2012006 L50.3530008,39.5772007 L48.8394008,42.1572007 L48.9684008,42.4152007 L51.6989009,47.8762008 L46.8700008,53.0577009 L46.8700008,59.722701 C46.8696733,61.82118 45.2554741,63.5664626 43.1634007,63.7303011 L43.1634007,63.7303011 C41.9284478,63.8260029 40.7183199,63.347123 39.8832719,62.4322666 C39.0482238,61.5174102 38.6814842,60.2687158 38.8892006,59.047601 L39.9040007,53.0577009 L34.1764006,46.9603008 Z" id="Path" fill="#D6D7D8" fill-rule="nonzero"></path>
            <path d="M33.3551006,35.9953006 L36.8252006,35.5653006 C36.5543006,38.2356006 36.3952006,41.8261007 37.2552006,43.2537007 C38.6828006,45.6531008 43.2193007,52.8470009 43.2193007,52.8470009 L40.2824007,63.4035011 L38.0378006,64.1388011 L39.9169007,53.0663009 L32.4478005,45.1199008 L33.3551006,35.9953006 Z" id="Path" fill="#8A8F93" fill-rule="nonzero" opacity="0.67"></path>
            <path d="M31.8845005,50.7787008 C33.6819006,46.0487008 40.1018007,43.8987007 41.0951007,36.1587006 L38.2700006,34.3226006 L32.9853005,34.9504006 L30.4311005,42.8065007 L31.8845005,50.7787008 Z" id="Path" fill="#2F3335" fill-rule="nonzero"></path>
            <path d="M41.6412007,34.9504006 L46.8700008,38.2012006 L49.8284008,39.5772007 L48.8394008,42.1572007 L48.9684008,42.4152007 L51.6989009,47.8762008 L46.8700008,53.0577009 L46.8700008,59.722701 C46.8696733,61.82118 45.2554741,63.5664626 43.1634007,63.7303011 L43.1634007,63.7303011 C41.9284478,63.8260029 40.7183199,63.347123 39.8832719,62.4322666 C39.0482238,61.5174102 38.6814842,60.2687158 38.8892006,59.047601 L39.9040007,53.0577009 L34.1764006,46.9603008" id="Path" stroke="#202020" stroke-width="1.29000002" stroke-linecap="round" stroke-linejoin="round"></path>
            <ellipse id="Oval" fill="#D6D7D8" fill-rule="nonzero" transform="translate(38.374505, 45.131170) rotate(-60.000000) translate(-38.374505, -45.131170) " cx="38.374505" cy="45.1311699" rx="1.52220003" ry="2.12420004"></ellipse>
            <path d="M32.4478005,51.7591009 C32.4478005,45.1199008 40.6479007,42.7291007 41.6412007,34.9504006" id="Path" stroke="#202020" stroke-width="1.29000002" stroke-linecap="round" stroke-linejoin="round"></path>
            <polygon id="Path" fill="#D6D7D8" fill-rule="nonzero" points="67.5659011 67.8712011 81.7129014 68.4947011 96.3028016 39.1687007 92.6865015 39.1687007 77.7698013 61.545901 66.1168011 60.888001"></polygon>
            <path d="M81.7000014,68.4947011 L83.1147014,65.9663011 L62.668201,64.4527011 C62.668201,64.4527011 57.439401,63.7432011 55.6979009,66.7016011 C54.0596009,69.4837012 56.9879009,77.1936013 57.847901,81.8892014 L57.951101,81.8118014 L59.056201,67.3466011 L81.7000014,68.4947011 Z" id="Path" fill="#2F3335" fill-rule="nonzero" opacity="0.43"></path>
            <path d="M36.1630006,217.300504 C32.4048005,220.538404 27.0900005,216.401804 27.0900005,216.401804 L31.3040005,204.331703 L34.4774006,204.331703 L36.1630006,217.300504 Z" id="Path" stroke="#202020" stroke-width="1.29000002" stroke-linecap="round" stroke-linejoin="round"></path>
            <path d="M68.5979011,213.955104 C68.5979011,207.995303 59.972101,208.132903 59.972101,208.132903 L54.7175009,208.326403 L54.0811009,205.213203 L51.3463009,205.213203 L51.3463009,213.955104 L68.5979011,213.955104 Z" id="Path" stroke="#202020" stroke-width="1.29000002" stroke-linecap="round" stroke-linejoin="round"></path>
            <line x1="67.2735011" y1="67.7336011" x2="66.2974011" y2="61.171801" id="Path" stroke="#202020" stroke-width="1.29000002" stroke-linecap="round" stroke-linejoin="round"></line>
            <line x1="96.3028016" y1="39.1687007" x2="98.0615016" y2="39.1687007" id="Path" stroke="#202020" stroke-width="1.29000002" stroke-linecap="round" stroke-linejoin="round"></line>
            <line x1="23.8306004" y1="72.8893012" x2="28.5305005" y2="77.9805013" id="Path" stroke="#202020" stroke-width="1.29000002" stroke-linecap="round" stroke-linejoin="round"></line>
            <path d="M56.1408009,95.9975016 L45.6015008,99.0677016 L32.5295005,94.5484016 C30.2677005,127.383202 31.0331005,155.896503 31.0331005,155.896503 L31.6265005,204.568203 L34.1076006,204.568203 L42.9355007,167.519403 L41.0951007,153.329403 C42.0669007,140.739002 43.9804007,127.753002 44.9651007,114.453102 L54.1800009,155.199903 L51.1313009,167.519403 L51.3506009,205.213203 L53.0362009,205.213203 L61.447001,153.342303 L56.1408009,95.9975016 Z" id="Path" stroke="#202020" stroke-width="1.29000002" stroke-linecap="round" stroke-linejoin="round"></path>
            <path d="M56.1408009,95.9975016 L45.6015008,95.5890016 L32.5295005,94.5484016 C30.2677005,127.383202 31.0331005,155.896503 31.0331005,155.896503 L31.6265005,204.568203 L34.1076006,204.568203 L42.9355007,167.519403 L41.0951007,153.329403 C42.0669007,140.739002 43.4472007,134.895302 44.4233007,121.595402 L54.1800009,155.199903 L51.1313009,167.519403 L51.3506009,205.213203 L54.6100009,205.213203 L65.1235011,153.342303 L56.1408009,95.9975016 Z" id="Path" fill="#202020" fill-rule="nonzero"></path>
            <line x1="55.9430009" y1="211.916904" x2="56.9879009" y2="213.955104" id="Path" stroke="#202020" stroke-width="1.29000002" stroke-linecap="round" stroke-linejoin="round"></line>
            <path d="M36.1630006,217.300504 C32.4048005,220.538404 27.0900005,216.401804 27.0900005,216.401804 L31.3040005,204.331703 L34.4774006,204.331703 L36.1630006,217.300504 Z" id="Path" stroke="#202020" stroke-width="1.29000002" stroke-linecap="round" stroke-linejoin="round"></path>
            <polygon id="Path" fill="#8A8F93" fill-rule="nonzero" points="15.1489003 85.8323014 22.3643004 118.284402 25.3227004 118.284402 22.2353004 86.1032014 33.1831006 73.0484012 32.5295005 94.5441016 45.6015008 95.5890016 56.1408009 95.9932016 54.1800009 84.7100014 57.981201 81.8118014 59.086301 67.3466011 81.7129014 68.4947011 96.3028016 39.1687007 92.6865015 39.1687007 77.7698013 61.545901 54.1757009 59.929101 32.5295005 59.929101"></polygon>
            <polygon id="Path" fill="#D6D7D8" fill-rule="nonzero" points="20.2444003 108.742702 17.8794003 112.776102 19.0619003 117.308302 22.3643004 118.284402"></polygon>
            <polygon id="Path" fill="#D6D7D8" fill-rule="nonzero" points="23.8306004 72.8893012 15.1489003 85.8323014 22.3643004 118.284402 25.3227004 118.284402 22.2353004 86.1032014 29.3217005 78.8362013"></polygon>
            <polygon id="Path" fill="#D6D7D8" fill-rule="nonzero" points="66.1168011 60.888001 67.5659011 67.8712011 81.7129014 68.4947011 96.3028016 39.1687007 92.6865015 39.1687007 77.7698013 61.545901"></polygon>
            <polyline id="Path" stroke="#202020" stroke-width="1.29000002" stroke-linecap="round" stroke-linejoin="round" points="20.2444003 108.742702 17.8794003 112.776102 19.0619003 117.308302 22.3643004 118.284402"></polyline>
            <polyline id="Path" stroke="#202020" stroke-width="1.29000002" stroke-linecap="round" stroke-linejoin="round" points="38.7344006 59.929101 32.5295005 59.929101 15.1489003 85.8323014 22.3643004 118.284402 25.3227004 118.284402 22.2353004 86.1032014 33.1831006 73.0484012 32.5295005 94.5441016 45.6015008 95.5890016 56.1408009 95.9932016 54.1800009 84.7100014 57.981201 81.8118014 59.086301 67.3466011 81.7129014 68.4947011 96.3028016 39.1687007 92.6865015 39.1687007 77.7698013 61.545901 54.1757009 59.929101 46.8657008 59.929101"></polyline>
            <polygon id="Path" fill="#2F3335" fill-rule="nonzero" opacity="0.43" points="38.3775006 95.0128016 42.2475007 82.5342014 36.3307006 59.929101 32.5295005 59.929101 15.1489003 85.8323014 20.2444003 108.742702 17.8794003 112.776102 19.0619003 117.308302 22.3643004 118.284402 25.3227004 118.284402 22.2353004 86.1032014 22.2353004 86.1032014 29.3217005 78.8362013 28.8014005 78.2729013 33.1831006 73.0484012 32.5295005 94.5484016"></polygon>
            <circle id="Oval" fill="#FFFFFF" fill-rule="nonzero" cx="95.7223016" cy="18.9114003" r="17.3634003"></circle>
            <path d="M96.1910016,27.5587005 C88.4877281,25.5210424 82.3018578,19.7864602 79.6876013,12.2593002 C79.3901262,12.977408 79.1401871,13.7142973 78.9394013,14.4652002 C76.6570939,23.0799242 81.267275,32.0237312 89.6081176,35.1626388 C97.9489602,38.3015463 107.311858,34.6162252 111.275402,26.6342004 C106.480393,28.5692431 101.186426,28.8937023 96.1910016,27.5587005 L96.1910016,27.5587005 Z" id="Path" fill="#E0E0E0" fill-rule="nonzero"></path>
            <g id="Group" transform="translate(63.640001, 0.000000)" stroke="#202020" stroke-linecap="round" stroke-linejoin="round" stroke-width="1.29000002">
                <line x1="64.8311011" y1="14.4781002" x2="26.0279004" y2="37.0144006" id="Path"></line>
                <line x1="59.989301" y1="11.4552002" x2="21.1861004" y2="33.9915006" id="Path"></line>
                <line x1="55.4442009" y1="8.26460014" x2="16.6410003" y2="30.8009005" id="Path"></line>
                <line x1="52.9588009" y1="3.87430006" x2="14.1556002" y2="26.4106004" id="Path"></line>
                <line x1="46.0616008" y1="2.04250003" x2="7.25840012" y2="24.5831004" id="Path"></line>
                <line x1="39.1644007" y1="0.215000004" x2="0.361200006" y2="22.7513004" id="Path"></line>
            </g>
            <circle id="Oval" stroke="#202020" stroke-width="1.29000002" stroke-linecap="round" stroke-linejoin="round" cx="95.7223016" cy="18.9114003" r="17.3634003"></circle>
            <circle id="Oval" fill="#E3E4E5" fill-rule="nonzero" cx="117.291102" cy="110.591702" r="17.3634003"></circle>
            <circle id="Oval" stroke="#202020" stroke-width="1.29000002" stroke-linecap="round" stroke-linejoin="round" cx="117.291102" cy="110.591702" r="17.3634003"></circle>
            <rect id="Rectangle" stroke="#202020" stroke-width="1.29000002" stroke-linecap="round" stroke-linejoin="round" x="86.8858014" y="117.699602" width="30.4010005" height="30.4010005"></rect>
            <g id="Group" transform="translate(83.850001, 112.660002)" fill="#202020" fill-rule="nonzero">
                <circle id="Oval" cx="0.915900015" cy="1.31580002" r="1"></circle>
                <circle id="Oval" cx="4.43330007" cy="1.31580002" r="1"></circle>
                <circle id="Oval" cx="7.95070013" cy="1.31580002" r="1"></circle>
                <circle id="Oval" cx="11.4638002" cy="1.31580002" r="1"></circle>
                <circle id="Oval" cx="14.9855002" cy="1.31580002" r="1"></circle>
                <circle id="Oval" cx="18.5029003" cy="1.31580002" r="1"></circle>
                <circle id="Oval" cx="22.0203004" cy="1.31580002" r="1"></circle>
                <circle id="Oval" cx="25.5420004" cy="1.31580002" r="1"></circle>
                <circle id="Oval" cx="29.0594005" cy="1.31580002" r="1"></circle>
                <circle id="Oval" cx="32.5725005" cy="1.31580002" r="1"></circle>
                <circle id="Oval" cx="36.0942006" cy="1.31580002" r="1"></circle>
                <circle id="Oval" cx="39.6116007" cy="1.31580002" r="1"></circle>
                <circle id="Oval" cx="2.71330005" cy="4.07640007" r="1"></circle>
                <circle id="Oval" cx="6.2307001" cy="4.07640007" r="1"></circle>
                <circle id="Oval" cx="9.75240016" cy="4.07640007" r="1"></circle>
                <circle id="Oval" cx="13.2655002" cy="4.07640007" r="1"></circle>
                <circle id="Oval" cx="16.7829003" cy="4.07640007" r="1"></circle>
                <circle id="Oval" cx="20.3046003" cy="4.07640007" r="1"></circle>
                <circle id="Oval" cx="23.8220004" cy="4.07640007" r="1"></circle>
                <circle id="Oval" cx="27.3394005" cy="4.07640007" r="1"></circle>
                <circle id="Oval" cx="30.8611005" cy="4.07640007" r="1"></circle>
                <circle id="Oval" cx="34.3742006" cy="4.07640007" r="1"></circle>
                <circle id="Oval" cx="37.8916006" cy="4.07640007" r="1"></circle>
                <circle id="Oval" cx="0.915900015" cy="6.84130011" r="1"></circle>
                <circle id="Oval" cx="4.43330007" cy="6.84130011" r="1"></circle>
                <circle id="Oval" cx="7.95070013" cy="6.84130011" r="1"></circle>
                <circle id="Oval" cx="11.4638002" cy="6.84130011" r="1"></circle>
                <circle id="Oval" cx="14.9855002" cy="6.84130011" r="1"></circle>
                <circle id="Oval" cx="18.5029003" cy="6.84130011" r="1"></circle>
                <circle id="Oval" cx="22.0203004" cy="6.84130011" r="1"></circle>
                <circle id="Oval" cx="25.5420004" cy="6.84130011" r="1"></circle>
                <circle id="Oval" cx="29.0594005" cy="6.84130011" r="1"></circle>
                <circle id="Oval" cx="32.5725005" cy="6.84130011" r="1"></circle>
                <circle id="Oval" cx="36.0942006" cy="6.84130011" r="1"></circle>
                <circle id="Oval" cx="39.6116007" cy="6.84130011" r="1"></circle>
                <circle id="Oval" cx="2.71330005" cy="9.60620016" r="1"></circle>
                <circle id="Oval" cx="6.2307001" cy="9.60620016" r="1"></circle>
                <circle id="Oval" cx="9.75240016" cy="9.60620016" r="1"></circle>
                <circle id="Oval" cx="13.2655002" cy="9.60620016" r="1"></circle>
                <circle id="Oval" cx="16.7829003" cy="9.60620016" r="1"></circle>
                <circle id="Oval" cx="20.3046003" cy="9.60620016" r="1"></circle>
                <circle id="Oval" cx="23.8220004" cy="9.60620016" r="1"></circle>
                <circle id="Oval" cx="27.3394005" cy="9.60620016" r="1"></circle>
                <circle id="Oval" cx="30.8611005" cy="9.60620016" r="1"></circle>
                <circle id="Oval" cx="34.3742006" cy="9.60620016" r="1"></circle>
                <circle id="Oval" cx="37.8916006" cy="9.60620016" r="1"></circle>
                <circle id="Oval" cx="0.915900015" cy="12.3711002" r="1"></circle>
                <circle id="Oval" cx="4.43330007" cy="12.3711002" r="1"></circle>
                <circle id="Oval" cx="7.95070013" cy="12.3711002" r="1"></circle>
                <circle id="Oval" cx="11.4638002" cy="12.3711002" r="1"></circle>
                <circle id="Oval" cx="14.9855002" cy="12.3711002" r="1"></circle>
                <circle id="Oval" cx="18.5029003" cy="12.3711002" r="1"></circle>
                <circle id="Oval" cx="22.0203004" cy="12.3711002" r="1"></circle>
                <circle id="Oval" cx="25.5420004" cy="12.3711002" r="1"></circle>
                <circle id="Oval" cx="29.0594005" cy="12.3711002" r="1"></circle>
                <circle id="Oval" cx="32.5725005" cy="12.3711002" r="1"></circle>
                <circle id="Oval" cx="36.0942006" cy="12.3711002" r="1"></circle>
                <circle id="Oval" cx="39.6116007" cy="12.3711002" r="1"></circle>
                <circle id="Oval" cx="2.71330005" cy="15.1317003" r="1"></circle>
                <circle id="Oval" cx="6.2307001" cy="15.1317003" r="1"></circle>
                <circle id="Oval" cx="9.75240016" cy="15.1317003" r="1"></circle>
                <circle id="Oval" cx="13.2655002" cy="15.1317003" r="1"></circle>
                <circle id="Oval" cx="16.7829003" cy="15.1317003" r="1"></circle>
                <circle id="Oval" cx="20.3046003" cy="15.1317003" r="1"></circle>
                <circle id="Oval" cx="23.8220004" cy="15.1317003" r="1"></circle>
                <circle id="Oval" cx="27.3394005" cy="15.1317003" r="1"></circle>
                <circle id="Oval" cx="30.8611005" cy="15.1317003" r="1"></circle>
                <circle id="Oval" cx="34.3742006" cy="15.1317003" r="1"></circle>
                <circle id="Oval" cx="37.8916006" cy="15.1317003" r="1"></circle>
                <circle id="Oval" cx="0.915900015" cy="17.8966003" r="1"></circle>
                <circle id="Oval" cx="4.43330007" cy="17.8966003" r="1"></circle>
                <circle id="Oval" cx="7.95070013" cy="17.8966003" r="1"></circle>
                <circle id="Oval" cx="11.4638002" cy="17.8966003" r="1"></circle>
                <circle id="Oval" cx="14.9855002" cy="17.8966003" r="1"></circle>
                <circle id="Oval" cx="18.5029003" cy="17.8966003" r="1"></circle>
                <circle id="Oval" cx="22.0203004" cy="17.8966003" r="1"></circle>
                <circle id="Oval" cx="25.5420004" cy="17.8966003" r="1"></circle>
                <circle id="Oval" cx="29.0594005" cy="17.8966003" r="1"></circle>
                <circle id="Oval" cx="32.5725005" cy="17.8966003" r="1"></circle>
                <circle id="Oval" cx="36.0942006" cy="17.8966003" r="1"></circle>
                <circle id="Oval" cx="39.6116007" cy="17.8966003" r="1"></circle>
                <circle id="Oval" cx="2.71330005" cy="20.6615003" r="1"></circle>
                <circle id="Oval" cx="6.2307001" cy="20.6615003" r="1"></circle>
                <circle id="Oval" cx="9.75240016" cy="20.6615003" r="1"></circle>
                <circle id="Oval" cx="13.2655002" cy="20.6615003" r="1"></circle>
                <circle id="Oval" cx="16.7829003" cy="20.6615003" r="1"></circle>
                <circle id="Oval" cx="20.3046003" cy="20.6615003" r="1"></circle>
                <circle id="Oval" cx="23.8220004" cy="20.6615003" r="1"></circle>
                <circle id="Oval" cx="27.3394005" cy="20.6615003" r="1"></circle>
                <circle id="Oval" cx="30.8611005" cy="20.6615003" r="1"></circle>
                <circle id="Oval" cx="34.3742006" cy="20.6615003" r="1"></circle>
                <circle id="Oval" cx="37.8916006" cy="20.6615003" r="1"></circle>
                <circle id="Oval" cx="0.915900015" cy="23.4264004" r="1"></circle>
                <circle id="Oval" cx="4.43330007" cy="23.4264004" r="1"></circle>
                <circle id="Oval" cx="7.95070013" cy="23.4264004" r="1"></circle>
                <circle id="Oval" cx="11.4638002" cy="23.4264004" r="1"></circle>
                <circle id="Oval" cx="14.9855002" cy="23.4264004" r="1"></circle>
                <circle id="Oval" cx="18.5029003" cy="23.4264004" r="1"></circle>
                <circle id="Oval" cx="22.0203004" cy="23.4264004" r="1"></circle>
                <circle id="Oval" cx="25.5420004" cy="23.4264004" r="1"></circle>
                <circle id="Oval" cx="29.0594005" cy="23.4264004" r="1"></circle>
                <circle id="Oval" cx="32.5725005" cy="23.4264004" r="1"></circle>
                <circle id="Oval" cx="36.0942006" cy="23.4264004" r="1"></circle>
                <circle id="Oval" cx="39.6116007" cy="23.4264004" r="1"></circle>
                <circle id="Oval" cx="2.71330005" cy="26.1870004" r="1"></circle>
                <circle id="Oval" cx="6.2307001" cy="26.1870004" r="1"></circle>
                <circle id="Oval" cx="9.75240016" cy="26.1870004" r="1"></circle>
                <circle id="Oval" cx="13.2655002" cy="26.1870004" r="1"></circle>
                <circle id="Oval" cx="16.7829003" cy="26.1870004" r="1"></circle>
                <circle id="Oval" cx="20.3046003" cy="26.1870004" r="1"></circle>
                <circle id="Oval" cx="23.8220004" cy="26.1870004" r="1"></circle>
                <circle id="Oval" cx="27.3394005" cy="26.1870004" r="1"></circle>
                <circle id="Oval" cx="30.8611005" cy="26.1870004" r="1"></circle>
                <circle id="Oval" cx="34.3742006" cy="26.1870004" r="1"></circle>
                <circle id="Oval" cx="37.8916006" cy="26.1870004" r="1"></circle>
                <circle id="Oval" cx="0.915900015" cy="28.9519005" r="1"></circle>
                <circle id="Oval" cx="4.43330007" cy="28.9519005" r="1"></circle>
                <circle id="Oval" cx="7.95070013" cy="28.9519005" r="1"></circle>
                <circle id="Oval" cx="11.4638002" cy="28.9519005" r="1"></circle>
                <circle id="Oval" cx="14.9855002" cy="28.9519005" r="1"></circle>
                <circle id="Oval" cx="18.5029003" cy="28.9519005" r="1"></circle>
                <circle id="Oval" cx="22.0203004" cy="28.9519005" r="1"></circle>
                <circle id="Oval" cx="25.5420004" cy="28.9519005" r="1"></circle>
                <circle id="Oval" cx="29.0594005" cy="28.9519005" r="1"></circle>
                <circle id="Oval" cx="32.5725005" cy="28.9519005" r="1"></circle>
                <circle id="Oval" cx="36.0942006" cy="28.9519005" r="1"></circle>
                <circle id="Oval" cx="39.6116007" cy="28.9519005" r="1"></circle>
                <circle id="Oval" cx="2.71330005" cy="31.7211005" r="1"></circle>
                <circle id="Oval" cx="6.2307001" cy="31.7211005" r="1"></circle>
                <circle id="Oval" cx="9.75240016" cy="31.7211005" r="1"></circle>
                <circle id="Oval" cx="13.2655002" cy="31.7211005" r="1"></circle>
                <circle id="Oval" cx="16.7829003" cy="31.7211005" r="1"></circle>
                <circle id="Oval" cx="20.3046003" cy="31.7211005" r="1"></circle>
                <circle id="Oval" cx="23.8220004" cy="31.7211005" r="1"></circle>
                <circle id="Oval" cx="27.3394005" cy="31.7211005" r="1"></circle>
                <circle id="Oval" cx="30.8611005" cy="31.7211005" r="1"></circle>
                <circle id="Oval" cx="34.3742006" cy="31.7211005" r="1"></circle>
                <circle id="Oval" cx="37.8916006" cy="31.7211005" r="1"></circle>
                <circle id="Oval" cx="0.915900015" cy="34.4817006" r="1"></circle>
                <circle id="Oval" cx="4.43330007" cy="34.4817006" r="1"></circle>
                <circle id="Oval" cx="7.95070013" cy="34.4817006" r="1"></circle>
                <circle id="Oval" cx="11.4638002" cy="34.4817006" r="1"></circle>
                <circle id="Oval" cx="14.9855002" cy="34.4817006" r="1"></circle>
                <circle id="Oval" cx="18.5029003" cy="34.4817006" r="1"></circle>
                <circle id="Oval" cx="22.0203004" cy="34.4817006" r="1"></circle>
                <circle id="Oval" cx="25.5420004" cy="34.4817006" r="1"></circle>
                <circle id="Oval" cx="29.0594005" cy="34.4817006" r="1"></circle>
                <circle id="Oval" cx="32.5725005" cy="34.4817006" r="1"></circle>
                <circle id="Oval" cx="36.0942006" cy="34.4817006" r="1"></circle>
                <circle id="Oval" cx="39.6116007" cy="34.4817006" r="1"></circle>
                <circle id="Oval" cx="2.71330005" cy="37.2466006" r="1"></circle>
                <circle id="Oval" cx="6.2307001" cy="37.2466006" r="1"></circle>
                <circle id="Oval" cx="9.75240016" cy="37.2466006" r="1"></circle>
                <circle id="Oval" cx="13.2655002" cy="37.2466006" r="1"></circle>
                <circle id="Oval" cx="16.7829003" cy="37.2466006" r="1"></circle>
                <circle id="Oval" cx="20.3046003" cy="37.2466006" r="1"></circle>
                <circle id="Oval" cx="23.8220004" cy="37.2466006" r="1"></circle>
                <circle id="Oval" cx="27.3394005" cy="37.2466006" r="1"></circle>
                <circle id="Oval" cx="30.8611005" cy="37.2466006" r="1"></circle>
                <circle id="Oval" cx="34.3742006" cy="37.2466006" r="1"></circle>
                <circle id="Oval" cx="37.8916006" cy="37.2466006" r="1"></circle>
                <circle id="Oval" cx="0.915900015" cy="40.0072007" r="1"></circle>
                <circle id="Oval" cx="4.43330007" cy="40.0072007" r="1"></circle>
                <circle id="Oval" cx="7.95070013" cy="40.0072007" r="1"></circle>
                <circle id="Oval" cx="11.4638002" cy="40.0072007" r="1"></circle>
                <circle id="Oval" cx="14.9855002" cy="40.0072007" r="1"></circle>
                <circle id="Oval" cx="18.5029003" cy="40.0072007" r="1"></circle>
                <circle id="Oval" cx="22.0203004" cy="40.0072007" r="1"></circle>
                <circle id="Oval" cx="25.5420004" cy="40.0072007" r="1"></circle>
                <circle id="Oval" cx="29.0594005" cy="40.0072007" r="1"></circle>
                <circle id="Oval" cx="32.5725005" cy="40.0072007" r="1"></circle>
                <circle id="Oval" cx="36.0942006" cy="40.0072007" r="1"></circle>
                <circle id="Oval" cx="39.6116007" cy="40.0072007" r="1"></circle>
            </g>
            <polygon id="Path" fill="#F2F3F4" fill-rule="nonzero" points="153.505703 162.673303 123.104702 162.673303 138.305202 132.272302"></polygon>
            <g id="Group" transform="translate(118.680002, 136.740002)" stroke="#202020" stroke-linecap="round" stroke-linejoin="round" stroke-width="1.29000002">
                <line x1="38.8849006" y1="22.1880004" x2="0.365500006" y2="22.1880004" id="Path"></line>
                <line x1="38.8849006" y1="17.8579003" x2="0.365500006" y2="17.8579003" id="Path"></line>
                <line x1="38.8849006" y1="13.5278002" x2="0.365500006" y2="13.5278002" id="Path"></line>
                <line x1="38.8849006" y1="9.19770015" x2="0.365500006" y2="9.19770015" id="Path"></line>
                <line x1="38.8849006" y1="4.86760008" x2="0.365500006" y2="4.86760008" id="Path"></line>
                <line x1="38.8849006" y1="0.537500009" x2="0.365500006" y2="0.537500009" id="Path"></line>
            </g>
            <polygon id="Path" stroke="#202020" stroke-width="1.29000002" stroke-linecap="round" stroke-linejoin="round" points="153.505703 162.673303 123.104702 162.673303 138.305202 132.272302"></polygon>
            <path d="M99.0204016,160.235203 C98.1604016,176.046303 120.464502,188.890403 136.000402,170.292903" id="Path" stroke="#202020" stroke-width="1.29000002" stroke-linecap="round" stroke-linejoin="round"></path>
            <polyline id="Path" stroke="#202020" stroke-width="1.29000002" stroke-linecap="round" stroke-linejoin="round" points="134.508302 169.845703 136.512102 169.824203 136.533602 171.828003"></polyline>
            <path d="M152.220003,139.079202 C166.668003,132.603402 167.846203,106.880802 144.200502,101.626202" id="Path" stroke="#202020" stroke-width="1.29000002" stroke-linecap="round" stroke-linejoin="round"></path>
            <polyline id="Path" stroke="#202020" stroke-width="1.29000002" stroke-linecap="round" stroke-linejoin="round" points="144.492902 103.135502 143.555502 101.363902 145.327102 100.426502"></polyline>
            <polyline id="Path" stroke="#202020" stroke-width="1.29000002" stroke-linecap="round" stroke-linejoin="round" points="98.0615016 73.1344012 179.886203 73.1344012 179.886203 198.002103 72.9280012 198.002103"></polyline>
            <line x1="72.9280012" y1="80.9174013" x2="179.886203" y2="80.9174013" id="Path" stroke="#202020" stroke-width="1.29000002" stroke-linecap="round" stroke-linejoin="round"></line>
            <line x1="69.1612012" y1="31.2696005" x2="64.3151011" y2="32.3403005" id="Path" stroke="#B9BDC1" stroke-width="1.29000002" stroke-linecap="round" stroke-linejoin="round"></line>
            <line x1="67.2735011" y1="34.2280006" x2="66.2028011" y2="29.3819005" id="Path" stroke="#B9BDC1" stroke-width="1.29000002" stroke-linecap="round" stroke-linejoin="round"></line>
            <line x1="120.718202" y1="36.0125006" x2="116.233302" y2="33.8883006" id="Path" stroke="#B9BDC1" stroke-width="1.29000002" stroke-linecap="round" stroke-linejoin="round"></line>
            <line x1="117.411502" y1="37.1907006" x2="119.540002" y2="32.7058005" id="Path" stroke="#B9BDC1" stroke-width="1.29000002" stroke-linecap="round" stroke-linejoin="round"></line>
            <circle id="Oval" stroke="#B9BDC1" stroke-width="1.29000002" stroke-linecap="round" stroke-linejoin="round" cx="112.199902" cy="45.6918008" r="1.75010003"></circle>
            <circle id="Oval" stroke="#B9BDC1" stroke-width="1.29000002" stroke-linecap="round" stroke-linejoin="round" cx="15.1790003" cy="135.136102" r="1.75870003"></circle>
            <line x1="4.83320008" y1="142.858902" x2="0.903000015" y2="148.169402" id="Path" stroke="#B9BDC1" stroke-width="1.29000002" stroke-linecap="round" stroke-linejoin="round"></line>
            <line x1="5.52550009" y1="147.481402" x2="0.215000004" y2="143.551202" id="Path" stroke="#B9BDC1" stroke-width="1.29000002" stroke-linecap="round" stroke-linejoin="round"></line>
        </g>
    </g>
</svg>