<?xml version="1.0" encoding="UTF-8"?>
<svg width="252px" height="217px" viewBox="0 0 252 217" version="1.1" xmlns="http://www.w3.org/2000/svg" xmlns:xlink="http://www.w3.org/1999/xlink">
    <!-- Generator: Sketch 63.1 (92452) - https://sketch.com -->
    <title>media-planning-buying</title>
    <desc>Created with Sketch.</desc>
    <g id="Page-1" stroke="none" stroke-width="1" fill="none" fill-rule="evenodd">
        <g id="media-planning-buying" transform="translate(1.000000, -4.000000)">
            <path d="M221.252567,94.9691992 C221.683778,101.488706 218.957906,108.131417 216.524641,112.648871 C205.968584,116.206618 195.133404,118.875061 184.132444,120.626283 C174.212741,122.233426 164.186114,123.09143 154.137577,123.193018 C150.462012,119.815195 146.216632,114.989733 144.440452,109.342916 C143.331622,105.800821 141.714579,95.5287474 140.035934,83.2546201 C152.231206,82.6756118 164.384231,81.4107785 176.437372,79.4661191 C189.892557,77.330641 203.198068,74.3403304 216.273101,70.513347 C218.983573,81.9096509 221.026694,91.37577 221.252567,94.9691992 Z" id="Path" fill="#B9BDC1" fill-rule="nonzero"></path>
            <path d="M176.437372,79.4661191 C164.384231,81.4107785 152.231206,82.6756118 140.035934,83.2546201 C136.550308,57.5616016 132.75154,23.100616 132.75154,23.100616 C131.724846,17.6129363 146.165298,10.3080082 165.010267,6.7761807 C183.855236,3.24435318 199.969199,4.82546201 200.995893,10.3080082 C201.023403,10.4624045 201.040553,10.6184682 201.047228,10.775154 C202.156057,14.9435318 210.651951,46.8634497 216.273101,70.5287474 C203.197723,74.350533 189.892217,77.3356988 176.437372,79.4661191 L176.437372,79.4661191 Z" id="Path" fill="#F2F3F4" fill-rule="nonzero"></path>
            <path d="M132.75154,23.100616 C132.75154,23.100616 141.001027,98.4034908 144.440452,109.342916 C147.879877,120.282341 160.559548,128.074949 160.559548,128.074949 C160.559548,128.074949 162.86961,128.074949 167.084189,127.761807 C160.63655,123.721766 155.231006,118.321355 152.11499,110.539014 C147.191992,98.2186858 140.025667,55.6416838 139.527721,15.2104723 C134.876797,17.8696099 132.299795,20.6570842 132.75154,23.100616 Z" id="Path" fill="#414547" fill-rule="nonzero" opacity="0.25"></path>
            <path d="M213.213552,119.291581 C213.213552,119.291581 222.217659,107.448665 221.457906,95.9958932 C220.73922,85.0616016 202.890144,17.9671458 201.232033,11.8069815 C201.227909,11.6501119 201.210738,11.4938574 201.180698,11.3398357 C200.631417,8.40862423 195.770021,6.59137577 188.49076,6.07802875 C194.137577,21.4271047 205.164271,52.7926078 209.460986,74.9281314 C214.594456,101.380903 211.709446,104.753593 204.070842,122.217659 C210.020534,120.554415 213.213552,119.291581 213.213552,119.291581 Z" id="Path" fill="#414547" fill-rule="nonzero" opacity="0.25"></path>
            <ellipse id="Oval" fill="#FFFFFF" fill-rule="nonzero" transform="translate(166.835150, 16.678649) rotate(-10.620000) translate(-166.835150, -16.678649) " cx="166.83515" cy="16.6786492" rx="34.7176591" ry="10.1026694"></ellipse>
            <path d="M216.534908,112.623203 C215.496831,114.585721 214.32178,116.472664 213.01848,118.270021 C213.01848,118.270021 203.655031,121.966119 187.181725,125.061602 L187.109856,125.061602 C170.631417,128.141684 160.559548,128.085286 160.559548,128.085286 C158.28888,126.623817 156.144196,124.97538 154.147844,123.157084 C164.196381,123.055495 174.223008,122.197492 184.14271,120.590349 C195.143371,118.842475 205.978545,116.177469 216.534908,112.623203 L216.534908,112.623203 Z" id="Path" fill="#2F3335" fill-rule="nonzero"></path>
            <ellipse id="Oval" stroke="#202020" stroke-width="1.54004107" stroke-linecap="round" stroke-linejoin="round" transform="translate(166.835150, 16.678649) rotate(-10.620000) translate(-166.835150, -16.678649) " cx="166.83515" cy="16.6786492" rx="34.7176591" ry="10.1026694"></ellipse>
            <path d="M221.252567,94.9691992 C222.022587,106.401437 213.039014,118.244353 213.039014,118.244353 C213.039014,118.244353 203.675565,121.940452 187.202259,125.035934 L187.13039,125.035934 C170.651951,128.116016 160.580082,128.059619 160.580082,128.059619 C160.580082,128.059619 147.900411,120.282341 144.460986,109.327515 C141.021561,98.3726899 132.75154,23.100616 132.75154,23.100616 C131.724846,17.6129363 146.165298,10.3080082 165.010267,6.7761807 C183.855236,3.24435318 199.969199,4.82546201 200.995893,10.3080082 C201.023403,10.4624045 201.040553,10.6184682 201.047228,10.775154 C202.689938,16.9404517 220.539014,84.0143737 221.252567,94.9691992 Z" id="Path" stroke="#202020" stroke-width="1.54004107" stroke-linecap="round" stroke-linejoin="round"></path>
            <path d="M201.047228,10.7802875 C202.156057,14.9486653 210.651951,46.8685832 216.273101,70.5338809 C203.198068,74.3608643 189.892557,77.3511749 176.437372,79.486653 C164.384231,81.4313124 152.231206,82.6961456 140.035934,83.275154 C136.550308,57.5616016 132.75154,23.100616 132.75154,23.100616 C131.724846,17.6129363 146.165298,10.3080082 165.010267,6.7761807 C183.855236,3.24435318 199.969199,4.82546201 200.995893,10.3080082 C201.023631,10.4640975 201.040782,10.6218839 201.047228,10.7802875 L201.047228,10.7802875 Z" id="Path" stroke="#202020" stroke-width="1.54004107" stroke-linecap="round" stroke-linejoin="round"></path>
            <path d="M216.273101,70.513347 C203.198068,74.3403304 189.892557,77.330641 176.437372,79.4661191 C164.384231,81.4107785 152.231206,82.6756118 140.035934,83.2546201 C136.550308,57.5616016 132.75154,23.100616 132.75154,23.100616 C131.724846,17.6129363 146.165298,10.3080082 165.010267,6.7761807 C183.855236,3.24435318 199.969199,4.82546201 200.995893,10.3080082 C201.023403,10.4624045 201.040553,10.6184682 201.047228,10.775154 C202.156057,14.9281314 210.651951,46.8480493 216.273101,70.513347 Z" id="Path" stroke="#202020" stroke-width="1.54004107" stroke-linecap="round" stroke-linejoin="round"></path>
            <path d="M221.252567,94.9691992 C221.683778,101.488706 218.957906,108.131417 216.524641,112.648871 C205.968584,116.206618 195.133404,118.875061 184.132444,120.626283 C174.212741,122.233426 164.186114,123.09143 154.137577,123.193018 C150.462012,119.815195 146.216632,114.989733 144.440452,109.342916 C143.331622,105.800821 141.714579,95.5287474 140.035934,83.2546201 C152.231206,82.6756118 164.384231,81.4107785 176.437372,79.4661191 C189.892557,77.330641 203.198068,74.3403304 216.273101,70.513347 C218.983573,81.9096509 221.026694,91.37577 221.252567,94.9691992 Z" id="Path" stroke="#202020" stroke-width="1.54004107" stroke-linecap="round" stroke-linejoin="round"></path>
            <path d="M216.534908,112.623203 C215.496831,114.585721 214.32178,116.472664 213.01848,118.270021 C213.01848,118.270021 203.655031,121.966119 187.181725,125.061602 L187.109856,125.061602 C170.631417,128.141684 160.559548,128.085286 160.559548,128.085286 C158.28888,126.623817 156.144196,124.97538 154.147844,123.157084 C164.196381,123.055495 174.223008,122.197492 184.14271,120.590349 C195.143371,118.842475 205.978545,116.177469 216.534908,112.623203 L216.534908,112.623203 Z" id="Path" stroke="#202020" stroke-width="1.54004107" stroke-linecap="round" stroke-linejoin="round"></path>
            <path d="M176.437372,79.4661191 C164.384231,81.4107785 152.231206,82.6756118 140.035934,83.2546201 C136.550308,57.5616016 132.75154,23.100616 132.75154,23.100616 C131.724846,17.6129363 146.165298,10.3080082 165.010267,6.7761807 C183.855236,3.24435318 199.969199,4.82546201 200.995893,10.3080082 C201.023403,10.4624045 201.040553,10.6184682 201.047228,10.775154 C202.156057,14.9435318 210.651951,46.8634497 216.273101,70.5287474 C203.197723,74.350533 189.892217,77.3356988 176.437372,79.4661191 L176.437372,79.4661191 Z" id="Path" stroke="#202020" stroke-width="1.54004107" stroke-linecap="round" stroke-linejoin="round"></path>
            <path d="M221.252567,94.9691992 C222.022587,106.401437 213.039014,118.244353 213.039014,118.244353 C213.039014,118.244353 203.675565,121.940452 187.202259,125.035934 L187.13039,125.035934 C170.651951,128.116016 160.580082,128.059619 160.580082,128.059619 C160.580082,128.059619 147.900411,120.282341 144.460986,109.327515 C141.021561,98.3726899 132.75154,23.100616 132.75154,23.100616 C131.724846,17.6129363 146.165298,10.3080082 165.010267,6.7761807 C183.855236,3.24435318 199.969199,4.82546201 200.995893,10.3080082 C201.023403,10.4624045 201.040553,10.6184682 201.047228,10.775154 C202.689938,16.9404517 220.539014,84.0143737 221.252567,94.9691992 Z" id="Path" stroke="#202020" stroke-width="1.54004107" stroke-linecap="round" stroke-linejoin="round"></path>
            <path d="M201.047228,10.7802875 C202.156057,14.9486653 210.651951,46.8685832 216.273101,70.5338809 C203.198068,74.3608643 189.892557,77.3511749 176.437372,79.486653 C164.384231,81.4313124 152.231206,82.6961456 140.035934,83.275154 C136.550308,57.5616016 132.75154,23.100616 132.75154,23.100616 C131.724846,17.6129363 146.165298,10.3080082 165.010267,6.7761807 C183.855236,3.24435318 199.969199,4.82546201 200.995893,10.3080082 C201.023631,10.4640975 201.040782,10.6218839 201.047228,10.7802875 L201.047228,10.7802875 Z" id="Path" stroke="#202020" stroke-width="1.54004107" stroke-linecap="round" stroke-linejoin="round"></path>
            <path d="M216.273101,70.513347 C203.198068,74.3403304 189.892557,77.330641 176.437372,79.4661191 C164.384231,81.4107785 152.231206,82.6756118 140.035934,83.2546201 C136.550308,57.5616016 132.75154,23.100616 132.75154,23.100616 C131.724846,17.6129363 146.165298,10.3080082 165.010267,6.7761807 C183.855236,3.24435318 199.969199,4.82546201 200.995893,10.3080082 C201.023403,10.4624045 201.040553,10.6184682 201.047228,10.775154 C202.156057,14.9281314 210.651951,46.8480493 216.273101,70.513347 Z" id="Path" stroke="#202020" stroke-width="1.54004107" stroke-linecap="round" stroke-linejoin="round"></path>
            <path d="M221.252567,94.9691992 C221.683778,101.488706 218.957906,108.131417 216.524641,112.648871 C205.968584,116.206618 195.133404,118.875061 184.132444,120.626283 C174.212741,122.233426 164.186114,123.09143 154.137577,123.193018 C150.462012,119.815195 146.216632,114.989733 144.440452,109.342916 C143.331622,105.800821 141.714579,95.5287474 140.035934,83.2546201 C152.231206,82.6756118 164.384231,81.4107785 176.437372,79.4661191 C189.892557,77.330641 203.198068,74.3403304 216.273101,70.513347 C218.983573,81.9096509 221.026694,91.37577 221.252567,94.9691992 Z" id="Path" stroke="#202020" stroke-width="1.54004107" stroke-linecap="round" stroke-linejoin="round"></path>
            <path d="M216.534908,112.623203 C215.496831,114.585721 214.32178,116.472664 213.01848,118.270021 C213.01848,118.270021 203.655031,121.966119 187.181725,125.061602 L187.109856,125.061602 C170.631417,128.141684 160.559548,128.085286 160.559548,128.085286 C158.28888,126.623817 156.144196,124.97538 154.147844,123.157084 C164.196381,123.055495 174.223008,122.197492 184.14271,120.590349 C195.143371,118.842475 205.978545,116.177469 216.534908,112.623203 L216.534908,112.623203 Z" id="Path" stroke="#202020" stroke-width="1.54004107" stroke-linecap="round" stroke-linejoin="round"></path>
            <path d="M176.437372,79.4661191 C164.384231,81.4107785 152.231206,82.6756118 140.035934,83.2546201 C136.550308,57.5616016 132.75154,23.100616 132.75154,23.100616 C131.724846,17.6129363 146.165298,10.3080082 165.010267,6.7761807 C183.855236,3.24435318 199.969199,4.82546201 200.995893,10.3080082 C201.023403,10.4624045 201.040553,10.6184682 201.047228,10.775154 C202.156057,14.9435318 210.651951,46.8634497 216.273101,70.5287474 C203.197723,74.350533 189.892217,77.3356988 176.437372,79.4661191 L176.437372,79.4661191 Z" id="Path" stroke="#202020" stroke-width="1.54004107" stroke-linecap="round" stroke-linejoin="round"></path>
            <path d="M221.252567,94.9691992 C222.022587,106.401437 213.039014,118.244353 213.039014,118.244353 C213.039014,118.244353 203.675565,121.940452 187.202259,125.035934 L187.13039,125.035934 C170.651951,128.116016 160.580082,128.059619 160.580082,128.059619 C160.580082,128.059619 147.900411,120.282341 144.460986,109.327515 C141.021561,98.3726899 132.75154,23.100616 132.75154,23.100616 C131.724846,17.6129363 146.165298,10.3080082 165.010267,6.7761807 C183.855236,3.24435318 199.969199,4.82546201 200.995893,10.3080082 C201.023403,10.4624045 201.040553,10.6184682 201.047228,10.775154 C202.689938,16.9404517 220.539014,84.0143737 221.252567,94.9691992 Z" id="Path" stroke="#202020" stroke-width="1.54004107" stroke-linecap="round" stroke-linejoin="round"></path>
            <path d="M201.047228,10.7802875 C202.156057,14.9486653 210.651951,46.8685832 216.273101,70.5338809 C203.198068,74.3608643 189.892557,77.3511749 176.437372,79.486653 C164.384231,81.4313124 152.231206,82.6961456 140.035934,83.275154 C136.550308,57.5616016 132.75154,23.100616 132.75154,23.100616 C131.724846,17.6129363 146.165298,10.3080082 165.010267,6.7761807 C183.855236,3.24435318 199.969199,4.82546201 200.995893,10.3080082 C201.023631,10.4640975 201.040782,10.6218839 201.047228,10.7802875 L201.047228,10.7802875 Z" id="Path" stroke="#202020" stroke-width="1.54004107" stroke-linecap="round" stroke-linejoin="round"></path>
            <path d="M216.273101,70.513347 C203.198068,74.3403304 189.892557,77.330641 176.437372,79.4661191 C164.384231,81.4107785 152.231206,82.6756118 140.035934,83.2546201 C136.550308,57.5616016 132.75154,23.100616 132.75154,23.100616 C131.724846,17.6129363 146.165298,10.3080082 165.010267,6.7761807 C183.855236,3.24435318 199.969199,4.82546201 200.995893,10.3080082 C201.023403,10.4624045 201.040553,10.6184682 201.047228,10.775154 C202.156057,14.9281314 210.651951,46.8480493 216.273101,70.513347 Z" id="Path" stroke="#202020" stroke-width="1.54004107" stroke-linecap="round" stroke-linejoin="round"></path>
            <path d="M221.252567,94.9691992 C221.683778,101.488706 218.957906,108.131417 216.524641,112.648871 C205.968584,116.206618 195.133404,118.875061 184.132444,120.626283 C174.212741,122.233426 164.186114,123.09143 154.137577,123.193018 C150.462012,119.815195 146.216632,114.989733 144.440452,109.342916 C143.331622,105.800821 141.714579,95.5287474 140.035934,83.2546201 C152.231206,82.6756118 164.384231,81.4107785 176.437372,79.4661191 C189.892557,77.330641 203.198068,74.3403304 216.273101,70.513347 C218.983573,81.9096509 221.026694,91.37577 221.252567,94.9691992 Z" id="Path" stroke="#202020" stroke-width="1.54004107" stroke-linecap="round" stroke-linejoin="round"></path>
            <path d="M216.534908,112.623203 C215.496831,114.585721 214.32178,116.472664 213.01848,118.270021 C213.01848,118.270021 203.655031,121.966119 187.181725,125.061602 L187.109856,125.061602 C170.631417,128.141684 160.559548,128.085286 160.559548,128.085286 C158.28888,126.623817 156.144196,124.97538 154.147844,123.157084 C164.196381,123.055495 174.223008,122.197492 184.14271,120.590349 C195.143371,118.842475 205.978545,116.177469 216.534908,112.623203 L216.534908,112.623203 Z" id="Path" stroke="#202020" stroke-width="1.54004107" stroke-linecap="round" stroke-linejoin="round"></path>
            <path d="M176.437372,79.4661191 C164.384231,81.4107785 152.231206,82.6756118 140.035934,83.2546201 C136.550308,57.5616016 132.75154,23.100616 132.75154,23.100616 C131.724846,17.6129363 146.165298,10.3080082 165.010267,6.7761807 C183.855236,3.24435318 199.969199,4.82546201 200.995893,10.3080082 C201.023403,10.4624045 201.040553,10.6184682 201.047228,10.775154 C202.156057,14.9435318 210.651951,46.8634497 216.273101,70.5287474 C203.197723,74.350533 189.892217,77.3356988 176.437372,79.4661191 L176.437372,79.4661191 Z" id="Path" stroke="#202020" stroke-width="1.54004107" stroke-linecap="round" stroke-linejoin="round"></path>
            <path d="M221.252567,94.9691992 C222.022587,106.401437 213.039014,118.244353 213.039014,118.244353 C213.039014,118.244353 203.675565,121.940452 187.202259,125.035934 L187.13039,125.035934 C170.651951,128.116016 160.580082,128.059619 160.580082,128.059619 C160.580082,128.059619 147.900411,120.282341 144.460986,109.327515 C141.021561,98.3726899 132.75154,23.100616 132.75154,23.100616 C131.724846,17.6129363 146.165298,10.3080082 165.010267,6.7761807 C183.855236,3.24435318 199.969199,4.82546201 200.995893,10.3080082 C201.023403,10.4624045 201.040553,10.6184682 201.047228,10.775154 C202.689938,16.9404517 220.539014,84.0143737 221.252567,94.9691992 Z" id="Path" stroke="#202020" stroke-width="1.54004107" stroke-linecap="round" stroke-linejoin="round"></path>
            <path d="M201.047228,10.7802875 C202.156057,14.9486653 210.651951,46.8685832 216.273101,70.5338809 C203.198068,74.3608643 189.892557,77.3511749 176.437372,79.486653 C164.384231,81.4313124 152.231206,82.6961456 140.035934,83.275154 C136.550308,57.5616016 132.75154,23.100616 132.75154,23.100616 C131.724846,17.6129363 146.165298,10.3080082 165.010267,6.7761807 C183.855236,3.24435318 199.969199,4.82546201 200.995893,10.3080082 C201.023631,10.4640975 201.040782,10.6218839 201.047228,10.7802875 L201.047228,10.7802875 Z" id="Path" stroke="#202020" stroke-width="1.54004107" stroke-linecap="round" stroke-linejoin="round"></path>
            <path d="M216.273101,70.513347 C203.198068,74.3403304 189.892557,77.330641 176.437372,79.4661191 C164.384231,81.4107785 152.231206,82.6756118 140.035934,83.2546201 C136.550308,57.5616016 132.75154,23.100616 132.75154,23.100616 C131.724846,17.6129363 146.165298,10.3080082 165.010267,6.7761807 C183.855236,3.24435318 199.969199,4.82546201 200.995893,10.3080082 C201.023403,10.4624045 201.040553,10.6184682 201.047228,10.775154 C202.156057,14.9281314 210.651951,46.8480493 216.273101,70.513347 Z" id="Path" stroke="#202020" stroke-width="1.54004107" stroke-linecap="round" stroke-linejoin="round"></path>
            <path d="M176.437372,79.4661191 C164.384231,81.4107785 152.231206,82.6756118 140.035934,83.2546201 C136.550308,57.5616016 132.75154,23.100616 132.75154,23.100616 C131.724846,17.6129363 146.165298,10.3080082 165.010267,6.7761807 C183.855236,3.24435318 199.969199,4.82546201 200.995893,10.3080082 C201.023403,10.4624045 201.040553,10.6184682 201.047228,10.775154 C202.156057,14.9435318 210.651951,46.8634497 216.273101,70.5287474 C203.197723,74.350533 189.892217,77.3356988 176.437372,79.4661191 L176.437372,79.4661191 Z" id="Path" stroke="#202020" stroke-width="1.54004107" stroke-linecap="round" stroke-linejoin="round"></path>
            <ellipse id="Oval" fill="#D6D7D8" fill-rule="nonzero" transform="translate(166.476073, 14.114302) rotate(-10.620000) translate(-166.476073, -14.114302) " cx="166.476073" cy="14.1143015" rx="1.7761807" ry="1"></ellipse>
            <ellipse id="Oval" fill="#414547" fill-rule="nonzero" opacity="0.76" transform="translate(167.433207, 19.200269) rotate(-10.620000) translate(-167.433207, -19.200269) " cx="167.433207" cy="19.200269" rx="1.7761807" ry="1"></ellipse>
            <ellipse id="Oval" fill="#B9BDC1" fill-rule="nonzero" transform="translate(157.812320, 18.926899) rotate(-10.407711) translate(-157.812320, -18.926899) " cx="157.81232" cy="18.9268994" rx="1.7697749" ry="1"></ellipse>
            <ellipse id="Oval" fill="#8A8F93" fill-rule="nonzero" transform="translate(175.413497, 15.084045) rotate(-10.620000) translate(-175.413497, -15.084045) " cx="175.413497" cy="15.0840448" rx="1.7761807" ry="1"></ellipse>
            <line x1="30.7700205" y1="47.6899384" x2="24.9845996" y2="48.9681725" id="Path" stroke="#FFFFFF" stroke-width="1.54004107" stroke-linecap="round" stroke-linejoin="round"></line>
            <line x1="28.5164271" y1="51.2217659" x2="27.238193" y2="45.436345" id="Path" stroke="#FFFFFF" stroke-width="1.54004107" stroke-linecap="round" stroke-linejoin="round"></line>
            <circle id="Oval" stroke="#FFFFFF" stroke-width="1.54004107" stroke-linecap="round" stroke-linejoin="round" cx="57.3767967" cy="30.1591376" r="2.08932238"></circle>
            <polyline id="Path" fill="#6D6F70" fill-rule="nonzero" points="30.4774127 178.557495 27.8336756 186.329569 31.2217659 187.479466 33.8655031 179.712526"></polyline>
            <rect id="Rectangle" fill="#B9BDC1" fill-rule="nonzero" transform="translate(104.625198, 42.034204) rotate(56.860000) translate(-104.625198, -42.034204) " x="98.6036376" y="38.1378998" width="12.0431211" height="7.7926078" rx="3.8963039"></rect>
            <path d="M105.38501,45.9907598 L102.874743,42.1457906 C101.641001,40.2423784 102.130469,37.7043956 103.983573,36.3963039 C102.474005,36.1951 100.985577,36.8918453 100.17318,38.1799796 C99.3607837,39.4681139 99.3733455,41.1114989 100.205339,42.3870637 L102.530801,45.9445585 C103.518747,47.4469868 105.403711,48.082368 107.099589,47.4845996 C106.400208,47.1558752 105.806419,46.6385318 105.38501,45.9907598 Z" id="Path" fill="#8A8F93" fill-rule="nonzero"></path>
            <g id="Group" opacity="0.27" transform="translate(13.347023, 88.295688)" fill="#D6D7D8" fill-rule="nonzero">
                <path d="M75.7956879,1.56570842 L53.3521561,67.4794661 C53.0287474,66.812115 52.6950719,66.1550308 52.325462,65.5030801 C51.113963,63.2084189 49.5893224,60.8829569 47.1919918,59.8562628 C42.9158111,58.0903491 38.2802875,61.3963039 35.2720739,64.9281314 C32.1919918,68.5472279 29.5790554,72.6283368 26.2525667,76.0112936 L0.308008214,67.1919918 L15.8418891,21.5862423 C15.8880903,22.4589322 15.949692,23.3213552 16.0523614,24.1837782 C16.2936345,26.1806982 16.9404517,28.3880903 18.7679671,29.2607803 C20.7032854,30.1694045 22.9979466,29.0605749 24.5841889,27.6334702 C27.4486653,25.0667351 29.2043121,21.5143737 31.5708419,18.4753593 C33.9373717,15.436345 37.3716632,12.7207392 41.2063655,13.0492813 C45.1283368,17.9106776 41.7197125,26.6581109 46.6683778,30.4722793 C49.6252567,32.75154 54.1529774,31.6581109 56.8839836,29.1119097 C59.6149897,26.5657084 61.026694,22.9517454 62.5,19.5071869 C65.3126238,12.9022644 68.6158336,6.51720269 72.3819302,0.405544148 L75.7956879,1.56570842 Z" id="Path"></path>
            </g>
            <path d="M76.5297741,59.0605749 C75.9374766,60.7264786 74.1171425,61.6079576 72.4429224,61.0395928 C70.7687023,60.4712281 69.8612289,58.6637122 70.4055441,56.9815195" id="Path" fill="#6D6F70" fill-rule="nonzero"></path>
            <path d="M103.270021,46.9199179 C101.774486,47.8966227 99.7703393,47.4760277 98.7936345,45.9804928 C97.8169297,44.4849579 98.2375246,42.4808116 99.7330595,41.5041068" id="Path" fill="#6D6F70" fill-rule="nonzero"></path>
            <rect id="Rectangle" fill="#B9BDC1" fill-rule="nonzero" transform="translate(74.587960, 54.369899) rotate(18.810000) translate(-74.587960, -54.369899) " x="68.566399" y="50.473595" width="12.0431211" height="7.7926078" rx="3.8963039"></rect>
            <path d="M77.5770021,56.9045175 L73.5523614,55.5338809 C71.5207476,54.8314971 70.4348279,52.6230021 71.1190965,50.5852156 L71.1190965,50.5852156 C71.1929905,50.377818 71.2839951,50.1769211 71.3911704,49.9845996 C69.79022,50.4953658 68.6980322,51.9761642 68.6828621,53.6565494 C68.6676919,55.3369346 69.7329672,56.83721 71.3244353,57.3767967 L75.3439425,58.7474333 C77.1409341,59.3502416 79.1115466,58.5780038 80.0205339,56.9147844 C79.2263402,57.1756685 78.3689754,57.1720661 77.5770021,56.9045175 L77.5770021,56.9045175 Z" id="Path" fill="#8A8F93" fill-rule="nonzero"></path>
            <path d="M60.9034908,182.11499 C59.753111,185.481416 56.0951251,187.281705 52.7258727,186.13963 L11.6170431,172.135524 C8.2485973,170.987442 6.44727503,167.327357 7.59240246,163.957906 L40.7546201,66.5811088 C41.90496,63.2119849 45.5665747,61.4110402 48.9373717,62.5564682 L90.0513347,76.5554415 C93.4163909,77.7102054 95.2136879,81.3690706 94.0708419,84.738193 L60.9034908,182.11499 Z" id="Path" fill="#D6D7D8" fill-rule="nonzero"></path>
            <path d="M15.523614,167.351129 C14.1390181,166.872213 13.397443,165.368463 13.8603696,163.978439 L45.4979466,71.0626283 C46.1863034,69.0433275 48.3804474,67.9634871 50.4004107,68.6498973 L62.7874743,72.8952772 C62.7874743,72.8952772 70.7494867,76.036961 72.5975359,70.610883 L48.9373717,62.5564682 C47.3185745,62.0049494 45.546982,62.1191437 44.0123871,62.8739256 C42.4777922,63.6287076 41.3059234,64.9622382 40.7546201,66.5811088 L7.59240246,163.957906 C7.04080758,165.575339 7.15442527,167.345658 7.90825433,168.87931 C8.66208339,170.412963 9.99435592,171.584282 11.6119097,172.135524 L52.7258727,186.13963 C53.2340862,178.449692 42.6078029,176.591376 42.6078029,176.591376 L15.523614,167.351129 Z" id="Path" fill="#B9BDC1" fill-rule="nonzero"></path>
            <circle id="Oval" fill="#D6D7D8" fill-rule="nonzero" cx="34.8049281" cy="171.406571" r="4.67659138"></circle>
            <rect id="Rectangle" fill="#F2F3F4" fill-rule="nonzero" transform="translate(51.402476, 122.681169) rotate(-71.190000) translate(-51.402476, -122.681169) " x="8.17352323" y="97.5322986" width="86.4579055" height="50.2977413"></rect>
            <path d="M31.7915811,168.403491 C31.6735113,168.649897 30.8008214,168.649897 30.7084189,168.916838 C29.6817248,171.894251 30.8110883,174.979466 33.2032854,175.795688 C34.1857891,176.111895 35.2524476,176.036493 36.1806982,175.585216 C33.2084189,174.466119 31.0215606,172.079055 31.7915811,168.403491 Z" id="Path" fill="#B9BDC1" fill-rule="nonzero"></path>
            <path d="M82.0277207,110.759754 L66.6991786,155.775154 C66.37577,155.107803 66.0420945,154.450719 65.6724846,153.798768 C64.4609856,151.504107 62.936345,149.178645 60.5390144,148.151951 C56.2628337,146.386037 51.7094456,148.38809 48.701232,151.899384 C45.6211499,155.51848 45.9753593,163.234086 39.5995893,164.306982 L13.6550308,155.48768 L29.1889117,109.88193 C29.2351129,110.75462 29.2967146,111.617043 29.399384,112.479466 C29.6406571,114.476386 30.2874743,116.683778 32.1149897,117.556468 C34.050308,118.465092 36.3449692,117.356263 37.9312115,115.929158 C40.7956879,113.362423 42.9722793,110.092402 44.9178645,106.771047 C47.7977413,101.842916 50.4055441,100.010267 54.5533881,101.344969 C60.8572895,102.936345 55.0667351,114.953799 60.0154004,118.767967 C62.9722793,121.047228 67.5,119.953799 70.2310062,117.407598 C72.9620123,114.861396 74.3737166,111.247433 75.8470226,107.802875 C78.6601643,101.211499 82.4640657,98.8501027 86.0677618,98.9065708 L82.0277207,110.759754 Z" id="Path" fill="#FFFFFF" fill-rule="nonzero"></path>
            <path d="M60.9034908,182.11499 C59.753111,185.481416 56.0951251,187.281705 52.7258727,186.13963 L11.6170431,172.135524 C8.2485973,170.987442 6.44727503,167.327357 7.59240246,163.957906 L40.7546201,66.5811088 C41.90496,63.2119849 45.5665747,61.4110402 48.9373717,62.5564682 L90.0513347,76.5554415 C93.4163909,77.7102054 95.2136879,81.3690706 94.0708419,84.738193 L60.9034908,182.11499 Z" id="Path" stroke="#202020" stroke-width="1.54004107" stroke-linecap="round" stroke-linejoin="round"></path>
            <circle id="Oval" stroke="#202020" stroke-width="1.54004107" stroke-linecap="round" stroke-linejoin="round" cx="34.8049281" cy="171.406571" r="4.67659138"></circle>
            <rect id="Rectangle" stroke="#202020" stroke-width="1.54004107" stroke-linecap="round" stroke-linejoin="round" transform="translate(51.402476, 122.681169) rotate(-71.190000) translate(-51.402476, -122.681169) " x="8.17352323" y="97.5322986" width="86.4579055" height="50.2977413"></rect>
            <path d="M29.4609856,186.883984 C24.1683778,202.417864 48.8809035,229.106776 78.3521561,215.959959 C106.699179,203.305955 134.199179,137.417864 50.3696099,136.267967 C-33.4599589,135.11807 7.50513347,67.4794661 33.2802875,88.3110883" id="Path" stroke="#202020" stroke-width="1.54004107" stroke-linecap="round" stroke-linejoin="round"></path>
            <path d="M76.2782341,50.8213552 C94.4558522,43.9322382 127.977413,78.4856263 86.113963,109.425051 C86.113963,109.425051 126.704312,88.1057495 108.839836,47.2279261" id="Path" stroke="#202020" stroke-width="1.54004107" stroke-linecap="round" stroke-linejoin="round"></path>
            <rect id="Rectangle" stroke="#202020" stroke-width="1.54004107" stroke-linecap="round" stroke-linejoin="round" transform="translate(74.587960, 54.369899) rotate(18.810000) translate(-74.587960, -54.369899) " x="68.566399" y="50.473595" width="12.0431211" height="7.7926078" rx="3.8963039"></rect>
            <path d="M76.5297741,59.0605749 C75.9374766,60.7264786 74.1171425,61.6079576 72.4429224,61.0395928 C70.7687023,60.4712281 69.8612289,58.6637122 70.4055441,56.9815195" id="Path" stroke="#202020" stroke-width="1.54004107" stroke-linecap="round" stroke-linejoin="round"></path>
            <rect id="Rectangle" stroke="#202020" stroke-width="1.54004107" stroke-linecap="round" stroke-linejoin="round" transform="translate(104.625198, 42.034204) rotate(56.860000) translate(-104.625198, -42.034204) " x="98.6036376" y="38.1378998" width="12.0431211" height="7.7926078" rx="3.8963039"></rect>
            <path d="M103.270021,46.9199179 C101.774486,47.8966227 99.7703393,47.4760277 98.7936345,45.9804928 C97.8169297,44.4849579 98.2375246,42.4808116 99.7330595,41.5041068" id="Path" stroke="#202020" stroke-width="1.54004107" stroke-linecap="round" stroke-linejoin="round"></path>
            <polyline id="Path" stroke="#202020" stroke-width="1.54004107" stroke-linecap="round" stroke-linejoin="round" points="30.4774127 178.557495 27.8336756 186.329569 31.2217659 187.479466 33.8655031 179.712526"></polyline>
            <line x1="62.7002053" y1="74.9589322" x2="71.5708419" y2="77.9825462" id="Path" stroke="#202020" stroke-width="1.54004107" stroke-linecap="round" stroke-linejoin="round"></line>
            <path d="M45.3028747,98.973306 C45.1971226,98.9843082 45.0902439,98.9720434 44.9897331,98.9373717 C44.5989205,98.803624 44.3899952,98.3788858 44.5225873,97.9876797 L46.201232,93.0954825 C46.3344835,92.7056512 46.7585259,92.497652 47.1483573,92.6309035 C47.5381887,92.7641549 47.7461878,93.1881974 47.6129363,93.5780287 L45.949692,98.4702259 C45.8540979,98.752184 45.5996881,98.9500583 45.3028747,98.973306 Z" id="Path" fill="#6D6F70" fill-rule="nonzero"></path>
            <path d="M48.8039014,102.88501 C48.6977776,102.894203 48.5909244,102.880189 48.4907598,102.843943 C48.3034313,102.780807 48.1489108,102.645749 48.0612761,102.468554 C47.9736415,102.291359 47.9600913,102.086581 48.023614,101.899384 L51.3449692,92.1457906 C51.4809769,91.7569738 51.9036565,91.5490611 52.2946612,91.6786448 C52.4832041,91.7417198 52.6386786,91.8775998 52.7264317,92.055999 C52.8141848,92.2343982 52.8269229,92.440489 52.761807,92.6283368 L49.4404517,102.38193 C49.3430662,102.658366 49.0953592,102.854135 48.8039014,102.88501 L48.8039014,102.88501 Z" id="Path" fill="#6D6F70" fill-rule="nonzero"></path>
            <path d="M56.9815195,107.325462 C56.8757979,107.333812 56.7694597,107.321609 56.6683778,107.289528 C56.2775653,107.15578 56.06864,106.731042 56.201232,106.339836 L60.5390144,93.5934292 C60.6140656,93.3262717 60.8305877,93.122447 61.101788,93.0636578 C61.3729883,93.0048686 61.6544762,93.1007377 61.8334177,93.3128361 C62.0123592,93.5249344 62.0594647,93.8185453 61.9558522,94.0759754 L57.6180698,106.822382 C57.5206842,107.098818 57.2729773,107.294587 56.9815195,107.325462 Z" id="Path" fill="#6D6F70" fill-rule="nonzero"></path>
            <path d="M53.6396304,102.864476 C53.5338783,102.875479 53.4269995,102.863214 53.3264887,102.828542 C52.9356761,102.694794 52.7267509,102.270056 52.8593429,101.87885 L55.1694045,95.1026694 C55.3180463,94.7333622 55.7294757,94.5446998 56.1063177,94.6730445 C56.4831596,94.8013892 56.6939103,95.2019536 56.5862423,95.5852156 L54.2761807,102.361396 C54.1820694,102.640156 53.9325918,102.837323 53.6396304,102.864476 L53.6396304,102.864476 Z" id="Path" fill="#6D6F70" fill-rule="nonzero"></path>
            <path d="M62.6283368,104.871663 C62.5225847,104.882665 62.4157059,104.870401 62.3151951,104.835729 C61.9243825,104.701981 61.7154572,104.277243 61.8480493,103.886037 L63.5112936,98.9938398 C63.5863449,98.7266824 63.8028669,98.5228577 64.0740672,98.4640685 C64.3452676,98.4052793 64.6267554,98.5011484 64.8056969,98.7132467 C64.9846384,98.9253451 65.031744,99.218956 64.9281314,99.476386 L63.2648871,104.368583 C63.1707758,104.647342 62.9212981,104.84451 62.6283368,104.871663 L62.6283368,104.871663 Z" id="Path" fill="#6D6F70" fill-rule="nonzero"></path>
            <path d="M66.1190965,108.783368 C66.015064,108.791705 65.9104075,108.779495 65.8110883,108.747433 C65.6225454,108.684358 65.4670709,108.548478 65.3793178,108.370079 C65.2915647,108.19168 65.2788265,107.985589 65.3439425,107.797741 L68.6652977,98.0441478 C68.740349,97.7769904 68.956871,97.5731657 69.2280714,97.5143765 C69.4992717,97.4555873 69.7807595,97.5514564 69.959701,97.7635548 C70.1386425,97.9756531 70.1857481,98.269264 70.0821355,98.526694 L66.7556468,108.280287 C66.659331,108.557486 66.411049,108.753709 66.1190965,108.783368 L66.1190965,108.783368 Z" id="Path" fill="#6D6F70" fill-rule="nonzero"></path>
            <path d="M71.2782341,107.802875 C71.1741719,107.81362 71.0690197,107.801353 70.9702259,107.76694 C70.781683,107.703865 70.6262085,107.567985 70.5384554,107.389586 C70.4507023,107.211187 70.4379641,107.005096 70.5030801,106.817248 L72.1663244,101.930185 C72.2413757,101.663027 72.4578977,101.459203 72.729098,101.400413 C73.0002984,101.341624 73.2817862,101.437493 73.4607277,101.649592 C73.6396692,101.86169 73.6867748,102.155301 73.5831622,102.412731 L71.9147844,107.299795 C71.8218092,107.579352 71.5717099,107.777012 71.2782341,107.802875 L71.2782341,107.802875 Z" id="Path" fill="#6D6F70" fill-rule="nonzero"></path>
            <path d="M98.3778234,167.864476 C94.5640117,166.880481 92.2671578,162.994204 93.2443532,159.178645 L105.256674,112.654004 C106.23822,108.838352 110.126514,106.540306 113.942505,107.520534 L224.132444,135.975359 C227.946255,136.959355 230.243109,140.845631 229.265914,144.661191 L217.253593,191.185832 C216.269671,195.00218 212.379869,197.29976 208.562628,196.319302 L98.3778234,167.864476 Z" id="Path" fill="#D6D7D8" fill-rule="nonzero"></path>
            <path d="M100.102669,158.470226 C99.7030918,160.04856 100.652305,161.65351 102.227926,162.063655 L207.351129,189.178645 C208.449853,189.46065 209.615605,189.294548 210.591841,188.716894 C211.568076,188.13924 212.274794,187.197371 212.556468,186.098563 L216.175565,172.068789 C216.175565,172.068789 218.100616,162.802875 224.240246,164.368583 L217.330595,191.144764 C216.861666,192.978627 215.682308,194.550535 214.052764,195.513622 C212.423221,196.476709 210.477431,196.751815 208.644764,196.278234 L98.4291581,167.864476 C96.5964296,167.395485 95.0254393,166.216912 94.0624819,164.588551 C93.0995245,162.96019 92.8236566,161.015726 93.2956879,159.183778 L105.297741,112.654004 C112.715606,116.853183 107.977413,127.802875 107.977413,127.802875 L100.102669,158.470226 Z" id="Path" fill="#B9BDC1" fill-rule="nonzero"></path>
            <rect id="Rectangle" fill="#414547" fill-rule="nonzero" transform="translate(163.159143, 152.402272) rotate(-75.520000) translate(-163.159143, -152.402272) " x="135.338301" y="104.578864" width="55.6416838" height="95.6468172"></rect>
            <circle id="Oval" fill="#D6D7D8" fill-rule="nonzero" cx="108.013347" cy="138.151951" r="5.17453799"></circle>
            <path d="M98.3778234,167.864476 C94.5640117,166.880481 92.2671578,162.994204 93.2443532,159.178645 L105.256674,112.654004 C106.23822,108.838352 110.126514,106.540306 113.942505,107.520534 L224.132444,135.975359 C227.946255,136.959355 230.243109,140.845631 229.265914,144.661191 L217.253593,191.185832 C216.269671,195.00218 212.379869,197.29976 208.562628,196.319302 L98.3778234,167.864476 Z" id="Path" stroke="#202020" stroke-width="1.54004107" stroke-linecap="round" stroke-linejoin="round"></path>
            <circle id="Oval" stroke="#202020" stroke-width="1.54004107" stroke-linecap="round" stroke-linejoin="round" cx="108.013347" cy="138.151951" r="5.17453799"></circle>
            <line x1="216.735113" y1="160.87269" x2="214.14271" y2="170.908624" id="Path" stroke="#202020" stroke-width="1.54004107" stroke-linecap="round" stroke-linejoin="round"></line>
            <path d="M202.510267,191.283368 L133.721766,173.521561 C132.300566,161.862706 125.612724,151.498916 115.574949,145.400411 L123.814168,113.495893 L169.404517,125.256674 C165.811088,151.093429 181.211499,171.457906 204.779261,182.571869 L202.510267,191.283368 Z" id="Path" fill="#2F3335" fill-rule="nonzero"></path>
            <rect id="Rectangle" stroke="#202020" stroke-width="1.54004107" stroke-linecap="round" stroke-linejoin="round" transform="translate(163.159143, 152.402272) rotate(-75.520000) translate(-163.159143, -152.402272) " x="135.338301" y="104.578864" width="55.6416838" height="95.6468172"></rect>
            <path d="M163.937372,147.032854 C160.538338,146.185819 157.095966,148.253596 156.247222,151.652203 C155.398478,155.050811 157.464524,158.494222 160.862705,159.344674 C164.260885,160.195127 167.705334,158.130812 168.557495,154.73306 C168.968694,153.099139 168.712587,151.368742 167.84573,149.923979 C166.978872,148.479217 165.572572,147.438936 163.937372,147.032854 Z M164.625257,154.096509 L160.564682,155.272074 C160.504391,155.290049 160.440167,155.290049 160.379877,155.272074 C160.317683,155.256918 160.260855,155.224952 160.215606,155.179671 C160.122474,155.09155 160.083349,154.960483 160.112936,154.835729 L161.13963,150.728953 C161.171885,150.603679 161.267286,150.504383 161.39117,150.467146 C161.516386,150.432925 161.650393,150.465941 161.74538,150.554415 L164.784394,153.49076 C164.876622,153.579387 164.913904,153.710854 164.88193,153.834702 C164.851707,153.962907 164.752838,154.063753 164.625257,154.096509 L164.625257,154.096509 Z" id="Shape" fill="#B9BDC1" fill-rule="nonzero"></path>
            <line x1="249.517454" y1="127.787474" x2="244.168378" y2="125.246407" id="Path" stroke="#FFFFFF" stroke-width="1.54004107" stroke-linecap="round" stroke-linejoin="round"></line>
            <line x1="245.574949" y1="129.194045" x2="248.110883" y2="123.839836" id="Path" stroke="#FFFFFF" stroke-width="1.54004107" stroke-linecap="round" stroke-linejoin="round"></line>
            <circle id="Oval" stroke="#FFFFFF" stroke-width="1.54004107" stroke-linecap="round" stroke-linejoin="round" cx="2.66427105" cy="185.821355" r="2.08932238"></circle>
            <circle id="Oval" stroke="#FFFFFF" stroke-width="1.54004107" stroke-linecap="round" stroke-linejoin="round" cx="238.921971" cy="112.623203" r="2.08932238"></circle>
        </g>
    </g>
</svg>