<?xml version="1.0" encoding="UTF-8"?>
<svg width="294px" height="254px" viewBox="0 0 294 254" version="1.1" xmlns="http://www.w3.org/2000/svg" xmlns:xlink="http://www.w3.org/1999/xlink">
    <!-- Generator: Sketch 63.1 (92452) - https://sketch.com -->
    <title>2 - Media Planning + Buying</title>
    <desc>Created with Sketch.</desc>
    <g id="Page-1" stroke="none" stroke-width="1" fill="none" fill-rule="evenodd">
        <g id="2---Media-Planning-+-Buying" transform="translate(1.000000, -4.000000)">
            <path d="M258.60001,111.000004 C259.10401,118.620005 255.91801,126.384005 253.07401,131.664005 C240.736091,135.822301 228.071931,138.941176 215.214009,140.988006 C203.61986,142.866434 191.900737,143.869269 180.156007,143.988006 C175.860007,140.040006 170.898007,134.400005 168.822007,127.800005 C167.526007,123.660005 165.636007,111.654004 163.674007,97.3080039 C177.92784,96.6312589 192.132297,95.1529217 206.220008,92.8800037 C221.94643,90.3840568 237.497911,86.8889816 252.78001,82.4160033 C255.94801,95.7360038 258.33601,106.800004 258.60001,111.000004 Z" id="Path" fill="#B9BDC1" fill-rule="nonzero"></path>
            <path d="M206.220008,92.8800037 C192.132297,95.1529217 177.92784,96.6312589 163.674007,97.3080039 C159.600006,67.2780027 155.160006,27.0000011 155.160006,27.0000011 C153.960006,20.5860008 170.838007,12.0480005 192.864008,7.92000031 C214.890009,3.79200015 233.724009,5.64000022 234.924009,12.0480005 C234.956162,12.2284589 234.976207,12.4108662 234.984009,12.5940005 C236.280009,17.4660007 246.21001,54.7740022 252.78001,82.4340033 C237.497508,86.9009064 221.946032,90.3899683 206.220008,92.8800037 L206.220008,92.8800037 Z" id="Path" fill="#F2F3F4" fill-rule="nonzero"></path>
            <path d="M155.160006,27.0000011 C155.160006,27.0000011 164.802007,115.014005 168.822007,127.800005 C172.842007,140.586006 187.662007,149.694006 187.662007,149.694006 C187.662007,149.694006 190.362008,149.694006 195.288008,149.328006 C187.752007,144.606006 181.434007,138.294005 177.792007,129.198005 C172.038007,114.798005 163.662007,65.0340026 163.080006,17.7780007 C157.644006,20.8860008 154.632006,24.144001 155.160006,27.0000011 Z" id="Path" fill="#414547" fill-rule="nonzero" opacity="0.25"></path>
            <path d="M249.20401,139.428006 C249.20401,139.428006 259.72801,125.586005 258.84001,112.200004 C258.00001,99.420004 237.138009,21.0000008 235.200009,13.8000005 C235.19519,13.6166513 235.17512,13.4340211 235.140009,13.2540005 C234.498009,9.82800039 228.816009,7.70400031 220.308009,7.10400028 C226.908009,25.044001 239.79601,61.7040025 244.81801,87.5760035 C250.81801,118.494005 247.44601,122.436005 238.518009,142.848006 C245.47201,140.904006 249.20401,139.428006 249.20401,139.428006 Z" id="Path" fill="#414547" fill-rule="nonzero" opacity="0.25"></path>
            <ellipse id="Oval" fill="#FFFFFF" fill-rule="nonzero" transform="translate(194.996931, 19.494006) rotate(-10.620000) translate(-194.996931, -19.494006) " cx="194.996931" cy="19.4940059" rx="40.5780016" ry="11.8080005"></ellipse>
            <path d="M253.08601,131.634005 C251.872706,133.927796 250.499306,136.133256 248.97601,138.234005 C248.97601,138.234005 238.032009,142.554006 218.778009,146.172006 L218.694009,146.172006 C199.434008,149.772006 187.662007,149.706089 187.662007,149.706089 C185.008051,147.997923 182.501343,146.07123 180.168007,143.946006 C191.912737,143.827269 203.63186,142.824434 215.226009,140.946006 C228.083581,138.903091 240.747734,135.788231 253.08601,131.634005 L253.08601,131.634005 Z" id="Path" fill="#2F3335" fill-rule="nonzero"></path>
            <ellipse id="Oval" stroke="#202020" stroke-width="1.80000007" stroke-linecap="round" stroke-linejoin="round" transform="translate(194.996931, 19.494006) rotate(-10.620000) translate(-194.996931, -19.494006) " cx="194.996931" cy="19.4940059" rx="40.5780016" ry="11.8080005"></ellipse>
            <path d="M258.60001,111.000004 C259.50001,124.362005 249.00001,138.204005 249.00001,138.204005 C249.00001,138.204005 238.056009,142.524006 218.802009,146.142006 L218.718009,146.142006 C199.458008,149.742006 187.686007,149.676089 187.686007,149.676089 C187.686007,149.676089 172.866007,140.586006 168.846007,127.782005 C164.826007,114.978005 155.160006,27.0000011 155.160006,27.0000011 C153.960006,20.5860008 170.838007,12.0480005 192.864008,7.92000031 C214.890009,3.79200015 233.724009,5.64000022 234.924009,12.0480005 C234.956162,12.2284589 234.976207,12.4108662 234.984009,12.5940005 C236.904009,19.8000008 257.76601,98.1960039 258.60001,111.000004 Z" id="Path" stroke="#202020" stroke-width="1.80000007" stroke-linecap="round" stroke-linejoin="round"></path>
            <path d="M234.984009,12.6000005 C236.280009,17.4720007 246.21001,54.7800022 252.78001,82.4400033 C237.497911,86.9129816 221.94643,90.4080568 206.220008,92.9040037 C192.132297,95.1769217 177.92784,96.6552589 163.674007,97.3320039 C159.600006,67.2780027 155.160006,27.0000011 155.160006,27.0000011 C153.960006,20.5860008 170.838007,12.0480005 192.864008,7.92000031 C214.890009,3.79200015 233.724009,5.64000022 234.924009,12.0480005 C234.95643,12.2304376 234.976475,12.4148583 234.984009,12.6000005 L234.984009,12.6000005 Z" id="Path" stroke="#202020" stroke-width="1.80000007" stroke-linecap="round" stroke-linejoin="round"></path>
            <path d="M252.78001,82.4160033 C237.497911,86.8889816 221.94643,90.3840568 206.220008,92.8800037 C192.132297,95.1529217 177.92784,96.6312589 163.674007,97.3080039 C159.600006,67.2780027 155.160006,27.0000011 155.160006,27.0000011 C153.960006,20.5860008 170.838007,12.0480005 192.864008,7.92000031 C214.890009,3.79200015 233.724009,5.64000022 234.924009,12.0480005 C234.956162,12.2284589 234.976207,12.4108662 234.984009,12.5940005 C236.280009,17.4480007 246.21001,54.7560022 252.78001,82.4160033 Z" id="Path" stroke="#202020" stroke-width="1.80000007" stroke-linecap="round" stroke-linejoin="round"></path>
            <path d="M258.60001,111.000004 C259.10401,118.620005 255.91801,126.384005 253.07401,131.664005 C240.736091,135.822301 228.071931,138.941176 215.214009,140.988006 C203.61986,142.866434 191.900737,143.869269 180.156007,143.988006 C175.860007,140.040006 170.898007,134.400005 168.822007,127.800005 C167.526007,123.660005 165.636007,111.654004 163.674007,97.3080039 C177.92784,96.6312589 192.132297,95.1529217 206.220008,92.8800037 C221.94643,90.3840568 237.497911,86.8889816 252.78001,82.4160033 C255.94801,95.7360038 258.33601,106.800004 258.60001,111.000004 Z" id="Path" stroke="#202020" stroke-width="1.80000007" stroke-linecap="round" stroke-linejoin="round"></path>
            <path d="M253.08601,131.634005 C251.872706,133.927796 250.499306,136.133256 248.97601,138.234005 C248.97601,138.234005 238.032009,142.554006 218.778009,146.172006 L218.694009,146.172006 C199.434008,149.772006 187.662007,149.706089 187.662007,149.706089 C185.008051,147.997923 182.501343,146.07123 180.168007,143.946006 C191.912737,143.827269 203.63186,142.824434 215.226009,140.946006 C228.083581,138.903091 240.747734,135.788231 253.08601,131.634005 L253.08601,131.634005 Z" id="Path" stroke="#202020" stroke-width="1.80000007" stroke-linecap="round" stroke-linejoin="round"></path>
            <path d="M206.220008,92.8800037 C192.132297,95.1529217 177.92784,96.6312589 163.674007,97.3080039 C159.600006,67.2780027 155.160006,27.0000011 155.160006,27.0000011 C153.960006,20.5860008 170.838007,12.0480005 192.864008,7.92000031 C214.890009,3.79200015 233.724009,5.64000022 234.924009,12.0480005 C234.956162,12.2284589 234.976207,12.4108662 234.984009,12.5940005 C236.280009,17.4660007 246.21001,54.7740022 252.78001,82.4340033 C237.497508,86.9009064 221.946032,90.3899683 206.220008,92.8800037 L206.220008,92.8800037 Z" id="Path" stroke="#202020" stroke-width="1.80000007" stroke-linecap="round" stroke-linejoin="round"></path>
            <path d="M258.60001,111.000004 C259.50001,124.362005 249.00001,138.204005 249.00001,138.204005 C249.00001,138.204005 238.056009,142.524006 218.802009,146.142006 L218.718009,146.142006 C199.458008,149.742006 187.686007,149.676089 187.686007,149.676089 C187.686007,149.676089 172.866007,140.586006 168.846007,127.782005 C164.826007,114.978005 155.160006,27.0000011 155.160006,27.0000011 C153.960006,20.5860008 170.838007,12.0480005 192.864008,7.92000031 C214.890009,3.79200015 233.724009,5.64000022 234.924009,12.0480005 C234.956162,12.2284589 234.976207,12.4108662 234.984009,12.5940005 C236.904009,19.8000008 257.76601,98.1960039 258.60001,111.000004 Z" id="Path" stroke="#202020" stroke-width="1.80000007" stroke-linecap="round" stroke-linejoin="round"></path>
            <path d="M234.984009,12.6000005 C236.280009,17.4720007 246.21001,54.7800022 252.78001,82.4400033 C237.497911,86.9129816 221.94643,90.4080568 206.220008,92.9040037 C192.132297,95.1769217 177.92784,96.6552589 163.674007,97.3320039 C159.600006,67.2780027 155.160006,27.0000011 155.160006,27.0000011 C153.960006,20.5860008 170.838007,12.0480005 192.864008,7.92000031 C214.890009,3.79200015 233.724009,5.64000022 234.924009,12.0480005 C234.95643,12.2304376 234.976475,12.4148583 234.984009,12.6000005 L234.984009,12.6000005 Z" id="Path" stroke="#202020" stroke-width="1.80000007" stroke-linecap="round" stroke-linejoin="round"></path>
            <path d="M252.78001,82.4160033 C237.497911,86.8889816 221.94643,90.3840568 206.220008,92.8800037 C192.132297,95.1529217 177.92784,96.6312589 163.674007,97.3080039 C159.600006,67.2780027 155.160006,27.0000011 155.160006,27.0000011 C153.960006,20.5860008 170.838007,12.0480005 192.864008,7.92000031 C214.890009,3.79200015 233.724009,5.64000022 234.924009,12.0480005 C234.956162,12.2284589 234.976207,12.4108662 234.984009,12.5940005 C236.280009,17.4480007 246.21001,54.7560022 252.78001,82.4160033 Z" id="Path" stroke="#202020" stroke-width="1.80000007" stroke-linecap="round" stroke-linejoin="round"></path>
            <path d="M258.60001,111.000004 C259.10401,118.620005 255.91801,126.384005 253.07401,131.664005 C240.736091,135.822301 228.071931,138.941176 215.214009,140.988006 C203.61986,142.866434 191.900737,143.869269 180.156007,143.988006 C175.860007,140.040006 170.898007,134.400005 168.822007,127.800005 C167.526007,123.660005 165.636007,111.654004 163.674007,97.3080039 C177.92784,96.6312589 192.132297,95.1529217 206.220008,92.8800037 C221.94643,90.3840568 237.497911,86.8889816 252.78001,82.4160033 C255.94801,95.7360038 258.33601,106.800004 258.60001,111.000004 Z" id="Path" stroke="#202020" stroke-width="1.80000007" stroke-linecap="round" stroke-linejoin="round"></path>
            <path d="M253.08601,131.634005 C251.872706,133.927796 250.499306,136.133256 248.97601,138.234005 C248.97601,138.234005 238.032009,142.554006 218.778009,146.172006 L218.694009,146.172006 C199.434008,149.772006 187.662007,149.706089 187.662007,149.706089 C185.008051,147.997923 182.501343,146.07123 180.168007,143.946006 C191.912737,143.827269 203.63186,142.824434 215.226009,140.946006 C228.083581,138.903091 240.747734,135.788231 253.08601,131.634005 L253.08601,131.634005 Z" id="Path" stroke="#202020" stroke-width="1.80000007" stroke-linecap="round" stroke-linejoin="round"></path>
            <path d="M206.220008,92.8800037 C192.132297,95.1529217 177.92784,96.6312589 163.674007,97.3080039 C159.600006,67.2780027 155.160006,27.0000011 155.160006,27.0000011 C153.960006,20.5860008 170.838007,12.0480005 192.864008,7.92000031 C214.890009,3.79200015 233.724009,5.64000022 234.924009,12.0480005 C234.956162,12.2284589 234.976207,12.4108662 234.984009,12.5940005 C236.280009,17.4660007 246.21001,54.7740022 252.78001,82.4340033 C237.497508,86.9009064 221.946032,90.3899683 206.220008,92.8800037 L206.220008,92.8800037 Z" id="Path" stroke="#202020" stroke-width="1.80000007" stroke-linecap="round" stroke-linejoin="round"></path>
            <path d="M258.60001,111.000004 C259.50001,124.362005 249.00001,138.204005 249.00001,138.204005 C249.00001,138.204005 238.056009,142.524006 218.802009,146.142006 L218.718009,146.142006 C199.458008,149.742006 187.686007,149.676089 187.686007,149.676089 C187.686007,149.676089 172.866007,140.586006 168.846007,127.782005 C164.826007,114.978005 155.160006,27.0000011 155.160006,27.0000011 C153.960006,20.5860008 170.838007,12.0480005 192.864008,7.92000031 C214.890009,3.79200015 233.724009,5.64000022 234.924009,12.0480005 C234.956162,12.2284589 234.976207,12.4108662 234.984009,12.5940005 C236.904009,19.8000008 257.76601,98.1960039 258.60001,111.000004 Z" id="Path" stroke="#202020" stroke-width="1.80000007" stroke-linecap="round" stroke-linejoin="round"></path>
            <path d="M234.984009,12.6000005 C236.280009,17.4720007 246.21001,54.7800022 252.78001,82.4400033 C237.497911,86.9129816 221.94643,90.4080568 206.220008,92.9040037 C192.132297,95.1769217 177.92784,96.6552589 163.674007,97.3320039 C159.600006,67.2780027 155.160006,27.0000011 155.160006,27.0000011 C153.960006,20.5860008 170.838007,12.0480005 192.864008,7.92000031 C214.890009,3.79200015 233.724009,5.64000022 234.924009,12.0480005 C234.95643,12.2304376 234.976475,12.4148583 234.984009,12.6000005 L234.984009,12.6000005 Z" id="Path" stroke="#202020" stroke-width="1.80000007" stroke-linecap="round" stroke-linejoin="round"></path>
            <path d="M252.78001,82.4160033 C237.497911,86.8889816 221.94643,90.3840568 206.220008,92.8800037 C192.132297,95.1529217 177.92784,96.6312589 163.674007,97.3080039 C159.600006,67.2780027 155.160006,27.0000011 155.160006,27.0000011 C153.960006,20.5860008 170.838007,12.0480005 192.864008,7.92000031 C214.890009,3.79200015 233.724009,5.64000022 234.924009,12.0480005 C234.956162,12.2284589 234.976207,12.4108662 234.984009,12.5940005 C236.280009,17.4480007 246.21001,54.7560022 252.78001,82.4160033 Z" id="Path" stroke="#202020" stroke-width="1.80000007" stroke-linecap="round" stroke-linejoin="round"></path>
            <path d="M258.60001,111.000004 C259.10401,118.620005 255.91801,126.384005 253.07401,131.664005 C240.736091,135.822301 228.071931,138.941176 215.214009,140.988006 C203.61986,142.866434 191.900737,143.869269 180.156007,143.988006 C175.860007,140.040006 170.898007,134.400005 168.822007,127.800005 C167.526007,123.660005 165.636007,111.654004 163.674007,97.3080039 C177.92784,96.6312589 192.132297,95.1529217 206.220008,92.8800037 C221.94643,90.3840568 237.497911,86.8889816 252.78001,82.4160033 C255.94801,95.7360038 258.33601,106.800004 258.60001,111.000004 Z" id="Path" stroke="#202020" stroke-width="1.80000007" stroke-linecap="round" stroke-linejoin="round"></path>
            <path d="M253.08601,131.634005 C251.872706,133.927796 250.499306,136.133256 248.97601,138.234005 C248.97601,138.234005 238.032009,142.554006 218.778009,146.172006 L218.694009,146.172006 C199.434008,149.772006 187.662007,149.706089 187.662007,149.706089 C185.008051,147.997923 182.501343,146.07123 180.168007,143.946006 C191.912737,143.827269 203.63186,142.824434 215.226009,140.946006 C228.083581,138.903091 240.747734,135.788231 253.08601,131.634005 L253.08601,131.634005 Z" id="Path" stroke="#202020" stroke-width="1.80000007" stroke-linecap="round" stroke-linejoin="round"></path>
            <path d="M206.220008,92.8800037 C192.132297,95.1529217 177.92784,96.6312589 163.674007,97.3080039 C159.600006,67.2780027 155.160006,27.0000011 155.160006,27.0000011 C153.960006,20.5860008 170.838007,12.0480005 192.864008,7.92000031 C214.890009,3.79200015 233.724009,5.64000022 234.924009,12.0480005 C234.956162,12.2284589 234.976207,12.4108662 234.984009,12.5940005 C236.280009,17.4660007 246.21001,54.7740022 252.78001,82.4340033 C237.497508,86.9009064 221.946032,90.3899683 206.220008,92.8800037 L206.220008,92.8800037 Z" id="Path" stroke="#202020" stroke-width="1.80000007" stroke-linecap="round" stroke-linejoin="round"></path>
            <path d="M258.60001,111.000004 C259.50001,124.362005 249.00001,138.204005 249.00001,138.204005 C249.00001,138.204005 238.056009,142.524006 218.802009,146.142006 L218.718009,146.142006 C199.458008,149.742006 187.686007,149.676089 187.686007,149.676089 C187.686007,149.676089 172.866007,140.586006 168.846007,127.782005 C164.826007,114.978005 155.160006,27.0000011 155.160006,27.0000011 C153.960006,20.5860008 170.838007,12.0480005 192.864008,7.92000031 C214.890009,3.79200015 233.724009,5.64000022 234.924009,12.0480005 C234.956162,12.2284589 234.976207,12.4108662 234.984009,12.5940005 C236.904009,19.8000008 257.76601,98.1960039 258.60001,111.000004 Z" id="Path" stroke="#202020" stroke-width="1.80000007" stroke-linecap="round" stroke-linejoin="round"></path>
            <path d="M234.984009,12.6000005 C236.280009,17.4720007 246.21001,54.7800022 252.78001,82.4400033 C237.497911,86.9129816 221.94643,90.4080568 206.220008,92.9040037 C192.132297,95.1769217 177.92784,96.6552589 163.674007,97.3320039 C159.600006,67.2780027 155.160006,27.0000011 155.160006,27.0000011 C153.960006,20.5860008 170.838007,12.0480005 192.864008,7.92000031 C214.890009,3.79200015 233.724009,5.64000022 234.924009,12.0480005 C234.95643,12.2304376 234.976475,12.4148583 234.984009,12.6000005 L234.984009,12.6000005 Z" id="Path" stroke="#202020" stroke-width="1.80000007" stroke-linecap="round" stroke-linejoin="round"></path>
            <path d="M252.78001,82.4160033 C237.497911,86.8889816 221.94643,90.3840568 206.220008,92.8800037 C192.132297,95.1529217 177.92784,96.6312589 163.674007,97.3080039 C159.600006,67.2780027 155.160006,27.0000011 155.160006,27.0000011 C153.960006,20.5860008 170.838007,12.0480005 192.864008,7.92000031 C214.890009,3.79200015 233.724009,5.64000022 234.924009,12.0480005 C234.956162,12.2284589 234.976207,12.4108662 234.984009,12.5940005 C236.280009,17.4480007 246.21001,54.7560022 252.78001,82.4160033 Z" id="Path" stroke="#202020" stroke-width="1.80000007" stroke-linecap="round" stroke-linejoin="round"></path>
            <path d="M206.220008,92.8800037 C192.132297,95.1529217 177.92784,96.6312589 163.674007,97.3080039 C159.600006,67.2780027 155.160006,27.0000011 155.160006,27.0000011 C153.960006,20.5860008 170.838007,12.0480005 192.864008,7.92000031 C214.890009,3.79200015 233.724009,5.64000022 234.924009,12.0480005 C234.956162,12.2284589 234.976207,12.4108662 234.984009,12.5940005 C236.280009,17.4660007 246.21001,54.7740022 252.78001,82.4340033 C237.497508,86.9009064 221.946032,90.3899683 206.220008,92.8800037 L206.220008,92.8800037 Z" id="Path" stroke="#202020" stroke-width="1.80000007" stroke-linecap="round" stroke-linejoin="round"></path>
            <ellipse id="Oval" fill="#D6D7D8" fill-rule="nonzero" transform="translate(194.577241, 16.496796) rotate(-10.620000) translate(-194.577241, -16.496796) " cx="194.577241" cy="16.4967963" rx="2.07600008" ry="1"></ellipse>
            <ellipse id="Oval" fill="#414547" fill-rule="nonzero" opacity="0.76" transform="translate(195.695940, 22.441275) rotate(-10.620000) translate(-195.695940, -22.441275) " cx="195.69594" cy="22.4412753" rx="2.07600008" ry="1"></ellipse>
            <ellipse id="Oval" fill="#B9BDC1" fill-rule="nonzero" transform="translate(184.451047, 22.121761) rotate(-10.407711) translate(-184.451047, -22.121761) " cx="184.451047" cy="22.1217609" rx="2.06851298" ry="1"></ellipse>
            <ellipse id="Oval" fill="#8A8F93" fill-rule="nonzero" transform="translate(205.023303, 17.630232) rotate(-10.620000) translate(-205.023303, -17.630232) " cx="205.023303" cy="17.6302323" rx="2.07600008" ry="1"></ellipse>
            <line x1="35.9640014" y1="55.7400022" x2="29.2020012" y2="57.2340023" id="Path" stroke="#B9BDC1" stroke-width="1.80000007" stroke-linecap="round" stroke-linejoin="round"></line>
            <line x1="33.3300013" y1="59.8680024" x2="31.8360013" y2="53.1060021" id="Path" stroke="#B9BDC1" stroke-width="1.80000007" stroke-linecap="round" stroke-linejoin="round"></line>
            <circle id="Oval" stroke="#B9BDC1" stroke-width="1.80000007" stroke-linecap="round" stroke-linejoin="round" cx="67.0620027" cy="35.2500014" r="2.4420001"></circle>
            <polyline id="Path" fill="#6D6F70" fill-rule="nonzero" points="35.6220014 208.698008 32.5320013 217.782009 36.4920015 219.126009 39.5820016 210.048008"></polyline>
            <rect id="Rectangle" fill="#B9BDC1" fill-rule="nonzero" transform="translate(122.285936, 49.129579) rotate(56.860000) translate(-122.285936, -49.129579) " x="115.247936" y="44.575579" width="14.0760006" height="9.10800036" rx="4.55400018"></rect>
            <path d="M123.174005,53.7540021 L120.240005,49.260002 C118.798007,47.0352938 119.370097,44.0688994 121.536005,42.5400017 C119.771622,42.3048346 118.031947,43.1191904 117.082418,44.6247619 C116.132889,46.1303333 116.147571,48.0511218 117.120005,49.542002 L119.838005,53.7000021 C120.992717,55.4560404 123.195863,56.198674 125.178005,55.5000022 C124.360568,55.1157892 123.666547,54.5111181 123.174005,53.7540021 Z" id="Path" fill="#8A8F93" fill-rule="nonzero"></path>
            <g id="Group" opacity="0.27" transform="translate(15.600001, 103.200004)" fill="#D6D7D8" fill-rule="nonzero">
                <path d="M88.5900035,1.83000007 L62.3580025,78.8700031 C61.9800025,78.0900031 61.5900024,77.3220031 61.1580024,76.560003 C59.7420024,73.8780029 57.9600023,71.1600028 55.1580022,69.9600028 C50.160002,67.8960027 44.7420018,71.7600029 41.2260016,75.888003 C37.6260015,80.1180032 34.5720014,84.8880034 30.6840012,88.8420035 L0.360000014,78.5340031 L18.5160007,25.230001 C18.5700007,26.250001 18.6420007,27.2580011 18.7620007,28.2660011 C19.0440008,30.6000012 19.8000008,33.1800013 21.9360009,34.2000014 C24.198001,35.2620014 26.8800011,33.9660013 28.7340011,32.2980013 C32.0820013,29.2980012 34.1340014,25.146001 36.9000015,21.5940009 C39.6660016,18.0420007 43.6800017,14.8680006 48.1620019,15.2520006 C52.7460021,20.9340008 48.7620019,31.1580012 54.5460022,35.6160014 C58.0020023,38.2800015 63.2940025,37.0020015 66.4860026,34.0260014 C69.6780028,31.0500012 71.3280028,26.8260011 73.0500029,22.8000009 C76.3373977,15.0801672 80.1981896,7.6173068 84.6000034,0.474000019 L88.5900035,1.83000007 Z" id="Path"></path>
            </g>
            <path d="M89.4480036,69.0300027 C88.7557262,70.9771111 86.6281196,72.0073837 84.671291,71.343079 C82.7144625,70.6787742 81.6538076,68.5661496 82.2900033,66.6000026" id="Path" fill="#6D6F70" fill-rule="nonzero"></path>
            <path d="M120.702005,54.8400022 C118.954023,55.9815748 116.611577,55.4899834 115.470005,53.7420021 C114.328432,51.9940208 114.820023,49.6515746 116.568005,48.5100019" id="Path" fill="#6D6F70" fill-rule="nonzero"></path>
            <rect id="Rectangle" fill="#B9BDC1" fill-rule="nonzero" transform="translate(87.178411, 63.547540) rotate(18.810000) translate(-87.178411, -63.547540) " x="80.1404104" y="58.9935401" width="14.0760006" height="9.10800036" rx="4.55400018"></rect>
            <path d="M90.6720036,66.5100026 L85.9680034,64.9080026 C83.5934531,64.0870564 82.3242301,61.5057673 83.1240033,59.1240023 L83.1240033,59.1240023 C83.2103707,58.881596 83.3167368,58.6467877 83.4420033,58.4220023 C81.5708123,59.0189859 80.2942632,60.7497431 80.2765324,62.7137774 C80.2588015,64.6778117 81.5038953,66.4313337 83.3640033,67.0620027 L88.0620035,68.6640027 C90.1623273,69.3685651 92.4655793,68.4659735 93.5280037,66.5220026 C92.5997501,66.826924 91.5976621,66.8227135 90.6720036,66.5100026 L90.6720036,66.5100026 Z" id="Path" fill="#8A8F93" fill-rule="nonzero"></path>
            <path d="M71.1840028,212.856008 C69.8394389,216.790687 65.5639849,218.894865 61.6260024,217.560009 L13.5780005,201.192008 C9.64096091,199.85013 7.53557535,195.572223 8.87400035,191.634008 L47.6340019,77.8200031 C48.9785192,73.8821709 53.2582146,71.7772266 57.1980023,73.1160029 L105.252004,89.4780036 C109.185082,90.8276917 111.285763,95.1041735 109.950004,99.0420039 L71.1840028,212.856008 Z" id="Path" fill="#D6D7D8" fill-rule="nonzero"></path>
            <path d="M18.1440007,195.600008 C16.5256851,195.04025 15.658932,193.282667 16.2000006,191.658008 L53.1780021,83.0580033 C53.9825536,80.6978444 56.5470691,79.4357269 58.9080023,80.2380032 L73.3860029,85.2000034 C73.3860029,85.2000034 82.6920033,88.8720035 84.8520034,82.5300033 L57.1980023,73.1160029 C55.3059521,72.4713877 53.2353146,72.6048581 51.44168,73.4870472 C49.6480454,74.3692364 48.2783652,75.9278671 47.6340019,77.8200031 L8.87400035,191.634008 C8.22929623,193.524464 8.36209259,195.593613 9.24316803,197.386146 C10.1242435,199.178679 11.6814037,200.547717 13.5720005,201.192008 L61.6260024,217.560009 C62.2200025,208.572008 49.800002,206.400008 49.800002,206.400008 L18.1440007,195.600008 Z" id="Path" fill="#B9BDC1" fill-rule="nonzero"></path>
            <circle id="Oval" fill="#D6D7D8" fill-rule="nonzero" cx="40.6800016" cy="200.340008" r="5.46600022"></circle>
            <rect id="Rectangle" fill="#F2F3F4" fill-rule="nonzero" transform="translate(60.079216, 143.389756) rotate(-71.190000) translate(-60.079216, -143.389756) " x="9.55321433" y="113.995755" width="101.052004" height="58.7880023"></rect>
            <path d="M37.1580015,196.830008 C37.0200015,197.118008 36.0000014,197.118008 35.8920014,197.430008 C34.6920014,200.910008 36.0120014,204.516008 38.8080015,205.470008 C39.9563519,205.839591 41.2030624,205.751461 42.2880017,205.224008 C38.8140015,203.916008 36.2580014,201.126008 37.1580015,196.830008 Z" id="Path" fill="#B9BDC1" fill-rule="nonzero"></path>
            <path d="M95.8740038,129.456005 L77.9580031,182.070007 C77.5800031,181.290007 77.1900031,180.522007 76.7580031,179.760007 C75.342003,177.078007 73.5600029,174.360007 70.7580028,173.160007 C65.7600026,171.096007 60.4380024,173.436007 56.9220023,177.540007 C53.3220021,181.770007 53.7360021,190.788008 46.2840018,192.042008 L15.9600006,181.734007 L34.1160014,128.430005 C34.1700014,129.450005 34.2420014,130.458005 34.3620014,131.466005 C34.6440014,133.800005 35.4000014,136.380005 37.5360015,137.400005 C39.7980016,138.462006 42.4800017,137.166005 44.3340018,135.498005 C47.6820019,132.498005 50.226002,128.676005 52.5000021,124.794005 C55.8660022,119.034005 58.9140023,116.892005 63.7620025,118.452005 C71.1300028,120.312005 64.3620026,134.358005 70.1460028,138.816006 C73.6020029,141.480006 78.8940031,140.202006 82.0860033,137.226005 C85.2780034,134.250005 86.9280035,130.026005 88.6500035,126.000005 C91.9380037,118.296005 96.3840038,115.536005 100.596004,115.602005 L95.8740038,129.456005 Z" id="Path" fill="#FFFFFF" fill-rule="nonzero"></path>
            <path d="M71.1840028,212.856008 C69.8394389,216.790687 65.5639849,218.894865 61.6260024,217.560009 L13.5780005,201.192008 C9.64096091,199.85013 7.53557535,195.572223 8.87400035,191.634008 L47.6340019,77.8200031 C48.9785192,73.8821709 53.2582146,71.7772266 57.1980023,73.1160029 L105.252004,89.4780036 C109.185082,90.8276917 111.285763,95.1041735 109.950004,99.0420039 L71.1840028,212.856008 Z" id="Path" stroke="#202020" stroke-width="1.80000007" stroke-linecap="round" stroke-linejoin="round"></path>
            <circle id="Oval" stroke="#202020" stroke-width="1.80000007" stroke-linecap="round" stroke-linejoin="round" cx="40.6800016" cy="200.340008" r="5.46600022"></circle>
            <rect id="Rectangle" stroke="#202020" stroke-width="1.80000007" stroke-linecap="round" stroke-linejoin="round" transform="translate(60.079216, 143.389756) rotate(-71.190000) translate(-60.079216, -143.389756) " x="9.55321433" y="113.995755" width="101.052004" height="58.7880023"></rect>
            <path d="M34.4340014,218.430009 C28.2480011,236.586009 57.1320023,267.780011 91.5780036,252.41401 C124.710005,237.624009 156.852006,160.614006 58.8720023,159.270006 C-39.1080016,157.926006 8.77200035,78.8700031 38.8980015,103.218004" id="Path" stroke="#202020" stroke-width="1.80000007" stroke-linecap="round" stroke-linejoin="round"></path>
            <path d="M89.1540035,59.4000024 C110.400004,51.348002 149.580006,91.7340036 100.650004,127.896005 C100.650004,127.896005 148.092006,102.978004 127.212005,55.2000022" id="Path" stroke="#202020" stroke-width="1.80000007" stroke-linecap="round" stroke-linejoin="round"></path>
            <rect id="Rectangle" stroke="#202020" stroke-width="1.80000007" stroke-linecap="round" stroke-linejoin="round" transform="translate(87.178411, 63.547540) rotate(18.810000) translate(-87.178411, -63.547540) " x="80.1404104" y="58.9935401" width="14.0760006" height="9.10800036" rx="4.55400018"></rect>
            <path d="M89.4480036,69.0300027 C88.7557262,70.9771111 86.6281196,72.0073837 84.671291,71.343079 C82.7144625,70.6787742 81.6538076,68.5661496 82.2900033,66.6000026" id="Path" stroke="#202020" stroke-width="1.80000007" stroke-linecap="round" stroke-linejoin="round"></path>
            <rect id="Rectangle" stroke="#202020" stroke-width="1.80000007" stroke-linecap="round" stroke-linejoin="round" transform="translate(122.285936, 49.129579) rotate(56.860000) translate(-122.285936, -49.129579) " x="115.247936" y="44.575579" width="14.0760006" height="9.10800036" rx="4.55400018"></rect>
            <path d="M120.702005,54.8400022 C118.954023,55.9815748 116.611577,55.4899834 115.470005,53.7420021 C114.328432,51.9940208 114.820023,49.6515746 116.568005,48.5100019" id="Path" stroke="#202020" stroke-width="1.80000007" stroke-linecap="round" stroke-linejoin="round"></path>
            <polyline id="Path" stroke="#202020" stroke-width="1.80000007" stroke-linecap="round" stroke-linejoin="round" points="35.6220014 208.698008 32.5320013 217.782009 36.4920015 219.126009 39.5820016 210.048008"></polyline>
            <line x1="73.2840029" y1="87.6120035" x2="83.6520033" y2="91.1460036" id="Path" stroke="#202020" stroke-width="1.80000007" stroke-linecap="round" stroke-linejoin="round"></line>
            <path d="M52.9500021,115.680005 C52.826399,115.692864 52.7014792,115.678529 52.5840021,115.638005 C52.1272203,115.48168 51.8830285,114.985246 52.0380021,114.528005 L54.0000021,108.810004 C54.1557465,108.354369 54.6513673,108.11126 55.1070022,108.267004 C55.5626371,108.422749 55.8057465,108.918369 55.6500022,109.374004 L53.7060021,115.092005 C53.5942718,115.421557 53.2969175,115.652833 52.9500021,115.680005 Z" id="Path" fill="#6D6F70" fill-rule="nonzero"></path>
            <path d="M57.0420023,120.252005 C56.9179647,120.262749 56.7930747,120.24637 56.6760023,120.204005 C56.4570527,120.130212 56.2764491,119.972356 56.1740218,119.765251 C56.0715944,119.558145 56.055757,119.318801 56.1300022,119.100005 L60.0120024,107.700004 C60.1709682,107.245555 60.6649961,107.002547 61.1220024,107.154004 C61.3423714,107.227726 61.5240899,107.386543 61.6266558,107.595056 C61.7292216,107.803569 61.74411,108.044448 61.6680025,108.264004 L57.7860023,119.664005 C57.672178,119.987103 57.3826581,120.215918 57.0420023,120.252005 L57.0420023,120.252005 Z" id="Path" fill="#6D6F70" fill-rule="nonzero"></path>
            <path d="M66.6000026,125.442005 C66.4764352,125.451765 66.3521471,125.437502 66.2340026,125.400005 C65.7772209,125.243681 65.533029,124.747247 65.6880026,124.290005 L70.7580028,109.392004 C70.8457227,109.079751 71.0987937,108.84152 71.4157726,108.772808 C71.7327516,108.704095 72.0617546,108.816147 72.2709014,109.064047 C72.4800483,109.311948 72.5351053,109.65512 72.4140029,109.956004 L67.3440027,124.854005 C67.2301784,125.177104 66.9406585,125.405918 66.6000026,125.442005 Z" id="Path" fill="#6D6F70" fill-rule="nonzero"></path>
            <path d="M62.6940025,120.228005 C62.5703994,120.240864 62.4454795,120.226529 62.3280025,120.186005 C61.8712207,120.02968 61.6270289,119.533247 61.7820025,119.076005 L64.4820026,111.156004 C64.6557351,110.724358 65.1366138,110.503849 65.5770667,110.653859 C66.0175195,110.803868 66.263845,111.272048 66.1380026,111.720004 L63.4380025,119.640005 C63.3280053,119.965819 63.0364158,120.196268 62.6940025,120.228005 L62.6940025,120.228005 Z" id="Path" fill="#6D6F70" fill-rule="nonzero"></path>
            <path d="M73.2000029,122.574005 C73.0763999,122.586864 72.95148,122.572529 72.8340029,122.532005 C72.3772212,122.375681 72.1330293,121.879247 72.2880029,121.422005 L74.2320029,115.704005 C74.3197229,115.391751 74.5727938,115.153521 74.8897728,115.084808 C75.2067517,115.016095 75.5357547,115.128147 75.7449016,115.376047 C75.9540484,115.623948 76.0091054,115.96712 75.888003,116.268005 L73.9440029,121.986005 C73.8340057,122.311819 73.5424162,122.542268 73.2000029,122.574005 L73.2000029,122.574005 Z" id="Path" fill="#6D6F70" fill-rule="nonzero"></path>
            <path d="M77.2800031,127.146005 C77.1584099,127.15575 77.0360873,127.141479 76.9200031,127.104005 C76.6996341,127.030283 76.5179155,126.871466 76.4153497,126.662953 C76.3127838,126.45444 76.2978955,126.213562 76.374003,125.994005 L80.2560032,114.594005 C80.3437231,114.281751 80.5967941,114.043521 80.913773,113.974808 C81.230752,113.906095 81.559755,114.018147 81.7689018,114.266047 C81.9780487,114.513948 82.0331056,114.85712 81.9120033,115.158005 L78.0240031,126.558005 C77.9114292,126.881995 77.6212372,127.11134 77.2800031,127.146005 L77.2800031,127.146005 Z" id="Path" fill="#6D6F70" fill-rule="nonzero"></path>
            <path d="M83.3100033,126.000005 C83.1883754,126.012564 83.0654735,125.998226 82.9500033,125.958005 C82.7296344,125.884283 82.5479158,125.725466 82.4453499,125.516953 C82.3427841,125.30844 82.3278957,125.067561 82.4040033,124.848005 L84.3480034,119.136005 C84.4357233,118.823751 84.6887942,118.585521 85.0057732,118.516808 C85.3227521,118.448095 85.6517551,118.560147 85.860902,118.808048 C86.0700488,119.055948 86.1251058,119.399121 86.0040034,119.700005 L84.0540033,125.412005 C83.945334,125.738752 83.6530179,125.969776 83.3100033,126.000005 L83.3100033,126.000005 Z" id="Path" fill="#6D6F70" fill-rule="nonzero"></path>
            <path d="M114.984005,196.200008 C110.526421,195.049914 107.841858,190.507634 108.984004,186.048007 L123.024005,131.670005 C124.171237,127.210271 128.715875,124.524315 133.176005,125.670005 L261.96601,158.928006 C266.423594,160.0781 269.108157,164.62038 267.966011,169.080007 L253.92601,223.458009 C252.776001,227.918557 248.2296,230.603968 243.76801,229.458009 L114.984005,196.200008 Z" id="Path" fill="#D6D7D8" fill-rule="nonzero"></path>
            <path d="M117.000005,185.220007 C116.532978,187.064764 117.642419,188.94063 119.484005,189.420008 L242.35201,221.112009 C243.636198,221.441616 244.998729,221.247477 246.139753,220.572315 C247.280777,219.897153 248.106789,218.796296 248.43601,217.512009 L252.66601,201.114008 C252.66601,201.114008 254.91601,190.284008 262.09201,192.114008 L254.01601,223.410009 C253.467925,225.553428 252.089491,227.390674 250.184881,228.51633 C248.28027,229.641987 246.006032,229.963531 243.86401,229.410009 L115.044005,196.200008 C112.901911,195.651851 111.065738,194.274335 109.940233,192.371106 C108.814729,190.467878 108.492294,188.195188 109.044004,186.054007 L123.072005,131.670005 C131.742005,136.578005 126.204005,149.376006 126.204005,149.376006 L117.000005,185.220007 Z" id="Path" fill="#B9BDC1" fill-rule="nonzero"></path>
            <rect id="Rectangle" fill="#414547" fill-rule="nonzero" transform="translate(190.700414, 178.127783) rotate(-75.520000) translate(-190.700414, -178.127783) " x="158.183413" y="122.231781" width="65.0340026" height="111.792004"></rect>
            <circle id="Oval" fill="#D6D7D8" fill-rule="nonzero" cx="126.246005" cy="161.472006" r="6.04800024"></circle>
            <path d="M114.984005,196.200008 C110.526421,195.049914 107.841858,190.507634 108.984004,186.048007 L123.024005,131.670005 C124.171237,127.210271 128.715875,124.524315 133.176005,125.670005 L261.96601,158.928006 C266.423594,160.0781 269.108157,164.62038 267.966011,169.080007 L253.92601,223.458009 C252.776001,227.918557 248.2296,230.603968 243.76801,229.458009 L114.984005,196.200008 Z" id="Path" stroke="#202020" stroke-width="1.80000007" stroke-linecap="round" stroke-linejoin="round"></path>
            <circle id="Oval" stroke="#202020" stroke-width="1.80000007" stroke-linecap="round" stroke-linejoin="round" cx="126.246005" cy="161.472006" r="6.04800024"></circle>
            <line x1="253.32001" y1="188.028007" x2="250.29001" y2="199.758008" id="Path" stroke="#202020" stroke-width="1.80000007" stroke-linecap="round" stroke-linejoin="round"></line>
            <path d="M236.694009,223.572009 L156.294006,202.812008 C154.632908,189.185139 146.816157,177.07194 135.084005,169.944007 L144.714006,132.654005 L198.000008,146.400006 C193.800008,176.598007 211.800008,200.400008 239.34601,213.390008 L236.694009,223.572009 Z" id="Path" fill="#2F3335" fill-rule="nonzero"></path>
            <rect id="Rectangle" stroke="#202020" stroke-width="1.80000007" stroke-linecap="round" stroke-linejoin="round" transform="translate(190.700414, 178.127783) rotate(-75.520000) translate(-190.700414, -178.127783) " x="158.183413" y="122.231781" width="65.0340026" height="111.792004"></rect>
            <path d="M191.610008,171.852007 C187.637217,170.861992 183.613772,173.27881 182.62176,177.251102 C181.629748,181.223395 184.044543,185.248054 188.016336,186.242063 C191.98813,187.236072 196.014002,184.8233 197.010008,180.852007 C197.490617,178.942281 197.19128,176.919792 196.178096,175.231154 C195.164913,173.542515 193.521229,172.326635 191.610008,171.852007 Z M192.414008,180.108007 L187.668007,181.482007 C187.59754,181.503017 187.522475,181.503017 187.452007,181.482007 C187.379316,181.464293 187.312894,181.426931 187.260007,181.374007 C187.151155,181.271011 187.105426,181.11782 187.140007,180.972007 L188.340007,176.172007 C188.377707,176.025586 188.489211,175.90953 188.634007,175.866007 C188.780359,175.826009 188.936987,175.864599 189.048008,175.968007 L192.600008,179.400007 C192.707804,179.503595 192.751379,179.657253 192.714008,179.802007 C192.678682,179.951853 192.563125,180.069722 192.414008,180.108007 L192.414008,180.108007 Z" id="Shape" fill="#B9BDC1" fill-rule="nonzero"></path>
            <line x1="291.636012" y1="149.358006" x2="285.384011" y2="146.388006" id="Path" stroke="#B9BDC1" stroke-width="1.80000007" stroke-linecap="round" stroke-linejoin="round"></line>
            <line x1="287.028011" y1="151.002006" x2="289.992012" y2="144.744006" id="Path" stroke="#B9BDC1" stroke-width="1.80000007" stroke-linecap="round" stroke-linejoin="round"></line>
            <circle id="Oval" stroke="#B9BDC1" stroke-width="1.80000007" stroke-linecap="round" stroke-linejoin="round" cx="3.11400012" cy="217.188009" r="2.4420001"></circle>
            <circle id="Oval" stroke="#B9BDC1" stroke-width="1.80000007" stroke-linecap="round" stroke-linejoin="round" cx="279.252011" cy="131.634005" r="2.4420001"></circle>
        </g>
    </g>
</svg>