<svg width="262" height="376" xmlns="http://www.w3.org/2000/svg">
  <g transform="translate(1 1)" fill="none" fill-rule="evenodd">
    <path d="M132.33 137.2c.110262 3.328475-1.602528 6.452405-4.468098 8.149289-2.865569 1.696884-6.428235 1.696884-9.293804 0-2.86557-1.696884-4.57836-4.820814-4.468098-8.149289 0-5 9.12-15.22 9.12-15.22s9.11 10.18 9.11 15.22z" fill="#EBEBEB" fill-rule="nonzero"/>
    <circle stroke="#202020" stroke-width="3" stroke-linecap="round" stroke-linejoin="round" cx="215.26" cy="41.41" r="40.91"/>
    <path d="M252.7 63.19l-7.23-5.34L204.3 27c-.815265-.7507095-1.905448-1.1295335-3.010557-1.0461291-1.105109.0834045-2.126085.6215613-2.819443 1.4861291l-32.6 37.9c-.75186.813947-1.132398 1.9033069-1.050893 3.0083678.081505 1.1050608.617751 2.1268019 1.480893 2.8216322l36.7 36.1 6.37 6.35 4.47 4.3c.828324.744955 1.887436 1.182722 3 1.24 1.192919.032541 2.329749-.506153 3.06-1.45L258.32 73c.836464-.8595536 1.208569-2.0688978 1-3.25-.21152-1.1025379-.806711-2.0945237-1.68-2.8l-4.94-3.76z" fill="#EBEBEB" fill-rule="nonzero"/>
    <path d="M257.62 67l-4.92-3.79-7.23-5.34L204.3 27c-.815265-.7507095-1.905448-1.1295335-3.010557-1.0461291-1.105109.0834045-2.126085.6215613-2.819443 1.4861291l-11 12.76 45.43 44.71 8.18 8.15L258.32 73c.836464-.8595536 1.208569-2.0688978 1-3.25-.227678-1.0872473-.82921-2.060313-1.7-2.75z" fill="#FFF" fill-rule="nonzero" opacity=".7"/>
    <path d="M123.22 122c14.49-16.85 67.68 18.85 89.64-4.84M252.7 63.19l-7.23-5.34h0L204.3 27c-.815265-.7507095-1.905448-1.1295335-3.010557-1.0461291-1.105109.0834045-2.126085.6215613-2.819443 1.4861291l-32.6 37.9c-.75186.813947-1.132398 1.9033069-1.050893 3.0083678.081505 1.1050608.617751 2.1268019 1.480893 2.8216322l36.7 36.1h0l6.37 6.35 4.47 4.3c.828324.744955 1.887436 1.182722 3 1.24 1.192919.032541 2.329749-.506153 3.06-1.45L258.32 73c.836464-.8595536 1.208569-2.0688978 1-3.25-.21152-1.1025379-.806711-2.0945237-1.68-2.8l-4.94-3.76zM175.84 79.24l10.17-11.83" stroke="#202020" stroke-width="3" stroke-linecap="round" stroke-linejoin="round"/>
    <path d="M253.35 77.18c-16.3-6-20.44 10-31.17 10.63-17.39 1.08-19.58-20.06-43.91-4.65L203 107.27l6.37 6.35 4.47 4.3c.828324.744955 1.887436 1.182722 3 1.24 1.192919.032541 2.329749-.506153 3.06-1.45 0 0 34.23-39.86 33.45-40.53z" fill="#2F3335" fill-rule="nonzero" opacity=".22"/>
    <path d="M126.34 143c-5.311001-.002365-10.015513-3.426765-11.65-8.48-.352208.844867-.551961 1.745449-.59 2.66-.030812 4.054285 2.621423 7.641026 6.506807 8.799459 3.885384 1.158433 8.068757-.390262 10.263193-3.799459-1.444147.558807-2.981604.83711-4.53.82z" fill="#2F3335" fill-rule="nonzero" opacity=".27"/>
    <path d="M132.33 137.2c.110262 3.328475-1.602528 6.452405-4.468098 8.149289-2.865569 1.696884-6.428235 1.696884-9.293804 0-2.86557-1.696884-4.57836-4.820814-4.468098-8.149289 0-5 9.12-15.22 9.12-15.22s9.11 10.18 9.11 15.22z" stroke="#202020" stroke-width="3" stroke-linecap="round" stroke-linejoin="round"/>
    <path d="M78.67 140.88c20 11.53 15 33.21 8.14 43.79 0 0-13.07-9.6-13.73-25.53-.61-14.65 5.59-18.26 5.59-18.26z" fill="#6D6F70" fill-rule="nonzero"/>
    <path d="M73.46 156.71c12.27 7.2 13.1 13.27 13.61 28.13 0 0-8.38-6-11.45-15.82-2.83-9.02-2.16-12.31-2.16-12.31zM.34 222c31.59-21.5 60.33 1.57 71.2 19.4 0 0-23.73 12.58-48 2.1C1.26 233.8.34 222 .34 222z" fill="#2F3335" fill-rule="nonzero"/>
    <path d="M29.82 244.79c-4.82-8.87-12.7-10.79-19.37-9.86 3.27 4.31 16.14 10.13 19.37 9.86z" fill="#6D6F70" fill-rule="nonzero"/>
    <path d="M78.67 140.88c5.46 11.3 9.48 31.29 8.14 43.79 6.84-10.58 11.83-32.26-8.14-43.79z" fill="#B9BDC1" fill-rule="nonzero"/>
    <path d="M173.11 222c-23.45-21.5-51.06-.7-59.13 17.12 0 0 17.62 12.59 35.62 2.1 16.56-9.69 23.51-19.22 23.51-19.22z" fill="#2F3335" fill-rule="nonzero"/>
    <path d="M.34 222c20.79 0 53.52 8.39 71.2 19.4C60.67 223.52 31.93 200.45.34 222zM164.65 229.3c-8 .17-12.25 5-14 10 4.22-.72 13.01-7.63 14-10zM114 239.07c13.13-11 43.7-17.12 59.13-17.12-23.47-21.5-51.08-.7-59.13 17.12z" fill="#6D6F70" fill-rule="nonzero"/>
    <path d="M12.63 216.6c8.92 4.75 16.57 2.09 21.62-2.37-5.1-1.82-19.06.37-21.62 2.37zM161.19 217a24.35000679 24.35000679 0 002.29-1.5c-12.41-5.62-25.06-1.69-34.76 5.66 11.17 1.55 25.28-.02 32.47-4.16z" fill="#B9BDC1" fill-rule="nonzero"/>
    <path d="M18.76 186.15c18.45-16.91 40.18-.55 46.53 13.48 0 0-13.87 9.9-28 1.65-13.06-7.59-18.53-15.13-18.53-15.13z" fill="#2F3335" fill-rule="nonzero"/>
    <path fill="#E3E4E5" fill-rule="nonzero" d="M126 373.38H48.14l-3.66-83.88h85.18z"/>
    <path d="M154.69 186.15c-24.85-16.91-47.46 1.24-56 15.27 0 0 18.67 9.9 37.75 1.65 17.56-7.59 18.25-16.92 18.25-16.92z" fill="#2F3335" fill-rule="nonzero"/>
    <path d="M18.76 186.15c12.14 0 36.2 4.81 46.53 13.48-6.35-14.03-28.08-30.39-46.53-13.48zM119.05 205.82c-5.75-5.57-12.14-5.22-17-2.92 3.52 2.49 14.62 3.88 17 2.92z" fill="#6D6F70" fill-rule="nonzero"/>
    <path d="M35 178.05c6 10.6 15.53 12.81 23.55 11.51-4.03-5.13-19.67-11.9-23.55-11.51z" fill="#B9BDC1" fill-rule="nonzero"/>
    <path d="M98.68 201.42c13.91-8.67 39.66-15.27 56-15.27-24.84-16.91-47.45 1.24-56 15.27z" fill="#6D6F70" fill-rule="nonzero"/>
    <path d="M147.11 182.29c-11.28-7.15-21.61-4.41-28.71 1 6.53 2.86 25.14 1.38 28.71-1z" fill="#B9BDC1" fill-rule="nonzero"/>
    <path fill="#2F3335" fill-rule="nonzero" opacity=".15" d="M127.36 319.71l-81.3 6.14-1.58-36.35h85.18z"/>
    <path stroke="#202020" stroke-width="2.69" stroke-linecap="round" stroke-linejoin="round" d="M126 373.38H48.14l-3.66-83.88h85.18z"/>
    <path fill="#E3E4E5" fill-rule="nonzero" d="M136.82 311.37h-99.5L35.8 279.2h102.54z"/>
    <path stroke="#202020" stroke-width="2.69" stroke-linecap="round" stroke-linejoin="round" d="M136.82 311.37h-99.5L35.8 279.2h102.54zM.34 222c31.59-21.5 60.33 1.57 71.2 19.4 0 0-23.73 12.58-48 2.1C1.26 233.8.34 222 .34 222z"/>
    <path d="M86.7 267.54c-4.29-22-15.16-26.19-15.16-26.19-17.68-11-50.41-19.4-71.2-19.4M9.23 234.98l19.34-9.53" stroke="#202020" stroke-width="2.69" stroke-linecap="round" stroke-linejoin="round"/>
    <path stroke="#202020" stroke-width="2.69" stroke-linecap="round" stroke-linejoin="round" d="M46.47 218.18l5 13.82-21.16 12.97M173.11 222c-23.45-21.5-51.06-.7-59.13 17.12 0 0 17.62 12.59 35.62 2.1 16.56-9.69 23.51-19.22 23.51-19.22z"/>
    <path d="M173.11 222c-15.43 0-46 6.11-59.13 17.12 0 0-25.56 16.81-27.28 28.47M160.24 214.22l-10.42 10.53" stroke="#202020" stroke-width="2.69" stroke-linecap="round" stroke-linejoin="round"/>
    <path stroke="#202020" stroke-width="2.69" stroke-linecap="round" stroke-linejoin="round" d="M132.59 219.05l-3.71 10.68 17.19 12.86M86.56 183.71v95.49M154.69 186.15c-24.85-16.91-47.46 1.24-56 15.27 0 0 18.67 9.9 37.75 1.65 17.56-7.59 18.25-16.92 18.25-16.92z"/>
    <path d="M86.75 222c3.38-17.31 11.93-20.61 11.93-20.61 13.91-8.67 39.66-15.27 56-15.27M147.7 196.41l-15.21-7.5" stroke="#202020" stroke-width="2.69" stroke-linecap="round" stroke-linejoin="round"/>
    <path stroke="#202020" stroke-width="2.69" stroke-linecap="round" stroke-linejoin="round" d="M118.4 183.18l-3.93 10.88 16.64 10.21M18.76 186.15c18.45-16.91 40.18-.55 46.53 13.48 0 0-13.87 9.9-28 1.65-13.06-7.59-18.53-15.13-18.53-15.13z"/>
    <path d="M18.76 186.15c12.14 0 36.2 4.81 46.53 13.48 0 0 20.11 13.22 21.46 22.4M28.89 180.07l8.19 8.29" stroke="#202020" stroke-width="2.69" stroke-linecap="round" stroke-linejoin="round"/>
    <path stroke="#202020" stroke-width="2.69" stroke-linecap="round" stroke-linejoin="round" d="M50.64 183.88l2.92 8.39-12.82 10.83M78.67 140.88c20 11.53 15 33.21 8.14 43.79 0 0-13.07-9.6-13.73-25.53-.61-14.65 5.59-18.26 5.59-18.26zM86.81 184.67c1.34-12.5-2.68-32.49-8.14-43.79M73.92 149.13l10.26 8.02"/>
    <path stroke="#202020" stroke-width="2.69" stroke-linecap="round" stroke-linejoin="round" d="M92.83 164.96l-6.21 6.35-12.6-8.1"/>
    <path d="M35.8 279.2l1.52 32.17h8.11l2.71 62h49.08c-2.22-13.21-30.6-4.27-34.77-9.62-4.17-5.35 2-53.46-8-59.44-6.3-3.77-10-14.82-5.14-25.12l-13.51.01z" fill="#2F3335" fill-rule="nonzero" opacity=".22"/>
    <circle fill="#FFF" fill-rule="nonzero" cx="114.87" cy="349.22" r="3.05"/>
    <circle fill="#FFF" fill-rule="nonzero" cx="72.92" cy="331.44" r="3.05"/>
    <circle fill="#FFF" fill-rule="nonzero" cx="82.6" cy="352.27" r="3.05"/>
    <circle fill="#FFF" fill-rule="nonzero" cx="104.8" cy="330.26" r="1.33"/>
    <circle fill="#FFF" fill-rule="nonzero" cx="89.63" cy="336.61" r="1.33"/>
    <circle fill="#FFF" fill-rule="nonzero" cx="99.1" cy="339.78" r="1.33"/>
    <circle fill="#FFF" fill-rule="nonzero" cx="67.83" cy="351.42" r="1.33"/>
    <circle fill="#FFF" fill-rule="nonzero" cx="107.52" cy="364.91" r="1.33"/>
    <circle fill="#FFF" fill-rule="nonzero" cx="119.37" cy="330.26" r="2.28"/>
    <circle fill="#FFF" fill-rule="nonzero" cx="103.47" cy="302.45" r="2.17"/>
    <circle fill="#FFF" fill-rule="nonzero" cx="61.44" cy="288.6" r="3.05"/>
    <circle fill="#FFF" fill-rule="nonzero" cx="65.64" cy="302.46" r="2.19"/>
    <circle fill="#FFF" fill-rule="nonzero" cx="93.32" cy="287.42" r="1.33"/>
    <circle fill="#FFF" fill-rule="nonzero" cx="78.16" cy="293.77" r="1.33"/>
    <circle fill="#FFF" fill-rule="nonzero" cx="87.63" cy="296.94" r="1.33"/>
    <circle fill="#FFF" fill-rule="nonzero" cx="124.57" cy="298.27" r="1.33"/>
    <circle fill="#FFF" fill-rule="nonzero" cx="96.04" cy="322.06" r="1.33"/>
    <circle fill="#FFF" fill-rule="nonzero" cx="111.82" cy="289.7" r="2.28"/>
    <path d="M132.33 137.2c.110262 3.328475-1.602528 6.452405-4.468098 8.149289-2.865569 1.696884-6.428235 1.696884-9.293804 0-2.86557-1.696884-4.57836-4.820814-4.468098-8.149289 0-5 9.12-15.22 9.12-15.22s9.11 10.18 9.11 15.22z" fill="#EBEBEB" fill-rule="nonzero"/>
    <circle stroke="#202020" stroke-width="3" stroke-linecap="round" stroke-linejoin="round" cx="215.26" cy="41.41" r="40.91"/>
    <path d="M252.7 63.19l-7.23-5.34L204.3 27c-.815265-.7507095-1.905448-1.1295335-3.010557-1.0461291-1.105109.0834045-2.126085.6215613-2.819443 1.4861291l-32.6 37.9c-.75186.813947-1.132398 1.9033069-1.050893 3.0083678.081505 1.1050608.617751 2.1268019 1.480893 2.8216322l36.7 36.1 6.37 6.35 4.47 4.3c.828324.744955 1.887436 1.182722 3 1.24 1.192919.032541 2.329749-.506153 3.06-1.45L258.32 73c.836464-.8595536 1.208569-2.0688978 1-3.25-.21152-1.1025379-.806711-2.0945237-1.68-2.8l-4.94-3.76z" fill="#EBEBEB" fill-rule="nonzero"/>
    <path d="M257.62 67l-4.92-3.79-7.23-5.34L204.3 27c-.815265-.7507095-1.905448-1.1295335-3.010557-1.0461291-1.105109.0834045-2.126085.6215613-2.819443 1.4861291l-11 12.76 45.43 44.71 8.18 8.15L258.32 73c.836464-.8595536 1.208569-2.0688978 1-3.25-.227678-1.0872473-.82921-2.060313-1.7-2.75z" fill="#FFF" fill-rule="nonzero" opacity=".7"/>
    <path d="M123.22 122c14.49-16.85 67.68 18.85 89.64-4.84M252.7 63.19l-7.23-5.34h0L204.3 27c-.815265-.7507095-1.905448-1.1295335-3.010557-1.0461291-1.105109.0834045-2.126085.6215613-2.819443 1.4861291l-32.6 37.9c-.75186.813947-1.132398 1.9033069-1.050893 3.0083678.081505 1.1050608.617751 2.1268019 1.480893 2.8216322l36.7 36.1h0l6.37 6.35 4.47 4.3c.828324.744955 1.887436 1.182722 3 1.24 1.192919.032541 2.329749-.506153 3.06-1.45L258.32 73c.836464-.8595536 1.208569-2.0688978 1-3.25-.21152-1.1025379-.806711-2.0945237-1.68-2.8l-4.94-3.76zM175.84 79.24l10.17-11.83" stroke="#202020" stroke-width="3" stroke-linecap="round" stroke-linejoin="round"/>
    <path d="M253.35 77.18c-16.3-6-20.44 10-31.17 10.63-17.39 1.08-19.58-20.06-43.91-4.65L203 107.27l6.37 6.35 4.47 4.3c.828324.744955 1.887436 1.182722 3 1.24 1.192919.032541 2.329749-.506153 3.06-1.45 0 0 34.23-39.86 33.45-40.53z" fill="#2F3335" fill-rule="nonzero" opacity=".22"/>
    <path d="M126.34 143c-5.311001-.002365-10.015513-3.426765-11.65-8.48-.352208.844867-.551961 1.745449-.59 2.66-.030812 4.054285 2.621423 7.641026 6.506807 8.799459 3.885384 1.158433 8.068757-.390262 10.263193-3.799459-1.444147.558807-2.981604.83711-4.53.82z" fill="#2F3335" fill-rule="nonzero" opacity=".27"/>
    <path d="M132.33 137.2c.110262 3.328475-1.602528 6.452405-4.468098 8.149289-2.865569 1.696884-6.428235 1.696884-9.293804 0-2.86557-1.696884-4.57836-4.820814-4.468098-8.149289 0-5 9.12-15.22 9.12-15.22s9.11 10.18 9.11 15.22z" stroke="#202020" stroke-width="3" stroke-linecap="round" stroke-linejoin="round"/>
    <path d="M78.67 140.88c20 11.53 15 33.21 8.14 43.79 0 0-13.07-9.6-13.73-25.53-.61-14.65 5.59-18.26 5.59-18.26z" fill="#6D6F70" fill-rule="nonzero"/>
    <path d="M73.46 156.71c12.27 7.2 13.1 13.27 13.61 28.13 0 0-8.38-6-11.45-15.82-2.83-9.02-2.16-12.31-2.16-12.31zM.34 222c31.59-21.5 60.33 1.57 71.2 19.4 0 0-23.73 12.58-48 2.1C1.26 233.8.34 222 .34 222z" fill="#2F3335" fill-rule="nonzero"/>
    <path d="M29.82 244.79c-4.82-8.87-12.7-10.79-19.37-9.86 3.27 4.31 16.14 10.13 19.37 9.86z" fill="#6D6F70" fill-rule="nonzero"/>
    <path d="M78.67 140.88c5.46 11.3 9.48 31.29 8.14 43.79 6.84-10.58 11.83-32.26-8.14-43.79z" fill="#B9BDC1" fill-rule="nonzero"/>
    <path d="M173.11 222c-23.45-21.5-51.06-.7-59.13 17.12 0 0 17.62 12.59 35.62 2.1 16.56-9.69 23.51-19.22 23.51-19.22z" fill="#2F3335" fill-rule="nonzero"/>
    <path d="M.34 222c20.79 0 53.52 8.39 71.2 19.4C60.67 223.52 31.93 200.45.34 222zM164.65 229.3c-8 .17-12.25 5-14 10 4.22-.72 13.01-7.63 14-10zM114 239.07c13.13-11 43.7-17.12 59.13-17.12-23.47-21.5-51.08-.7-59.13 17.12z" fill="#6D6F70" fill-rule="nonzero"/>
    <path d="M12.63 216.6c8.92 4.75 16.57 2.09 21.62-2.37-5.1-1.82-19.06.37-21.62 2.37zM161.19 217a24.35000679 24.35000679 0 002.29-1.5c-12.41-5.62-25.06-1.69-34.76 5.66 11.17 1.55 25.28-.02 32.47-4.16z" fill="#B9BDC1" fill-rule="nonzero"/>
    <path d="M18.76 186.15c18.45-16.91 40.18-.55 46.53 13.48 0 0-13.87 9.9-28 1.65-13.06-7.59-18.53-15.13-18.53-15.13z" fill="#2F3335" fill-rule="nonzero"/>
    <path fill="#E3E4E5" fill-rule="nonzero" d="M126 373.38H48.14l-3.66-83.88h85.18z"/>
    <path d="M154.69 186.15c-24.85-16.91-47.46 1.24-56 15.27 0 0 18.67 9.9 37.75 1.65 17.56-7.59 18.25-16.92 18.25-16.92z" fill="#2F3335" fill-rule="nonzero"/>
    <path d="M18.76 186.15c12.14 0 36.2 4.81 46.53 13.48-6.35-14.03-28.08-30.39-46.53-13.48zM119.05 205.82c-5.75-5.57-12.14-5.22-17-2.92 3.52 2.49 14.62 3.88 17 2.92z" fill="#6D6F70" fill-rule="nonzero"/>
    <path d="M35 178.05c6 10.6 15.53 12.81 23.55 11.51-4.03-5.13-19.67-11.9-23.55-11.51z" fill="#B9BDC1" fill-rule="nonzero"/>
    <path d="M98.68 201.42c13.91-8.67 39.66-15.27 56-15.27-24.84-16.91-47.45 1.24-56 15.27z" fill="#6D6F70" fill-rule="nonzero"/>
    <path d="M147.11 182.29c-11.28-7.15-21.61-4.41-28.71 1 6.53 2.86 25.14 1.38 28.71-1z" fill="#B9BDC1" fill-rule="nonzero"/>
    <path fill="#2F3335" fill-rule="nonzero" opacity=".15" d="M127.36 319.71l-81.3 6.14-1.58-36.35h85.18z"/>
    <path stroke="#202020" stroke-width="2.69" stroke-linecap="round" stroke-linejoin="round" d="M126 373.38H48.14l-3.66-83.88h85.18z"/>
    <path fill="#E3E4E5" fill-rule="nonzero" d="M136.82 311.37h-99.5L35.8 279.2h102.54z"/>
    <path stroke="#202020" stroke-width="2.69" stroke-linecap="round" stroke-linejoin="round" d="M136.82 311.37h-99.5L35.8 279.2h102.54zM.34 222c31.59-21.5 60.33 1.57 71.2 19.4 0 0-23.73 12.58-48 2.1C1.26 233.8.34 222 .34 222z"/>
    <path d="M86.7 267.54c-4.29-22-15.16-26.19-15.16-26.19-17.68-11-50.41-19.4-71.2-19.4M9.23 234.98l19.34-9.53" stroke="#202020" stroke-width="2.69" stroke-linecap="round" stroke-linejoin="round"/>
    <path stroke="#202020" stroke-width="2.69" stroke-linecap="round" stroke-linejoin="round" d="M46.47 218.18l5 13.82-21.16 12.97M173.11 222c-23.45-21.5-51.06-.7-59.13 17.12 0 0 17.62 12.59 35.62 2.1 16.56-9.69 23.51-19.22 23.51-19.22z"/>
    <path d="M173.11 222c-15.43 0-46 6.11-59.13 17.12 0 0-25.56 16.81-27.28 28.47M160.24 214.22l-10.42 10.53" stroke="#202020" stroke-width="2.69" stroke-linecap="round" stroke-linejoin="round"/>
    <path stroke="#202020" stroke-width="2.69" stroke-linecap="round" stroke-linejoin="round" d="M132.59 219.05l-3.71 10.68 17.19 12.86M86.56 183.71v95.49M154.69 186.15c-24.85-16.91-47.46 1.24-56 15.27 0 0 18.67 9.9 37.75 1.65 17.56-7.59 18.25-16.92 18.25-16.92z"/>
    <path d="M86.75 222c3.38-17.31 11.93-20.61 11.93-20.61 13.91-8.67 39.66-15.27 56-15.27M147.7 196.41l-15.21-7.5" stroke="#202020" stroke-width="2.69" stroke-linecap="round" stroke-linejoin="round"/>
    <path stroke="#202020" stroke-width="2.69" stroke-linecap="round" stroke-linejoin="round" d="M118.4 183.18l-3.93 10.88 16.64 10.21M18.76 186.15c18.45-16.91 40.18-.55 46.53 13.48 0 0-13.87 9.9-28 1.65-13.06-7.59-18.53-15.13-18.53-15.13z"/>
    <path d="M18.76 186.15c12.14 0 36.2 4.81 46.53 13.48 0 0 20.11 13.22 21.46 22.4M28.89 180.07l8.19 8.29" stroke="#202020" stroke-width="2.69" stroke-linecap="round" stroke-linejoin="round"/>
    <path stroke="#202020" stroke-width="2.69" stroke-linecap="round" stroke-linejoin="round" d="M50.64 183.88l2.92 8.39-12.82 10.83M78.67 140.88c20 11.53 15 33.21 8.14 43.79 0 0-13.07-9.6-13.73-25.53-.61-14.65 5.59-18.26 5.59-18.26zM86.81 184.67c1.34-12.5-2.68-32.49-8.14-43.79M73.92 149.13l10.26 8.02"/>
    <path stroke="#202020" stroke-width="2.69" stroke-linecap="round" stroke-linejoin="round" d="M92.83 164.96l-6.21 6.35-12.6-8.1"/>
    <path d="M35.8 279.2l1.52 32.17h8.11l2.71 62h49.08c-2.22-13.21-30.6-4.27-34.77-9.62-4.17-5.35 2-53.46-8-59.44-6.3-3.77-10-14.82-5.14-25.12l-13.51.01z" fill="#2F3335" fill-rule="nonzero" opacity=".22"/>
    <circle fill="#FFF" fill-rule="nonzero" cx="114.87" cy="349.22" r="3.05"/>
    <circle fill="#FFF" fill-rule="nonzero" cx="72.92" cy="331.44" r="3.05"/>
    <circle fill="#FFF" fill-rule="nonzero" cx="82.6" cy="352.27" r="3.05"/>
    <circle fill="#FFF" fill-rule="nonzero" cx="104.8" cy="330.26" r="1.33"/>
    <circle fill="#FFF" fill-rule="nonzero" cx="89.63" cy="336.61" r="1.33"/>
    <circle fill="#FFF" fill-rule="nonzero" cx="99.1" cy="339.78" r="1.33"/>
    <circle fill="#FFF" fill-rule="nonzero" cx="67.83" cy="351.42" r="1.33"/>
    <circle fill="#FFF" fill-rule="nonzero" cx="107.52" cy="364.91" r="1.33"/>
    <circle fill="#FFF" fill-rule="nonzero" cx="119.37" cy="330.26" r="2.28"/>
    <circle fill="#FFF" fill-rule="nonzero" cx="103.47" cy="302.45" r="2.17"/>
    <circle fill="#FFF" fill-rule="nonzero" cx="61.44" cy="288.6" r="3.05"/>
    <circle fill="#FFF" fill-rule="nonzero" cx="65.64" cy="302.46" r="2.19"/>
    <circle fill="#FFF" fill-rule="nonzero" cx="93.32" cy="287.42" r="1.33"/>
    <circle fill="#FFF" fill-rule="nonzero" cx="78.16" cy="293.77" r="1.33"/>
    <circle fill="#FFF" fill-rule="nonzero" cx="87.63" cy="296.94" r="1.33"/>
    <circle fill="#FFF" fill-rule="nonzero" cx="124.57" cy="298.27" r="1.33"/>
    <circle fill="#FFF" fill-rule="nonzero" cx="96.04" cy="322.06" r="1.33"/>
    <circle fill="#FFF" fill-rule="nonzero" cx="111.82" cy="289.7" r="2.28"/>
  </g>
</svg>