<?xml version="1.0" encoding="UTF-8"?>
<svg width="235px" height="265px" viewBox="0 0 235 265" version="1.1" xmlns="http://www.w3.org/2000/svg" xmlns:xlink="http://www.w3.org/1999/xlink">
    <!-- Generator: Sketch 63.1 (92452) - https://sketch.com -->
    <title>1 - Strategy</title>
    <desc>Created with Sketch.</desc>
    <g id="Page-1" stroke="none" stroke-width="1" fill="none" fill-rule="evenodd">
        <g id="1---Strategy" transform="translate(1.000000, 1.000000)">
            <line x1="113.840995" y1="103.427095" x2="128.595594" y2="101.058296" id="Path" stroke="#202020" stroke-width="1.88999992" stroke-linecap="round" stroke-linejoin="round"></line>
            <path d="M207.377091,41.7563982 C207.377091,53.4365977 144.137694,53.4617977 144.131392,41.7563982 C144.125094,30.0509987 158.281193,20.6387991 175.769992,20.6261865 C193.258792,20.6135991 207.370791,30.0824987 207.377091,41.7563982 Z" id="Path" fill="#D6D7D8" fill-rule="nonzero"></path>
            <ellipse id="Oval" fill="#D6D7D8" fill-rule="nonzero" cx="175.744792" cy="20.7080991" rx="6.30629973" ry="6.34409972"></ellipse>
            <g id="Group" opacity="0.29" transform="translate(143.639994, 13.859999)" fill="#414547" fill-rule="nonzero">
                <path d="M63.7370972,27.8963988 C63.7370972,39.5765983 0.497699978,39.6017983 0.491397877,27.8963988 C0.485099979,16.1909993 14.6411994,6.7787997 32.1299986,6.76618715 C49.6187978,6.75359971 63.7307972,16.2224993 63.7370972,27.8963988 Z" id="Path"></path>
                <ellipse id="Oval" cx="32.1047986" cy="6.8480997" rx="6.30629973" ry="6.34409972"></ellipse>
            </g>
            <path d="M186.026392,21.7664991 C185.768092,22.289399 185.490892,22.805999 185.188492,23.303699 C184.476592,24.4754989 183.575692,25.6283989 182.303092,26.1197989 C180.532792,26.8064988 178.573492,26.0504989 176.683492,25.8614989 C173.854792,25.5716989 171.070193,26.5733988 168.411593,27.5687988 C165.639593,28.6019988 162.697493,29.6666987 159.799493,29.0870987 C157.688993,28.6649988 155.855693,27.4238988 153.896393,26.5040988 C147.879894,30.3533987 144.131394,35.7776984 144.131394,41.7878982 C144.131394,53.4617977 207.383391,53.4365977 207.377091,41.7878982 C207.377091,32.4890986 198.449991,24.6140989 186.026392,21.7664991 Z" id="Path" fill="#414547" fill-rule="nonzero" opacity="0.45"></path>
            <path d="M182.032192,21.0419991 C182.032192,20.9348991 182.032192,20.8214991 182.032192,20.7080991 C182.032192,17.2287053 179.211586,14.4080994 175.732192,14.4080994 C172.252799,14.4080994 169.432193,17.2287053 169.432193,20.7080991 C169.432193,20.8214991 169.432193,20.9348991 169.432193,21.0419991 C154.979993,23.001299 144.099894,31.5440986 144.106191,41.7815982 C144.106191,53.4554977 207.358191,53.4302977 207.351916,41.7815982 C207.370791,31.4999986 196.484391,22.988699 182.032192,21.0419991 Z" id="Path" stroke="#202020" stroke-width="1.88999992" stroke-linecap="round" stroke-linejoin="round"></path>
            <path d="M201.675591,107.162995 L199.508391,107.162995 C199.508391,107.162995 201.133791,100.270796 199.684791,79.6067965 C198.235791,58.9427974 215.163891,41.5232982 215.189091,34.6499985 L215.189091,34.6499985 C213.717849,34.4373386 212.229245,34.9003571 211.138191,35.9099984 C210.035018,36.9210806 208.589973,37.4770404 207.093591,37.4660984 C205.271002,37.490968 203.543344,36.6551549 202.431591,35.2106985 C201.286546,33.6083331 199.53179,32.5486427 197.580591,32.2811986 L196.950591,32.2055986 C195.006805,31.9771695 193.057059,32.5813161 191.582992,33.8687985 C190.179927,35.0692017 188.389399,35.7205064 186.542992,35.7020984 C184.337774,35.7161264 182.239181,34.7544635 180.809992,33.0749986 C179.727987,31.7461821 178.113429,30.9642748 176.399992,30.9392987 L176.336992,30.9392987 C174.590273,30.94625 172.938994,31.7371988 171.838793,33.0938986 C170.399459,34.7755351 168.287603,35.7310635 166.074293,35.7020984 C164.18806,35.7173599 162.363155,35.0327396 160.952393,33.7805985 C159.446322,32.438876 157.435777,31.810007 155.433593,32.0543986 L155.213093,32.0543986 C153.200429,32.3194527 151.397758,33.4340813 150.261293,35.1161985 C149.159773,36.6176875 147.398233,37.4914112 145.536294,37.4597984 C143.997379,37.4758944 142.513534,36.8877852 141.403494,35.8217984 C140.307788,34.749399 138.776204,34.2466298 137.258094,34.4609985 L135.953994,34.6436985 C135.953994,41.5295982 152.932493,58.9301974 151.496093,79.6004965 C150.059693,100.270796 151.697693,107.162995 151.697693,107.162995 L149.536793,107.162995 C152.22694,114.033901 153.702103,121.320183 153.896393,128.696394 C154.929593,169.803893 147.401094,196.011891 137.516394,207.975591 L175.669192,207.975591 L175.713292,207.975591 L213.866091,207.975591 C203.956191,196.005591 196.402491,169.816493 197.404191,128.708994 C197.56912,121.333786 199.01442,114.043334 201.675591,107.162995 L201.675591,107.162995 Z" id="Path" fill="#D6D7D8" fill-rule="nonzero"></path>
            <path d="M227.15909,253.291489 C229.11839,251.231389 233.45909,244.584889 231.84629,237.57299 C229.25699,226.23299 214.892991,225.73529 215.604891,207.962991 L135.638994,207.994491 C136.363494,225.76679 121.999495,226.30859 119.422795,237.60449 C117.828895,244.616389 122.163295,251.262889 124.128895,253.316689 C124.128895,253.316689 120.166195,255.836689 119.807095,262.382389 L175.643992,262.382389 L231.48719,262.382389 C231.12179,255.824089 227.15909,253.291489 227.15909,253.291489 Z" id="Path" fill="#D6D7D8" fill-rule="nonzero"></path>
            <path d="M231.48719,262.350889 C231.12179,255.824089 227.15909,253.291489 227.15909,253.291489 C229.11839,251.231389 233.45909,244.584889 231.84629,237.57299 C229.25699,226.23299 214.892991,225.73529 215.604891,207.962991 L213.796791,207.962991 C203.886891,195.992991 196.333191,169.803893 197.334891,128.690094 C197.419306,125.198188 197.792277,121.719239 198.449991,118.288795 C198.771291,116.612995 211.175991,119.441695 210.980691,113.796895 C210.716091,106.047895 207.112491,107.559895 201.662991,107.162995 L199.495791,107.162995 C199.495791,107.162995 201.121191,100.270796 199.672191,79.6067965 C198.223191,58.9427974 215.163891,41.5232982 215.189091,34.6499985 C213.717849,34.4373386 212.229245,34.9003571 211.138191,35.9099984 C210.035018,36.9210806 208.589973,37.4770404 207.093591,37.4660984 C205.271002,37.490968 203.543344,36.6551549 202.431591,35.2106985 C201.286546,33.6083331 199.53179,32.5486427 197.580591,32.2811986 L196.950591,32.2055986 C195.006805,31.9771695 193.057059,32.5813161 191.582992,33.8687985 C190.179927,35.0692017 188.389399,35.7205064 186.542992,35.7020984 C184.337774,35.7161264 182.239181,34.7544635 180.809992,33.0749986 C179.727987,31.7461821 178.113429,30.9642748 176.399992,30.9392987 L176.336992,30.9392987 C174.590273,30.94625 172.938994,31.7371988 171.838793,33.0938986 C170.399459,34.7755351 168.287603,35.7310635 166.074293,35.7020984 C165.588225,35.7032466 165.103115,35.6589539 164.625293,35.5697985 C170.893793,59.0750974 165.885293,67.2587971 165.885293,67.2587971 C165.885293,67.2587971 173.709892,86.1587963 166.868093,93.3974959 C166.868093,93.3974959 171.983693,99.9809956 168.940793,106.117195 C168.940793,106.117195 177.792292,112.524295 171.309593,119.460595 C171.309593,119.460595 176.733892,164.467793 165.948293,207.988191 C165.948293,207.988191 170.490593,223.93979 162.999893,230.47289 C155.509193,237.00599 152.806493,244.257289 160.826393,253.316689 L152.277293,262.388689 L175.669192,262.388689 L231.48719,262.350889 Z" id="Path" fill="#414547" fill-rule="nonzero" opacity="0.34"></path>
            <path d="M227.15909,253.291489 C229.11839,251.231389 233.45909,244.584889 231.84629,237.57299 C229.25699,226.23299 214.892991,225.73529 215.604891,207.962991 L213.796791,207.962991 C203.886891,195.992991 196.333191,169.803893 197.334891,128.696394 C197.41896,125.202381 197.791932,121.72131 198.449991,118.288795 C198.771291,116.612995 211.175991,119.441695 210.980691,113.796895 C210.716091,106.047895 207.112491,107.559895 201.662991,107.162995 L199.495791,107.162995 C199.495791,107.162995 201.121191,100.270796 199.672191,79.6067965 C198.223191,58.9427974 215.163891,41.5232982 215.189091,34.6499985 C213.717849,34.4373386 212.229245,34.9003571 211.138191,35.9099984 C210.035018,36.9210806 208.589973,37.4770404 207.093591,37.4660984 C205.271002,37.490968 203.543344,36.6551549 202.431591,35.2106985 C201.486083,33.9027868 200.131604,32.9473359 198.582291,32.4953986 L198.071991,32.7536986 C202.324491,37.4471984 202.116591,45.523798 197.630991,49.9904978 C196.339491,51.2504978 194.745592,52.3025977 193.762792,53.8460977 C191.242792,57.8087975 193.479292,63.9260972 190.159192,67.2083971 C196.018191,74.5793968 195.016492,86.5115962 188.017192,92.792696 C189.724492,94.6007959 191.469592,96.4592958 192.490192,98.7398957 C193.510792,101.020496 193.712392,103.823995 192.357892,105.921895 C196.231743,107.740393 198.085033,112.208485 196.635591,116.234995 C196.433123,116.845946 196.048362,117.380213 195.533091,117.765895 C194.914037,118.087681 194.220092,118.237782 193.523392,118.200595 L181.433692,118.584895 C185.597992,128.960994 187.185592,134.441994 187.374592,145.630794 C187.462792,151.017293 189.648892,178.233292 190.927792,187.840792 C191.557792,192.452392 192.187792,201.461391 192.187792,201.461391 L196.597791,207.988191 C195.104174,216.126067 198.509363,224.38525 205.304391,229.10579 C216.549891,237.29579 215.277291,253.310389 205.304391,253.310389 C205.304391,253.310389 211.969791,258.570889 213.632991,262.376089 L231.46829,262.376089 C231.55649,258.407089 227.15909,253.291489 227.15909,253.291489 Z" id="Path" fill="#414547" fill-rule="nonzero" opacity="0.34"></path>
            <path d="M152.541893,118.616395 C152.914411,120.058973 153.208839,121.520597 153.423893,122.994895 C174.579292,124.884895 188.590492,124.254895 197.750691,122.906695 C197.909018,121.356253 198.146629,119.814935 198.462591,118.288795 L175.562092,118.597495 L152.541893,118.616395 Z" id="Path" fill="#414547" fill-rule="nonzero" opacity="0.34"></path>
            <path d="M157.644893,45.038698 C157.460583,44.8174775 157.248885,44.6205977 157.014893,44.4527981 C157.203893,56.3786975 158.003993,68.499897 156.775493,80.2934965 C154.507493,101.952896 160.057793,122.837395 160.775993,144.326694 C161.486428,165.286303 158.001502,186.176581 150.525893,205.770591 C146.002494,217.576791 139.135494,226.05659 131.430594,235.80899 C130.019394,237.59189 128.664894,239.51339 128.186094,241.730989 C127.578811,244.697764 128.593618,247.763777 130.850994,249.782389 C129.893394,248.339689 130.126494,246.424489 130.586394,244.742389 C132.041694,239.46299 135.424794,235.83419 138.984294,231.90299 C146.512794,223.58699 153.436493,213.683391 157.367693,203.099391 C161.519393,191.910592 162.728993,179.871292 163.541693,168.033593 C164.171693,159.030893 164.562293,149.996693 164.278793,140.943594 C164.007893,132.060594 162.117893,123.410695 161.582393,114.622195 C160.901993,103.597195 161.884793,92.572196 161.733593,81.5030965 C161.588693,70.7930969 160.372793,60.0830974 159.112793,49.4171978 C158.911193,47.8799979 158.633993,46.172698 157.644893,45.038698 Z" id="Path" fill="#FFFFFF" fill-rule="nonzero"></path>
            <rect id="Rectangle" fill="#D6D7D8" fill-rule="nonzero" x="147.734994" y="201.467691" width="13.0472994" height="6.52679972"></rect>
            <g id="Group" opacity="0.34" transform="translate(168.839993, 105.839995)" fill="#414547" fill-rule="nonzero">
                <path d="M29.6099987,12.4487995 C29.7926987,11.5163995 33.7301985,11.9825995 37.1699984,11.5982995 C37.6613984,11.5037995 38.1338983,11.4092995 38.5874983,11.3021995 C40.3172853,10.9415135 41.6992614,9.64226121 42.1658982,7.93799965 C42.0839982,5.55029976 41.6807982,4.05089982 41.0066982,3.09329987 C40.2758623,2.35475232 39.3253986,1.87288931 38.2976983,1.71989993 C37.6676984,1.61279993 37.0376984,1.51829993 36.3635984,1.43009994 C35.3051985,1.43009994 34.1270985,1.43009994 32.8481986,1.32299994 L30.6809987,1.32299994 C30.6809987,1.32299994 30.7124987,1.17809995 30.7691987,0.869399962 C24.021899,0.365399984 15.6491993,0.23939999 6.74729971,0.23939999 C4.4918998,0.23939999 2.2679999,0.23939999 0.0881999962,0.270899988 C0.0881999962,0.270899988 8.20889964,6.16139973 3.18149986,12.7574994 L6.75359971,12.7574994 C15.6365993,12.7511994 23.366699,12.8267994 29.6099987,12.4487995 Z" id="Path"></path>
            </g>
            <path d="M150.191993,93.8699959 C150.590553,94.5629651 150.915714,95.2956325 151.162193,96.0560958 C174.516292,96.9884958 189.982792,96.6860958 200.094291,95.9993958 C200.275151,95.205291 200.539105,94.432432 200.881791,93.6935959 L175.599892,93.8510959 L150.191993,93.8699959 Z" id="Path" fill="#414547" fill-rule="nonzero" opacity="0.34"></path>
            <line x1="140.023794" y1="221.41979" x2="178.535692" y2="221.40089" id="Path" stroke="#202020" stroke-width="1.88999992" stroke-linecap="round" stroke-linejoin="round"></line>
            <line x1="124.128895" y1="253.335589" x2="227.15909" y2="253.291489" id="Path" stroke="#202020" stroke-width="1.88999992" stroke-linecap="round" stroke-linejoin="round"></line>
            <path d="M227.15909,253.291489 C229.11839,251.231389 233.45909,244.584889 231.84629,237.57299 C229.25699,226.23299 214.892991,225.73529 215.604891,207.962991 L135.638994,207.994491 C136.363494,225.76679 121.999495,226.30859 119.422795,237.60449 C117.828895,244.616389 122.163295,251.262889 124.128895,253.316689 C124.128895,253.316689 120.166195,255.836689 119.807095,262.382389 L231.48719,262.331989 C231.12179,255.824089 227.15909,253.291489 227.15909,253.291489 Z" id="Path" stroke="#202020" stroke-width="1.88999992" stroke-linecap="round" stroke-linejoin="round"></path>
            <line x1="140.181294" y1="201.473991" x2="211.314591" y2="201.442491" id="Path" stroke="#202020" stroke-width="1.88999992" stroke-linecap="round" stroke-linejoin="round"></line>
            <path d="M201.675591,107.162995 L199.508391,107.162995 C199.508391,107.162995 201.133791,100.270796 199.684791,79.6067965 C198.235791,58.9427974 215.163891,41.5232982 215.189091,34.6499985 L215.189091,34.6499985 C213.717849,34.4373386 212.229245,34.9003571 211.138191,35.9099984 C210.035018,36.9210806 208.589973,37.4770404 207.093591,37.4660984 C205.271002,37.490968 203.543344,36.6551549 202.431591,35.2106985 C201.286546,33.6083331 199.53179,32.5486427 197.580591,32.2811986 L196.950591,32.2055986 C195.006805,31.9771695 193.057059,32.5813161 191.582992,33.8687985 C190.179927,35.0692017 188.389399,35.7205064 186.542992,35.7020984 C184.337774,35.7161264 182.239181,34.7544635 180.809992,33.0749986 C179.727987,31.7461821 178.113429,30.9642748 176.399992,30.9392987 L176.336992,30.9392987 C174.590273,30.94625 172.938994,31.7371988 171.838793,33.0938986 C170.399459,34.7755351 168.287603,35.7310635 166.074293,35.7020984 C164.18806,35.7173599 162.363155,35.0327396 160.952393,33.7805985 C159.446322,32.438876 157.435777,31.810007 155.433593,32.0543986 L155.213093,32.0543986 C153.200429,32.3194527 151.397758,33.4340813 150.261293,35.1161985 C149.159773,36.6176875 147.398233,37.4914112 145.536294,37.4597984 C143.997379,37.4758944 142.513534,36.8877852 141.403494,35.8217984 C140.307788,34.749399 138.776204,34.2466298 137.258094,34.4609985 L135.953994,34.6436985 C135.953994,41.5295982 152.932493,58.9301974 151.496093,79.6004965 C150.059693,100.270796 151.697693,107.162995 151.697693,107.162995 L149.536793,107.162995 C152.22694,114.033901 153.702103,121.320183 153.896393,128.696394 C154.929593,169.803893 147.401094,196.011891 137.516394,207.975591 L175.669192,207.975591 L175.713292,207.975591 L213.866091,207.975591 C203.956191,196.005591 196.402491,169.816493 197.404191,128.708994 C197.56912,121.333786 199.01442,114.043334 201.675591,107.162995 L201.675591,107.162995 Z" id="Path" stroke="#202020" stroke-width="1.88999992" stroke-linecap="round" stroke-linejoin="round"></path>
            <line x1="149.202894" y1="93.4037959" x2="160.731893" y2="93.4037959" id="Path" stroke="#202020" stroke-width="1.88999992" stroke-linecap="round" stroke-linejoin="round"></line>
            <line x1="166.616093" y1="93.3974959" x2="202.229991" y2="93.3848959" id="Path" stroke="#202020" stroke-width="1.88999992" stroke-linecap="round" stroke-linejoin="round"></line>
            <line x1="148.283094" y1="67.2335971" x2="183.871792" y2="67.2146971" id="Path" stroke="#202020" stroke-width="1.88999992" stroke-linecap="round" stroke-linejoin="round"></line>
            <line x1="190.001692" y1="67.2146971" x2="203.080491" y2="67.2083971" id="Path" stroke="#202020" stroke-width="1.88999992" stroke-linecap="round" stroke-linejoin="round"></line>
            <path d="M175.562092,118.597495 C189.384292,118.597495 200.409291,118.786495 207.414891,117.142195 C212.599791,115.919995 212.379291,108.435595 207.125091,107.559895 C199.772991,106.299895 188.187292,106.079395 175.555792,106.085695 L175.593592,106.085695 C162.993593,106.085695 151.382693,106.343995 144.024294,107.585095 C138.776394,108.473395 138.562194,115.957795 143.747094,117.167395 C150.752693,118.805395 161.777693,118.603795 175.599892,118.597495" id="Path" fill="#D6D7D8" fill-rule="nonzero"></path>
            <path d="M175.562092,118.597495 C189.384292,118.597495 200.409291,118.786495 207.414891,117.142195 C212.599791,115.919995 212.379291,108.435595 207.125091,107.559895 C199.772991,106.299895 188.187292,106.079395 175.555792,106.085695 L175.593592,106.085695 C162.993593,106.085695 151.382693,106.343995 144.024294,107.585095 C138.776394,108.473395 138.562194,115.957795 143.747094,117.167395 C150.752693,118.805395 161.777693,118.603795 175.599892,118.597495" id="Path" fill="#D6D7D8" fill-rule="nonzero"></path>
            <path d="M194.084092,118.194295 C194.780866,118.232413 195.475054,118.08226 196.093791,117.759595 C196.609062,117.373913 196.993823,116.839646 197.196291,116.228695 C198.727191,112.398295 196.704891,107.515795 192.918592,105.915595 L200.075391,107.175595 L202.229991,107.175595 C207.685791,107.572495 211.283091,106.060495 211.553991,113.809495 C211.749291,119.479495 199.338291,116.625595 199.016991,118.301395" id="Path" fill="#414547" fill-rule="nonzero" opacity="0.34"></path>
            <g id="Group" opacity="0.34" transform="translate(168.839993, 105.839995)" fill="#414547" fill-rule="nonzero">
                <path d="M29.6099987,12.4487995 C29.7926987,11.5163995 33.7301985,11.9825995 37.1699984,11.5982995 C37.6613984,11.5037995 38.1338983,11.4092995 38.5874983,11.3021995 C40.3172853,10.9415135 41.6992614,9.64226121 42.1658982,7.93799965 C42.0839982,5.55029976 41.6807982,4.05089982 41.0066982,3.09329987 C40.2758623,2.35475232 39.3253986,1.87288931 38.2976983,1.71989993 C37.6676984,1.61279993 37.0376984,1.51829993 36.3635984,1.43009994 C35.3051985,1.43009994 34.1270985,1.43009994 32.8481986,1.32299994 L30.6809987,1.32299994 C30.6809987,1.32299994 30.7124987,1.17809995 30.7691987,0.869399962 C24.021899,0.365399984 15.6491993,0.23939999 6.74729971,0.23939999 C4.4918998,0.23939999 2.2679999,0.23939999 0.0881999962,0.270899988 C0.0881999962,0.270899988 8.20889964,6.16139973 3.18149986,12.7574994 L6.75359971,12.7574994 C15.6365993,12.7511994 23.366699,12.8267994 29.6099987,12.4487995 Z" id="Path"></path>
            </g>
            <path d="M168.915593,106.091995 C174.415492,106.091995 186.347692,106.129795 191.186092,106.280995 C196.520295,106.365543 201.843858,106.786378 207.125091,107.540995 C212.354091,108.416695 212.612391,115.894795 207.452691,117.110695 C202.292991,118.326595 194.934592,118.547095 185.881492,118.578595 C182.649592,118.578595 179.203492,118.578595 175.562092,118.578595 L160.744493,118.578595 C153.770393,118.490395 148.005894,118.175395 143.734494,117.173695 C138.543294,115.957795 138.782694,108.473395 144.036894,107.591395 C149.480245,106.806454 154.968273,106.370863 160.467293,106.287295" id="Path" stroke="#202020" stroke-width="1.88999992" stroke-linecap="round" stroke-linejoin="round"></path>
            <path d="M150.179393,67.901397 C150.579354,68.5958617 150.904571,69.3307677 151.149593,70.0937969 C174.503692,71.0261969 189.970192,70.7237969 200.081691,70.037097 C200.265381,69.2417645 200.52923,68.4671038 200.869191,67.7249971 L175.593592,67.888797 L150.179393,67.901397 Z" id="Path" fill="#414547" fill-rule="nonzero" opacity="0.34"></path>
            <ellipse id="Oval" fill="#FFFFFF" fill-rule="nonzero" cx="155.231993" cy="111.106795" rx="9.1034996" ry="1.32299994"></ellipse>
            <ellipse id="Oval" fill="#FFFFFF" fill-rule="nonzero" cx="154.255493" cy="204.699591" rx="9.1034996" ry="1"></ellipse>
            <ellipse id="Oval" fill="#FFFFFF" fill-rule="nonzero" cx="133.837194" cy="257.405389" rx="9.1034996" ry="1"></ellipse>
            <path d="M175.984192,16.6571993 C173.149192,15.7247993 170.225993,20.7584991 172.267193,20.6261991 C174.308392,20.4938991 178.037992,17.3312992 175.984192,16.6571993 Z" id="Path" fill="#FFFFFF" fill-rule="nonzero"></path>
            <path d="M55.5344976,76.7465967 L48.8375979,68.077797 C54.5533799,61.3061062 62.0229358,56.238491 70.4276969,53.4302977 C88.5779961,47.5775979 112.562095,56.8826975 121.041895,71.5994969 C134.460894,94.8779959 127.713594,124.727395 118.389595,148.138194 L100.963796,155.200493 L55.5344976,76.7465967 Z" id="Path" fill="#2F3335" fill-rule="nonzero"></path>
            <path d="M118.912495,77.2190966 C124.582495,87.0785962 127.675794,104.995795 118.389595,148.138194 C133.471794,101.058296 127.606494,82.9835964 121.041895,71.5994969 C113.437795,58.4072975 93.3911959,49.5494978 76.2425967,52.0694977 C93.9518959,54.2177976 111.302095,64.0142972 118.912495,77.2190966 Z" id="Path" fill="#D6D7D8" fill-rule="nonzero" opacity="0.38"></path>
            <path d="M55.5344976,76.7465967 L48.8375979,68.077797 C54.5533799,61.3061062 62.0229358,56.238491 70.4276969,53.4302977 C88.5779961,47.5775979 112.562095,56.8826975 121.041895,71.5994969 C134.460894,94.8779959 127.713594,124.727395 118.389595,148.138194 L100.963796,155.200493" id="Path" stroke="#202020" stroke-width="1.88999992" stroke-linecap="round" stroke-linejoin="round"></path>
            <path d="M109.210495,222.16319 L109.034095,219.10139 L109.034095,219.10139 C118.937695,202.091391 105.613195,188.773192 95.6780958,179.203492 L95.6780958,179.203492 L95.9426958,176.166892 L98.0531957,176.166892 C100.219781,176.203856 102.026914,174.51924 102.141896,172.355392 C102.169086,171.300433 101.768933,170.279231 101.032267,169.523584 C100.2956,168.767938 99.2849054,168.341942 98.2295957,168.342293 L95.6402958,168.342293 L95.6402958,165.280493 L95.6402958,165.280493 C95.7158958,165.148193 104.642995,149.196594 108.385195,138.870894 C114.370195,122.377495 121.741195,78.8885966 93.1076959,69.173997 C93.1076959,69.173997 93.1076959,69.173997 93.1076959,69.173997 C92.962796,68.909397 80.6462965,45.939598 70.3646969,45.908098 L70.6166969,68.128197 C70.6166969,68.128197 70.6166969,68.128197 70.6166969,68.128197 L16.6382993,103.282196 C16.6382993,103.282196 16.6382993,103.282196 16.6382993,103.282196 C16.7075993,103.666495 18.4652992,116.071195 30.6116987,125.332195 L32.5016986,126.592194 L34.2530985,127.549794 L44.0999981,121.949095 L43.8164981,118.799095 L49.3919979,116.638195 L49.3919979,116.638195 L55.4903976,119.914195 L36.5903984,165.204893 L36.5903984,165.204893 L36.5903984,166.105793 L36.3761984,168.209993 L36.3761984,168.209993 L34.2467985,168.209993 C32.0815634,168.179422 30.276383,169.859628 30.1517987,172.021493 C30.1246367,173.077031 30.524598,174.098863 31.2610748,174.855501 C31.9975515,175.612139 33.0082116,176.039544 34.0640985,176.040892 L36.1808984,176.040892 L36.1808984,176.110192 L36.4454984,179.165692 L36.4454984,179.165692 C26.5166988,188.735392 13.1921994,202.022091 23.095799,219.06359 L23.095799,219.06359 L22.919399,222.12539 C22.635899,222.12539 16.7579993,222.89399 16.7579993,228.90419 L16.7579993,235.00259 L115.365595,235.00259 L115.365595,228.90419 C115.365595,222.89399 109.487695,222.15689 109.204195,222.12539 L109.210495,222.16319 Z" id="Path" fill="#414547" fill-rule="nonzero"></path>
            <path d="M115.384495,228.95459 L115.384495,235.05299 L70.5599969,235.05299 L70.8875969,234.42299 L70.8875969,234.42299 L66.6350971,222.18839 C66.6350971,222.18839 66.6350971,222.18839 66.6350971,222.18839 C66.9311971,221.98679 71.8451969,218.76749 75.2597967,209.632491 C77.5025966,203.634891 77.6663966,197.208891 77.5907966,190.808092 C77.4466565,187.080473 77.0763756,183.36504 76.4819967,179.682292 L79.6319965,175.215592 L79.6319965,175.215592 C81.0398533,174.698795 81.951836,173.330821 81.8873964,171.832493 C81.9734043,170.368988 81.038407,169.03962 79.6319965,168.625793 L79.6319965,165.160793 C79.6319965,165.129293 100.579496,134.435694 100.806296,113.185795 C101.045696,91.085396 95.9615958,77.5592966 86.9462962,74.4155968 L86.9462962,74.4155968 C86.8958962,74.1698968 87.7337962,64.5119972 81.5912964,59.2955974 C78.92513,57.112642 77.6219525,53.6759013 78.1703966,50.2739978 C78.2522966,49.8140978 78.3467966,49.5683978 78.4475966,49.6439978 C86.4989962,57.0590975 93.0887959,69.092097 93.1139959,69.136197 L93.1139959,69.136197 C121.753795,78.8444966 114.382795,122.333395 108.397795,138.833094 C104.655595,149.158794 95.7284958,165.110393 95.6528958,165.242693 L95.6528958,165.242693 L95.6528958,168.304493 L98.0594957,168.304493 C100.227242,168.26739 102.036247,169.951156 102.154496,172.115993 C102.181686,173.170952 101.781533,174.192154 101.044867,174.947801 C100.3082,175.703447 99.2975054,176.129443 98.2421957,176.129092 L95.9552958,176.129092 L95.6906958,179.165692 C95.6906958,179.165692 95.6906958,179.165692 95.6906958,179.165692 C105.625795,188.735392 118.943995,202.015791 109.046695,219.06359 L109.046695,219.06359 L109.223095,222.12539 C109.223095,222.12539 109.223095,222.12539 109.223095,222.12539 C109.506595,222.21359 115.384495,222.95069 115.384495,228.95459 Z" id="Path" fill="#D6D7D8" fill-rule="nonzero" opacity="0.38"></path>
            <line x1="109.223095" y1="222.17579" x2="92.830496" y2="222.17579" id="Path" stroke="#202020" stroke-width="1.88999992" stroke-linecap="round" stroke-linejoin="round"></line>
            <polyline id="Path" stroke="#202020" stroke-width="1.88999992" stroke-linecap="round" stroke-linejoin="round" points="64.9529972 89.8505961 58.0544975 89.8505961 58.0544975 93.2462959"></polyline>
            <path d="M46.323898,172.575892 C46.456198,169.369193 50.5133978,168.228893 50.5133978,168.228893 L31.4999986,168.304493 L30.1769987,172.040393 L31.4999986,175.070692 L34.0892985,176.059792 L48.0752979,176.147992 C48.0752979,176.147992 46.178998,175.927492 46.323898,172.575892 Z" id="Path" fill="#2F3335" fill-rule="nonzero"></path>
            <line x1="34.6877985" y1="164.618993" x2="42.9911981" y2="164.618993" id="Path" stroke="#202020" stroke-width="1.88999992" stroke-linecap="round" stroke-linejoin="round"></line>
            <line x1="90.7010961" y1="164.618993" x2="98.9981957" y2="164.618993" id="Path" stroke="#202020" stroke-width="1.88999992" stroke-linecap="round" stroke-linejoin="round"></line>
            <line x1="98.9981957" y1="71.8766969" x2="106.715695" y2="58.1930975" id="Path" stroke="#202020" stroke-width="1.88999992" stroke-linecap="round" stroke-linejoin="round"></line>
            <line x1="104.264995" y1="76.1543967" x2="115.907395" y2="65.0348972" id="Path" stroke="#202020" stroke-width="1.88999992" stroke-linecap="round" stroke-linejoin="round"></line>
            <line x1="111.018595" y1="129.868194" x2="125.143195" y2="127.581294" id="Path" stroke="#202020" stroke-width="1.88999992" stroke-linecap="round" stroke-linejoin="round"></line>
            <line x1="54.9044976" y1="62.0675973" x2="62.2439973" y2="71.8766969" id="Path" stroke="#202020" stroke-width="1.88999992" stroke-linecap="round" stroke-linejoin="round"></line>
            <line x1="62.2439973" y1="57.0212975" x2="67.794297" y2="69.696897" id="Path" stroke="#202020" stroke-width="1.88999992" stroke-linecap="round" stroke-linejoin="round"></line>
            <line x1="95.9426958" y1="53.6759977" x2="93.1076959" y2="69.110997" id="Path" stroke="#202020" stroke-width="1.88999992" stroke-linecap="round" stroke-linejoin="round"></line>
            <rect id="Rectangle" fill="#2F3335" fill-rule="nonzero" x="36.4391984" y="176.702392" width="59.0372974" height="2.57669989"></rect>
            <line x1="111.018595" y1="87.5258962" x2="125.697595" y2="82.2338964" id="Path" stroke="#202020" stroke-width="1.88999992" stroke-linecap="round" stroke-linejoin="round"></line>
            <line x1="86.9336962" y1="51.9056977" x2="86.9336962" y2="59.2892974" id="Path" stroke="#202020" stroke-width="1.88999992" stroke-linecap="round" stroke-linejoin="round"></line>
            <path d="M53.0270977,176.091292 L31.4999986,175.070692 C32.2134703,175.705334 33.1344138,176.05713 34.0892985,176.059792 L36.2060984,176.059792 L36.2060984,176.129092 L36.4706984,179.184592 C36.4706984,179.184592 36.4706984,179.184592 36.4706984,179.184592 C31.3361986,184.136392 25.2944989,190.083592 22.024799,197.026191 C28.6775988,186.095692 50.5133978,186.624892 53.0270977,176.091292 Z" id="Path" fill="#2F3335" fill-rule="nonzero"></path>
            <path d="M77.7482966,115.642795 C68.928297,125.306995 55.5344976,120.500095 55.5344976,120.500095 L48.0500979,138.385794 C67.5170971,136.558794 77.7482966,115.642795 77.7482966,115.642795 Z" id="Path" fill="#2F3335" fill-rule="nonzero"></path>
            <path d="M55.5344976,119.914195 C55.5344976,119.914195 68.947197,124.721095 77.7482966,115.063195" id="Path" stroke="#202020" stroke-width="1.88999992" stroke-linecap="round" stroke-linejoin="round"></path>
            <path d="M79.0397966,69.110997 C78.4621944,63.5066677 75.2812775,58.5007494 70.4528969,55.5974976 L70.5914969,68.077797 L79.0397966,69.110997 Z" id="Path" fill="#2F3335" fill-rule="nonzero"></path>
            <line x1="36.4391984" y1="179.197192" x2="44.2259981" y2="179.197192" id="Path" stroke="#202020" stroke-width="1.88999992" stroke-linecap="round" stroke-linejoin="round"></line>
            <line x1="95.4764958" y1="179.197192" x2="87.6896962" y2="179.197192" id="Path" stroke="#202020" stroke-width="1.88999992" stroke-linecap="round" stroke-linejoin="round"></line>
            <line x1="70.5914969" y1="68.077797" x2="77.7482966" y2="69.110997" id="Path" stroke="#202020" stroke-width="1.88999992" stroke-linecap="round" stroke-linejoin="round"></line>
            <path d="M105.682495,89.2772961 C107.900095,83.6891964 99.4202957,76.2740967 99.2627957,80.5202965 C99.1052957,84.7664963 104.075995,93.3281959 105.682495,89.2772961 Z" id="Path" fill="#D6D7D8" fill-rule="nonzero"></path>
            <line x1="36.1241984" y1="176.091292" x2="95.9426958" y2="176.147992" id="Path" stroke="#202020" stroke-width="1.88999992" stroke-linecap="round" stroke-linejoin="round"></line>
            <line x1="34.2467985" y1="168.228893" x2="95.6591958" y2="168.304493" id="Path" stroke="#202020" stroke-width="1.88999992" stroke-linecap="round" stroke-linejoin="round"></line>
            <line x1="22.913099" y1="222.16319" x2="40.0364983" y2="222.16319" id="Path" stroke="#202020" stroke-width="1.88999992" stroke-linecap="round" stroke-linejoin="round"></line>
            <path d="M109.210495,222.16319 L109.034095,219.10139 L109.034095,219.10139 C118.937695,202.091391 105.613195,188.773192 95.6780958,179.203492 L95.6780958,179.203492 L95.9426958,176.166892 L98.0531957,176.166892 C100.219781,176.203856 102.026914,174.51924 102.141896,172.355392 C102.169086,171.300433 101.768933,170.279231 101.032267,169.523584 C100.2956,168.767938 99.2849054,168.341942 98.2295957,168.342293 L95.6402958,168.342293 L95.6402958,165.280493 L95.6402958,165.280493 C95.7158958,165.148193 104.642995,149.196594 108.385195,138.870894 C114.370195,122.377495 121.741195,78.8885966 93.1076959,69.173997 C93.1076959,69.173997 93.1076959,69.173997 93.1076959,69.173997 C92.962796,68.909397 80.6462965,45.939598 70.3646969,45.908098 L70.6166969,68.128197 C70.6166969,68.128197 70.6166969,68.128197 70.6166969,68.128197 L16.6382993,103.282196 C16.6382993,103.282196 16.6382993,103.282196 16.6382993,103.282196 C16.7075993,103.666495 18.6731992,119.838595 34.2782985,127.568694 L44.0999981,121.949095 L43.8164981,118.799095 L49.3919979,116.638195 L49.3919979,116.638195 L55.4903976,119.914195 L36.5903984,165.204893 L36.5903984,165.204893 L36.5903984,166.105793 L36.3761984,168.209993 L36.3761984,168.209993 L34.2467985,168.209993 C32.0815634,168.179422 30.276383,169.859628 30.1517987,172.021493 C30.1246367,173.077031 30.524598,174.098863 31.2610748,174.855501 C31.9975515,175.612139 33.0082116,176.039544 34.0640985,176.040892 L36.1808984,176.040892 L36.1808984,176.110192 L36.4454984,179.165692 L36.4454984,179.165692 C26.5166988,188.735392 13.1921994,202.022091 23.095799,219.06359 L23.095799,219.06359 L22.919399,222.12539 C22.635899,222.12539 16.7579993,222.89399 16.7579993,228.90419 L16.7579993,235.00259 L115.365595,235.00259 L115.365595,228.90419 C115.365595,222.89399 109.487695,222.15689 109.204195,222.12539 L109.210495,222.16319 Z" id="Path" stroke="#202020" stroke-width="1.88999992" stroke-linecap="round" stroke-linejoin="round"></path>
            <line x1="47.2310979" y1="222.16319" x2="70.5914969" y2="222.16319" id="Path" stroke="#202020" stroke-width="1.88999992" stroke-linecap="round" stroke-linejoin="round"></line>
            <path d="M99.7604957,206.910891 C102.192296,204.069591 98.6957957,197.996391 97.7444957,200.465991 C96.7931958,202.935591 97.9964957,208.977291 99.7604957,206.910891 Z" id="Path" fill="#D6D7D8" fill-rule="nonzero"></path>
            <path d="M107.830795,119.132995 C112.467595,106.835395 106.652695,86.0705963 104.724895,96.0119958 C104.145295,99.0170957 105.279295,103.219196 105.298195,107.257495 C105.348595,116.549995 105.480895,125.369995 107.830795,119.132995 Z" id="Path" fill="#D6D7D8" fill-rule="nonzero"></path>
            <ellipse id="Oval" fill="#D6D7D8" fill-rule="nonzero" cx="94.7393959" cy="171.630893" rx="4.03829982" ry="1"></ellipse>
            <ellipse id="Oval" fill="#D6D7D8" fill-rule="nonzero" cx="102.652196" cy="227.84579" rx="9.1475996" ry="2.07899991"></ellipse>
            <path d="M97.5554958,194.090392 C99.7667957,188.502292 91.286996,181.093492 91.129496,185.333392 C90.971996,189.573292 95.9489958,198.147591 97.5554958,194.090392 Z" id="Path" fill="#D6D7D8" fill-rule="nonzero"></path>
            <path d="M21.1553991,114.956095 C25.9685989,106.469995 30.8699987,99.9935956 32.7599986,105.430495 C34.6499985,110.867395 28.0538988,110.609095 28.0538988,110.609095" id="Path" stroke="#202020" stroke-width="1.88999992" stroke-linecap="round" stroke-linejoin="round"></path>
            <circle id="Oval" stroke="#B9BDC1" stroke-width="1.88999992" stroke-linecap="round" stroke-linejoin="round" cx="225.51479" cy="18.2825992" r="3.20669986"></circle>
            <line x1="199.955691" y1="0.314999986" x2="193.661992" y2="6.8732997" id="Path" stroke="#B9BDC1" stroke-width="1.88999992" stroke-linecap="round" stroke-linejoin="round"></line>
            <line x1="200.087991" y1="6.74099971" x2="193.529692" y2="0.447299981" id="Path" stroke="#B9BDC1" stroke-width="1.88999992" stroke-linecap="round" stroke-linejoin="round"></line>
            <circle id="Oval" stroke="#B9BDC1" stroke-width="1.88999992" stroke-linecap="round" stroke-linejoin="round" cx="114.055195" cy="3.82409983" r="2.57669989"></circle>
            <line x1="102.526196" y1="18.8180992" x2="99.0863957" y2="27.8648988" id="Path" stroke="#B9BDC1" stroke-width="1.88999992" stroke-linecap="round" stroke-linejoin="round"></line>
            <line x1="105.329695" y1="25.0613989" x2="96.2828958" y2="21.6152991" id="Path" stroke="#B9BDC1" stroke-width="1.88999992" stroke-linecap="round" stroke-linejoin="round"></line>
            <line x1="7.41509968" y1="139.670994" x2="0.314999986" y2="141.239694" id="Path" stroke="#B9BDC1" stroke-width="1.88999992" stroke-linecap="round" stroke-linejoin="round"></line>
            <line x1="4.6493998" y1="144.005394" x2="3.08069987" y2="136.905294" id="Path" stroke="#B9BDC1" stroke-width="1.88999992" stroke-linecap="round" stroke-linejoin="round"></line>
        </g>
    </g>
</svg>