<svg xmlns="http://www.w3.org/2000/svg" xmlns:xlink="http://www.w3.org/1999/xlink" viewBox="0 0 442.36 472.32"><defs><style>.cls-1,.cls-13,.cls-2{fill:none;}.cls-2{stroke:#202020;stroke-linecap:round;stroke-linejoin:round;stroke-width:3px;}.cls-3{fill:#fff;}.cls-4,.cls-8{fill:#eaeaea;}.cls-5{fill:#b9bdc1;opacity:0.46;}.cls-6{fill:#2f3335;}.cls-15,.cls-7{fill:#414547;}.cls-8{opacity:0.21;}.cls-9{fill:#8a8f93;}.cls-10{opacity:0.15;}.cls-11{fill:#d6d7d8;}.cls-12{clip-path:url(#clip-path);}.cls-13{stroke:#8a8f93;stroke-miterlimit:10;stroke-width:1.2px;}.cls-14{clip-path:url(#clip-path-2);}.cls-15{opacity:0.2;}</style><clipPath id="clip-path"><rect class="cls-1" x="207.39" y="337.98" width="193.76" height="26.27"/></clipPath><clipPath id="clip-path-2"><rect class="cls-1" x="207.39" y="435.44" width="193.7" height="21.2" transform="translate(608.48 892.08) rotate(180)"/></clipPath></defs><title>Collaboration Iteration Icon</title><g id="Layer_2" data-name="Layer 2"><g id="Layer_3" data-name="Layer 3"><line class="cls-2" x1="164.03" y1="285.2" x2="164.03" y2="61.94"/><circle class="cls-3" cx="286.61" cy="207.31" r="73.94"/><circle class="cls-3" cx="286.61" cy="207.31" r="73.94"/><rect class="cls-4" x="262.92" y="85.05" width="47.37" height="91.04"/><path class="cls-5" d="M273.65,85.35c-.18,4.71-1.79,23-1.79,23l-.36,3.78-.33,3.46-1.58,16h-6.67V85.05Z"/><path class="cls-5" d="M310.29,88.67v17.75c-3.33-6.52-8.47-16.62-8.65-17.16Z"/><path class="cls-5" d="M310.29,88.67v17.75c-3.33-6.52-8.47-16.62-8.65-17.16Z"/><circle class="cls-4" cx="286.61" cy="207.31" r="84.51"/><circle class="cls-4" cx="286.61" cy="207.31" r="73.94"/><path class="cls-6" d="M360.09,199.09c-6.67-5.65-15.94-7.81-27.41-4.05-15.16,5-24.59,17.77-46.07,13.53-15.95-3.16-4.19,20.5-4.19,20.5l42.35,6.84,27.59-12.19Z"/><path class="cls-2" d="M360.09,199.09c-6.67-5.65-15.94-7.81-27.41-4.05-15.16,5-24.59,17.77-46.07,13.53-15.95-3.16-4.19,20.5-4.19,20.5l42.35,6.84,27.59-12.19Z"/><path class="cls-3" d="M360.55,207.31a73.94,73.94,0,0,1-146.37,14.91c17.14-19.67,39.38-19.67,56.48-11.12,27.78,13.9,71.25,19.58,89.43-12A72,72,0,0,1,360.55,207.31Z"/><path class="cls-7" d="M360.55,207.31a73.94,73.94,0,0,1-146.37,14.91c14.56-23.13,41.25-25.82,59.05-18.82,30.48,12,68.68,27.28,86.86-4.31A72,72,0,0,1,360.55,207.31Z"/><path class="cls-2" d="M360.55,207.31a73.94,73.94,0,0,1-146.37,14.91c14.56-23.13,41.25-25.82,59.05-18.82,30.48,12,68.68,27.28,86.86-4.31A72,72,0,0,1,360.55,207.31Z"/><path class="cls-8" d="M296.46,236.54l8.11,23.12s29-12.22,36.07-41.82-4.47-48.42-4.47-48.42S327.76,220.94,296.46,236.54Z"/><path class="cls-5" d="M226.72,204.45c0-21.45,6-41.16,16.1-56.72a74,74,0,0,0,8.54,124.59C236.24,255.64,226.72,231.42,226.72,204.45Z"/><path class="cls-2" d="M310.29,126.17V85.05H262.92v41.12a84.51,84.51,0,1,0,47.37,0Z"/><rect class="cls-4" x="253.67" y="77.65" width="65.87" height="14.06" rx="7.03"/><path class="cls-2" d="M275.51,91.71H260.7a7,7,0,0,1-7-7h0a7,7,0,0,1,7-7h51.81a7,7,0,0,1,7,7h0a7,7,0,0,1-7,7h-9.63"/><path class="cls-2" d="M347.92,166a73.92,73.92,0,1,1-129.63,13"/><circle class="cls-9" cx="256.15" cy="225.43" r="3.53"/><circle class="cls-9" cx="258.81" cy="246.47" r="6.83"/><circle class="cls-9" cx="323.06" cy="231.53" r="3.53"/><circle class="cls-9" cx="275.01" cy="237.16" r="2.29"/><g class="cls-10"><path class="cls-7" d="M257.26,228.77a3,3,0,0,1-1,.18,3.53,3.53,0,1,1-.31-7,3.93,3.93,0,0,1,1,.09,3.53,3.53,0,0,0,.29,6.78Z"/><path class="cls-7" d="M260.07,253.17a6,6,0,0,1-1,.12,6.83,6.83,0,1,1-.59-13.64,7.64,7.64,0,0,1,1,0,6.82,6.82,0,0,0,.59,13.49Z"/><path class="cls-7" d="M324.17,234.87a3,3,0,0,1-1,.18,3.53,3.53,0,0,1-.31-7.05,3.93,3.93,0,0,1,1,.09,3.52,3.52,0,0,0,.29,6.78Z"/><path class="cls-7" d="M275.67,239.35a2,2,0,0,1-.55.1,2.29,2.29,0,1,1-.2-4.57,2.09,2.09,0,0,1,.56,0,2.29,2.29,0,0,0,.19,4.43Z"/></g><g class="cls-10"><path class="cls-7" d="M300.12,180.66a4.91,4.91,0,0,1-1,.3,4.78,4.78,0,1,1-1.68-9.42,4.32,4.32,0,0,1,1.07-.07,4.79,4.79,0,0,0,1.64,9.19Z"/><path class="cls-7" d="M281.39,170a7.36,7.36,0,1,1-3.63-14.22,5.55,5.55,0,0,1,1.07-.11A7.35,7.35,0,0,0,281.39,170Z"/><path class="cls-7" d="M289.65,138.12a3.49,3.49,0,0,1-1,.33,4,4,0,1,1-1.4-7.81,3.6,3.6,0,0,1,1.08,0,4,4,0,0,0,1.34,7.53Z"/></g><circle class="cls-3" cx="298.25" cy="176.25" r="4.79"/><circle class="cls-3" cx="279.06" cy="163.03" r="7.36"/><circle class="cls-3" cx="287.93" cy="134.55" r="3.97"/><line class="cls-2" x1="254.94" y1="106.42" x2="172.66" y2="106.42"/><rect class="cls-9" x="253.67" y="102.63" width="64.22" height="7.68" rx="3.84"/><path class="cls-7" d="M274.33,110.31H257.51a3.84,3.84,0,0,1-3.84-3.84h0a3.84,3.84,0,0,1,3.84-3.84h19Z"/><path class="cls-2" d="M265.6,110.31h-8.09a3.84,3.84,0,0,1-3.84-3.84h0a3.84,3.84,0,0,1,3.84-3.84h56.54a3.84,3.84,0,0,1,3.84,3.84h0a3.84,3.84,0,0,1-3.84,3.84H265.6Z"/><circle class="cls-9" cx="164.03" cy="106.7" r="11.98"/><path class="cls-7" d="M161.36,108.2a35.61,35.61,0,0,1-.2-12.85,12,12,0,0,0,5.44,23.34l.69-.2A20,20,0,0,1,161.36,108.2Z"/><circle class="cls-2" cx="164.03" cy="106.7" r="11.98"/><circle class="cls-9" cx="164.03" cy="106.7" r="6"/><circle class="cls-2" cx="164.03" cy="106.7" r="6"/><path class="cls-4" d="M169.85,419.39l-57.94-154V155.59H60.51V265.36l-57.95,154A18.31,18.31,0,0,0,19.83,443.8H152.58A18.31,18.31,0,0,0,169.85,419.39Z"/><path class="cls-4" d="M161.82,432a11.19,11.19,0,0,1-9.24,4.78H19.84a11.33,11.33,0,0,1-10.71-15l57.92-154a6.91,6.91,0,0,0,.45-2.46V162.58h37.42V265.36a7.13,7.13,0,0,0,.44,2.46l57.92,154A11.17,11.17,0,0,1,161.82,432Z"/><path class="cls-5" d="M42.33,443.8H21.68l-9.12-1.49L6,437.47l-3.17-6.85-1.59-7.35L60.51,265.36V155.59h51.4l-.18,6.2L67.5,164.33c0,2.21,1.89,48.88-.68,103.47-2.09,44.62-4.24,94.53-5.14,129.78C61,425.19,42.33,443.8,42.33,443.8Z"/><path class="cls-4" d="M161.82,432a11.19,11.19,0,0,1-9.24,4.78H19.84a11.33,11.33,0,0,1-10.71-15l57.92-154c.3-.79,38-.79,38.31,0l57.92,154A11.17,11.17,0,0,1,161.82,432Z"/><path class="cls-6" d="M19.84,436.81H152.58a11.33,11.33,0,0,0,10.7-15l-33.45-88.93c-37,31.13-52.15-30.48-87.25,0L9.13,421.78a11.33,11.33,0,0,0,10.71,15Z"/><path class="cls-2" d="M19.84,436.81H152.58a11.33,11.33,0,0,0,10.7-15l-33.45-88.93c-37,31.13-52.15-30.48-87.25,0L9.13,421.78a11.33,11.33,0,0,0,10.71,15Z"/><path class="cls-7" d="M152.57,436.81H19.83a11.33,11.33,0,0,1-10.7-15l33.45-88.93c37,31.13,58-20.79,83.53-9.88l37.17,98.81a11.33,11.33,0,0,1-10.71,15Z"/><path class="cls-2" d="M152.57,436.81H19.83a11.33,11.33,0,0,1-10.7-15l33.45-88.93c37,31.13,58-20.79,83.53-9.88l37.17,98.81a11.33,11.33,0,0,1-10.71,15Z"/><line class="cls-2" x1="42.33" y1="368.89" x2="21.68" y2="368.89"/><line class="cls-2" x1="34.13" y1="390.46" x2="13.48" y2="390.46"/><line class="cls-2" x1="26.64" y1="412.03" x2="5.99" y2="412.03"/><line class="cls-2" x1="37.84" y1="358.11" x2="25.93" y2="358.11"/><line class="cls-2" x1="29.76" y1="379.12" x2="17.85" y2="379.12"/><line class="cls-2" x1="21.7" y1="401.24" x2="9.79" y2="401.24"/><path class="cls-2" d="M120.68,308.53l42.6,113.25a11.33,11.33,0,0,1-10.7,15H19.84a11.33,11.33,0,0,1-10.71-15L51.17,310"/><path class="cls-2" d="M169.85,419.39l-57.94-154V155.59H60.51V265.36l-57.95,154A18.31,18.31,0,0,0,19.83,443.8H152.58A18.31,18.31,0,0,0,169.85,419.39Z"/><line class="cls-2" x1="54.49" y1="155.59" x2="117.92" y2="155.59"/><polygon class="cls-8" points="115.93 345.73 103.5 349.69 100.76 311.57 105.84 305.49 115.93 345.73"/><path class="cls-8" d="M108.67,421.42l-4.24-58.88,15-2.84,15.4,61.44c-7.28.1-15.87-.36-26.16.28"/><polygon class="cls-3" points="137.25 401.57 86.2 401.57 87.95 385.96 135.51 385.96 137.25 401.57"/><polygon class="cls-2" points="137.25 401.57 86.2 401.57 87.95 385.96 135.51 385.96 137.25 401.57"/><line class="cls-2" x1="92.98" y1="393.76" x2="113.62" y2="393.76"/><rect class="cls-2" x="397.04" y="351.11" width="4.05" height="94.93"/><rect class="cls-2" x="207.39" y="351.11" width="4.05" height="94.93"/><path class="cls-4" d="M360.47,315.59h23.58a0,0,0,0,1,0,0V411a11.79,11.79,0,0,1-11.79,11.79h0A11.79,11.79,0,0,1,360.47,411V315.59A0,0,0,0,1,360.47,315.59Z"/><path class="cls-5" d="M384.05,317.39v8.84c-1.66-3.25-4.21-8.28-4.3-8.55Z"/><path class="cls-5" d="M372.26,422.8A11.78,11.78,0,0,1,360.47,411V315.59H365v93C365,419.33,372.26,422.8,372.26,422.8Z"/><path class="cls-5" d="M384.05,317.39v8.84c-1.66-3.25-4.21-8.28-4.3-8.55Z"/><path class="cls-2" d="M360.47,315.59V411a11.79,11.79,0,0,0,11.79,11.79h0A11.79,11.79,0,0,0,384.05,411V315.59"/><rect class="cls-4" x="355.87" y="311.9" width="32.79" height="7" rx="3.5"/><path class="cls-2" d="M366.74,318.9h-7.37a3.5,3.5,0,0,1-3.5-3.5h0a3.5,3.5,0,0,1,3.5-3.5h25.79a3.5,3.5,0,0,1,3.5,3.5h0a3.5,3.5,0,0,1-3.5,3.5h-4.8"/><path class="cls-4" d="M315,315.59h23.58a0,0,0,0,1,0,0V411a11.79,11.79,0,0,1-11.79,11.79h0A11.79,11.79,0,0,1,315,411V315.59A0,0,0,0,1,315,315.59Z"/><path class="cls-5" d="M338.6,317.39v8.84c-1.66-3.25-4.21-8.28-4.3-8.55Z"/><path class="cls-5" d="M326.82,422.8A11.78,11.78,0,0,1,315,411V315.59h4.48v93C319.51,419.33,326.82,422.8,326.82,422.8Z"/><path class="cls-5" d="M338.6,317.39v8.84c-1.66-3.25-4.21-8.28-4.3-8.55Z"/><path class="cls-2" d="M315,315.59V411a11.79,11.79,0,0,0,11.79,11.79h0A11.79,11.79,0,0,0,338.61,411V315.59"/><rect class="cls-4" x="310.42" y="311.9" width="32.79" height="7" rx="3.5"/><path class="cls-2" d="M321.29,318.9h-7.37a3.5,3.5,0,0,1-3.5-3.5h0a3.5,3.5,0,0,1,3.5-3.5h25.79a3.5,3.5,0,0,1,3.5,3.5h0a3.5,3.5,0,0,1-3.5,3.5h-4.79"/><path class="cls-4" d="M269.58,315.59h23.58a0,0,0,0,1,0,0V411a11.79,11.79,0,0,1-11.79,11.79h0A11.79,11.79,0,0,1,269.58,411V315.59A0,0,0,0,1,269.58,315.59Z"/><path class="cls-5" d="M293.16,317.39v8.84c-1.66-3.25-4.22-8.28-4.31-8.55Z"/><path class="cls-5" d="M281.37,422.8A11.78,11.78,0,0,1,269.58,411V315.59h4.48v93C274.06,419.33,281.37,422.8,281.37,422.8Z"/><path class="cls-5" d="M293.16,317.39v8.84c-1.66-3.25-4.22-8.28-4.31-8.55Z"/><path class="cls-2" d="M269.58,315.59V411a11.79,11.79,0,0,0,11.79,11.79h0A11.79,11.79,0,0,0,293.16,411V315.59"/><rect class="cls-4" x="264.97" y="311.9" width="32.79" height="7" rx="3.5"/><path class="cls-2" d="M275.84,318.9h-7.37a3.5,3.5,0,0,1-3.5-3.5h0a3.5,3.5,0,0,1,3.5-3.5h25.79a3.5,3.5,0,0,1,3.5,3.5h0a3.49,3.49,0,0,1-3.5,3.5h-4.79"/><path class="cls-4" d="M224.13,315.59h23.58a0,0,0,0,1,0,0V411a11.79,11.79,0,0,1-11.79,11.79h0A11.79,11.79,0,0,1,224.13,411V315.59A0,0,0,0,1,224.13,315.59Z"/><path class="cls-5" d="M247.71,317.39v8.84c-1.66-3.25-4.22-8.28-4.3-8.55Z"/><path class="cls-5" d="M235.92,422.8A11.78,11.78,0,0,1,224.13,411V315.59h4.49v93C228.62,419.33,235.92,422.8,235.92,422.8Z"/><path class="cls-5" d="M247.71,317.39v8.84c-1.66-3.25-4.22-8.28-4.3-8.55Z"/><path class="cls-2" d="M224.13,315.59V411a11.79,11.79,0,0,0,11.79,11.79h0A11.79,11.79,0,0,0,247.71,411V315.59"/><rect class="cls-4" x="219.53" y="311.9" width="32.79" height="7" rx="3.5"/><path class="cls-2" d="M230.4,318.9H223a3.5,3.5,0,0,1-3.5-3.5h0a3.5,3.5,0,0,1,3.5-3.5h25.79a3.5,3.5,0,0,1,3.5,3.5h0a3.5,3.5,0,0,1-3.5,3.5H244"/><path class="cls-7" d="M229,390.22h13.79a0,0,0,0,1,0,0v19.9a6.89,6.89,0,0,1-6.89,6.89h0a6.89,6.89,0,0,1-6.89-6.89v-19.9a0,0,0,0,1,0,0Z"/><path class="cls-7" d="M274.48,371.72h13.79a0,0,0,0,1,0,0v38.4a6.89,6.89,0,0,1-6.89,6.89h0a6.89,6.89,0,0,1-6.89-6.89v-38.4a0,0,0,0,1,0,0Z"/><path class="cls-7" d="M319.92,399.89h13.79a0,0,0,0,1,0,0v10.23a6.89,6.89,0,0,1-6.89,6.89h0a6.89,6.89,0,0,1-6.89-6.89V399.89a0,0,0,0,1,0,0Z"/><path class="cls-7" d="M365.37,383.5h13.79a0,0,0,0,1,0,0v26.63a6.89,6.89,0,0,1-6.89,6.89h0a6.89,6.89,0,0,1-6.89-6.89V383.5A0,0,0,0,1,365.37,383.5Z"/><rect class="cls-11" x="207.39" y="337.98" width="193.76" height="26.27"/><g class="cls-12"><path class="cls-13" d="M143.61,335.13c5.37,4.73,18,10.83,27.17,10.23,24.56-1.63,53.05-10.86,63.67-21.62,1.07-1.08,4-.49,5.94-.15,5.67,1,20-7.08,18.39-3.48-7.24,15.85-49,33.71-72.59,37.29-2.93.45,1.63,8.31,3.36,9.88,1.12,1,3.28,1.27,5.23,1.39a98.85,98.85,0,0,0,27-2.05c10.26-2.25,30.35-8.14,41-9.38,24.93-2.89,45.61-17.18,55.11-31,3.88-5.65-1.77-1.2,3.83-1.3,4.26-.08,9.11,1.23,10.14,3.86a4.57,4.57,0,0,1-.35,3.44c-3.89,9.61-15.1,17.45-26.72,23.72s-24.59,12.24-39.76,13.88"/><path class="cls-13" d="M369.38,327.07c-4.73,12.27-13.31,24-25.86,33.8s-29.1,17.62-47.86,21.81c-.89-.22-1.36-.95-1-1.5"/><path class="cls-13" d="M350.82,373.73c4.28-6,10.14-11.47,15.28-17.18,3.87-4.28,13.88-15.09,16.43-7.91s-.78,14.41-3.33,18.22c-3.7,5.54-7.06,7.69-12.18,12.65"/><path class="cls-13" d="M408.7,321c5.34,11,3,22.61-7,32.35-8.55,8.38-14.17,18.29-23.61,26.15"/><path class="cls-13" d="M424.58,335.8c7.91,7.47,11,19.36,8.28,28.2s-7.26,16.85-17,23"/><path class="cls-13" d="M271.13,321.55c-14,16.07-24.16,25.44-12,22.77s35.64-24.09,35.64-24.09"/></g><rect class="cls-2" x="207.39" y="337.98" width="193.76" height="26.27"/><rect class="cls-11" x="207.39" y="435.44" width="193.7" height="21.2" transform="translate(608.48 892.08) rotate(180)"/><g class="cls-14"><path class="cls-13" d="M442,439.51c-4.88,3.29-16.22,7.37-24.2,6.62-21.47-2-46.22-7.12-55.14-15.38-.89-.83-3.5-.5-5.2-.31-5,.55-17.3-5.86-16-3.17,5.76,11.91,41.85,23.8,62.39,27.22,2.55.42-1.74,6.06-3.3,7.15-1,.71-2.93.83-4.64.85a102.84,102.84,0,0,1-23.61-2.39c-8.92-2-26.32-7-35.63-8.26-21.75-2.95-39.48-11.52-47.3-22-3.2-4.28,1.59-.82-3.31-1.08-3.73-.2-7.92-2-8.92-.12a2.92,2.92,0,0,0,.18,2.55c3.07,7.2,12.61,13.34,22.57,18.33S321,459.32,334.28,461"/><path class="cls-13" d="M240.1,426.26c4.28,10.1,12.56,17.32,24.74,25.77s28.46,15.48,47,19.68c.9-.14,1.39-.71,1-1.17"/><path class="cls-13" d="M257.1,462.08c-4.06-5-9.72-9.68-14.66-14.51-3.7-3.63-13.32-12.78-16.12-7.1s.27,11.66,2.68,14.84c3.51,4.62,6.79,6.51,11.73,10.73"/><path class="cls-13" d="M201,419.67c-5.72,8.62-3.64,15.49,6,23.78,8.25,7.13,13.51,15.37,22.66,22.12"/><path class="cls-13" d="M184.66,430.9C176.5,436.58,173,446,175.4,453.28s6.77,11.29,16.3,16.64"/><path class="cls-13" d="M325.7,425.78c14,13,24.16,17.92,12,15.76S302,424.72,302,424.72"/></g><rect class="cls-2" x="207.39" y="435.44" width="193.7" height="21.2" transform="translate(608.48 892.08) rotate(180)"/><ellipse class="cls-6" cx="235.92" cy="390.22" rx="6.89" ry="0.81"/><ellipse class="cls-6" cx="281.37" cy="371.72" rx="6.89" ry="0.81"/><ellipse class="cls-6" cx="326.82" cy="399.89" rx="6.89" ry="0.81"/><ellipse class="cls-6" cx="372.26" cy="383.5" rx="6.89" ry="0.81"/><rect class="cls-15" x="207.39" y="358.49" width="193.76" height="5.76"/><rect class="cls-15" x="207.39" y="450.88" width="193.76" height="5.76"/><line class="cls-2" x1="118.31" y1="228.43" x2="161.94" y2="228.43"/><rect class="cls-9" x="49.24" y="224.55" width="70.34" height="7.68" rx="3.84" transform="translate(168.83 456.77) rotate(180)"/><path class="cls-7" d="M98.92,224.55h16.82a3.84,3.84,0,0,1,3.84,3.84h0a3.84,3.84,0,0,1-3.84,3.84h-19Z"/><path class="cls-2" d="M107.66,224.55h8.08a3.84,3.84,0,0,1,3.84,3.84h0a3.84,3.84,0,0,1-3.84,3.84H53.08a3.84,3.84,0,0,1-3.84-3.84h0a3.84,3.84,0,0,1,3.84-3.84h54.58Z"/><circle class="cls-9" cx="163.94" cy="227.82" r="11.98"/><path class="cls-7" d="M161.94,230.13a35.79,35.79,0,0,1-4.51-12,12,12,0,0,0,13,20.15c.21-.13.39-.28.59-.42A19.92,19.92,0,0,1,161.94,230.13Z"/><circle class="cls-2" cx="163.94" cy="227.82" r="11.98"/><circle class="cls-9" cx="163.94" cy="227.82" r="6"/><circle class="cls-2" cx="163.85" cy="228.16" r="6"/><path class="cls-3" d="M296.48,46.43a9.12,9.12,0,1,1-18.23,0c0-5,9.12-15.22,9.12-15.22S296.48,41.4,296.48,46.43Z"/><path class="cls-3" d="M291.75,8.81a4.39,4.39,0,1,1-8.77,0c0-2.42,4.39-7.31,4.39-7.31S291.75,6.39,291.75,8.81Z"/><path class="cls-5" d="M290.49,52.26a12.23,12.23,0,0,1-11.65-8.49,7.8,7.8,0,0,0-.59,2.66,9.11,9.11,0,0,0,16.77,5A12.22,12.22,0,0,1,290.49,52.26Z"/><path class="cls-5" d="M289.29,10.77a6.12,6.12,0,0,1-5.82-4.24,3.8,3.8,0,0,0-.3,1.33,4.56,4.56,0,0,0,8.39,2.48A6.11,6.11,0,0,1,289.29,10.77Z"/><path class="cls-2" d="M296.48,46.43a9.12,9.12,0,1,1-18.23,0c0-5,9.12-15.22,9.12-15.22S296.48,41.4,296.48,46.43Z"/><path class="cls-2" d="M291.75,8.81a4.39,4.39,0,1,1-8.77,0c0-2.42,4.39-7.31,4.39-7.31S291.75,6.39,291.75,8.81Z"/><circle class="cls-3" cx="90.62" cy="304.11" r="4.42"/><circle class="cls-3" cx="94.85" cy="287.06" r="1.86"/></g></g></svg>